G75*
G70*
%OFA0B0*%
%FSLAX24Y24*%
%IPPOS*%
%LPD*%
%AMOC8*
5,1,8,0,0,1.08239X$1,22.5*
%
%ADD10C,0.0000*%
D10*
X000180Y000300D02*
X000180Y031800D01*
X059230Y031800D01*
X059230Y000300D01*
X000180Y000300D01*
X000735Y001480D02*
X000737Y001530D01*
X000743Y001579D01*
X000753Y001628D01*
X000766Y001675D01*
X000784Y001722D01*
X000805Y001767D01*
X000829Y001810D01*
X000857Y001851D01*
X000888Y001890D01*
X000922Y001926D01*
X000959Y001960D01*
X000999Y001990D01*
X001040Y002017D01*
X001084Y002041D01*
X001129Y002061D01*
X001176Y002077D01*
X001224Y002090D01*
X001273Y002099D01*
X001323Y002104D01*
X001372Y002105D01*
X001422Y002102D01*
X001471Y002095D01*
X001520Y002084D01*
X001567Y002070D01*
X001613Y002051D01*
X001658Y002029D01*
X001701Y002004D01*
X001741Y001975D01*
X001779Y001943D01*
X001815Y001909D01*
X001848Y001871D01*
X001877Y001831D01*
X001903Y001789D01*
X001926Y001745D01*
X001945Y001699D01*
X001961Y001652D01*
X001973Y001603D01*
X001981Y001554D01*
X001985Y001505D01*
X001985Y001455D01*
X001981Y001406D01*
X001973Y001357D01*
X001961Y001308D01*
X001945Y001261D01*
X001926Y001215D01*
X001903Y001171D01*
X001877Y001129D01*
X001848Y001089D01*
X001815Y001051D01*
X001779Y001017D01*
X001741Y000985D01*
X001701Y000956D01*
X001658Y000931D01*
X001613Y000909D01*
X001567Y000890D01*
X001520Y000876D01*
X001471Y000865D01*
X001422Y000858D01*
X001372Y000855D01*
X001323Y000856D01*
X001273Y000861D01*
X001224Y000870D01*
X001176Y000883D01*
X001129Y000899D01*
X001084Y000919D01*
X001040Y000943D01*
X000999Y000970D01*
X000959Y001000D01*
X000922Y001034D01*
X000888Y001070D01*
X000857Y001109D01*
X000829Y001150D01*
X000805Y001193D01*
X000784Y001238D01*
X000766Y001285D01*
X000753Y001332D01*
X000743Y001381D01*
X000737Y001430D01*
X000735Y001480D01*
X046805Y025400D02*
X046807Y025450D01*
X046813Y025499D01*
X046823Y025548D01*
X046836Y025595D01*
X046854Y025642D01*
X046875Y025687D01*
X046899Y025730D01*
X046927Y025771D01*
X046958Y025810D01*
X046992Y025846D01*
X047029Y025880D01*
X047069Y025910D01*
X047110Y025937D01*
X047154Y025961D01*
X047199Y025981D01*
X047246Y025997D01*
X047294Y026010D01*
X047343Y026019D01*
X047393Y026024D01*
X047442Y026025D01*
X047492Y026022D01*
X047541Y026015D01*
X047590Y026004D01*
X047637Y025990D01*
X047683Y025971D01*
X047728Y025949D01*
X047771Y025924D01*
X047811Y025895D01*
X047849Y025863D01*
X047885Y025829D01*
X047918Y025791D01*
X047947Y025751D01*
X047973Y025709D01*
X047996Y025665D01*
X048015Y025619D01*
X048031Y025572D01*
X048043Y025523D01*
X048051Y025474D01*
X048055Y025425D01*
X048055Y025375D01*
X048051Y025326D01*
X048043Y025277D01*
X048031Y025228D01*
X048015Y025181D01*
X047996Y025135D01*
X047973Y025091D01*
X047947Y025049D01*
X047918Y025009D01*
X047885Y024971D01*
X047849Y024937D01*
X047811Y024905D01*
X047771Y024876D01*
X047728Y024851D01*
X047683Y024829D01*
X047637Y024810D01*
X047590Y024796D01*
X047541Y024785D01*
X047492Y024778D01*
X047442Y024775D01*
X047393Y024776D01*
X047343Y024781D01*
X047294Y024790D01*
X047246Y024803D01*
X047199Y024819D01*
X047154Y024839D01*
X047110Y024863D01*
X047069Y024890D01*
X047029Y024920D01*
X046992Y024954D01*
X046958Y024990D01*
X046927Y025029D01*
X046899Y025070D01*
X046875Y025113D01*
X046854Y025158D01*
X046836Y025205D01*
X046823Y025252D01*
X046813Y025301D01*
X046807Y025350D01*
X046805Y025400D01*
X057425Y030610D02*
X057427Y030660D01*
X057433Y030709D01*
X057443Y030758D01*
X057456Y030805D01*
X057474Y030852D01*
X057495Y030897D01*
X057519Y030940D01*
X057547Y030981D01*
X057578Y031020D01*
X057612Y031056D01*
X057649Y031090D01*
X057689Y031120D01*
X057730Y031147D01*
X057774Y031171D01*
X057819Y031191D01*
X057866Y031207D01*
X057914Y031220D01*
X057963Y031229D01*
X058013Y031234D01*
X058062Y031235D01*
X058112Y031232D01*
X058161Y031225D01*
X058210Y031214D01*
X058257Y031200D01*
X058303Y031181D01*
X058348Y031159D01*
X058391Y031134D01*
X058431Y031105D01*
X058469Y031073D01*
X058505Y031039D01*
X058538Y031001D01*
X058567Y030961D01*
X058593Y030919D01*
X058616Y030875D01*
X058635Y030829D01*
X058651Y030782D01*
X058663Y030733D01*
X058671Y030684D01*
X058675Y030635D01*
X058675Y030585D01*
X058671Y030536D01*
X058663Y030487D01*
X058651Y030438D01*
X058635Y030391D01*
X058616Y030345D01*
X058593Y030301D01*
X058567Y030259D01*
X058538Y030219D01*
X058505Y030181D01*
X058469Y030147D01*
X058431Y030115D01*
X058391Y030086D01*
X058348Y030061D01*
X058303Y030039D01*
X058257Y030020D01*
X058210Y030006D01*
X058161Y029995D01*
X058112Y029988D01*
X058062Y029985D01*
X058013Y029986D01*
X057963Y029991D01*
X057914Y030000D01*
X057866Y030013D01*
X057819Y030029D01*
X057774Y030049D01*
X057730Y030073D01*
X057689Y030100D01*
X057649Y030130D01*
X057612Y030164D01*
X057578Y030200D01*
X057547Y030239D01*
X057519Y030280D01*
X057495Y030323D01*
X057474Y030368D01*
X057456Y030415D01*
X057443Y030462D01*
X057433Y030511D01*
X057427Y030560D01*
X057425Y030610D01*
X010185Y030610D02*
X010187Y030660D01*
X010193Y030709D01*
X010203Y030758D01*
X010216Y030805D01*
X010234Y030852D01*
X010255Y030897D01*
X010279Y030940D01*
X010307Y030981D01*
X010338Y031020D01*
X010372Y031056D01*
X010409Y031090D01*
X010449Y031120D01*
X010490Y031147D01*
X010534Y031171D01*
X010579Y031191D01*
X010626Y031207D01*
X010674Y031220D01*
X010723Y031229D01*
X010773Y031234D01*
X010822Y031235D01*
X010872Y031232D01*
X010921Y031225D01*
X010970Y031214D01*
X011017Y031200D01*
X011063Y031181D01*
X011108Y031159D01*
X011151Y031134D01*
X011191Y031105D01*
X011229Y031073D01*
X011265Y031039D01*
X011298Y031001D01*
X011327Y030961D01*
X011353Y030919D01*
X011376Y030875D01*
X011395Y030829D01*
X011411Y030782D01*
X011423Y030733D01*
X011431Y030684D01*
X011435Y030635D01*
X011435Y030585D01*
X011431Y030536D01*
X011423Y030487D01*
X011411Y030438D01*
X011395Y030391D01*
X011376Y030345D01*
X011353Y030301D01*
X011327Y030259D01*
X011298Y030219D01*
X011265Y030181D01*
X011229Y030147D01*
X011191Y030115D01*
X011151Y030086D01*
X011108Y030061D01*
X011063Y030039D01*
X011017Y030020D01*
X010970Y030006D01*
X010921Y029995D01*
X010872Y029988D01*
X010822Y029985D01*
X010773Y029986D01*
X010723Y029991D01*
X010674Y030000D01*
X010626Y030013D01*
X010579Y030029D01*
X010534Y030049D01*
X010490Y030073D01*
X010449Y030100D01*
X010409Y030130D01*
X010372Y030164D01*
X010338Y030200D01*
X010307Y030239D01*
X010279Y030280D01*
X010255Y030323D01*
X010234Y030368D01*
X010216Y030415D01*
X010203Y030462D01*
X010193Y030511D01*
X010187Y030560D01*
X010185Y030610D01*
X057425Y001480D02*
X057427Y001530D01*
X057433Y001579D01*
X057443Y001628D01*
X057456Y001675D01*
X057474Y001722D01*
X057495Y001767D01*
X057519Y001810D01*
X057547Y001851D01*
X057578Y001890D01*
X057612Y001926D01*
X057649Y001960D01*
X057689Y001990D01*
X057730Y002017D01*
X057774Y002041D01*
X057819Y002061D01*
X057866Y002077D01*
X057914Y002090D01*
X057963Y002099D01*
X058013Y002104D01*
X058062Y002105D01*
X058112Y002102D01*
X058161Y002095D01*
X058210Y002084D01*
X058257Y002070D01*
X058303Y002051D01*
X058348Y002029D01*
X058391Y002004D01*
X058431Y001975D01*
X058469Y001943D01*
X058505Y001909D01*
X058538Y001871D01*
X058567Y001831D01*
X058593Y001789D01*
X058616Y001745D01*
X058635Y001699D01*
X058651Y001652D01*
X058663Y001603D01*
X058671Y001554D01*
X058675Y001505D01*
X058675Y001455D01*
X058671Y001406D01*
X058663Y001357D01*
X058651Y001308D01*
X058635Y001261D01*
X058616Y001215D01*
X058593Y001171D01*
X058567Y001129D01*
X058538Y001089D01*
X058505Y001051D01*
X058469Y001017D01*
X058431Y000985D01*
X058391Y000956D01*
X058348Y000931D01*
X058303Y000909D01*
X058257Y000890D01*
X058210Y000876D01*
X058161Y000865D01*
X058112Y000858D01*
X058062Y000855D01*
X058013Y000856D01*
X057963Y000861D01*
X057914Y000870D01*
X057866Y000883D01*
X057819Y000899D01*
X057774Y000919D01*
X057730Y000943D01*
X057689Y000970D01*
X057649Y001000D01*
X057612Y001034D01*
X057578Y001070D01*
X057547Y001109D01*
X057519Y001150D01*
X057495Y001193D01*
X057474Y001238D01*
X057456Y001285D01*
X057443Y001332D01*
X057433Y001381D01*
X057427Y001430D01*
X057425Y001480D01*
M02*
