G75*
G70*
%OFA0B0*%
%FSLAX24Y24*%
%IPPOS*%
%LPD*%
%AMOC8*
5,1,8,0,0,1.08239X$1,22.5*
%
%ADD10C,0.1290*%
%ADD11OC8,0.0631*%
%ADD12C,0.0631*%
%ADD13C,0.1267*%
%ADD14C,0.1162*%
%ADD15OC8,0.0640*%
%ADD16C,0.2040*%
%ADD17OC8,0.0650*%
%ADD18OC8,0.0590*%
D10*
X001360Y001480D03*
X047430Y025400D03*
X058050Y030610D03*
X010810Y030610D03*
X058050Y001480D03*
D11*
X045430Y005900D03*
X044430Y005900D03*
X043430Y005900D03*
X042430Y005900D03*
X041430Y005900D03*
X040430Y005900D03*
X039430Y005900D03*
X038430Y005900D03*
X037430Y005900D03*
X036430Y005900D03*
X035430Y005900D03*
X034430Y005900D03*
X033430Y005900D03*
X032430Y005900D03*
X031430Y005900D03*
X030430Y005900D03*
X029430Y005900D03*
X028430Y005900D03*
X027430Y005900D03*
X026430Y005900D03*
X025430Y005900D03*
X024430Y005900D03*
X023430Y005900D03*
X023430Y006900D03*
X024430Y006900D03*
X025430Y006900D03*
X026430Y006900D03*
X027430Y006900D03*
X028430Y006900D03*
X029430Y006900D03*
X030430Y006900D03*
X031430Y006900D03*
X032430Y006900D03*
X033430Y006900D03*
X034430Y006900D03*
X035430Y006900D03*
X036430Y006900D03*
X037430Y006900D03*
X038430Y006900D03*
X039430Y006900D03*
X040430Y006900D03*
X041430Y006900D03*
X042430Y006900D03*
X043430Y006900D03*
X044430Y006900D03*
X045430Y006900D03*
X028580Y004350D03*
X027580Y004350D03*
X026580Y004350D03*
X025580Y004350D03*
X024580Y004350D03*
X023580Y004350D03*
X023580Y003350D03*
X024580Y003350D03*
X025580Y003350D03*
X026580Y003350D03*
X027580Y003350D03*
X028580Y003350D03*
X028580Y002350D03*
X027580Y002350D03*
X026580Y002350D03*
X025580Y002350D03*
X024580Y002350D03*
X023580Y002350D03*
X023480Y028250D03*
X024480Y028250D03*
X025480Y028250D03*
X026480Y028250D03*
X027480Y028250D03*
X028480Y028250D03*
X029480Y028250D03*
X030480Y028250D03*
X030480Y029250D03*
X029480Y029250D03*
X028480Y029250D03*
X027480Y029250D03*
X026480Y029250D03*
X025480Y029250D03*
X024480Y029250D03*
X023480Y029250D03*
X032180Y029250D03*
X033180Y029250D03*
X034180Y029250D03*
X035180Y029250D03*
X036180Y029250D03*
X037180Y029250D03*
X038180Y029250D03*
X039180Y029250D03*
X039180Y028250D03*
X038180Y028250D03*
X037180Y028250D03*
X036180Y028250D03*
X035180Y028250D03*
X034180Y028250D03*
X033180Y028250D03*
X032180Y028250D03*
X040930Y028250D03*
X041930Y028250D03*
X042930Y028250D03*
X043930Y028250D03*
X044930Y028250D03*
X045930Y028250D03*
X046930Y028250D03*
X047930Y028250D03*
X047930Y029250D03*
X046930Y029250D03*
X045930Y029250D03*
X044930Y029250D03*
X043930Y029250D03*
X042930Y029250D03*
X041930Y029250D03*
X040930Y029250D03*
X049630Y029250D03*
X050630Y029250D03*
X051630Y029250D03*
X052630Y029250D03*
X053630Y029250D03*
X054630Y029250D03*
X055630Y029250D03*
X056630Y029250D03*
X056630Y028250D03*
X055630Y028250D03*
X054630Y028250D03*
X053630Y028250D03*
X052630Y028250D03*
X051630Y028250D03*
X050630Y028250D03*
X049630Y028250D03*
D12*
X039365Y018660D02*
X038775Y018660D01*
X038775Y017660D02*
X039365Y017660D01*
X039365Y016660D02*
X038775Y016660D01*
X032730Y015445D02*
X032730Y014855D01*
X031730Y014855D02*
X031730Y015445D01*
X027025Y011480D02*
X026435Y011480D01*
X026435Y010480D02*
X027025Y010480D01*
X027025Y009480D02*
X026435Y009480D01*
X030185Y003350D02*
X030775Y003350D01*
X030775Y002350D02*
X030185Y002350D01*
X051880Y005505D02*
X051880Y006095D01*
X052880Y006095D02*
X052880Y005505D01*
X024880Y025505D02*
X024880Y026095D01*
X023880Y026095D02*
X023880Y025505D01*
D13*
X007593Y023182D02*
X006367Y023182D01*
X006367Y019168D02*
X007593Y019168D01*
X007593Y012932D02*
X006367Y012932D01*
X006367Y008918D02*
X007593Y008918D01*
X007593Y002682D02*
X006367Y002682D01*
X006367Y029418D02*
X007593Y029418D01*
D14*
X007541Y027859D02*
X006419Y027859D01*
X006419Y026300D02*
X007541Y026300D01*
X007541Y024741D02*
X006419Y024741D01*
X006419Y017609D02*
X007541Y017609D01*
X007541Y016050D02*
X006419Y016050D01*
X006419Y014491D02*
X007541Y014491D01*
X007541Y007359D02*
X006419Y007359D01*
X006419Y005800D02*
X007541Y005800D01*
X007541Y004241D02*
X006419Y004241D01*
D15*
X003590Y014030D03*
X002470Y014570D03*
X003590Y015120D03*
X002470Y015660D03*
X003590Y016200D03*
X002470Y016750D03*
X003590Y017290D03*
X002470Y017830D03*
X003590Y018380D03*
X002470Y018920D03*
X003590Y019460D03*
X002470Y020010D03*
X003590Y020550D03*
X002470Y021090D03*
X003590Y021640D03*
X002470Y022180D03*
X003590Y022720D03*
X002470Y023270D03*
X003590Y023810D03*
X002470Y024350D03*
X003590Y024900D03*
X002470Y025440D03*
X003590Y025980D03*
X002470Y026530D03*
X003590Y027070D03*
D16*
X003030Y029810D03*
X003030Y011290D03*
D17*
X048030Y007100D03*
X049030Y007100D03*
X050030Y007100D03*
X050030Y006100D03*
X049030Y006100D03*
X048030Y006100D03*
D18*
X032930Y003100D03*
X003130Y005700D03*
X001330Y005700D03*
X001330Y007150D03*
X003130Y007150D03*
X003130Y008700D03*
X001330Y008700D03*
M02*
