G75*
G70*
%OFA0B0*%
%FSLAX24Y24*%
%IPPOS*%
%LPD*%
%AMOC8*
5,1,8,0,0,1.08239X$1,22.5*
%
%ADD10C,0.0000*%
%ADD11C,0.0040*%
%ADD12C,0.0120*%
%ADD13R,0.2500X0.3600*%
%ADD14C,0.0050*%
%ADD15C,0.0030*%
%ADD16C,0.0080*%
%ADD17R,0.0300X0.0340*%
%ADD18C,0.0118*%
%ADD19C,0.0100*%
%ADD20R,0.0118X0.0827*%
%ADD21C,0.0060*%
%ADD22C,0.0217*%
%ADD23R,0.0827X0.0118*%
%ADD24R,0.0500X0.0500*%
%ADD25R,0.0197X0.0197*%
%ADD26R,0.0256X0.0256*%
%ADD27C,0.0070*%
%ADD28R,0.0098X0.0098*%
%ADD29R,0.0250X0.0250*%
%ADD30C,0.0020*%
%ADD31R,0.0591X0.0591*%
D10*
X000180Y000300D02*
X000180Y031800D01*
X059230Y031800D01*
X059230Y000300D01*
X000180Y000300D01*
X000735Y001480D02*
X000737Y001530D01*
X000743Y001579D01*
X000753Y001628D01*
X000766Y001675D01*
X000784Y001722D01*
X000805Y001767D01*
X000829Y001810D01*
X000857Y001851D01*
X000888Y001890D01*
X000922Y001926D01*
X000959Y001960D01*
X000999Y001990D01*
X001040Y002017D01*
X001084Y002041D01*
X001129Y002061D01*
X001176Y002077D01*
X001224Y002090D01*
X001273Y002099D01*
X001323Y002104D01*
X001372Y002105D01*
X001422Y002102D01*
X001471Y002095D01*
X001520Y002084D01*
X001567Y002070D01*
X001613Y002051D01*
X001658Y002029D01*
X001701Y002004D01*
X001741Y001975D01*
X001779Y001943D01*
X001815Y001909D01*
X001848Y001871D01*
X001877Y001831D01*
X001903Y001789D01*
X001926Y001745D01*
X001945Y001699D01*
X001961Y001652D01*
X001973Y001603D01*
X001981Y001554D01*
X001985Y001505D01*
X001985Y001455D01*
X001981Y001406D01*
X001973Y001357D01*
X001961Y001308D01*
X001945Y001261D01*
X001926Y001215D01*
X001903Y001171D01*
X001877Y001129D01*
X001848Y001089D01*
X001815Y001051D01*
X001779Y001017D01*
X001741Y000985D01*
X001701Y000956D01*
X001658Y000931D01*
X001613Y000909D01*
X001567Y000890D01*
X001520Y000876D01*
X001471Y000865D01*
X001422Y000858D01*
X001372Y000855D01*
X001323Y000856D01*
X001273Y000861D01*
X001224Y000870D01*
X001176Y000883D01*
X001129Y000899D01*
X001084Y000919D01*
X001040Y000943D01*
X000999Y000970D01*
X000959Y001000D01*
X000922Y001034D01*
X000888Y001070D01*
X000857Y001109D01*
X000829Y001150D01*
X000805Y001193D01*
X000784Y001238D01*
X000766Y001285D01*
X000753Y001332D01*
X000743Y001381D01*
X000737Y001430D01*
X000735Y001480D01*
X046805Y025400D02*
X046807Y025450D01*
X046813Y025499D01*
X046823Y025548D01*
X046836Y025595D01*
X046854Y025642D01*
X046875Y025687D01*
X046899Y025730D01*
X046927Y025771D01*
X046958Y025810D01*
X046992Y025846D01*
X047029Y025880D01*
X047069Y025910D01*
X047110Y025937D01*
X047154Y025961D01*
X047199Y025981D01*
X047246Y025997D01*
X047294Y026010D01*
X047343Y026019D01*
X047393Y026024D01*
X047442Y026025D01*
X047492Y026022D01*
X047541Y026015D01*
X047590Y026004D01*
X047637Y025990D01*
X047683Y025971D01*
X047728Y025949D01*
X047771Y025924D01*
X047811Y025895D01*
X047849Y025863D01*
X047885Y025829D01*
X047918Y025791D01*
X047947Y025751D01*
X047973Y025709D01*
X047996Y025665D01*
X048015Y025619D01*
X048031Y025572D01*
X048043Y025523D01*
X048051Y025474D01*
X048055Y025425D01*
X048055Y025375D01*
X048051Y025326D01*
X048043Y025277D01*
X048031Y025228D01*
X048015Y025181D01*
X047996Y025135D01*
X047973Y025091D01*
X047947Y025049D01*
X047918Y025009D01*
X047885Y024971D01*
X047849Y024937D01*
X047811Y024905D01*
X047771Y024876D01*
X047728Y024851D01*
X047683Y024829D01*
X047637Y024810D01*
X047590Y024796D01*
X047541Y024785D01*
X047492Y024778D01*
X047442Y024775D01*
X047393Y024776D01*
X047343Y024781D01*
X047294Y024790D01*
X047246Y024803D01*
X047199Y024819D01*
X047154Y024839D01*
X047110Y024863D01*
X047069Y024890D01*
X047029Y024920D01*
X046992Y024954D01*
X046958Y024990D01*
X046927Y025029D01*
X046899Y025070D01*
X046875Y025113D01*
X046854Y025158D01*
X046836Y025205D01*
X046823Y025252D01*
X046813Y025301D01*
X046807Y025350D01*
X046805Y025400D01*
X057425Y030610D02*
X057427Y030660D01*
X057433Y030709D01*
X057443Y030758D01*
X057456Y030805D01*
X057474Y030852D01*
X057495Y030897D01*
X057519Y030940D01*
X057547Y030981D01*
X057578Y031020D01*
X057612Y031056D01*
X057649Y031090D01*
X057689Y031120D01*
X057730Y031147D01*
X057774Y031171D01*
X057819Y031191D01*
X057866Y031207D01*
X057914Y031220D01*
X057963Y031229D01*
X058013Y031234D01*
X058062Y031235D01*
X058112Y031232D01*
X058161Y031225D01*
X058210Y031214D01*
X058257Y031200D01*
X058303Y031181D01*
X058348Y031159D01*
X058391Y031134D01*
X058431Y031105D01*
X058469Y031073D01*
X058505Y031039D01*
X058538Y031001D01*
X058567Y030961D01*
X058593Y030919D01*
X058616Y030875D01*
X058635Y030829D01*
X058651Y030782D01*
X058663Y030733D01*
X058671Y030684D01*
X058675Y030635D01*
X058675Y030585D01*
X058671Y030536D01*
X058663Y030487D01*
X058651Y030438D01*
X058635Y030391D01*
X058616Y030345D01*
X058593Y030301D01*
X058567Y030259D01*
X058538Y030219D01*
X058505Y030181D01*
X058469Y030147D01*
X058431Y030115D01*
X058391Y030086D01*
X058348Y030061D01*
X058303Y030039D01*
X058257Y030020D01*
X058210Y030006D01*
X058161Y029995D01*
X058112Y029988D01*
X058062Y029985D01*
X058013Y029986D01*
X057963Y029991D01*
X057914Y030000D01*
X057866Y030013D01*
X057819Y030029D01*
X057774Y030049D01*
X057730Y030073D01*
X057689Y030100D01*
X057649Y030130D01*
X057612Y030164D01*
X057578Y030200D01*
X057547Y030239D01*
X057519Y030280D01*
X057495Y030323D01*
X057474Y030368D01*
X057456Y030415D01*
X057443Y030462D01*
X057433Y030511D01*
X057427Y030560D01*
X057425Y030610D01*
X010185Y030610D02*
X010187Y030660D01*
X010193Y030709D01*
X010203Y030758D01*
X010216Y030805D01*
X010234Y030852D01*
X010255Y030897D01*
X010279Y030940D01*
X010307Y030981D01*
X010338Y031020D01*
X010372Y031056D01*
X010409Y031090D01*
X010449Y031120D01*
X010490Y031147D01*
X010534Y031171D01*
X010579Y031191D01*
X010626Y031207D01*
X010674Y031220D01*
X010723Y031229D01*
X010773Y031234D01*
X010822Y031235D01*
X010872Y031232D01*
X010921Y031225D01*
X010970Y031214D01*
X011017Y031200D01*
X011063Y031181D01*
X011108Y031159D01*
X011151Y031134D01*
X011191Y031105D01*
X011229Y031073D01*
X011265Y031039D01*
X011298Y031001D01*
X011327Y030961D01*
X011353Y030919D01*
X011376Y030875D01*
X011395Y030829D01*
X011411Y030782D01*
X011423Y030733D01*
X011431Y030684D01*
X011435Y030635D01*
X011435Y030585D01*
X011431Y030536D01*
X011423Y030487D01*
X011411Y030438D01*
X011395Y030391D01*
X011376Y030345D01*
X011353Y030301D01*
X011327Y030259D01*
X011298Y030219D01*
X011265Y030181D01*
X011229Y030147D01*
X011191Y030115D01*
X011151Y030086D01*
X011108Y030061D01*
X011063Y030039D01*
X011017Y030020D01*
X010970Y030006D01*
X010921Y029995D01*
X010872Y029988D01*
X010822Y029985D01*
X010773Y029986D01*
X010723Y029991D01*
X010674Y030000D01*
X010626Y030013D01*
X010579Y030029D01*
X010534Y030049D01*
X010490Y030073D01*
X010449Y030100D01*
X010409Y030130D01*
X010372Y030164D01*
X010338Y030200D01*
X010307Y030239D01*
X010279Y030280D01*
X010255Y030323D01*
X010234Y030368D01*
X010216Y030415D01*
X010203Y030462D01*
X010193Y030511D01*
X010187Y030560D01*
X010185Y030610D01*
X057425Y001480D02*
X057427Y001530D01*
X057433Y001579D01*
X057443Y001628D01*
X057456Y001675D01*
X057474Y001722D01*
X057495Y001767D01*
X057519Y001810D01*
X057547Y001851D01*
X057578Y001890D01*
X057612Y001926D01*
X057649Y001960D01*
X057689Y001990D01*
X057730Y002017D01*
X057774Y002041D01*
X057819Y002061D01*
X057866Y002077D01*
X057914Y002090D01*
X057963Y002099D01*
X058013Y002104D01*
X058062Y002105D01*
X058112Y002102D01*
X058161Y002095D01*
X058210Y002084D01*
X058257Y002070D01*
X058303Y002051D01*
X058348Y002029D01*
X058391Y002004D01*
X058431Y001975D01*
X058469Y001943D01*
X058505Y001909D01*
X058538Y001871D01*
X058567Y001831D01*
X058593Y001789D01*
X058616Y001745D01*
X058635Y001699D01*
X058651Y001652D01*
X058663Y001603D01*
X058671Y001554D01*
X058675Y001505D01*
X058675Y001455D01*
X058671Y001406D01*
X058663Y001357D01*
X058651Y001308D01*
X058635Y001261D01*
X058616Y001215D01*
X058593Y001171D01*
X058567Y001129D01*
X058538Y001089D01*
X058505Y001051D01*
X058469Y001017D01*
X058431Y000985D01*
X058391Y000956D01*
X058348Y000931D01*
X058303Y000909D01*
X058257Y000890D01*
X058210Y000876D01*
X058161Y000865D01*
X058112Y000858D01*
X058062Y000855D01*
X058013Y000856D01*
X057963Y000861D01*
X057914Y000870D01*
X057866Y000883D01*
X057819Y000899D01*
X057774Y000919D01*
X057730Y000943D01*
X057689Y000970D01*
X057649Y001000D01*
X057612Y001034D01*
X057578Y001070D01*
X057547Y001109D01*
X057519Y001150D01*
X057495Y001193D01*
X057474Y001238D01*
X057456Y001285D01*
X057443Y001332D01*
X057433Y001381D01*
X057427Y001430D01*
X057425Y001480D01*
D11*
X052477Y001470D02*
X052237Y001470D01*
X052357Y001470D02*
X052357Y001830D01*
X052237Y001710D01*
X052109Y001770D02*
X052048Y001830D01*
X051928Y001830D01*
X051868Y001770D01*
X051868Y001530D01*
X051928Y001470D01*
X052048Y001470D01*
X052109Y001530D01*
X051740Y001530D02*
X051740Y001770D01*
X051680Y001830D01*
X051560Y001830D01*
X051500Y001770D01*
X051500Y001530D01*
X051560Y001470D01*
X051680Y001470D01*
X051740Y001530D01*
X040881Y001029D02*
X040574Y001029D01*
X040727Y001029D02*
X040727Y001490D01*
X040574Y001336D01*
X040420Y001413D02*
X040344Y001490D01*
X040190Y001490D01*
X040113Y001413D01*
X040113Y001336D01*
X040190Y001260D01*
X040344Y001260D01*
X040420Y001183D01*
X040420Y001106D01*
X040344Y001029D01*
X040190Y001029D01*
X040113Y001106D01*
X035672Y001480D02*
X035612Y001420D01*
X035492Y001420D01*
X035432Y001480D01*
X035432Y001540D01*
X035492Y001600D01*
X035612Y001600D01*
X035672Y001540D01*
X035672Y001480D01*
X035612Y001600D02*
X035672Y001660D01*
X035672Y001720D01*
X035612Y001780D01*
X035492Y001780D01*
X035432Y001720D01*
X035432Y001660D01*
X035492Y001600D01*
X035304Y001480D02*
X035304Y001780D01*
X035063Y001780D02*
X035063Y001480D01*
X035123Y001420D01*
X035244Y001420D01*
X035304Y001480D01*
X032377Y002180D02*
X032377Y002420D01*
X032317Y002480D01*
X032137Y002480D01*
X032137Y002120D01*
X032317Y002120D01*
X032377Y002180D01*
X032009Y002120D02*
X032009Y002480D01*
X031768Y002480D02*
X032009Y002120D01*
X031768Y002120D02*
X031768Y002480D01*
X031640Y002420D02*
X031580Y002480D01*
X031460Y002480D01*
X031400Y002420D01*
X031400Y002180D01*
X031460Y002120D01*
X031580Y002120D01*
X031640Y002180D01*
X031640Y002300D01*
X031520Y002300D01*
X031888Y002870D02*
X032009Y002990D01*
X032009Y003230D01*
X031768Y003230D02*
X031768Y002990D01*
X031888Y002870D01*
X031640Y003050D02*
X031400Y003050D01*
X031520Y003170D02*
X031520Y002930D01*
X020212Y003027D02*
X019982Y003027D01*
X019905Y002950D01*
X019982Y002873D01*
X020136Y002873D01*
X020212Y002797D01*
X020136Y002720D01*
X019905Y002720D01*
X019752Y002720D02*
X019675Y002797D01*
X019675Y003104D01*
X019598Y003027D02*
X019752Y003027D01*
X019445Y003027D02*
X019445Y002720D01*
X019215Y002720D01*
X019138Y002797D01*
X019138Y003027D01*
X018985Y002950D02*
X018985Y002797D01*
X018908Y002720D01*
X018678Y002720D01*
X018678Y002567D02*
X018678Y003027D01*
X018908Y003027D01*
X018985Y002950D01*
X018524Y003027D02*
X018371Y003027D01*
X018448Y003104D02*
X018448Y002797D01*
X018524Y002720D01*
X018217Y002720D02*
X018217Y003027D01*
X017910Y003027D02*
X017910Y002797D01*
X017987Y002720D01*
X018217Y002720D01*
X017757Y002797D02*
X017757Y003104D01*
X017680Y003180D01*
X017527Y003180D01*
X017450Y003104D01*
X017450Y002797D01*
X017527Y002720D01*
X017680Y002720D01*
X017757Y002797D01*
X017680Y003470D02*
X017527Y003470D01*
X017450Y003547D01*
X017527Y003700D02*
X017680Y003700D01*
X017757Y003623D01*
X017757Y003547D01*
X017680Y003470D01*
X017910Y003547D02*
X017910Y003700D01*
X017987Y003777D01*
X018141Y003777D01*
X018217Y003700D01*
X018217Y003623D01*
X017910Y003623D01*
X017910Y003547D02*
X017987Y003470D01*
X018141Y003470D01*
X018371Y003470D02*
X018371Y003777D01*
X018524Y003777D02*
X018371Y003623D01*
X018524Y003777D02*
X018601Y003777D01*
X018754Y003777D02*
X018908Y003470D01*
X019061Y003777D01*
X019215Y003700D02*
X019215Y003547D01*
X019292Y003470D01*
X019445Y003470D01*
X019522Y003547D01*
X019522Y003700D01*
X019445Y003777D01*
X019292Y003777D01*
X019215Y003700D01*
X017757Y003854D02*
X017680Y003930D01*
X017527Y003930D01*
X017450Y003854D01*
X017450Y003777D01*
X017527Y003700D01*
X013910Y003748D02*
X013850Y003688D01*
X013730Y003688D01*
X013670Y003748D01*
X013670Y003868D01*
X013730Y003929D01*
X013790Y003929D01*
X013790Y003688D01*
X013910Y003748D02*
X013910Y003868D01*
X013850Y003560D02*
X013730Y003560D01*
X013670Y003500D01*
X013670Y003320D01*
X013550Y003320D02*
X013910Y003320D01*
X013910Y003500D01*
X013850Y003560D01*
X013310Y003500D02*
X013250Y003560D01*
X012950Y003560D01*
X013070Y003688D02*
X013070Y003868D01*
X013130Y003929D01*
X013310Y003929D01*
X013310Y004057D02*
X013310Y004237D01*
X013250Y004297D01*
X013130Y004297D01*
X013070Y004237D01*
X013070Y004057D01*
X013430Y004057D01*
X013310Y003688D02*
X013070Y003688D01*
X013310Y003500D02*
X013310Y003380D01*
X013250Y003320D01*
X012950Y003320D01*
X012710Y003320D02*
X012470Y003320D01*
X012350Y003440D01*
X012470Y003560D01*
X012710Y003560D01*
X012530Y003560D02*
X012530Y003320D01*
X012470Y003688D02*
X012470Y003808D01*
X012410Y003748D02*
X012650Y003748D01*
X012710Y003808D01*
X012650Y003994D02*
X012410Y003994D01*
X012470Y003934D02*
X012470Y004054D01*
X012470Y004179D02*
X012710Y004179D01*
X012590Y004179D02*
X012470Y004300D01*
X012470Y004360D01*
X012470Y004486D02*
X012470Y004546D01*
X012710Y004546D01*
X012710Y004486D02*
X012710Y004606D01*
X012710Y004732D02*
X012710Y004912D01*
X012650Y004972D01*
X012530Y004972D01*
X012470Y004912D01*
X012470Y004732D01*
X012350Y004732D02*
X012710Y004732D01*
X013070Y004793D02*
X013310Y004793D01*
X013190Y004793D02*
X013070Y004913D01*
X013070Y004973D01*
X013070Y005100D02*
X013070Y005220D01*
X013010Y005160D02*
X013250Y005160D01*
X013310Y005220D01*
X013250Y005346D02*
X013130Y005346D01*
X013070Y005406D01*
X013070Y005526D01*
X013130Y005586D01*
X013190Y005586D01*
X013190Y005346D01*
X013250Y005346D02*
X013310Y005406D01*
X013310Y005526D01*
X013250Y005714D02*
X013130Y005714D01*
X013070Y005774D01*
X013070Y005954D01*
X012950Y005954D02*
X013310Y005954D01*
X013310Y005774D01*
X013250Y005714D01*
X013490Y005651D02*
X013550Y005651D01*
X013670Y005651D02*
X013910Y005651D01*
X013910Y005591D02*
X013910Y005711D01*
X013910Y005837D02*
X013550Y005837D01*
X013670Y005837D02*
X013670Y006017D01*
X013730Y006077D01*
X013850Y006077D01*
X013910Y006017D01*
X013910Y005837D01*
X013670Y005651D02*
X013670Y005591D01*
X013670Y005464D02*
X013670Y005404D01*
X013790Y005284D01*
X013910Y005284D02*
X013670Y005284D01*
X013670Y005159D02*
X013670Y005039D01*
X013610Y005099D02*
X013850Y005099D01*
X013910Y005159D01*
X013910Y004913D02*
X013850Y004853D01*
X013610Y004853D01*
X013670Y004793D02*
X013670Y004913D01*
X013730Y004665D02*
X013910Y004665D01*
X013910Y004485D01*
X013850Y004425D01*
X013790Y004485D01*
X013790Y004665D01*
X013730Y004665D02*
X013670Y004605D01*
X013670Y004485D01*
X013310Y004485D02*
X013250Y004425D01*
X013130Y004425D01*
X013070Y004485D01*
X013070Y004605D01*
X013130Y004665D01*
X013250Y004665D01*
X013310Y004605D01*
X013310Y004485D01*
X012650Y005100D02*
X012710Y005160D01*
X012710Y005340D01*
X012470Y005340D01*
X012470Y005468D02*
X012470Y005589D01*
X012410Y005529D02*
X012650Y005529D01*
X012710Y005589D01*
X012710Y005714D02*
X012710Y005834D01*
X012710Y005774D02*
X012470Y005774D01*
X012470Y005714D01*
X012350Y005774D02*
X012290Y005774D01*
X012110Y005775D02*
X011870Y005775D01*
X011990Y005775D02*
X011870Y005896D01*
X011870Y005956D01*
X011990Y006082D02*
X011870Y006263D01*
X011990Y006082D02*
X012110Y006263D01*
X012110Y006082D02*
X011750Y006082D01*
X011930Y005647D02*
X011870Y005587D01*
X011870Y005467D01*
X011930Y005407D01*
X012050Y005407D01*
X012110Y005467D01*
X012110Y005587D01*
X012050Y005647D01*
X011930Y005647D01*
X011870Y005279D02*
X012050Y005279D01*
X012110Y005219D01*
X012050Y005159D01*
X012110Y005099D01*
X012050Y005039D01*
X011870Y005039D01*
X011870Y004542D02*
X011870Y004362D01*
X011930Y004302D01*
X011990Y004362D01*
X011990Y004482D01*
X012050Y004542D01*
X012110Y004482D01*
X012110Y004302D01*
X012110Y004177D02*
X012110Y004057D01*
X012110Y004117D02*
X011870Y004117D01*
X011870Y004057D01*
X011750Y004117D02*
X011690Y004117D01*
X011930Y003929D02*
X011870Y003868D01*
X011870Y003748D01*
X011930Y003688D01*
X011750Y003688D02*
X012110Y003688D01*
X012110Y003929D02*
X011930Y003929D01*
X011750Y003560D02*
X011750Y003320D01*
X011750Y003440D02*
X012110Y003440D01*
X012650Y003994D02*
X012710Y004054D01*
X012350Y004546D02*
X012290Y004546D01*
X012470Y005100D02*
X012650Y005100D01*
X012650Y005960D02*
X012710Y006020D01*
X012710Y006140D01*
X012650Y006200D01*
X012530Y006200D01*
X012470Y006140D01*
X012470Y006020D01*
X012530Y005960D01*
X012650Y005960D01*
X012710Y006328D02*
X012470Y006328D01*
X012470Y006508D01*
X012530Y006568D01*
X012710Y006568D01*
X012530Y006696D02*
X012530Y006936D01*
X012710Y007065D02*
X012350Y007065D01*
X012710Y007305D01*
X012350Y007305D01*
X012530Y007433D02*
X012470Y007493D01*
X012470Y007613D01*
X012530Y007673D01*
X012650Y007673D01*
X012710Y007613D01*
X012710Y007493D01*
X012650Y007433D01*
X012530Y007433D01*
X012470Y007801D02*
X012470Y007981D01*
X012530Y008041D01*
X012710Y008041D01*
X012650Y008169D02*
X012710Y008230D01*
X012710Y008350D01*
X012650Y008410D01*
X012650Y008538D02*
X012710Y008598D01*
X012710Y008718D01*
X012650Y008778D01*
X012530Y008778D01*
X012470Y008718D01*
X012470Y008598D01*
X012530Y008538D01*
X012650Y008538D01*
X012410Y008410D02*
X012350Y008350D01*
X012350Y008230D01*
X012410Y008169D01*
X012650Y008169D01*
X012710Y007801D02*
X012470Y007801D01*
X012110Y007740D02*
X011870Y007740D01*
X011870Y007860D02*
X011870Y007920D01*
X011870Y007860D02*
X011990Y007740D01*
X011990Y008047D02*
X011990Y008287D01*
X011930Y008287D01*
X011870Y008227D01*
X011870Y008107D01*
X011930Y008047D01*
X012050Y008047D01*
X012110Y008107D01*
X012110Y008227D01*
X012110Y008415D02*
X012110Y008535D01*
X012110Y008475D02*
X011750Y008475D01*
X011750Y008415D01*
X011930Y008661D02*
X011870Y008721D01*
X011870Y008841D01*
X011930Y008901D01*
X011990Y008901D01*
X011990Y008661D01*
X012050Y008661D02*
X011930Y008661D01*
X012050Y008661D02*
X012110Y008721D01*
X012110Y008841D01*
X012050Y009029D02*
X011990Y009089D01*
X011990Y009269D01*
X011930Y009269D02*
X012110Y009269D01*
X012110Y009089D01*
X012050Y009029D01*
X011870Y009089D02*
X011870Y009209D01*
X011930Y009269D01*
X011930Y009397D02*
X011870Y009457D01*
X011870Y009637D01*
X011990Y009577D02*
X011990Y009457D01*
X011930Y009397D01*
X012110Y009397D02*
X012110Y009577D01*
X012050Y009637D01*
X011990Y009577D01*
X011990Y009765D02*
X011990Y010006D01*
X011930Y010006D01*
X011870Y009946D01*
X011870Y009826D01*
X011930Y009765D01*
X012050Y009765D01*
X012110Y009826D01*
X012110Y009946D01*
X012050Y010134D02*
X011930Y010134D01*
X011870Y010194D01*
X011870Y010374D01*
X011750Y010374D02*
X012110Y010374D01*
X012110Y010194D01*
X012050Y010134D01*
X012470Y010131D02*
X012470Y010191D01*
X012470Y010131D02*
X012590Y010011D01*
X012710Y010011D02*
X012470Y010011D01*
X012530Y009883D02*
X012470Y009823D01*
X012470Y009703D01*
X012530Y009643D01*
X012650Y009643D01*
X012710Y009703D01*
X012710Y009823D01*
X012590Y009883D02*
X012590Y009643D01*
X012530Y009515D02*
X012470Y009455D01*
X012530Y009395D01*
X012710Y009395D01*
X012710Y009515D02*
X012530Y009515D01*
X012530Y009395D02*
X012470Y009334D01*
X012470Y009274D01*
X012710Y009274D01*
X012710Y009146D02*
X012530Y009146D01*
X012470Y009086D01*
X012530Y009026D01*
X012710Y009026D01*
X012710Y008906D02*
X012470Y008906D01*
X012470Y008966D01*
X012530Y009026D01*
X013070Y008718D02*
X013130Y008778D01*
X013190Y008778D01*
X013190Y008538D01*
X013250Y008538D02*
X013130Y008538D01*
X013070Y008598D01*
X013070Y008718D01*
X013310Y008718D02*
X013310Y008598D01*
X013250Y008538D01*
X013250Y008410D02*
X013190Y008350D01*
X013190Y008230D01*
X013130Y008169D01*
X013070Y008230D01*
X013070Y008410D01*
X013250Y008410D02*
X013310Y008350D01*
X013310Y008169D01*
X013310Y008041D02*
X013130Y008041D01*
X013070Y007981D01*
X013070Y007801D01*
X013310Y007801D01*
X013190Y007673D02*
X013190Y007433D01*
X013250Y007433D02*
X013130Y007433D01*
X013070Y007493D01*
X013070Y007613D01*
X013130Y007673D01*
X013190Y007673D01*
X013310Y007613D02*
X013310Y007493D01*
X013250Y007433D01*
X013310Y007305D02*
X013310Y007125D01*
X013250Y007065D01*
X013130Y007065D01*
X013070Y007125D01*
X013070Y007305D01*
X013070Y006879D02*
X013310Y006879D01*
X013310Y006819D02*
X013310Y006939D01*
X013070Y006879D02*
X013070Y006819D01*
X012950Y006879D02*
X012890Y006879D01*
X012950Y006451D02*
X013310Y006451D01*
X013310Y006691D01*
X013610Y006633D02*
X013850Y006633D01*
X013910Y006694D01*
X013850Y006819D02*
X013730Y006819D01*
X013670Y006879D01*
X013670Y006999D01*
X013730Y007059D01*
X013790Y007059D01*
X013790Y006819D01*
X013850Y006819D02*
X013910Y006879D01*
X013910Y006999D01*
X013850Y007187D02*
X013730Y007187D01*
X013670Y007247D01*
X013670Y007428D01*
X013550Y007428D02*
X013910Y007428D01*
X013910Y007247D01*
X013850Y007187D01*
X013670Y006694D02*
X013670Y006573D01*
X013670Y006445D02*
X013910Y006445D01*
X013910Y006265D01*
X013850Y006205D01*
X013670Y006205D01*
X012110Y006758D02*
X012110Y006878D01*
X012110Y006818D02*
X011870Y006818D01*
X011870Y006758D01*
X011750Y006818D02*
X011690Y006818D01*
X011930Y007003D02*
X011870Y007063D01*
X011870Y007243D01*
X011990Y007183D02*
X011990Y007063D01*
X011930Y007003D01*
X012110Y007003D02*
X012110Y007183D01*
X012050Y007243D01*
X011990Y007183D01*
X013610Y007984D02*
X013850Y007984D01*
X013910Y008044D01*
X013850Y008169D02*
X013910Y008230D01*
X013910Y008350D01*
X013850Y008410D01*
X013730Y008410D01*
X013670Y008350D01*
X013670Y008230D01*
X013730Y008169D01*
X013850Y008169D01*
X013670Y008044D02*
X013670Y007924D01*
X013610Y008906D02*
X013850Y008906D01*
X013910Y008966D01*
X013910Y009086D01*
X013850Y009146D01*
X013610Y009146D01*
X013550Y009086D01*
X013550Y008966D01*
X013610Y008906D01*
X013310Y008906D02*
X013310Y008966D01*
X013250Y008966D01*
X013250Y008906D01*
X013310Y008906D01*
X013670Y009274D02*
X013670Y009455D01*
X013730Y009515D01*
X013850Y009515D01*
X013910Y009455D01*
X013910Y009274D01*
X014030Y009274D02*
X013670Y009274D01*
X013730Y009643D02*
X013670Y009703D01*
X013670Y009823D01*
X013730Y009883D01*
X013790Y009883D01*
X013790Y009643D01*
X013850Y009643D02*
X013730Y009643D01*
X013850Y009643D02*
X013910Y009703D01*
X013910Y009823D01*
X013910Y010011D02*
X013670Y010011D01*
X013670Y010191D01*
X013730Y010251D01*
X013910Y010251D01*
X013910Y010379D02*
X013550Y010379D01*
X013550Y010560D01*
X013610Y010620D01*
X013730Y010620D01*
X013790Y010560D01*
X013790Y010379D01*
X013790Y010499D02*
X013910Y010620D01*
X013850Y010748D02*
X013910Y010808D01*
X013910Y010928D01*
X013850Y010988D01*
X013610Y010988D01*
X013550Y010928D01*
X013550Y010808D01*
X013610Y010748D01*
X013850Y010748D01*
X013790Y011116D02*
X013550Y011116D01*
X013790Y011116D02*
X013910Y011236D01*
X013790Y011356D01*
X013550Y011356D01*
X013310Y011295D02*
X013310Y011115D01*
X013250Y011055D01*
X013130Y011055D01*
X013070Y011115D01*
X013070Y011295D01*
X012950Y011295D02*
X013310Y011295D01*
X013250Y011423D02*
X013130Y011423D01*
X013070Y011483D01*
X013070Y011603D01*
X013130Y011663D01*
X013190Y011663D01*
X013190Y011423D01*
X013250Y011423D02*
X013310Y011483D01*
X013310Y011603D01*
X013310Y011791D02*
X013070Y011791D01*
X013190Y011791D02*
X013070Y011911D01*
X013070Y011971D01*
X013070Y012098D02*
X013070Y012158D01*
X013310Y012158D01*
X013310Y012098D02*
X013310Y012218D01*
X013310Y012464D02*
X013070Y012584D01*
X013070Y012772D02*
X013070Y012892D01*
X013130Y012952D01*
X013310Y012952D01*
X013310Y012772D01*
X013250Y012712D01*
X013190Y012772D01*
X013190Y012952D01*
X013070Y013080D02*
X013070Y013200D01*
X013010Y013140D02*
X013250Y013140D01*
X013310Y013200D01*
X013310Y013326D02*
X013310Y013446D01*
X013310Y013386D02*
X013070Y013386D01*
X013070Y013326D01*
X012950Y013386D02*
X012890Y013386D01*
X012710Y013386D02*
X012650Y013326D01*
X012530Y013326D01*
X012470Y013386D01*
X012470Y013506D01*
X012530Y013566D01*
X012590Y013566D01*
X012590Y013326D01*
X012710Y013386D02*
X012710Y013506D01*
X013070Y013571D02*
X013310Y013692D01*
X013070Y013812D01*
X013130Y013940D02*
X013070Y014000D01*
X013070Y014120D01*
X013130Y014180D01*
X013190Y014180D01*
X013190Y013940D01*
X013250Y013940D02*
X013130Y013940D01*
X013250Y013940D02*
X013310Y014000D01*
X013310Y014120D01*
X013250Y014676D02*
X013070Y014676D01*
X013250Y014676D02*
X013310Y014736D01*
X013250Y014796D01*
X013310Y014857D01*
X013250Y014917D01*
X013070Y014917D01*
X013130Y015045D02*
X013070Y015105D01*
X013070Y015225D01*
X013130Y015285D01*
X013250Y015285D01*
X013310Y015225D01*
X013310Y015105D01*
X013250Y015045D01*
X013130Y015045D01*
X012710Y015102D02*
X012590Y014922D01*
X012470Y015102D01*
X012530Y015229D02*
X012470Y015289D01*
X012470Y015409D01*
X012530Y015469D01*
X012590Y015469D01*
X012590Y015229D01*
X012650Y015229D02*
X012530Y015229D01*
X012650Y015229D02*
X012710Y015289D01*
X012710Y015409D01*
X013070Y015413D02*
X013310Y015413D01*
X013190Y015413D02*
X013070Y015533D01*
X013070Y015593D01*
X013190Y015720D02*
X013070Y015900D01*
X013130Y016027D02*
X013070Y016087D01*
X013070Y016267D01*
X013190Y016207D02*
X013190Y016087D01*
X013130Y016027D01*
X013310Y016027D02*
X013310Y016207D01*
X013250Y016267D01*
X013190Y016207D01*
X013310Y015900D02*
X013190Y015720D01*
X013310Y015720D02*
X012950Y015720D01*
X012650Y015965D02*
X012710Y016026D01*
X012710Y016146D01*
X012650Y016206D01*
X012590Y016206D01*
X012530Y016146D01*
X012530Y016086D01*
X012530Y016146D02*
X012470Y016206D01*
X012410Y016206D01*
X012350Y016146D01*
X012350Y016026D01*
X012410Y015965D01*
X012110Y016027D02*
X012110Y016147D01*
X012110Y016087D02*
X011870Y016087D01*
X011870Y016027D01*
X011870Y015901D02*
X011870Y015781D01*
X011810Y015841D02*
X012050Y015841D01*
X012110Y015901D01*
X012110Y015653D02*
X012110Y015473D01*
X012050Y015413D01*
X011990Y015473D01*
X011990Y015653D01*
X011930Y015653D02*
X012110Y015653D01*
X011930Y015653D02*
X011870Y015593D01*
X011870Y015473D01*
X011930Y015285D02*
X011870Y015225D01*
X011870Y015105D01*
X011930Y015045D01*
X012050Y015045D01*
X012110Y015105D01*
X012110Y015225D01*
X011990Y015285D02*
X011990Y015045D01*
X011870Y014918D02*
X011870Y014858D01*
X011990Y014738D01*
X012110Y014738D02*
X011870Y014738D01*
X011810Y014610D02*
X011750Y014550D01*
X011750Y014429D01*
X011810Y014369D01*
X012050Y014369D01*
X012110Y014429D01*
X012110Y014550D01*
X012050Y014610D01*
X012290Y014736D02*
X012350Y014736D01*
X012470Y014736D02*
X012710Y014736D01*
X012710Y014676D02*
X012710Y014796D01*
X012710Y014922D02*
X012350Y014922D01*
X012470Y014736D02*
X012470Y014676D01*
X012350Y014491D02*
X012710Y014491D01*
X012710Y014431D02*
X012710Y014551D01*
X012710Y014303D02*
X012470Y014303D01*
X012350Y014183D01*
X012470Y014063D01*
X012710Y014063D01*
X012530Y014063D02*
X012530Y014303D01*
X012350Y014431D02*
X012350Y014491D01*
X011990Y013873D02*
X011990Y013633D01*
X012050Y013633D02*
X011930Y013633D01*
X011870Y013693D01*
X011870Y013813D01*
X011930Y013873D01*
X011990Y013873D01*
X012110Y013813D02*
X012110Y013693D01*
X012050Y013633D01*
X012110Y013505D02*
X011930Y013505D01*
X011870Y013445D01*
X011870Y013325D01*
X011930Y013264D01*
X011870Y013139D02*
X011870Y013019D01*
X011810Y013079D02*
X012050Y013079D01*
X012110Y013139D01*
X012110Y013264D02*
X011750Y013264D01*
X012470Y013199D02*
X012470Y013139D01*
X012590Y013019D01*
X012710Y013019D02*
X012470Y013019D01*
X012530Y012891D02*
X012470Y012831D01*
X012470Y012711D01*
X012590Y012711D02*
X012590Y012891D01*
X012530Y012891D02*
X012710Y012891D01*
X012710Y012711D01*
X012650Y012651D01*
X012590Y012711D01*
X012530Y012523D02*
X012710Y012523D01*
X012530Y012523D02*
X012470Y012462D01*
X012470Y012342D01*
X012530Y012282D01*
X012590Y012154D02*
X012650Y012154D01*
X012710Y012094D01*
X012710Y011974D01*
X012650Y011914D01*
X012530Y011974D02*
X012530Y012094D01*
X012590Y012154D01*
X012710Y012282D02*
X012350Y012282D01*
X012410Y012154D02*
X012350Y012094D01*
X012350Y011974D01*
X012410Y011914D01*
X012470Y011914D01*
X012530Y011974D01*
X012530Y011786D02*
X012530Y011546D01*
X012710Y011420D02*
X012710Y011300D01*
X012710Y011360D02*
X012350Y011360D01*
X012350Y011300D01*
X012530Y011172D02*
X012470Y011112D01*
X012470Y010992D01*
X012590Y010992D02*
X012590Y011172D01*
X012530Y011172D02*
X012710Y011172D01*
X012710Y010992D01*
X012650Y010932D01*
X012590Y010992D01*
X012710Y010806D02*
X012710Y010686D01*
X012710Y010746D02*
X012470Y010746D01*
X012470Y010686D01*
X012470Y010558D02*
X012470Y010378D01*
X012530Y010318D01*
X012650Y010318D01*
X012710Y010378D01*
X012710Y010558D01*
X012950Y010501D02*
X013310Y010501D01*
X013310Y010441D02*
X013310Y010561D01*
X013310Y010315D02*
X013310Y010195D01*
X013310Y010255D02*
X012950Y010255D01*
X012950Y010195D01*
X013070Y010067D02*
X013310Y010067D01*
X013130Y010067D02*
X013130Y009827D01*
X013070Y009827D02*
X013310Y009827D01*
X013070Y009827D02*
X012950Y009947D01*
X013070Y010067D01*
X012950Y010441D02*
X012950Y010501D01*
X012350Y010746D02*
X012290Y010746D01*
X012110Y010930D02*
X012050Y010870D01*
X011870Y010870D01*
X011870Y011111D02*
X012110Y011111D01*
X012110Y010930D01*
X012110Y011239D02*
X011870Y011239D01*
X011870Y011419D01*
X011930Y011479D01*
X012110Y011479D01*
X012050Y011607D02*
X011930Y011607D01*
X011870Y011667D01*
X011870Y011847D01*
X011750Y011847D02*
X012110Y011847D01*
X012110Y011667D01*
X012050Y011607D01*
X012050Y011975D02*
X011930Y011975D01*
X011870Y012035D01*
X011870Y012156D01*
X011930Y012216D01*
X011990Y012216D01*
X011990Y011975D01*
X012050Y011975D02*
X012110Y012035D01*
X012110Y012156D01*
X012110Y012344D02*
X011870Y012344D01*
X011870Y012464D02*
X011870Y012524D01*
X011870Y012464D02*
X011990Y012344D01*
X012890Y012158D02*
X012950Y012158D01*
X013070Y012344D02*
X013310Y012464D01*
X010010Y014670D02*
X010010Y014977D01*
X009933Y015130D02*
X010010Y015207D01*
X010010Y015361D01*
X009933Y015437D01*
X009857Y015437D01*
X009780Y015361D01*
X009780Y015207D01*
X009703Y015130D01*
X009626Y015130D01*
X009550Y015207D01*
X009550Y015361D01*
X009626Y015437D01*
X009626Y015591D02*
X009933Y015591D01*
X010010Y015668D01*
X010010Y015821D01*
X009933Y015898D01*
X009626Y015898D02*
X009550Y015821D01*
X009550Y015668D01*
X009626Y015591D01*
X009550Y014977D02*
X009550Y014670D01*
X010010Y014670D01*
X009780Y014670D02*
X009780Y014823D01*
X011930Y015285D02*
X011990Y015285D01*
X011750Y016087D02*
X011690Y016087D01*
X011870Y016272D02*
X012110Y016392D01*
X011870Y016513D01*
X011930Y016641D02*
X011870Y016701D01*
X011870Y016821D01*
X011930Y016881D01*
X011990Y016881D01*
X011990Y016641D01*
X012050Y016641D02*
X011930Y016641D01*
X012050Y016641D02*
X012110Y016701D01*
X012110Y016821D01*
X012350Y016698D02*
X012410Y016758D01*
X012650Y016518D01*
X012710Y016578D01*
X012710Y016698D01*
X012650Y016758D01*
X012410Y016758D01*
X012350Y016698D02*
X012350Y016578D01*
X012410Y016518D01*
X012650Y016518D01*
X012650Y016394D02*
X012710Y016394D01*
X012710Y016334D01*
X012650Y016334D01*
X012650Y016394D01*
X013070Y016824D02*
X013070Y016944D01*
X013130Y017004D01*
X013310Y017004D01*
X013310Y016824D01*
X013250Y016763D01*
X013190Y016824D01*
X013190Y017004D01*
X013190Y017132D02*
X013070Y017252D01*
X013070Y017312D01*
X013130Y017439D02*
X013070Y017499D01*
X013070Y017619D01*
X013130Y017679D01*
X013190Y017679D01*
X013190Y017439D01*
X013250Y017439D02*
X013130Y017439D01*
X013250Y017439D02*
X013310Y017499D01*
X013310Y017619D01*
X013070Y018175D02*
X013070Y018295D01*
X013010Y018235D02*
X013250Y018235D01*
X013310Y018295D01*
X013250Y018421D02*
X013310Y018481D01*
X013310Y018601D01*
X013250Y018661D01*
X013130Y018661D01*
X013070Y018601D01*
X013070Y018481D01*
X013130Y018421D01*
X013250Y018421D01*
X012110Y018482D02*
X011870Y018482D01*
X011870Y018542D01*
X011930Y018602D01*
X011870Y018662D01*
X011930Y018722D01*
X012110Y018722D01*
X012110Y018602D02*
X011930Y018602D01*
X011930Y018354D02*
X011870Y018294D01*
X011930Y018234D01*
X012110Y018234D01*
X012110Y018114D02*
X011870Y018114D01*
X011870Y018174D01*
X011930Y018234D01*
X011930Y018354D02*
X012110Y018354D01*
X012050Y017986D02*
X011930Y017986D01*
X011870Y017926D01*
X011870Y017806D01*
X011930Y017746D01*
X012050Y017746D01*
X012110Y017806D01*
X012110Y017926D01*
X012050Y017986D01*
X012050Y017618D02*
X012110Y017557D01*
X012110Y017437D01*
X012050Y017377D01*
X011810Y017377D01*
X011750Y017437D01*
X011750Y017557D01*
X011810Y017618D01*
X013070Y017132D02*
X013310Y017132D01*
X012050Y018851D02*
X012110Y018911D01*
X012110Y019031D01*
X012050Y019091D01*
X011930Y019091D01*
X011870Y019031D01*
X011870Y018911D01*
X011930Y018851D01*
X012050Y018851D01*
X012110Y019219D02*
X011870Y019219D01*
X011870Y019399D01*
X011930Y019459D01*
X012110Y019459D01*
X012110Y019587D02*
X012110Y019767D01*
X012050Y019827D01*
X011990Y019767D01*
X011990Y019647D01*
X011930Y019587D01*
X011870Y019647D01*
X011870Y019827D01*
X010010Y016818D02*
X010010Y016512D01*
X009703Y016818D01*
X009626Y016818D01*
X009550Y016742D01*
X009550Y016588D01*
X009626Y016512D01*
X012530Y009883D02*
X012590Y009883D01*
X009983Y006318D02*
X010060Y006242D01*
X010060Y006088D01*
X009983Y006012D01*
X009830Y006165D02*
X009830Y006242D01*
X009907Y006318D01*
X009983Y006318D01*
X009830Y006242D02*
X009753Y006318D01*
X009676Y006318D01*
X009600Y006242D01*
X009600Y006088D01*
X009676Y006012D01*
X009676Y005398D02*
X009600Y005321D01*
X009600Y005168D01*
X009676Y005091D01*
X009983Y005091D01*
X010060Y005168D01*
X010060Y005321D01*
X009983Y005398D01*
X009983Y004937D02*
X010060Y004861D01*
X010060Y004707D01*
X009983Y004630D01*
X010060Y004477D02*
X010060Y004170D01*
X009600Y004170D01*
X009600Y004477D01*
X009676Y004630D02*
X009753Y004630D01*
X009830Y004707D01*
X009830Y004861D01*
X009907Y004937D01*
X009983Y004937D01*
X009676Y004937D02*
X009600Y004861D01*
X009600Y004707D01*
X009676Y004630D01*
X009830Y004323D02*
X009830Y004170D01*
X004195Y006180D02*
X004135Y006120D01*
X004015Y006120D01*
X003955Y006180D01*
X003955Y006300D02*
X004075Y006360D01*
X004135Y006360D01*
X004195Y006300D01*
X004195Y006180D01*
X003955Y006300D02*
X003955Y006480D01*
X004195Y006480D01*
X003827Y006420D02*
X003827Y006360D01*
X003587Y006120D01*
X003827Y006120D01*
X003827Y006420D02*
X003767Y006480D01*
X003647Y006480D01*
X003587Y006420D01*
X003459Y006420D02*
X003459Y006300D01*
X003398Y006240D01*
X003218Y006240D01*
X003218Y006120D02*
X003218Y006480D01*
X003398Y006480D01*
X003459Y006420D01*
X003090Y006480D02*
X002850Y006480D01*
X002970Y006480D02*
X002970Y006120D01*
X002395Y006300D02*
X002155Y006300D01*
X002335Y006480D01*
X002335Y006120D01*
X002027Y006120D02*
X001787Y006120D01*
X002027Y006360D01*
X002027Y006420D01*
X001967Y006480D01*
X001847Y006480D01*
X001787Y006420D01*
X001659Y006420D02*
X001659Y006300D01*
X001598Y006240D01*
X001418Y006240D01*
X001418Y006120D02*
X001418Y006480D01*
X001598Y006480D01*
X001659Y006420D01*
X001290Y006480D02*
X001050Y006480D01*
X001170Y006480D02*
X001170Y006120D01*
X001170Y007570D02*
X001170Y007930D01*
X001050Y007930D02*
X001290Y007930D01*
X001418Y007930D02*
X001598Y007930D01*
X001659Y007870D01*
X001659Y007750D01*
X001598Y007690D01*
X001418Y007690D01*
X001418Y007570D02*
X001418Y007930D01*
X001787Y007870D02*
X001847Y007930D01*
X001967Y007930D01*
X002027Y007870D01*
X002027Y007810D01*
X001787Y007570D01*
X002027Y007570D01*
X002155Y007570D02*
X002395Y007810D01*
X002395Y007870D01*
X002335Y007930D01*
X002215Y007930D01*
X002155Y007870D01*
X002155Y007570D02*
X002395Y007570D01*
X002970Y007570D02*
X002970Y007930D01*
X002850Y007930D02*
X003090Y007930D01*
X003218Y007930D02*
X003398Y007930D01*
X003459Y007870D01*
X003459Y007750D01*
X003398Y007690D01*
X003218Y007690D01*
X003218Y007570D02*
X003218Y007930D01*
X003587Y007870D02*
X003647Y007930D01*
X003767Y007930D01*
X003827Y007870D01*
X003827Y007810D01*
X003587Y007570D01*
X003827Y007570D01*
X003955Y007630D02*
X004015Y007570D01*
X004135Y007570D01*
X004195Y007630D01*
X004195Y007690D01*
X004135Y007750D01*
X004075Y007750D01*
X004135Y007750D02*
X004195Y007810D01*
X004195Y007870D01*
X004135Y007930D01*
X004015Y007930D01*
X003955Y007870D01*
X003955Y009120D02*
X004195Y009120D01*
X004075Y009120D02*
X004075Y009480D01*
X003955Y009360D01*
X003827Y009360D02*
X003827Y009420D01*
X003767Y009480D01*
X003647Y009480D01*
X003587Y009420D01*
X003459Y009420D02*
X003459Y009300D01*
X003398Y009240D01*
X003218Y009240D01*
X003218Y009120D02*
X003218Y009480D01*
X003398Y009480D01*
X003459Y009420D01*
X003587Y009120D02*
X003827Y009360D01*
X003827Y009120D02*
X003587Y009120D01*
X003090Y009480D02*
X002850Y009480D01*
X002970Y009480D02*
X002970Y009120D01*
X002395Y009180D02*
X002335Y009120D01*
X002215Y009120D01*
X002155Y009180D01*
X002395Y009420D01*
X002395Y009180D01*
X002155Y009180D02*
X002155Y009420D01*
X002215Y009480D01*
X002335Y009480D01*
X002395Y009420D01*
X002027Y009420D02*
X001967Y009480D01*
X001847Y009480D01*
X001787Y009420D01*
X001659Y009420D02*
X001659Y009300D01*
X001598Y009240D01*
X001418Y009240D01*
X001418Y009120D02*
X001418Y009480D01*
X001598Y009480D01*
X001659Y009420D01*
X001787Y009120D02*
X002027Y009360D01*
X002027Y009420D01*
X002027Y009120D02*
X001787Y009120D01*
X001290Y009480D02*
X001050Y009480D01*
X001170Y009480D02*
X001170Y009120D01*
X025793Y017770D02*
X025973Y017770D01*
X026033Y017830D01*
X026033Y018070D01*
X025973Y018130D01*
X025793Y018130D01*
X025793Y017770D01*
X026161Y017770D02*
X026401Y018010D01*
X026401Y018070D01*
X026341Y018130D01*
X026221Y018130D01*
X026161Y018070D01*
X026161Y017770D02*
X026401Y017770D01*
X031711Y019276D02*
X031891Y019276D01*
X031951Y019336D01*
X031951Y019577D01*
X031891Y019637D01*
X031711Y019637D01*
X031711Y019276D01*
X032079Y019336D02*
X032139Y019276D01*
X032259Y019276D01*
X032319Y019336D01*
X032319Y019396D01*
X032259Y019456D01*
X032199Y019456D01*
X032259Y019456D02*
X032319Y019517D01*
X032319Y019577D01*
X032259Y019637D01*
X032139Y019637D01*
X032079Y019577D01*
X031500Y022670D02*
X031560Y022730D01*
X031560Y022850D01*
X031500Y022910D01*
X031440Y022910D01*
X031380Y022850D01*
X031380Y022730D01*
X031320Y022670D01*
X031260Y022670D01*
X031200Y022730D01*
X031200Y022850D01*
X031260Y022910D01*
X031200Y023038D02*
X031560Y023038D01*
X031560Y023279D01*
X031560Y023407D02*
X031200Y023407D01*
X031560Y023647D01*
X031200Y023647D01*
X031260Y023775D02*
X031320Y023775D01*
X031380Y023835D01*
X031380Y023955D01*
X031440Y024015D01*
X031500Y024015D01*
X031560Y023955D01*
X031560Y023835D01*
X031500Y023775D01*
X031260Y023775D02*
X031200Y023835D01*
X031200Y023955D01*
X031260Y024015D01*
X031320Y024143D02*
X031200Y024263D01*
X031560Y024263D01*
X031560Y024143D02*
X031560Y024383D01*
X031200Y023279D02*
X031200Y023038D01*
X031380Y023038D02*
X031380Y023158D01*
X026451Y024720D02*
X026211Y024720D01*
X026331Y024720D02*
X026331Y025080D01*
X026211Y024960D01*
X026083Y025020D02*
X026023Y025080D01*
X025843Y025080D01*
X025843Y024720D01*
X026023Y024720D01*
X026083Y024780D01*
X026083Y025020D01*
X031082Y028020D02*
X031322Y028260D01*
X031322Y028320D01*
X031262Y028380D01*
X031142Y028380D01*
X031082Y028320D01*
X031082Y028020D02*
X031322Y028020D01*
X031322Y029070D02*
X031082Y029070D01*
X031202Y029070D02*
X031202Y029430D01*
X031082Y029310D01*
X039782Y029310D02*
X039902Y029430D01*
X039902Y029070D01*
X039782Y029070D02*
X040022Y029070D01*
X039962Y028380D02*
X039842Y028380D01*
X039782Y028320D01*
X039962Y028380D02*
X040022Y028320D01*
X040022Y028260D01*
X039782Y028020D01*
X040022Y028020D01*
X048532Y028020D02*
X048772Y028260D01*
X048772Y028320D01*
X048712Y028380D01*
X048592Y028380D01*
X048532Y028320D01*
X048532Y028020D02*
X048772Y028020D01*
X048772Y029070D02*
X048532Y029070D01*
X048652Y029070D02*
X048652Y029430D01*
X048532Y029310D01*
X054056Y026771D02*
X054116Y026831D01*
X054356Y026591D01*
X054416Y026651D01*
X054416Y026771D01*
X054356Y026831D01*
X054116Y026831D01*
X054056Y026771D02*
X054056Y026651D01*
X054116Y026591D01*
X054356Y026591D01*
X054416Y026463D02*
X054416Y026223D01*
X054416Y026343D02*
X054056Y026343D01*
X054176Y026223D01*
X054116Y026095D02*
X054056Y026035D01*
X054056Y025854D01*
X054416Y025854D01*
X054416Y026035D01*
X054356Y026095D01*
X054116Y026095D01*
X055456Y026223D02*
X055456Y026403D01*
X055516Y026463D01*
X055756Y026463D01*
X055816Y026403D01*
X055816Y026223D01*
X055456Y026223D01*
X055516Y026591D02*
X055576Y026591D01*
X055636Y026651D01*
X055636Y026831D01*
X055516Y026831D02*
X055456Y026771D01*
X055456Y026651D01*
X055516Y026591D01*
X055756Y026591D02*
X055816Y026651D01*
X055816Y026771D01*
X055756Y026831D01*
X055516Y026831D01*
X056856Y026771D02*
X056916Y026831D01*
X056976Y026831D01*
X057036Y026771D01*
X057036Y026651D01*
X056976Y026591D01*
X056916Y026591D01*
X056856Y026651D01*
X056856Y026771D01*
X057036Y026771D02*
X057096Y026831D01*
X057156Y026831D01*
X057216Y026771D01*
X057216Y026651D01*
X057156Y026591D01*
X057096Y026591D01*
X057036Y026651D01*
X056916Y026463D02*
X056856Y026403D01*
X056856Y026223D01*
X057216Y026223D01*
X057216Y026403D01*
X057156Y026463D01*
X056916Y026463D01*
X058256Y026453D02*
X058256Y026273D01*
X058616Y026273D01*
X058616Y026453D01*
X058556Y026513D01*
X058316Y026513D01*
X058256Y026453D01*
X058256Y026641D02*
X058256Y026881D01*
X058316Y026881D01*
X058556Y026641D01*
X058616Y026641D01*
X057472Y028020D02*
X057232Y028020D01*
X057472Y028260D01*
X057472Y028320D01*
X057412Y028380D01*
X057292Y028380D01*
X057232Y028320D01*
X057232Y029070D02*
X057472Y029070D01*
X057352Y029070D02*
X057352Y029430D01*
X057232Y029310D01*
X048760Y022942D02*
X048760Y022702D01*
X048760Y022822D02*
X048400Y022822D01*
X048520Y022702D01*
X048400Y022574D02*
X048760Y022333D01*
X048760Y022574D02*
X048400Y022333D01*
X046430Y018329D02*
X046310Y018329D01*
X046250Y018268D01*
X046250Y018208D01*
X046310Y018088D01*
X046130Y018088D01*
X046130Y018329D01*
X046430Y018329D02*
X046490Y018268D01*
X046490Y018148D01*
X046430Y018088D01*
X046430Y017960D02*
X046130Y017960D01*
X046130Y017720D02*
X046430Y017720D01*
X046490Y017780D01*
X046490Y017900D01*
X046430Y017960D01*
X045575Y017793D02*
X045515Y017793D01*
X045274Y018033D01*
X045214Y018033D01*
X045214Y017793D01*
X045214Y017665D02*
X045515Y017665D01*
X045575Y017604D01*
X045575Y017484D01*
X045515Y017424D01*
X045214Y017424D01*
X050380Y016100D02*
X050560Y015919D01*
X050560Y016160D01*
X050740Y016100D02*
X050380Y016100D01*
X050440Y015791D02*
X050500Y015791D01*
X050560Y015731D01*
X050620Y015791D01*
X050680Y015791D01*
X050740Y015731D01*
X050740Y015611D01*
X050680Y015551D01*
X050680Y015423D02*
X050740Y015363D01*
X050740Y015243D01*
X050680Y015183D01*
X050440Y015183D01*
X050380Y015243D01*
X050380Y015363D01*
X050440Y015423D01*
X050440Y015551D02*
X050380Y015611D01*
X050380Y015731D01*
X050440Y015791D01*
X050560Y015731D02*
X050560Y015671D01*
X051450Y013730D02*
X051450Y013370D01*
X051690Y013370D01*
X051818Y013370D02*
X052059Y013370D01*
X051938Y013370D02*
X051938Y013730D01*
X051818Y013610D01*
X052650Y008680D02*
X052890Y008680D01*
X053018Y008560D02*
X053138Y008680D01*
X053138Y008320D01*
X053018Y008320D02*
X053259Y008320D01*
X052770Y008500D02*
X052650Y008500D01*
X052650Y008320D02*
X052650Y008680D01*
X038020Y020762D02*
X038020Y020882D01*
X037960Y020942D01*
X037660Y020942D01*
X037840Y021071D02*
X037840Y021251D01*
X037900Y021311D01*
X037960Y021311D01*
X038020Y021251D01*
X038020Y021131D01*
X037960Y021071D01*
X037840Y021071D01*
X037720Y021191D01*
X037660Y021311D01*
X037660Y020702D02*
X037960Y020702D01*
X038020Y020762D01*
X009910Y025220D02*
X009910Y025527D01*
X009833Y025680D02*
X009910Y025757D01*
X009910Y025911D01*
X009833Y025987D01*
X009757Y025987D01*
X009680Y025911D01*
X009680Y025757D01*
X009603Y025680D01*
X009526Y025680D01*
X009450Y025757D01*
X009450Y025911D01*
X009526Y025987D01*
X009526Y026141D02*
X009833Y026141D01*
X009910Y026218D01*
X009910Y026371D01*
X009833Y026448D01*
X009526Y026448D02*
X009450Y026371D01*
X009450Y026218D01*
X009526Y026141D01*
X009450Y025527D02*
X009450Y025220D01*
X009910Y025220D01*
X009680Y025220D02*
X009680Y025373D01*
X009603Y027062D02*
X009450Y027215D01*
X009910Y027215D01*
X009910Y027062D02*
X009910Y027368D01*
D12*
X011124Y026969D02*
X011304Y026969D01*
X011665Y027330D01*
X011665Y027690D02*
X011665Y026969D01*
X012049Y027150D02*
X012049Y027330D01*
X012770Y027330D01*
X012770Y027510D02*
X012770Y027150D01*
X012589Y026969D01*
X012229Y026969D01*
X012049Y027150D01*
X012589Y027690D02*
X012770Y027510D01*
X012589Y027690D02*
X012229Y027690D01*
X013146Y027690D02*
X013506Y027690D01*
X013326Y027690D02*
X013326Y026609D01*
X013506Y026609D01*
X014063Y026609D02*
X014063Y027690D01*
X014243Y027690D02*
X013883Y027690D01*
X014627Y027510D02*
X014627Y027150D01*
X014807Y026969D01*
X015168Y026969D01*
X015348Y027150D01*
X015348Y027510D01*
X015168Y027690D01*
X014807Y027690D01*
X014627Y027510D01*
X014243Y026609D02*
X014063Y026609D01*
X014255Y025890D02*
X014075Y025710D01*
X014075Y024989D01*
X014255Y024809D01*
X014615Y024809D01*
X014795Y024989D01*
X014795Y025710D01*
X014615Y025890D01*
X014255Y025890D01*
X013690Y025530D02*
X013330Y025890D01*
X012970Y025530D01*
X012970Y024809D01*
X013690Y024809D02*
X013690Y025530D01*
X015180Y025350D02*
X015180Y024989D01*
X015360Y024809D01*
X015900Y024809D01*
X015900Y025890D01*
X015900Y025530D02*
X015360Y025530D01*
X015180Y025350D01*
X015540Y025530D02*
X015180Y025890D01*
X016285Y025890D02*
X016285Y025350D01*
X016465Y025169D01*
X017005Y025169D01*
X017005Y025890D01*
X017389Y025530D02*
X018110Y025530D01*
X018110Y025710D02*
X018110Y025350D01*
X017930Y025169D01*
X017570Y025169D01*
X017389Y025350D01*
X017389Y025530D01*
X017570Y025890D02*
X017930Y025890D01*
X018110Y025710D01*
X018494Y025710D02*
X018494Y025350D01*
X018675Y025169D01*
X019215Y025169D01*
X019215Y026250D01*
X019215Y025890D02*
X018675Y025890D01*
X018494Y025710D01*
X019599Y025710D02*
X019599Y024989D01*
X019780Y024809D01*
X020140Y024809D01*
X020320Y024989D01*
X020320Y025710D01*
X020140Y025890D01*
X019780Y025890D01*
X019599Y025710D01*
X019780Y026609D02*
X019599Y026789D01*
X019780Y026609D02*
X020140Y026609D01*
X020320Y026789D01*
X020320Y027510D01*
X020140Y027690D01*
X019780Y027690D01*
X019599Y027510D01*
X019215Y027510D02*
X019035Y027690D01*
X018675Y027690D01*
X018494Y027510D01*
X018494Y027150D01*
X018675Y026969D01*
X019035Y026969D01*
X019215Y027150D01*
X019215Y027510D01*
X018110Y027690D02*
X018110Y026969D01*
X017570Y026969D01*
X017389Y027150D01*
X017389Y027690D01*
X016825Y027510D02*
X016645Y027690D01*
X016825Y027510D02*
X016825Y026789D01*
X017005Y026969D02*
X016645Y026969D01*
X016269Y026969D02*
X016269Y027690D01*
X016269Y027330D02*
X015908Y026969D01*
X015728Y026969D01*
X015364Y028409D02*
X015364Y029490D01*
X015904Y029490D01*
X016084Y029310D01*
X016084Y028950D01*
X015904Y028769D01*
X015364Y028769D01*
X016465Y028769D02*
X016645Y028769D01*
X017005Y029130D01*
X017005Y029490D02*
X017005Y028769D01*
X017389Y028950D02*
X017389Y029490D01*
X017930Y029490D01*
X018110Y029310D01*
X017930Y029130D01*
X017389Y029130D01*
X017389Y028950D02*
X017570Y028769D01*
X017930Y028769D01*
X018494Y028950D02*
X018675Y028769D01*
X019035Y028769D01*
X019215Y028950D01*
X019215Y029310D01*
X019035Y029490D01*
X018675Y029490D01*
X018494Y029310D01*
X018494Y028950D01*
X019599Y029130D02*
X019599Y029310D01*
X019780Y029490D01*
X020320Y029490D01*
X020320Y028409D01*
X019780Y028409D01*
X019599Y028589D01*
X019599Y028769D01*
X019780Y028950D01*
X020320Y028950D01*
X019780Y028950D02*
X019599Y029130D01*
X019780Y030209D02*
X019599Y030389D01*
X019599Y030750D01*
X019780Y030930D01*
X020320Y030930D01*
X020320Y031290D02*
X020320Y030209D01*
X019780Y030209D01*
X019215Y030750D02*
X019035Y030569D01*
X018675Y030569D01*
X018494Y030750D01*
X018494Y030930D01*
X019215Y030930D01*
X019215Y031110D02*
X019215Y030750D01*
X019215Y031110D02*
X019035Y031290D01*
X018675Y031290D01*
X019599Y031290D02*
X019960Y030930D01*
X018110Y030569D02*
X017750Y031290D01*
X017389Y030569D01*
X015900Y030389D02*
X015720Y030209D01*
X015360Y030209D01*
X015180Y030389D01*
X015180Y030569D01*
X015900Y031290D01*
X015180Y031290D01*
X014795Y031290D02*
X014615Y031290D01*
X014615Y031110D01*
X014795Y031110D01*
X014795Y031290D01*
X014243Y031110D02*
X014063Y031290D01*
X013702Y031290D01*
X013522Y031110D01*
X013522Y030750D01*
X013702Y030569D01*
X013883Y030569D01*
X014243Y030750D01*
X014243Y030209D01*
X013522Y030209D01*
X013138Y030209D02*
X012597Y030209D01*
X012417Y030389D01*
X012417Y030569D01*
X012597Y030750D01*
X013138Y030750D01*
X013138Y031290D02*
X012597Y031290D01*
X012417Y031110D01*
X012417Y030930D01*
X012597Y030750D01*
X013138Y031290D02*
X013138Y030209D01*
D13*
X055930Y004100D03*
D14*
X051255Y005669D02*
X051255Y005744D01*
X051180Y005819D01*
X050805Y005819D01*
X050805Y005744D02*
X050805Y005894D01*
X050955Y006054D02*
X050805Y006204D01*
X051255Y006204D01*
X051255Y006054D02*
X051255Y006354D01*
X051255Y006515D02*
X050955Y006815D01*
X050880Y006815D01*
X050805Y006740D01*
X050805Y006590D01*
X050880Y006515D01*
X051255Y006515D02*
X051255Y006815D01*
X051255Y005669D02*
X051180Y005594D01*
X048776Y007950D02*
X048701Y007875D01*
X048551Y007875D01*
X048476Y007950D01*
X048316Y007875D02*
X048015Y007875D01*
X048166Y007875D02*
X048166Y008325D01*
X048015Y008175D01*
X047855Y008325D02*
X047705Y008325D01*
X047780Y008325D02*
X047780Y007950D01*
X047705Y007875D01*
X047630Y007875D01*
X047555Y007950D01*
X048476Y008250D02*
X048551Y008325D01*
X048701Y008325D01*
X048776Y008250D01*
X048776Y008175D01*
X048701Y008100D01*
X048776Y008025D01*
X048776Y007950D01*
X048701Y008100D02*
X048626Y008100D01*
X048207Y008525D02*
X048207Y008825D01*
X048207Y008675D02*
X048357Y008825D01*
X048432Y008825D01*
X048047Y008750D02*
X048047Y008675D01*
X047747Y008675D01*
X047747Y008600D02*
X047747Y008750D01*
X047822Y008825D01*
X047972Y008825D01*
X048047Y008750D01*
X047972Y008525D02*
X047822Y008525D01*
X047747Y008600D01*
X047586Y008525D02*
X047361Y008525D01*
X047286Y008600D01*
X047286Y008750D01*
X047361Y008825D01*
X047586Y008825D01*
X047586Y008975D02*
X047586Y008525D01*
X047126Y008525D02*
X047126Y008750D01*
X047051Y008825D01*
X046901Y008825D01*
X046901Y008675D02*
X047126Y008675D01*
X047126Y008525D02*
X046901Y008525D01*
X046826Y008600D01*
X046901Y008675D01*
X046666Y008675D02*
X046365Y008675D01*
X046365Y008600D02*
X046365Y008750D01*
X046440Y008825D01*
X046591Y008825D01*
X046666Y008750D01*
X046666Y008675D01*
X046591Y008525D02*
X046440Y008525D01*
X046365Y008600D01*
X046205Y008525D02*
X046205Y008975D01*
X046205Y008750D02*
X045905Y008750D01*
X045905Y008525D02*
X045905Y008975D01*
X045905Y009275D02*
X046055Y009275D01*
X045980Y009275D02*
X045980Y009725D01*
X045905Y009725D02*
X046055Y009725D01*
X046212Y009650D02*
X046212Y009350D01*
X046287Y009275D01*
X046437Y009275D01*
X046512Y009350D01*
X046672Y009350D02*
X046747Y009275D01*
X046898Y009275D01*
X046973Y009350D01*
X046973Y009425D01*
X046898Y009500D01*
X046747Y009500D01*
X046672Y009575D01*
X046672Y009650D01*
X046747Y009725D01*
X046898Y009725D01*
X046973Y009650D01*
X047133Y009725D02*
X047358Y009725D01*
X047433Y009650D01*
X047433Y009500D01*
X047358Y009425D01*
X047133Y009425D01*
X047133Y009275D02*
X047133Y009725D01*
X046512Y009650D02*
X046437Y009725D01*
X046287Y009725D01*
X046212Y009650D01*
X048282Y010414D02*
X048282Y010886D01*
X048951Y010807D02*
X048951Y010453D01*
X048991Y010611D02*
X049148Y010453D01*
X049148Y010807D01*
X048991Y010650D01*
X052380Y010000D02*
X052380Y009000D01*
X053380Y009000D01*
X053380Y010000D01*
X052380Y010000D01*
X054667Y010026D02*
X054892Y009801D01*
X054892Y010101D01*
X054667Y010026D02*
X055118Y010026D01*
X055043Y009641D02*
X054667Y009641D01*
X054667Y009341D02*
X055043Y009341D01*
X055118Y009416D01*
X055118Y009566D01*
X055043Y009641D01*
X055339Y009409D02*
X056521Y009409D01*
X056521Y010591D01*
X055339Y010591D01*
X055339Y009409D01*
X049080Y013100D02*
X048205Y013100D01*
X048080Y013100D01*
X048080Y015100D01*
X048205Y015100D01*
X049080Y015100D01*
X049080Y013100D01*
X050580Y014665D02*
X050580Y014965D01*
X050430Y014815D02*
X050730Y014815D01*
X048205Y014900D02*
X048207Y014917D01*
X048212Y014933D01*
X048221Y014947D01*
X048233Y014959D01*
X048247Y014968D01*
X048263Y014973D01*
X048280Y014975D01*
X048297Y014973D01*
X048313Y014968D01*
X048327Y014959D01*
X048339Y014947D01*
X048348Y014933D01*
X048353Y014917D01*
X048355Y014900D01*
X048353Y014883D01*
X048348Y014867D01*
X048339Y014853D01*
X048327Y014841D01*
X048313Y014832D01*
X048297Y014827D01*
X048280Y014825D01*
X048263Y014827D01*
X048247Y014832D01*
X048233Y014841D01*
X048221Y014853D01*
X048212Y014867D01*
X048207Y014883D01*
X048205Y014900D01*
X044910Y016960D02*
X044910Y018240D01*
X042350Y018240D01*
X042350Y016960D01*
X044910Y016960D01*
X038045Y017010D02*
X038045Y017085D01*
X037970Y017160D01*
X037595Y017160D01*
X037595Y017085D02*
X037595Y017235D01*
X037670Y017395D02*
X037745Y017395D01*
X037820Y017470D01*
X037820Y017696D01*
X037970Y017696D02*
X037670Y017696D01*
X037595Y017621D01*
X037595Y017470D01*
X037670Y017395D01*
X037970Y017395D02*
X038045Y017470D01*
X038045Y017621D01*
X037970Y017696D01*
X038045Y017010D02*
X037970Y016935D01*
X034176Y016725D02*
X034176Y016650D01*
X033876Y016350D01*
X033876Y016275D01*
X033716Y016275D02*
X033415Y016275D01*
X033566Y016275D02*
X033566Y016725D01*
X033415Y016575D01*
X033255Y016725D02*
X033105Y016725D01*
X033180Y016725D02*
X033180Y016350D01*
X033105Y016275D01*
X033030Y016275D01*
X032955Y016350D01*
X033876Y016725D02*
X034176Y016725D01*
X028230Y016850D02*
X028230Y014850D01*
X028105Y014850D01*
X027230Y014850D01*
X027230Y016850D01*
X028105Y016850D01*
X028230Y016850D01*
X027955Y015050D02*
X027957Y015067D01*
X027962Y015083D01*
X027971Y015097D01*
X027983Y015109D01*
X027997Y015118D01*
X028013Y015123D01*
X028030Y015125D01*
X028047Y015123D01*
X028063Y015118D01*
X028077Y015109D01*
X028089Y015097D01*
X028098Y015083D01*
X028103Y015067D01*
X028105Y015050D01*
X028103Y015033D01*
X028098Y015017D01*
X028089Y015003D01*
X028077Y014991D01*
X028063Y014982D01*
X028047Y014977D01*
X028030Y014975D01*
X028013Y014977D01*
X027997Y014982D01*
X027983Y014991D01*
X027971Y015003D01*
X027962Y015017D01*
X027957Y015033D01*
X027955Y015050D01*
X027994Y013898D02*
X028466Y013898D01*
X028387Y013229D02*
X028033Y013229D01*
X028191Y013189D02*
X028033Y013032D01*
X028387Y013032D01*
X028230Y013189D01*
X025580Y010195D02*
X025280Y010195D01*
X025580Y009895D01*
X025655Y009970D01*
X025655Y010120D01*
X025580Y010195D01*
X025280Y010195D02*
X025205Y010120D01*
X025205Y009970D01*
X025280Y009895D01*
X025580Y009895D01*
X025655Y009734D02*
X025655Y009434D01*
X025655Y009584D02*
X025205Y009584D01*
X025355Y009434D01*
X025205Y009274D02*
X025205Y009124D01*
X025205Y009199D02*
X025580Y009199D01*
X025655Y009124D01*
X025655Y009049D01*
X025580Y008974D01*
X022655Y006111D02*
X022580Y006186D01*
X022505Y006186D01*
X022430Y006111D01*
X022430Y005885D01*
X022580Y005885D01*
X022655Y005960D01*
X022655Y006111D01*
X022430Y005885D02*
X022280Y006036D01*
X022205Y006186D01*
X022205Y005725D02*
X022205Y005575D01*
X022205Y005650D02*
X022580Y005650D01*
X022655Y005575D01*
X022655Y005500D01*
X022580Y005425D01*
X021973Y004225D02*
X021747Y004225D01*
X021672Y004150D01*
X021672Y004000D01*
X021747Y003925D01*
X021973Y003925D01*
X021973Y003850D02*
X021973Y004225D01*
X021973Y003850D02*
X021898Y003775D01*
X021822Y003775D01*
X021901Y003525D02*
X021826Y003450D01*
X021826Y003150D01*
X021901Y003075D01*
X022051Y003075D01*
X022126Y003150D01*
X022126Y003450D02*
X022051Y003525D01*
X021901Y003525D01*
X021666Y003525D02*
X021365Y003525D01*
X021365Y003075D01*
X021666Y003075D01*
X021516Y003300D02*
X021365Y003300D01*
X021205Y003225D02*
X021205Y003150D01*
X021130Y003075D01*
X020905Y003075D01*
X020905Y003525D01*
X021130Y003525D01*
X021205Y003450D01*
X021205Y003375D01*
X021130Y003300D01*
X020905Y003300D01*
X021130Y003300D02*
X021205Y003225D01*
X021315Y002625D02*
X021616Y002175D01*
X021616Y002625D01*
X021776Y002625D02*
X022001Y002625D01*
X022076Y002550D01*
X022076Y002250D01*
X022001Y002175D01*
X021776Y002175D01*
X021776Y002625D01*
X021315Y002625D02*
X021315Y002175D01*
X021155Y002250D02*
X021080Y002175D01*
X020930Y002175D01*
X020855Y002250D01*
X020855Y002550D01*
X020930Y002625D01*
X021080Y002625D01*
X021155Y002550D01*
X021155Y002400D02*
X021005Y002400D01*
X021155Y002400D02*
X021155Y002250D01*
X021130Y003925D02*
X020980Y003925D01*
X020905Y004000D01*
X020980Y004150D02*
X021130Y004150D01*
X021205Y004075D01*
X021205Y004000D01*
X021130Y003925D01*
X021365Y003925D02*
X021516Y003925D01*
X021440Y003925D02*
X021440Y004225D01*
X021365Y004225D01*
X021440Y004375D02*
X021440Y004450D01*
X021205Y004300D02*
X021130Y004375D01*
X020980Y004375D01*
X020905Y004300D01*
X020905Y004225D01*
X020980Y004150D01*
X029605Y004200D02*
X029680Y004125D01*
X029755Y004125D01*
X029830Y004200D01*
X029830Y004575D01*
X029755Y004575D02*
X029905Y004575D01*
X030065Y004575D02*
X030366Y004575D01*
X030366Y004500D01*
X030065Y004200D01*
X030065Y004125D01*
X034530Y004050D02*
X034530Y002050D01*
X035405Y002050D01*
X035530Y002050D01*
X035530Y004050D01*
X035405Y004050D01*
X034530Y004050D01*
X035255Y002250D02*
X035257Y002267D01*
X035262Y002283D01*
X035271Y002297D01*
X035283Y002309D01*
X035297Y002318D01*
X035313Y002323D01*
X035330Y002325D01*
X035347Y002323D01*
X035363Y002318D01*
X035377Y002309D01*
X035389Y002297D01*
X035398Y002283D01*
X035403Y002267D01*
X035405Y002250D01*
X035403Y002233D01*
X035398Y002217D01*
X035389Y002203D01*
X035377Y002191D01*
X035363Y002182D01*
X035347Y002177D01*
X035330Y002175D01*
X035313Y002177D01*
X035297Y002182D01*
X035283Y002191D01*
X035271Y002203D01*
X035262Y002217D01*
X035257Y002233D01*
X035255Y002250D01*
X053380Y013450D02*
X055880Y013450D01*
X055880Y016450D01*
X053380Y016450D01*
X053380Y013450D01*
X048110Y021016D02*
X048110Y022984D01*
X048031Y022984D01*
X047980Y022250D02*
X047480Y022250D01*
X046980Y022250D01*
X047080Y022100D02*
X047080Y021900D01*
X047880Y021900D01*
X047880Y022100D01*
X047080Y022100D01*
X046980Y021750D02*
X047480Y021750D01*
X047980Y021750D01*
X048031Y021016D02*
X048110Y021016D01*
X046929Y021016D02*
X046850Y021016D01*
X046850Y022984D01*
X046929Y022984D01*
X046795Y027025D02*
X046495Y027025D01*
X046795Y027325D01*
X046795Y027400D01*
X046720Y027475D01*
X046570Y027475D01*
X046495Y027400D01*
X046334Y027475D02*
X046184Y027475D01*
X046259Y027475D02*
X046259Y027100D01*
X046184Y027025D01*
X046109Y027025D01*
X046034Y027100D01*
X038045Y027100D02*
X037970Y027025D01*
X037820Y027025D01*
X037745Y027100D01*
X037895Y027250D02*
X037970Y027250D01*
X038045Y027175D01*
X038045Y027100D01*
X037970Y027250D02*
X038045Y027325D01*
X038045Y027400D01*
X037970Y027475D01*
X037820Y027475D01*
X037745Y027400D01*
X037584Y027475D02*
X037434Y027475D01*
X037509Y027475D02*
X037509Y027100D01*
X037434Y027025D01*
X037359Y027025D01*
X037284Y027100D01*
X033130Y025350D02*
X033130Y022250D01*
X031730Y022250D01*
X031730Y025350D01*
X033130Y025350D01*
X029270Y027025D02*
X029270Y027475D01*
X029045Y027250D01*
X029345Y027250D01*
X028884Y027475D02*
X028734Y027475D01*
X028809Y027475D02*
X028809Y027100D01*
X028734Y027025D01*
X028659Y027025D01*
X028584Y027100D01*
X026926Y026000D02*
X026851Y026075D01*
X026626Y026075D01*
X026626Y025625D01*
X026851Y025625D01*
X026926Y025700D01*
X026926Y026000D01*
X026466Y026075D02*
X026466Y025625D01*
X026165Y026075D01*
X026165Y025625D01*
X026005Y025700D02*
X026005Y025850D01*
X025855Y025850D01*
X025705Y025700D02*
X025780Y025625D01*
X025930Y025625D01*
X026005Y025700D01*
X025705Y025700D02*
X025705Y026000D01*
X025780Y026075D01*
X025930Y026075D01*
X026005Y026000D01*
X025376Y026825D02*
X025076Y026825D01*
X025226Y026825D02*
X025226Y027275D01*
X025076Y027125D01*
X024916Y026825D02*
X024615Y026825D01*
X024766Y026825D02*
X024766Y027275D01*
X024615Y027125D01*
X024455Y027275D02*
X024305Y027275D01*
X024380Y027275D02*
X024380Y026900D01*
X024305Y026825D01*
X024230Y026825D01*
X024155Y026900D01*
X023066Y025725D02*
X023066Y025425D01*
X022916Y025275D01*
X022765Y025425D01*
X022765Y025725D01*
X022605Y025500D02*
X022305Y025500D01*
X022155Y025506D02*
X021855Y025506D01*
X021855Y025731D01*
X021930Y025806D01*
X022155Y025806D01*
X022080Y025967D02*
X021930Y025967D01*
X021855Y026042D01*
X021855Y026192D01*
X021930Y026267D01*
X022005Y026267D01*
X022005Y025967D01*
X022080Y025967D02*
X022155Y026042D01*
X022155Y026192D01*
X022080Y026427D02*
X021930Y026427D01*
X021855Y026502D01*
X021855Y026727D01*
X021855Y026887D02*
X021855Y027037D01*
X021780Y026962D02*
X022080Y026962D01*
X022155Y027037D01*
X022155Y027194D02*
X022155Y027344D01*
X022155Y027269D02*
X021855Y027269D01*
X021855Y027194D01*
X021705Y027269D02*
X021630Y027269D01*
X021405Y027423D02*
X021330Y027348D01*
X021180Y027348D01*
X021105Y027423D01*
X021105Y027573D01*
X021180Y027648D01*
X021255Y027648D01*
X021255Y027348D01*
X021405Y027423D02*
X021405Y027573D01*
X021405Y027808D02*
X021105Y027808D01*
X021255Y027808D02*
X021105Y027958D01*
X021105Y028033D01*
X021855Y027962D02*
X021855Y028187D01*
X021930Y028262D01*
X022155Y028262D01*
X022155Y027962D02*
X021855Y027962D01*
X021930Y027801D02*
X021855Y027726D01*
X021855Y027576D01*
X021930Y027501D01*
X022080Y027501D01*
X022155Y027576D01*
X022155Y027726D01*
X022080Y027801D01*
X021930Y027801D01*
X021330Y027188D02*
X021105Y027188D01*
X021330Y027188D02*
X021405Y027113D01*
X021330Y027037D01*
X021405Y026962D01*
X021330Y026887D01*
X021105Y026887D01*
X021180Y026727D02*
X021105Y026652D01*
X021105Y026502D01*
X021180Y026427D01*
X021330Y026427D01*
X021405Y026502D01*
X021405Y026652D01*
X021330Y026727D01*
X021180Y026727D01*
X021180Y026267D02*
X021255Y026192D01*
X021255Y025967D01*
X021405Y025967D02*
X020955Y025967D01*
X020955Y026192D01*
X021030Y026267D01*
X021180Y026267D01*
X022080Y026427D02*
X022155Y026502D01*
X022155Y026727D01*
X022455Y025650D02*
X022455Y025350D01*
X022155Y025346D02*
X021930Y025346D01*
X021855Y025271D01*
X021855Y025046D01*
X022155Y025046D01*
X022080Y024886D02*
X021930Y024886D01*
X021855Y024811D01*
X021855Y024660D01*
X021930Y024585D01*
X022080Y024585D01*
X022155Y024660D01*
X022155Y024811D01*
X022080Y024886D01*
X022080Y024425D02*
X022155Y024350D01*
X022155Y024200D01*
X022080Y024125D01*
X021780Y024125D01*
X021705Y024200D01*
X021705Y024350D01*
X021780Y024425D01*
X021405Y024425D02*
X021105Y024425D01*
X020955Y024275D01*
X021105Y024125D01*
X021405Y024125D01*
X021180Y024125D02*
X021180Y024425D01*
X021105Y024585D02*
X021330Y024585D01*
X021405Y024660D01*
X021405Y024886D01*
X021105Y024886D01*
X021105Y025046D02*
X021405Y025346D01*
X021405Y025046D02*
X021105Y025346D01*
X008451Y030577D02*
X008451Y031028D01*
X008226Y030803D01*
X008526Y030803D01*
X008066Y030577D02*
X007765Y030577D01*
X007916Y030577D02*
X007916Y031028D01*
X007765Y030878D01*
X007605Y031028D02*
X007455Y031028D01*
X007530Y031028D02*
X007530Y030652D01*
X007455Y030577D01*
X007380Y030577D01*
X007305Y030652D01*
X004345Y027043D02*
X004345Y026816D01*
X004345Y026929D02*
X004005Y026929D01*
X004118Y026816D01*
X004118Y025993D02*
X004061Y025993D01*
X004005Y025936D01*
X004005Y025823D01*
X004061Y025766D01*
X004118Y025993D02*
X004345Y025766D01*
X004345Y025993D01*
X004288Y024943D02*
X004345Y024886D01*
X004345Y024773D01*
X004288Y024716D01*
X004175Y024829D02*
X004175Y024886D01*
X004232Y024943D01*
X004288Y024943D01*
X004175Y024886D02*
X004118Y024943D01*
X004061Y024943D01*
X004005Y024886D01*
X004005Y024773D01*
X004061Y024716D01*
X004175Y023893D02*
X004175Y023666D01*
X004005Y023836D01*
X004345Y023836D01*
X004288Y022793D02*
X004345Y022736D01*
X004345Y022623D01*
X004288Y022566D01*
X004175Y022566D02*
X004118Y022679D01*
X004118Y022736D01*
X004175Y022793D01*
X004288Y022793D01*
X004175Y022566D02*
X004005Y022566D01*
X004005Y022793D01*
X002045Y022907D02*
X002045Y023134D01*
X002045Y023020D02*
X001705Y023020D01*
X001818Y022907D01*
X001705Y023266D02*
X001705Y023493D01*
X001761Y023493D01*
X001988Y023266D01*
X002045Y023266D01*
X002045Y023957D02*
X002045Y024184D01*
X002045Y024070D02*
X001705Y024070D01*
X001818Y023957D01*
X001875Y024316D02*
X001875Y024486D01*
X001932Y024543D01*
X001988Y024543D01*
X002045Y024486D01*
X002045Y024373D01*
X001988Y024316D01*
X001875Y024316D01*
X001761Y024429D01*
X001705Y024543D01*
X001818Y025057D02*
X001705Y025170D01*
X002045Y025170D01*
X002045Y025057D02*
X002045Y025284D01*
X001988Y025416D02*
X002045Y025473D01*
X002045Y025586D01*
X001988Y025643D01*
X001875Y025643D01*
X001818Y025586D01*
X001818Y025529D01*
X001875Y025416D01*
X001705Y025416D01*
X001705Y025643D01*
X001818Y026157D02*
X001705Y026270D01*
X002045Y026270D01*
X002045Y026157D02*
X002045Y026384D01*
X001875Y026516D02*
X001875Y026743D01*
X002045Y026686D02*
X001705Y026686D01*
X001875Y026516D01*
X001932Y022443D02*
X001988Y022443D01*
X002045Y022386D01*
X002045Y022273D01*
X001988Y022216D01*
X001932Y022216D01*
X001875Y022273D01*
X001875Y022386D01*
X001932Y022443D01*
X001875Y022386D02*
X001818Y022443D01*
X001761Y022443D01*
X001705Y022386D01*
X001705Y022273D01*
X001761Y022216D01*
X001818Y022216D01*
X001875Y022273D01*
X002045Y022084D02*
X002045Y021857D01*
X002045Y021970D02*
X001705Y021970D01*
X001818Y021857D01*
X001761Y021293D02*
X001705Y021236D01*
X001705Y021123D01*
X001761Y021066D01*
X001818Y021066D01*
X001875Y021123D01*
X001875Y021293D01*
X001988Y021293D02*
X001761Y021293D01*
X001988Y021293D02*
X002045Y021236D01*
X002045Y021123D01*
X001988Y021066D01*
X002045Y020934D02*
X002045Y020707D01*
X002045Y020820D02*
X001705Y020820D01*
X001818Y020707D01*
X001761Y020243D02*
X001988Y020016D01*
X002045Y020073D01*
X002045Y020186D01*
X001988Y020243D01*
X001761Y020243D01*
X001705Y020186D01*
X001705Y020073D01*
X001761Y020016D01*
X001988Y020016D01*
X002045Y019884D02*
X002045Y019657D01*
X001818Y019884D01*
X001761Y019884D01*
X001705Y019827D01*
X001705Y019714D01*
X001761Y019657D01*
X002045Y019143D02*
X002045Y018916D01*
X002045Y019029D02*
X001705Y019029D01*
X001818Y018916D01*
X001818Y018784D02*
X001761Y018784D01*
X001705Y018727D01*
X001705Y018614D01*
X001761Y018557D01*
X001818Y018784D02*
X002045Y018557D01*
X002045Y018784D01*
X002045Y018043D02*
X002045Y017816D01*
X001818Y018043D01*
X001761Y018043D01*
X001705Y017986D01*
X001705Y017873D01*
X001761Y017816D01*
X001761Y017684D02*
X001705Y017627D01*
X001705Y017514D01*
X001761Y017457D01*
X001761Y017684D02*
X001818Y017684D01*
X002045Y017457D01*
X002045Y017684D01*
X001988Y016943D02*
X002045Y016886D01*
X002045Y016773D01*
X001988Y016716D01*
X002045Y016584D02*
X002045Y016357D01*
X001818Y016584D01*
X001761Y016584D01*
X001705Y016527D01*
X001705Y016414D01*
X001761Y016357D01*
X001761Y016716D02*
X001705Y016773D01*
X001705Y016886D01*
X001761Y016943D01*
X001818Y016943D01*
X001875Y016886D01*
X001932Y016943D01*
X001988Y016943D01*
X001875Y016886D02*
X001875Y016829D01*
X001875Y015893D02*
X001875Y015666D01*
X001705Y015836D01*
X002045Y015836D01*
X002045Y015534D02*
X002045Y015307D01*
X001818Y015534D01*
X001761Y015534D01*
X001705Y015477D01*
X001705Y015364D01*
X001761Y015307D01*
X001705Y014793D02*
X001705Y014566D01*
X001875Y014566D01*
X001818Y014679D01*
X001818Y014736D01*
X001875Y014793D01*
X001988Y014793D01*
X002045Y014736D01*
X002045Y014623D01*
X001988Y014566D01*
X002045Y014434D02*
X002045Y014207D01*
X001818Y014434D01*
X001761Y014434D01*
X001705Y014377D01*
X001705Y014264D01*
X001761Y014207D01*
X004005Y014136D02*
X004005Y014023D01*
X004061Y013966D01*
X004175Y014079D02*
X004175Y014136D01*
X004232Y014193D01*
X004288Y014193D01*
X004345Y014136D01*
X004345Y014023D01*
X004288Y013966D01*
X004345Y013834D02*
X004345Y013607D01*
X004345Y013720D02*
X004005Y013720D01*
X004118Y013607D01*
X004175Y014136D02*
X004118Y014193D01*
X004061Y014193D01*
X004005Y014136D01*
X004118Y014757D02*
X004005Y014870D01*
X004345Y014870D01*
X004345Y014757D02*
X004345Y014984D01*
X004345Y015116D02*
X004118Y015343D01*
X004061Y015343D01*
X004005Y015286D01*
X004005Y015173D01*
X004061Y015116D01*
X004345Y015116D02*
X004345Y015343D01*
X004345Y015807D02*
X004345Y016034D01*
X004345Y015920D02*
X004005Y015920D01*
X004118Y015807D01*
X004118Y016166D02*
X004005Y016279D01*
X004345Y016279D01*
X004345Y016166D02*
X004345Y016393D01*
X004345Y016857D02*
X004345Y017084D01*
X004345Y016970D02*
X004005Y016970D01*
X004118Y016857D01*
X004061Y017216D02*
X004005Y017273D01*
X004005Y017386D01*
X004061Y017443D01*
X004288Y017216D01*
X004345Y017273D01*
X004345Y017386D01*
X004288Y017443D01*
X004061Y017443D01*
X004061Y017216D02*
X004288Y017216D01*
X004288Y018216D02*
X004345Y018273D01*
X004345Y018386D01*
X004288Y018443D01*
X004061Y018443D01*
X004005Y018386D01*
X004005Y018273D01*
X004061Y018216D01*
X004118Y018216D01*
X004175Y018273D01*
X004175Y018443D01*
X004232Y019266D02*
X004175Y019323D01*
X004175Y019436D01*
X004232Y019493D01*
X004288Y019493D01*
X004345Y019436D01*
X004345Y019323D01*
X004288Y019266D01*
X004232Y019266D01*
X004175Y019323D02*
X004118Y019266D01*
X004061Y019266D01*
X004005Y019323D01*
X004005Y019436D01*
X004061Y019493D01*
X004118Y019493D01*
X004175Y019436D01*
X005755Y020252D02*
X005830Y020177D01*
X005905Y020177D01*
X005980Y020252D01*
X005980Y020628D01*
X005905Y020628D02*
X006055Y020628D01*
X006215Y020478D02*
X006366Y020628D01*
X006366Y020177D01*
X006516Y020177D02*
X006215Y020177D01*
X006676Y020252D02*
X006751Y020177D01*
X006901Y020177D01*
X006976Y020252D01*
X006976Y020403D01*
X006901Y020478D01*
X006826Y020478D01*
X006676Y020403D01*
X006676Y020628D01*
X006976Y020628D01*
X004345Y020366D02*
X004288Y020366D01*
X004061Y020593D01*
X004005Y020593D01*
X004005Y020366D01*
X004175Y021466D02*
X004061Y021579D01*
X004005Y021693D01*
X004175Y021636D02*
X004175Y021466D01*
X004288Y021466D01*
X004345Y021523D01*
X004345Y021636D01*
X004288Y021693D01*
X004232Y021693D01*
X004175Y021636D01*
X005905Y010378D02*
X006055Y010378D01*
X005980Y010378D02*
X005980Y010002D01*
X005905Y009927D01*
X005830Y009927D01*
X005755Y010002D01*
X006215Y009927D02*
X006516Y009927D01*
X006366Y009927D02*
X006366Y010378D01*
X006215Y010228D01*
X006676Y010153D02*
X006826Y010303D01*
X006976Y010378D01*
X006901Y010153D02*
X006676Y010153D01*
X006676Y010002D01*
X006751Y009927D01*
X006901Y009927D01*
X006976Y010002D01*
X006976Y010077D01*
X006901Y010153D01*
X057734Y028650D02*
X057809Y028575D01*
X057884Y028575D01*
X057959Y028650D01*
X057959Y029025D01*
X057884Y029025D02*
X058034Y029025D01*
X058195Y028875D02*
X058345Y029025D01*
X058345Y028575D01*
X058195Y028575D02*
X058495Y028575D01*
D15*
X056915Y030135D02*
X056790Y030135D01*
X056748Y030176D01*
X056748Y030260D01*
X056790Y030302D01*
X056915Y030302D01*
X056915Y030385D02*
X056915Y030135D01*
X056657Y030218D02*
X056574Y030135D01*
X056574Y030385D01*
X056657Y030385D02*
X056490Y030385D01*
X056399Y030260D02*
X056233Y030260D01*
X055884Y030302D02*
X055759Y030302D01*
X055717Y030260D01*
X055717Y030176D01*
X055759Y030135D01*
X055884Y030135D01*
X055884Y030385D01*
X055626Y030385D02*
X055459Y030218D01*
X055459Y030176D01*
X055501Y030135D01*
X055584Y030135D01*
X055626Y030176D01*
X055626Y030385D02*
X055459Y030385D01*
X055368Y030260D02*
X055201Y030260D01*
X054852Y030302D02*
X054727Y030302D01*
X054686Y030260D01*
X054686Y030176D01*
X054727Y030135D01*
X054852Y030135D01*
X054852Y030385D01*
X054595Y030343D02*
X054553Y030385D01*
X054470Y030385D01*
X054428Y030343D01*
X054428Y030302D01*
X054470Y030260D01*
X054511Y030260D01*
X054470Y030260D02*
X054428Y030218D01*
X054428Y030176D01*
X054470Y030135D01*
X054553Y030135D01*
X054595Y030176D01*
X054337Y030260D02*
X054170Y030260D01*
X053821Y030302D02*
X053696Y030302D01*
X053654Y030260D01*
X053654Y030176D01*
X053696Y030135D01*
X053821Y030135D01*
X053821Y030385D01*
X053563Y030260D02*
X053397Y030260D01*
X053306Y030260D02*
X053139Y030260D01*
X053438Y030385D02*
X053438Y030135D01*
X053563Y030260D01*
X053488Y030685D02*
X053613Y030810D01*
X053447Y030810D01*
X053356Y030810D02*
X053189Y030810D01*
X053272Y030893D02*
X053272Y030726D01*
X053488Y030685D02*
X053488Y030935D01*
X053704Y030810D02*
X053746Y030852D01*
X053871Y030852D01*
X053871Y030935D02*
X053871Y030685D01*
X053746Y030685D01*
X053704Y030726D01*
X053704Y030810D01*
X054220Y030810D02*
X054387Y030810D01*
X054478Y030852D02*
X054478Y030893D01*
X054520Y030935D01*
X054603Y030935D01*
X054645Y030893D01*
X054561Y030810D02*
X054520Y030810D01*
X054478Y030852D01*
X054520Y030810D02*
X054478Y030768D01*
X054478Y030726D01*
X054520Y030685D01*
X054603Y030685D01*
X054645Y030726D01*
X054736Y030726D02*
X054736Y030810D01*
X054777Y030852D01*
X054902Y030852D01*
X054902Y030935D02*
X054902Y030685D01*
X054777Y030685D01*
X054736Y030726D01*
X054303Y030726D02*
X054303Y030893D01*
X055251Y030810D02*
X055418Y030810D01*
X055509Y030768D02*
X055509Y030726D01*
X055551Y030685D01*
X055634Y030685D01*
X055676Y030726D01*
X055767Y030726D02*
X055767Y030810D01*
X055809Y030852D01*
X055934Y030852D01*
X055934Y030935D02*
X055934Y030685D01*
X055809Y030685D01*
X055767Y030726D01*
X055676Y030935D02*
X055509Y030768D01*
X055509Y030935D02*
X055676Y030935D01*
X055335Y030893D02*
X055335Y030726D01*
X056283Y030810D02*
X056449Y030810D01*
X056366Y030893D02*
X056366Y030726D01*
X056624Y030685D02*
X056624Y030935D01*
X056707Y030935D02*
X056540Y030935D01*
X056707Y030768D02*
X056624Y030685D01*
X056798Y030726D02*
X056798Y030810D01*
X056840Y030852D01*
X056965Y030852D01*
X056965Y030935D02*
X056965Y030685D01*
X056840Y030685D01*
X056798Y030726D01*
X052840Y030810D02*
X052673Y030810D01*
X052756Y030893D02*
X052756Y030726D01*
X052582Y030726D02*
X052540Y030685D01*
X052457Y030685D01*
X052415Y030726D01*
X052415Y030768D01*
X052457Y030810D01*
X052415Y030852D01*
X052415Y030893D01*
X052457Y030935D01*
X052540Y030935D01*
X052582Y030893D01*
X052499Y030810D02*
X052457Y030810D01*
X052324Y030893D02*
X052283Y030893D01*
X052283Y030935D01*
X052324Y030935D01*
X052324Y030893D01*
X052195Y030893D02*
X052154Y030935D01*
X052070Y030935D01*
X052029Y030893D01*
X052029Y030852D01*
X052070Y030810D01*
X052112Y030810D01*
X052070Y030810D02*
X052029Y030768D01*
X052029Y030726D01*
X052070Y030685D01*
X052154Y030685D01*
X052195Y030726D01*
X052191Y030385D02*
X052107Y030218D01*
X052274Y030218D02*
X052191Y030385D01*
X052365Y030343D02*
X052407Y030385D01*
X052490Y030385D01*
X052532Y030343D01*
X052532Y030260D02*
X052449Y030218D01*
X052407Y030218D01*
X052365Y030260D01*
X052365Y030343D01*
X052532Y030260D02*
X052532Y030135D01*
X052365Y030135D01*
X052623Y030260D02*
X052790Y030260D01*
X052706Y030176D02*
X052706Y030343D01*
X051759Y030343D02*
X051717Y030385D01*
X051633Y030385D01*
X051592Y030343D01*
X051592Y030302D01*
X051633Y030260D01*
X051717Y030260D01*
X051759Y030218D01*
X051759Y030176D01*
X051717Y030135D01*
X051633Y030135D01*
X051592Y030176D01*
X051501Y030176D02*
X051501Y030343D01*
X051459Y030385D01*
X051376Y030385D01*
X051334Y030343D01*
X051243Y030385D02*
X051076Y030385D01*
X051243Y030385D02*
X051243Y030135D01*
X051334Y030176D02*
X051376Y030135D01*
X051459Y030135D01*
X051501Y030176D01*
X051555Y030685D02*
X051638Y030685D01*
X051680Y030726D01*
X051680Y030768D01*
X051638Y030810D01*
X051555Y030810D01*
X051513Y030852D01*
X051513Y030893D01*
X051555Y030935D01*
X051638Y030935D01*
X051680Y030893D01*
X051513Y030726D02*
X051555Y030685D01*
X051422Y030726D02*
X051422Y030893D01*
X051380Y030935D01*
X051297Y030935D01*
X051255Y030893D01*
X051164Y030935D02*
X050997Y030935D01*
X051164Y030935D02*
X051164Y030685D01*
X051255Y030726D02*
X051297Y030685D01*
X051380Y030685D01*
X051422Y030726D01*
X050648Y030726D02*
X050648Y030768D01*
X050607Y030810D01*
X050523Y030810D01*
X050482Y030852D01*
X050482Y030893D01*
X050523Y030935D01*
X050607Y030935D01*
X050648Y030893D01*
X050648Y030726D02*
X050607Y030685D01*
X050523Y030685D01*
X050482Y030726D01*
X050391Y030685D02*
X050265Y030685D01*
X050224Y030726D01*
X050224Y030893D01*
X050265Y030935D01*
X050391Y030935D01*
X050391Y030685D01*
X050133Y030768D02*
X050049Y030685D01*
X049966Y030768D01*
X049966Y030935D01*
X049966Y030810D02*
X050133Y030810D01*
X050133Y030768D02*
X050133Y030935D01*
X049617Y030893D02*
X049617Y030726D01*
X049575Y030685D01*
X049492Y030685D01*
X049450Y030726D01*
X049450Y030810D02*
X049534Y030810D01*
X049450Y030810D02*
X049450Y030893D01*
X049492Y030935D01*
X049575Y030935D01*
X049617Y030893D01*
X049359Y030935D02*
X049359Y030685D01*
X049193Y030935D01*
X049193Y030685D01*
X049101Y030685D02*
X048976Y030685D01*
X048935Y030726D01*
X048935Y030893D01*
X048976Y030935D01*
X049101Y030935D01*
X049101Y030685D01*
X049055Y030385D02*
X049014Y030343D01*
X049014Y030176D01*
X049055Y030135D01*
X049180Y030135D01*
X049180Y030385D01*
X049055Y030385D01*
X049271Y030385D02*
X049271Y030135D01*
X049438Y030135D02*
X049271Y030385D01*
X049438Y030385D02*
X049438Y030135D01*
X049529Y030176D02*
X049571Y030135D01*
X049654Y030135D01*
X049696Y030176D01*
X049696Y030343D01*
X049654Y030385D01*
X049571Y030385D01*
X049529Y030343D01*
X049529Y030260D01*
X049613Y030260D01*
X050045Y030260D02*
X050212Y030260D01*
X050212Y030218D02*
X050128Y030135D01*
X050045Y030218D01*
X050045Y030385D01*
X050212Y030385D02*
X050212Y030218D01*
X050303Y030176D02*
X050344Y030135D01*
X050470Y030135D01*
X050470Y030385D01*
X050344Y030385D01*
X050303Y030343D01*
X050303Y030176D01*
X050561Y030176D02*
X050602Y030135D01*
X050686Y030135D01*
X050727Y030176D01*
X050727Y030218D01*
X050686Y030260D01*
X050602Y030260D01*
X050561Y030302D01*
X050561Y030343D01*
X050602Y030385D01*
X050686Y030385D01*
X050727Y030343D01*
X048265Y030385D02*
X048140Y030385D01*
X048098Y030343D01*
X048098Y030176D01*
X048140Y030135D01*
X048265Y030135D01*
X048265Y030385D01*
X048007Y030343D02*
X047965Y030385D01*
X047882Y030385D01*
X047840Y030343D01*
X047840Y030302D01*
X047882Y030260D01*
X047924Y030260D01*
X047882Y030260D02*
X047840Y030218D01*
X047840Y030176D01*
X047882Y030135D01*
X047965Y030135D01*
X048007Y030176D01*
X047749Y030135D02*
X047583Y030135D01*
X047583Y030176D01*
X047749Y030343D01*
X047749Y030385D01*
X047749Y030685D02*
X047749Y030852D01*
X047666Y030935D01*
X047583Y030852D01*
X047583Y030685D01*
X047840Y030685D02*
X048007Y030685D01*
X048007Y030810D01*
X047924Y030768D01*
X047882Y030768D01*
X047840Y030810D01*
X047840Y030893D01*
X047882Y030935D01*
X047965Y030935D01*
X048007Y030893D01*
X048098Y030810D02*
X048265Y030810D01*
X048182Y030893D02*
X048182Y030726D01*
X047234Y030726D02*
X047234Y030893D01*
X047192Y030935D01*
X047109Y030935D01*
X047067Y030893D01*
X047067Y030810D01*
X047150Y030810D01*
X047067Y030726D02*
X047109Y030685D01*
X047192Y030685D01*
X047234Y030726D01*
X046976Y030685D02*
X046809Y030935D01*
X046809Y030685D01*
X046718Y030685D02*
X046593Y030685D01*
X046551Y030726D01*
X046551Y030893D01*
X046593Y030935D01*
X046718Y030935D01*
X046718Y030685D01*
X046976Y030685D02*
X046976Y030935D01*
X046934Y030385D02*
X046976Y030343D01*
X046934Y030385D02*
X046851Y030385D01*
X046809Y030343D01*
X046809Y030302D01*
X046851Y030260D01*
X046892Y030260D01*
X046851Y030260D02*
X046809Y030218D01*
X046809Y030176D01*
X046851Y030135D01*
X046934Y030135D01*
X046976Y030176D01*
X047067Y030176D02*
X047109Y030135D01*
X047234Y030135D01*
X047234Y030385D01*
X047109Y030385D01*
X047067Y030343D01*
X047067Y030176D01*
X046718Y030260D02*
X046593Y030260D01*
X046551Y030302D01*
X046551Y030343D01*
X046593Y030385D01*
X046676Y030385D01*
X046718Y030343D01*
X046718Y030260D01*
X046635Y030176D01*
X046551Y030135D01*
X046202Y030135D02*
X046077Y030135D01*
X046036Y030176D01*
X046036Y030343D01*
X046077Y030385D01*
X046202Y030385D01*
X046202Y030135D01*
X045945Y030176D02*
X045903Y030135D01*
X045820Y030135D01*
X045778Y030176D01*
X045778Y030218D01*
X045820Y030260D01*
X045778Y030302D01*
X045778Y030343D01*
X045820Y030385D01*
X045903Y030385D01*
X045945Y030343D01*
X045861Y030260D02*
X045820Y030260D01*
X045687Y030260D02*
X045603Y030218D01*
X045562Y030218D01*
X045520Y030260D01*
X045520Y030343D01*
X045562Y030385D01*
X045645Y030385D01*
X045687Y030343D01*
X045687Y030260D02*
X045687Y030135D01*
X045520Y030135D01*
X045171Y030135D02*
X045046Y030135D01*
X045004Y030176D01*
X045004Y030343D01*
X045046Y030385D01*
X045171Y030385D01*
X045171Y030135D01*
X044913Y030176D02*
X044872Y030135D01*
X044788Y030135D01*
X044747Y030176D01*
X044747Y030218D01*
X044788Y030260D01*
X044747Y030302D01*
X044747Y030343D01*
X044788Y030385D01*
X044872Y030385D01*
X044913Y030343D01*
X044830Y030260D02*
X044788Y030260D01*
X044656Y030260D02*
X044489Y030260D01*
X044530Y030385D02*
X044530Y030135D01*
X044656Y030260D01*
X044614Y030685D02*
X044530Y030685D01*
X044489Y030726D01*
X044489Y030768D01*
X044530Y030810D01*
X044614Y030810D01*
X044656Y030768D01*
X044656Y030726D01*
X044614Y030685D01*
X044614Y030810D02*
X044656Y030852D01*
X044656Y030893D01*
X044614Y030935D01*
X044530Y030935D01*
X044489Y030893D01*
X044489Y030852D01*
X044530Y030810D01*
X044747Y030935D02*
X044913Y030935D01*
X044830Y030935D02*
X044830Y030685D01*
X044913Y030768D01*
X045004Y030726D02*
X045004Y030893D01*
X045046Y030935D01*
X045171Y030935D01*
X045171Y030685D01*
X045046Y030685D01*
X045004Y030726D01*
X045520Y030726D02*
X045520Y030893D01*
X045562Y030935D01*
X045645Y030935D01*
X045687Y030893D01*
X045645Y030810D02*
X045520Y030810D01*
X045520Y030726D02*
X045562Y030685D01*
X045645Y030685D01*
X045687Y030726D01*
X045687Y030768D01*
X045645Y030810D01*
X045778Y030935D02*
X045945Y030935D01*
X045861Y030935D02*
X045861Y030685D01*
X045945Y030768D01*
X046036Y030726D02*
X046036Y030893D01*
X046077Y030935D01*
X046202Y030935D01*
X046202Y030685D01*
X046077Y030685D01*
X046036Y030726D01*
X044140Y030685D02*
X044015Y030685D01*
X043973Y030726D01*
X043973Y030893D01*
X044015Y030935D01*
X044140Y030935D01*
X044140Y030685D01*
X043882Y030768D02*
X043799Y030685D01*
X043799Y030935D01*
X043882Y030935D02*
X043715Y030935D01*
X043624Y030893D02*
X043583Y030935D01*
X043499Y030935D01*
X043457Y030893D01*
X043457Y030810D01*
X043499Y030768D01*
X043541Y030768D01*
X043624Y030810D01*
X043624Y030685D01*
X043457Y030685D01*
X043499Y030385D02*
X043583Y030385D01*
X043624Y030343D01*
X043715Y030343D02*
X043757Y030385D01*
X043840Y030385D01*
X043882Y030343D01*
X043973Y030343D02*
X043973Y030176D01*
X044015Y030135D01*
X044140Y030135D01*
X044140Y030385D01*
X044015Y030385D01*
X043973Y030343D01*
X043882Y030176D02*
X043840Y030135D01*
X043757Y030135D01*
X043715Y030176D01*
X043715Y030218D01*
X043757Y030260D01*
X043715Y030302D01*
X043715Y030343D01*
X043757Y030260D02*
X043799Y030260D01*
X043624Y030176D02*
X043583Y030135D01*
X043499Y030135D01*
X043457Y030176D01*
X043457Y030218D01*
X043499Y030260D01*
X043457Y030302D01*
X043457Y030343D01*
X043499Y030385D01*
X043499Y030260D02*
X043541Y030260D01*
X043109Y030385D02*
X042983Y030385D01*
X042942Y030343D01*
X042942Y030176D01*
X042983Y030135D01*
X043109Y030135D01*
X043109Y030385D01*
X042851Y030343D02*
X042809Y030385D01*
X042726Y030385D01*
X042684Y030343D01*
X042684Y030302D01*
X042726Y030260D01*
X042767Y030260D01*
X042726Y030260D02*
X042684Y030218D01*
X042684Y030176D01*
X042726Y030135D01*
X042809Y030135D01*
X042851Y030176D01*
X042593Y030176D02*
X042551Y030135D01*
X042468Y030135D01*
X042426Y030176D01*
X042426Y030218D01*
X042593Y030385D01*
X042426Y030385D01*
X042468Y030685D02*
X042593Y030810D01*
X042426Y030810D01*
X042468Y030935D02*
X042468Y030685D01*
X042767Y030685D02*
X042767Y030935D01*
X042684Y030935D02*
X042851Y030935D01*
X042942Y030893D02*
X042942Y030726D01*
X042983Y030685D01*
X043109Y030685D01*
X043109Y030935D01*
X042983Y030935D01*
X042942Y030893D01*
X042851Y030768D02*
X042767Y030685D01*
X042077Y030726D02*
X042077Y030893D01*
X042036Y030935D01*
X041952Y030935D01*
X041911Y030893D01*
X041911Y030810D01*
X041994Y030810D01*
X042077Y030726D02*
X042036Y030685D01*
X041952Y030685D01*
X041911Y030726D01*
X041820Y030685D02*
X041653Y030935D01*
X041653Y030685D01*
X041562Y030685D02*
X041562Y030935D01*
X041437Y030935D01*
X041395Y030893D01*
X041395Y030726D01*
X041437Y030685D01*
X041562Y030685D01*
X041820Y030685D02*
X041820Y030935D01*
X041046Y030810D02*
X040879Y030810D01*
X040788Y030810D02*
X040705Y030768D01*
X040663Y030768D01*
X040621Y030810D01*
X040621Y030893D01*
X040663Y030935D01*
X040747Y030935D01*
X040788Y030893D01*
X040788Y030810D02*
X040788Y030685D01*
X040621Y030685D01*
X040530Y030685D02*
X040530Y030852D01*
X040447Y030935D01*
X040364Y030852D01*
X040364Y030685D01*
X040405Y030385D02*
X040489Y030385D01*
X040530Y030343D01*
X040364Y030176D01*
X040364Y030343D01*
X040405Y030385D01*
X040530Y030343D02*
X040530Y030176D01*
X040489Y030135D01*
X040405Y030135D01*
X040364Y030176D01*
X040621Y030176D02*
X040621Y030218D01*
X040663Y030260D01*
X040621Y030302D01*
X040621Y030343D01*
X040663Y030385D01*
X040747Y030385D01*
X040788Y030343D01*
X040879Y030343D02*
X040879Y030176D01*
X040921Y030135D01*
X041046Y030135D01*
X041046Y030385D01*
X040921Y030385D01*
X040879Y030343D01*
X040788Y030176D02*
X040747Y030135D01*
X040663Y030135D01*
X040621Y030176D01*
X040663Y030260D02*
X040705Y030260D01*
X040963Y030726D02*
X040963Y030893D01*
X041395Y030385D02*
X041562Y030385D01*
X041478Y030385D02*
X041478Y030135D01*
X041562Y030218D01*
X041653Y030218D02*
X041694Y030260D01*
X041653Y030302D01*
X041653Y030343D01*
X041694Y030385D01*
X041778Y030385D01*
X041820Y030343D01*
X041911Y030343D02*
X041911Y030176D01*
X041952Y030135D01*
X042077Y030135D01*
X042077Y030385D01*
X041952Y030385D01*
X041911Y030343D01*
X041820Y030176D02*
X041778Y030135D01*
X041694Y030135D01*
X041653Y030176D01*
X041653Y030218D01*
X041694Y030260D02*
X041736Y030260D01*
X039565Y030385D02*
X039440Y030385D01*
X039398Y030343D01*
X039398Y030176D01*
X039440Y030135D01*
X039565Y030135D01*
X039565Y030385D01*
X039307Y030385D02*
X039140Y030218D01*
X039140Y030176D01*
X039182Y030135D01*
X039265Y030135D01*
X039307Y030176D01*
X039307Y030385D02*
X039140Y030385D01*
X039049Y030343D02*
X039008Y030385D01*
X038924Y030385D01*
X038883Y030343D01*
X038883Y030176D01*
X038924Y030135D01*
X039008Y030135D01*
X039049Y030176D01*
X039049Y030218D01*
X039008Y030260D01*
X038883Y030260D01*
X038534Y030385D02*
X038409Y030385D01*
X038367Y030343D01*
X038367Y030176D01*
X038409Y030135D01*
X038534Y030135D01*
X038534Y030385D01*
X038276Y030385D02*
X038109Y030218D01*
X038109Y030176D01*
X038151Y030135D01*
X038234Y030135D01*
X038276Y030176D01*
X038276Y030385D02*
X038109Y030385D01*
X038018Y030343D02*
X038018Y030302D01*
X037976Y030260D01*
X037893Y030260D01*
X037851Y030302D01*
X037851Y030343D01*
X037893Y030385D01*
X037976Y030385D01*
X038018Y030343D01*
X037976Y030260D02*
X038018Y030218D01*
X038018Y030176D01*
X037976Y030135D01*
X037893Y030135D01*
X037851Y030176D01*
X037851Y030218D01*
X037893Y030260D01*
X037502Y030385D02*
X037377Y030385D01*
X037336Y030343D01*
X037336Y030176D01*
X037377Y030135D01*
X037502Y030135D01*
X037502Y030385D01*
X037245Y030385D02*
X037078Y030218D01*
X037078Y030176D01*
X037120Y030135D01*
X037203Y030135D01*
X037245Y030176D01*
X037245Y030385D02*
X037078Y030385D01*
X036987Y030385D02*
X036987Y030343D01*
X036820Y030176D01*
X036820Y030135D01*
X036987Y030135D01*
X036945Y030643D02*
X036862Y030726D01*
X036820Y030685D01*
X036945Y030643D02*
X036987Y030685D01*
X037078Y030685D02*
X037245Y030685D01*
X037245Y030810D01*
X037161Y030768D01*
X037120Y030768D01*
X037078Y030810D01*
X037078Y030893D01*
X037120Y030935D01*
X037203Y030935D01*
X037245Y030893D01*
X037336Y030893D02*
X037336Y030726D01*
X037377Y030685D01*
X037502Y030685D01*
X037502Y030935D01*
X037377Y030935D01*
X037336Y030893D01*
X037851Y030893D02*
X037851Y030726D01*
X037893Y030685D01*
X038018Y030685D01*
X038018Y030935D01*
X037893Y030935D01*
X037851Y030893D01*
X038109Y030935D02*
X038109Y030685D01*
X038276Y030685D02*
X038109Y030935D01*
X038276Y030935D02*
X038276Y030685D01*
X038367Y030726D02*
X038409Y030685D01*
X038492Y030685D01*
X038534Y030726D01*
X038534Y030893D01*
X038492Y030935D01*
X038409Y030935D01*
X038367Y030893D01*
X038367Y030810D01*
X038450Y030810D01*
X038883Y030852D02*
X038883Y030685D01*
X039049Y030685D02*
X039049Y030852D01*
X038966Y030935D01*
X038883Y030852D01*
X039140Y030893D02*
X039182Y030935D01*
X039265Y030935D01*
X039307Y030893D01*
X039307Y030810D02*
X039224Y030768D01*
X039182Y030768D01*
X039140Y030810D01*
X039140Y030893D01*
X039307Y030810D02*
X039307Y030685D01*
X039140Y030685D01*
X039398Y030810D02*
X039565Y030810D01*
X039482Y030893D02*
X039482Y030726D01*
X036471Y030685D02*
X036346Y030685D01*
X036304Y030726D01*
X036304Y030893D01*
X036346Y030935D01*
X036471Y030935D01*
X036471Y030685D01*
X036213Y030810D02*
X036047Y030810D01*
X036088Y030935D02*
X036088Y030685D01*
X036213Y030810D01*
X035956Y030685D02*
X035914Y030643D01*
X035830Y030726D01*
X035789Y030685D01*
X035830Y030385D02*
X035789Y030343D01*
X035789Y030302D01*
X035830Y030260D01*
X035956Y030260D01*
X035956Y030343D01*
X035914Y030385D01*
X035830Y030385D01*
X035956Y030260D02*
X035872Y030176D01*
X035789Y030135D01*
X036047Y030176D02*
X036088Y030135D01*
X036172Y030135D01*
X036213Y030176D01*
X036304Y030176D02*
X036346Y030135D01*
X036471Y030135D01*
X036471Y030385D01*
X036346Y030385D01*
X036304Y030343D01*
X036304Y030176D01*
X036213Y030385D02*
X036047Y030218D01*
X036047Y030176D01*
X036047Y030385D02*
X036213Y030385D01*
X035440Y030385D02*
X035315Y030385D01*
X035273Y030343D01*
X035273Y030176D01*
X035315Y030135D01*
X035440Y030135D01*
X035440Y030385D01*
X035182Y030385D02*
X035015Y030218D01*
X035015Y030176D01*
X035057Y030135D01*
X035140Y030135D01*
X035182Y030176D01*
X035182Y030385D02*
X035015Y030385D01*
X034924Y030343D02*
X034883Y030385D01*
X034799Y030385D01*
X034757Y030343D01*
X034757Y030260D01*
X034799Y030218D01*
X034841Y030218D01*
X034924Y030260D01*
X034924Y030135D01*
X034757Y030135D01*
X034409Y030135D02*
X034283Y030135D01*
X034242Y030176D01*
X034242Y030343D01*
X034283Y030385D01*
X034409Y030385D01*
X034409Y030135D01*
X034151Y030176D02*
X034109Y030135D01*
X034026Y030135D01*
X033984Y030176D01*
X033984Y030218D01*
X034151Y030385D01*
X033984Y030385D01*
X033893Y030260D02*
X033726Y030260D01*
X033768Y030385D02*
X033768Y030135D01*
X033893Y030260D01*
X033851Y030643D02*
X033768Y030726D01*
X033726Y030685D01*
X033851Y030643D02*
X033893Y030685D01*
X033984Y030726D02*
X034026Y030685D01*
X034109Y030685D01*
X034151Y030726D01*
X034242Y030726D02*
X034283Y030685D01*
X034409Y030685D01*
X034409Y030935D01*
X034283Y030935D01*
X034242Y030893D01*
X034242Y030726D01*
X034151Y030935D02*
X033984Y030768D01*
X033984Y030726D01*
X033984Y030935D02*
X034151Y030935D01*
X034757Y030685D02*
X034799Y030726D01*
X034883Y030643D01*
X034924Y030685D01*
X035015Y030726D02*
X035015Y030768D01*
X035057Y030810D01*
X035015Y030852D01*
X035015Y030893D01*
X035057Y030935D01*
X035140Y030935D01*
X035182Y030893D01*
X035273Y030893D02*
X035273Y030726D01*
X035315Y030685D01*
X035440Y030685D01*
X035440Y030935D01*
X035315Y030935D01*
X035273Y030893D01*
X035182Y030726D02*
X035140Y030685D01*
X035057Y030685D01*
X035015Y030726D01*
X035057Y030810D02*
X035099Y030810D01*
X033377Y030893D02*
X033377Y030726D01*
X033336Y030685D01*
X033252Y030685D01*
X033211Y030726D01*
X033211Y030810D02*
X033294Y030810D01*
X033211Y030810D02*
X033211Y030893D01*
X033252Y030935D01*
X033336Y030935D01*
X033377Y030893D01*
X033120Y030935D02*
X033120Y030685D01*
X032953Y030935D01*
X032953Y030685D01*
X032862Y030685D02*
X032737Y030685D01*
X032695Y030726D01*
X032695Y030893D01*
X032737Y030935D01*
X032862Y030935D01*
X032862Y030685D01*
X032820Y030385D02*
X032862Y030343D01*
X032820Y030385D02*
X032737Y030385D01*
X032695Y030343D01*
X032695Y030302D01*
X032737Y030260D01*
X032778Y030260D01*
X032737Y030260D02*
X032695Y030218D01*
X032695Y030176D01*
X032737Y030135D01*
X032820Y030135D01*
X032862Y030176D01*
X032953Y030176D02*
X032994Y030135D01*
X033078Y030135D01*
X033120Y030176D01*
X033211Y030176D02*
X033252Y030135D01*
X033377Y030135D01*
X033377Y030385D01*
X033252Y030385D01*
X033211Y030343D01*
X033211Y030176D01*
X033120Y030385D02*
X032953Y030218D01*
X032953Y030176D01*
X032953Y030385D02*
X033120Y030385D01*
X032346Y030385D02*
X032221Y030385D01*
X032179Y030343D01*
X032179Y030176D01*
X032221Y030135D01*
X032346Y030135D01*
X032346Y030385D01*
X032088Y030385D02*
X031921Y030218D01*
X031921Y030176D01*
X031963Y030135D01*
X032047Y030135D01*
X032088Y030176D01*
X032088Y030385D02*
X031921Y030385D01*
X031830Y030385D02*
X031664Y030218D01*
X031664Y030176D01*
X031705Y030135D01*
X031789Y030135D01*
X031830Y030176D01*
X031830Y030385D02*
X031664Y030385D01*
X031664Y030685D02*
X031664Y030852D01*
X031747Y030935D01*
X031830Y030852D01*
X031830Y030685D01*
X031921Y030685D02*
X032088Y030685D01*
X032088Y030810D01*
X032005Y030768D01*
X031963Y030768D01*
X031921Y030810D01*
X031921Y030893D01*
X031963Y030935D01*
X032047Y030935D01*
X032088Y030893D01*
X032179Y030810D02*
X032346Y030810D01*
X032263Y030893D02*
X032263Y030726D01*
X030915Y030726D02*
X030915Y030893D01*
X030873Y030935D01*
X030790Y030935D01*
X030748Y030893D01*
X030748Y030810D01*
X030832Y030810D01*
X030915Y030726D02*
X030873Y030685D01*
X030790Y030685D01*
X030748Y030726D01*
X030657Y030685D02*
X030490Y030935D01*
X030490Y030685D01*
X030399Y030685D02*
X030274Y030685D01*
X030233Y030726D01*
X030233Y030893D01*
X030274Y030935D01*
X030399Y030935D01*
X030399Y030685D01*
X030657Y030685D02*
X030657Y030935D01*
X029884Y030893D02*
X029884Y030726D01*
X029842Y030685D01*
X029759Y030685D01*
X029717Y030726D01*
X029717Y030810D02*
X029800Y030810D01*
X029717Y030810D02*
X029717Y030893D01*
X029759Y030935D01*
X029842Y030935D01*
X029884Y030893D01*
X029626Y030935D02*
X029626Y030685D01*
X029459Y030935D01*
X029459Y030685D01*
X029368Y030685D02*
X029243Y030685D01*
X029201Y030726D01*
X029201Y030893D01*
X029243Y030935D01*
X029368Y030935D01*
X029368Y030685D01*
X029359Y030385D02*
X029526Y030385D01*
X029442Y030385D02*
X029442Y030135D01*
X029526Y030218D01*
X029617Y030218D02*
X029617Y030385D01*
X029617Y030260D02*
X029784Y030260D01*
X029784Y030218D02*
X029700Y030135D01*
X029617Y030218D01*
X029784Y030218D02*
X029784Y030385D01*
X030133Y030343D02*
X030174Y030385D01*
X030258Y030385D01*
X030299Y030343D01*
X030299Y030260D02*
X030216Y030218D01*
X030174Y030218D01*
X030133Y030260D01*
X030133Y030343D01*
X030299Y030260D02*
X030299Y030135D01*
X030133Y030135D01*
X030474Y030135D02*
X030474Y030385D01*
X030557Y030385D02*
X030390Y030385D01*
X030557Y030218D02*
X030474Y030135D01*
X030648Y030218D02*
X030648Y030385D01*
X030648Y030260D02*
X030815Y030260D01*
X030815Y030218D02*
X030732Y030135D01*
X030648Y030218D01*
X030815Y030218D02*
X030815Y030385D01*
X029268Y030260D02*
X029101Y030260D01*
X029143Y030385D02*
X029143Y030135D01*
X029268Y030260D01*
X028752Y030260D02*
X028586Y030260D01*
X028586Y030218D02*
X028586Y030385D01*
X028495Y030385D02*
X028328Y030385D01*
X028411Y030385D02*
X028411Y030135D01*
X028495Y030218D01*
X028586Y030218D02*
X028669Y030135D01*
X028752Y030218D01*
X028752Y030385D01*
X028727Y030685D02*
X028811Y030685D01*
X028852Y030726D01*
X028852Y030893D01*
X028811Y030935D01*
X028727Y030935D01*
X028686Y030893D01*
X028686Y030810D01*
X028769Y030810D01*
X028686Y030726D02*
X028727Y030685D01*
X028595Y030685D02*
X028428Y030935D01*
X028428Y030685D01*
X028337Y030685D02*
X028212Y030685D01*
X028170Y030726D01*
X028170Y030893D01*
X028212Y030935D01*
X028337Y030935D01*
X028337Y030685D01*
X028595Y030685D02*
X028595Y030935D01*
X028195Y030385D02*
X028237Y030343D01*
X028195Y030385D02*
X028112Y030385D01*
X028070Y030343D01*
X028070Y030302D01*
X028112Y030260D01*
X028153Y030260D01*
X028112Y030260D02*
X028070Y030218D01*
X028070Y030176D01*
X028112Y030135D01*
X028195Y030135D01*
X028237Y030176D01*
X027721Y030218D02*
X027638Y030135D01*
X027554Y030218D01*
X027554Y030385D01*
X027463Y030385D02*
X027297Y030385D01*
X027380Y030385D02*
X027380Y030135D01*
X027463Y030218D01*
X027554Y030260D02*
X027721Y030260D01*
X027721Y030218D02*
X027721Y030385D01*
X027696Y030685D02*
X027779Y030685D01*
X027821Y030726D01*
X027821Y030893D01*
X027779Y030935D01*
X027696Y030935D01*
X027654Y030893D01*
X027654Y030810D01*
X027738Y030810D01*
X027654Y030726D02*
X027696Y030685D01*
X027563Y030685D02*
X027397Y030935D01*
X027397Y030685D01*
X027306Y030685D02*
X027306Y030935D01*
X027180Y030935D01*
X027139Y030893D01*
X027139Y030726D01*
X027180Y030685D01*
X027306Y030685D01*
X027563Y030685D02*
X027563Y030935D01*
X026790Y030893D02*
X026790Y030726D01*
X026748Y030685D01*
X026665Y030685D01*
X026623Y030726D01*
X026623Y030810D02*
X026706Y030810D01*
X026623Y030810D02*
X026623Y030893D01*
X026665Y030935D01*
X026748Y030935D01*
X026790Y030893D01*
X026532Y030935D02*
X026532Y030685D01*
X026365Y030935D01*
X026365Y030685D01*
X026274Y030685D02*
X026149Y030685D01*
X026107Y030726D01*
X026107Y030893D01*
X026149Y030935D01*
X026274Y030935D01*
X026274Y030685D01*
X026265Y030385D02*
X026432Y030385D01*
X026349Y030385D02*
X026349Y030135D01*
X026432Y030218D01*
X026523Y030218D02*
X026523Y030385D01*
X026523Y030260D02*
X026690Y030260D01*
X026690Y030218D02*
X026606Y030135D01*
X026523Y030218D01*
X026690Y030218D02*
X026690Y030385D01*
X027039Y030385D02*
X027206Y030385D01*
X027039Y030218D01*
X027039Y030176D01*
X027080Y030135D01*
X027164Y030135D01*
X027206Y030176D01*
X026174Y030218D02*
X026091Y030135D01*
X026091Y030385D01*
X026174Y030385D02*
X026007Y030385D01*
X025659Y030385D02*
X025659Y030218D01*
X025575Y030135D01*
X025492Y030218D01*
X025492Y030385D01*
X025401Y030385D02*
X025234Y030385D01*
X025317Y030385D02*
X025317Y030135D01*
X025401Y030218D01*
X025492Y030260D02*
X025659Y030260D01*
X025633Y030685D02*
X025717Y030685D01*
X025759Y030726D01*
X025759Y030893D01*
X025717Y030935D01*
X025633Y030935D01*
X025592Y030893D01*
X025592Y030810D01*
X025675Y030810D01*
X025592Y030726D02*
X025633Y030685D01*
X025501Y030685D02*
X025334Y030935D01*
X025334Y030685D01*
X025243Y030685D02*
X025118Y030685D01*
X025076Y030726D01*
X025076Y030893D01*
X025118Y030935D01*
X025243Y030935D01*
X025243Y030685D01*
X025501Y030685D02*
X025501Y030935D01*
X024727Y030810D02*
X024561Y030810D01*
X024644Y030893D02*
X024644Y030726D01*
X024470Y030726D02*
X024428Y030685D01*
X024344Y030685D01*
X024303Y030726D01*
X024303Y030768D01*
X024344Y030810D01*
X024303Y030852D01*
X024303Y030893D01*
X024344Y030935D01*
X024428Y030935D01*
X024470Y030893D01*
X024386Y030810D02*
X024344Y030810D01*
X024212Y030893D02*
X024170Y030893D01*
X024170Y030935D01*
X024212Y030935D01*
X024212Y030893D01*
X024083Y030893D02*
X024041Y030935D01*
X023958Y030935D01*
X023916Y030893D01*
X023916Y030852D01*
X023958Y030810D01*
X023999Y030810D01*
X023958Y030810D02*
X023916Y030768D01*
X023916Y030726D01*
X023958Y030685D01*
X024041Y030685D01*
X024083Y030726D01*
X024244Y030385D02*
X024203Y030343D01*
X024203Y030176D01*
X024244Y030135D01*
X024328Y030135D01*
X024370Y030176D01*
X024370Y030218D01*
X024328Y030260D01*
X024203Y030260D01*
X024244Y030385D02*
X024328Y030385D01*
X024370Y030343D01*
X024461Y030385D02*
X024461Y030218D01*
X024544Y030135D01*
X024627Y030218D01*
X024627Y030385D01*
X024627Y030260D02*
X024461Y030260D01*
X024976Y030343D02*
X025018Y030385D01*
X025101Y030385D01*
X025143Y030343D01*
X024976Y030176D01*
X024976Y030343D01*
X024976Y030176D02*
X025018Y030135D01*
X025101Y030135D01*
X025143Y030176D01*
X025143Y030343D01*
X023854Y030385D02*
X023854Y030218D01*
X023770Y030135D01*
X023687Y030218D01*
X023687Y030385D01*
X023596Y030385D02*
X023596Y030135D01*
X023471Y030135D01*
X023429Y030176D01*
X023429Y030260D01*
X023471Y030302D01*
X023596Y030302D01*
X023513Y030302D02*
X023429Y030385D01*
X023338Y030385D02*
X023171Y030385D01*
X023080Y030385D02*
X023080Y030135D01*
X022914Y030135D01*
X022997Y030260D02*
X023080Y030260D01*
X023171Y030135D02*
X023338Y030135D01*
X023338Y030385D01*
X023338Y030260D02*
X023255Y030260D01*
X023309Y030685D02*
X023143Y030685D01*
X023184Y030768D02*
X023143Y030810D01*
X023143Y030893D01*
X023184Y030935D01*
X023268Y030935D01*
X023309Y030893D01*
X023309Y030810D02*
X023226Y030768D01*
X023184Y030768D01*
X023309Y030810D02*
X023309Y030685D01*
X023400Y030810D02*
X023567Y030810D01*
X023484Y030893D02*
X023484Y030726D01*
X023051Y030768D02*
X022968Y030935D01*
X022885Y030768D01*
X023687Y030260D02*
X023854Y030260D01*
X021015Y029946D02*
X021015Y029849D01*
X020967Y029801D01*
X020967Y029700D02*
X020773Y029700D01*
X020725Y029651D01*
X020725Y029506D01*
X021015Y029506D01*
X021015Y029651D01*
X020967Y029700D01*
X020773Y029801D02*
X020725Y029849D01*
X020725Y029946D01*
X020773Y029994D01*
X020822Y029994D01*
X020870Y029946D01*
X020918Y029994D01*
X020967Y029994D01*
X021015Y029946D01*
X020870Y029946D02*
X020870Y029897D01*
X021015Y029406D02*
X021015Y029310D01*
X021015Y029358D02*
X020725Y029358D01*
X020725Y029310D02*
X020725Y029406D01*
X020725Y029208D02*
X020725Y029015D01*
X021015Y029015D01*
X020870Y029015D02*
X020870Y029112D01*
X029145Y025807D02*
X029145Y025613D01*
X029193Y025565D01*
X029290Y025565D01*
X029338Y025613D01*
X029440Y025710D02*
X029633Y025710D01*
X029585Y025565D02*
X029585Y025855D01*
X029440Y025710D01*
X029338Y025807D02*
X029290Y025855D01*
X029193Y025855D01*
X029145Y025807D01*
X030025Y024036D02*
X029976Y023988D01*
X029976Y023891D01*
X030025Y023843D01*
X029976Y023742D02*
X030218Y023742D01*
X030266Y023693D01*
X030266Y023597D01*
X030218Y023548D01*
X029976Y023548D01*
X030266Y023843D02*
X030073Y024036D01*
X030025Y024036D01*
X030266Y024036D02*
X030266Y023843D01*
X029337Y022835D02*
X029337Y022465D01*
X029460Y022465D02*
X029213Y022465D01*
X029092Y022465D02*
X028968Y022588D01*
X029030Y022588D02*
X028845Y022588D01*
X028845Y022465D02*
X028845Y022835D01*
X029030Y022835D01*
X029092Y022774D01*
X029092Y022650D01*
X029030Y022588D01*
X029213Y022712D02*
X029337Y022835D01*
X030193Y021105D02*
X030145Y021057D01*
X030145Y020863D01*
X030193Y020815D01*
X030290Y020815D01*
X030338Y020863D01*
X030440Y020863D02*
X030488Y020815D01*
X030585Y020815D01*
X030633Y020863D01*
X030633Y020912D01*
X030585Y020960D01*
X030536Y020960D01*
X030585Y020960D02*
X030633Y021008D01*
X030633Y021057D01*
X030585Y021105D01*
X030488Y021105D01*
X030440Y021057D01*
X030338Y021057D02*
X030290Y021105D01*
X030193Y021105D01*
X030316Y019986D02*
X030316Y019793D01*
X030316Y019890D02*
X030026Y019890D01*
X030123Y019793D01*
X030026Y019692D02*
X030268Y019692D01*
X030316Y019643D01*
X030316Y019547D01*
X030268Y019498D01*
X030026Y019498D01*
X029510Y018924D02*
X029448Y018985D01*
X029325Y018985D01*
X029263Y018924D01*
X029142Y018924D02*
X029142Y018800D01*
X029080Y018738D01*
X028895Y018738D01*
X028895Y018615D02*
X028895Y018985D01*
X029080Y018985D01*
X029142Y018924D01*
X029018Y018738D02*
X029142Y018615D01*
X029263Y018615D02*
X029510Y018862D01*
X029510Y018924D01*
X029510Y018615D02*
X029263Y018615D01*
X033195Y021115D02*
X033195Y021405D01*
X033340Y021405D01*
X033388Y021357D01*
X033388Y021260D01*
X033340Y021212D01*
X033195Y021212D01*
X033292Y021212D02*
X033388Y021115D01*
X033490Y021260D02*
X033683Y021260D01*
X033784Y021260D02*
X033881Y021308D01*
X033929Y021308D01*
X033978Y021260D01*
X033978Y021163D01*
X033929Y021115D01*
X033833Y021115D01*
X033784Y021163D01*
X033784Y021260D02*
X033784Y021405D01*
X033978Y021405D01*
X033635Y021405D02*
X033635Y021115D01*
X033490Y021260D02*
X033635Y021405D01*
X034645Y021357D02*
X034645Y021163D01*
X034693Y021115D01*
X034790Y021115D01*
X034838Y021163D01*
X034940Y021115D02*
X035133Y021308D01*
X035133Y021357D01*
X035085Y021405D01*
X034988Y021405D01*
X034940Y021357D01*
X034838Y021357D02*
X034790Y021405D01*
X034693Y021405D01*
X034645Y021357D01*
X034940Y021115D02*
X035133Y021115D01*
X035234Y021115D02*
X035234Y021163D01*
X035428Y021357D01*
X035428Y021405D01*
X035234Y021405D01*
X036311Y021443D02*
X036359Y021395D01*
X036456Y021395D01*
X036505Y021443D01*
X036606Y021395D02*
X036799Y021588D01*
X036799Y021637D01*
X036751Y021685D01*
X036654Y021685D01*
X036606Y021637D01*
X036505Y021637D02*
X036456Y021685D01*
X036359Y021685D01*
X036311Y021637D01*
X036311Y021443D01*
X036606Y021395D02*
X036799Y021395D01*
X036900Y021395D02*
X037094Y021395D01*
X036997Y021395D02*
X036997Y021685D01*
X036900Y021588D01*
X036685Y022581D02*
X036395Y022581D01*
X036395Y022726D01*
X036443Y022775D01*
X036540Y022775D01*
X036588Y022726D01*
X036588Y022581D01*
X036588Y022678D02*
X036685Y022775D01*
X036540Y022876D02*
X036540Y023069D01*
X036540Y023170D02*
X036540Y023364D01*
X036685Y023315D02*
X036395Y023315D01*
X036540Y023170D01*
X036685Y023021D02*
X036395Y023021D01*
X036540Y022876D01*
X034728Y022605D02*
X034534Y022605D01*
X034534Y022460D01*
X034631Y022508D01*
X034679Y022508D01*
X034728Y022460D01*
X034728Y022363D01*
X034679Y022315D01*
X034583Y022315D01*
X034534Y022363D01*
X034433Y022315D02*
X034240Y022315D01*
X034433Y022508D01*
X034433Y022557D01*
X034385Y022605D01*
X034288Y022605D01*
X034240Y022557D01*
X034138Y022557D02*
X034090Y022605D01*
X033993Y022605D01*
X033945Y022557D01*
X033945Y022363D01*
X033993Y022315D01*
X034090Y022315D01*
X034138Y022363D01*
X034223Y022965D02*
X034417Y022965D01*
X034465Y023013D01*
X034465Y023110D01*
X034417Y023158D01*
X034465Y023260D02*
X034272Y023453D01*
X034223Y023453D01*
X034175Y023405D01*
X034175Y023308D01*
X034223Y023260D01*
X034223Y023158D02*
X034175Y023110D01*
X034175Y023013D01*
X034223Y022965D01*
X034465Y023260D02*
X034465Y023453D01*
X034417Y023554D02*
X034465Y023603D01*
X034465Y023699D01*
X034417Y023748D01*
X034368Y023748D01*
X034320Y023699D01*
X034320Y023554D01*
X034417Y023554D01*
X034320Y023554D02*
X034223Y023651D01*
X034175Y023748D01*
X033667Y024715D02*
X033715Y024763D01*
X033715Y024860D01*
X033667Y024908D01*
X033715Y025010D02*
X033522Y025203D01*
X033473Y025203D01*
X033425Y025155D01*
X033425Y025058D01*
X033473Y025010D01*
X033473Y024908D02*
X033425Y024860D01*
X033425Y024763D01*
X033473Y024715D01*
X033667Y024715D01*
X033715Y025010D02*
X033715Y025203D01*
X033570Y025304D02*
X033570Y025498D01*
X033715Y025449D02*
X033425Y025449D01*
X033570Y025304D01*
X035875Y025613D02*
X035923Y025565D01*
X035972Y025565D01*
X036020Y025613D01*
X036020Y025710D01*
X036068Y025758D01*
X036117Y025758D01*
X036165Y025710D01*
X036165Y025613D01*
X036117Y025565D01*
X035875Y025613D02*
X035875Y025710D01*
X035923Y025758D01*
X035875Y025860D02*
X036165Y025860D01*
X036165Y026053D01*
X036165Y026154D02*
X035875Y026154D01*
X036165Y026348D01*
X035875Y026348D01*
X035923Y026449D02*
X035972Y026449D01*
X036020Y026497D01*
X036020Y026594D01*
X036068Y026642D01*
X036117Y026642D01*
X036165Y026594D01*
X036165Y026497D01*
X036117Y026449D01*
X035923Y026449D02*
X035875Y026497D01*
X035875Y026594D01*
X035923Y026642D01*
X035923Y026744D02*
X035875Y026792D01*
X035875Y026889D01*
X035923Y026937D01*
X035972Y026937D01*
X036165Y026744D01*
X036165Y026937D01*
X035875Y026053D02*
X035875Y025860D01*
X036020Y025860D02*
X036020Y025956D01*
X037525Y025908D02*
X037573Y025860D01*
X037525Y025908D02*
X037525Y026005D01*
X037573Y026053D01*
X037622Y026053D01*
X037815Y025860D01*
X037815Y026053D01*
X037767Y026154D02*
X037815Y026203D01*
X037815Y026299D01*
X037767Y026348D01*
X037718Y026348D01*
X037670Y026299D01*
X037670Y026251D01*
X037670Y026299D02*
X037622Y026348D01*
X037573Y026348D01*
X037525Y026299D01*
X037525Y026203D01*
X037573Y026154D01*
X037573Y025758D02*
X037525Y025710D01*
X037525Y025613D01*
X037573Y025565D01*
X037767Y025565D01*
X037815Y025613D01*
X037815Y025710D01*
X037767Y025758D01*
X041611Y027193D02*
X041659Y027145D01*
X041756Y027145D01*
X041805Y027193D01*
X041906Y027145D02*
X042099Y027338D01*
X042099Y027387D01*
X042051Y027435D01*
X041954Y027435D01*
X041906Y027387D01*
X041805Y027387D02*
X041756Y027435D01*
X041659Y027435D01*
X041611Y027387D01*
X041611Y027193D01*
X041906Y027145D02*
X042099Y027145D01*
X042200Y027145D02*
X042394Y027338D01*
X042394Y027387D01*
X042345Y027435D01*
X042249Y027435D01*
X042200Y027387D01*
X042200Y027145D02*
X042394Y027145D01*
X046845Y026655D02*
X046845Y026365D01*
X046845Y026510D02*
X046942Y026510D01*
X047038Y026655D02*
X046845Y026655D01*
X047140Y026655D02*
X047236Y026655D01*
X047188Y026655D02*
X047188Y026365D01*
X047140Y026365D02*
X047236Y026365D01*
X047336Y026365D02*
X047481Y026365D01*
X047530Y026413D01*
X047530Y026607D01*
X047481Y026655D01*
X047336Y026655D01*
X047336Y026365D01*
X047631Y026413D02*
X047679Y026365D01*
X047776Y026365D01*
X047824Y026413D01*
X047824Y026510D01*
X047776Y026558D01*
X047727Y026558D01*
X047631Y026510D01*
X047631Y026655D01*
X047824Y026655D01*
X049106Y025787D02*
X049154Y025835D01*
X049251Y025835D01*
X049299Y025787D01*
X049299Y025593D01*
X049251Y025545D01*
X049154Y025545D01*
X049106Y025593D01*
X049106Y025787D01*
X049202Y025642D02*
X049299Y025545D01*
X049400Y025593D02*
X049449Y025545D01*
X049545Y025545D01*
X049594Y025593D01*
X049594Y025787D01*
X049545Y025835D01*
X049449Y025835D01*
X049400Y025787D01*
X049400Y025738D01*
X049449Y025690D01*
X049594Y025690D01*
X049533Y025005D02*
X049340Y025005D01*
X049340Y024860D01*
X049436Y024908D01*
X049485Y024908D01*
X049533Y024860D01*
X049533Y024763D01*
X049485Y024715D01*
X049388Y024715D01*
X049340Y024763D01*
X049238Y024715D02*
X049142Y024812D01*
X049190Y024812D02*
X049045Y024812D01*
X049045Y024715D02*
X049045Y025005D01*
X049190Y025005D01*
X049238Y024957D01*
X049238Y024860D01*
X049190Y024812D01*
X049634Y024860D02*
X049779Y024860D01*
X049828Y024812D01*
X049828Y024763D01*
X049779Y024715D01*
X049683Y024715D01*
X049634Y024763D01*
X049634Y024860D01*
X049731Y024957D01*
X049828Y025005D01*
X051395Y024962D02*
X051540Y024962D01*
X051588Y025010D01*
X051588Y025107D01*
X051540Y025155D01*
X051395Y025155D01*
X051395Y024865D01*
X051492Y024962D02*
X051588Y024865D01*
X051690Y024913D02*
X051738Y024865D01*
X051835Y024865D01*
X051883Y024913D01*
X051883Y025010D01*
X051835Y025058D01*
X051786Y025058D01*
X051690Y025010D01*
X051690Y025155D01*
X051883Y025155D01*
X051984Y025155D02*
X052178Y025155D01*
X052178Y025107D01*
X051984Y024913D01*
X051984Y024865D01*
X052004Y024235D02*
X052101Y024235D01*
X052149Y024187D01*
X052149Y023993D01*
X052101Y023945D01*
X052004Y023945D01*
X051956Y023993D01*
X051956Y024187D01*
X052004Y024235D01*
X052052Y024042D02*
X052149Y023945D01*
X052250Y023945D02*
X052250Y023993D01*
X052444Y024187D01*
X052444Y024235D01*
X052250Y024235D01*
X053506Y024187D02*
X053506Y023993D01*
X053554Y023945D01*
X053651Y023945D01*
X053699Y023993D01*
X053699Y024187D01*
X053651Y024235D01*
X053554Y024235D01*
X053506Y024187D01*
X053602Y024042D02*
X053699Y023945D01*
X053800Y023993D02*
X053849Y023945D01*
X053945Y023945D01*
X053994Y023993D01*
X053994Y024042D01*
X053945Y024090D01*
X053800Y024090D01*
X053800Y023993D01*
X053800Y024090D02*
X053897Y024187D01*
X053994Y024235D01*
X055245Y024157D02*
X055245Y023963D01*
X055293Y023915D01*
X055390Y023915D01*
X055438Y023963D01*
X055438Y024157D01*
X055390Y024205D01*
X055293Y024205D01*
X055245Y024157D01*
X055342Y024012D02*
X055438Y023915D01*
X055540Y023963D02*
X055588Y023915D01*
X055685Y023915D01*
X055733Y023963D01*
X055733Y024060D01*
X055685Y024108D01*
X055636Y024108D01*
X055540Y024060D01*
X055540Y024205D01*
X055733Y024205D01*
X056906Y024137D02*
X056906Y023943D01*
X056954Y023895D01*
X057051Y023895D01*
X057099Y023943D01*
X057099Y024137D01*
X057051Y024185D01*
X056954Y024185D01*
X056906Y024137D01*
X057002Y023992D02*
X057099Y023895D01*
X057200Y024040D02*
X057394Y024040D01*
X057345Y023895D02*
X057345Y024185D01*
X057200Y024040D01*
X052328Y027263D02*
X052279Y027215D01*
X052183Y027215D01*
X052134Y027263D01*
X052134Y027312D01*
X052183Y027360D01*
X052279Y027360D01*
X052328Y027312D01*
X052328Y027263D01*
X052279Y027360D02*
X052328Y027408D01*
X052328Y027457D01*
X052279Y027505D01*
X052183Y027505D01*
X052134Y027457D01*
X052134Y027408D01*
X052183Y027360D01*
X052033Y027360D02*
X052033Y027263D01*
X051985Y027215D01*
X051888Y027215D01*
X051840Y027263D01*
X051840Y027360D02*
X051936Y027408D01*
X051985Y027408D01*
X052033Y027360D01*
X052033Y027505D02*
X051840Y027505D01*
X051840Y027360D01*
X051738Y027360D02*
X051690Y027312D01*
X051545Y027312D01*
X051642Y027312D02*
X051738Y027215D01*
X051738Y027360D02*
X051738Y027457D01*
X051690Y027505D01*
X051545Y027505D01*
X051545Y027215D01*
X050120Y023460D02*
X050169Y023412D01*
X050169Y023363D01*
X050120Y023315D01*
X050024Y023315D01*
X049975Y023363D01*
X049975Y023412D01*
X050024Y023460D01*
X050120Y023460D01*
X050120Y023315D02*
X050169Y023267D01*
X050169Y023218D01*
X050120Y023170D01*
X050024Y023170D01*
X049975Y023218D01*
X049975Y023267D01*
X050024Y023315D01*
X049874Y023412D02*
X049874Y023218D01*
X049826Y023170D01*
X049729Y023170D01*
X049681Y023218D01*
X049681Y023412D01*
X049729Y023460D01*
X049826Y023460D01*
X049874Y023412D01*
X049777Y023267D02*
X049874Y023170D01*
X045765Y021949D02*
X045717Y021998D01*
X045523Y021998D01*
X045475Y021949D01*
X045475Y021853D01*
X045523Y021804D01*
X045572Y021804D01*
X045620Y021853D01*
X045620Y021998D01*
X045765Y021949D02*
X045765Y021853D01*
X045717Y021804D01*
X045765Y021703D02*
X045765Y021510D01*
X045765Y021606D02*
X045475Y021606D01*
X045572Y021510D01*
X045523Y021408D02*
X045475Y021360D01*
X045475Y021263D01*
X045523Y021215D01*
X045717Y021215D01*
X045765Y021263D01*
X045765Y021360D01*
X045717Y021408D01*
X047345Y020307D02*
X047345Y020113D01*
X047393Y020065D01*
X047490Y020065D01*
X047538Y020113D01*
X047640Y020065D02*
X047833Y020065D01*
X047736Y020065D02*
X047736Y020355D01*
X047640Y020258D01*
X047538Y020307D02*
X047490Y020355D01*
X047393Y020355D01*
X047345Y020307D01*
X047934Y020307D02*
X047934Y020258D01*
X047983Y020210D01*
X048079Y020210D01*
X048128Y020162D01*
X048128Y020113D01*
X048079Y020065D01*
X047983Y020065D01*
X047934Y020113D01*
X047934Y020162D01*
X047983Y020210D01*
X048079Y020210D02*
X048128Y020258D01*
X048128Y020307D01*
X048079Y020355D01*
X047983Y020355D01*
X047934Y020307D01*
X048945Y020615D02*
X048945Y020905D01*
X049090Y020905D01*
X049138Y020857D01*
X049138Y020760D01*
X049090Y020712D01*
X048945Y020712D01*
X049042Y020712D02*
X049138Y020615D01*
X049240Y020663D02*
X049288Y020615D01*
X049385Y020615D01*
X049433Y020663D01*
X049433Y020760D01*
X049385Y020808D01*
X049336Y020808D01*
X049240Y020760D01*
X049240Y020905D01*
X049433Y020905D01*
X049534Y020905D02*
X049534Y020760D01*
X049631Y020808D01*
X049679Y020808D01*
X049728Y020760D01*
X049728Y020663D01*
X049679Y020615D01*
X049583Y020615D01*
X049534Y020663D01*
X049534Y020905D02*
X049728Y020905D01*
X051695Y020455D02*
X051695Y020165D01*
X051695Y020262D02*
X051840Y020262D01*
X051888Y020310D01*
X051888Y020407D01*
X051840Y020455D01*
X051695Y020455D01*
X051792Y020262D02*
X051888Y020165D01*
X051990Y020213D02*
X052038Y020165D01*
X052135Y020165D01*
X052183Y020213D01*
X052183Y020262D01*
X052135Y020310D01*
X052086Y020310D01*
X052135Y020310D02*
X052183Y020358D01*
X052183Y020407D01*
X052135Y020455D01*
X052038Y020455D01*
X051990Y020407D01*
X052284Y020407D02*
X052284Y020358D01*
X052333Y020310D01*
X052478Y020310D01*
X052478Y020213D02*
X052478Y020407D01*
X052429Y020455D01*
X052333Y020455D01*
X052284Y020407D01*
X052284Y020213D02*
X052333Y020165D01*
X052429Y020165D01*
X052478Y020213D01*
X052595Y020165D02*
X052595Y020455D01*
X052740Y020455D01*
X052788Y020407D01*
X052788Y020310D01*
X052740Y020262D01*
X052595Y020262D01*
X052692Y020262D02*
X052788Y020165D01*
X052890Y020310D02*
X053083Y020310D01*
X053184Y020213D02*
X053233Y020165D01*
X053329Y020165D01*
X053378Y020213D01*
X053378Y020262D01*
X053329Y020310D01*
X053281Y020310D01*
X053329Y020310D02*
X053378Y020358D01*
X053378Y020407D01*
X053329Y020455D01*
X053233Y020455D01*
X053184Y020407D01*
X053035Y020455D02*
X052890Y020310D01*
X053035Y020165D02*
X053035Y020455D01*
X053495Y020455D02*
X053495Y020165D01*
X053495Y020262D02*
X053640Y020262D01*
X053688Y020310D01*
X053688Y020407D01*
X053640Y020455D01*
X053495Y020455D01*
X053592Y020262D02*
X053688Y020165D01*
X053790Y020213D02*
X053838Y020165D01*
X053935Y020165D01*
X053983Y020213D01*
X053983Y020262D01*
X053935Y020310D01*
X053886Y020310D01*
X053935Y020310D02*
X053983Y020358D01*
X053983Y020407D01*
X053935Y020455D01*
X053838Y020455D01*
X053790Y020407D01*
X054084Y020407D02*
X054084Y020358D01*
X054133Y020310D01*
X054229Y020310D01*
X054278Y020262D01*
X054278Y020213D01*
X054229Y020165D01*
X054133Y020165D01*
X054084Y020213D01*
X054084Y020262D01*
X054133Y020310D01*
X054229Y020310D02*
X054278Y020358D01*
X054278Y020407D01*
X054229Y020455D01*
X054133Y020455D01*
X054084Y020407D01*
X054395Y020455D02*
X054540Y020455D01*
X054588Y020407D01*
X054588Y020310D01*
X054540Y020262D01*
X054395Y020262D01*
X054492Y020262D02*
X054588Y020165D01*
X054690Y020310D02*
X054883Y020310D01*
X054984Y020407D02*
X055033Y020455D01*
X055129Y020455D01*
X055178Y020407D01*
X055178Y020358D01*
X054984Y020165D01*
X055178Y020165D01*
X055295Y020165D02*
X055295Y020455D01*
X055440Y020455D01*
X055488Y020407D01*
X055488Y020310D01*
X055440Y020262D01*
X055295Y020262D01*
X055392Y020262D02*
X055488Y020165D01*
X055590Y020213D02*
X055638Y020165D01*
X055735Y020165D01*
X055783Y020213D01*
X055783Y020262D01*
X055735Y020310D01*
X055686Y020310D01*
X055735Y020310D02*
X055783Y020358D01*
X055783Y020407D01*
X055735Y020455D01*
X055638Y020455D01*
X055590Y020407D01*
X055884Y020455D02*
X056078Y020455D01*
X056078Y020407D01*
X055884Y020213D01*
X055884Y020165D01*
X056195Y020165D02*
X056195Y020455D01*
X056340Y020455D01*
X056388Y020407D01*
X056388Y020310D01*
X056340Y020262D01*
X056195Y020262D01*
X056292Y020262D02*
X056388Y020165D01*
X056490Y020310D02*
X056683Y020310D01*
X056784Y020358D02*
X056881Y020455D01*
X056881Y020165D01*
X056784Y020165D02*
X056978Y020165D01*
X057095Y020165D02*
X057095Y020455D01*
X057240Y020455D01*
X057288Y020407D01*
X057288Y020310D01*
X057240Y020262D01*
X057095Y020262D01*
X057192Y020262D02*
X057288Y020165D01*
X057390Y020213D02*
X057438Y020165D01*
X057535Y020165D01*
X057583Y020213D01*
X057583Y020262D01*
X057535Y020310D01*
X057486Y020310D01*
X057535Y020310D02*
X057583Y020358D01*
X057583Y020407D01*
X057535Y020455D01*
X057438Y020455D01*
X057390Y020407D01*
X057684Y020310D02*
X057829Y020310D01*
X057878Y020262D01*
X057878Y020213D01*
X057829Y020165D01*
X057733Y020165D01*
X057684Y020213D01*
X057684Y020310D01*
X057781Y020407D01*
X057878Y020455D01*
X057995Y020455D02*
X058140Y020455D01*
X058188Y020407D01*
X058188Y020310D01*
X058140Y020262D01*
X057995Y020262D01*
X058092Y020262D02*
X058188Y020165D01*
X058290Y020310D02*
X058483Y020310D01*
X058584Y020213D02*
X058778Y020407D01*
X058778Y020213D01*
X058729Y020165D01*
X058633Y020165D01*
X058584Y020213D01*
X058584Y020407D01*
X058633Y020455D01*
X058729Y020455D01*
X058778Y020407D01*
X058435Y020455D02*
X058290Y020310D01*
X058435Y020165D02*
X058435Y020455D01*
X057995Y020455D02*
X057995Y020165D01*
X058004Y019235D02*
X057956Y019187D01*
X058004Y019235D02*
X058101Y019235D01*
X058149Y019187D01*
X058149Y019138D01*
X057956Y018945D01*
X058149Y018945D01*
X058250Y018993D02*
X058299Y018945D01*
X058395Y018945D01*
X058444Y018993D01*
X058444Y019042D01*
X058395Y019090D01*
X058250Y019090D01*
X058250Y018993D01*
X058250Y019090D02*
X058347Y019187D01*
X058444Y019235D01*
X057855Y019187D02*
X057855Y019090D01*
X057806Y019042D01*
X057661Y019042D01*
X057758Y019042D02*
X057855Y018945D01*
X057661Y018945D02*
X057661Y019235D01*
X057806Y019235D01*
X057855Y019187D01*
X057806Y018285D02*
X057855Y018237D01*
X057855Y018140D01*
X057806Y018092D01*
X057661Y018092D01*
X057758Y018092D02*
X057855Y017995D01*
X057956Y017995D02*
X058149Y018188D01*
X058149Y018237D01*
X058101Y018285D01*
X058004Y018285D01*
X057956Y018237D01*
X057806Y018285D02*
X057661Y018285D01*
X057661Y017995D01*
X057956Y017995D02*
X058149Y017995D01*
X058250Y018043D02*
X058299Y017995D01*
X058395Y017995D01*
X058444Y018043D01*
X058444Y018140D01*
X058395Y018188D01*
X058347Y018188D01*
X058250Y018140D01*
X058250Y018285D01*
X058444Y018285D01*
X056694Y018237D02*
X056694Y018188D01*
X056645Y018140D01*
X056549Y018140D01*
X056500Y018188D01*
X056500Y018237D01*
X056549Y018285D01*
X056645Y018285D01*
X056694Y018237D01*
X056645Y018140D02*
X056694Y018092D01*
X056694Y018043D01*
X056645Y017995D01*
X056549Y017995D01*
X056500Y018043D01*
X056500Y018092D01*
X056549Y018140D01*
X056399Y018188D02*
X056399Y018237D01*
X056351Y018285D01*
X056254Y018285D01*
X056206Y018237D01*
X056105Y018237D02*
X056105Y018140D01*
X056056Y018092D01*
X055911Y018092D01*
X056008Y018092D02*
X056105Y017995D01*
X056206Y017995D02*
X056399Y018188D01*
X056399Y017995D02*
X056206Y017995D01*
X056105Y018237D02*
X056056Y018285D01*
X055911Y018285D01*
X055911Y017995D01*
X054944Y017995D02*
X054750Y017995D01*
X054847Y017995D02*
X054847Y018285D01*
X054750Y018188D01*
X054649Y018188D02*
X054601Y018140D01*
X054649Y018092D01*
X054649Y018043D01*
X054601Y017995D01*
X054504Y017995D01*
X054456Y018043D01*
X054355Y017995D02*
X054258Y018092D01*
X054306Y018092D02*
X054161Y018092D01*
X054161Y017995D02*
X054161Y018285D01*
X054306Y018285D01*
X054355Y018237D01*
X054355Y018140D01*
X054306Y018092D01*
X054456Y018237D02*
X054504Y018285D01*
X054601Y018285D01*
X054649Y018237D01*
X054649Y018188D01*
X054601Y018140D02*
X054552Y018140D01*
X053194Y018140D02*
X053000Y018140D01*
X053145Y018285D01*
X053145Y017995D01*
X052899Y018043D02*
X052851Y017995D01*
X052754Y017995D01*
X052706Y018043D01*
X052605Y017995D02*
X052508Y018092D01*
X052556Y018092D02*
X052411Y018092D01*
X052411Y017995D02*
X052411Y018285D01*
X052556Y018285D01*
X052605Y018237D01*
X052605Y018140D01*
X052556Y018092D01*
X052706Y018237D02*
X052754Y018285D01*
X052851Y018285D01*
X052899Y018237D01*
X052899Y018188D01*
X052851Y018140D01*
X052899Y018092D01*
X052899Y018043D01*
X052851Y018140D02*
X052802Y018140D01*
X051825Y017755D02*
X051825Y017562D01*
X051728Y017465D01*
X051632Y017562D01*
X051632Y017755D01*
X051530Y017707D02*
X051530Y017658D01*
X051482Y017610D01*
X051530Y017562D01*
X051530Y017513D01*
X051482Y017465D01*
X051385Y017465D01*
X051337Y017513D01*
X051238Y017513D02*
X051238Y017465D01*
X051190Y017465D01*
X051190Y017513D01*
X051238Y017513D01*
X051088Y017513D02*
X051040Y017465D01*
X050943Y017465D01*
X050895Y017513D01*
X050992Y017610D02*
X051040Y017610D01*
X051088Y017562D01*
X051088Y017513D01*
X051040Y017610D02*
X051088Y017658D01*
X051088Y017707D01*
X051040Y017755D01*
X050943Y017755D01*
X050895Y017707D01*
X051337Y017707D02*
X051385Y017755D01*
X051482Y017755D01*
X051530Y017707D01*
X051482Y017610D02*
X051434Y017610D01*
X052411Y017285D02*
X052556Y017285D01*
X052605Y017237D01*
X052605Y017140D01*
X052556Y017092D01*
X052411Y017092D01*
X052508Y017092D02*
X052605Y016995D01*
X052706Y017043D02*
X052754Y016995D01*
X052851Y016995D01*
X052899Y017043D01*
X052899Y017092D01*
X052851Y017140D01*
X052802Y017140D01*
X052851Y017140D02*
X052899Y017188D01*
X052899Y017237D01*
X052851Y017285D01*
X052754Y017285D01*
X052706Y017237D01*
X053000Y017237D02*
X053049Y017285D01*
X053145Y017285D01*
X053194Y017237D01*
X053194Y017188D01*
X053145Y017140D01*
X053194Y017092D01*
X053194Y017043D01*
X053145Y016995D01*
X053049Y016995D01*
X053000Y017043D01*
X053097Y017140D02*
X053145Y017140D01*
X052411Y016995D02*
X052411Y017285D01*
X054161Y017285D02*
X054306Y017285D01*
X054355Y017237D01*
X054355Y017140D01*
X054306Y017092D01*
X054161Y017092D01*
X054258Y017092D02*
X054355Y016995D01*
X054456Y017043D02*
X054504Y016995D01*
X054601Y016995D01*
X054649Y017043D01*
X054649Y017092D01*
X054601Y017140D01*
X054552Y017140D01*
X054601Y017140D02*
X054649Y017188D01*
X054649Y017237D01*
X054601Y017285D01*
X054504Y017285D01*
X054456Y017237D01*
X054750Y017237D02*
X054799Y017285D01*
X054895Y017285D01*
X054944Y017237D01*
X054750Y017043D01*
X054799Y016995D01*
X054895Y016995D01*
X054944Y017043D01*
X054944Y017237D01*
X054750Y017237D02*
X054750Y017043D01*
X054161Y016995D02*
X054161Y017285D01*
X055911Y017285D02*
X056056Y017285D01*
X056105Y017237D01*
X056105Y017140D01*
X056056Y017092D01*
X055911Y017092D01*
X056008Y017092D02*
X056105Y016995D01*
X056206Y016995D02*
X056399Y017188D01*
X056399Y017237D01*
X056351Y017285D01*
X056254Y017285D01*
X056206Y017237D01*
X056206Y016995D02*
X056399Y016995D01*
X056500Y016995D02*
X056500Y017043D01*
X056694Y017237D01*
X056694Y017285D01*
X056500Y017285D01*
X055911Y017285D02*
X055911Y016995D01*
X057461Y016995D02*
X057461Y017285D01*
X057606Y017285D01*
X057655Y017237D01*
X057655Y017140D01*
X057606Y017092D01*
X057461Y017092D01*
X057558Y017092D02*
X057655Y016995D01*
X057756Y016995D02*
X057949Y017188D01*
X057949Y017237D01*
X057901Y017285D01*
X057804Y017285D01*
X057756Y017237D01*
X057756Y016995D02*
X057949Y016995D01*
X058050Y017140D02*
X058244Y017140D01*
X058195Y016995D02*
X058195Y017285D01*
X058050Y017140D01*
X058825Y016349D02*
X058970Y016204D01*
X058970Y016398D01*
X059115Y016349D02*
X058825Y016349D01*
X059115Y016103D02*
X059115Y015910D01*
X059115Y016006D02*
X058825Y016006D01*
X058922Y015910D01*
X058873Y015808D02*
X058825Y015760D01*
X058825Y015663D01*
X058873Y015615D01*
X059067Y015615D01*
X059115Y015663D01*
X059115Y015760D01*
X059067Y015808D01*
X059087Y014614D02*
X059135Y014565D01*
X059135Y014469D01*
X059087Y014420D01*
X059135Y014319D02*
X059135Y014126D01*
X059135Y014222D02*
X058845Y014222D01*
X058942Y014126D01*
X058893Y014025D02*
X058845Y013976D01*
X058845Y013879D01*
X058893Y013831D01*
X059087Y013831D01*
X059135Y013879D01*
X059135Y013976D01*
X059087Y014025D01*
X058893Y014420D02*
X058845Y014469D01*
X058845Y014565D01*
X058893Y014614D01*
X058942Y014614D01*
X058990Y014565D01*
X059038Y014614D01*
X059087Y014614D01*
X058990Y014565D02*
X058990Y014517D01*
X054894Y012862D02*
X054797Y012813D01*
X054700Y012716D01*
X054845Y012716D01*
X054894Y012668D01*
X054894Y012620D01*
X054845Y012571D01*
X054749Y012571D01*
X054700Y012620D01*
X054700Y012716D01*
X054599Y012620D02*
X054599Y012813D01*
X054551Y012862D01*
X054406Y012862D01*
X054406Y012571D01*
X054551Y012571D01*
X054599Y012620D01*
X053878Y012658D02*
X053684Y012465D01*
X053878Y012465D01*
X053878Y012658D02*
X053878Y012707D01*
X053829Y012755D01*
X053733Y012755D01*
X053684Y012707D01*
X053486Y012755D02*
X053486Y012465D01*
X053390Y012465D02*
X053583Y012465D01*
X053390Y012658D02*
X053486Y012755D01*
X053288Y012707D02*
X053240Y012755D01*
X053143Y012755D01*
X053095Y012707D01*
X053095Y012513D01*
X053143Y012465D01*
X053240Y012465D01*
X053288Y012513D01*
X052665Y012544D02*
X052665Y012297D01*
X052418Y012544D01*
X052356Y012544D01*
X052295Y012482D01*
X052295Y012358D01*
X052356Y012297D01*
X052295Y012052D02*
X052665Y012052D01*
X052665Y012175D02*
X052665Y011928D01*
X052665Y011807D02*
X052542Y011683D01*
X052542Y011745D02*
X052542Y011560D01*
X052665Y011560D02*
X052295Y011560D01*
X052295Y011745D01*
X052356Y011807D01*
X052480Y011807D01*
X052542Y011745D01*
X052418Y011928D02*
X052295Y012052D01*
X053806Y011437D02*
X053806Y011243D01*
X053854Y011195D01*
X053951Y011195D01*
X053999Y011243D01*
X054100Y011243D02*
X054149Y011195D01*
X054245Y011195D01*
X054294Y011243D01*
X054294Y011292D01*
X054245Y011340D01*
X054149Y011340D01*
X054100Y011388D01*
X054100Y011437D01*
X054149Y011485D01*
X054245Y011485D01*
X054294Y011437D01*
X054294Y011388D01*
X054245Y011340D01*
X054149Y011340D02*
X054100Y011292D01*
X054100Y011243D01*
X053999Y011437D02*
X053951Y011485D01*
X053854Y011485D01*
X053806Y011437D01*
X051135Y010220D02*
X051087Y010220D01*
X050893Y010414D01*
X050845Y010414D01*
X050845Y010220D01*
X050893Y010119D02*
X050845Y010071D01*
X050845Y009974D01*
X050893Y009926D01*
X051087Y009926D01*
X051135Y009974D01*
X051135Y010071D01*
X051087Y010119D01*
X049130Y010972D02*
X049130Y011262D01*
X048985Y011117D01*
X049179Y011117D01*
X048884Y011020D02*
X048884Y011214D01*
X048836Y011262D01*
X048691Y011262D01*
X048691Y010972D01*
X048836Y010972D01*
X048884Y011020D01*
X049521Y012146D02*
X049618Y012146D01*
X049666Y012195D01*
X049666Y012437D01*
X049767Y012388D02*
X049816Y012437D01*
X049912Y012437D01*
X049961Y012388D01*
X049961Y012340D01*
X049912Y012292D01*
X049961Y012243D01*
X049961Y012195D01*
X049912Y012146D01*
X049816Y012146D01*
X049767Y012195D01*
X049864Y012292D02*
X049912Y012292D01*
X049521Y012146D02*
X049473Y012195D01*
X049473Y012437D01*
X048460Y015365D02*
X048213Y015365D01*
X048092Y015365D02*
X047968Y015488D01*
X047907Y015365D02*
X047845Y015427D01*
X047845Y015674D01*
X047907Y015735D01*
X048030Y015735D01*
X048092Y015674D01*
X048092Y015427D01*
X048030Y015365D01*
X047907Y015365D01*
X048213Y015612D02*
X048337Y015735D01*
X048337Y015365D01*
X049395Y016327D02*
X049456Y016265D01*
X049703Y016265D01*
X049765Y016327D01*
X049765Y016450D01*
X049703Y016512D01*
X049765Y016633D02*
X049765Y016880D01*
X049765Y016757D02*
X049395Y016757D01*
X049518Y016633D01*
X049456Y016512D02*
X049395Y016450D01*
X049395Y016327D01*
X049395Y017002D02*
X049580Y017002D01*
X049518Y017125D01*
X049518Y017187D01*
X049580Y017249D01*
X049703Y017249D01*
X049765Y017187D01*
X049765Y017063D01*
X049703Y017002D01*
X049395Y017002D02*
X049395Y017249D01*
X049556Y018560D02*
X049803Y018560D01*
X049865Y018622D01*
X049865Y018745D01*
X049803Y018807D01*
X049865Y018928D02*
X049865Y019175D01*
X049865Y019052D02*
X049495Y019052D01*
X049618Y018928D01*
X049556Y018807D02*
X049495Y018745D01*
X049495Y018622D01*
X049556Y018560D01*
X050945Y018610D02*
X051138Y018610D01*
X051240Y018610D02*
X051336Y018658D01*
X051385Y018658D01*
X051433Y018610D01*
X051433Y018513D01*
X051385Y018465D01*
X051288Y018465D01*
X051240Y018513D01*
X051240Y018610D02*
X051240Y018755D01*
X051433Y018755D01*
X051534Y018755D02*
X051534Y018562D01*
X051631Y018465D01*
X051728Y018562D01*
X051728Y018755D01*
X052411Y018945D02*
X052411Y019235D01*
X052556Y019235D01*
X052605Y019187D01*
X052605Y019090D01*
X052556Y019042D01*
X052411Y019042D01*
X052508Y019042D02*
X052605Y018945D01*
X052706Y018993D02*
X052754Y018945D01*
X052851Y018945D01*
X052899Y018993D01*
X052899Y019042D01*
X052851Y019090D01*
X052802Y019090D01*
X052851Y019090D02*
X052899Y019138D01*
X052899Y019187D01*
X052851Y019235D01*
X052754Y019235D01*
X052706Y019187D01*
X053000Y019235D02*
X053000Y019090D01*
X053097Y019138D01*
X053145Y019138D01*
X053194Y019090D01*
X053194Y018993D01*
X053145Y018945D01*
X053049Y018945D01*
X053000Y018993D01*
X053000Y019235D02*
X053194Y019235D01*
X054161Y019235D02*
X054161Y018945D01*
X054161Y019042D02*
X054306Y019042D01*
X054355Y019090D01*
X054355Y019187D01*
X054306Y019235D01*
X054161Y019235D01*
X054258Y019042D02*
X054355Y018945D01*
X054456Y018993D02*
X054504Y018945D01*
X054601Y018945D01*
X054649Y018993D01*
X054649Y019042D01*
X054601Y019090D01*
X054552Y019090D01*
X054601Y019090D02*
X054649Y019138D01*
X054649Y019187D01*
X054601Y019235D01*
X054504Y019235D01*
X054456Y019187D01*
X054750Y019187D02*
X054799Y019235D01*
X054895Y019235D01*
X054944Y019187D01*
X054944Y019138D01*
X054750Y018945D01*
X054944Y018945D01*
X055911Y018945D02*
X055911Y019235D01*
X056056Y019235D01*
X056105Y019187D01*
X056105Y019090D01*
X056056Y019042D01*
X055911Y019042D01*
X056008Y019042D02*
X056105Y018945D01*
X056206Y018945D02*
X056399Y019138D01*
X056399Y019187D01*
X056351Y019235D01*
X056254Y019235D01*
X056206Y019187D01*
X056206Y018945D02*
X056399Y018945D01*
X056500Y018993D02*
X056549Y018945D01*
X056645Y018945D01*
X056694Y018993D01*
X056694Y019187D01*
X056645Y019235D01*
X056549Y019235D01*
X056500Y019187D01*
X056500Y019138D01*
X056549Y019090D01*
X056694Y019090D01*
X056635Y020165D02*
X056635Y020455D01*
X056490Y020310D01*
X054835Y020165D02*
X054835Y020455D01*
X054690Y020310D01*
X054395Y020165D02*
X054395Y020455D01*
X051922Y019705D02*
X051729Y019705D01*
X051826Y019705D02*
X051826Y019415D01*
X051628Y019415D02*
X051628Y019608D01*
X051531Y019705D01*
X051434Y019608D01*
X051434Y019415D01*
X051333Y019463D02*
X051285Y019415D01*
X051140Y019415D01*
X051140Y019705D01*
X051285Y019705D01*
X051333Y019657D01*
X051333Y019608D01*
X051285Y019560D01*
X051140Y019560D01*
X051038Y019512D02*
X051038Y019705D01*
X050845Y019705D02*
X050845Y019512D01*
X050942Y019415D01*
X051038Y019512D01*
X051285Y019560D02*
X051333Y019512D01*
X051333Y019463D01*
X051434Y019560D02*
X051628Y019560D01*
X051042Y018707D02*
X051042Y018513D01*
X049865Y019358D02*
X049865Y019482D01*
X049803Y019544D01*
X049742Y019544D01*
X049680Y019482D01*
X049680Y019297D01*
X049803Y019297D01*
X049865Y019358D01*
X049680Y019297D02*
X049556Y019420D01*
X049495Y019544D01*
X045735Y022879D02*
X045735Y022976D01*
X045687Y023025D01*
X045735Y023126D02*
X045542Y023319D01*
X045493Y023319D01*
X045445Y023271D01*
X045445Y023174D01*
X045493Y023126D01*
X045493Y023025D02*
X045445Y022976D01*
X045445Y022879D01*
X045493Y022831D01*
X045687Y022831D01*
X045735Y022879D01*
X045735Y023126D02*
X045735Y023319D01*
X045687Y023420D02*
X045493Y023614D01*
X045687Y023614D01*
X045735Y023565D01*
X045735Y023469D01*
X045687Y023420D01*
X045493Y023420D01*
X045445Y023469D01*
X045445Y023565D01*
X045493Y023614D01*
X038035Y019715D02*
X037987Y019764D01*
X037938Y019764D01*
X037890Y019715D01*
X037890Y019570D01*
X037987Y019570D01*
X038035Y019619D01*
X038035Y019715D01*
X037890Y019570D02*
X037793Y019667D01*
X037745Y019764D01*
X037793Y019469D02*
X037745Y019421D01*
X037745Y019324D01*
X037793Y019276D01*
X037987Y019276D01*
X038035Y019324D01*
X038035Y019421D01*
X037987Y019469D01*
X036729Y018155D02*
X036778Y018107D01*
X036584Y017913D01*
X036633Y017865D01*
X036729Y017865D01*
X036778Y017913D01*
X036778Y018107D01*
X036729Y018155D02*
X036633Y018155D01*
X036584Y018107D01*
X036584Y017913D01*
X036483Y017865D02*
X036290Y017865D01*
X036386Y017865D02*
X036386Y018155D01*
X036290Y018058D01*
X036188Y018010D02*
X036140Y017962D01*
X035995Y017962D01*
X036092Y017962D02*
X036188Y017865D01*
X036188Y018010D02*
X036188Y018107D01*
X036140Y018155D01*
X035995Y018155D01*
X035995Y017865D01*
X034715Y017496D02*
X034425Y017496D01*
X034570Y017351D01*
X034570Y017544D01*
X034667Y017250D02*
X034473Y017250D01*
X034425Y017201D01*
X034425Y017056D01*
X034715Y017056D01*
X034715Y017201D01*
X034667Y017250D01*
X034715Y016956D02*
X034715Y016860D01*
X034715Y016908D02*
X034425Y016908D01*
X034425Y016860D02*
X034425Y016956D01*
X034425Y016758D02*
X034425Y016565D01*
X034715Y016565D01*
X034570Y016565D02*
X034570Y016662D01*
X034624Y015435D02*
X034769Y015435D01*
X034817Y015387D01*
X034817Y015290D01*
X034769Y015242D01*
X034624Y015242D01*
X034624Y015145D02*
X034624Y015435D01*
X034918Y015290D02*
X034918Y015193D01*
X034967Y015145D01*
X035063Y015145D01*
X035112Y015193D01*
X035112Y015290D01*
X035063Y015338D01*
X034967Y015338D01*
X034918Y015290D01*
X035213Y015338D02*
X035213Y015193D01*
X035261Y015145D01*
X035310Y015193D01*
X035358Y015145D01*
X035406Y015193D01*
X035406Y015338D01*
X035508Y015290D02*
X035556Y015338D01*
X035653Y015338D01*
X035701Y015290D01*
X035701Y015242D01*
X035508Y015242D01*
X035508Y015290D02*
X035508Y015193D01*
X035556Y015145D01*
X035653Y015145D01*
X035802Y015145D02*
X035802Y015338D01*
X035802Y015242D02*
X035899Y015338D01*
X035947Y015338D01*
X036342Y015338D02*
X036342Y015387D01*
X036391Y015435D01*
X036488Y015435D01*
X036536Y015387D01*
X036488Y015290D02*
X036536Y015242D01*
X036536Y015193D01*
X036488Y015145D01*
X036391Y015145D01*
X036342Y015193D01*
X036391Y015290D02*
X036488Y015290D01*
X036391Y015290D02*
X036342Y015338D01*
X036637Y015338D02*
X036637Y015193D01*
X036685Y015145D01*
X036734Y015193D01*
X036782Y015145D01*
X036831Y015193D01*
X036831Y015338D01*
X036932Y015338D02*
X036980Y015338D01*
X036980Y015145D01*
X036932Y015145D02*
X037028Y015145D01*
X037177Y015193D02*
X037225Y015145D01*
X037177Y015193D02*
X037177Y015387D01*
X037225Y015338D02*
X037128Y015338D01*
X036980Y015435D02*
X036980Y015484D01*
X037325Y015290D02*
X037325Y015193D01*
X037373Y015145D01*
X037518Y015145D01*
X037619Y015145D02*
X037619Y015435D01*
X037668Y015338D02*
X037764Y015338D01*
X037813Y015290D01*
X037813Y015145D01*
X037668Y015338D02*
X037619Y015290D01*
X037518Y015338D02*
X037373Y015338D01*
X037325Y015290D01*
X035112Y014858D02*
X034967Y014858D01*
X034918Y014810D01*
X034967Y014762D01*
X035063Y014762D01*
X035112Y014713D01*
X035063Y014665D01*
X034918Y014665D01*
X034817Y014713D02*
X034769Y014762D01*
X034672Y014762D01*
X034624Y014810D01*
X034672Y014858D01*
X034817Y014858D01*
X034817Y014713D02*
X034769Y014665D01*
X034624Y014665D01*
X034522Y014665D02*
X034377Y014665D01*
X034329Y014713D01*
X034377Y014762D01*
X034522Y014762D01*
X034522Y014810D02*
X034522Y014665D01*
X034522Y014810D02*
X034474Y014858D01*
X034377Y014858D01*
X034228Y014810D02*
X034228Y014713D01*
X034179Y014665D01*
X034034Y014665D01*
X034034Y014568D02*
X034034Y014858D01*
X034179Y014858D01*
X034228Y014810D01*
X033933Y014858D02*
X033933Y014617D01*
X033885Y014568D01*
X033836Y014568D01*
X033788Y014665D02*
X033933Y014665D01*
X033788Y014665D02*
X033740Y014713D01*
X033740Y014858D01*
X033638Y014858D02*
X033590Y014810D01*
X033445Y014810D01*
X033445Y014665D02*
X033445Y014955D01*
X033590Y014955D01*
X033638Y014907D01*
X033638Y014858D01*
X033590Y014810D02*
X033638Y014762D01*
X033638Y014713D01*
X033590Y014665D01*
X033445Y014665D01*
X033445Y015145D02*
X033638Y015145D01*
X033740Y015193D02*
X033788Y015145D01*
X033885Y015145D01*
X033933Y015193D01*
X033933Y015242D01*
X033885Y015290D01*
X033788Y015290D01*
X033740Y015338D01*
X033740Y015387D01*
X033788Y015435D01*
X033885Y015435D01*
X033933Y015387D01*
X034034Y015387D02*
X034034Y015193D01*
X034083Y015145D01*
X034179Y015145D01*
X034228Y015193D01*
X034228Y015387D02*
X034179Y015435D01*
X034083Y015435D01*
X034034Y015387D01*
X033638Y015435D02*
X033445Y015435D01*
X033445Y015145D01*
X033445Y015290D02*
X033542Y015290D01*
X033117Y013853D02*
X033165Y013805D01*
X033165Y013708D01*
X033117Y013660D01*
X033020Y013660D02*
X032972Y013756D01*
X032972Y013805D01*
X033020Y013853D01*
X033117Y013853D01*
X033020Y013660D02*
X032875Y013660D01*
X032875Y013853D01*
X032923Y013558D02*
X033020Y013558D01*
X033068Y013510D01*
X033068Y013365D01*
X033068Y013462D02*
X033165Y013558D01*
X033165Y013365D02*
X032875Y013365D01*
X032875Y013510D01*
X032923Y013558D01*
X032943Y012064D02*
X033137Y011870D01*
X033185Y011870D01*
X033185Y011769D02*
X033088Y011672D01*
X033088Y011721D02*
X033088Y011576D01*
X033185Y011576D02*
X032895Y011576D01*
X032895Y011721D01*
X032943Y011769D01*
X033040Y011769D01*
X033088Y011721D01*
X032895Y011870D02*
X032895Y012064D01*
X032943Y012064D01*
X030594Y012037D02*
X030545Y012085D01*
X030449Y012085D01*
X030400Y012037D01*
X030299Y012037D02*
X030299Y011843D01*
X030251Y011795D01*
X030154Y011795D01*
X030106Y011843D01*
X030106Y012037D01*
X030154Y012085D01*
X030251Y012085D01*
X030299Y012037D01*
X030202Y011892D02*
X030299Y011795D01*
X030400Y011795D02*
X030594Y011988D01*
X030594Y012037D01*
X030594Y011795D02*
X030400Y011795D01*
X029729Y011565D02*
X029482Y011565D01*
X029605Y011565D02*
X029605Y011935D01*
X029482Y011812D01*
X029360Y011812D02*
X029298Y011750D01*
X029113Y011750D01*
X029113Y011565D02*
X029298Y011565D01*
X029360Y011627D01*
X029360Y011688D01*
X029298Y011750D01*
X029360Y011812D02*
X029360Y011874D01*
X029298Y011935D01*
X029113Y011935D01*
X029113Y011565D01*
X028868Y011750D02*
X028745Y011750D01*
X028745Y011565D02*
X028745Y011935D01*
X028992Y011935D01*
X029195Y012265D02*
X029195Y012555D01*
X029340Y012555D01*
X029388Y012507D01*
X029388Y012410D01*
X029340Y012362D01*
X029195Y012362D01*
X029292Y012362D02*
X029388Y012265D01*
X029490Y012313D02*
X029538Y012265D01*
X029635Y012265D01*
X029683Y012313D01*
X029683Y012362D01*
X029635Y012410D01*
X029490Y012410D01*
X029490Y012313D01*
X029490Y012410D02*
X029586Y012507D01*
X029683Y012555D01*
X027792Y012930D02*
X027792Y013075D01*
X027744Y013124D01*
X027550Y013124D01*
X027502Y013075D01*
X027502Y012930D01*
X027792Y012930D01*
X027744Y013225D02*
X027792Y013273D01*
X027792Y013370D01*
X027744Y013418D01*
X027647Y013418D01*
X027599Y013370D01*
X027599Y013321D01*
X027647Y013225D01*
X027502Y013225D01*
X027502Y013418D01*
X027488Y014215D02*
X027427Y014277D01*
X027488Y014215D02*
X027612Y014215D01*
X027674Y014277D01*
X027674Y014338D01*
X027612Y014400D01*
X027550Y014400D01*
X027612Y014400D02*
X027674Y014462D01*
X027674Y014524D01*
X027612Y014585D01*
X027488Y014585D01*
X027427Y014524D01*
X027305Y014524D02*
X027305Y014277D01*
X027244Y014215D01*
X027120Y014215D01*
X027058Y014277D01*
X027058Y014524D01*
X027120Y014585D01*
X027244Y014585D01*
X027305Y014524D01*
X027182Y014338D02*
X027305Y014215D01*
X025565Y013248D02*
X025565Y013054D01*
X025372Y013248D01*
X025323Y013248D01*
X025275Y013199D01*
X025275Y013103D01*
X025323Y013054D01*
X025323Y012953D02*
X025372Y012953D01*
X025420Y012905D01*
X025468Y012953D01*
X025517Y012953D01*
X025565Y012905D01*
X025565Y012808D01*
X025517Y012760D01*
X025517Y012658D02*
X025565Y012610D01*
X025565Y012513D01*
X025517Y012465D01*
X025323Y012465D01*
X025275Y012513D01*
X025275Y012610D01*
X025323Y012658D01*
X025323Y012760D02*
X025275Y012808D01*
X025275Y012905D01*
X025323Y012953D01*
X025420Y012905D02*
X025420Y012856D01*
X022755Y012688D02*
X022562Y012495D01*
X022610Y012446D01*
X022707Y012446D01*
X022755Y012495D01*
X022755Y012688D01*
X022707Y012737D01*
X022610Y012737D01*
X022562Y012688D01*
X022562Y012495D01*
X022461Y012446D02*
X022267Y012446D01*
X022364Y012446D02*
X022364Y012737D01*
X022267Y012640D01*
X022166Y012737D02*
X022166Y012495D01*
X022118Y012446D01*
X022021Y012446D01*
X021973Y012495D01*
X021973Y012737D01*
X021925Y011235D02*
X021987Y011174D01*
X021987Y011050D01*
X021925Y010988D01*
X021740Y010988D01*
X021740Y010865D02*
X021740Y011235D01*
X021925Y011235D01*
X021863Y010988D02*
X021987Y010865D01*
X022108Y010927D02*
X022170Y010865D01*
X022294Y010865D01*
X022355Y010927D01*
X022355Y010988D01*
X022294Y011050D01*
X022108Y011050D01*
X022108Y010927D01*
X022108Y011050D02*
X022232Y011174D01*
X022355Y011235D01*
X022477Y011112D02*
X022600Y011235D01*
X022600Y010865D01*
X022477Y010865D02*
X022724Y010865D01*
X022714Y009787D02*
X022714Y009496D01*
X022617Y009496D02*
X022811Y009496D01*
X022912Y009496D02*
X023105Y009496D01*
X023009Y009496D02*
X023009Y009787D01*
X022912Y009690D01*
X022714Y009787D02*
X022617Y009690D01*
X022516Y009787D02*
X022516Y009545D01*
X022468Y009496D01*
X022371Y009496D01*
X022323Y009545D01*
X022323Y009787D01*
X022356Y008535D02*
X022259Y008535D01*
X022211Y008487D01*
X022211Y008293D01*
X022259Y008245D01*
X022356Y008245D01*
X022405Y008293D01*
X022506Y008293D02*
X022554Y008245D01*
X022651Y008245D01*
X022699Y008293D01*
X022699Y008342D01*
X022651Y008390D01*
X022602Y008390D01*
X022651Y008390D02*
X022699Y008438D01*
X022699Y008487D01*
X022651Y008535D01*
X022554Y008535D01*
X022506Y008487D01*
X022405Y008487D02*
X022356Y008535D01*
X022800Y008487D02*
X022849Y008535D01*
X022945Y008535D01*
X022994Y008487D01*
X022994Y008438D01*
X022945Y008390D01*
X022994Y008342D01*
X022994Y008293D01*
X022945Y008245D01*
X022849Y008245D01*
X022800Y008293D01*
X022897Y008390D02*
X022945Y008390D01*
X029245Y009224D02*
X029293Y009176D01*
X029487Y009176D01*
X029535Y009224D01*
X029535Y009321D01*
X029487Y009369D01*
X029487Y009470D02*
X029535Y009519D01*
X029535Y009615D01*
X029487Y009664D01*
X029390Y009664D01*
X029342Y009615D01*
X029342Y009567D01*
X029390Y009470D01*
X029245Y009470D01*
X029245Y009664D01*
X029293Y009369D02*
X029245Y009321D01*
X029245Y009224D01*
X031125Y009565D02*
X031125Y009710D01*
X031173Y009758D01*
X031270Y009758D01*
X031318Y009710D01*
X031318Y009565D01*
X031318Y009662D02*
X031415Y009758D01*
X031367Y009860D02*
X031415Y009908D01*
X031415Y010005D01*
X031367Y010053D01*
X031318Y010053D01*
X031270Y010005D01*
X031270Y009956D01*
X031270Y010005D02*
X031222Y010053D01*
X031173Y010053D01*
X031125Y010005D01*
X031125Y009908D01*
X031173Y009860D01*
X031125Y009565D02*
X031415Y009565D01*
X033845Y005205D02*
X033990Y005205D01*
X034038Y005157D01*
X034038Y005060D01*
X033990Y005012D01*
X033845Y005012D01*
X033942Y005012D02*
X034038Y004915D01*
X034140Y004963D02*
X034188Y004915D01*
X034285Y004915D01*
X034333Y004963D01*
X034333Y005060D01*
X034285Y005108D01*
X034236Y005108D01*
X034140Y005060D01*
X034140Y005205D01*
X034333Y005205D01*
X034434Y005157D02*
X034483Y005205D01*
X034579Y005205D01*
X034628Y005157D01*
X034628Y005108D01*
X034579Y005060D01*
X034628Y005012D01*
X034628Y004963D01*
X034579Y004915D01*
X034483Y004915D01*
X034434Y004963D01*
X034531Y005060D02*
X034579Y005060D01*
X033845Y004915D02*
X033845Y005205D01*
X032465Y004599D02*
X032175Y004599D01*
X032320Y004454D01*
X032320Y004648D01*
X032320Y004353D02*
X032417Y004353D01*
X032465Y004305D01*
X032465Y004208D01*
X032417Y004160D01*
X032320Y004160D02*
X032272Y004256D01*
X032272Y004305D01*
X032320Y004353D01*
X032175Y004353D02*
X032175Y004160D01*
X032320Y004160D01*
X032320Y004058D02*
X032368Y004010D01*
X032368Y003865D01*
X032368Y003962D02*
X032465Y004058D01*
X032320Y004058D02*
X032223Y004058D01*
X032175Y004010D01*
X032175Y003865D01*
X032465Y003865D01*
X032515Y003498D02*
X032515Y003304D01*
X032515Y003401D02*
X032225Y003401D01*
X032322Y003304D01*
X032370Y003203D02*
X032418Y003155D01*
X032418Y003010D01*
X032515Y003010D02*
X032225Y003010D01*
X032225Y003155D01*
X032273Y003203D01*
X032370Y003203D01*
X032225Y002908D02*
X032225Y002715D01*
X032225Y002812D02*
X032515Y002812D01*
X030829Y001524D02*
X030767Y001585D01*
X030643Y001585D01*
X030582Y001524D01*
X030582Y001277D01*
X030643Y001215D01*
X030767Y001215D01*
X030829Y001277D01*
X030460Y001215D02*
X030213Y001215D01*
X030213Y001585D01*
X030460Y001585D01*
X030337Y001400D02*
X030213Y001400D01*
X030092Y001338D02*
X030092Y001277D01*
X030030Y001215D01*
X029845Y001215D01*
X029845Y001585D01*
X030030Y001585D01*
X030092Y001524D01*
X030092Y001462D01*
X030030Y001400D01*
X029845Y001400D01*
X030030Y001400D02*
X030092Y001338D01*
X030030Y000985D02*
X030092Y000924D01*
X030092Y000800D01*
X030030Y000738D01*
X029845Y000738D01*
X029845Y000615D02*
X029845Y000985D01*
X030030Y000985D01*
X030213Y000800D02*
X030213Y000677D01*
X030275Y000615D01*
X030398Y000615D01*
X030460Y000677D01*
X030460Y000800D01*
X030398Y000862D01*
X030275Y000862D01*
X030213Y000800D01*
X030582Y000862D02*
X030582Y000677D01*
X030643Y000615D01*
X030705Y000677D01*
X030767Y000615D01*
X030829Y000677D01*
X030829Y000862D01*
X030950Y000800D02*
X031012Y000862D01*
X031135Y000862D01*
X031197Y000800D01*
X031197Y000738D01*
X030950Y000738D01*
X030950Y000677D02*
X030950Y000800D01*
X030950Y000677D02*
X031012Y000615D01*
X031135Y000615D01*
X031318Y000615D02*
X031318Y000862D01*
X031318Y000738D02*
X031442Y000862D01*
X031503Y000862D01*
X032445Y000965D02*
X032445Y001255D01*
X032590Y001255D01*
X032638Y001207D01*
X032638Y001110D01*
X032590Y001062D01*
X032445Y001062D01*
X032542Y001062D02*
X032638Y000965D01*
X032740Y001013D02*
X032788Y000965D01*
X032885Y000965D01*
X032933Y001013D01*
X032933Y001110D01*
X032885Y001158D01*
X032836Y001158D01*
X032740Y001110D01*
X032740Y001255D01*
X032933Y001255D01*
X033034Y001207D02*
X033083Y001255D01*
X033179Y001255D01*
X033228Y001207D01*
X033228Y001158D01*
X033034Y000965D01*
X033228Y000965D01*
X034045Y000957D02*
X034045Y000763D01*
X034093Y000715D01*
X034190Y000715D01*
X034238Y000763D01*
X034340Y000715D02*
X034533Y000908D01*
X034533Y000957D01*
X034485Y001005D01*
X034388Y001005D01*
X034340Y000957D01*
X034238Y000957D02*
X034190Y001005D01*
X034093Y001005D01*
X034045Y000957D01*
X034340Y000715D02*
X034533Y000715D01*
X034634Y000763D02*
X034683Y000715D01*
X034779Y000715D01*
X034828Y000763D01*
X034828Y000957D01*
X034779Y001005D01*
X034683Y001005D01*
X034634Y000957D01*
X034634Y000908D01*
X034683Y000860D01*
X034828Y000860D01*
X036725Y001615D02*
X036725Y001760D01*
X036773Y001808D01*
X036870Y001808D01*
X036918Y001760D01*
X036918Y001615D01*
X036918Y001712D02*
X037015Y001808D01*
X036967Y001910D02*
X037015Y001958D01*
X037015Y002055D01*
X036967Y002103D01*
X036870Y002103D01*
X036822Y002055D01*
X036822Y002006D01*
X036870Y001910D01*
X036725Y001910D01*
X036725Y002103D01*
X036773Y002204D02*
X036725Y002253D01*
X036725Y002349D01*
X036773Y002398D01*
X036967Y002204D01*
X037015Y002253D01*
X037015Y002349D01*
X036967Y002398D01*
X036773Y002398D01*
X036773Y002204D02*
X036967Y002204D01*
X037015Y001615D02*
X036725Y001615D01*
X038495Y001565D02*
X038495Y001469D01*
X038543Y001420D01*
X038592Y001420D01*
X038640Y001469D01*
X038640Y001614D01*
X038737Y001614D02*
X038543Y001614D01*
X038495Y001565D01*
X038737Y001614D02*
X038785Y001565D01*
X038785Y001469D01*
X038737Y001420D01*
X038640Y001319D02*
X038640Y001126D01*
X038495Y001271D01*
X038785Y001271D01*
X038785Y001025D02*
X038688Y000928D01*
X038688Y000976D02*
X038688Y000831D01*
X038785Y000831D02*
X038495Y000831D01*
X038495Y000976D01*
X038543Y001025D01*
X038640Y001025D01*
X038688Y000976D01*
X042545Y000985D02*
X042545Y000665D01*
X042545Y000772D02*
X042705Y000772D01*
X042759Y000825D01*
X042759Y000932D01*
X042705Y000985D01*
X042545Y000985D01*
X042867Y000985D02*
X042867Y000665D01*
X042974Y000772D01*
X043081Y000665D01*
X043081Y000985D01*
X043190Y000985D02*
X043350Y000985D01*
X043403Y000932D01*
X043403Y000825D01*
X043350Y000772D01*
X043190Y000772D01*
X043296Y000772D02*
X043403Y000665D01*
X043190Y000665D02*
X043190Y000985D01*
X043295Y001586D02*
X043585Y001586D01*
X043585Y001780D01*
X043585Y001881D02*
X043585Y002075D01*
X043585Y002176D02*
X043585Y002321D01*
X043537Y002369D01*
X043343Y002369D01*
X043295Y002321D01*
X043295Y002176D01*
X043585Y002176D01*
X043440Y001978D02*
X043440Y001881D01*
X043295Y001881D02*
X043585Y001881D01*
X043295Y001881D02*
X043295Y002075D01*
X043392Y002470D02*
X043295Y002567D01*
X043585Y002567D01*
X043585Y002470D02*
X043585Y002664D01*
X043638Y002981D02*
X043638Y003126D01*
X043590Y003175D01*
X043493Y003175D01*
X043445Y003126D01*
X043445Y002981D01*
X043735Y002981D01*
X043638Y003078D02*
X043735Y003175D01*
X043735Y003276D02*
X043735Y003469D01*
X043735Y003372D02*
X043445Y003372D01*
X043542Y003276D01*
X043542Y003570D02*
X043493Y003570D01*
X043445Y003619D01*
X043445Y003715D01*
X043493Y003764D01*
X043542Y003764D01*
X043590Y003715D01*
X043590Y003619D01*
X043542Y003570D01*
X043590Y003619D02*
X043638Y003570D01*
X043687Y003570D01*
X043735Y003619D01*
X043735Y003715D01*
X043687Y003764D01*
X043638Y003764D01*
X043590Y003715D01*
X044745Y003715D02*
X044793Y003764D01*
X044842Y003764D01*
X044890Y003715D01*
X044938Y003764D01*
X044987Y003764D01*
X045035Y003715D01*
X045035Y003619D01*
X044987Y003570D01*
X045035Y003469D02*
X045035Y003276D01*
X044842Y003469D01*
X044793Y003469D01*
X044745Y003421D01*
X044745Y003324D01*
X044793Y003276D01*
X044793Y003175D02*
X044890Y003175D01*
X044938Y003126D01*
X044938Y002981D01*
X044938Y003078D02*
X045035Y003175D01*
X045035Y002981D02*
X044745Y002981D01*
X044745Y003126D01*
X044793Y003175D01*
X044837Y002614D02*
X044885Y002565D01*
X044885Y002469D01*
X044837Y002420D01*
X044740Y002420D02*
X044692Y002517D01*
X044692Y002565D01*
X044740Y002614D01*
X044837Y002614D01*
X044740Y002420D02*
X044595Y002420D01*
X044595Y002614D01*
X044643Y002319D02*
X044595Y002271D01*
X044595Y002126D01*
X044885Y002126D01*
X044885Y002271D01*
X044837Y002319D01*
X044643Y002319D01*
X044595Y002025D02*
X044595Y001831D01*
X044885Y001831D01*
X044885Y002025D01*
X044740Y001928D02*
X044740Y001831D01*
X044885Y001730D02*
X044885Y001536D01*
X044595Y001536D01*
X044639Y000985D02*
X044532Y000985D01*
X044479Y000932D01*
X044585Y000825D02*
X044639Y000825D01*
X044692Y000772D01*
X044692Y000718D01*
X044639Y000665D01*
X044532Y000665D01*
X044479Y000718D01*
X044370Y000665D02*
X044156Y000665D01*
X044263Y000665D02*
X044263Y000985D01*
X044156Y000879D01*
X044048Y000932D02*
X043994Y000985D01*
X043834Y000985D01*
X043834Y000665D01*
X043994Y000665D01*
X044048Y000718D01*
X044048Y000932D01*
X044639Y000985D02*
X044692Y000932D01*
X044692Y000879D01*
X044639Y000825D01*
X045123Y000665D02*
X045283Y000665D01*
X045337Y000718D01*
X045337Y000932D01*
X045283Y000985D01*
X045123Y000985D01*
X045123Y000665D01*
X045445Y000825D02*
X045606Y000985D01*
X045606Y000665D01*
X045659Y000825D02*
X045445Y000825D01*
X045768Y000879D02*
X045821Y000825D01*
X045981Y000825D01*
X045981Y000718D02*
X045981Y000932D01*
X045928Y000985D01*
X045821Y000985D01*
X045768Y000932D01*
X045768Y000879D01*
X045768Y000718D02*
X045821Y000665D01*
X045928Y000665D01*
X045981Y000718D01*
X046412Y000665D02*
X046412Y000985D01*
X046572Y000985D01*
X046626Y000932D01*
X046626Y000879D01*
X046572Y000825D01*
X046412Y000825D01*
X046412Y000665D02*
X046572Y000665D01*
X046626Y000718D01*
X046626Y000772D01*
X046572Y000825D01*
X046735Y000985D02*
X046948Y000985D01*
X046841Y000985D02*
X046841Y000665D01*
X047057Y000665D02*
X047270Y000985D01*
X047057Y000985D02*
X047270Y000665D01*
X047701Y000665D02*
X047701Y000985D01*
X047862Y000985D01*
X047915Y000932D01*
X047915Y000879D01*
X047862Y000825D01*
X047701Y000825D01*
X047701Y000665D02*
X047862Y000665D01*
X047915Y000718D01*
X047915Y000772D01*
X047862Y000825D01*
X048024Y000772D02*
X048184Y000772D01*
X048237Y000825D01*
X048237Y000932D01*
X048184Y000985D01*
X048024Y000985D01*
X048024Y000665D01*
X048130Y000772D02*
X048237Y000665D01*
X048346Y000665D02*
X048559Y000985D01*
X048346Y000985D02*
X048559Y000665D01*
X048525Y001465D02*
X048815Y001465D01*
X048815Y001658D01*
X048815Y001760D02*
X048815Y001953D01*
X048815Y002054D02*
X048815Y002199D01*
X048767Y002248D01*
X048573Y002248D01*
X048525Y002199D01*
X048525Y002054D01*
X048815Y002054D01*
X048670Y001856D02*
X048670Y001760D01*
X048525Y001760D02*
X048815Y001760D01*
X048525Y001760D02*
X048525Y001953D01*
X048670Y002349D02*
X048670Y002542D01*
X048815Y002494D02*
X048525Y002494D01*
X048670Y002349D01*
X047565Y002394D02*
X047565Y002297D01*
X047517Y002249D01*
X047517Y002148D02*
X047323Y002148D01*
X047275Y002099D01*
X047275Y001954D01*
X047565Y001954D01*
X047565Y002099D01*
X047517Y002148D01*
X047323Y002249D02*
X047275Y002297D01*
X047275Y002394D01*
X047323Y002442D01*
X047372Y002442D01*
X047420Y002394D01*
X047468Y002442D01*
X047517Y002442D01*
X047565Y002394D01*
X047420Y002394D02*
X047420Y002346D01*
X047565Y001853D02*
X047565Y001660D01*
X047275Y001660D01*
X047275Y001853D01*
X047420Y001756D02*
X047420Y001660D01*
X047565Y001558D02*
X047565Y001365D01*
X047275Y001365D01*
X046185Y001636D02*
X046185Y001830D01*
X046185Y001931D02*
X046185Y002125D01*
X046185Y002226D02*
X046185Y002371D01*
X046137Y002419D01*
X045943Y002419D01*
X045895Y002371D01*
X045895Y002226D01*
X046185Y002226D01*
X046040Y002028D02*
X046040Y001931D01*
X045895Y001931D02*
X046185Y001931D01*
X045895Y001931D02*
X045895Y002125D01*
X045943Y002520D02*
X045895Y002569D01*
X045895Y002665D01*
X045943Y002714D01*
X045992Y002714D01*
X046185Y002520D01*
X046185Y002714D01*
X046188Y003181D02*
X046188Y003326D01*
X046140Y003375D01*
X046043Y003375D01*
X045995Y003326D01*
X045995Y003181D01*
X046285Y003181D01*
X046188Y003278D02*
X046285Y003375D01*
X046285Y003476D02*
X046285Y003669D01*
X046285Y003572D02*
X045995Y003572D01*
X046092Y003476D01*
X046092Y003770D02*
X046140Y003819D01*
X046140Y003964D01*
X046237Y003964D02*
X046043Y003964D01*
X045995Y003915D01*
X045995Y003819D01*
X046043Y003770D01*
X046092Y003770D01*
X046237Y003770D02*
X046285Y003819D01*
X046285Y003915D01*
X046237Y003964D01*
X047375Y003901D02*
X047472Y003804D01*
X047472Y003703D02*
X047423Y003703D01*
X047375Y003655D01*
X047375Y003558D01*
X047423Y003510D01*
X047423Y003408D02*
X047520Y003408D01*
X047568Y003360D01*
X047568Y003215D01*
X047568Y003312D02*
X047665Y003408D01*
X047665Y003510D02*
X047472Y003703D01*
X047665Y003703D02*
X047665Y003510D01*
X047423Y003408D02*
X047375Y003360D01*
X047375Y003215D01*
X047665Y003215D01*
X047665Y003804D02*
X047665Y003998D01*
X047665Y003901D02*
X047375Y003901D01*
X048575Y003853D02*
X048623Y003804D01*
X048575Y003853D02*
X048575Y003949D01*
X048623Y003998D01*
X048672Y003998D01*
X048865Y003804D01*
X048865Y003998D01*
X048865Y003703D02*
X048865Y003510D01*
X048672Y003703D01*
X048623Y003703D01*
X048575Y003655D01*
X048575Y003558D01*
X048623Y003510D01*
X048623Y003408D02*
X048720Y003408D01*
X048768Y003360D01*
X048768Y003215D01*
X048768Y003312D02*
X048865Y003408D01*
X048865Y003215D02*
X048575Y003215D01*
X048575Y003360D01*
X048623Y003408D01*
X050345Y004815D02*
X050345Y005105D01*
X050490Y005105D01*
X050538Y005057D01*
X050538Y004960D01*
X050490Y004912D01*
X050345Y004912D01*
X050442Y004912D02*
X050538Y004815D01*
X050640Y004815D02*
X050833Y005008D01*
X050833Y005057D01*
X050785Y005105D01*
X050688Y005105D01*
X050640Y005057D01*
X050640Y004815D02*
X050833Y004815D01*
X050934Y004863D02*
X051128Y005057D01*
X051128Y004863D01*
X051079Y004815D01*
X050983Y004815D01*
X050934Y004863D01*
X050934Y005057D01*
X050983Y005105D01*
X051079Y005105D01*
X051128Y005057D01*
X053495Y004760D02*
X053543Y004808D01*
X053640Y004808D01*
X053688Y004760D01*
X053688Y004615D01*
X053785Y004615D02*
X053495Y004615D01*
X053495Y004760D01*
X053592Y004910D02*
X053737Y004910D01*
X053785Y004958D01*
X053737Y005006D01*
X053785Y005055D01*
X053737Y005103D01*
X053592Y005103D01*
X053592Y005204D02*
X053785Y005204D01*
X053688Y005204D02*
X053592Y005301D01*
X053592Y005349D01*
X053926Y005253D02*
X053975Y005253D01*
X054072Y005253D02*
X054265Y005253D01*
X054265Y005301D02*
X054265Y005204D01*
X054217Y005103D02*
X054072Y005103D01*
X054072Y005204D02*
X054072Y005253D01*
X054072Y005401D02*
X054072Y005497D01*
X054023Y005449D02*
X054217Y005449D01*
X054265Y005497D01*
X054217Y005597D02*
X054265Y005646D01*
X054265Y005791D01*
X054265Y005892D02*
X053975Y005892D01*
X054072Y005940D02*
X054072Y006037D01*
X054120Y006085D01*
X054265Y006085D01*
X054120Y005892D02*
X054072Y005940D01*
X054072Y005791D02*
X054072Y005646D01*
X054120Y005597D01*
X054217Y005597D01*
X054217Y005103D02*
X054265Y005055D01*
X054217Y005006D01*
X054265Y004958D01*
X054217Y004910D01*
X054072Y004910D01*
X054023Y004808D02*
X053975Y004760D01*
X053975Y004663D01*
X054023Y004615D01*
X054072Y004615D01*
X054120Y004663D01*
X054120Y004760D01*
X054168Y004808D01*
X054217Y004808D01*
X054265Y004760D01*
X054265Y004663D01*
X054217Y004615D01*
X055661Y006395D02*
X055661Y006685D01*
X055806Y006685D01*
X055855Y006637D01*
X055855Y006540D01*
X055806Y006492D01*
X055661Y006492D01*
X055758Y006492D02*
X055855Y006395D01*
X055956Y006395D02*
X056149Y006395D01*
X056052Y006395D02*
X056052Y006685D01*
X055956Y006588D01*
X056250Y006540D02*
X056444Y006540D01*
X056395Y006395D02*
X056395Y006685D01*
X056250Y006540D01*
X055753Y007560D02*
X055815Y007622D01*
X055815Y007745D01*
X055753Y007807D01*
X055815Y007928D02*
X055815Y008175D01*
X055815Y008052D02*
X055445Y008052D01*
X055568Y007928D01*
X055506Y007807D02*
X055445Y007745D01*
X055445Y007622D01*
X055506Y007560D01*
X055753Y007560D01*
X055753Y008297D02*
X055506Y008544D01*
X055753Y008544D01*
X055815Y008482D01*
X055815Y008358D01*
X055753Y008297D01*
X055506Y008297D01*
X055445Y008358D01*
X055445Y008482D01*
X055506Y008544D01*
X053665Y007782D02*
X053665Y007658D01*
X053603Y007597D01*
X053603Y007475D02*
X053665Y007414D01*
X053665Y007290D01*
X053603Y007228D01*
X053356Y007228D01*
X053295Y007290D01*
X053295Y007414D01*
X053356Y007475D01*
X053356Y007597D02*
X053418Y007597D01*
X053480Y007658D01*
X053480Y007844D01*
X053603Y007844D02*
X053356Y007844D01*
X053295Y007782D01*
X053295Y007658D01*
X053356Y007597D01*
X053603Y007844D02*
X053665Y007782D01*
X052874Y007777D02*
X052812Y007715D01*
X052688Y007715D01*
X052627Y007777D01*
X052505Y007777D02*
X052444Y007715D01*
X052320Y007715D01*
X052258Y007777D01*
X052137Y007777D02*
X052075Y007715D01*
X051952Y007715D01*
X051890Y007777D01*
X051890Y008024D01*
X051952Y008085D01*
X052075Y008085D01*
X052137Y008024D01*
X052258Y008024D02*
X052320Y008085D01*
X052444Y008085D01*
X052505Y008024D01*
X052505Y007962D01*
X052444Y007900D01*
X052505Y007838D01*
X052505Y007777D01*
X052444Y007900D02*
X052382Y007900D01*
X052627Y007900D02*
X052750Y007962D01*
X052812Y007962D01*
X052874Y007900D01*
X052874Y007777D01*
X052627Y007900D02*
X052627Y008085D01*
X052874Y008085D01*
X050744Y007987D02*
X050744Y007938D01*
X050695Y007890D01*
X050599Y007890D01*
X050550Y007938D01*
X050550Y007987D01*
X050599Y008035D01*
X050695Y008035D01*
X050744Y007987D01*
X050695Y007890D02*
X050744Y007842D01*
X050744Y007793D01*
X050695Y007745D01*
X050599Y007745D01*
X050550Y007793D01*
X050550Y007842D01*
X050599Y007890D01*
X050449Y007890D02*
X050401Y007842D01*
X050256Y007842D01*
X050352Y007842D02*
X050449Y007745D01*
X050449Y007890D02*
X050449Y007987D01*
X050401Y008035D01*
X050256Y008035D01*
X050256Y007745D01*
X049045Y008845D02*
X049045Y009135D01*
X048900Y008990D01*
X049094Y008990D01*
X048799Y008990D02*
X048751Y008942D01*
X048606Y008942D01*
X048702Y008942D02*
X048799Y008845D01*
X048799Y008990D02*
X048799Y009087D01*
X048751Y009135D01*
X048606Y009135D01*
X048606Y008845D01*
X045563Y007831D02*
X045496Y007899D01*
X045361Y007899D01*
X045294Y007831D01*
X045563Y007831D02*
X045563Y007764D01*
X045294Y007495D01*
X045563Y007495D01*
X044434Y008515D02*
X044434Y008563D01*
X044628Y008757D01*
X044628Y008805D01*
X044434Y008805D01*
X044285Y008805D02*
X044140Y008660D01*
X044333Y008660D01*
X044285Y008515D02*
X044285Y008805D01*
X044038Y008757D02*
X044038Y008660D01*
X043990Y008612D01*
X043845Y008612D01*
X043942Y008612D02*
X044038Y008515D01*
X043845Y008515D02*
X043845Y008805D01*
X043990Y008805D01*
X044038Y008757D01*
X042994Y008737D02*
X042994Y008688D01*
X042945Y008640D01*
X042849Y008640D01*
X042800Y008688D01*
X042800Y008737D01*
X042849Y008785D01*
X042945Y008785D01*
X042994Y008737D01*
X042945Y008640D02*
X042994Y008592D01*
X042994Y008543D01*
X042945Y008495D01*
X042849Y008495D01*
X042800Y008543D01*
X042800Y008592D01*
X042849Y008640D01*
X042699Y008640D02*
X042506Y008640D01*
X042651Y008785D01*
X042651Y008495D01*
X042405Y008495D02*
X042308Y008592D01*
X042356Y008592D02*
X042211Y008592D01*
X042211Y008495D02*
X042211Y008785D01*
X042356Y008785D01*
X042405Y008737D01*
X042405Y008640D01*
X042356Y008592D01*
X041594Y008638D02*
X041594Y008687D01*
X041545Y008735D01*
X041449Y008735D01*
X041400Y008687D01*
X041299Y008735D02*
X041202Y008687D01*
X041106Y008590D01*
X041251Y008590D01*
X041299Y008542D01*
X041299Y008493D01*
X041251Y008445D01*
X041154Y008445D01*
X041106Y008493D01*
X041106Y008590D01*
X041005Y008590D02*
X041005Y008687D01*
X040956Y008735D01*
X040811Y008735D01*
X040811Y008445D01*
X040811Y008542D02*
X040956Y008542D01*
X041005Y008590D01*
X040908Y008542D02*
X041005Y008445D01*
X041400Y008445D02*
X041594Y008638D01*
X041594Y008445D02*
X041400Y008445D01*
X040278Y008513D02*
X040278Y008562D01*
X040229Y008610D01*
X040084Y008610D01*
X040084Y008513D01*
X040133Y008465D01*
X040229Y008465D01*
X040278Y008513D01*
X040181Y008707D02*
X040084Y008610D01*
X039983Y008610D02*
X039790Y008610D01*
X039935Y008755D01*
X039935Y008465D01*
X039688Y008465D02*
X039592Y008562D01*
X039640Y008562D02*
X039495Y008562D01*
X039495Y008465D02*
X039495Y008755D01*
X039640Y008755D01*
X039688Y008707D01*
X039688Y008610D01*
X039640Y008562D01*
X040181Y008707D02*
X040278Y008755D01*
X037731Y005155D02*
X037731Y004865D01*
X037634Y004865D02*
X037828Y004865D01*
X037634Y005058D02*
X037731Y005155D01*
X037533Y005155D02*
X037340Y005155D01*
X037340Y005010D01*
X037436Y005058D01*
X037485Y005058D01*
X037533Y005010D01*
X037533Y004913D01*
X037485Y004865D01*
X037388Y004865D01*
X037340Y004913D01*
X037238Y004865D02*
X037142Y004962D01*
X037190Y004962D02*
X037045Y004962D01*
X037045Y004865D02*
X037045Y005155D01*
X037190Y005155D01*
X037238Y005107D01*
X037238Y005010D01*
X037190Y004962D01*
X044745Y003715D02*
X044745Y003619D01*
X044793Y003570D01*
X044890Y003667D02*
X044890Y003715D01*
X045363Y004912D02*
X045632Y004912D01*
X045498Y004912D02*
X045498Y005315D01*
X045363Y005181D01*
X045895Y001636D02*
X046185Y001636D01*
X057925Y003615D02*
X057925Y003808D01*
X057925Y003910D02*
X057925Y004006D01*
X057925Y003958D02*
X058215Y003958D01*
X058215Y003910D02*
X058215Y004006D01*
X058215Y004106D02*
X058215Y004251D01*
X058167Y004300D01*
X057973Y004300D01*
X057925Y004251D01*
X057925Y004106D01*
X058215Y004106D01*
X058215Y004401D02*
X058022Y004594D01*
X057973Y004594D01*
X057925Y004546D01*
X057925Y004449D01*
X057973Y004401D01*
X058215Y004401D02*
X058215Y004594D01*
X058070Y003712D02*
X058070Y003615D01*
X058215Y003615D02*
X057925Y003615D01*
X057938Y006831D02*
X057938Y006976D01*
X057890Y007025D01*
X057793Y007025D01*
X057745Y006976D01*
X057745Y006831D01*
X058035Y006831D01*
X057938Y006928D02*
X058035Y007025D01*
X058035Y007126D02*
X058035Y007319D01*
X058035Y007222D02*
X057745Y007222D01*
X057842Y007126D01*
X057793Y007420D02*
X057745Y007469D01*
X057745Y007565D01*
X057793Y007614D01*
X057842Y007614D01*
X057890Y007565D01*
X057938Y007614D01*
X057987Y007614D01*
X058035Y007565D01*
X058035Y007469D01*
X057987Y007420D01*
X057890Y007517D02*
X057890Y007565D01*
X058725Y008263D02*
X058773Y008215D01*
X058967Y008215D01*
X059015Y008263D01*
X059015Y008360D01*
X058967Y008408D01*
X059015Y008510D02*
X059015Y008703D01*
X059015Y008606D02*
X058725Y008606D01*
X058822Y008510D01*
X058773Y008408D02*
X058725Y008360D01*
X058725Y008263D01*
X058822Y008804D02*
X058725Y008901D01*
X059015Y008901D01*
X059015Y008804D02*
X059015Y008998D01*
X059035Y009481D02*
X058745Y009481D01*
X058745Y009626D01*
X058793Y009675D01*
X058890Y009675D01*
X058938Y009626D01*
X058938Y009481D01*
X058938Y009578D02*
X059035Y009675D01*
X059035Y009776D02*
X059035Y009969D01*
X059035Y009872D02*
X058745Y009872D01*
X058842Y009776D01*
X058745Y010070D02*
X058745Y010264D01*
X058793Y010264D01*
X058987Y010070D01*
X059035Y010070D01*
X059015Y010515D02*
X058725Y010515D01*
X058725Y010660D01*
X058773Y010708D01*
X058870Y010708D01*
X058918Y010660D01*
X058918Y010515D01*
X058918Y010612D02*
X059015Y010708D01*
X059015Y010810D02*
X059015Y011003D01*
X059015Y010906D02*
X058725Y010906D01*
X058822Y010810D01*
X058870Y011104D02*
X058773Y011201D01*
X058725Y011298D01*
X058870Y011249D02*
X058870Y011104D01*
X058967Y011104D01*
X059015Y011153D01*
X059015Y011249D01*
X058967Y011298D01*
X058918Y011298D01*
X058870Y011249D01*
X058394Y011293D02*
X058345Y011245D01*
X058249Y011245D01*
X058200Y011293D01*
X058200Y011390D02*
X058297Y011438D01*
X058345Y011438D01*
X058394Y011390D01*
X058394Y011293D01*
X058200Y011390D02*
X058200Y011535D01*
X058394Y011535D01*
X058002Y011535D02*
X058002Y011245D01*
X057906Y011245D02*
X058099Y011245D01*
X057906Y011438D02*
X058002Y011535D01*
X057805Y011487D02*
X057756Y011535D01*
X057611Y011535D01*
X057611Y011245D01*
X057611Y011342D02*
X057756Y011342D01*
X057805Y011390D01*
X057805Y011487D01*
X057708Y011342D02*
X057805Y011245D01*
X041694Y015543D02*
X041645Y015495D01*
X041549Y015495D01*
X041500Y015543D01*
X041500Y015592D01*
X041549Y015640D01*
X041645Y015640D01*
X041694Y015592D01*
X041694Y015543D01*
X041645Y015640D02*
X041694Y015688D01*
X041694Y015737D01*
X041645Y015785D01*
X041549Y015785D01*
X041500Y015737D01*
X041500Y015688D01*
X041549Y015640D01*
X041399Y015688D02*
X041399Y015737D01*
X041351Y015785D01*
X041254Y015785D01*
X041206Y015737D01*
X041105Y015737D02*
X041056Y015785D01*
X040959Y015785D01*
X040911Y015737D01*
X040911Y015543D01*
X040959Y015495D01*
X041056Y015495D01*
X041105Y015543D01*
X041206Y015495D02*
X041399Y015688D01*
X041399Y015495D02*
X041206Y015495D01*
X041037Y017131D02*
X040843Y017131D01*
X040795Y017179D01*
X040795Y017276D01*
X040843Y017325D01*
X040892Y017426D02*
X040795Y017522D01*
X041085Y017522D01*
X041085Y017426D02*
X041085Y017619D01*
X041085Y017720D02*
X041037Y017720D01*
X040843Y017914D01*
X040795Y017914D01*
X040795Y017720D01*
X041037Y017325D02*
X041085Y017276D01*
X041085Y017179D01*
X041037Y017131D01*
X041670Y017179D02*
X041718Y017131D01*
X041912Y017131D01*
X041960Y017179D01*
X041960Y017276D01*
X041912Y017325D01*
X041912Y017426D02*
X041960Y017474D01*
X041960Y017571D01*
X041912Y017619D01*
X041863Y017619D01*
X041815Y017571D01*
X041815Y017522D01*
X041815Y017571D02*
X041767Y017619D01*
X041718Y017619D01*
X041670Y017571D01*
X041670Y017474D01*
X041718Y017426D01*
X041718Y017325D02*
X041670Y017276D01*
X041670Y017179D01*
X041718Y017720D02*
X041670Y017769D01*
X041670Y017865D01*
X041718Y017914D01*
X041912Y017720D01*
X041960Y017769D01*
X041960Y017865D01*
X041912Y017914D01*
X041718Y017914D01*
X041718Y017720D02*
X041912Y017720D01*
X034735Y018731D02*
X034445Y018731D01*
X034445Y018876D01*
X034493Y018925D01*
X034590Y018925D01*
X034638Y018876D01*
X034638Y018731D01*
X034638Y018828D02*
X034735Y018925D01*
X034735Y019026D02*
X034735Y019219D01*
X034735Y019122D02*
X034445Y019122D01*
X034542Y019026D01*
X034542Y019320D02*
X034445Y019417D01*
X034735Y019417D01*
X034735Y019320D02*
X034735Y019514D01*
X030017Y014403D02*
X029823Y014403D01*
X029775Y014355D01*
X029775Y014258D01*
X029823Y014210D01*
X029872Y014210D01*
X029920Y014258D01*
X029920Y014403D01*
X030017Y014403D02*
X030065Y014355D01*
X030065Y014258D01*
X030017Y014210D01*
X030065Y014108D02*
X029968Y014012D01*
X029968Y014060D02*
X029968Y013915D01*
X030065Y013915D02*
X029775Y013915D01*
X029775Y014060D01*
X029823Y014108D01*
X029920Y014108D01*
X029968Y014060D01*
X025515Y015513D02*
X025515Y015610D01*
X025467Y015658D01*
X025467Y015760D02*
X025515Y015808D01*
X025515Y015905D01*
X025467Y015953D01*
X025418Y015953D01*
X025370Y015905D01*
X025370Y015856D01*
X025370Y015905D02*
X025322Y015953D01*
X025273Y015953D01*
X025225Y015905D01*
X025225Y015808D01*
X025273Y015760D01*
X025273Y015658D02*
X025225Y015610D01*
X025225Y015513D01*
X025273Y015465D01*
X025467Y015465D01*
X025515Y015513D01*
X025515Y016054D02*
X025515Y016248D01*
X025515Y016151D02*
X025225Y016151D01*
X025322Y016054D01*
X022611Y015738D02*
X022611Y015545D01*
X022562Y015496D01*
X022466Y015496D01*
X022417Y015545D01*
X022316Y015545D02*
X022316Y015787D01*
X022417Y015738D02*
X022417Y015690D01*
X022466Y015642D01*
X022611Y015642D01*
X022611Y015738D02*
X022562Y015787D01*
X022466Y015787D01*
X022417Y015738D01*
X022316Y015545D02*
X022268Y015496D01*
X022171Y015496D01*
X022123Y015545D01*
X022123Y015787D01*
X022144Y016965D02*
X022020Y016965D01*
X021958Y017027D01*
X021958Y017150D02*
X022082Y017212D01*
X022144Y017212D01*
X022205Y017150D01*
X022205Y017027D01*
X022144Y016965D01*
X022327Y017027D02*
X022388Y016965D01*
X022512Y016965D01*
X022574Y017027D01*
X022574Y017274D01*
X022512Y017335D01*
X022388Y017335D01*
X022327Y017274D01*
X022327Y017212D01*
X022388Y017150D01*
X022574Y017150D01*
X022205Y017335D02*
X021958Y017335D01*
X021958Y017150D01*
X021837Y017150D02*
X021775Y017088D01*
X021590Y017088D01*
X021590Y016965D02*
X021590Y017335D01*
X021775Y017335D01*
X021837Y017274D01*
X021837Y017150D01*
X021713Y017088D02*
X021837Y016965D01*
X021893Y018926D02*
X022087Y018926D01*
X022135Y018974D01*
X022135Y019071D01*
X022087Y019119D01*
X022135Y019220D02*
X021942Y019414D01*
X021893Y019414D01*
X021845Y019365D01*
X021845Y019269D01*
X021893Y019220D01*
X021893Y019119D02*
X021845Y019071D01*
X021845Y018974D01*
X021893Y018926D01*
X022135Y019220D02*
X022135Y019414D01*
X022217Y023165D02*
X022265Y023213D01*
X022265Y023310D01*
X022217Y023358D01*
X022265Y023460D02*
X022265Y023653D01*
X022265Y023556D02*
X021975Y023556D01*
X022072Y023460D01*
X022023Y023358D02*
X021975Y023310D01*
X021975Y023213D01*
X022023Y023165D01*
X022217Y023165D01*
X008715Y023110D02*
X008425Y023110D01*
X008715Y023303D01*
X008425Y023303D01*
X008425Y023404D02*
X008425Y023549D01*
X008473Y023598D01*
X008667Y023598D01*
X008715Y023549D01*
X008715Y023404D01*
X008425Y023404D01*
X008473Y023008D02*
X008425Y022960D01*
X008425Y022863D01*
X008473Y022815D01*
X008667Y022815D01*
X008715Y022863D01*
X008715Y022960D01*
X008667Y023008D01*
X008570Y023008D01*
X008570Y022912D01*
X008667Y024565D02*
X008715Y024613D01*
X008715Y024710D01*
X008667Y024758D01*
X008667Y024565D02*
X008473Y024565D01*
X008425Y024613D01*
X008425Y024710D01*
X008473Y024758D01*
X008425Y026065D02*
X008425Y026210D01*
X008473Y026258D01*
X008522Y026258D01*
X008570Y026210D01*
X008570Y026065D01*
X008715Y026065D02*
X008715Y026210D01*
X008667Y026258D01*
X008618Y026258D01*
X008570Y026210D01*
X008715Y026065D02*
X008425Y026065D01*
X008522Y027815D02*
X008425Y027912D01*
X008522Y028008D01*
X008715Y028008D01*
X008570Y028008D02*
X008570Y027815D01*
X008522Y027815D02*
X008715Y027815D01*
X008715Y029065D02*
X008425Y029065D01*
X008425Y029210D01*
X008473Y029258D01*
X008570Y029258D01*
X008618Y029210D01*
X008618Y029065D01*
X008715Y029360D02*
X008618Y029456D01*
X008715Y029553D01*
X008425Y029553D01*
X008425Y029654D02*
X008425Y029799D01*
X008473Y029848D01*
X008570Y029848D01*
X008618Y029799D01*
X008618Y029654D01*
X008715Y029654D02*
X008425Y029654D01*
X008618Y029751D02*
X008715Y029848D01*
X008715Y029360D02*
X008425Y029360D01*
X008473Y019598D02*
X008570Y019598D01*
X008618Y019549D01*
X008618Y019404D01*
X008715Y019404D02*
X008425Y019404D01*
X008425Y019549D01*
X008473Y019598D01*
X008618Y019501D02*
X008715Y019598D01*
X008715Y019303D02*
X008425Y019303D01*
X008425Y019110D02*
X008715Y019110D01*
X008618Y019206D01*
X008715Y019303D01*
X008570Y019008D02*
X008618Y018960D01*
X008618Y018815D01*
X008715Y018815D02*
X008425Y018815D01*
X008425Y018960D01*
X008473Y019008D01*
X008570Y019008D01*
X008570Y017758D02*
X008570Y017565D01*
X008522Y017565D02*
X008425Y017662D01*
X008522Y017758D01*
X008715Y017758D01*
X008715Y017565D02*
X008522Y017565D01*
X008522Y016008D02*
X008570Y015960D01*
X008570Y015815D01*
X008715Y015815D02*
X008715Y015960D01*
X008667Y016008D01*
X008618Y016008D01*
X008570Y015960D01*
X008522Y016008D02*
X008473Y016008D01*
X008425Y015960D01*
X008425Y015815D01*
X008715Y015815D01*
X008667Y014508D02*
X008715Y014460D01*
X008715Y014363D01*
X008667Y014315D01*
X008473Y014315D01*
X008425Y014363D01*
X008425Y014460D01*
X008473Y014508D01*
X008473Y013348D02*
X008425Y013299D01*
X008425Y013154D01*
X008715Y013154D01*
X008715Y013299D01*
X008667Y013348D01*
X008473Y013348D01*
X008425Y013053D02*
X008715Y013053D01*
X008425Y012860D01*
X008715Y012860D01*
X008667Y012758D02*
X008570Y012758D01*
X008570Y012662D01*
X008667Y012758D02*
X008715Y012710D01*
X008715Y012613D01*
X008667Y012565D01*
X008473Y012565D01*
X008425Y012613D01*
X008425Y012710D01*
X008473Y012758D01*
X008473Y009348D02*
X008570Y009348D01*
X008618Y009299D01*
X008618Y009154D01*
X008715Y009154D02*
X008425Y009154D01*
X008425Y009299D01*
X008473Y009348D01*
X008618Y009251D02*
X008715Y009348D01*
X008715Y009053D02*
X008425Y009053D01*
X008425Y008860D02*
X008715Y008860D01*
X008618Y008956D01*
X008715Y009053D01*
X008570Y008758D02*
X008618Y008710D01*
X008618Y008565D01*
X008715Y008565D02*
X008425Y008565D01*
X008425Y008710D01*
X008473Y008758D01*
X008570Y008758D01*
X008570Y007508D02*
X008570Y007315D01*
X008522Y007315D02*
X008425Y007412D01*
X008522Y007508D01*
X008715Y007508D01*
X008715Y007315D02*
X008522Y007315D01*
X008522Y005758D02*
X008570Y005710D01*
X008570Y005565D01*
X008715Y005565D02*
X008715Y005710D01*
X008667Y005758D01*
X008618Y005758D01*
X008570Y005710D01*
X008522Y005758D02*
X008473Y005758D01*
X008425Y005710D01*
X008425Y005565D01*
X008715Y005565D01*
X008667Y004258D02*
X008715Y004210D01*
X008715Y004113D01*
X008667Y004065D01*
X008473Y004065D01*
X008425Y004113D01*
X008425Y004210D01*
X008473Y004258D01*
X008473Y003098D02*
X008425Y003049D01*
X008425Y002904D01*
X008715Y002904D01*
X008715Y003049D01*
X008667Y003098D01*
X008473Y003098D01*
X008425Y002803D02*
X008715Y002803D01*
X008425Y002610D01*
X008715Y002610D01*
X008667Y002508D02*
X008570Y002508D01*
X008570Y002412D01*
X008667Y002508D02*
X008715Y002460D01*
X008715Y002363D01*
X008667Y002315D01*
X008473Y002315D01*
X008425Y002363D01*
X008425Y002460D01*
X008473Y002508D01*
X001015Y003015D02*
X000725Y003015D01*
X000725Y003208D01*
X000725Y003310D02*
X000725Y003406D01*
X000725Y003358D02*
X001015Y003358D01*
X001015Y003310D02*
X001015Y003406D01*
X001015Y003506D02*
X001015Y003651D01*
X000967Y003700D01*
X000773Y003700D01*
X000725Y003651D01*
X000725Y003506D01*
X001015Y003506D01*
X001015Y003801D02*
X001015Y003994D01*
X001015Y003897D02*
X000725Y003897D01*
X000822Y003801D01*
X000870Y003112D02*
X000870Y003015D01*
X021740Y014165D02*
X021740Y014535D01*
X021925Y014535D01*
X021987Y014474D01*
X021987Y014350D01*
X021925Y014288D01*
X021740Y014288D01*
X021863Y014288D02*
X021987Y014165D01*
X022108Y014227D02*
X022170Y014165D01*
X022294Y014165D01*
X022355Y014227D01*
X022355Y014288D01*
X022294Y014350D01*
X022108Y014350D01*
X022108Y014227D01*
X022108Y014350D02*
X022232Y014474D01*
X022355Y014535D01*
X022477Y014474D02*
X022538Y014535D01*
X022662Y014535D01*
X022724Y014474D01*
X022477Y014227D01*
X022538Y014165D01*
X022662Y014165D01*
X022724Y014227D01*
X022724Y014474D01*
X022477Y014474D02*
X022477Y014227D01*
X022643Y004608D02*
X022643Y004205D01*
X022777Y004205D02*
X022508Y004205D01*
X022508Y004474D02*
X022643Y004608D01*
X022615Y002265D02*
X022750Y002265D01*
X022817Y002198D01*
X022817Y002130D01*
X022750Y002063D01*
X022817Y001996D01*
X022817Y001929D01*
X022750Y001861D01*
X022615Y001861D01*
X022548Y001929D01*
X022682Y002063D02*
X022750Y002063D01*
X022548Y002198D02*
X022615Y002265D01*
X023245Y001575D02*
X023400Y001575D01*
X023452Y001524D01*
X023452Y001317D01*
X023400Y001265D01*
X023245Y001265D01*
X023245Y001575D01*
X023558Y001420D02*
X023713Y001420D01*
X023765Y001368D01*
X023765Y001317D01*
X023713Y001265D01*
X023610Y001265D01*
X023558Y001317D01*
X023558Y001420D01*
X023661Y001524D01*
X023765Y001575D01*
X024184Y001575D02*
X024184Y001265D01*
X024339Y001265D01*
X024391Y001317D01*
X024391Y001524D01*
X024339Y001575D01*
X024184Y001575D01*
X024497Y001575D02*
X024704Y001575D01*
X024704Y001524D01*
X024497Y001317D01*
X024497Y001265D01*
X025123Y001265D02*
X025123Y001575D01*
X025279Y001575D01*
X025330Y001524D01*
X025330Y001317D01*
X025279Y001265D01*
X025123Y001265D01*
X025436Y001317D02*
X025488Y001265D01*
X025592Y001265D01*
X025643Y001317D01*
X025643Y001368D01*
X025592Y001420D01*
X025488Y001420D01*
X025436Y001472D01*
X025436Y001524D01*
X025488Y001575D01*
X025592Y001575D01*
X025643Y001524D01*
X025643Y001472D01*
X025592Y001420D01*
X025488Y001420D02*
X025436Y001368D01*
X025436Y001317D01*
X026063Y001265D02*
X026218Y001265D01*
X026269Y001317D01*
X026269Y001524D01*
X026218Y001575D01*
X026063Y001575D01*
X026063Y001265D01*
X026376Y001317D02*
X026427Y001265D01*
X026531Y001265D01*
X026583Y001317D01*
X026583Y001524D01*
X026531Y001575D01*
X026427Y001575D01*
X026376Y001524D01*
X026376Y001472D01*
X026427Y001420D01*
X026583Y001420D01*
X027002Y001265D02*
X027157Y001265D01*
X027209Y001317D01*
X027209Y001524D01*
X027157Y001575D01*
X027002Y001575D01*
X027002Y001265D01*
X027315Y001265D02*
X027522Y001265D01*
X027418Y001265D02*
X027418Y001575D01*
X027315Y001472D01*
X027628Y001524D02*
X027680Y001575D01*
X027783Y001575D01*
X027835Y001524D01*
X027628Y001317D01*
X027680Y001265D01*
X027783Y001265D01*
X027835Y001317D01*
X027835Y001524D01*
X027628Y001524D02*
X027628Y001317D01*
X028254Y001265D02*
X028409Y001265D01*
X028461Y001317D01*
X028461Y001524D01*
X028409Y001575D01*
X028254Y001575D01*
X028254Y001265D01*
X028567Y001265D02*
X028774Y001265D01*
X028671Y001265D02*
X028671Y001575D01*
X028567Y001472D01*
X028880Y001472D02*
X028984Y001575D01*
X028984Y001265D01*
X029087Y001265D02*
X028880Y001265D01*
D16*
X029131Y001895D02*
X029131Y004805D01*
X023029Y004805D01*
X023029Y001895D01*
X029131Y001895D01*
X022879Y005445D02*
X022879Y007355D01*
X045981Y007355D01*
X045981Y005445D01*
X022879Y005445D01*
X023447Y009453D02*
X023447Y009847D01*
X024313Y009847D02*
X024313Y009453D01*
X023863Y012403D02*
X023863Y012797D01*
X022997Y012797D02*
X022997Y012403D01*
X022847Y015403D02*
X022847Y015797D01*
X023713Y015797D02*
X023713Y015403D01*
X024962Y018460D02*
X024962Y021040D01*
X027151Y021040D01*
X027151Y021710D02*
X024962Y021710D01*
X024962Y024290D01*
X027151Y024290D01*
X028847Y023897D02*
X028847Y023503D01*
X029713Y023503D02*
X029713Y023897D01*
X029713Y019997D02*
X029713Y019603D01*
X028847Y019603D02*
X028847Y019997D01*
X027151Y018460D02*
X024962Y018460D01*
X008929Y019879D02*
X008929Y012211D01*
X005580Y012211D01*
X005580Y019879D01*
X008929Y019879D01*
X008929Y022461D02*
X005580Y022461D01*
X005580Y030129D01*
X008929Y030129D01*
X008929Y022461D01*
X022929Y027795D02*
X022929Y029705D01*
X031031Y029705D01*
X031031Y027795D01*
X022929Y027795D01*
X031629Y027795D02*
X031629Y029705D01*
X039731Y029705D01*
X039731Y027795D01*
X031629Y027795D01*
X040379Y027795D02*
X040379Y029705D01*
X048481Y029705D01*
X048481Y027795D01*
X040379Y027795D01*
X049079Y027795D02*
X049079Y029705D01*
X057181Y029705D01*
X057181Y027795D01*
X049079Y027795D01*
X049270Y018600D02*
X046690Y018600D01*
X046690Y017200D01*
X049270Y017200D01*
X049270Y018600D01*
X049983Y012033D02*
X050377Y012033D01*
X050377Y011167D02*
X049983Y011167D01*
X041300Y004340D02*
X038760Y004340D01*
X038760Y004122D01*
X039243Y003895D02*
X040817Y003895D01*
X040817Y003305D01*
X039243Y003305D01*
X039243Y003895D01*
X038760Y003122D02*
X038760Y003069D01*
X039243Y002895D02*
X040817Y002895D01*
X040817Y002305D01*
X039243Y002305D01*
X039243Y002895D01*
X038760Y002069D02*
X038760Y001850D01*
X041300Y001850D01*
X041300Y002342D01*
X040817Y001860D01*
X041300Y002069D02*
X041300Y002342D01*
X041300Y003069D02*
X041300Y003122D01*
X041300Y004122D02*
X041300Y004340D01*
X008929Y001961D02*
X005580Y001961D01*
X005580Y009629D01*
X008929Y009629D01*
X008929Y001961D01*
D17*
X024772Y019750D03*
X024772Y023000D03*
D18*
X029536Y023779D03*
X029536Y019879D03*
X023024Y015521D03*
X023174Y012521D03*
X023624Y009571D03*
X050101Y011856D03*
D19*
X055233Y012050D02*
X055647Y011774D01*
X055647Y012345D01*
X055233Y012050D01*
X053380Y006550D02*
X051380Y006550D01*
X051380Y005050D01*
X053380Y005050D01*
X053380Y006550D01*
X047180Y005600D02*
X047182Y005620D01*
X047188Y005638D01*
X047197Y005656D01*
X047209Y005671D01*
X047224Y005683D01*
X047242Y005692D01*
X047260Y005698D01*
X047280Y005700D01*
X047300Y005698D01*
X047318Y005692D01*
X047336Y005683D01*
X047351Y005671D01*
X047363Y005656D01*
X047372Y005638D01*
X047378Y005620D01*
X047380Y005600D01*
X047378Y005580D01*
X047372Y005562D01*
X047363Y005544D01*
X047351Y005529D01*
X047336Y005517D01*
X047318Y005508D01*
X047300Y005502D01*
X047280Y005500D01*
X047260Y005502D01*
X047242Y005508D01*
X047224Y005517D01*
X047209Y005529D01*
X047197Y005544D01*
X047188Y005562D01*
X047182Y005580D01*
X047180Y005600D01*
X031230Y003850D02*
X031230Y001850D01*
X029730Y001850D01*
X029730Y003850D01*
X031230Y003850D01*
X027480Y008980D02*
X025980Y008980D01*
X025980Y011980D01*
X027480Y011980D01*
X027480Y008980D01*
X031230Y014400D02*
X031230Y015900D01*
X033230Y015900D01*
X033230Y014400D01*
X031230Y014400D01*
X038320Y016160D02*
X038320Y019160D01*
X039820Y019160D01*
X039820Y016160D01*
X038320Y016160D01*
X032947Y018474D02*
X032947Y019045D01*
X032533Y018750D01*
X032947Y018474D01*
X038924Y020739D02*
X039219Y020444D01*
X044337Y020444D01*
X044436Y020543D01*
X044436Y025857D01*
X044337Y025956D01*
X039023Y025956D01*
X038924Y025857D01*
X038924Y020739D01*
X039220Y020838D02*
X039222Y020857D01*
X039227Y020876D01*
X039237Y020892D01*
X039249Y020907D01*
X039264Y020919D01*
X039280Y020929D01*
X039299Y020934D01*
X039318Y020936D01*
X039337Y020934D01*
X039356Y020929D01*
X039372Y020919D01*
X039387Y020907D01*
X039399Y020892D01*
X039409Y020876D01*
X039414Y020857D01*
X039416Y020838D01*
X039414Y020819D01*
X039409Y020800D01*
X039399Y020784D01*
X039387Y020769D01*
X039372Y020757D01*
X039356Y020747D01*
X039337Y020742D01*
X039318Y020740D01*
X039299Y020742D01*
X039280Y020747D01*
X039264Y020757D01*
X039249Y020769D01*
X039237Y020784D01*
X039227Y020800D01*
X039222Y020819D01*
X039220Y020838D01*
X025380Y025050D02*
X023380Y025050D01*
X023380Y026550D01*
X025380Y026550D01*
X025380Y025050D01*
X053254Y025683D02*
X053530Y026097D01*
X053825Y025683D01*
X053254Y025683D01*
X054654Y025683D02*
X054930Y026097D01*
X055225Y025683D01*
X054654Y025683D01*
X056054Y025683D02*
X056330Y026097D01*
X056625Y025683D01*
X056054Y025683D01*
X057454Y025733D02*
X057730Y026147D01*
X058025Y025733D01*
X057454Y025733D01*
D20*
X032513Y018750D03*
X055213Y012050D03*
D21*
X050530Y007350D02*
X050280Y007600D01*
X049780Y007600D01*
X049530Y007350D01*
X049530Y005850D01*
X049780Y005600D01*
X050280Y005600D01*
X050530Y005850D01*
X050530Y007350D01*
X049530Y007350D02*
X049280Y007600D01*
X048780Y007600D01*
X048530Y007350D01*
X048530Y005850D01*
X048780Y005600D01*
X049280Y005600D01*
X049530Y005850D01*
X048530Y005850D02*
X048280Y005600D01*
X047780Y005600D01*
X047530Y005850D01*
X047530Y007350D01*
X047780Y007600D01*
X048280Y007600D01*
X048530Y007350D01*
X050578Y004576D02*
X053082Y004576D01*
X053082Y002133D01*
X050781Y002133D01*
X050781Y004537D01*
X050578Y004576D02*
X050578Y002133D01*
X050781Y002133D01*
X033230Y002800D02*
X033130Y002800D01*
X033230Y002800D02*
X033230Y002900D01*
X033230Y003300D02*
X033230Y003400D01*
X033130Y003400D01*
X032730Y003400D02*
X032630Y003400D01*
X032630Y003300D01*
X032630Y002900D02*
X032630Y002800D01*
X032730Y002800D01*
X005480Y010350D02*
X005480Y011200D01*
X005480Y012200D01*
X005480Y028900D01*
X005480Y029900D01*
X005480Y030750D01*
X005478Y030780D01*
X005473Y030810D01*
X005464Y030839D01*
X005451Y030866D01*
X005436Y030892D01*
X005417Y030916D01*
X005396Y030937D01*
X005372Y030956D01*
X005346Y030971D01*
X005319Y030984D01*
X005290Y030993D01*
X005260Y030998D01*
X005230Y031000D01*
X000830Y031000D01*
X000800Y030998D01*
X000770Y030993D01*
X000741Y030984D01*
X000714Y030971D01*
X000688Y030956D01*
X000664Y030937D01*
X000643Y030916D01*
X000624Y030892D01*
X000609Y030866D01*
X000596Y030839D01*
X000587Y030810D01*
X000582Y030780D01*
X000580Y030750D01*
X000580Y029900D01*
X000580Y028900D01*
X000580Y012200D01*
X000580Y011200D01*
X000580Y010350D01*
X000582Y010320D01*
X000587Y010290D01*
X000596Y010261D01*
X000609Y010234D01*
X000624Y010208D01*
X000643Y010184D01*
X000664Y010163D01*
X000688Y010144D01*
X000714Y010129D01*
X000741Y010116D01*
X000770Y010107D01*
X000800Y010102D01*
X000830Y010100D01*
X005230Y010100D01*
X005260Y010102D01*
X005290Y010107D01*
X005319Y010116D01*
X005346Y010129D01*
X005372Y010144D01*
X005396Y010163D01*
X005417Y010184D01*
X005436Y010208D01*
X005451Y010234D01*
X005464Y010261D01*
X005473Y010290D01*
X005478Y010320D01*
X005480Y010350D01*
X005480Y011200D02*
X005430Y011200D01*
X005430Y012200D01*
X005480Y012200D01*
X004730Y013450D02*
X004730Y027650D01*
X004580Y027650D02*
X004580Y013450D01*
X004578Y013405D01*
X004572Y013360D01*
X004563Y013316D01*
X004550Y013273D01*
X004533Y013231D01*
X004513Y013191D01*
X004489Y013153D01*
X004462Y013117D01*
X004432Y013083D01*
X004400Y013052D01*
X004365Y013023D01*
X004327Y012998D01*
X004288Y012976D01*
X004247Y012958D01*
X004204Y012943D01*
X004161Y012932D01*
X004116Y012924D01*
X004071Y012920D01*
X004026Y012921D01*
X003981Y012924D01*
X003937Y012932D01*
X003940Y012930D02*
X001880Y013240D01*
X001900Y013080D02*
X003940Y012780D01*
X003917Y012783D02*
X003966Y012775D01*
X004016Y012771D01*
X004066Y012770D01*
X004116Y012773D01*
X004166Y012780D01*
X004215Y012790D01*
X004263Y012804D01*
X004310Y012822D01*
X004355Y012842D01*
X004399Y012867D01*
X004441Y012894D01*
X004481Y012924D01*
X004519Y012957D01*
X004554Y012993D01*
X004586Y013031D01*
X004615Y013072D01*
X004642Y013115D01*
X004665Y013159D01*
X004684Y013205D01*
X004701Y013253D01*
X004713Y013301D01*
X004723Y013350D01*
X004728Y013400D01*
X004730Y013450D01*
X001886Y013235D02*
X001844Y013247D01*
X001802Y013262D01*
X001762Y013281D01*
X001724Y013304D01*
X001688Y013329D01*
X001654Y013357D01*
X001623Y013388D01*
X001594Y013422D01*
X001568Y013458D01*
X001545Y013496D01*
X001526Y013535D01*
X001509Y013576D01*
X001497Y013619D01*
X001487Y013662D01*
X001482Y013706D01*
X001480Y013750D01*
X001480Y027350D01*
X001330Y027350D02*
X001330Y013750D01*
X001332Y013698D01*
X001338Y013647D01*
X001348Y013597D01*
X001361Y013547D01*
X001378Y013498D01*
X001399Y013451D01*
X001424Y013406D01*
X001451Y013362D01*
X001482Y013321D01*
X001516Y013282D01*
X001553Y013246D01*
X001593Y013213D01*
X001634Y013183D01*
X001678Y013156D01*
X001724Y013133D01*
X001772Y013113D01*
X001821Y013097D01*
X001871Y013084D01*
X001922Y013076D01*
X001973Y013071D01*
X000630Y012200D02*
X000630Y011200D01*
X000580Y011200D01*
X000580Y012200D02*
X000630Y012200D01*
X002380Y011290D02*
X002382Y011340D01*
X002388Y011390D01*
X002398Y011440D01*
X002411Y011488D01*
X002428Y011536D01*
X002449Y011582D01*
X002473Y011626D01*
X002501Y011668D01*
X002532Y011708D01*
X002566Y011745D01*
X002603Y011780D01*
X002642Y011811D01*
X002683Y011840D01*
X002727Y011865D01*
X002773Y011887D01*
X002820Y011905D01*
X002868Y011919D01*
X002917Y011930D01*
X002967Y011937D01*
X003017Y011940D01*
X003068Y011939D01*
X003118Y011934D01*
X003168Y011925D01*
X003216Y011913D01*
X003264Y011896D01*
X003310Y011876D01*
X003355Y011853D01*
X003398Y011826D01*
X003438Y011796D01*
X003476Y011763D01*
X003511Y011727D01*
X003544Y011688D01*
X003573Y011647D01*
X003599Y011604D01*
X003622Y011559D01*
X003641Y011512D01*
X003656Y011464D01*
X003668Y011415D01*
X003676Y011365D01*
X003680Y011315D01*
X003680Y011265D01*
X003676Y011215D01*
X003668Y011165D01*
X003656Y011116D01*
X003641Y011068D01*
X003622Y011021D01*
X003599Y010976D01*
X003573Y010933D01*
X003544Y010892D01*
X003511Y010853D01*
X003476Y010817D01*
X003438Y010784D01*
X003398Y010754D01*
X003355Y010727D01*
X003310Y010704D01*
X003264Y010684D01*
X003216Y010667D01*
X003168Y010655D01*
X003118Y010646D01*
X003068Y010641D01*
X003017Y010640D01*
X002967Y010643D01*
X002917Y010650D01*
X002868Y010661D01*
X002820Y010675D01*
X002773Y010693D01*
X002727Y010715D01*
X002683Y010740D01*
X002642Y010769D01*
X002603Y010800D01*
X002566Y010835D01*
X002532Y010872D01*
X002501Y010912D01*
X002473Y010954D01*
X002449Y010998D01*
X002428Y011044D01*
X002411Y011092D01*
X002398Y011140D01*
X002388Y011190D01*
X002382Y011240D01*
X002380Y011290D01*
X002830Y009000D02*
X002830Y008900D01*
X002830Y009000D02*
X002930Y009000D01*
X003330Y009000D02*
X003430Y009000D01*
X003430Y008900D01*
X003430Y008500D02*
X003430Y008400D01*
X003330Y008400D01*
X002930Y008400D02*
X002830Y008400D01*
X002830Y008500D01*
X001630Y008500D02*
X001630Y008400D01*
X001530Y008400D01*
X001130Y008400D02*
X001030Y008400D01*
X001030Y008500D01*
X001030Y008900D02*
X001030Y009000D01*
X001130Y009000D01*
X001530Y009000D02*
X001630Y009000D01*
X001630Y008900D01*
X001630Y007450D02*
X001530Y007450D01*
X001630Y007450D02*
X001630Y007350D01*
X001630Y006950D02*
X001630Y006850D01*
X001530Y006850D01*
X001130Y006850D02*
X001030Y006850D01*
X001030Y006950D01*
X001030Y007350D02*
X001030Y007450D01*
X001130Y007450D01*
X002830Y007450D02*
X002830Y007350D01*
X002830Y007450D02*
X002930Y007450D01*
X003330Y007450D02*
X003430Y007450D01*
X003430Y007350D01*
X003430Y006950D02*
X003430Y006850D01*
X003330Y006850D01*
X002930Y006850D02*
X002830Y006850D01*
X002830Y006950D01*
X002830Y006000D02*
X002830Y005900D01*
X002830Y006000D02*
X002930Y006000D01*
X003330Y006000D02*
X003430Y006000D01*
X003430Y005900D01*
X003430Y005500D02*
X003430Y005400D01*
X003330Y005400D01*
X002930Y005400D02*
X002830Y005400D01*
X002830Y005500D01*
X001630Y005500D02*
X001630Y005400D01*
X001530Y005400D01*
X001130Y005400D02*
X001030Y005400D01*
X001030Y005500D01*
X001030Y005900D02*
X001030Y006000D01*
X001130Y006000D01*
X001530Y006000D02*
X001630Y006000D01*
X001630Y005900D01*
X001330Y027350D02*
X001332Y027401D01*
X001338Y027453D01*
X001347Y027503D01*
X001361Y027553D01*
X001378Y027601D01*
X001399Y027648D01*
X001423Y027694D01*
X001451Y027737D01*
X001482Y027778D01*
X001516Y027817D01*
X001552Y027853D01*
X001592Y027886D01*
X001634Y027916D01*
X001677Y027943D01*
X001723Y027967D01*
X001771Y027986D01*
X001819Y028003D01*
X001869Y028015D01*
X001920Y028024D01*
X001870Y028010D02*
X003950Y028320D01*
X003950Y028170D02*
X001870Y027860D01*
X001877Y027863D02*
X001835Y027850D01*
X001794Y027834D01*
X001755Y027815D01*
X001718Y027792D01*
X001683Y027767D01*
X001650Y027739D01*
X001619Y027708D01*
X001591Y027674D01*
X001566Y027639D01*
X001543Y027601D01*
X001524Y027562D01*
X001508Y027521D01*
X001496Y027479D01*
X001487Y027437D01*
X001482Y027394D01*
X001480Y027350D01*
X003946Y028170D02*
X003990Y028177D01*
X004035Y028180D01*
X004079Y028179D01*
X004124Y028175D01*
X004168Y028167D01*
X004211Y028155D01*
X004252Y028140D01*
X004293Y028121D01*
X004332Y028099D01*
X004368Y028074D01*
X004403Y028045D01*
X004435Y028014D01*
X004464Y027981D01*
X004491Y027945D01*
X004514Y027907D01*
X004534Y027867D01*
X004550Y027825D01*
X004563Y027782D01*
X004573Y027739D01*
X004578Y027695D01*
X004580Y027650D01*
X004730Y027650D02*
X004728Y027700D01*
X004723Y027750D01*
X004713Y027799D01*
X004701Y027848D01*
X004684Y027895D01*
X004665Y027941D01*
X004642Y027985D01*
X004615Y028028D01*
X004586Y028069D01*
X004554Y028107D01*
X004519Y028143D01*
X004481Y028176D01*
X004441Y028206D01*
X004399Y028233D01*
X004355Y028258D01*
X004310Y028278D01*
X004263Y028296D01*
X004215Y028310D01*
X004166Y028320D01*
X004116Y028327D01*
X004066Y028330D01*
X004016Y028329D01*
X003966Y028325D01*
X003917Y028317D01*
X005430Y028900D02*
X005480Y028900D01*
X005430Y028900D02*
X005430Y029900D01*
X005480Y029900D01*
X002370Y029810D02*
X002372Y029860D01*
X002378Y029910D01*
X002388Y029960D01*
X002401Y030008D01*
X002418Y030056D01*
X002439Y030102D01*
X002463Y030146D01*
X002491Y030188D01*
X002522Y030228D01*
X002556Y030265D01*
X002593Y030300D01*
X002632Y030331D01*
X002673Y030360D01*
X002717Y030385D01*
X002763Y030407D01*
X002810Y030425D01*
X002858Y030439D01*
X002907Y030450D01*
X002957Y030457D01*
X003007Y030460D01*
X003058Y030459D01*
X003108Y030454D01*
X003158Y030445D01*
X003206Y030433D01*
X003254Y030416D01*
X003300Y030396D01*
X003345Y030373D01*
X003388Y030346D01*
X003428Y030316D01*
X003466Y030283D01*
X003501Y030247D01*
X003534Y030208D01*
X003563Y030167D01*
X003589Y030124D01*
X003612Y030079D01*
X003631Y030032D01*
X003646Y029984D01*
X003658Y029935D01*
X003666Y029885D01*
X003670Y029835D01*
X003670Y029785D01*
X003666Y029735D01*
X003658Y029685D01*
X003646Y029636D01*
X003631Y029588D01*
X003612Y029541D01*
X003589Y029496D01*
X003563Y029453D01*
X003534Y029412D01*
X003501Y029373D01*
X003466Y029337D01*
X003428Y029304D01*
X003388Y029274D01*
X003345Y029247D01*
X003300Y029224D01*
X003254Y029204D01*
X003206Y029187D01*
X003158Y029175D01*
X003108Y029166D01*
X003058Y029161D01*
X003007Y029160D01*
X002957Y029163D01*
X002907Y029170D01*
X002858Y029181D01*
X002810Y029195D01*
X002763Y029213D01*
X002717Y029235D01*
X002673Y029260D01*
X002632Y029289D01*
X002593Y029320D01*
X002556Y029355D01*
X002522Y029392D01*
X002491Y029432D01*
X002463Y029474D01*
X002439Y029518D01*
X002418Y029564D01*
X002401Y029612D01*
X002388Y029660D01*
X002378Y029710D01*
X002372Y029760D01*
X002370Y029810D01*
X000630Y029900D02*
X000630Y028900D01*
X000580Y028900D01*
X000580Y029900D02*
X000630Y029900D01*
D22*
X051043Y004228D03*
D23*
X053530Y026117D03*
X054930Y026117D03*
X056330Y026117D03*
X057730Y026167D03*
D24*
X057130Y029750D03*
X048430Y029750D03*
X039680Y029750D03*
X030980Y029750D03*
X023630Y026800D03*
X038070Y016410D03*
X031480Y016150D03*
X027730Y011730D03*
X031480Y003600D03*
X053130Y004800D03*
D25*
X055438Y009508D03*
D26*
X042478Y017088D03*
D27*
X022551Y001417D02*
X022551Y001319D01*
X022453Y001220D01*
X022256Y001220D01*
X022157Y001319D01*
X022157Y001417D01*
X022256Y001516D01*
X022453Y001516D01*
X022551Y001417D01*
X022453Y001220D02*
X022551Y001122D01*
X022551Y001023D01*
X022453Y000925D01*
X022256Y000925D01*
X022157Y001023D01*
X022157Y001122D01*
X022256Y001220D01*
X021943Y001516D02*
X021746Y001516D01*
X021845Y001516D02*
X021845Y001023D01*
X021746Y000925D01*
X021648Y000925D01*
X021550Y001023D01*
X006525Y030535D02*
X006315Y030535D01*
X006210Y030640D01*
X006210Y030850D02*
X006420Y030955D01*
X006525Y030955D01*
X006630Y030850D01*
X006630Y030640D01*
X006525Y030535D01*
X006210Y030850D02*
X006210Y031166D01*
X006630Y031166D01*
X005985Y031166D02*
X005775Y031166D01*
X005880Y031166D02*
X005880Y030640D01*
X005775Y030535D01*
X005670Y030535D01*
X005565Y030640D01*
D28*
X046930Y001999D03*
X045530Y001901D03*
X044230Y001901D03*
X042930Y001901D03*
X048180Y001999D03*
D29*
X047805Y002575D03*
X046555Y002575D03*
X045905Y001325D03*
X044605Y001325D03*
X043305Y001325D03*
D30*
X041142Y002531D02*
X041142Y002678D01*
X041142Y002605D02*
X040922Y002605D01*
X040995Y002531D01*
X039124Y002523D02*
X039088Y002560D01*
X038941Y002560D01*
X038904Y002523D01*
X038904Y002450D01*
X038941Y002413D01*
X039088Y002413D01*
X039124Y002450D01*
X039124Y002523D01*
X039124Y002634D02*
X038904Y002634D01*
X039124Y002781D01*
X038904Y002781D01*
X040922Y003568D02*
X040959Y003531D01*
X040922Y003568D02*
X040922Y003641D01*
X040959Y003678D01*
X040995Y003678D01*
X041142Y003531D01*
X041142Y003678D01*
D31*
X040522Y003600D03*
X040522Y002600D03*
M02*
