%
M48
M72
T01C0.0150
T02C0.0236
T03C0.0320
T04C0.0374
T05C0.0394
T06C0.0400
T07C0.0748
T08C0.0827
T09C0.1220
T10C0.1250
%
T01
X23180Y9100
X23180Y10350
X23180Y11800
X24680Y11850
X22680Y13400
X24680Y13600
X24580Y14950
X22580Y15200
X22630Y16350
X24880Y16600
X29130Y16900
X30580Y14950
X31530Y14000
X32380Y11050
X37730Y9900
X38430Y9350
X38980Y8850
X32980Y4900
X31930Y3850
X30930Y4950
X35280Y1400
X41930Y4500
X42930Y4550
X46380Y5050
X46880Y4500
X48130Y4500
X49080Y3850
X49380Y2350
X54480Y2850
X57230Y6550
X58530Y8650
X56880Y9050
X56130Y9825
X56130Y10175
X55730Y10175
X55730Y9825
X58530Y9950
X58530Y10850
X51080Y10600
X51030Y11100
X51030Y11850
X49280Y12000
X50530Y9350
X50280Y15500
X44380Y17200
X44430Y17600
X44030Y18050
X43380Y18050
X42980Y17850
X41530Y17550
X41380Y17900
X41380Y16900
X37880Y18850
X36280Y18300
X35280Y18450
X38130Y20400
X39255Y21225
X39280Y21850
X37880Y21500
X37730Y21850
X37080Y22300
X36830Y21500
X35780Y22050
X35680Y21150
X35730Y20750
X34230Y22600
X33680Y22600
X31230Y21650
X29980Y20250
X28630Y20350
X29880Y19050
X30280Y23300
X28630Y24250
X29930Y24400
X34330Y26000
X34980Y26250
X33080Y27050
X36480Y24800
X37030Y24550
X36630Y24300
X36530Y23800
X36930Y23500
X36480Y23200
X37430Y23850
X39380Y24250
X40380Y23850
X40730Y24100
X39280Y24775
X40530Y25100
X41280Y25100
X41530Y25550
X42080Y25550
X41830Y26900
X41480Y26900
X40080Y27850
X45380Y24900
X45680Y24600
X43930Y23750
X43780Y23400
X44030Y23050
X43880Y22350
X44180Y22025
X43180Y21400
X42630Y21300
X42280Y21000
X41930Y20850
X41330Y21350
X40980Y21000
X42930Y20750
X43430Y20750
X43780Y20850
X45480Y20350
X45880Y19600
X45480Y19150
X44780Y19350
X42430Y19450
X41380Y19425
X45680Y22450
X47230Y20200
X49280Y20350
X52180Y20700
X53055Y20700
X53930Y20650
X54605Y20650
X55680Y20700
X56405Y20700
X57480Y20700
X58305Y20700
X58055Y22450
X56405Y22450
X54755Y22500
X52955Y22400
X51080Y23950
X50130Y24200
X50680Y24350
X24480Y7750
T02
X36280Y4600
X42280Y1250
X49130Y1250
X54080Y6500
X54980Y6500
X53130Y10750
X52580Y10825
X52580Y11300
X57630Y13800
X57630Y14300
X57630Y14850
X57630Y15350
X57630Y15850
X58430Y16900
X57205Y17600
X55455Y17600
X53705Y17600
X51980Y17600
X51330Y17000
X49630Y17500
X49630Y18250
X51980Y18600
X51955Y19550
X53730Y19550
X53730Y18600
X55480Y18600
X55455Y19550
X57230Y19550
X57230Y18600
X49630Y15950
X49130Y15950
X46880Y14850
X46880Y14350
X46880Y13850
X46330Y16250
X46330Y16700
X46330Y18650
X46330Y19150
X51330Y14200
X57880Y13100
X58330Y13100
X58780Y13100
X33330Y19650
X32830Y19650
X32430Y16700
X31930Y16700
X31430Y16700
X22830Y18450
X21130Y17150
X20530Y17150
X19880Y17150
X19230Y17150
X18580Y17150
X22780Y24300
X30830Y24200
X30830Y24700
T03
X3130Y8700
X1330Y8700
X1330Y7150
X3130Y7150
X3130Y5700
X1330Y5700
X32930Y3100
T04
X48030Y6100
X49030Y6100
X50030Y6100
X50030Y7100
X49030Y7100
X48030Y7100
T05
X45430Y6900
X44430Y6900
X43430Y6900
X42430Y6900
X41430Y6900
X40430Y6900
X39430Y6900
X38430Y6900
X37430Y6900
X36430Y6900
X35430Y6900
X34430Y6900
X33430Y6900
X32430Y6900
X31430Y6900
X30430Y6900
X29430Y6900
X28430Y6900
X27430Y6900
X26430Y6900
X25430Y6900
X24430Y6900
X23430Y6900
X23430Y5900
X24430Y5900
X25430Y5900
X26430Y5900
X27430Y5900
X28430Y5900
X29430Y5900
X30430Y5900
X31430Y5900
X32430Y5900
X33430Y5900
X34430Y5900
X35430Y5900
X36430Y5900
X37430Y5900
X38430Y5900
X39430Y5900
X40430Y5900
X41430Y5900
X42430Y5900
X43430Y5900
X44430Y5900
X45430Y5900
X51880Y5800
X52880Y5800
X32730Y15150
X31730Y15150
X26730Y11480
X26730Y10480
X26730Y9480
X26580Y4350
X25580Y4350
X24580Y4350
X23580Y4350
X23580Y3350
X24580Y3350
X25580Y3350
X26580Y3350
X27580Y3350
X28580Y3350
X28580Y2350
X27580Y2350
X26580Y2350
X25580Y2350
X24580Y2350
X23580Y2350
X27580Y4350
X28580Y4350
X30480Y3350
X30480Y2350
X39070Y16660
X39070Y17660
X39070Y18660
X24880Y25800
X23880Y25800
X23480Y28250
X24480Y28250
X25480Y28250
X26480Y28250
X27480Y28250
X28480Y28250
X29480Y28250
X30480Y28250
X30480Y29250
X29480Y29250
X28480Y29250
X27480Y29250
X26480Y29250
X25480Y29250
X24480Y29250
X23480Y29250
X32180Y29250
X33180Y29250
X34180Y29250
X35180Y29250
X36180Y29250
X37180Y29250
X38180Y29250
X39180Y29250
X39180Y28250
X38180Y28250
X37180Y28250
X36180Y28250
X35180Y28250
X34180Y28250
X33180Y28250
X32180Y28250
X40930Y28250
X41930Y28250
X42930Y28250
X43930Y28250
X44930Y28250
X45930Y28250
X46930Y28250
X47930Y28250
X47930Y29250
X46930Y29250
X45930Y29250
X44930Y29250
X43930Y29250
X42930Y29250
X41930Y29250
X40930Y29250
X49630Y29250
X50630Y29250
X51630Y29250
X52630Y29250
X53630Y29250
X54630Y29250
X55630Y29250
X56630Y29250
X56630Y28250
X55630Y28250
X54630Y28250
X53630Y28250
X52630Y28250
X51630Y28250
X50630Y28250
X49630Y28250
T06
X3590Y27070
X2470Y26530
X3590Y25980
X2470Y25440
X3590Y24900
X2470Y24350
X3590Y23810
X2470Y23270
X3590Y22720
X2470Y22180
X3590Y21640
X2470Y21090
X3590Y20550
X2470Y20010
X3590Y19460
X2470Y18920
X3590Y18380
X2470Y17830
X3590Y17290
X2470Y16750
X3590Y16200
X2470Y15660
X3590Y15120
X2470Y14570
X3590Y14030
T07
X6980Y14491
X6980Y16050
X6980Y17609
X6980Y24741
X6980Y26300
X6980Y27859
X6980Y7359
X6980Y5800
X6980Y4241
T08
X6980Y2682
X6980Y8918
X6980Y12932
X6980Y19168
X6980Y23182
X6980Y29418
T09
X3030Y29810
X3030Y11290
T10
X1360Y1480
X47430Y25400
X58050Y30610
X10810Y30610
X58050Y1480
M30
