G75*
G70*
%OFA0B0*%
%FSLAX24Y24*%
%IPPOS*%
%LPD*%
%AMOC8*
5,1,8,0,0,1.08239X$1,22.5*
%
%ADD10OC8,0.0591*%
%ADD11C,0.0591*%
%ADD12C,0.1227*%
%ADD13C,0.1122*%
%ADD14OC8,0.0600*%
%ADD15C,0.2000*%
%ADD16OC8,0.0610*%
%ADD17OC8,0.0550*%
%ADD18C,0.0270*%
%ADD19C,0.0356*%
%ADD20C,0.0100*%
%ADD21C,0.0160*%
%ADD22C,0.0400*%
%ADD23C,0.0120*%
%ADD24C,0.1200*%
%ADD25C,0.1000*%
%ADD26C,0.0660*%
D10*
X023580Y002350D03*
X024580Y002350D03*
X025580Y002350D03*
X026580Y002350D03*
X027580Y002350D03*
X028580Y002350D03*
X028580Y003350D03*
X027580Y003350D03*
X026580Y003350D03*
X025580Y003350D03*
X024580Y003350D03*
X023580Y003350D03*
X023580Y004350D03*
X024580Y004350D03*
X025580Y004350D03*
X026580Y004350D03*
X027580Y004350D03*
X028580Y004350D03*
X028430Y005900D03*
X027430Y005900D03*
X026430Y005900D03*
X025430Y005900D03*
X024430Y005900D03*
X023430Y005900D03*
X023430Y006900D03*
X024430Y006900D03*
X025430Y006900D03*
X026430Y006900D03*
X027430Y006900D03*
X028430Y006900D03*
X029430Y006900D03*
X030430Y006900D03*
X031430Y006900D03*
X032430Y006900D03*
X033430Y006900D03*
X034430Y006900D03*
X035430Y006900D03*
X036430Y006900D03*
X037430Y006900D03*
X038430Y006900D03*
X039430Y006900D03*
X040430Y006900D03*
X041430Y006900D03*
X042430Y006900D03*
X043430Y006900D03*
X044430Y006900D03*
X045430Y006900D03*
X045430Y005900D03*
X044430Y005900D03*
X043430Y005900D03*
X042430Y005900D03*
X041430Y005900D03*
X040430Y005900D03*
X039430Y005900D03*
X038430Y005900D03*
X037430Y005900D03*
X036430Y005900D03*
X035430Y005900D03*
X034430Y005900D03*
X033430Y005900D03*
X032430Y005900D03*
X031430Y005900D03*
X030430Y005900D03*
X029430Y005900D03*
X029480Y028250D03*
X028480Y028250D03*
X027480Y028250D03*
X026480Y028250D03*
X025480Y028250D03*
X024480Y028250D03*
X023480Y028250D03*
X023480Y029250D03*
X024480Y029250D03*
X025480Y029250D03*
X026480Y029250D03*
X027480Y029250D03*
X028480Y029250D03*
X029480Y029250D03*
X030480Y029250D03*
X030480Y028250D03*
X032180Y028250D03*
X033180Y028250D03*
X034180Y028250D03*
X035180Y028250D03*
X036180Y028250D03*
X037180Y028250D03*
X038180Y028250D03*
X039180Y028250D03*
X039180Y029250D03*
X038180Y029250D03*
X037180Y029250D03*
X036180Y029250D03*
X035180Y029250D03*
X034180Y029250D03*
X033180Y029250D03*
X032180Y029250D03*
X040930Y029250D03*
X041930Y029250D03*
X042930Y029250D03*
X043930Y029250D03*
X044930Y029250D03*
X045930Y029250D03*
X046930Y029250D03*
X047930Y029250D03*
X047930Y028250D03*
X046930Y028250D03*
X045930Y028250D03*
X044930Y028250D03*
X043930Y028250D03*
X042930Y028250D03*
X041930Y028250D03*
X040930Y028250D03*
X049630Y028250D03*
X050630Y028250D03*
X051630Y028250D03*
X052630Y028250D03*
X053630Y028250D03*
X054630Y028250D03*
X055630Y028250D03*
X056630Y028250D03*
X056630Y029250D03*
X055630Y029250D03*
X054630Y029250D03*
X053630Y029250D03*
X052630Y029250D03*
X051630Y029250D03*
X050630Y029250D03*
X049630Y029250D03*
D11*
X039365Y018660D02*
X038775Y018660D01*
X038775Y017660D02*
X039365Y017660D01*
X039365Y016660D02*
X038775Y016660D01*
X032730Y015445D02*
X032730Y014855D01*
X031730Y014855D02*
X031730Y015445D01*
X027025Y011480D02*
X026435Y011480D01*
X026435Y010480D02*
X027025Y010480D01*
X027025Y009480D02*
X026435Y009480D01*
X030185Y003350D02*
X030775Y003350D01*
X030775Y002350D02*
X030185Y002350D01*
X051880Y005505D02*
X051880Y006095D01*
X052880Y006095D02*
X052880Y005505D01*
X024880Y025505D02*
X024880Y026095D01*
X023880Y026095D02*
X023880Y025505D01*
D12*
X007593Y002682D02*
X006367Y002682D01*
X006367Y008918D02*
X007593Y008918D01*
X007593Y012932D02*
X006367Y012932D01*
X006367Y019168D02*
X007593Y019168D01*
X007593Y023182D02*
X006367Y023182D01*
X006367Y029418D02*
X007593Y029418D01*
D13*
X007541Y027859D02*
X006419Y027859D01*
X006419Y026300D02*
X007541Y026300D01*
X007541Y024741D02*
X006419Y024741D01*
X006419Y017609D02*
X007541Y017609D01*
X007541Y016050D02*
X006419Y016050D01*
X006419Y014491D02*
X007541Y014491D01*
X007541Y007359D02*
X006419Y007359D01*
X006419Y005800D02*
X007541Y005800D01*
X007541Y004241D02*
X006419Y004241D01*
D14*
X003590Y014030D03*
X002470Y014570D03*
X003590Y015120D03*
X002470Y015660D03*
X003590Y016200D03*
X002470Y016750D03*
X003590Y017290D03*
X002470Y017830D03*
X003590Y018380D03*
X002470Y018920D03*
X003590Y019460D03*
X002470Y020010D03*
X003590Y020550D03*
X002470Y021090D03*
X003590Y021640D03*
X002470Y022180D03*
X003590Y022720D03*
X002470Y023270D03*
X003590Y023810D03*
X002470Y024350D03*
X003590Y024900D03*
X002470Y025440D03*
X003590Y025980D03*
X002470Y026530D03*
X003590Y027070D03*
D15*
X003030Y029810D03*
X003030Y011290D03*
D16*
X048030Y007100D03*
X049030Y007100D03*
X050030Y007100D03*
X050030Y006100D03*
X049030Y006100D03*
X048030Y006100D03*
D17*
X032930Y003100D03*
X003130Y005700D03*
X001330Y005700D03*
X001330Y007150D03*
X003130Y007150D03*
X003130Y008700D03*
X001330Y008700D03*
D18*
X022580Y015200D03*
X022630Y016350D03*
X024880Y016600D03*
X024580Y014950D03*
X024680Y013600D03*
X022680Y013400D03*
X023180Y011800D03*
X024680Y011850D03*
X023180Y010350D03*
X023180Y009100D03*
X024480Y007750D03*
X030930Y004950D03*
X031930Y003850D03*
X032980Y004900D03*
X035280Y001400D03*
X041930Y004500D03*
X042930Y004550D03*
X046380Y005050D03*
X046880Y004500D03*
X048130Y004500D03*
X049080Y003850D03*
X049380Y002350D03*
X054480Y002850D03*
X057230Y006550D03*
X058530Y008650D03*
X056880Y009050D03*
X056130Y009825D03*
X056130Y010175D03*
X055730Y010175D03*
X055730Y009825D03*
X058530Y009950D03*
X058530Y010850D03*
X051080Y010600D03*
X051030Y011100D03*
X051030Y011850D03*
X049280Y012000D03*
X050530Y009350D03*
X050280Y015500D03*
X044380Y017200D03*
X044430Y017600D03*
X044030Y018050D03*
X043380Y018050D03*
X042980Y017850D03*
X041530Y017550D03*
X041380Y017900D03*
X041380Y016900D03*
X037880Y018850D03*
X036280Y018300D03*
X035280Y018450D03*
X038130Y020400D03*
X039255Y021225D03*
X039280Y021850D03*
X037880Y021500D03*
X037730Y021850D03*
X037080Y022300D03*
X036830Y021500D03*
X035780Y022050D03*
X035680Y021150D03*
X035730Y020750D03*
X034230Y022600D03*
X033680Y022600D03*
X031230Y021650D03*
X029980Y020250D03*
X028630Y020350D03*
X029880Y019050D03*
X029130Y016900D03*
X030580Y014950D03*
X031530Y014000D03*
X032380Y011050D03*
X037730Y009900D03*
X038430Y009350D03*
X038980Y008850D03*
X045480Y019150D03*
X044780Y019350D03*
X045880Y019600D03*
X045480Y020350D03*
X047230Y020200D03*
X049280Y020350D03*
X052180Y020700D03*
X053055Y020700D03*
X053930Y020650D03*
X054605Y020650D03*
X055680Y020700D03*
X056405Y020700D03*
X057480Y020700D03*
X058305Y020700D03*
X058055Y022450D03*
X056405Y022450D03*
X054755Y022500D03*
X052955Y022400D03*
X051080Y023950D03*
X050130Y024200D03*
X050680Y024350D03*
X045680Y024600D03*
X045380Y024900D03*
X043930Y023750D03*
X043780Y023400D03*
X044030Y023050D03*
X043880Y022350D03*
X044180Y022025D03*
X043180Y021400D03*
X042630Y021300D03*
X042280Y021000D03*
X041930Y020850D03*
X041330Y021350D03*
X040980Y021000D03*
X042930Y020750D03*
X043430Y020750D03*
X043780Y020850D03*
X042430Y019450D03*
X041380Y019425D03*
X045680Y022450D03*
X041280Y025100D03*
X041530Y025550D03*
X042080Y025550D03*
X040530Y025100D03*
X039280Y024775D03*
X039380Y024250D03*
X040380Y023850D03*
X040730Y024100D03*
X037430Y023850D03*
X036930Y023500D03*
X036530Y023800D03*
X036630Y024300D03*
X037030Y024550D03*
X036480Y024800D03*
X034980Y026250D03*
X034330Y026000D03*
X033080Y027050D03*
X029930Y024400D03*
X028630Y024250D03*
X030280Y023300D03*
X036480Y023200D03*
X041480Y026900D03*
X041830Y026900D03*
X040080Y027850D03*
D19*
X030830Y024700D03*
X030830Y024200D03*
X022780Y024300D03*
X032830Y019650D03*
X033330Y019650D03*
X032430Y016700D03*
X031930Y016700D03*
X031430Y016700D03*
X022830Y018450D03*
X021130Y017150D03*
X020530Y017150D03*
X019880Y017150D03*
X019230Y017150D03*
X018580Y017150D03*
X036280Y004600D03*
X042280Y001250D03*
X049130Y001250D03*
X054080Y006500D03*
X054980Y006500D03*
X053130Y010750D03*
X052580Y010825D03*
X052580Y011300D03*
X057630Y013800D03*
X057630Y014300D03*
X057630Y014850D03*
X057630Y015350D03*
X057630Y015850D03*
X058430Y016900D03*
X057205Y017600D03*
X055455Y017600D03*
X053705Y017600D03*
X051980Y017600D03*
X051330Y017000D03*
X049630Y017500D03*
X049630Y018250D03*
X051980Y018600D03*
X051955Y019550D03*
X053730Y019550D03*
X053730Y018600D03*
X055480Y018600D03*
X055455Y019550D03*
X057230Y019550D03*
X057230Y018600D03*
X049630Y015950D03*
X049130Y015950D03*
X046880Y014850D03*
X046880Y014350D03*
X046880Y013850D03*
X046330Y016250D03*
X046330Y016700D03*
X046330Y018650D03*
X046330Y019150D03*
X051330Y014200D03*
X057880Y013100D03*
X058330Y013100D03*
X058780Y013100D03*
D20*
X051030Y011850D02*
X051030Y011100D01*
X049480Y007950D02*
X046280Y011050D01*
X046280Y015250D01*
X044880Y016600D01*
X044880Y017150D01*
X044430Y017600D01*
X044380Y017200D02*
X044380Y016400D01*
X045980Y014850D01*
X045980Y010700D01*
X049030Y007600D01*
X049030Y007100D01*
X049480Y006650D02*
X050030Y006100D01*
X049480Y006650D02*
X049480Y007950D01*
X047530Y007800D02*
X047530Y006600D01*
X048030Y006100D01*
X048280Y005350D02*
X049030Y006100D01*
X048280Y005350D02*
X047680Y005350D01*
X047280Y005750D01*
X047280Y007650D01*
X045380Y009550D01*
X045380Y014350D01*
X043380Y016350D01*
X043380Y018050D01*
X042980Y017850D02*
X041880Y017850D01*
X041530Y017550D01*
X042980Y017850D02*
X042980Y016400D01*
X045030Y014300D01*
X045030Y009450D01*
X046930Y007500D01*
X046930Y005600D01*
X048080Y004500D01*
X048130Y004500D01*
X049080Y003850D02*
X031930Y003850D01*
X030930Y004150D02*
X032730Y002350D01*
X049380Y002350D01*
X046880Y004500D02*
X045080Y004500D01*
X044380Y005200D01*
X035230Y005200D01*
X034930Y005500D01*
X034930Y006450D01*
X034480Y006900D01*
X034430Y006900D01*
X033430Y006900D02*
X033430Y008100D01*
X035230Y009900D01*
X037730Y009900D01*
X037030Y009350D02*
X038430Y009350D01*
X038980Y008850D02*
X037380Y008850D01*
X035880Y007350D01*
X035880Y006400D01*
X035430Y005950D01*
X035430Y005900D01*
X035430Y006900D02*
X035430Y007750D01*
X037030Y009350D01*
X035030Y011050D02*
X038430Y014450D01*
X040480Y014450D01*
X041030Y015000D01*
X041030Y019500D01*
X041230Y019700D01*
X043580Y019700D01*
X043780Y019900D01*
X043780Y020850D01*
X043430Y020750D02*
X043430Y020100D01*
X043280Y019900D01*
X040930Y019900D01*
X040830Y019800D01*
X040830Y015200D01*
X040380Y014750D01*
X038280Y014750D01*
X032730Y009200D01*
X029680Y009200D01*
X027930Y007450D01*
X027930Y004700D01*
X027580Y004350D01*
X026580Y004350D02*
X026580Y005150D01*
X026930Y005500D01*
X026930Y007800D01*
X027180Y008050D01*
X028080Y008050D01*
X029530Y009500D01*
X032680Y009500D01*
X038180Y015000D01*
X039980Y015000D01*
X040630Y015650D01*
X040630Y019850D01*
X040880Y020100D01*
X042830Y020100D01*
X042930Y020250D01*
X042930Y020750D01*
X042630Y020500D02*
X042430Y020300D01*
X040830Y020300D01*
X040430Y019950D01*
X040430Y015850D01*
X039880Y015300D01*
X037930Y015300D01*
X032530Y009900D01*
X029380Y009900D01*
X027830Y008300D01*
X026080Y008300D01*
X025930Y008150D01*
X025930Y004700D01*
X025580Y004350D01*
X024930Y004700D02*
X024580Y004350D01*
X024930Y004700D02*
X024930Y008150D01*
X025280Y008500D01*
X027580Y008500D01*
X029230Y010150D01*
X032430Y010150D01*
X037930Y015650D01*
X039780Y015650D01*
X040230Y016100D01*
X040230Y020050D01*
X040680Y020500D01*
X042080Y020500D01*
X042280Y020700D01*
X042280Y021000D01*
X041930Y020850D02*
X041330Y020850D01*
X041180Y020700D01*
X040580Y020700D01*
X040030Y020150D01*
X040030Y016200D01*
X039730Y015900D01*
X037830Y015900D01*
X032380Y010450D01*
X029130Y010450D01*
X027430Y008750D01*
X024730Y008750D01*
X023930Y007950D01*
X023930Y004700D01*
X023580Y004350D01*
X028580Y004350D02*
X028580Y004400D01*
X028930Y004750D01*
X028930Y007800D01*
X030030Y008900D01*
X032830Y008900D01*
X035030Y011050D01*
X028380Y017250D02*
X025430Y014150D01*
X025430Y011700D01*
X024580Y010900D01*
X023480Y010900D01*
X023180Y010600D01*
X023180Y010350D01*
X022680Y013400D02*
X022680Y013800D01*
X026380Y017500D01*
X033280Y017500D01*
X037630Y021800D01*
X037730Y021850D01*
X037880Y021500D02*
X037680Y021450D01*
X033430Y017250D01*
X028380Y017250D01*
X029880Y019050D02*
X030080Y019050D01*
X032780Y021750D01*
X036380Y021750D01*
X037080Y022300D01*
X037480Y022250D02*
X037480Y022600D01*
X037130Y022950D01*
X034080Y022950D01*
X030830Y026200D01*
X030180Y026200D01*
X030030Y026350D01*
X029330Y026350D01*
X029080Y026600D01*
X028330Y026600D01*
X028130Y026800D01*
X027580Y026800D01*
X027380Y027000D01*
X026630Y027000D01*
X026380Y027250D01*
X025830Y027250D01*
X025680Y027400D01*
X024980Y027400D01*
X024730Y027650D01*
X024080Y027650D01*
X023480Y028250D01*
X024480Y028250D02*
X025080Y027650D01*
X025730Y027650D01*
X025930Y027450D01*
X026530Y027450D01*
X026730Y027250D01*
X027480Y027250D01*
X027680Y027050D01*
X028230Y027050D01*
X028480Y026800D01*
X029280Y026800D01*
X029480Y026600D01*
X030130Y026600D01*
X030280Y026450D01*
X030930Y026450D01*
X034130Y023250D01*
X036480Y023200D01*
X036930Y023500D02*
X034180Y023500D01*
X031030Y026650D01*
X030380Y026650D01*
X030230Y026800D01*
X029580Y026800D01*
X029380Y027000D01*
X028630Y027000D01*
X028380Y027250D01*
X027830Y027250D01*
X027630Y027450D01*
X026930Y027450D01*
X026730Y027650D01*
X026080Y027650D01*
X025480Y028250D01*
X026480Y028250D02*
X027080Y027650D01*
X027780Y027650D01*
X027980Y027450D01*
X028580Y027450D01*
X028830Y027200D01*
X029530Y027200D01*
X029680Y027050D01*
X030280Y027050D01*
X030480Y026850D01*
X031130Y026850D01*
X034180Y023800D01*
X036530Y023800D01*
X036630Y024300D02*
X034280Y024300D01*
X031330Y027250D01*
X030730Y027250D01*
X030530Y027450D01*
X029880Y027450D01*
X029680Y027650D01*
X029080Y027650D01*
X028480Y028250D01*
X028080Y027650D02*
X027480Y028250D01*
X028080Y027650D02*
X028730Y027650D01*
X028930Y027450D01*
X029580Y027450D01*
X029780Y027250D01*
X030430Y027250D01*
X030630Y027050D01*
X031230Y027050D01*
X034230Y024050D01*
X037230Y024050D01*
X037430Y023850D01*
X037030Y024550D02*
X034380Y024550D01*
X031480Y027450D01*
X030880Y027450D01*
X030680Y027650D01*
X030080Y027650D01*
X029480Y028250D01*
X030480Y028250D02*
X031080Y027650D01*
X031730Y027650D01*
X034580Y024800D01*
X036480Y024800D01*
X035680Y026100D02*
X038580Y026100D01*
X040030Y024650D01*
X040380Y024250D01*
X040380Y023850D01*
X040730Y024100D02*
X040689Y024441D01*
X040489Y024591D01*
X038730Y026350D01*
X036380Y026350D01*
X035680Y027200D01*
X035680Y028750D01*
X035180Y029250D01*
X036180Y029250D02*
X036680Y028750D01*
X036680Y027500D01*
X037430Y026650D01*
X039030Y026650D01*
X040180Y025450D01*
X040530Y025100D01*
X041280Y025100D02*
X039630Y027100D01*
X037980Y027100D01*
X037680Y027400D01*
X037680Y028750D01*
X037180Y029250D01*
X034680Y028750D02*
X034680Y027450D01*
X035680Y026100D01*
X034680Y028750D02*
X034180Y029250D01*
X041480Y027100D02*
X041480Y026900D01*
X041480Y027100D02*
X041830Y027450D01*
X042130Y027450D01*
X042430Y027750D01*
X042430Y028700D01*
X042930Y029250D01*
X043430Y028750D02*
X043930Y029250D01*
X043430Y028750D02*
X043430Y027900D01*
X042430Y026900D01*
X041830Y026900D01*
X045380Y027650D02*
X045380Y024900D01*
X045680Y024600D02*
X045680Y026800D01*
X046430Y027600D01*
X046430Y028750D01*
X045930Y029250D01*
X045430Y028700D02*
X044930Y029250D01*
X045430Y028700D02*
X045430Y027750D01*
X045380Y027650D01*
X043930Y023750D02*
X048330Y023750D01*
X048980Y023100D01*
X054880Y023100D01*
X057280Y020700D01*
X057480Y020700D01*
X055680Y020700D02*
X055180Y020700D01*
X053180Y022700D01*
X048930Y022700D01*
X048230Y023400D01*
X044580Y023400D01*
X043980Y023400D01*
X043780Y023400D01*
X044030Y023050D02*
X044280Y023050D01*
X044330Y023000D01*
X048180Y023000D01*
X048880Y022300D01*
X051980Y022300D01*
X053630Y020650D01*
X053930Y020650D01*
X052180Y020700D02*
X046680Y020700D01*
X045080Y022350D01*
X043880Y022350D01*
X043480Y022300D02*
X039130Y022300D01*
X038680Y021850D01*
X038680Y020250D01*
X036680Y018300D01*
X036280Y018300D01*
X037880Y018850D02*
X040380Y021350D01*
X041330Y021350D01*
X042630Y021300D02*
X042630Y020500D01*
X043180Y021400D02*
X043680Y021400D01*
X045430Y019650D01*
X045480Y019150D01*
X045880Y019600D02*
X043580Y021850D01*
X039280Y021850D01*
X037480Y022250D02*
X036830Y021500D01*
X035780Y022050D02*
X031330Y022050D01*
X030280Y023300D01*
X035680Y021150D02*
X032280Y017800D01*
X024080Y017800D01*
X022630Y016350D01*
X043480Y022300D02*
X044430Y021350D01*
X045330Y021350D01*
X047080Y019600D01*
X047080Y017000D01*
X048580Y015500D01*
X050280Y015500D01*
X045680Y014450D02*
X045680Y009700D01*
X047530Y007800D01*
X045280Y005050D02*
X044430Y005900D01*
X045280Y005050D02*
X046380Y005050D01*
X030930Y004950D02*
X030930Y004150D01*
X044030Y016100D02*
X045680Y014450D01*
X044030Y016100D02*
X044030Y018050D01*
D21*
X051080Y023950D02*
X051130Y023950D01*
X052130Y024950D01*
X052130Y028700D01*
X051630Y029250D01*
X051580Y029250D01*
X049880Y030950D01*
X012980Y030950D01*
X011830Y029700D01*
X010280Y029700D01*
X008980Y031000D01*
X005030Y031000D01*
X004480Y030450D01*
X004480Y028750D01*
X003930Y028200D01*
X002780Y028200D01*
X001630Y027050D01*
X001630Y026400D01*
X002470Y025460D01*
X002470Y025440D01*
X003030Y024900D02*
X003030Y027350D01*
X003480Y027800D01*
X004330Y027800D01*
X004980Y028450D01*
X004980Y029900D01*
X005580Y030500D01*
X008880Y030500D01*
X010030Y029350D01*
X012080Y029350D01*
X013130Y030500D01*
X049380Y030500D01*
X050630Y029250D01*
X051630Y028250D02*
X051630Y025300D01*
X050680Y024350D01*
X026730Y011480D02*
X026700Y011450D01*
X026130Y011450D01*
X024580Y009900D01*
X022280Y009900D01*
X010000Y022180D01*
X002470Y022180D01*
X002470Y021090D02*
X010490Y021090D01*
X022130Y009500D01*
X023930Y009500D01*
X024080Y009350D01*
X026600Y009350D01*
X026730Y009480D01*
X032980Y004900D02*
X035980Y004900D01*
X036280Y004600D01*
X003730Y007750D02*
X003130Y007150D01*
X003730Y007750D02*
X003730Y009050D01*
X003480Y009300D01*
X003030Y009300D01*
X001130Y011200D01*
X001130Y015400D01*
X002470Y016740D01*
X002470Y016750D01*
X000730Y017200D02*
X000730Y011100D01*
X003130Y008700D01*
X000730Y017200D02*
X002450Y018920D01*
X002470Y018920D01*
X002470Y024350D02*
X002480Y024350D01*
X003030Y024900D01*
D22*
X050580Y018200D02*
X050580Y016650D01*
X052030Y015200D01*
X052030Y011800D01*
X052580Y011300D01*
X052580Y010825D01*
X051980Y017600D02*
X053705Y017600D01*
X055455Y017600D01*
X057205Y017600D01*
X057230Y019550D02*
X055455Y019550D01*
X053730Y019550D01*
X051955Y019550D01*
X051930Y019550D01*
X050580Y018200D01*
D23*
X030580Y015900D02*
X030580Y014950D01*
X030580Y015900D02*
X029580Y016900D01*
X029130Y016900D01*
D24*
X021130Y017150D02*
X020530Y017150D01*
X019880Y017150D01*
X019230Y017150D01*
X018580Y017150D01*
X018630Y017200D01*
X018580Y017150D02*
X008630Y029400D01*
X007012Y029450D01*
D25*
X006980Y029418D01*
D26*
X003590Y016200D02*
X003690Y016140D01*
X004630Y015650D01*
X005380Y011950D01*
X005330Y009900D01*
X005180Y009800D01*
X005180Y008100D01*
X005930Y007400D01*
X006939Y007400D01*
X006980Y007359D01*
X004280Y006250D02*
X004280Y010150D01*
X004530Y010400D01*
X004530Y011900D01*
X003600Y014030D01*
X003590Y014030D01*
X004280Y006250D02*
X006380Y004250D01*
X006971Y004250D01*
X006980Y004241D01*
M02*
