G75*
G70*
%OFA0B0*%
%FSLAX24Y24*%
%IPPOS*%
%LPD*%
%AMOC8*
5,1,8,0,0,1.08239X$1,22.5*
%
%ADD10R,0.0551X0.0394*%
%ADD11R,0.0433X0.0394*%
%ADD12R,0.0394X0.0433*%
%ADD13R,0.1181X0.0630*%
%ADD14R,0.2441X0.2283*%
%ADD15R,0.0138X0.0354*%
%ADD16R,0.0827X0.0709*%
%ADD17R,0.0866X0.0236*%
%ADD18R,0.0236X0.0394*%
%ADD19R,0.0394X0.0236*%
%ADD20R,0.0598X0.0701*%
%ADD21R,0.0512X0.0591*%
%ADD22R,0.0591X0.0512*%
%ADD23R,0.0354X0.0138*%
%ADD24R,0.0394X0.0551*%
%ADD25R,0.0709X0.0827*%
%ADD26R,0.0200X0.0500*%
%ADD27R,0.1000X0.0900*%
%ADD28R,0.0480X0.0880*%
%ADD29R,0.1417X0.0866*%
%ADD30R,0.0748X0.0681*%
%ADD31R,0.0118X0.0402*%
%ADD32R,0.0118X0.0630*%
%ADD33R,0.0701X0.1240*%
%ADD34R,0.0630X0.1063*%
%ADD35R,0.0118X0.0591*%
%ADD36R,0.0591X0.0118*%
%ADD37R,0.0700X0.1400*%
%ADD38R,0.0315X0.0315*%
%ADD39R,0.0961X0.0445*%
%ADD40R,0.0630X0.0710*%
%ADD41R,0.0945X0.0669*%
%ADD42C,0.0400*%
%ADD43R,0.0984X0.0768*%
D10*
X030547Y012600D03*
X031413Y012226D03*
X031413Y012974D03*
X050197Y022850D03*
X051063Y022476D03*
X051063Y023224D03*
X050613Y025976D03*
X050613Y026724D03*
X049747Y026350D03*
D11*
X046280Y023035D03*
X046280Y022365D03*
X046280Y021785D03*
X046280Y021115D03*
X049280Y021315D03*
X049280Y021985D03*
X052180Y021885D03*
X052180Y021215D03*
X053030Y021215D03*
X053930Y021215D03*
X053930Y021885D03*
X053030Y021885D03*
X054780Y021885D03*
X055680Y021885D03*
X055680Y021215D03*
X054780Y021215D03*
X056530Y021215D03*
X057480Y021215D03*
X057480Y021885D03*
X056530Y021885D03*
X058330Y021885D03*
X058330Y021215D03*
X050280Y017135D03*
X050280Y016465D03*
X041805Y018365D03*
X041805Y019035D03*
X040930Y019035D03*
X040930Y018365D03*
X037230Y019265D03*
X036280Y019585D03*
X037230Y019935D03*
X036280Y018915D03*
X035280Y018915D03*
X035280Y019585D03*
X034980Y022865D03*
X034980Y023535D03*
X035880Y023535D03*
X035880Y022865D03*
X034230Y024615D03*
X034230Y025285D03*
X036980Y025315D03*
X036980Y025985D03*
X022780Y023735D03*
X022780Y023065D03*
X022830Y019635D03*
X022830Y018965D03*
X024630Y016185D03*
X024630Y015515D03*
X024680Y013135D03*
X024680Y012465D03*
X029280Y012865D03*
X029280Y013535D03*
X030580Y013815D03*
X030580Y014485D03*
X032380Y013885D03*
X032380Y013215D03*
X032380Y012235D03*
X032380Y011565D03*
X031930Y010135D03*
X031930Y009465D03*
X028730Y009165D03*
X028730Y009835D03*
X032980Y004435D03*
X032980Y003765D03*
X032930Y002385D03*
X032930Y001715D03*
X037230Y002765D03*
X037230Y003435D03*
X037980Y001785D03*
X037980Y001115D03*
X042930Y003265D03*
X042930Y003935D03*
X044230Y003935D03*
X044230Y003265D03*
X045530Y003265D03*
X045530Y003935D03*
X046930Y003885D03*
X046930Y003215D03*
X048180Y003215D03*
X048180Y003885D03*
X057230Y007115D03*
X057230Y007785D03*
X050330Y009915D03*
X050330Y010585D03*
D12*
X049265Y009650D03*
X048595Y009650D03*
X050095Y008450D03*
X050765Y008450D03*
X055695Y007150D03*
X056365Y007150D03*
X057395Y008650D03*
X058065Y008650D03*
X058065Y009950D03*
X057395Y009950D03*
X057395Y010850D03*
X058065Y010850D03*
X053665Y011950D03*
X052995Y011950D03*
X044465Y007950D03*
X043795Y007950D03*
X042965Y007950D03*
X042295Y007950D03*
X041565Y007950D03*
X040895Y007950D03*
X040165Y007950D03*
X039495Y007950D03*
X035665Y004600D03*
X034995Y004600D03*
X036945Y004350D03*
X037615Y004350D03*
X034665Y001400D03*
X033995Y001400D03*
X024165Y008450D03*
X023495Y008450D03*
X041195Y016300D03*
X041865Y016300D03*
X046095Y020200D03*
X046765Y020200D03*
X052495Y019550D03*
X053165Y019550D03*
X054245Y019550D03*
X054915Y019550D03*
X055995Y019550D03*
X056665Y019550D03*
X057745Y019550D03*
X058415Y019550D03*
X058415Y018600D03*
X057745Y018600D03*
X056665Y018600D03*
X055995Y018600D03*
X054915Y018600D03*
X054245Y018600D03*
X053165Y018600D03*
X052495Y018600D03*
X052495Y017600D03*
X053165Y017600D03*
X054245Y017600D03*
X054915Y017600D03*
X055995Y017600D03*
X056665Y017600D03*
X057745Y017600D03*
X058415Y017600D03*
X049615Y024200D03*
X048945Y024200D03*
X051445Y025650D03*
X052115Y025650D03*
X052115Y026700D03*
X051445Y026700D03*
X041115Y027350D03*
X040445Y027350D03*
X034515Y021800D03*
X033845Y021800D03*
X033765Y020600D03*
X033095Y020600D03*
X034545Y020600D03*
X035215Y020600D03*
X036445Y020850D03*
X037115Y020850D03*
X029615Y020950D03*
X028945Y020950D03*
X029045Y025050D03*
X029715Y025050D03*
X049295Y004900D03*
X049965Y004900D03*
D13*
X024089Y018852D03*
X024089Y020648D03*
X024089Y022102D03*
X024089Y023898D03*
D14*
X026916Y023000D03*
X026916Y019750D03*
D15*
X029024Y019406D03*
X029280Y019406D03*
X029536Y019406D03*
X029536Y020194D03*
X029280Y020194D03*
X029024Y020194D03*
X029024Y023306D03*
X029280Y023306D03*
X029536Y023306D03*
X029536Y024094D03*
X029280Y024094D03*
X029024Y024094D03*
X023536Y015994D03*
X023280Y015994D03*
X023024Y015994D03*
X023024Y015206D03*
X023280Y015206D03*
X023536Y015206D03*
X023430Y012994D03*
X023686Y012994D03*
X023174Y012994D03*
X023174Y012206D03*
X023430Y012206D03*
X023686Y012206D03*
X023624Y010044D03*
X023880Y010044D03*
X024136Y010044D03*
X024136Y009256D03*
X023880Y009256D03*
X023624Y009256D03*
D16*
X031864Y018750D03*
X033596Y018750D03*
X054564Y012050D03*
X056296Y012050D03*
D17*
X049604Y013350D03*
X049604Y013850D03*
X049604Y014350D03*
X049604Y014850D03*
X047556Y014850D03*
X047556Y014350D03*
X047556Y013850D03*
X047556Y013350D03*
X036054Y003800D03*
X036054Y003300D03*
X036054Y002800D03*
X036054Y002300D03*
X034006Y002300D03*
X034006Y002800D03*
X034006Y003300D03*
X034006Y003800D03*
X028754Y015100D03*
X028754Y015600D03*
X028754Y016100D03*
X028754Y016600D03*
X026706Y016600D03*
X026706Y016100D03*
X026706Y015600D03*
X026706Y015100D03*
D18*
X028230Y013583D03*
X028230Y012717D03*
D19*
X048597Y010650D03*
X049463Y010650D03*
D20*
X049850Y003850D03*
X049850Y002850D03*
X053810Y002850D03*
X053810Y003850D03*
D21*
X052754Y007300D03*
X052006Y007300D03*
X053756Y010750D03*
X054504Y010750D03*
X029554Y011100D03*
X028806Y011100D03*
D22*
X050380Y018476D03*
X050380Y019224D03*
X058430Y016274D03*
X058430Y015526D03*
X058430Y014574D03*
X058430Y013826D03*
X051830Y012024D03*
X051830Y011276D03*
X054080Y007924D03*
X054080Y007176D03*
X054980Y007176D03*
X054980Y007924D03*
D23*
X050574Y011344D03*
X050574Y011600D03*
X050574Y011856D03*
X049786Y011856D03*
X049786Y011600D03*
X049786Y011344D03*
D24*
X052356Y023067D03*
X053104Y023067D03*
X054006Y023067D03*
X054754Y023067D03*
X055656Y023067D03*
X056404Y023067D03*
X057306Y023067D03*
X058054Y023067D03*
X057680Y023933D03*
X056030Y023933D03*
X054380Y023933D03*
X052730Y023933D03*
X035854Y024617D03*
X035106Y024617D03*
X035480Y025483D03*
D25*
X053530Y025034D03*
X054930Y025034D03*
X056330Y025034D03*
X057730Y025084D03*
X057730Y026816D03*
X056330Y026766D03*
X054930Y026766D03*
X053530Y026766D03*
D26*
X032930Y021750D03*
X032430Y021750D03*
X031930Y021750D03*
D27*
X032430Y026050D03*
D28*
X047070Y016680D03*
X047980Y016680D03*
X048890Y016680D03*
D29*
X047980Y019120D03*
D30*
X055930Y010000D03*
D31*
X055930Y009055D03*
X056127Y009055D03*
X056324Y009055D03*
X055733Y009055D03*
X055536Y009055D03*
X055536Y010945D03*
X055733Y010945D03*
X055930Y010945D03*
X056127Y010945D03*
X056324Y010945D03*
D32*
X044782Y016498D03*
X044526Y016498D03*
X044270Y016498D03*
X044014Y016498D03*
X043758Y016498D03*
X043502Y016498D03*
X043246Y016498D03*
X042990Y016498D03*
X042734Y016498D03*
X042478Y016498D03*
X042478Y018702D03*
X042734Y018702D03*
X042990Y018702D03*
X043246Y018702D03*
X043502Y018702D03*
X043758Y018702D03*
X044014Y018702D03*
X044270Y018702D03*
X044526Y018702D03*
X044782Y018702D03*
D33*
X051850Y009500D03*
X053910Y009500D03*
D34*
X057279Y012200D03*
X058381Y012200D03*
D35*
X044042Y020050D03*
X043845Y020050D03*
X043649Y020050D03*
X043452Y020050D03*
X043255Y020050D03*
X043058Y020050D03*
X042861Y020050D03*
X042664Y020050D03*
X042467Y020050D03*
X042271Y020050D03*
X042074Y020050D03*
X041877Y020050D03*
X041680Y020050D03*
X041483Y020050D03*
X041286Y020050D03*
X041089Y020050D03*
X040893Y020050D03*
X040696Y020050D03*
X040499Y020050D03*
X040302Y020050D03*
X040105Y020050D03*
X039908Y020050D03*
X039711Y020050D03*
X039515Y020050D03*
X039318Y020050D03*
X039318Y026350D03*
X039515Y026350D03*
X039711Y026350D03*
X039908Y026350D03*
X040105Y026350D03*
X040302Y026350D03*
X040499Y026350D03*
X040696Y026350D03*
X040893Y026350D03*
X041089Y026350D03*
X041286Y026350D03*
X041483Y026350D03*
X041680Y026350D03*
X041877Y026350D03*
X042074Y026350D03*
X042271Y026350D03*
X042467Y026350D03*
X042664Y026350D03*
X042861Y026350D03*
X043058Y026350D03*
X043255Y026350D03*
X043452Y026350D03*
X043649Y026350D03*
X043845Y026350D03*
X044042Y026350D03*
D36*
X044830Y025562D03*
X044830Y025365D03*
X044830Y025169D03*
X044830Y024972D03*
X044830Y024775D03*
X044830Y024578D03*
X044830Y024381D03*
X044830Y024184D03*
X044830Y023987D03*
X044830Y023791D03*
X044830Y023594D03*
X044830Y023397D03*
X044830Y023200D03*
X044830Y023003D03*
X044830Y022806D03*
X044830Y022609D03*
X044830Y022413D03*
X044830Y022216D03*
X044830Y022019D03*
X044830Y021822D03*
X044830Y021625D03*
X044830Y021428D03*
X044830Y021231D03*
X044830Y021035D03*
X044830Y020838D03*
X038530Y020838D03*
X038530Y021035D03*
X038530Y021231D03*
X038530Y021428D03*
X038530Y021625D03*
X038530Y021822D03*
X038530Y022019D03*
X038530Y022216D03*
X038530Y022413D03*
X038530Y022609D03*
X038530Y022806D03*
X038530Y023003D03*
X038530Y023200D03*
X038530Y023397D03*
X038530Y023594D03*
X038530Y023791D03*
X038530Y023987D03*
X038530Y024184D03*
X038530Y024381D03*
X038530Y024578D03*
X038530Y024775D03*
X038530Y024972D03*
X038530Y025169D03*
X038530Y025365D03*
X038530Y025562D03*
D37*
X052780Y014950D03*
X056480Y014950D03*
D38*
X048180Y002245D03*
X048180Y001655D03*
X046930Y001655D03*
X046930Y002245D03*
X045530Y002245D03*
X045530Y001655D03*
X044230Y001655D03*
X044230Y002245D03*
X042930Y002245D03*
X042930Y001655D03*
D39*
X041723Y002600D03*
X041723Y003600D03*
X038337Y003600D03*
X038337Y002600D03*
D40*
X024540Y011050D03*
X023420Y011050D03*
X023370Y014300D03*
X024490Y014300D03*
X024340Y017150D03*
X023220Y017150D03*
X028820Y018100D03*
X029940Y018100D03*
X029890Y021950D03*
X028770Y021950D03*
D41*
X047480Y021272D03*
X047480Y022728D03*
D42*
X002030Y003500D03*
X035730Y017050D03*
X046030Y026000D03*
X021780Y029500D03*
X058130Y005600D03*
D43*
X051330Y015000D03*
X051330Y016200D03*
M02*
