G75*
G70*
%OFA0B0*%
%FSLAX24Y24*%
%IPPOS*%
%LPD*%
%AMOC8*
5,1,8,0,0,1.08239X$1,22.5*
%
%ADD10R,0.0551X0.0394*%
%ADD11R,0.0433X0.0394*%
%ADD12R,0.0394X0.0433*%
%ADD13R,0.1181X0.0630*%
%ADD14R,0.2441X0.2283*%
%ADD15R,0.0138X0.0354*%
%ADD16R,0.0827X0.0709*%
%ADD17R,0.0866X0.0236*%
%ADD18R,0.0236X0.0394*%
%ADD19R,0.0394X0.0236*%
%ADD20R,0.0598X0.0701*%
%ADD21R,0.0512X0.0591*%
%ADD22R,0.0591X0.0512*%
%ADD23R,0.0354X0.0138*%
%ADD24R,0.0394X0.0551*%
%ADD25R,0.0709X0.0827*%
%ADD26R,0.0200X0.0500*%
%ADD27R,0.1000X0.0900*%
%ADD28R,0.0480X0.0880*%
%ADD29R,0.1417X0.0866*%
%ADD30OC8,0.0591*%
%ADD31C,0.0591*%
%ADD32R,0.0748X0.0681*%
%ADD33R,0.0118X0.0402*%
%ADD34R,0.0118X0.0630*%
%ADD35R,0.0701X0.1240*%
%ADD36R,0.0630X0.1063*%
%ADD37R,0.0118X0.0591*%
%ADD38R,0.0591X0.0118*%
%ADD39C,0.1227*%
%ADD40C,0.1122*%
%ADD41R,0.0700X0.1400*%
%ADD42R,0.0315X0.0315*%
%ADD43R,0.0961X0.0445*%
%ADD44OC8,0.0600*%
%ADD45C,0.2000*%
%ADD46R,0.0630X0.0710*%
%ADD47OC8,0.0610*%
%ADD48R,0.0945X0.0669*%
%ADD49OC8,0.0550*%
%ADD50C,0.0400*%
%ADD51R,0.0984X0.0768*%
%ADD52C,0.0270*%
%ADD53C,0.0100*%
%ADD54C,0.0356*%
%ADD55C,0.0400*%
%ADD56C,0.0160*%
%ADD57C,0.0320*%
%ADD58C,0.0120*%
%ADD59C,0.0240*%
%ADD60C,0.0500*%
%ADD61C,0.0660*%
%ADD62C,0.1000*%
%ADD63C,0.1100*%
%ADD64C,0.0860*%
%ADD65C,0.0760*%
%ADD66C,0.0560*%
%ADD67C,0.0700*%
%ADD68C,0.1200*%
D10*
X030547Y012600D03*
X031413Y012226D03*
X031413Y012974D03*
X050197Y022850D03*
X051063Y022476D03*
X051063Y023224D03*
X050613Y025976D03*
X050613Y026724D03*
X049747Y026350D03*
D11*
X046280Y023035D03*
X046280Y022365D03*
X046280Y021785D03*
X046280Y021115D03*
X049280Y021315D03*
X049280Y021985D03*
X052180Y021885D03*
X052180Y021215D03*
X053030Y021215D03*
X053930Y021215D03*
X053930Y021885D03*
X053030Y021885D03*
X054780Y021885D03*
X055680Y021885D03*
X055680Y021215D03*
X054780Y021215D03*
X056530Y021215D03*
X057480Y021215D03*
X057480Y021885D03*
X056530Y021885D03*
X058330Y021885D03*
X058330Y021215D03*
X050280Y017135D03*
X050280Y016465D03*
X041805Y018365D03*
X041805Y019035D03*
X040930Y019035D03*
X040930Y018365D03*
X037230Y019265D03*
X036280Y019585D03*
X037230Y019935D03*
X036280Y018915D03*
X035280Y018915D03*
X035280Y019585D03*
X034980Y022865D03*
X034980Y023535D03*
X035880Y023535D03*
X035880Y022865D03*
X034230Y024615D03*
X034230Y025285D03*
X036980Y025315D03*
X036980Y025985D03*
X022780Y023735D03*
X022780Y023065D03*
X022830Y019635D03*
X022830Y018965D03*
X024630Y016185D03*
X024630Y015515D03*
X024680Y013135D03*
X024680Y012465D03*
X029280Y012865D03*
X029280Y013535D03*
X030580Y013815D03*
X030580Y014485D03*
X032380Y013885D03*
X032380Y013215D03*
X032380Y012235D03*
X032380Y011565D03*
X031930Y010135D03*
X031930Y009465D03*
X028730Y009165D03*
X028730Y009835D03*
X032980Y004435D03*
X032980Y003765D03*
X032930Y002385D03*
X032930Y001715D03*
X037230Y002765D03*
X037230Y003435D03*
X037980Y001785D03*
X037980Y001115D03*
X042930Y003265D03*
X042930Y003935D03*
X044230Y003935D03*
X044230Y003265D03*
X045530Y003265D03*
X045530Y003935D03*
X046930Y003885D03*
X046930Y003215D03*
X048180Y003215D03*
X048180Y003885D03*
X057230Y007115D03*
X057230Y007785D03*
X050330Y009915D03*
X050330Y010585D03*
D12*
X049265Y009650D03*
X048595Y009650D03*
X050095Y008450D03*
X050765Y008450D03*
X055695Y007150D03*
X056365Y007150D03*
X057395Y008650D03*
X058065Y008650D03*
X058065Y009950D03*
X057395Y009950D03*
X057395Y010850D03*
X058065Y010850D03*
X053665Y011950D03*
X052995Y011950D03*
X044465Y007950D03*
X043795Y007950D03*
X042965Y007950D03*
X042295Y007950D03*
X041565Y007950D03*
X040895Y007950D03*
X040165Y007950D03*
X039495Y007950D03*
X035665Y004600D03*
X034995Y004600D03*
X036945Y004350D03*
X037615Y004350D03*
X034665Y001400D03*
X033995Y001400D03*
X024165Y008450D03*
X023495Y008450D03*
X041195Y016300D03*
X041865Y016300D03*
X046095Y020200D03*
X046765Y020200D03*
X052495Y019550D03*
X053165Y019550D03*
X054245Y019550D03*
X054915Y019550D03*
X055995Y019550D03*
X056665Y019550D03*
X057745Y019550D03*
X058415Y019550D03*
X058415Y018600D03*
X057745Y018600D03*
X056665Y018600D03*
X055995Y018600D03*
X054915Y018600D03*
X054245Y018600D03*
X053165Y018600D03*
X052495Y018600D03*
X052495Y017600D03*
X053165Y017600D03*
X054245Y017600D03*
X054915Y017600D03*
X055995Y017600D03*
X056665Y017600D03*
X057745Y017600D03*
X058415Y017600D03*
X049615Y024200D03*
X048945Y024200D03*
X051445Y025650D03*
X052115Y025650D03*
X052115Y026700D03*
X051445Y026700D03*
X041115Y027350D03*
X040445Y027350D03*
X034515Y021800D03*
X033845Y021800D03*
X033765Y020600D03*
X033095Y020600D03*
X034545Y020600D03*
X035215Y020600D03*
X036445Y020850D03*
X037115Y020850D03*
X029615Y020950D03*
X028945Y020950D03*
X029045Y025050D03*
X029715Y025050D03*
X049295Y004900D03*
X049965Y004900D03*
D13*
X024089Y018852D03*
X024089Y020648D03*
X024089Y022102D03*
X024089Y023898D03*
D14*
X026916Y023000D03*
X026916Y019750D03*
D15*
X029024Y019406D03*
X029280Y019406D03*
X029536Y019406D03*
X029536Y020194D03*
X029280Y020194D03*
X029024Y020194D03*
X029024Y023306D03*
X029280Y023306D03*
X029536Y023306D03*
X029536Y024094D03*
X029280Y024094D03*
X029024Y024094D03*
X023536Y015994D03*
X023280Y015994D03*
X023024Y015994D03*
X023024Y015206D03*
X023280Y015206D03*
X023536Y015206D03*
X023430Y012994D03*
X023686Y012994D03*
X023174Y012994D03*
X023174Y012206D03*
X023430Y012206D03*
X023686Y012206D03*
X023624Y010044D03*
X023880Y010044D03*
X024136Y010044D03*
X024136Y009256D03*
X023880Y009256D03*
X023624Y009256D03*
D16*
X031864Y018750D03*
X033596Y018750D03*
X054564Y012050D03*
X056296Y012050D03*
D17*
X049604Y013350D03*
X049604Y013850D03*
X049604Y014350D03*
X049604Y014850D03*
X047556Y014850D03*
X047556Y014350D03*
X047556Y013850D03*
X047556Y013350D03*
X036054Y003800D03*
X036054Y003300D03*
X036054Y002800D03*
X036054Y002300D03*
X034006Y002300D03*
X034006Y002800D03*
X034006Y003300D03*
X034006Y003800D03*
X028754Y015100D03*
X028754Y015600D03*
X028754Y016100D03*
X028754Y016600D03*
X026706Y016600D03*
X026706Y016100D03*
X026706Y015600D03*
X026706Y015100D03*
D18*
X028230Y013583D03*
X028230Y012717D03*
D19*
X048597Y010650D03*
X049463Y010650D03*
D20*
X049850Y003850D03*
X049850Y002850D03*
X053810Y002850D03*
X053810Y003850D03*
D21*
X052754Y007300D03*
X052006Y007300D03*
X053756Y010750D03*
X054504Y010750D03*
X029554Y011100D03*
X028806Y011100D03*
D22*
X050380Y018476D03*
X050380Y019224D03*
X058430Y016274D03*
X058430Y015526D03*
X058430Y014574D03*
X058430Y013826D03*
X051830Y012024D03*
X051830Y011276D03*
X054080Y007924D03*
X054080Y007176D03*
X054980Y007176D03*
X054980Y007924D03*
D23*
X050574Y011344D03*
X050574Y011600D03*
X050574Y011856D03*
X049786Y011856D03*
X049786Y011600D03*
X049786Y011344D03*
D24*
X052356Y023067D03*
X053104Y023067D03*
X054006Y023067D03*
X054754Y023067D03*
X055656Y023067D03*
X056404Y023067D03*
X057306Y023067D03*
X058054Y023067D03*
X057680Y023933D03*
X056030Y023933D03*
X054380Y023933D03*
X052730Y023933D03*
X035854Y024617D03*
X035106Y024617D03*
X035480Y025483D03*
D25*
X053530Y025034D03*
X054930Y025034D03*
X056330Y025034D03*
X057730Y025084D03*
X057730Y026816D03*
X056330Y026766D03*
X054930Y026766D03*
X053530Y026766D03*
D26*
X032930Y021750D03*
X032430Y021750D03*
X031930Y021750D03*
D27*
X032430Y026050D03*
D28*
X047070Y016680D03*
X047980Y016680D03*
X048890Y016680D03*
D29*
X047980Y019120D03*
D30*
X047930Y028250D03*
X046930Y028250D03*
X045930Y028250D03*
X044930Y028250D03*
X043930Y028250D03*
X042930Y028250D03*
X041930Y028250D03*
X040930Y028250D03*
X040930Y029250D03*
X041930Y029250D03*
X042930Y029250D03*
X043930Y029250D03*
X044930Y029250D03*
X045930Y029250D03*
X046930Y029250D03*
X047930Y029250D03*
X049630Y029250D03*
X050630Y029250D03*
X051630Y029250D03*
X052630Y029250D03*
X053630Y029250D03*
X054630Y029250D03*
X055630Y029250D03*
X056630Y029250D03*
X056630Y028250D03*
X055630Y028250D03*
X054630Y028250D03*
X053630Y028250D03*
X052630Y028250D03*
X051630Y028250D03*
X050630Y028250D03*
X049630Y028250D03*
X039180Y028250D03*
X038180Y028250D03*
X037180Y028250D03*
X036180Y028250D03*
X035180Y028250D03*
X034180Y028250D03*
X033180Y028250D03*
X032180Y028250D03*
X032180Y029250D03*
X033180Y029250D03*
X034180Y029250D03*
X035180Y029250D03*
X036180Y029250D03*
X037180Y029250D03*
X038180Y029250D03*
X039180Y029250D03*
X030480Y029250D03*
X029480Y029250D03*
X028480Y029250D03*
X027480Y029250D03*
X026480Y029250D03*
X025480Y029250D03*
X024480Y029250D03*
X023480Y029250D03*
X023480Y028250D03*
X024480Y028250D03*
X025480Y028250D03*
X026480Y028250D03*
X027480Y028250D03*
X028480Y028250D03*
X029480Y028250D03*
X030480Y028250D03*
X030430Y006900D03*
X031430Y006900D03*
X032430Y006900D03*
X033430Y006900D03*
X034430Y006900D03*
X035430Y006900D03*
X036430Y006900D03*
X037430Y006900D03*
X038430Y006900D03*
X039430Y006900D03*
X040430Y006900D03*
X041430Y006900D03*
X042430Y006900D03*
X043430Y006900D03*
X044430Y006900D03*
X045430Y006900D03*
X045430Y005900D03*
X044430Y005900D03*
X043430Y005900D03*
X042430Y005900D03*
X041430Y005900D03*
X040430Y005900D03*
X039430Y005900D03*
X038430Y005900D03*
X037430Y005900D03*
X036430Y005900D03*
X035430Y005900D03*
X034430Y005900D03*
X033430Y005900D03*
X032430Y005900D03*
X031430Y005900D03*
X030430Y005900D03*
X029430Y005900D03*
X028430Y005900D03*
X027430Y005900D03*
X026430Y005900D03*
X025430Y005900D03*
X024430Y005900D03*
X023430Y005900D03*
X023430Y006900D03*
X024430Y006900D03*
X025430Y006900D03*
X026430Y006900D03*
X027430Y006900D03*
X028430Y006900D03*
X029430Y006900D03*
X028580Y004350D03*
X027580Y004350D03*
X026580Y004350D03*
X025580Y004350D03*
X024580Y004350D03*
X023580Y004350D03*
X023580Y003350D03*
X024580Y003350D03*
X025580Y003350D03*
X026580Y003350D03*
X027580Y003350D03*
X028580Y003350D03*
X028580Y002350D03*
X027580Y002350D03*
X026580Y002350D03*
X025580Y002350D03*
X024580Y002350D03*
X023580Y002350D03*
D31*
X030185Y002350D02*
X030775Y002350D01*
X030775Y003350D02*
X030185Y003350D01*
X027025Y009480D02*
X026435Y009480D01*
X026435Y010480D02*
X027025Y010480D01*
X027025Y011480D02*
X026435Y011480D01*
X031730Y014855D02*
X031730Y015445D01*
X032730Y015445D02*
X032730Y014855D01*
X038775Y016660D02*
X039365Y016660D01*
X039365Y017660D02*
X038775Y017660D01*
X038775Y018660D02*
X039365Y018660D01*
X024880Y025505D02*
X024880Y026095D01*
X023880Y026095D02*
X023880Y025505D01*
X051880Y006095D02*
X051880Y005505D01*
X052880Y005505D02*
X052880Y006095D01*
D32*
X055930Y010000D03*
D33*
X055930Y009055D03*
X056127Y009055D03*
X056324Y009055D03*
X055733Y009055D03*
X055536Y009055D03*
X055536Y010945D03*
X055733Y010945D03*
X055930Y010945D03*
X056127Y010945D03*
X056324Y010945D03*
D34*
X044782Y016498D03*
X044526Y016498D03*
X044270Y016498D03*
X044014Y016498D03*
X043758Y016498D03*
X043502Y016498D03*
X043246Y016498D03*
X042990Y016498D03*
X042734Y016498D03*
X042478Y016498D03*
X042478Y018702D03*
X042734Y018702D03*
X042990Y018702D03*
X043246Y018702D03*
X043502Y018702D03*
X043758Y018702D03*
X044014Y018702D03*
X044270Y018702D03*
X044526Y018702D03*
X044782Y018702D03*
D35*
X051850Y009500D03*
X053910Y009500D03*
D36*
X057279Y012200D03*
X058381Y012200D03*
D37*
X044042Y020050D03*
X043845Y020050D03*
X043649Y020050D03*
X043452Y020050D03*
X043255Y020050D03*
X043058Y020050D03*
X042861Y020050D03*
X042664Y020050D03*
X042467Y020050D03*
X042271Y020050D03*
X042074Y020050D03*
X041877Y020050D03*
X041680Y020050D03*
X041483Y020050D03*
X041286Y020050D03*
X041089Y020050D03*
X040893Y020050D03*
X040696Y020050D03*
X040499Y020050D03*
X040302Y020050D03*
X040105Y020050D03*
X039908Y020050D03*
X039711Y020050D03*
X039515Y020050D03*
X039318Y020050D03*
X039318Y026350D03*
X039515Y026350D03*
X039711Y026350D03*
X039908Y026350D03*
X040105Y026350D03*
X040302Y026350D03*
X040499Y026350D03*
X040696Y026350D03*
X040893Y026350D03*
X041089Y026350D03*
X041286Y026350D03*
X041483Y026350D03*
X041680Y026350D03*
X041877Y026350D03*
X042074Y026350D03*
X042271Y026350D03*
X042467Y026350D03*
X042664Y026350D03*
X042861Y026350D03*
X043058Y026350D03*
X043255Y026350D03*
X043452Y026350D03*
X043649Y026350D03*
X043845Y026350D03*
X044042Y026350D03*
D38*
X044830Y025562D03*
X044830Y025365D03*
X044830Y025169D03*
X044830Y024972D03*
X044830Y024775D03*
X044830Y024578D03*
X044830Y024381D03*
X044830Y024184D03*
X044830Y023987D03*
X044830Y023791D03*
X044830Y023594D03*
X044830Y023397D03*
X044830Y023200D03*
X044830Y023003D03*
X044830Y022806D03*
X044830Y022609D03*
X044830Y022413D03*
X044830Y022216D03*
X044830Y022019D03*
X044830Y021822D03*
X044830Y021625D03*
X044830Y021428D03*
X044830Y021231D03*
X044830Y021035D03*
X044830Y020838D03*
X038530Y020838D03*
X038530Y021035D03*
X038530Y021231D03*
X038530Y021428D03*
X038530Y021625D03*
X038530Y021822D03*
X038530Y022019D03*
X038530Y022216D03*
X038530Y022413D03*
X038530Y022609D03*
X038530Y022806D03*
X038530Y023003D03*
X038530Y023200D03*
X038530Y023397D03*
X038530Y023594D03*
X038530Y023791D03*
X038530Y023987D03*
X038530Y024184D03*
X038530Y024381D03*
X038530Y024578D03*
X038530Y024775D03*
X038530Y024972D03*
X038530Y025169D03*
X038530Y025365D03*
X038530Y025562D03*
D39*
X007593Y023182D02*
X006367Y023182D01*
X006367Y019168D02*
X007593Y019168D01*
X007593Y012932D02*
X006367Y012932D01*
X006367Y008918D02*
X007593Y008918D01*
X007593Y002682D02*
X006367Y002682D01*
X006367Y029418D02*
X007593Y029418D01*
D40*
X007541Y027859D02*
X006419Y027859D01*
X006419Y026300D02*
X007541Y026300D01*
X007541Y024741D02*
X006419Y024741D01*
X006419Y017609D02*
X007541Y017609D01*
X007541Y016050D02*
X006419Y016050D01*
X006419Y014491D02*
X007541Y014491D01*
X007541Y007359D02*
X006419Y007359D01*
X006419Y005800D02*
X007541Y005800D01*
X007541Y004241D02*
X006419Y004241D01*
D41*
X052780Y014950D03*
X056480Y014950D03*
D42*
X048180Y002245D03*
X048180Y001655D03*
X046930Y001655D03*
X046930Y002245D03*
X045530Y002245D03*
X045530Y001655D03*
X044230Y001655D03*
X044230Y002245D03*
X042930Y002245D03*
X042930Y001655D03*
D43*
X041723Y002600D03*
X041723Y003600D03*
X038337Y003600D03*
X038337Y002600D03*
D44*
X003590Y014030D03*
X002470Y014570D03*
X003590Y015120D03*
X002470Y015660D03*
X003590Y016200D03*
X002470Y016750D03*
X003590Y017290D03*
X002470Y017830D03*
X003590Y018380D03*
X002470Y018920D03*
X003590Y019460D03*
X002470Y020010D03*
X003590Y020550D03*
X002470Y021090D03*
X003590Y021640D03*
X002470Y022180D03*
X003590Y022720D03*
X002470Y023270D03*
X003590Y023810D03*
X002470Y024350D03*
X003590Y024900D03*
X002470Y025440D03*
X003590Y025980D03*
X002470Y026530D03*
X003590Y027070D03*
D45*
X003030Y029810D03*
X003030Y011290D03*
D46*
X023420Y011050D03*
X024540Y011050D03*
X024490Y014300D03*
X023370Y014300D03*
X023220Y017150D03*
X024340Y017150D03*
X028820Y018100D03*
X029940Y018100D03*
X029890Y021950D03*
X028770Y021950D03*
D47*
X048030Y007100D03*
X049030Y007100D03*
X050030Y007100D03*
X050030Y006100D03*
X049030Y006100D03*
X048030Y006100D03*
D48*
X047480Y021272D03*
X047480Y022728D03*
D49*
X032930Y003100D03*
X003130Y005700D03*
X001330Y005700D03*
X001330Y007150D03*
X003130Y007150D03*
X003130Y008700D03*
X001330Y008700D03*
D50*
X002030Y003500D03*
X035730Y017050D03*
X046030Y026000D03*
X021780Y029500D03*
X058130Y005600D03*
D51*
X051330Y015000D03*
X051330Y016200D03*
D52*
X050280Y015500D03*
X044380Y017200D03*
X044430Y017600D03*
X044030Y018050D03*
X043380Y018050D03*
X042980Y017850D03*
X041530Y017550D03*
X041380Y017900D03*
X041380Y016900D03*
X037880Y018850D03*
X036280Y018300D03*
X035280Y018450D03*
X038130Y020400D03*
X039255Y021225D03*
X039280Y021850D03*
X037880Y021500D03*
X037730Y021850D03*
X037080Y022300D03*
X036830Y021500D03*
X035780Y022050D03*
X035680Y021150D03*
X035730Y020750D03*
X034230Y022600D03*
X033680Y022600D03*
X031230Y021650D03*
X029980Y020250D03*
X028630Y020350D03*
X029880Y019050D03*
X029130Y016900D03*
X030580Y014950D03*
X031530Y014000D03*
X032380Y011050D03*
X037730Y009900D03*
X038430Y009350D03*
X038980Y008850D03*
X032980Y004900D03*
X031930Y003850D03*
X030930Y004950D03*
X035280Y001400D03*
X041930Y004500D03*
X042930Y004550D03*
X046380Y005050D03*
X046880Y004500D03*
X048130Y004500D03*
X049080Y003850D03*
X049380Y002350D03*
X054480Y002850D03*
X057230Y006550D03*
X058530Y008650D03*
X056880Y009050D03*
X056130Y009825D03*
X056130Y010175D03*
X055730Y010175D03*
X055730Y009825D03*
X058530Y009950D03*
X058530Y010850D03*
X051080Y010600D03*
X051030Y011100D03*
X051030Y011850D03*
X049280Y012000D03*
X050530Y009350D03*
X045480Y019150D03*
X044780Y019350D03*
X045880Y019600D03*
X045480Y020350D03*
X047230Y020200D03*
X049280Y020350D03*
X052180Y020700D03*
X053055Y020700D03*
X053930Y020650D03*
X054605Y020650D03*
X055680Y020700D03*
X056405Y020700D03*
X057480Y020700D03*
X058305Y020700D03*
X058055Y022450D03*
X056405Y022450D03*
X054755Y022500D03*
X052955Y022400D03*
X051080Y023950D03*
X050130Y024200D03*
X050680Y024350D03*
X045680Y024600D03*
X045380Y024900D03*
X043930Y023750D03*
X043780Y023400D03*
X044030Y023050D03*
X043880Y022350D03*
X044180Y022025D03*
X043180Y021400D03*
X042630Y021300D03*
X042280Y021000D03*
X041930Y020850D03*
X041330Y021350D03*
X040980Y021000D03*
X042930Y020750D03*
X043430Y020750D03*
X043780Y020850D03*
X042430Y019450D03*
X041380Y019425D03*
X045680Y022450D03*
X041280Y025100D03*
X041530Y025550D03*
X042080Y025550D03*
X040530Y025100D03*
X039280Y024775D03*
X039380Y024250D03*
X040380Y023850D03*
X040730Y024100D03*
X037430Y023850D03*
X036930Y023500D03*
X036530Y023800D03*
X036630Y024300D03*
X037030Y024550D03*
X036480Y024800D03*
X034980Y026250D03*
X034330Y026000D03*
X033080Y027050D03*
X029930Y024400D03*
X028630Y024250D03*
X030280Y023300D03*
X036480Y023200D03*
X041480Y026900D03*
X041830Y026900D03*
X040080Y027850D03*
X024880Y016600D03*
X022630Y016350D03*
X022580Y015200D03*
X024580Y014950D03*
X024680Y013600D03*
X022680Y013400D03*
X023180Y011800D03*
X024680Y011850D03*
X023180Y010350D03*
X023180Y009100D03*
X024480Y007750D03*
D53*
X024230Y008000D01*
X024230Y008385D01*
X024215Y008400D01*
X024165Y008450D02*
X024136Y008479D01*
X024136Y009256D01*
X023880Y009256D02*
X023624Y009256D01*
X023336Y009256D01*
X023180Y009100D01*
X023495Y008785D01*
X023495Y008450D01*
X023624Y010044D02*
X023624Y010206D01*
X023480Y010350D01*
X023180Y010350D01*
X023430Y010700D02*
X023430Y011040D01*
X023420Y011050D01*
X023430Y010700D02*
X023880Y010250D01*
X023880Y010044D01*
X024136Y010044D02*
X024136Y010206D01*
X024580Y010650D01*
X024580Y011010D01*
X024540Y011050D01*
X023180Y011800D02*
X023180Y012200D01*
X023174Y012206D01*
X023430Y012206D01*
X023430Y012994D02*
X023430Y014240D01*
X023370Y014300D01*
X024490Y014300D02*
X024530Y014260D01*
X024530Y014000D01*
X023686Y013156D01*
X023686Y012994D01*
X023174Y012994D02*
X023174Y013256D01*
X023030Y013400D01*
X022680Y013400D01*
X024680Y013600D02*
X024680Y013135D01*
X024680Y012465D02*
X024421Y012206D01*
X028730Y009835D02*
X029554Y010659D01*
X029554Y011100D01*
X029580Y011074D02*
X031506Y011074D01*
X031930Y010650D01*
X031930Y010135D01*
X031930Y009465D02*
X031930Y003850D01*
X032945Y003800D02*
X032980Y003765D01*
X033015Y003800D01*
X034006Y003800D01*
X033980Y003826D01*
X033980Y004350D01*
X035030Y005400D01*
X035630Y005400D01*
X035930Y005700D01*
X035930Y006050D01*
X036430Y006550D01*
X036430Y006900D01*
X037430Y006900D02*
X037430Y007850D01*
X043758Y014178D01*
X043758Y016498D01*
X044014Y016498D02*
X044030Y016481D01*
X044030Y014000D01*
X038980Y008850D01*
X039480Y008500D02*
X039480Y007965D01*
X039495Y007950D01*
X039480Y007935D01*
X039480Y007600D01*
X039930Y007150D01*
X039930Y006450D01*
X040430Y005950D01*
X040430Y005900D01*
X040078Y005168D02*
X040929Y005175D01*
X040929Y007883D01*
X040895Y007950D01*
X040165Y007950D01*
X039480Y008500D02*
X044270Y013290D01*
X044270Y016498D01*
X044526Y016498D02*
X044526Y012450D01*
X044530Y012446D01*
X044530Y011450D01*
X041565Y008485D01*
X041565Y007950D01*
X042280Y007935D02*
X042295Y007950D01*
X042280Y007935D02*
X042280Y007700D01*
X041480Y006900D01*
X041430Y006900D01*
X042430Y006900D02*
X042430Y005900D01*
X040929Y005175D02*
X044080Y005200D01*
X044230Y004450D02*
X044980Y005200D01*
X044980Y007450D01*
X045180Y007650D01*
X045180Y020750D01*
X045130Y020800D01*
X044867Y020800D01*
X044830Y020838D01*
X044042Y021238D02*
X043880Y021400D01*
X043880Y022350D01*
X043639Y022609D02*
X043180Y022150D01*
X043180Y021400D01*
X042630Y021300D02*
X042630Y020850D01*
X042467Y020687D01*
X042467Y020050D01*
X042271Y020050D02*
X042271Y020991D01*
X042280Y021000D01*
X041930Y020850D02*
X042074Y020606D01*
X042074Y020050D01*
X041680Y020050D02*
X041680Y020700D01*
X041330Y021350D01*
X040980Y021000D02*
X041286Y020694D01*
X041286Y020050D01*
X041089Y020050D02*
X041089Y019559D01*
X041224Y019425D01*
X041380Y019425D01*
X041855Y019425D01*
X041880Y019400D01*
X041830Y019350D01*
X041805Y019035D01*
X041880Y019400D02*
X041980Y019500D01*
X042380Y019500D01*
X042430Y019450D01*
X042734Y019146D01*
X042734Y018702D01*
X042478Y018702D02*
X042478Y017852D01*
X042480Y017450D01*
X041930Y017200D01*
X040580Y017200D01*
X039980Y017800D01*
X039980Y018800D01*
X039515Y019265D01*
X039515Y020050D01*
X039711Y020050D02*
X039711Y019419D01*
X040230Y018900D01*
X040230Y017850D01*
X040530Y017550D01*
X041530Y017550D01*
X041380Y017900D02*
X041680Y017900D01*
X041830Y018050D01*
X041830Y018340D01*
X041805Y018365D01*
X041380Y017900D02*
X041130Y017900D01*
X040930Y018100D01*
X040930Y018365D01*
X040930Y019035D02*
X040930Y019400D01*
X041089Y019559D01*
X040499Y020050D02*
X040499Y020969D01*
X040730Y021200D01*
X040730Y024100D01*
X040380Y023850D02*
X040380Y021300D01*
X040302Y021228D01*
X040302Y020050D01*
X040105Y020050D02*
X040105Y020675D01*
X040105Y024225D01*
X040980Y025100D01*
X041280Y025100D01*
X041530Y025550D02*
X041877Y025897D01*
X041877Y026350D01*
X042074Y026350D02*
X042080Y027100D01*
X042074Y025556D01*
X042080Y025550D01*
X040530Y025100D02*
X039830Y024450D01*
X039830Y021000D01*
X039318Y020488D01*
X039318Y020050D01*
X038415Y019935D02*
X039630Y021150D01*
X039630Y021950D01*
X039380Y022200D01*
X038546Y022200D01*
X038530Y022216D01*
X038530Y022413D02*
X037143Y022413D01*
X037080Y022300D01*
X037380Y022150D02*
X037930Y022150D01*
X038061Y022019D01*
X038530Y022019D01*
X038530Y021822D02*
X037802Y021822D01*
X037730Y021850D01*
X037880Y021500D02*
X038055Y021625D01*
X038530Y021625D01*
X038530Y021428D02*
X039058Y021428D01*
X039280Y021650D01*
X039280Y021850D01*
X038530Y021231D02*
X037961Y021231D01*
X037580Y020850D01*
X037115Y020850D01*
X037115Y021215D01*
X036830Y021500D01*
X036480Y021750D02*
X036730Y022000D01*
X037230Y022000D01*
X037380Y022150D01*
X036939Y022609D02*
X036380Y022050D01*
X035780Y022050D01*
X035880Y021750D02*
X036480Y021750D01*
X035880Y021750D02*
X035680Y021550D01*
X035680Y021150D01*
X035280Y021350D02*
X035280Y022050D01*
X035680Y022450D01*
X036480Y022450D01*
X036830Y022800D01*
X038524Y022800D01*
X038530Y022806D01*
X038527Y023000D02*
X038530Y023003D01*
X038527Y023000D02*
X036680Y023000D01*
X036545Y022865D01*
X035880Y022865D01*
X034980Y022865D01*
X034580Y023500D02*
X034230Y023150D01*
X034230Y022600D01*
X034230Y022550D01*
X034480Y022300D01*
X034480Y021835D01*
X034515Y021800D01*
X034830Y021150D02*
X035080Y021150D01*
X035280Y021350D01*
X034830Y021150D02*
X034545Y020865D01*
X034545Y020600D01*
X033765Y020600D01*
X033095Y020600D02*
X032730Y020600D01*
X032430Y020900D01*
X032430Y021750D01*
X031930Y021750D02*
X031830Y021650D01*
X031230Y021650D01*
X029890Y021950D02*
X029890Y022490D01*
X029280Y023100D01*
X029280Y023306D01*
X029030Y023300D02*
X029024Y023306D01*
X029030Y023300D02*
X029030Y022300D01*
X028770Y022040D01*
X028770Y021950D01*
X029615Y020950D02*
X029630Y020935D01*
X029630Y020550D01*
X029536Y020456D01*
X029536Y020194D01*
X029924Y020194D01*
X029980Y020250D01*
X029536Y020194D02*
X029280Y020194D01*
X029280Y019406D02*
X029280Y019100D01*
X029930Y018450D01*
X029930Y018110D01*
X029940Y018100D01*
X029030Y018550D02*
X028830Y018350D01*
X028830Y018420D01*
X028820Y018410D01*
X029030Y018550D02*
X029024Y018956D01*
X029024Y019406D01*
X029536Y019406D02*
X029536Y019244D01*
X029730Y019050D01*
X029880Y019050D01*
X035280Y018915D02*
X035280Y018450D01*
X036280Y018300D02*
X036280Y018915D01*
X037230Y019265D02*
X038465Y019265D01*
X039070Y018660D01*
X037880Y018850D02*
X037880Y017900D01*
X033880Y013900D01*
X032380Y013885D01*
X031530Y014000D02*
X031530Y013091D01*
X031413Y012974D01*
X030980Y013850D02*
X030615Y013850D01*
X030580Y013815D01*
X030980Y013850D02*
X031180Y014050D01*
X031180Y014900D01*
X031480Y015150D01*
X031730Y015150D01*
X032380Y011565D02*
X032380Y011050D01*
X030415Y009165D02*
X028730Y009165D01*
X028695Y009200D02*
X027830Y009200D01*
X027530Y009450D01*
X026750Y009450D01*
X026730Y009480D01*
X030415Y009165D02*
X030930Y008650D01*
X030930Y004950D01*
X033945Y005365D02*
X033980Y005400D01*
X034995Y004865D02*
X035180Y005050D01*
X035580Y005050D01*
X036430Y005900D01*
X036930Y006400D02*
X036930Y008400D01*
X043255Y014775D01*
X043255Y016489D01*
X043246Y016498D01*
X042990Y016498D02*
X042980Y016487D01*
X042980Y015150D01*
X037730Y009900D01*
X038430Y009350D02*
X043530Y014550D01*
X043502Y016498D01*
X042734Y016498D02*
X042734Y015754D01*
X042480Y015950D02*
X042480Y016496D01*
X042478Y016498D01*
X042734Y016498D02*
X042734Y016946D01*
X042630Y017050D01*
X042230Y017050D01*
X041880Y016700D01*
X041880Y016315D01*
X041865Y016300D01*
X041195Y016300D02*
X041180Y016315D01*
X041180Y016700D01*
X041380Y016900D01*
X042480Y015950D02*
X034430Y007900D01*
X034430Y006900D01*
X036930Y006400D02*
X037430Y005900D01*
X037630Y005150D02*
X040078Y005168D01*
X041930Y004500D02*
X041930Y003807D01*
X041723Y003600D01*
X041930Y003600D01*
X041930Y002807D01*
X041723Y002600D01*
X042930Y003935D02*
X042930Y004550D01*
X044230Y004450D02*
X044230Y003935D01*
X044230Y003265D02*
X044230Y002245D01*
X046380Y001850D02*
X046380Y005050D01*
X046880Y004500D02*
X046880Y003885D01*
X046930Y003885D01*
X046930Y003215D02*
X046930Y002245D01*
X046930Y001655D02*
X046585Y001655D01*
X046580Y001650D01*
X046380Y001850D01*
X048180Y002245D02*
X048180Y003215D01*
X048180Y003885D02*
X048130Y003885D01*
X048130Y004500D01*
X048530Y005200D02*
X048530Y006600D01*
X048030Y007100D01*
X049965Y006035D02*
X050030Y006100D01*
X049965Y006035D02*
X049965Y004900D01*
X049295Y004900D02*
X048830Y004900D01*
X048530Y005200D01*
X049080Y003850D02*
X049850Y003850D01*
X049850Y002850D02*
X049380Y002350D01*
X045530Y003935D02*
X045530Y004850D01*
X046230Y005550D01*
X046230Y009800D01*
X045480Y010550D01*
X045480Y019150D01*
X044782Y019348D02*
X044782Y018702D01*
X044280Y018713D02*
X044270Y018702D01*
X044270Y018260D01*
X044430Y018100D01*
X044430Y017600D01*
X044380Y017200D02*
X043758Y017778D01*
X043758Y018702D01*
X043758Y019122D01*
X043255Y019625D01*
X043255Y020050D01*
X043452Y020050D02*
X043452Y019728D01*
X044030Y019150D01*
X044030Y018719D01*
X044014Y018702D01*
X044014Y018066D01*
X044030Y018050D01*
X043502Y018172D02*
X043380Y018050D01*
X043502Y018172D02*
X043502Y018702D01*
X043502Y019078D01*
X043058Y019522D01*
X043058Y020050D01*
X042861Y020050D02*
X042861Y019419D01*
X043230Y019050D01*
X043230Y018719D01*
X043246Y018702D01*
X042990Y018702D02*
X042990Y017860D01*
X042980Y017850D01*
X044280Y018713D02*
X044280Y021550D01*
X044355Y021625D01*
X044830Y021625D01*
X044852Y021800D02*
X044830Y021822D01*
X044852Y021800D02*
X045280Y021800D01*
X045480Y021600D01*
X045480Y020350D01*
X045680Y020200D01*
X046095Y020200D01*
X046765Y020200D02*
X047230Y020200D01*
X046745Y021115D02*
X046280Y021115D01*
X046265Y021100D01*
X045980Y021100D01*
X045730Y021350D01*
X045730Y021850D01*
X045380Y022200D01*
X045064Y022216D01*
X044830Y022216D01*
X044824Y022025D02*
X044180Y022025D01*
X044824Y022025D02*
X044830Y022019D01*
X044830Y022413D02*
X045193Y022413D01*
X045830Y023050D01*
X046265Y023050D01*
X046280Y023035D01*
X046595Y023035D01*
X046930Y022700D01*
X047452Y022700D01*
X047480Y022728D01*
X046280Y022365D02*
X046280Y021785D01*
X046280Y022365D02*
X045765Y022365D01*
X045680Y022450D01*
X044830Y022609D02*
X043639Y022609D01*
X044030Y023050D02*
X044180Y023200D01*
X044830Y023200D01*
X044830Y023397D02*
X044033Y023397D01*
X043780Y023400D01*
X044086Y023594D02*
X043930Y023750D01*
X044086Y023594D02*
X044830Y023594D01*
X044830Y024184D02*
X045296Y024184D01*
X045430Y024050D01*
X046280Y024050D01*
X046630Y023700D01*
X048330Y023700D01*
X049230Y022800D01*
X049280Y022800D01*
X049280Y021985D01*
X049280Y021315D02*
X049280Y020350D01*
X047480Y021272D02*
X047458Y021250D01*
X046880Y021250D01*
X046745Y021115D01*
X045880Y019600D02*
X045880Y016100D01*
X046280Y015700D01*
X048680Y015700D01*
X048680Y013050D01*
X049580Y012350D01*
X050480Y012350D01*
X050574Y012256D01*
X050574Y011856D01*
X050574Y011600D02*
X050780Y011600D01*
X051030Y011850D01*
X051530Y012000D02*
X050874Y011344D01*
X050574Y011344D01*
X051030Y011100D02*
X051230Y011300D01*
X051806Y011300D01*
X051830Y011276D01*
X051806Y012000D02*
X051530Y012000D01*
X051806Y012000D02*
X051830Y012024D01*
X051080Y010600D02*
X050315Y010600D01*
X050330Y010585D01*
X050315Y010600D02*
X050130Y010600D01*
X049786Y010944D01*
X049786Y011344D01*
X049786Y011600D02*
X049786Y011856D01*
X049780Y011850D01*
X049430Y011850D01*
X049280Y012000D01*
X049430Y010900D02*
X047556Y012324D01*
X047556Y013350D01*
X046980Y013850D02*
X046780Y013650D01*
X046780Y012500D01*
X048597Y011133D01*
X048597Y010650D01*
X048595Y010648D01*
X048595Y009650D01*
X049265Y009650D02*
X049580Y009650D01*
X050080Y009150D01*
X050080Y008465D01*
X050095Y008450D01*
X050765Y008450D02*
X052380Y008450D01*
X052780Y008050D01*
X052780Y007326D01*
X052754Y007300D01*
X052880Y007174D01*
X052880Y005800D01*
X053280Y005800D01*
X053810Y005270D01*
X053810Y003850D01*
X053810Y002850D02*
X054480Y002850D01*
X051880Y005800D02*
X051880Y007174D01*
X052006Y007300D01*
X054980Y007850D02*
X054980Y007900D01*
X054980Y007924D01*
X055406Y007924D01*
X055680Y007650D01*
X055680Y007165D01*
X055695Y007150D01*
X056365Y007150D02*
X056380Y007285D01*
X056380Y007750D01*
X055733Y008397D01*
X055733Y009055D01*
X055930Y009055D02*
X055930Y008500D01*
X056680Y007750D01*
X057195Y007750D01*
X057230Y007785D01*
X057230Y007115D02*
X057230Y006550D01*
X055030Y007900D02*
X054980Y007850D01*
X054980Y007900D02*
X055030Y007950D01*
X056127Y008803D02*
X056280Y008650D01*
X057395Y008650D01*
X058065Y008650D02*
X058530Y008650D01*
X058530Y009950D02*
X058065Y009950D01*
X057395Y009950D02*
X057395Y010850D01*
X057300Y010945D01*
X056324Y010945D01*
X056127Y010945D02*
X056127Y010178D01*
X056130Y010175D01*
X055930Y010000D02*
X056105Y009825D01*
X056130Y009825D01*
X056127Y009055D02*
X056127Y008803D01*
X058065Y010850D02*
X058530Y010850D01*
X055733Y011447D02*
X055630Y011400D01*
X050530Y009350D02*
X050330Y009550D01*
X050330Y009915D01*
X049463Y009848D02*
X049265Y009650D01*
X049463Y009848D02*
X049463Y010650D01*
X049430Y010683D01*
X049430Y010900D01*
X044782Y010700D02*
X044780Y010698D01*
X044780Y009650D01*
X043795Y008665D01*
X043795Y007950D01*
X042965Y007950D01*
X044465Y007950D02*
X044480Y007935D01*
X044480Y007550D01*
X044430Y007500D01*
X044430Y006900D01*
X038337Y003600D02*
X038287Y003550D01*
X038080Y003550D01*
X038030Y003500D01*
X038030Y003300D01*
X037495Y002765D01*
X037230Y002765D01*
X037195Y002800D01*
X036054Y002800D01*
X036054Y002300D02*
X036880Y002300D01*
X037380Y001800D01*
X037965Y001800D01*
X037980Y001785D01*
X037980Y002550D01*
X038030Y002600D01*
X038337Y002600D01*
X037230Y002765D02*
X037145Y002800D01*
X037230Y003435D02*
X037230Y003700D01*
X037630Y004100D01*
X037630Y004335D01*
X037615Y004350D01*
X037630Y004365D01*
X037630Y005150D01*
X036280Y004600D02*
X035665Y004600D01*
X036265Y004615D02*
X036280Y004600D01*
X036930Y004335D02*
X036945Y004350D01*
X036930Y004335D02*
X036930Y004050D01*
X036830Y003950D01*
X036830Y003500D01*
X036630Y003300D01*
X036054Y003300D01*
X034980Y003600D02*
X034680Y003300D01*
X034006Y003300D01*
X034980Y003600D02*
X034980Y004585D01*
X034995Y004600D01*
X034995Y004865D01*
X032930Y003100D02*
X032930Y002700D01*
X033030Y002800D01*
X034006Y002800D01*
X032930Y002700D02*
X032930Y002385D01*
X033995Y001400D02*
X034006Y001411D01*
X034665Y001400D02*
X035280Y001400D01*
X044782Y010700D02*
X044782Y016498D01*
X044782Y019348D02*
X044780Y019350D01*
X044042Y020050D02*
X044042Y021238D01*
X043780Y020850D02*
X043845Y020665D01*
X043845Y020050D01*
X043649Y020050D02*
X043649Y020569D01*
X043430Y020750D01*
X042930Y020750D02*
X042664Y020484D01*
X042664Y020050D01*
X038415Y019935D02*
X037230Y019935D01*
X037215Y019950D01*
X036430Y019950D01*
X036280Y019800D01*
X036280Y019585D01*
X035280Y019585D01*
X035215Y020600D02*
X035580Y020600D01*
X035730Y020750D01*
X036030Y020750D01*
X036130Y020850D01*
X036445Y020850D01*
X036939Y022609D02*
X038530Y022609D01*
X038530Y023200D02*
X036480Y023200D01*
X036930Y023500D02*
X037033Y023397D01*
X038530Y023397D01*
X038530Y023594D02*
X037286Y023594D01*
X037080Y023800D01*
X036530Y023800D01*
X036630Y024300D02*
X037380Y024300D01*
X037693Y023987D01*
X038530Y023987D01*
X038530Y023791D02*
X037489Y023791D01*
X037430Y023850D01*
X037846Y024184D02*
X037480Y024550D01*
X037030Y024550D01*
X037530Y024800D02*
X036480Y024800D01*
X035854Y024617D02*
X035854Y023711D01*
X035880Y023535D01*
X034980Y023535D02*
X034945Y023500D01*
X034580Y023500D01*
X034230Y024615D02*
X035104Y024615D01*
X035106Y024617D01*
X034230Y025285D02*
X034230Y025650D01*
X033930Y025950D01*
X033930Y026200D01*
X034080Y026350D01*
X034880Y026350D01*
X034980Y026250D01*
X036130Y026250D01*
X036395Y025985D01*
X036980Y025985D01*
X037830Y025650D02*
X037830Y026850D01*
X037730Y026950D01*
X037080Y026950D01*
X036880Y027150D01*
X036180Y027150D01*
X035980Y027350D01*
X035480Y027350D01*
X035230Y027600D01*
X034480Y027600D01*
X034280Y027800D01*
X033630Y027800D01*
X033180Y028250D01*
X032580Y027850D02*
X032180Y028250D01*
X032580Y027850D02*
X032580Y027800D01*
X033280Y027800D01*
X033480Y027600D01*
X033980Y027600D01*
X034180Y027400D01*
X035080Y027400D01*
X035330Y027150D01*
X035880Y027150D01*
X036080Y026950D01*
X036730Y026950D01*
X036930Y026750D01*
X037580Y026750D01*
X037580Y025600D01*
X038011Y025169D01*
X038530Y025169D01*
X038530Y025365D02*
X038115Y025365D01*
X037830Y025650D01*
X038080Y025700D02*
X038218Y025562D01*
X038530Y025562D01*
X038080Y025700D02*
X038080Y027000D01*
X037930Y027150D01*
X037230Y027150D01*
X037030Y027350D01*
X036280Y027350D01*
X036080Y027550D01*
X035630Y027550D01*
X035380Y027800D01*
X034630Y027800D01*
X034180Y028250D01*
X035180Y028250D02*
X035680Y027750D01*
X036180Y027750D01*
X036380Y027550D01*
X037130Y027550D01*
X037330Y027350D01*
X038130Y027350D01*
X038480Y027000D01*
X039080Y027000D01*
X039318Y026762D01*
X039318Y026350D01*
X039515Y026350D02*
X039515Y026865D01*
X038980Y027400D01*
X038380Y027400D01*
X038230Y027550D01*
X037480Y027550D01*
X037280Y027750D01*
X036680Y027750D01*
X036180Y028250D01*
X037180Y028250D02*
X037680Y027750D01*
X038330Y027750D01*
X038480Y027600D01*
X039080Y027600D01*
X039711Y026969D01*
X039711Y026350D01*
X039908Y026350D02*
X039908Y027072D01*
X039130Y027800D01*
X038580Y027800D01*
X038180Y028250D01*
X039180Y028250D02*
X040105Y027325D01*
X040105Y026350D01*
X041483Y026350D02*
X041483Y026897D01*
X041480Y026900D01*
X041680Y026700D02*
X041680Y026350D01*
X041680Y026700D02*
X041830Y026900D01*
X042074Y027106D02*
X041780Y027350D01*
X041115Y027350D01*
X040445Y027350D02*
X040445Y027485D01*
X040080Y027850D01*
X040930Y028250D02*
X041230Y028250D01*
X042271Y027209D01*
X042271Y026350D01*
X042467Y026350D02*
X042467Y027313D01*
X041930Y027850D01*
X041930Y028250D01*
X042930Y028250D02*
X042930Y027700D01*
X042664Y027434D01*
X042664Y026350D01*
X042861Y026350D02*
X042861Y027081D01*
X043480Y027700D01*
X043780Y027700D01*
X043930Y027850D01*
X043930Y028250D01*
X044480Y027450D02*
X044930Y027900D01*
X044930Y028250D01*
X045930Y028250D02*
X045930Y027550D01*
X045580Y027250D01*
X043630Y027250D01*
X043255Y026825D01*
X043255Y026350D01*
X043452Y026350D02*
X043452Y026772D01*
X043730Y027050D01*
X046280Y027050D01*
X046930Y027700D01*
X046930Y028250D01*
X047880Y028200D02*
X047880Y028050D01*
X046730Y026850D01*
X043780Y026850D01*
X043649Y026719D01*
X043649Y026350D01*
X043058Y026350D02*
X043058Y026978D01*
X043530Y027450D01*
X044480Y027450D01*
X047880Y028200D02*
X047930Y028250D01*
X049747Y027367D02*
X050630Y028250D01*
X051130Y028750D02*
X051130Y027450D01*
X050630Y026950D01*
X050630Y026741D01*
X050613Y026724D01*
X051421Y026724D01*
X051445Y026700D01*
X051180Y026200D02*
X050956Y025976D01*
X050613Y025976D01*
X051180Y026200D02*
X052065Y026200D01*
X052115Y026250D01*
X051445Y025650D02*
X051445Y024315D01*
X051080Y023950D01*
X051063Y023933D01*
X051063Y023224D01*
X050630Y023700D02*
X050630Y024300D01*
X050680Y024350D01*
X050130Y024200D02*
X049615Y024200D01*
X048945Y024200D02*
X048945Y026015D01*
X049280Y026350D01*
X049747Y026350D01*
X049747Y027367D01*
X051130Y028750D02*
X050630Y029250D01*
X045380Y024900D02*
X045305Y024775D01*
X044830Y024775D01*
X044830Y024578D02*
X045408Y024578D01*
X045680Y024600D01*
X045399Y024381D02*
X045480Y024300D01*
X046330Y024300D01*
X046680Y023950D01*
X048280Y023950D01*
X048530Y024200D01*
X048945Y024200D01*
X050197Y023267D02*
X050630Y023700D01*
X050197Y023267D02*
X050197Y022850D01*
X050147Y022800D01*
X049280Y022800D01*
X052180Y022250D02*
X052180Y021885D01*
X053030Y021885D01*
X052980Y022400D02*
X053130Y022550D01*
X053130Y023041D01*
X053104Y023067D01*
X052356Y023067D02*
X052356Y022676D01*
X052180Y022250D01*
X052955Y022400D02*
X052980Y022400D01*
X053930Y022550D02*
X053930Y021885D01*
X054780Y021885D01*
X055656Y021909D02*
X055680Y021885D01*
X056530Y021885D01*
X057480Y021885D02*
X057480Y022200D01*
X057306Y022624D01*
X057306Y023067D01*
X058054Y023067D02*
X058055Y023066D01*
X058055Y022450D01*
X058330Y021885D02*
X057480Y021885D01*
X057480Y021215D02*
X057480Y020700D01*
X056530Y020900D02*
X056530Y021215D01*
X056530Y020900D02*
X056405Y020775D01*
X056405Y020700D01*
X055680Y020700D02*
X055680Y021215D01*
X054780Y021215D02*
X054780Y020850D01*
X054605Y020675D01*
X054605Y020650D01*
X053930Y020650D02*
X053930Y021215D01*
X053055Y021190D02*
X053030Y021215D01*
X053055Y021190D02*
X053055Y020700D01*
X052180Y020700D02*
X052180Y021215D01*
X053930Y022550D02*
X054006Y022626D01*
X054006Y023067D01*
X054754Y023067D02*
X054755Y023066D01*
X054755Y022500D01*
X055656Y023067D02*
X055656Y021909D01*
X056405Y022450D02*
X056405Y023066D01*
X056404Y023067D01*
X058330Y021215D02*
X058330Y020750D01*
X058305Y020725D01*
X058305Y020700D01*
X050280Y015500D02*
X050280Y014850D01*
X038530Y024184D02*
X037846Y024184D01*
X037949Y024381D02*
X037530Y024800D01*
X037905Y024775D02*
X038480Y024775D01*
X038530Y024775D01*
X038530Y024381D02*
X037949Y024381D01*
X037905Y024775D02*
X037365Y025315D01*
X036980Y025315D01*
X035480Y025483D02*
X035480Y025800D01*
X035030Y026250D01*
X034980Y026250D01*
X033080Y027050D02*
X032780Y027050D01*
X032430Y026700D01*
X032430Y026050D01*
X029730Y025035D02*
X029715Y025050D01*
X029730Y025035D02*
X029730Y024600D01*
X029930Y024400D01*
X029930Y024300D01*
X029730Y024100D01*
X029542Y024100D01*
X029536Y024094D01*
X029280Y024094D01*
X029024Y024094D02*
X029024Y025029D01*
X029045Y025050D01*
X029536Y023306D02*
X029542Y023300D01*
X030280Y023300D01*
X024340Y017150D02*
X024330Y017140D01*
X024330Y016650D01*
X024030Y016350D01*
X023630Y016350D01*
X023536Y016256D01*
X023536Y015994D01*
X023280Y015994D02*
X023280Y016400D01*
X023230Y016450D01*
X023230Y017140D01*
X023220Y017150D01*
X022930Y016350D02*
X022630Y016350D01*
X022930Y016350D02*
X023024Y016256D01*
X023024Y015994D01*
X023024Y015206D02*
X023280Y015206D01*
X023024Y015206D02*
X023018Y015200D01*
X022580Y015200D01*
X024571Y015206D02*
X024630Y015515D01*
X024630Y016185D02*
X024630Y016400D01*
X024830Y016600D01*
X024880Y016600D01*
X044830Y024381D02*
X045399Y024381D01*
D54*
X051955Y019550D03*
X051980Y018600D03*
X053730Y018600D03*
X053730Y019550D03*
X055455Y019550D03*
X055480Y018600D03*
X057230Y018600D03*
X057230Y019550D03*
X057205Y017600D03*
X058430Y016900D03*
X057630Y015850D03*
X057630Y015350D03*
X057630Y014850D03*
X057630Y014300D03*
X057630Y013800D03*
X057880Y013100D03*
X058330Y013100D03*
X058780Y013100D03*
X053130Y010750D03*
X052580Y010825D03*
X052580Y011300D03*
X051330Y014200D03*
X049630Y015950D03*
X049130Y015950D03*
X051330Y017000D03*
X051980Y017600D03*
X053705Y017600D03*
X055455Y017600D03*
X049630Y017500D03*
X049630Y018250D03*
X046330Y018650D03*
X046330Y019150D03*
X046330Y016700D03*
X046330Y016250D03*
X046880Y014850D03*
X046880Y014350D03*
X046880Y013850D03*
X033330Y019650D03*
X032830Y019650D03*
X032430Y016700D03*
X031930Y016700D03*
X031430Y016700D03*
X022830Y018450D03*
X021130Y017150D03*
X020530Y017150D03*
X019880Y017150D03*
X019230Y017150D03*
X018580Y017150D03*
X022780Y024300D03*
X030830Y024200D03*
X030830Y024700D03*
X054080Y006500D03*
X054980Y006500D03*
X049130Y001250D03*
X042280Y001250D03*
X036280Y004600D03*
D55*
X051830Y009520D02*
X051850Y009500D01*
X051830Y009520D02*
X051830Y011276D01*
X051854Y011300D01*
X052580Y011300D01*
X052580Y010825D01*
X053130Y010750D02*
X053756Y010750D01*
X054504Y010750D02*
X054504Y010094D01*
X053910Y009500D01*
X054360Y009050D01*
X054080Y008770D01*
X054080Y007924D01*
X054080Y007176D02*
X054080Y006500D01*
X054980Y006500D02*
X054980Y007176D01*
X054980Y007924D02*
X054980Y009050D01*
X055380Y009050D01*
X054980Y009050D02*
X054360Y009050D01*
X054980Y007950D02*
X054980Y007924D01*
X054464Y011950D02*
X054564Y012050D01*
X054464Y011950D02*
X054380Y011950D01*
X053665Y011950D01*
X051830Y012024D02*
X050280Y013074D01*
X050280Y013350D01*
X050280Y013850D01*
X050280Y014350D01*
X050280Y014850D01*
X046930Y014350D02*
X046880Y014300D01*
X046880Y013850D01*
X046880Y014300D02*
X046880Y014400D01*
X046880Y014850D01*
X046330Y016250D02*
X046330Y016700D01*
X047050Y016700D01*
X047070Y016680D01*
X049630Y017500D02*
X050004Y017500D01*
X050280Y017135D01*
X051330Y017900D02*
X051630Y017600D01*
X051980Y017600D01*
X051330Y017900D02*
X051330Y018750D01*
X050830Y019250D01*
X050354Y019250D01*
X050380Y019224D01*
X050354Y019250D02*
X049580Y019250D01*
X047980Y019120D02*
X047950Y019150D01*
X046330Y019150D01*
X046330Y018650D01*
X049630Y018250D02*
X050154Y018250D01*
X057630Y014850D02*
X058230Y014850D01*
X058430Y014650D01*
X058430Y014574D01*
X058204Y015300D02*
X058430Y015526D01*
X058204Y015300D02*
X057680Y015300D01*
X058430Y016274D02*
X058430Y016900D01*
X057279Y012200D02*
X057229Y012050D01*
X056296Y012050D01*
X033596Y018750D02*
X033580Y018766D01*
X033580Y019400D01*
X033330Y019650D01*
X032830Y019650D01*
X029780Y016100D02*
X028754Y016100D01*
X028754Y015600D02*
X029830Y015600D01*
X029880Y015100D02*
X029280Y015100D01*
X028754Y015100D01*
X026706Y015100D02*
X025730Y015100D01*
X025680Y015600D02*
X026706Y015600D01*
X026706Y016100D02*
X025680Y016100D01*
X025680Y016600D02*
X026706Y016600D01*
D56*
X034930Y007950D02*
X034930Y005700D01*
X034630Y005400D01*
X033980Y005400D01*
X033480Y005400D01*
X032980Y004900D01*
X035280Y003400D02*
X035280Y001400D01*
X034006Y001411D02*
X034006Y002300D01*
X033780Y002300D01*
X033265Y001715D02*
X033580Y001400D01*
X033995Y001400D01*
X033265Y001715D02*
X032930Y001715D01*
X035280Y003400D02*
X035680Y003800D01*
X036054Y003800D01*
X042280Y001250D02*
X042930Y001250D01*
X042930Y001655D01*
X042930Y001250D02*
X044230Y001250D01*
X044230Y001655D01*
X044230Y001250D02*
X045530Y001250D01*
X045530Y001655D01*
X048180Y001655D02*
X048180Y001250D01*
X049130Y001250D01*
X034930Y007950D02*
X042734Y015754D01*
X056875Y009055D02*
X056880Y009050D01*
X058415Y019550D02*
X058630Y019550D01*
X054996Y024850D02*
X054930Y025034D01*
X056214Y025050D02*
X056330Y025034D01*
X057614Y025100D02*
X057730Y025084D01*
X057680Y025034D01*
X054980Y026200D02*
X054930Y026200D01*
X053580Y026816D02*
X053530Y026766D01*
X052764Y025034D02*
X052730Y025000D01*
X041115Y027350D02*
X041065Y027515D01*
X040430Y028050D01*
X040430Y028750D01*
X040930Y029250D01*
X003030Y027700D02*
X003030Y023800D01*
X002500Y023270D01*
X002470Y023270D01*
X002470Y020010D02*
X002470Y019990D01*
X000580Y018400D01*
X000580Y009550D01*
X001330Y008700D01*
X001880Y008950D02*
X001880Y007800D01*
X001330Y007150D01*
X002230Y006600D02*
X001330Y005700D01*
X002580Y006250D02*
X003130Y005700D01*
X002580Y006250D02*
X002580Y009350D01*
X001730Y010200D01*
X001730Y013850D01*
X002450Y014570D01*
X002470Y014570D01*
X002470Y015640D02*
X001330Y014850D01*
X001330Y010050D01*
X002230Y009150D01*
X002230Y006600D01*
X001880Y008950D02*
X000930Y009900D01*
X000930Y016450D01*
X002460Y017830D01*
X002470Y017830D01*
X002470Y015660D02*
X002470Y015640D01*
D57*
X022830Y018450D02*
X022830Y018965D01*
X022830Y019635D02*
X022830Y020650D01*
X022781Y022046D02*
X022780Y022047D01*
X022780Y023065D01*
X022780Y023735D02*
X022780Y024300D01*
X030830Y024200D02*
X030830Y024700D01*
X030830Y026400D01*
X048890Y016680D02*
X048950Y016680D01*
X049180Y016450D01*
X049630Y016450D01*
X049630Y015950D01*
X049630Y016450D02*
X050306Y016450D01*
X050280Y016465D01*
X050280Y014850D02*
X049604Y014850D01*
X049604Y014350D02*
X050280Y014350D01*
X050280Y013850D02*
X049604Y013850D01*
X049604Y013350D02*
X050280Y013350D01*
X049604Y013350D02*
X049580Y013350D01*
X047556Y013850D02*
X046880Y013850D01*
X046980Y013850D01*
X046930Y014350D02*
X046880Y014400D01*
X046930Y014350D02*
X047556Y014350D01*
X047556Y014850D02*
X046880Y014850D01*
X050154Y018250D02*
X050380Y018476D01*
X050830Y019250D02*
X051063Y019483D01*
X051063Y022476D01*
X051330Y022450D02*
X051680Y022800D01*
X051680Y024000D01*
X052115Y024435D01*
X052115Y025650D01*
X054564Y012050D02*
X054730Y012050D01*
X055480Y011400D01*
X055630Y011400D01*
X030480Y003350D02*
X028580Y003350D01*
X027580Y003350D01*
X026580Y003350D01*
X025580Y003350D01*
X024580Y003350D01*
X023580Y003350D01*
D58*
X024215Y008400D02*
X024165Y008450D01*
X027300Y011480D02*
X027680Y011100D01*
X028806Y011100D01*
X029554Y011100D02*
X029580Y011074D01*
X029130Y012400D02*
X028330Y012400D01*
X028230Y012500D01*
X028230Y012717D01*
X029130Y012400D02*
X029280Y012550D01*
X029280Y012865D01*
X029645Y012865D01*
X029930Y013150D01*
X029930Y014150D01*
X030230Y014450D01*
X030545Y014450D01*
X030580Y014485D01*
X030580Y014950D01*
X029280Y015100D02*
X029280Y014150D01*
X029230Y014100D01*
X028430Y014100D01*
X028230Y013900D01*
X028230Y013583D01*
X029280Y013535D02*
X029280Y014150D01*
X030547Y013782D02*
X030580Y013815D01*
X030547Y013782D02*
X030547Y012600D01*
X031413Y012226D02*
X032371Y012226D01*
X032380Y012235D01*
X032380Y013215D01*
X027300Y011480D02*
X026730Y011480D01*
X024680Y011850D02*
X024680Y011947D01*
X024421Y012206D01*
X023686Y012206D01*
X024580Y014950D02*
X024580Y015465D01*
X024630Y015515D01*
X024571Y015206D02*
X023536Y015206D01*
X028754Y016600D02*
X029130Y016600D01*
X029130Y016900D01*
X029024Y020194D02*
X028868Y020350D01*
X028868Y020872D01*
X028945Y020950D01*
X028868Y020350D02*
X028630Y020350D01*
X032930Y021750D02*
X033795Y021750D01*
X033845Y021800D01*
X033680Y021965D01*
X033680Y022600D01*
X033680Y023800D01*
X034180Y024300D01*
X034180Y024565D01*
X034230Y024615D01*
X034830Y025150D02*
X034830Y025700D01*
X034530Y026000D01*
X034330Y026000D01*
X034830Y025150D02*
X035104Y024876D01*
X035104Y024615D01*
X038530Y024578D02*
X039052Y024578D01*
X039380Y024250D01*
X039280Y024775D02*
X038530Y024775D01*
X039280Y024775D02*
X039280Y024775D01*
X039255Y021225D02*
X039015Y021035D01*
X038530Y021035D01*
X038530Y020838D02*
X038218Y020838D01*
X038130Y020750D01*
X038130Y020400D01*
X029024Y024094D02*
X028868Y024250D01*
X028630Y024250D01*
X052995Y011950D02*
X053030Y011915D01*
X053030Y011700D01*
X053330Y011400D01*
X054780Y011400D01*
X055235Y010945D01*
X055536Y010945D01*
X055733Y010945D02*
X055733Y011447D01*
X055930Y011300D02*
X055930Y010945D01*
X055930Y011300D02*
X056296Y011666D01*
X056296Y012050D01*
X056324Y009055D02*
X056875Y009055D01*
X055536Y009055D02*
X055531Y009050D01*
X055380Y009050D01*
X045530Y003265D02*
X045530Y002245D01*
X042930Y002245D02*
X042930Y003265D01*
X037980Y001115D02*
X037965Y001100D01*
X032980Y004435D02*
X032980Y004900D01*
X028730Y009165D02*
X028695Y009200D01*
D59*
X036280Y004600D02*
X036880Y005200D01*
X044080Y005200D01*
X044180Y005200D01*
X044430Y005450D01*
X044430Y005900D01*
X044430Y006900D01*
X040078Y005168D02*
X040030Y005120D01*
X040030Y001950D01*
X039180Y001100D01*
X037965Y001100D01*
X037980Y001115D02*
X035695Y001115D01*
X035480Y000900D01*
X034130Y000900D01*
X033980Y001050D01*
X033980Y001385D01*
X033995Y001400D01*
X046830Y013850D02*
X046880Y013850D01*
X046880Y014350D02*
X047556Y014350D01*
X049130Y015950D02*
X049130Y016450D01*
X051330Y016200D02*
X051330Y017000D01*
X051980Y017600D02*
X052495Y017600D01*
X053165Y017600D02*
X053165Y018600D01*
X053165Y019550D01*
X053480Y020015D01*
X053480Y022250D01*
X053580Y022550D01*
X053580Y024000D01*
X054230Y024650D01*
X054230Y025600D01*
X053530Y026300D01*
X053530Y026766D01*
X053580Y026816D02*
X053580Y027250D01*
X054130Y027800D01*
X054130Y028750D01*
X053630Y029250D01*
X054630Y029250D02*
X055130Y028750D01*
X055130Y027450D01*
X054930Y027200D01*
X054930Y026766D01*
X054930Y026200D01*
X054980Y026200D02*
X055680Y025500D01*
X055680Y024600D01*
X055230Y024100D01*
X055230Y020100D01*
X054930Y019800D01*
X054930Y019565D01*
X054915Y019550D01*
X054915Y018600D01*
X054915Y017600D01*
X055455Y017600D02*
X055995Y017600D01*
X056665Y017600D02*
X056665Y018600D01*
X056665Y019550D01*
X056680Y019900D01*
X056980Y020250D01*
X056980Y022250D01*
X056830Y022650D01*
X056830Y023950D01*
X057030Y024150D01*
X057030Y025550D01*
X056330Y026250D01*
X056330Y026766D01*
X056130Y027700D01*
X056130Y028750D01*
X055630Y029250D01*
X056630Y029250D02*
X057730Y028150D01*
X057730Y026816D01*
X058564Y026816D01*
X058780Y026600D01*
X058780Y019700D01*
X058630Y019550D01*
X058415Y019550D02*
X058415Y018600D01*
X058415Y017600D01*
X057745Y017600D02*
X057205Y017600D01*
X057230Y018600D02*
X057745Y018600D01*
X057745Y019550D02*
X057230Y019550D01*
X055995Y019550D02*
X055455Y019550D01*
X054245Y019550D02*
X053730Y019550D01*
X052495Y019550D02*
X051955Y019550D01*
X051980Y018600D02*
X052495Y018600D01*
X053730Y018600D02*
X054245Y018600D01*
X055430Y018600D02*
X055480Y018600D01*
X055995Y018600D01*
X054245Y017600D02*
X053705Y017600D01*
X057630Y015350D02*
X057680Y015300D01*
X057730Y014950D02*
X057630Y014850D01*
X056530Y014900D02*
X056480Y014950D01*
X051330Y015000D02*
X051330Y014200D01*
X047960Y019100D02*
X047980Y019120D01*
X051089Y022450D02*
X051063Y022476D01*
X051089Y022450D02*
X051330Y022450D01*
X052730Y023933D02*
X052730Y025000D01*
X052730Y027350D01*
X053630Y028250D01*
X054630Y028250D02*
X054630Y027700D01*
X054280Y027350D01*
X054280Y026300D01*
X054996Y025584D01*
X054996Y024850D01*
X054380Y024234D01*
X054380Y023933D01*
X056030Y023933D02*
X056030Y024300D01*
X056330Y024600D01*
X056330Y025034D01*
X056214Y025050D02*
X056214Y025766D01*
X055680Y026300D01*
X055680Y027600D01*
X055630Y028250D01*
X056630Y028250D02*
X057030Y027850D01*
X057030Y026250D01*
X057614Y025666D01*
X057614Y025100D01*
X057680Y025034D02*
X057680Y023933D01*
X053530Y025034D02*
X052764Y025034D01*
X052115Y025650D02*
X052115Y026250D01*
X052115Y026700D01*
X052130Y026715D01*
X052130Y028750D01*
X052630Y029250D01*
X050630Y031250D01*
X013180Y031250D01*
X011580Y029150D01*
X010080Y029150D01*
X009380Y029650D01*
X009380Y030500D01*
X008630Y031250D01*
X002380Y031250D01*
X001380Y030250D01*
X001380Y027550D01*
X002400Y026530D01*
X002470Y026530D01*
X003030Y027700D02*
X004530Y029200D01*
X004530Y029950D01*
X004930Y030350D01*
X008830Y030350D01*
X009030Y030200D01*
X009030Y029350D01*
X009980Y028650D01*
X011880Y028650D01*
X013580Y030700D01*
X048130Y030750D01*
X049630Y029250D01*
X031330Y029600D02*
X031330Y026900D01*
X030830Y026400D01*
X031330Y029600D02*
X030930Y030000D01*
X025230Y030000D01*
X024480Y029250D01*
D60*
X028780Y022300D02*
X028780Y021960D01*
X028770Y021950D01*
X029890Y021950D02*
X029890Y021890D01*
X027730Y019500D02*
X026916Y019750D01*
X028820Y018410D02*
X028820Y018100D01*
X029940Y016890D02*
X030055Y016775D01*
X031430Y016700D02*
X031930Y016700D01*
X032430Y016700D01*
X029880Y015800D02*
X029830Y015750D01*
X029830Y015600D01*
X025730Y015100D02*
X025680Y015150D01*
X025630Y014300D02*
X025680Y014250D01*
X023370Y014300D02*
X022330Y014300D01*
X025680Y012150D02*
X025680Y011950D01*
X024780Y011050D02*
X024540Y011050D01*
X023420Y011050D02*
X022480Y011050D01*
X022280Y017150D02*
X023220Y017150D01*
X024340Y017150D02*
X024980Y017150D01*
X030930Y018750D02*
X031864Y018750D01*
X047980Y019000D02*
X047980Y016680D01*
X047980Y019000D02*
X047980Y019120D01*
X049450Y019120D01*
X049580Y019250D01*
X057630Y015850D02*
X057630Y015350D01*
X057630Y014850D01*
X057630Y013800D01*
X058430Y013826D02*
X058430Y013100D01*
X057880Y013100D01*
X058430Y013100D02*
X058780Y013100D01*
X058780Y012300D01*
X058730Y012200D01*
X058381Y012200D01*
X054380Y011950D02*
X052780Y013550D01*
X052780Y014950D01*
D61*
X056530Y014900D02*
X057580Y014900D01*
X057630Y014850D01*
X031430Y016700D02*
X030680Y017400D01*
X029940Y016890D02*
X029940Y018100D01*
X028820Y018410D02*
X027730Y019500D01*
X025680Y016850D02*
X024980Y017150D01*
X025680Y011950D02*
X024780Y011050D01*
X006980Y014491D02*
X006971Y014500D01*
X006230Y014400D01*
X003840Y017190D01*
X003590Y017290D01*
X003590Y018380D02*
X003950Y018380D01*
X006280Y016050D01*
X006980Y016050D01*
X006971Y017600D02*
X006230Y017600D01*
X004430Y019400D01*
X004330Y019400D01*
X004270Y019460D01*
X003590Y019460D01*
X005230Y020650D02*
X003940Y021640D01*
X003590Y021640D01*
X003590Y022720D02*
X004710Y022720D01*
X005530Y021900D01*
X008230Y021900D02*
X008330Y022000D01*
X008430Y022050D01*
X006980Y024741D02*
X006971Y024750D01*
X005030Y024750D01*
X004880Y024900D01*
X003590Y024900D01*
X003590Y025980D02*
X004360Y025980D01*
X004380Y026000D01*
X004580Y026000D01*
X004880Y026300D01*
X006980Y026300D01*
X006971Y027850D02*
X004380Y027850D01*
X003600Y027070D01*
X003590Y027070D01*
X006971Y027850D02*
X006980Y027859D01*
X007012Y019200D02*
X006980Y019168D01*
X006980Y017609D02*
X006971Y017600D01*
X004110Y015120D02*
X005030Y014200D01*
X005030Y007150D01*
X006430Y005750D01*
X006930Y005750D01*
X006980Y005800D01*
X004110Y015120D02*
X003590Y015120D01*
X026916Y023000D02*
X028080Y023000D01*
X028780Y022300D01*
D62*
X024089Y022102D02*
X023887Y022050D01*
X024087Y020650D02*
X024089Y020648D01*
X023887Y023845D02*
X024089Y023898D01*
X022280Y017150D02*
X018580Y017150D01*
X025680Y016850D02*
X025680Y016600D01*
X025680Y016100D01*
X025680Y015600D01*
X025680Y015150D01*
X025680Y014250D01*
X025680Y012150D01*
X047980Y019000D02*
X047980Y020200D01*
D63*
X024087Y020650D02*
X022830Y020650D01*
X005230Y020650D01*
X008430Y022050D02*
X022781Y022046D01*
X023887Y022050D01*
D64*
X023887Y023845D01*
X024089Y020648D02*
X024089Y018852D01*
X029830Y016550D02*
X029780Y016100D01*
D65*
X030055Y016775D02*
X030680Y017400D01*
X030955Y017675D02*
X030930Y017700D01*
X030930Y018750D01*
X030930Y020850D01*
X029890Y021890D01*
X008230Y021900D02*
X005530Y021900D01*
D66*
X024490Y014300D02*
X025630Y014300D01*
D67*
X029880Y015100D02*
X029880Y015800D01*
X029880Y016050D01*
X029780Y016100D01*
X029830Y016550D02*
X030055Y016775D01*
X030680Y017400D02*
X030955Y017675D01*
X030980Y017700D01*
D68*
X022330Y014300D02*
X014630Y014300D01*
X009730Y019200D01*
X007012Y019200D01*
X013680Y011050D02*
X022480Y011050D01*
X013680Y011050D02*
X011548Y008918D01*
X006980Y008918D01*
M02*
