G04 (created by PCBNEW (2013-05-31 BZR 4019)-stable) date 28/01/2014 18:03:58*
%MOIN*%
G04 Gerber Fmt 3.4, Leading zero omitted, Abs format*
%FSLAX34Y34*%
G01*
G70*
G90*
G04 APERTURE LIST*
%ADD10C,0.00590551*%
%ADD11C,0.008*%
%ADD12C,0.005*%
%ADD13C,0.0075*%
%ADD14C,0.0001*%
%ADD15C,0.0039*%
%ADD16C,0.012*%
%ADD17C,0.0047*%
%ADD18C,0.0059*%
%ADD19C,0.0043*%
G04 APERTURE END LIST*
G54D10*
G54D11*
X24404Y-12561D02*
X24404Y-12161D01*
X24557Y-12161D01*
X24595Y-12180D01*
X24614Y-12200D01*
X24633Y-12238D01*
X24633Y-12295D01*
X24614Y-12333D01*
X24595Y-12352D01*
X24557Y-12371D01*
X24404Y-12371D01*
X25014Y-12561D02*
X24785Y-12561D01*
X24900Y-12561D02*
X24900Y-12161D01*
X24861Y-12219D01*
X24823Y-12257D01*
X24785Y-12276D01*
G54D12*
X21085Y-18721D02*
X20914Y-18721D01*
X21000Y-18721D02*
X21000Y-18421D01*
X20971Y-18464D01*
X20942Y-18492D01*
X20914Y-18507D01*
G54D13*
X25114Y-11350D02*
X25128Y-11335D01*
X25157Y-11321D01*
X25228Y-11321D01*
X25257Y-11335D01*
X25271Y-11350D01*
X25285Y-11378D01*
X25285Y-11407D01*
X25271Y-11450D01*
X25100Y-11621D01*
X25285Y-11621D01*
X25285Y-10621D02*
X25114Y-10621D01*
X25200Y-10621D02*
X25200Y-10321D01*
X25171Y-10364D01*
X25142Y-10392D01*
X25114Y-10407D01*
X18235Y-8350D02*
X18250Y-8335D01*
X18278Y-8321D01*
X18350Y-8321D01*
X18378Y-8335D01*
X18392Y-8350D01*
X18407Y-8378D01*
X18407Y-8407D01*
X18392Y-8450D01*
X18221Y-8621D01*
X18407Y-8621D01*
X18535Y-8592D02*
X18550Y-8607D01*
X18535Y-8621D01*
X18521Y-8607D01*
X18535Y-8592D01*
X18535Y-8621D01*
X18807Y-8321D02*
X18750Y-8321D01*
X18721Y-8335D01*
X18707Y-8350D01*
X18678Y-8392D01*
X18664Y-8450D01*
X18664Y-8564D01*
X18678Y-8592D01*
X18692Y-8607D01*
X18721Y-8621D01*
X18778Y-8621D01*
X18807Y-8607D01*
X18821Y-8592D01*
X18835Y-8564D01*
X18835Y-8492D01*
X18821Y-8464D01*
X18807Y-8450D01*
X18778Y-8435D01*
X18721Y-8435D01*
X18692Y-8450D01*
X18678Y-8464D01*
X18664Y-8492D01*
X19364Y-8592D02*
X19349Y-8607D01*
X19307Y-8621D01*
X19278Y-8621D01*
X19235Y-8607D01*
X19207Y-8578D01*
X19192Y-8550D01*
X19178Y-8492D01*
X19178Y-8450D01*
X19192Y-8392D01*
X19207Y-8364D01*
X19235Y-8335D01*
X19278Y-8321D01*
X19307Y-8321D01*
X19349Y-8335D01*
X19364Y-8350D01*
X19535Y-8621D02*
X19507Y-8607D01*
X19492Y-8592D01*
X19478Y-8564D01*
X19478Y-8478D01*
X19492Y-8450D01*
X19507Y-8435D01*
X19535Y-8421D01*
X19578Y-8421D01*
X19607Y-8435D01*
X19621Y-8450D01*
X19635Y-8478D01*
X19635Y-8564D01*
X19621Y-8592D01*
X19607Y-8607D01*
X19578Y-8621D01*
X19535Y-8621D01*
X19764Y-8421D02*
X19764Y-8621D01*
X19764Y-8450D02*
X19778Y-8435D01*
X19807Y-8421D01*
X19850Y-8421D01*
X19878Y-8435D01*
X19892Y-8464D01*
X19892Y-8621D01*
X19992Y-8421D02*
X20107Y-8421D01*
X20035Y-8321D02*
X20035Y-8578D01*
X20050Y-8607D01*
X20078Y-8621D01*
X20107Y-8621D01*
X20207Y-8621D02*
X20207Y-8421D01*
X20207Y-8478D02*
X20221Y-8450D01*
X20235Y-8435D01*
X20264Y-8421D01*
X20292Y-8421D01*
X20435Y-8621D02*
X20407Y-8607D01*
X20392Y-8592D01*
X20378Y-8564D01*
X20378Y-8478D01*
X20392Y-8450D01*
X20407Y-8435D01*
X20435Y-8421D01*
X20478Y-8421D01*
X20507Y-8435D01*
X20521Y-8450D01*
X20535Y-8478D01*
X20535Y-8564D01*
X20521Y-8592D01*
X20507Y-8607D01*
X20478Y-8621D01*
X20435Y-8621D01*
X20707Y-8621D02*
X20678Y-8607D01*
X20664Y-8578D01*
X20664Y-8321D01*
X20864Y-8621D02*
X20835Y-8607D01*
X20821Y-8578D01*
X20821Y-8321D01*
X21092Y-8607D02*
X21064Y-8621D01*
X21007Y-8621D01*
X20978Y-8607D01*
X20964Y-8578D01*
X20964Y-8464D01*
X20978Y-8435D01*
X21007Y-8421D01*
X21064Y-8421D01*
X21092Y-8435D01*
X21107Y-8464D01*
X21107Y-8492D01*
X20964Y-8521D01*
X21235Y-8621D02*
X21235Y-8421D01*
X21235Y-8478D02*
X21250Y-8450D01*
X21264Y-8435D01*
X21292Y-8421D01*
X21321Y-8421D01*
X21607Y-8321D02*
X21778Y-8321D01*
X21692Y-8621D02*
X21692Y-8321D01*
X21992Y-8607D02*
X21964Y-8621D01*
X21907Y-8621D01*
X21878Y-8607D01*
X21864Y-8578D01*
X21864Y-8464D01*
X21878Y-8435D01*
X21907Y-8421D01*
X21964Y-8421D01*
X21992Y-8435D01*
X22007Y-8464D01*
X22007Y-8492D01*
X21864Y-8521D01*
X22121Y-8607D02*
X22150Y-8621D01*
X22207Y-8621D01*
X22235Y-8607D01*
X22250Y-8578D01*
X22250Y-8564D01*
X22235Y-8535D01*
X22207Y-8521D01*
X22164Y-8521D01*
X22135Y-8507D01*
X22121Y-8478D01*
X22121Y-8464D01*
X22135Y-8435D01*
X22164Y-8421D01*
X22207Y-8421D01*
X22235Y-8435D01*
X22335Y-8421D02*
X22450Y-8421D01*
X22378Y-8321D02*
X22378Y-8578D01*
X22392Y-8607D01*
X22421Y-8621D01*
X22450Y-8621D01*
X22664Y-8607D02*
X22635Y-8621D01*
X22578Y-8621D01*
X22550Y-8607D01*
X22535Y-8578D01*
X22535Y-8464D01*
X22550Y-8435D01*
X22578Y-8421D01*
X22635Y-8421D01*
X22664Y-8435D01*
X22678Y-8464D01*
X22678Y-8492D01*
X22535Y-8521D01*
X22807Y-8621D02*
X22807Y-8421D01*
X22807Y-8478D02*
X22821Y-8450D01*
X22835Y-8435D01*
X22864Y-8421D01*
X22892Y-8421D01*
X23392Y-8621D02*
X23292Y-8478D01*
X23221Y-8621D02*
X23221Y-8321D01*
X23335Y-8321D01*
X23364Y-8335D01*
X23378Y-8350D01*
X23392Y-8378D01*
X23392Y-8421D01*
X23378Y-8450D01*
X23364Y-8464D01*
X23335Y-8478D01*
X23221Y-8478D01*
X23635Y-8607D02*
X23607Y-8621D01*
X23550Y-8621D01*
X23521Y-8607D01*
X23507Y-8578D01*
X23507Y-8464D01*
X23521Y-8435D01*
X23550Y-8421D01*
X23607Y-8421D01*
X23635Y-8435D01*
X23650Y-8464D01*
X23650Y-8492D01*
X23507Y-8521D01*
X23750Y-8421D02*
X23821Y-8621D01*
X23892Y-8421D01*
X24221Y-8535D02*
X24364Y-8535D01*
X24192Y-8621D02*
X24292Y-8321D01*
X24392Y-8621D01*
G54D12*
X21011Y-14750D02*
G75*
G03X21011Y-14750I-111J0D01*
G74*
G01*
X22400Y-16500D02*
X22400Y-14500D01*
X22400Y-14500D02*
X20600Y-14500D01*
X20600Y-14500D02*
X20600Y-16500D01*
X20600Y-16500D02*
X22400Y-16500D01*
G54D14*
G36*
X18300Y-7515D02*
X18299Y-7696D01*
X18292Y-7829D01*
X18270Y-7921D01*
X18223Y-7981D01*
X18143Y-8014D01*
X18066Y-8023D01*
X18066Y-7833D01*
X18066Y-7516D01*
X18066Y-7200D01*
X17683Y-7200D01*
X17300Y-7200D01*
X17300Y-7516D01*
X17300Y-7833D01*
X17683Y-7833D01*
X18066Y-7833D01*
X18066Y-8023D01*
X18021Y-8029D01*
X17847Y-8033D01*
X17675Y-8033D01*
X17486Y-8032D01*
X17351Y-8029D01*
X17260Y-8021D01*
X17200Y-8009D01*
X17160Y-7989D01*
X17133Y-7966D01*
X17103Y-7930D01*
X17084Y-7881D01*
X17073Y-7807D01*
X17068Y-7693D01*
X17066Y-7527D01*
X17066Y-7523D01*
X17066Y-7341D01*
X17073Y-7209D01*
X17096Y-7119D01*
X17144Y-7061D01*
X17226Y-7029D01*
X17351Y-7014D01*
X17528Y-7008D01*
X17649Y-7005D01*
X17872Y-7001D01*
X18037Y-7003D01*
X18154Y-7018D01*
X18229Y-7054D01*
X18273Y-7117D01*
X18293Y-7214D01*
X18299Y-7351D01*
X18300Y-7515D01*
X18300Y-7515D01*
X18300Y-7515D01*
G37*
G36*
X19500Y-7450D02*
X19492Y-7555D01*
X19473Y-7636D01*
X19460Y-7660D01*
X19402Y-7681D01*
X19304Y-7691D01*
X19304Y-7366D01*
X19035Y-7366D01*
X18766Y-7366D01*
X18766Y-7468D01*
X18766Y-7569D01*
X19025Y-7559D01*
X19154Y-7553D01*
X19232Y-7544D01*
X19272Y-7526D01*
X19288Y-7494D01*
X19293Y-7458D01*
X19304Y-7366D01*
X19304Y-7691D01*
X19285Y-7694D01*
X19112Y-7699D01*
X19093Y-7700D01*
X18766Y-7700D01*
X18766Y-7866D01*
X18764Y-7965D01*
X18751Y-8014D01*
X18716Y-8031D01*
X18666Y-8033D01*
X18566Y-8033D01*
X18566Y-7616D01*
X18566Y-7200D01*
X18993Y-7200D01*
X19207Y-7203D01*
X19355Y-7212D01*
X19440Y-7229D01*
X19460Y-7240D01*
X19483Y-7294D01*
X19497Y-7389D01*
X19500Y-7450D01*
X19500Y-7450D01*
X19500Y-7450D01*
G37*
G36*
X20533Y-8033D02*
X20083Y-8033D01*
X19633Y-8033D01*
X19633Y-7616D01*
X19633Y-7200D01*
X20085Y-7200D01*
X20266Y-7200D01*
X20391Y-7202D01*
X20469Y-7208D01*
X20511Y-7218D01*
X20528Y-7236D01*
X20528Y-7263D01*
X20527Y-7275D01*
X20518Y-7308D01*
X20496Y-7331D01*
X20448Y-7344D01*
X20361Y-7352D01*
X20223Y-7358D01*
X20175Y-7359D01*
X20020Y-7364D01*
X19921Y-7372D01*
X19864Y-7383D01*
X19839Y-7402D01*
X19833Y-7431D01*
X19833Y-7434D01*
X19840Y-7471D01*
X19873Y-7490D01*
X19947Y-7498D01*
X20033Y-7500D01*
X20144Y-7501D01*
X20204Y-7511D01*
X20228Y-7535D01*
X20233Y-7580D01*
X20233Y-7583D01*
X20229Y-7629D01*
X20205Y-7654D01*
X20148Y-7664D01*
X20040Y-7666D01*
X20033Y-7666D01*
X19922Y-7667D01*
X19862Y-7677D01*
X19838Y-7702D01*
X19833Y-7750D01*
X19833Y-7766D01*
X19833Y-7866D01*
X20183Y-7866D01*
X20533Y-7866D01*
X20533Y-7950D01*
X20533Y-8033D01*
X20533Y-8033D01*
X20533Y-8033D01*
G37*
G36*
X21700Y-7616D02*
X21699Y-7789D01*
X21696Y-7906D01*
X21689Y-7978D01*
X21676Y-8016D01*
X21656Y-8030D01*
X21629Y-8033D01*
X21577Y-8013D01*
X21487Y-7958D01*
X21369Y-7876D01*
X21238Y-7776D01*
X21221Y-7763D01*
X20883Y-7493D01*
X20873Y-7763D01*
X20863Y-8033D01*
X20765Y-8033D01*
X20666Y-8033D01*
X20666Y-7616D01*
X20667Y-7444D01*
X20669Y-7327D01*
X20676Y-7255D01*
X20688Y-7217D01*
X20709Y-7202D01*
X20741Y-7200D01*
X20745Y-7200D01*
X20809Y-7222D01*
X20914Y-7285D01*
X21052Y-7384D01*
X21154Y-7463D01*
X21483Y-7727D01*
X21493Y-7463D01*
X21502Y-7199D01*
X21601Y-7200D01*
X21700Y-7200D01*
X21700Y-7616D01*
X21700Y-7616D01*
X21700Y-7616D01*
G37*
G36*
X23147Y-8016D02*
X22989Y-8026D01*
X22911Y-8029D01*
X22850Y-8019D01*
X22789Y-7988D01*
X22712Y-7928D01*
X22607Y-7835D01*
X22475Y-7723D01*
X22376Y-7658D01*
X22302Y-7633D01*
X22292Y-7633D01*
X22241Y-7636D01*
X22213Y-7656D01*
X22202Y-7709D01*
X22200Y-7811D01*
X22200Y-7833D01*
X22200Y-8033D01*
X22083Y-8033D01*
X21966Y-8033D01*
X21966Y-7516D01*
X21966Y-7000D01*
X22408Y-7000D01*
X22622Y-7002D01*
X22779Y-7009D01*
X22888Y-7028D01*
X22958Y-7061D01*
X22998Y-7115D01*
X23017Y-7193D01*
X23026Y-7300D01*
X23026Y-7312D01*
X23026Y-7445D01*
X23014Y-7543D01*
X22998Y-7584D01*
X22943Y-7615D01*
X22852Y-7636D01*
X22823Y-7639D01*
X22800Y-7640D01*
X22800Y-7466D01*
X22800Y-7333D01*
X22800Y-7200D01*
X22500Y-7200D01*
X22200Y-7200D01*
X22200Y-7333D01*
X22200Y-7466D01*
X22500Y-7466D01*
X22800Y-7466D01*
X22800Y-7640D01*
X22685Y-7650D01*
X22916Y-7833D01*
X23147Y-8016D01*
X23147Y-8016D01*
X23147Y-8016D01*
G37*
G36*
X24500Y-7552D02*
X24498Y-7721D01*
X24489Y-7846D01*
X24463Y-7932D01*
X24410Y-7986D01*
X24323Y-8016D01*
X24191Y-8030D01*
X24124Y-8031D01*
X24124Y-7577D01*
X24119Y-7515D01*
X24093Y-7455D01*
X24042Y-7437D01*
X23990Y-7439D01*
X23910Y-7459D01*
X23876Y-7507D01*
X23872Y-7526D01*
X23883Y-7617D01*
X23934Y-7678D01*
X24005Y-7699D01*
X24079Y-7670D01*
X24099Y-7650D01*
X24124Y-7577D01*
X24124Y-8031D01*
X24006Y-8033D01*
X23890Y-8033D01*
X23825Y-8032D01*
X23825Y-7314D01*
X23819Y-7236D01*
X23780Y-7185D01*
X23699Y-7141D01*
X23605Y-7139D01*
X23540Y-7173D01*
X23502Y-7251D01*
X23515Y-7341D01*
X23574Y-7414D01*
X23647Y-7458D01*
X23700Y-7455D01*
X23762Y-7404D01*
X23766Y-7400D01*
X23825Y-7314D01*
X23825Y-8032D01*
X23793Y-8032D01*
X23793Y-7824D01*
X23778Y-7768D01*
X23727Y-7739D01*
X23668Y-7752D01*
X23660Y-7759D01*
X23638Y-7816D01*
X23661Y-7871D01*
X23713Y-7894D01*
X23724Y-7893D01*
X23780Y-7855D01*
X23793Y-7824D01*
X23793Y-8032D01*
X23689Y-8031D01*
X23544Y-8026D01*
X23444Y-8016D01*
X23378Y-8000D01*
X23340Y-7981D01*
X23309Y-7955D01*
X23288Y-7921D01*
X23276Y-7866D01*
X23269Y-7778D01*
X23266Y-7644D01*
X23266Y-7518D01*
X23267Y-7327D01*
X23276Y-7192D01*
X23300Y-7103D01*
X23348Y-7050D01*
X23427Y-7022D01*
X23545Y-7010D01*
X23663Y-7005D01*
X23950Y-6994D01*
X23988Y-7097D01*
X24045Y-7178D01*
X24119Y-7205D01*
X24194Y-7176D01*
X24243Y-7108D01*
X24289Y-7040D01*
X24354Y-7026D01*
X24360Y-7027D01*
X24416Y-7049D01*
X24455Y-7102D01*
X24481Y-7194D01*
X24495Y-7334D01*
X24499Y-7532D01*
X24500Y-7552D01*
X24500Y-7552D01*
X24500Y-7552D01*
G37*
G36*
X25800Y-7019D02*
X25784Y-7053D01*
X25742Y-7135D01*
X25679Y-7257D01*
X25599Y-7406D01*
X25529Y-7535D01*
X25416Y-7741D01*
X25326Y-7891D01*
X25255Y-7987D01*
X25195Y-8032D01*
X25141Y-8031D01*
X25087Y-7985D01*
X25026Y-7898D01*
X24972Y-7808D01*
X24829Y-7560D01*
X24718Y-7366D01*
X24635Y-7219D01*
X24578Y-7116D01*
X24545Y-7051D01*
X24533Y-7021D01*
X24533Y-7019D01*
X24562Y-7006D01*
X24635Y-7004D01*
X24658Y-7006D01*
X24711Y-7013D01*
X24754Y-7029D01*
X24795Y-7066D01*
X24844Y-7132D01*
X24908Y-7237D01*
X24987Y-7377D01*
X25192Y-7738D01*
X25387Y-7369D01*
X25469Y-7216D01*
X25529Y-7112D01*
X25573Y-7048D01*
X25611Y-7014D01*
X25650Y-7002D01*
X25691Y-7000D01*
X25765Y-7005D01*
X25799Y-7017D01*
X25800Y-7019D01*
X25800Y-7019D01*
X25800Y-7019D01*
G37*
G54D15*
X20900Y-12800D02*
G75*
G03X20900Y-12800I-50J0D01*
G74*
G01*
X21300Y-12800D02*
X20900Y-12800D01*
X20900Y-12800D02*
X20900Y-12200D01*
X20900Y-12200D02*
X21300Y-12200D01*
X21700Y-12200D02*
X22100Y-12200D01*
X22100Y-12200D02*
X22100Y-12800D01*
X22100Y-12800D02*
X21700Y-12800D01*
X22200Y-13200D02*
G75*
G03X22200Y-13200I-50J0D01*
G74*
G01*
X21700Y-13200D02*
X22100Y-13200D01*
X22100Y-13200D02*
X22100Y-13800D01*
X22100Y-13800D02*
X21700Y-13800D01*
X21300Y-13800D02*
X20900Y-13800D01*
X20900Y-13800D02*
X20900Y-13200D01*
X20900Y-13200D02*
X21300Y-13200D01*
X19350Y-16150D02*
G75*
G03X19350Y-16150I-50J0D01*
G74*
G01*
X19300Y-15700D02*
X19300Y-16100D01*
X19300Y-16100D02*
X18700Y-16100D01*
X18700Y-16100D02*
X18700Y-15700D01*
X18700Y-15300D02*
X18700Y-14900D01*
X18700Y-14900D02*
X19300Y-14900D01*
X19300Y-14900D02*
X19300Y-15300D01*
X19350Y-17650D02*
G75*
G03X19350Y-17650I-50J0D01*
G74*
G01*
X19300Y-17200D02*
X19300Y-17600D01*
X19300Y-17600D02*
X18700Y-17600D01*
X18700Y-17600D02*
X18700Y-17200D01*
X18700Y-16800D02*
X18700Y-16400D01*
X18700Y-16400D02*
X19300Y-16400D01*
X19300Y-16400D02*
X19300Y-16800D01*
X17550Y-14850D02*
G75*
G03X17550Y-14850I-50J0D01*
G74*
G01*
X17500Y-15300D02*
X17500Y-14900D01*
X17500Y-14900D02*
X18100Y-14900D01*
X18100Y-14900D02*
X18100Y-15300D01*
X18100Y-15700D02*
X18100Y-16100D01*
X18100Y-16100D02*
X17500Y-16100D01*
X17500Y-16100D02*
X17500Y-15700D01*
X17750Y-16350D02*
G75*
G03X17750Y-16350I-50J0D01*
G74*
G01*
X17700Y-16800D02*
X17700Y-16400D01*
X17700Y-16400D02*
X18300Y-16400D01*
X18300Y-16400D02*
X18300Y-16800D01*
X18300Y-17200D02*
X18300Y-17600D01*
X18300Y-17600D02*
X17700Y-17600D01*
X17700Y-17600D02*
X17700Y-17200D01*
X23750Y-15850D02*
G75*
G03X23750Y-15850I-50J0D01*
G74*
G01*
X23700Y-16300D02*
X23700Y-15900D01*
X23700Y-15900D02*
X24300Y-15900D01*
X24300Y-15900D02*
X24300Y-16300D01*
X24300Y-16700D02*
X24300Y-17100D01*
X24300Y-17100D02*
X23700Y-17100D01*
X23700Y-17100D02*
X23700Y-16700D01*
X23750Y-14350D02*
G75*
G03X23750Y-14350I-50J0D01*
G74*
G01*
X23700Y-14800D02*
X23700Y-14400D01*
X23700Y-14400D02*
X24300Y-14400D01*
X24300Y-14400D02*
X24300Y-14800D01*
X24300Y-15200D02*
X24300Y-15600D01*
X24300Y-15600D02*
X23700Y-15600D01*
X23700Y-15600D02*
X23700Y-15200D01*
X19200Y-9200D02*
G75*
G03X19200Y-9200I-50J0D01*
G74*
G01*
X18700Y-9200D02*
X19100Y-9200D01*
X19100Y-9200D02*
X19100Y-9800D01*
X19100Y-9800D02*
X18700Y-9800D01*
X18300Y-9800D02*
X17900Y-9800D01*
X17900Y-9800D02*
X17900Y-9200D01*
X17900Y-9200D02*
X18300Y-9200D01*
X21200Y-9200D02*
G75*
G03X21200Y-9200I-50J0D01*
G74*
G01*
X20700Y-9200D02*
X21100Y-9200D01*
X21100Y-9200D02*
X21100Y-9800D01*
X21100Y-9800D02*
X20700Y-9800D01*
X20300Y-9800D02*
X19900Y-9800D01*
X19900Y-9800D02*
X19900Y-9200D01*
X19900Y-9200D02*
X20300Y-9200D01*
X19650Y-16710D02*
G75*
G03X19650Y-16710I-50J0D01*
G74*
G01*
X19600Y-17160D02*
X19600Y-16760D01*
X19600Y-16760D02*
X20200Y-16760D01*
X20200Y-16760D02*
X20200Y-17160D01*
X20200Y-17560D02*
X20200Y-17960D01*
X20200Y-17960D02*
X19600Y-17960D01*
X19600Y-17960D02*
X19600Y-17560D01*
X19350Y-14150D02*
G75*
G03X19350Y-14150I-50J0D01*
G74*
G01*
X19300Y-13700D02*
X19300Y-14100D01*
X19300Y-14100D02*
X18700Y-14100D01*
X18700Y-14100D02*
X18700Y-13700D01*
X18700Y-13300D02*
X18700Y-12900D01*
X18700Y-12900D02*
X19300Y-12900D01*
X19300Y-12900D02*
X19300Y-13300D01*
X20350Y-14150D02*
G75*
G03X20350Y-14150I-50J0D01*
G74*
G01*
X20300Y-13700D02*
X20300Y-14100D01*
X20300Y-14100D02*
X19700Y-14100D01*
X19700Y-14100D02*
X19700Y-13700D01*
X19700Y-13300D02*
X19700Y-12900D01*
X19700Y-12900D02*
X20300Y-12900D01*
X20300Y-12900D02*
X20300Y-13300D01*
G54D16*
X24900Y-10100D02*
X24900Y-11900D01*
X24900Y-11900D02*
X17100Y-11900D01*
X17100Y-11900D02*
X17100Y-10100D01*
X17100Y-10100D02*
X24900Y-10100D01*
X20500Y-17250D02*
X20500Y-18250D01*
X25500Y-18250D02*
X25500Y-17250D01*
X20500Y-17250D02*
X25500Y-17250D01*
X25500Y-18250D02*
X20500Y-18250D01*
G54D17*
X21720Y-16635D02*
X21720Y-16859D01*
X21731Y-16885D01*
X21742Y-16898D01*
X21765Y-16911D01*
X21810Y-16911D01*
X21832Y-16898D01*
X21843Y-16885D01*
X21855Y-16859D01*
X21855Y-16635D01*
X22091Y-16911D02*
X21956Y-16911D01*
X22023Y-16911D02*
X22023Y-16635D01*
X22001Y-16675D01*
X21978Y-16701D01*
X21956Y-16714D01*
G54D18*
X20611Y-14226D02*
X20798Y-14226D01*
X20573Y-14339D02*
X20704Y-13945D01*
X20836Y-14339D01*
X20967Y-14339D02*
X20967Y-13945D01*
X21061Y-13945D01*
X21117Y-13964D01*
X21155Y-14001D01*
X21173Y-14039D01*
X21192Y-14114D01*
X21192Y-14170D01*
X21173Y-14245D01*
X21155Y-14283D01*
X21117Y-14320D01*
X21061Y-14339D01*
X20967Y-14339D01*
X21342Y-14320D02*
X21399Y-14339D01*
X21492Y-14339D01*
X21530Y-14320D01*
X21549Y-14301D01*
X21567Y-14264D01*
X21567Y-14226D01*
X21549Y-14189D01*
X21530Y-14170D01*
X21492Y-14151D01*
X21417Y-14133D01*
X21380Y-14114D01*
X21361Y-14095D01*
X21342Y-14058D01*
X21342Y-14020D01*
X21361Y-13983D01*
X21380Y-13964D01*
X21417Y-13945D01*
X21511Y-13945D01*
X21567Y-13964D01*
X21699Y-13945D02*
X21961Y-13945D01*
X21793Y-14339D01*
X22168Y-14114D02*
X22130Y-14095D01*
X22112Y-14076D01*
X22093Y-14039D01*
X22093Y-14020D01*
X22112Y-13983D01*
X22130Y-13964D01*
X22168Y-13945D01*
X22243Y-13945D01*
X22280Y-13964D01*
X22299Y-13983D01*
X22318Y-14020D01*
X22318Y-14039D01*
X22299Y-14076D01*
X22280Y-14095D01*
X22243Y-14114D01*
X22168Y-14114D01*
X22130Y-14133D01*
X22112Y-14151D01*
X22093Y-14189D01*
X22093Y-14264D01*
X22112Y-14301D01*
X22130Y-14320D01*
X22168Y-14339D01*
X22243Y-14339D01*
X22280Y-14320D01*
X22299Y-14301D01*
X22318Y-14264D01*
X22318Y-14189D01*
X22299Y-14151D01*
X22280Y-14133D01*
X22243Y-14114D01*
X22468Y-13983D02*
X22487Y-13964D01*
X22524Y-13945D01*
X22618Y-13945D01*
X22656Y-13964D01*
X22674Y-13983D01*
X22693Y-14020D01*
X22693Y-14058D01*
X22674Y-14114D01*
X22449Y-14339D01*
X22693Y-14339D01*
X22918Y-14114D02*
X22881Y-14095D01*
X22862Y-14076D01*
X22843Y-14039D01*
X22843Y-14020D01*
X22862Y-13983D01*
X22881Y-13964D01*
X22918Y-13945D01*
X22993Y-13945D01*
X23031Y-13964D01*
X23050Y-13983D01*
X23068Y-14020D01*
X23068Y-14039D01*
X23050Y-14076D01*
X23031Y-14095D01*
X22993Y-14114D01*
X22918Y-14114D01*
X22881Y-14133D01*
X22862Y-14151D01*
X22843Y-14189D01*
X22843Y-14264D01*
X22862Y-14301D01*
X22881Y-14320D01*
X22918Y-14339D01*
X22993Y-14339D01*
X23031Y-14320D01*
X23050Y-14301D01*
X23068Y-14264D01*
X23068Y-14189D01*
X23050Y-14151D01*
X23031Y-14133D01*
X22993Y-14114D01*
G54D19*
X22267Y-12379D02*
X22201Y-12285D01*
X22154Y-12379D02*
X22154Y-12182D01*
X22229Y-12182D01*
X22248Y-12192D01*
X22257Y-12201D01*
X22267Y-12220D01*
X22267Y-12248D01*
X22257Y-12267D01*
X22248Y-12276D01*
X22229Y-12285D01*
X22154Y-12285D01*
X22342Y-12201D02*
X22351Y-12192D01*
X22370Y-12182D01*
X22417Y-12182D01*
X22436Y-12192D01*
X22445Y-12201D01*
X22454Y-12220D01*
X22454Y-12239D01*
X22445Y-12267D01*
X22332Y-12379D01*
X22454Y-12379D01*
X22367Y-13479D02*
X22301Y-13385D01*
X22254Y-13479D02*
X22254Y-13282D01*
X22329Y-13282D01*
X22348Y-13292D01*
X22357Y-13301D01*
X22367Y-13320D01*
X22367Y-13348D01*
X22357Y-13367D01*
X22348Y-13376D01*
X22329Y-13385D01*
X22254Y-13385D01*
X22554Y-13479D02*
X22442Y-13479D01*
X22498Y-13479D02*
X22498Y-13282D01*
X22479Y-13310D01*
X22460Y-13329D01*
X22442Y-13339D01*
X18967Y-14779D02*
X18901Y-14685D01*
X18854Y-14779D02*
X18854Y-14582D01*
X18929Y-14582D01*
X18948Y-14592D01*
X18957Y-14601D01*
X18967Y-14620D01*
X18967Y-14648D01*
X18957Y-14667D01*
X18948Y-14676D01*
X18929Y-14685D01*
X18854Y-14685D01*
X19032Y-14582D02*
X19154Y-14582D01*
X19089Y-14657D01*
X19117Y-14657D01*
X19136Y-14667D01*
X19145Y-14676D01*
X19154Y-14695D01*
X19154Y-14742D01*
X19145Y-14760D01*
X19136Y-14770D01*
X19117Y-14779D01*
X19060Y-14779D01*
X19042Y-14770D01*
X19032Y-14760D01*
X19467Y-16579D02*
X19401Y-16485D01*
X19354Y-16579D02*
X19354Y-16382D01*
X19429Y-16382D01*
X19448Y-16392D01*
X19457Y-16401D01*
X19467Y-16420D01*
X19467Y-16448D01*
X19457Y-16467D01*
X19448Y-16476D01*
X19429Y-16485D01*
X19354Y-16485D01*
X19645Y-16382D02*
X19551Y-16382D01*
X19542Y-16476D01*
X19551Y-16467D01*
X19570Y-16457D01*
X19617Y-16457D01*
X19636Y-16467D01*
X19645Y-16476D01*
X19654Y-16495D01*
X19654Y-16542D01*
X19645Y-16560D01*
X19636Y-16570D01*
X19617Y-16579D01*
X19570Y-16579D01*
X19551Y-16570D01*
X19542Y-16560D01*
X17767Y-14779D02*
X17701Y-14685D01*
X17654Y-14779D02*
X17654Y-14582D01*
X17729Y-14582D01*
X17748Y-14592D01*
X17757Y-14601D01*
X17767Y-14620D01*
X17767Y-14648D01*
X17757Y-14667D01*
X17748Y-14676D01*
X17729Y-14685D01*
X17654Y-14685D01*
X17936Y-14648D02*
X17936Y-14779D01*
X17889Y-14573D02*
X17842Y-14714D01*
X17964Y-14714D01*
X17367Y-16779D02*
X17301Y-16685D01*
X17254Y-16779D02*
X17254Y-16582D01*
X17329Y-16582D01*
X17348Y-16592D01*
X17357Y-16601D01*
X17367Y-16620D01*
X17367Y-16648D01*
X17357Y-16667D01*
X17348Y-16676D01*
X17329Y-16685D01*
X17254Y-16685D01*
X17536Y-16582D02*
X17498Y-16582D01*
X17479Y-16592D01*
X17470Y-16601D01*
X17451Y-16629D01*
X17442Y-16667D01*
X17442Y-16742D01*
X17451Y-16760D01*
X17460Y-16770D01*
X17479Y-16779D01*
X17517Y-16779D01*
X17536Y-16770D01*
X17545Y-16760D01*
X17554Y-16742D01*
X17554Y-16695D01*
X17545Y-16676D01*
X17536Y-16667D01*
X17517Y-16657D01*
X17479Y-16657D01*
X17460Y-16667D01*
X17451Y-16676D01*
X17442Y-16695D01*
X24567Y-16160D02*
X24557Y-16170D01*
X24529Y-16179D01*
X24510Y-16179D01*
X24482Y-16170D01*
X24463Y-16151D01*
X24454Y-16132D01*
X24445Y-16095D01*
X24445Y-16067D01*
X24454Y-16029D01*
X24463Y-16010D01*
X24482Y-15992D01*
X24510Y-15982D01*
X24529Y-15982D01*
X24557Y-15992D01*
X24567Y-16001D01*
X24736Y-16048D02*
X24736Y-16179D01*
X24689Y-15973D02*
X24642Y-16114D01*
X24764Y-16114D01*
X24067Y-14260D02*
X24057Y-14270D01*
X24029Y-14279D01*
X24010Y-14279D01*
X23982Y-14270D01*
X23963Y-14251D01*
X23954Y-14232D01*
X23945Y-14195D01*
X23945Y-14167D01*
X23954Y-14129D01*
X23963Y-14110D01*
X23982Y-14092D01*
X24010Y-14082D01*
X24029Y-14082D01*
X24057Y-14092D01*
X24067Y-14101D01*
X24245Y-14082D02*
X24151Y-14082D01*
X24142Y-14176D01*
X24151Y-14167D01*
X24170Y-14157D01*
X24217Y-14157D01*
X24236Y-14167D01*
X24245Y-14176D01*
X24254Y-14195D01*
X24254Y-14242D01*
X24245Y-14260D01*
X24236Y-14270D01*
X24217Y-14279D01*
X24170Y-14279D01*
X24151Y-14270D01*
X24142Y-14260D01*
X18467Y-9079D02*
X18401Y-8985D01*
X18354Y-9079D02*
X18354Y-8882D01*
X18429Y-8882D01*
X18448Y-8892D01*
X18457Y-8901D01*
X18467Y-8920D01*
X18467Y-8948D01*
X18457Y-8967D01*
X18448Y-8976D01*
X18429Y-8985D01*
X18354Y-8985D01*
X18532Y-8882D02*
X18664Y-8882D01*
X18579Y-9079D01*
X20467Y-9079D02*
X20401Y-8985D01*
X20354Y-9079D02*
X20354Y-8882D01*
X20429Y-8882D01*
X20448Y-8892D01*
X20457Y-8901D01*
X20467Y-8920D01*
X20467Y-8948D01*
X20457Y-8967D01*
X20448Y-8976D01*
X20429Y-8985D01*
X20354Y-8985D01*
X20579Y-8967D02*
X20560Y-8957D01*
X20551Y-8948D01*
X20542Y-8929D01*
X20542Y-8920D01*
X20551Y-8901D01*
X20560Y-8892D01*
X20579Y-8882D01*
X20617Y-8882D01*
X20636Y-8892D01*
X20645Y-8901D01*
X20654Y-8920D01*
X20654Y-8929D01*
X20645Y-8948D01*
X20636Y-8957D01*
X20617Y-8967D01*
X20579Y-8967D01*
X20560Y-8976D01*
X20551Y-8985D01*
X20542Y-9004D01*
X20542Y-9042D01*
X20551Y-9060D01*
X20560Y-9070D01*
X20579Y-9079D01*
X20617Y-9079D01*
X20636Y-9070D01*
X20645Y-9060D01*
X20654Y-9042D01*
X20654Y-9004D01*
X20645Y-8985D01*
X20636Y-8976D01*
X20617Y-8967D01*
X20367Y-17060D02*
X20357Y-17070D01*
X20329Y-17079D01*
X20310Y-17079D01*
X20282Y-17070D01*
X20263Y-17051D01*
X20254Y-17032D01*
X20245Y-16995D01*
X20245Y-16967D01*
X20254Y-16929D01*
X20263Y-16910D01*
X20282Y-16892D01*
X20310Y-16882D01*
X20329Y-16882D01*
X20357Y-16892D01*
X20367Y-16901D01*
X20432Y-16882D02*
X20554Y-16882D01*
X20489Y-16957D01*
X20517Y-16957D01*
X20536Y-16967D01*
X20545Y-16976D01*
X20554Y-16995D01*
X20554Y-17042D01*
X20545Y-17060D01*
X20536Y-17070D01*
X20517Y-17079D01*
X20460Y-17079D01*
X20442Y-17070D01*
X20432Y-17060D01*
X18867Y-12760D02*
X18857Y-12770D01*
X18829Y-12779D01*
X18810Y-12779D01*
X18782Y-12770D01*
X18763Y-12751D01*
X18754Y-12732D01*
X18745Y-12695D01*
X18745Y-12667D01*
X18754Y-12629D01*
X18763Y-12610D01*
X18782Y-12592D01*
X18810Y-12582D01*
X18829Y-12582D01*
X18857Y-12592D01*
X18867Y-12601D01*
X18942Y-12601D02*
X18951Y-12592D01*
X18970Y-12582D01*
X19017Y-12582D01*
X19036Y-12592D01*
X19045Y-12601D01*
X19054Y-12620D01*
X19054Y-12639D01*
X19045Y-12667D01*
X18932Y-12779D01*
X19054Y-12779D01*
X19967Y-12760D02*
X19957Y-12770D01*
X19929Y-12779D01*
X19910Y-12779D01*
X19882Y-12770D01*
X19863Y-12751D01*
X19854Y-12732D01*
X19845Y-12695D01*
X19845Y-12667D01*
X19854Y-12629D01*
X19863Y-12610D01*
X19882Y-12592D01*
X19910Y-12582D01*
X19929Y-12582D01*
X19957Y-12592D01*
X19967Y-12601D01*
X20154Y-12779D02*
X20042Y-12779D01*
X20098Y-12779D02*
X20098Y-12582D01*
X20079Y-12610D01*
X20060Y-12629D01*
X20042Y-12639D01*
G54D11*
X24804Y-18861D02*
X24804Y-18461D01*
X24957Y-18461D01*
X24995Y-18480D01*
X25014Y-18500D01*
X25033Y-18538D01*
X25033Y-18595D01*
X25014Y-18633D01*
X24995Y-18652D01*
X24957Y-18671D01*
X24804Y-18671D01*
X25185Y-18500D02*
X25204Y-18480D01*
X25242Y-18461D01*
X25338Y-18461D01*
X25376Y-18480D01*
X25395Y-18500D01*
X25414Y-18538D01*
X25414Y-18576D01*
X25395Y-18633D01*
X25166Y-18861D01*
X25414Y-18861D01*
M02*
