G04 (created by PCBNEW (2013-05-31 BZR 4019)-stable) date 28/01/2014 18:03:58*
%MOIN*%
G04 Gerber Fmt 3.4, Leading zero omitted, Abs format*
%FSLAX34Y34*%
G01*
G70*
G90*
G04 APERTURE LIST*
%ADD10C,0.00590551*%
%ADD11R,0.0579X0.0165*%
%ADD12R,0.035X0.055*%
%ADD13R,0.055X0.035*%
%ADD14R,0.06X0.06*%
%ADD15C,0.06*%
G04 APERTURE END LIST*
G54D10*
G54D11*
X20398Y-15372D03*
X20398Y-15628D03*
X20398Y-15884D03*
X20398Y-16140D03*
X22600Y-14608D03*
X20398Y-14604D03*
X20398Y-14860D03*
X20398Y-15116D03*
X22602Y-16396D03*
X22602Y-16140D03*
X22602Y-15884D03*
X22602Y-15628D03*
X22602Y-15372D03*
X22602Y-15116D03*
X20398Y-16396D03*
X22600Y-14860D03*
G54D12*
X21125Y-12500D03*
X21875Y-12500D03*
X21875Y-13500D03*
X21125Y-13500D03*
G54D13*
X19000Y-15875D03*
X19000Y-15125D03*
X19000Y-17375D03*
X19000Y-16625D03*
X17800Y-15125D03*
X17800Y-15875D03*
X18000Y-16625D03*
X18000Y-17375D03*
X24000Y-16125D03*
X24000Y-16875D03*
X24000Y-14625D03*
X24000Y-15375D03*
G54D12*
X18875Y-9500D03*
X18125Y-9500D03*
X20875Y-9500D03*
X20125Y-9500D03*
G54D13*
X19900Y-16985D03*
X19900Y-17735D03*
X19000Y-13875D03*
X19000Y-13125D03*
X20000Y-13875D03*
X20000Y-13125D03*
G54D14*
X24500Y-10500D03*
G54D15*
X24500Y-11500D03*
X23500Y-10500D03*
X23500Y-11500D03*
X22500Y-10500D03*
X22500Y-11500D03*
X21500Y-10500D03*
X21500Y-11500D03*
X20500Y-10500D03*
X20500Y-11500D03*
X19500Y-10500D03*
X19500Y-11500D03*
X18500Y-10500D03*
X18500Y-11500D03*
X17500Y-10500D03*
X17500Y-11500D03*
G54D14*
X21000Y-17750D03*
G54D15*
X22000Y-17750D03*
X23000Y-17750D03*
X24000Y-17750D03*
X25000Y-17750D03*
M02*
