M48
;DRILL file {Pcbnew (2013-05-31 BZR 4019)-stable} date 28/01/2014 18:04:00
;FORMAT={-:-/ absolute / inch / decimal}
FMAT,2
INCH,TZ
T1C0.025
T2C0.040
%
G90
G05
M72
T1
X1.845Y-1.59
X1.895Y-1.79
X1.93Y-0.945
X1.95Y-1.245
X2.13Y-1.48
X2.133Y-0.949
X2.162Y-1.538
X2.19Y-1.469
X2.332Y-1.51
T2
X1.75Y-1.05
X1.75Y-1.15
X1.85Y-1.05
X1.85Y-1.15
X1.95Y-1.05
X1.95Y-1.15
X2.05Y-1.05
X2.05Y-1.15
X2.1Y-1.775
X2.15Y-1.05
X2.15Y-1.15
X2.2Y-1.775
X2.25Y-1.05
X2.25Y-1.15
X2.3Y-1.775
X2.35Y-1.05
X2.35Y-1.15
X2.4Y-1.775
X2.45Y-1.05
X2.45Y-1.15
X2.5Y-1.775
T0
M30
