G04 (created by PCBNEW (2013-05-31 BZR 4019)-stable) date 28/01/2014 18:03:58*
%MOIN*%
G04 Gerber Fmt 3.4, Leading zero omitted, Abs format*
%FSLAX34Y34*%
G01*
G70*
G90*
G04 APERTURE LIST*
%ADD10C,0.00590551*%
%ADD11R,0.06X0.06*%
%ADD12C,0.06*%
%ADD13C,0.035*%
%ADD14C,0.01*%
%ADD15C,0.02*%
G04 APERTURE END LIST*
G54D10*
G54D11*
X24500Y-10500D03*
G54D12*
X24500Y-11500D03*
X23500Y-10500D03*
X23500Y-11500D03*
X22500Y-10500D03*
X22500Y-11500D03*
X21500Y-10500D03*
X21500Y-11500D03*
X20500Y-10500D03*
X20500Y-11500D03*
X19500Y-10500D03*
X19500Y-11500D03*
X18500Y-10500D03*
X18500Y-11500D03*
X17500Y-10500D03*
X17500Y-11500D03*
G54D11*
X21000Y-17750D03*
G54D12*
X22000Y-17750D03*
X23000Y-17750D03*
X24000Y-17750D03*
X25000Y-17750D03*
G54D13*
X21300Y-14800D03*
X21330Y-9490D03*
X19300Y-9450D03*
X18450Y-15900D03*
X19500Y-12450D03*
X21620Y-15380D03*
X23320Y-15100D03*
X21900Y-14690D03*
X18950Y-17900D03*
G54D14*
X19300Y-9450D02*
X19350Y-9500D01*
X18450Y-13500D02*
X18450Y-15900D01*
X19500Y-12450D02*
X18450Y-13500D01*
X25000Y-17750D02*
X24900Y-17750D01*
X22530Y-15380D02*
X21620Y-15380D01*
X24900Y-17750D02*
X22530Y-15380D01*
X20000Y-11000D02*
X19500Y-10500D01*
X22810Y-11000D02*
X20000Y-11000D01*
X23000Y-11190D02*
X22810Y-11000D01*
X23100Y-14800D02*
X23000Y-11190D01*
X23320Y-15100D02*
X23100Y-14800D01*
X19000Y-11000D02*
X18500Y-10500D01*
X19710Y-11000D02*
X19000Y-11000D01*
X20010Y-11300D02*
X19710Y-11000D01*
X20010Y-12800D02*
X20010Y-11300D01*
X21900Y-14690D02*
X20010Y-12800D01*
G54D15*
X24500Y-10500D02*
X25400Y-10500D01*
X18950Y-18050D02*
X18950Y-17900D01*
X19020Y-18410D02*
X18950Y-18050D01*
X25590Y-18400D02*
X19020Y-18410D01*
X25570Y-10640D02*
X25590Y-18400D01*
X25400Y-10500D02*
X25570Y-10640D01*
G54D10*
G36*
X26469Y-19130D02*
X25939Y-19130D01*
X25939Y-18397D01*
X25933Y-18365D01*
X25919Y-10639D01*
X25916Y-10622D01*
X25918Y-10606D01*
X25903Y-10557D01*
X25893Y-10505D01*
X25883Y-10491D01*
X25878Y-10475D01*
X25846Y-10436D01*
X25817Y-10392D01*
X25802Y-10382D01*
X25792Y-10370D01*
X25622Y-10229D01*
X25577Y-10205D01*
X25533Y-10176D01*
X25517Y-10173D01*
X25502Y-10165D01*
X25450Y-10160D01*
X25400Y-10150D01*
X25049Y-10150D01*
X25012Y-10058D01*
X24941Y-9988D01*
X24849Y-9950D01*
X24750Y-9949D01*
X24150Y-9949D01*
X24058Y-9987D01*
X23988Y-10058D01*
X23950Y-10150D01*
X23950Y-10172D01*
X23811Y-10034D01*
X23609Y-9950D01*
X23391Y-9949D01*
X23188Y-10033D01*
X23034Y-10188D01*
X23000Y-10269D01*
X22966Y-10188D01*
X22811Y-10034D01*
X22609Y-9950D01*
X22391Y-9949D01*
X22188Y-10033D01*
X22034Y-10188D01*
X22000Y-10269D01*
X21966Y-10188D01*
X21811Y-10034D01*
X21609Y-9950D01*
X21391Y-9949D01*
X21188Y-10033D01*
X21034Y-10188D01*
X21002Y-10263D01*
X20981Y-10212D01*
X20885Y-10184D01*
X20815Y-10255D01*
X20815Y-10114D01*
X20787Y-10018D01*
X20581Y-9945D01*
X20363Y-9956D01*
X20212Y-10018D01*
X20184Y-10114D01*
X20500Y-10429D01*
X20815Y-10114D01*
X20815Y-10255D01*
X20570Y-10500D01*
X20576Y-10505D01*
X20505Y-10576D01*
X20500Y-10570D01*
X20494Y-10576D01*
X20423Y-10505D01*
X20429Y-10500D01*
X20114Y-10184D01*
X20018Y-10212D01*
X19999Y-10267D01*
X19966Y-10188D01*
X19811Y-10034D01*
X19609Y-9950D01*
X19391Y-9949D01*
X19188Y-10033D01*
X19034Y-10188D01*
X19000Y-10269D01*
X18966Y-10188D01*
X18811Y-10034D01*
X18609Y-9950D01*
X18391Y-9949D01*
X18188Y-10033D01*
X18034Y-10188D01*
X18000Y-10269D01*
X17966Y-10188D01*
X17811Y-10034D01*
X17609Y-9950D01*
X17391Y-9949D01*
X17188Y-10033D01*
X17034Y-10188D01*
X16950Y-10390D01*
X16949Y-10608D01*
X17033Y-10811D01*
X17188Y-10965D01*
X17269Y-10999D01*
X17188Y-11033D01*
X17034Y-11188D01*
X16950Y-11390D01*
X16949Y-11608D01*
X17033Y-11811D01*
X17188Y-11965D01*
X17390Y-12049D01*
X17608Y-12050D01*
X17811Y-11966D01*
X17965Y-11811D01*
X17999Y-11730D01*
X18033Y-11811D01*
X18188Y-11965D01*
X18390Y-12049D01*
X18608Y-12050D01*
X18811Y-11966D01*
X18965Y-11811D01*
X18999Y-11730D01*
X19033Y-11811D01*
X19188Y-11965D01*
X19372Y-12042D01*
X19259Y-12089D01*
X19139Y-12208D01*
X19075Y-12365D01*
X19074Y-12450D01*
X18237Y-13287D01*
X18172Y-13385D01*
X18150Y-13500D01*
X18150Y-15598D01*
X18089Y-15658D01*
X18025Y-15815D01*
X18024Y-15984D01*
X18089Y-16140D01*
X18208Y-16260D01*
X18365Y-16324D01*
X18534Y-16325D01*
X18690Y-16260D01*
X18810Y-16141D01*
X18874Y-15984D01*
X18875Y-15815D01*
X18810Y-15659D01*
X18750Y-15598D01*
X18750Y-13624D01*
X19499Y-12874D01*
X19584Y-12875D01*
X19714Y-12821D01*
X19732Y-12914D01*
X19797Y-13012D01*
X21475Y-14689D01*
X21474Y-14774D01*
X21539Y-14930D01*
X21563Y-14954D01*
X21535Y-14954D01*
X21379Y-15019D01*
X21259Y-15138D01*
X21195Y-15295D01*
X21194Y-15464D01*
X21259Y-15620D01*
X21378Y-15740D01*
X21535Y-15804D01*
X21704Y-15805D01*
X21860Y-15740D01*
X21921Y-15680D01*
X22405Y-15680D01*
X23925Y-17199D01*
X23891Y-17199D01*
X23688Y-17283D01*
X23534Y-17438D01*
X23500Y-17519D01*
X23466Y-17438D01*
X23311Y-17284D01*
X23109Y-17200D01*
X22891Y-17199D01*
X22688Y-17283D01*
X22534Y-17438D01*
X22500Y-17519D01*
X22466Y-17438D01*
X22311Y-17284D01*
X22109Y-17200D01*
X21891Y-17199D01*
X21688Y-17283D01*
X21550Y-17422D01*
X21550Y-17400D01*
X21512Y-17308D01*
X21441Y-17238D01*
X21349Y-17200D01*
X21250Y-17199D01*
X20650Y-17199D01*
X20558Y-17237D01*
X20488Y-17308D01*
X20450Y-17400D01*
X20449Y-17499D01*
X20449Y-18057D01*
X19343Y-18059D01*
X19374Y-17984D01*
X19375Y-17815D01*
X19310Y-17659D01*
X19191Y-17539D01*
X19034Y-17475D01*
X18865Y-17474D01*
X18709Y-17539D01*
X18589Y-17658D01*
X18525Y-17815D01*
X18524Y-17984D01*
X18589Y-18140D01*
X18616Y-18167D01*
X18676Y-18476D01*
X18689Y-18509D01*
X18696Y-18544D01*
X18715Y-18572D01*
X18728Y-18603D01*
X18753Y-18628D01*
X18772Y-18657D01*
X18800Y-18676D01*
X18824Y-18700D01*
X18857Y-18713D01*
X18886Y-18733D01*
X18919Y-18740D01*
X18950Y-18752D01*
X18985Y-18753D01*
X19020Y-18759D01*
X25576Y-18748D01*
X25584Y-18750D01*
X25718Y-18723D01*
X25718Y-18722D01*
X25724Y-18721D01*
X25837Y-18645D01*
X25913Y-18531D01*
X25939Y-18397D01*
X25939Y-19130D01*
X16569Y-19130D01*
X16550Y-6850D01*
X26450Y-6850D01*
X26469Y-19130D01*
X26469Y-19130D01*
G37*
G54D14*
X26469Y-19130D02*
X25939Y-19130D01*
X25939Y-18397D01*
X25933Y-18365D01*
X25919Y-10639D01*
X25916Y-10622D01*
X25918Y-10606D01*
X25903Y-10557D01*
X25893Y-10505D01*
X25883Y-10491D01*
X25878Y-10475D01*
X25846Y-10436D01*
X25817Y-10392D01*
X25802Y-10382D01*
X25792Y-10370D01*
X25622Y-10229D01*
X25577Y-10205D01*
X25533Y-10176D01*
X25517Y-10173D01*
X25502Y-10165D01*
X25450Y-10160D01*
X25400Y-10150D01*
X25049Y-10150D01*
X25012Y-10058D01*
X24941Y-9988D01*
X24849Y-9950D01*
X24750Y-9949D01*
X24150Y-9949D01*
X24058Y-9987D01*
X23988Y-10058D01*
X23950Y-10150D01*
X23950Y-10172D01*
X23811Y-10034D01*
X23609Y-9950D01*
X23391Y-9949D01*
X23188Y-10033D01*
X23034Y-10188D01*
X23000Y-10269D01*
X22966Y-10188D01*
X22811Y-10034D01*
X22609Y-9950D01*
X22391Y-9949D01*
X22188Y-10033D01*
X22034Y-10188D01*
X22000Y-10269D01*
X21966Y-10188D01*
X21811Y-10034D01*
X21609Y-9950D01*
X21391Y-9949D01*
X21188Y-10033D01*
X21034Y-10188D01*
X21002Y-10263D01*
X20981Y-10212D01*
X20885Y-10184D01*
X20815Y-10255D01*
X20815Y-10114D01*
X20787Y-10018D01*
X20581Y-9945D01*
X20363Y-9956D01*
X20212Y-10018D01*
X20184Y-10114D01*
X20500Y-10429D01*
X20815Y-10114D01*
X20815Y-10255D01*
X20570Y-10500D01*
X20576Y-10505D01*
X20505Y-10576D01*
X20500Y-10570D01*
X20494Y-10576D01*
X20423Y-10505D01*
X20429Y-10500D01*
X20114Y-10184D01*
X20018Y-10212D01*
X19999Y-10267D01*
X19966Y-10188D01*
X19811Y-10034D01*
X19609Y-9950D01*
X19391Y-9949D01*
X19188Y-10033D01*
X19034Y-10188D01*
X19000Y-10269D01*
X18966Y-10188D01*
X18811Y-10034D01*
X18609Y-9950D01*
X18391Y-9949D01*
X18188Y-10033D01*
X18034Y-10188D01*
X18000Y-10269D01*
X17966Y-10188D01*
X17811Y-10034D01*
X17609Y-9950D01*
X17391Y-9949D01*
X17188Y-10033D01*
X17034Y-10188D01*
X16950Y-10390D01*
X16949Y-10608D01*
X17033Y-10811D01*
X17188Y-10965D01*
X17269Y-10999D01*
X17188Y-11033D01*
X17034Y-11188D01*
X16950Y-11390D01*
X16949Y-11608D01*
X17033Y-11811D01*
X17188Y-11965D01*
X17390Y-12049D01*
X17608Y-12050D01*
X17811Y-11966D01*
X17965Y-11811D01*
X17999Y-11730D01*
X18033Y-11811D01*
X18188Y-11965D01*
X18390Y-12049D01*
X18608Y-12050D01*
X18811Y-11966D01*
X18965Y-11811D01*
X18999Y-11730D01*
X19033Y-11811D01*
X19188Y-11965D01*
X19372Y-12042D01*
X19259Y-12089D01*
X19139Y-12208D01*
X19075Y-12365D01*
X19074Y-12450D01*
X18237Y-13287D01*
X18172Y-13385D01*
X18150Y-13500D01*
X18150Y-15598D01*
X18089Y-15658D01*
X18025Y-15815D01*
X18024Y-15984D01*
X18089Y-16140D01*
X18208Y-16260D01*
X18365Y-16324D01*
X18534Y-16325D01*
X18690Y-16260D01*
X18810Y-16141D01*
X18874Y-15984D01*
X18875Y-15815D01*
X18810Y-15659D01*
X18750Y-15598D01*
X18750Y-13624D01*
X19499Y-12874D01*
X19584Y-12875D01*
X19714Y-12821D01*
X19732Y-12914D01*
X19797Y-13012D01*
X21475Y-14689D01*
X21474Y-14774D01*
X21539Y-14930D01*
X21563Y-14954D01*
X21535Y-14954D01*
X21379Y-15019D01*
X21259Y-15138D01*
X21195Y-15295D01*
X21194Y-15464D01*
X21259Y-15620D01*
X21378Y-15740D01*
X21535Y-15804D01*
X21704Y-15805D01*
X21860Y-15740D01*
X21921Y-15680D01*
X22405Y-15680D01*
X23925Y-17199D01*
X23891Y-17199D01*
X23688Y-17283D01*
X23534Y-17438D01*
X23500Y-17519D01*
X23466Y-17438D01*
X23311Y-17284D01*
X23109Y-17200D01*
X22891Y-17199D01*
X22688Y-17283D01*
X22534Y-17438D01*
X22500Y-17519D01*
X22466Y-17438D01*
X22311Y-17284D01*
X22109Y-17200D01*
X21891Y-17199D01*
X21688Y-17283D01*
X21550Y-17422D01*
X21550Y-17400D01*
X21512Y-17308D01*
X21441Y-17238D01*
X21349Y-17200D01*
X21250Y-17199D01*
X20650Y-17199D01*
X20558Y-17237D01*
X20488Y-17308D01*
X20450Y-17400D01*
X20449Y-17499D01*
X20449Y-18057D01*
X19343Y-18059D01*
X19374Y-17984D01*
X19375Y-17815D01*
X19310Y-17659D01*
X19191Y-17539D01*
X19034Y-17475D01*
X18865Y-17474D01*
X18709Y-17539D01*
X18589Y-17658D01*
X18525Y-17815D01*
X18524Y-17984D01*
X18589Y-18140D01*
X18616Y-18167D01*
X18676Y-18476D01*
X18689Y-18509D01*
X18696Y-18544D01*
X18715Y-18572D01*
X18728Y-18603D01*
X18753Y-18628D01*
X18772Y-18657D01*
X18800Y-18676D01*
X18824Y-18700D01*
X18857Y-18713D01*
X18886Y-18733D01*
X18919Y-18740D01*
X18950Y-18752D01*
X18985Y-18753D01*
X19020Y-18759D01*
X25576Y-18748D01*
X25584Y-18750D01*
X25718Y-18723D01*
X25718Y-18722D01*
X25724Y-18721D01*
X25837Y-18645D01*
X25913Y-18531D01*
X25939Y-18397D01*
X25939Y-19130D01*
X16569Y-19130D01*
X16550Y-6850D01*
X26450Y-6850D01*
X26469Y-19130D01*
M02*
