%
M48
M72
T01C0.0150
T02C0.0236
T03C0.0374
T04C0.0394
T05C0.0400
T06C0.0591
T07C0.0748
T08C0.0866
T09C0.1220
T10C0.1250
%
T01
X22380Y8750
X23780Y9000
X24480Y7750
X23180Y10350
X23180Y11800
X22680Y11950
X24680Y11850
X24680Y13600
X24630Y14950
X23030Y15000
X20230Y15100
X22830Y16550
X24880Y16550
X28330Y18250
X33080Y17600
X36230Y18300
X36680Y18300
X37880Y18850
X38130Y20400
X39255Y21225
X39280Y21850
X37880Y21500
X37730Y21850
X37080Y22300
X36830Y21500
X35780Y22050
X35680Y21150
X35730Y20750
X34030Y19750
X32680Y21350
X31930Y22000
X30130Y22100
X29980Y21000
X28480Y22050
X32780Y23650
X33680Y22600
X34230Y22600
X36480Y23200
X36930Y23500
X36530Y23800
X36630Y24300
X37030Y24550
X36480Y24800
X37430Y23850
X39380Y24250
X40380Y23850
X40730Y24100
X39280Y24775
X40530Y25100
X41280Y25100
X41530Y25550
X42080Y25550
X41830Y26900
X41480Y26900
X40080Y27850
X34980Y26250
X34330Y26000
X33830Y27050
X30030Y25700
X28430Y25550
X40980Y21000
X41330Y21350
X41930Y20850
X42280Y21000
X42630Y21300
X43180Y21400
X43780Y20850
X43430Y20750
X42930Y20750
X42430Y19450
X41380Y19425
X43380Y18050
X42980Y17850
X44030Y18050
X44430Y17600
X44380Y17200
X41530Y17550
X41380Y17900
X41380Y16900
X37380Y15900
X37730Y13150
X37430Y12900
X38730Y12600
X37480Y9900
X37780Y9350
X38230Y8850
X34530Y4900
X33930Y5050
X32930Y5050
X37480Y4300
X39780Y4800
X40280Y4800
X41630Y4800
X42930Y4550
X46380Y5050
X46880Y4500
X48130Y4500
X49080Y3850
X49380Y2350
X53830Y2200
X57380Y7100
X58830Y7800
X55630Y9250
X55230Y9250
X55230Y9650
X55630Y9650
X53330Y8950
X58330Y11250
X51780Y14950
X50530Y15400
X49380Y15250
X50130Y13700
X45480Y19150
X44780Y19350
X45880Y19600
X45480Y20350
X47180Y20200
X48780Y21050
X52180Y20700
X53055Y20700
X53930Y20650
X54605Y20650
X55680Y20700
X56405Y20700
X57480Y20700
X58305Y20700
X58055Y22450
X56405Y22450
X54755Y22500
X52955Y22400
X49630Y23650
X51430Y25050
X50880Y25350
X45680Y24600
X45380Y24900
X43930Y23750
X43780Y23400
X44030Y23050
X43880Y22350
X44180Y22025
X45680Y22450
X21380Y13250
X33730Y2000
X38080Y1400
X42330Y1900
T02
X42280Y1250
X36930Y4600
X49130Y1250
X55180Y3600
X55730Y3600
X57580Y3600
X58130Y3600
X58080Y6000
X57580Y6000
X55680Y6000
X55130Y6000
X53280Y6800
X49730Y8800
X49280Y8800
X52880Y9050
X53780Y9050
X56780Y9550
X56730Y10500
X55680Y11500
X54680Y11300
X54230Y11300
X53780Y11300
X52880Y11200
X52880Y11650
X52880Y12100
X51180Y12200
X50680Y12200
X50180Y12200
X46030Y13850
X46030Y14350
X46030Y14850
X46330Y16250
X46330Y16700
X49130Y15950
X49630Y15950
X49630Y17500
X50280Y17900
X51480Y17550
X52430Y16500
X53380Y17550
X53380Y18600
X53380Y19650
X51455Y19650
X50680Y20400
X49430Y21000
X49430Y21500
X49480Y21975
X49480Y22425
X49630Y22900
X52105Y24700
X55280Y19650
X55280Y18600
X57180Y18600
X57180Y19650
X57180Y17550
X55280Y17550
X51480Y18600
X46330Y18650
X46330Y19125
X55880Y12450
X55880Y11950
X56730Y11600
X58630Y12850
X58630Y13400
X58630Y13950
X58630Y14450
X58630Y15000
X58830Y10500
X58830Y9550
X33330Y19650
X32830Y19650
X30880Y19250
X30380Y19250
X29880Y19250
X22830Y19300
X22830Y18800
X22830Y18300
X17680Y19450
X17680Y16100
X17980Y23750
X48080Y30000
T03
X48030Y7100
X49030Y7100
X50030Y7100
X50030Y6100
X49030Y6100
X48030Y6100
T04
X45430Y5900
X44430Y5900
X43430Y5900
X42430Y5900
X41430Y5900
X40430Y5900
X39430Y5900
X38430Y5900
X37430Y5900
X36430Y5900
X35430Y5900
X34430Y5900
X33430Y5900
X32430Y5900
X31430Y5900
X30430Y5900
X29430Y5900
X28430Y5900
X27430Y5900
X26430Y5900
X25430Y5900
X24430Y5900
X23430Y5900
X23430Y6900
X24430Y6900
X25430Y6900
X26430Y6900
X27430Y6900
X28430Y6900
X29430Y6900
X30430Y6900
X31430Y6900
X32430Y6900
X33430Y6900
X34430Y6900
X35430Y6900
X36430Y6900
X37430Y6900
X38430Y6900
X39430Y6900
X40430Y6900
X41430Y6900
X42430Y6900
X43430Y6900
X44430Y6900
X45430Y6900
X43080Y9000
X42080Y9000
X42080Y10000
X43080Y10000
X43080Y11000
X42080Y11000
X51880Y5800
X52880Y5800
X53180Y1250
X32380Y2250
X32380Y3250
X30780Y3250
X29780Y3250
X28780Y3250
X28780Y2250
X29780Y2250
X30780Y2250
X30780Y4250
X29780Y4250
X28780Y4250
X26980Y4250
X25980Y4250
X24980Y4250
X24980Y3250
X25980Y3250
X26980Y3250
X26980Y2250
X25980Y2250
X24980Y2250
X26730Y9480
X26730Y10480
X26730Y11480
X30180Y16600
X31180Y16600
X32180Y16600
X32180Y17600
X31180Y17600
X30180Y17600
X39070Y17660
X39070Y16660
X39070Y18660
X26780Y25250
X26780Y26250
X24180Y26700
X24180Y25700
X24480Y28250
X25480Y28250
X26480Y28250
X27480Y28250
X28480Y28250
X29480Y28250
X30480Y28250
X30480Y29250
X29480Y29250
X28480Y29250
X27480Y29250
X26480Y29250
X25480Y29250
X24480Y29250
X23480Y29250
X23480Y28250
X32180Y28250
X33180Y28250
X34180Y28250
X35180Y28250
X36180Y28250
X37180Y28250
X38180Y28250
X39180Y28250
X39180Y29250
X38180Y29250
X37180Y29250
X36180Y29250
X35180Y29250
X34180Y29250
X33180Y29250
X32180Y29250
X40930Y29250
X41930Y29250
X42930Y29250
X43930Y29250
X44930Y29250
X45930Y29250
X46930Y29250
X47930Y29250
X47930Y28250
X46930Y28250
X45930Y28250
X44930Y28250
X43930Y28250
X42930Y28250
X41930Y28250
X40930Y28250
X49630Y28250
X50630Y28250
X51630Y28250
X52630Y28250
X53630Y28250
X54630Y28250
X55630Y28250
X56630Y28250
X56630Y29250
X55630Y29250
X54630Y29250
X53630Y29250
X52630Y29250
X51630Y29250
X50630Y29250
X49630Y29250
X3130Y8700
X1330Y8700
X1330Y7150
X3130Y7150
X3130Y5700
X1330Y5700
X3830Y3400
T05
X3590Y14030
X2470Y14570
X3590Y15120
X2470Y15660
X3590Y16200
X2470Y16750
X3590Y17290
X2470Y17830
X3590Y18380
X2470Y18920
X3590Y19460
X2470Y20010
X3590Y20550
X2470Y21090
X3590Y21640
X2470Y22180
X3590Y22720
X2470Y23270
X3590Y23810
X2470Y24350
X3590Y24900
X2470Y25440
X3590Y25980
X2470Y26530
X3590Y27070
T06
X6980Y27300
X6980Y23757
X6980Y20593
X6980Y17050
X6980Y13507
X6980Y8343
X6980Y4800
X6980Y1257
X20760Y2650
X20760Y6587
X20760Y16050
X20760Y19200
X20760Y24331
X20760Y29450
X6980Y30843
T07
X6980Y29843
X6980Y26300
X6980Y22757
X6980Y19593
X6980Y16050
X6980Y12507
X6980Y9343
X6980Y5800
X6980Y2257
T08
X20956Y3733
X20956Y7670
X20956Y17133
X20956Y20282
X20956Y23249
X20956Y28367
T09
X3030Y29810
X3030Y11290
T10
X1360Y1480
X47430Y25400
X58050Y30610
X10810Y30610
X58050Y1480
M30
