%FSAX24Y24*%
%MOIN*%
G70*
G01*
G75*
G04 Layer_Physical_Order=2*
G04 Layer_Color=32768*
%ADD10C,0.0060*%
%ADD11C,0.0394*%
%ADD12R,0.0374X0.0394*%
%ADD13R,0.0394X0.0374*%
%ADD14R,0.0630X0.0500*%
%ADD15R,0.0500X0.0630*%
%ADD16R,0.0787X0.0787*%
%ADD17R,0.0850X0.1080*%
%ADD18R,0.0512X0.0728*%
%ADD19R,0.0276X0.0276*%
%ADD20R,0.0276X0.0276*%
%ADD21R,0.0236X0.0315*%
%ADD22R,0.0315X0.0236*%
%ADD23R,0.0728X0.0512*%
%ADD24R,0.0600X0.1000*%
%ADD25R,0.0591X0.1102*%
%ADD26R,0.0550X0.0450*%
%ADD27O,0.0669X0.0118*%
%ADD28R,0.0681X0.0748*%
%ADD29R,0.1654X0.1181*%
%ADD30O,0.0138X0.0669*%
%ADD31R,0.0500X0.1200*%
%ADD32R,0.0787X0.0787*%
%ADD33R,0.0220X0.0200*%
%ADD34R,0.0866X0.0236*%
%ADD35R,0.0866X0.0236*%
%ADD36R,0.0272X0.0390*%
%ADD37R,0.0965X0.0748*%
%ADD38R,0.0160X0.0250*%
%ADD39R,0.0197X0.0161*%
%ADD40R,0.0630X0.0118*%
%ADD41O,0.0630X0.0118*%
%ADD42C,0.0200*%
%ADD43C,0.0070*%
%ADD44C,0.0080*%
%ADD45C,0.0120*%
%ADD46C,0.0250*%
%ADD47C,0.0100*%
%ADD48C,0.0500*%
%ADD49C,0.0030*%
%ADD50C,0.0040*%
%ADD51C,0.0600*%
%ADD52C,0.1750*%
%ADD53R,0.0600X0.0600*%
%ADD54R,0.0600X0.0600*%
%ADD55C,0.0750*%
%ADD56R,0.0750X0.0750*%
%ADD57C,0.0800*%
%ADD58R,0.0800X0.0800*%
%ADD59C,0.0591*%
%ADD60R,0.0591X0.0591*%
%ADD61R,0.0550X0.0550*%
%ADD62C,0.0550*%
%ADD63R,0.0550X0.0550*%
%ADD64R,0.0591X0.0591*%
%ADD65C,0.0200*%
%ADD66C,0.0160*%
%ADD67C,0.0400*%
%ADD68C,0.0850*%
%ADD69C,0.0520*%
%ADD70C,0.0554*%
%ADD71C,0.0300*%
G36*
X025300Y035100D02*
X030800D01*
Y027850D01*
X022800D01*
Y035100D01*
Y041100D01*
X025300D01*
Y035100D01*
D02*
G37*
G54D47*
X075950Y008350D02*
X075850Y008450D01*
X075650D01*
X075550Y008350D01*
Y007950D01*
X075650Y007850D01*
X075850D01*
X075950Y007950D01*
Y008150D01*
X075750D01*
X076150Y007850D02*
Y008450D01*
X076550Y007850D01*
Y008450D01*
X076750D02*
Y007850D01*
X077050D01*
X077149Y007950D01*
Y008350D01*
X077050Y008450D01*
X076750D01*
X077349Y007750D02*
X077749D01*
X077949Y007850D02*
Y008450D01*
X078249D01*
X078349Y008350D01*
Y008150D01*
X078249Y008050D01*
X077949D01*
X078549Y008450D02*
Y007850D01*
X078949D01*
X079149D02*
Y008250D01*
X079349Y008450D01*
X079549Y008250D01*
Y007850D01*
Y008150D01*
X079149D01*
X079749Y007850D02*
Y008450D01*
X080149Y007850D01*
Y008450D01*
X080748D02*
X080348D01*
Y007850D01*
X080748D01*
X080348Y008150D02*
X080548D01*
G54D51*
X042650Y032300D02*
D03*
X031100Y036100D02*
D03*
X030350D02*
D03*
X043550Y021350D02*
D03*
Y020350D02*
D03*
X044550D02*
D03*
Y021350D02*
D03*
X046550Y020350D02*
D03*
X049550D02*
D03*
X046550Y021350D02*
D03*
X050550Y020350D02*
D03*
Y021350D02*
D03*
X048550Y020350D02*
D03*
X049550Y021350D02*
D03*
X045550Y020350D02*
D03*
X048550Y021350D02*
D03*
X047550Y020350D02*
D03*
X045550Y021350D02*
D03*
X047550D02*
D03*
X038550Y020350D02*
D03*
X037550Y021350D02*
D03*
Y020350D02*
D03*
X035550D02*
D03*
X036550Y021350D02*
D03*
X035550D02*
D03*
X039550Y020350D02*
D03*
X036550D02*
D03*
X038550Y021350D02*
D03*
X042550D02*
D03*
X040550Y020350D02*
D03*
X039550Y021350D02*
D03*
X034550Y020350D02*
D03*
X033550D02*
D03*
X032550D02*
D03*
X041550Y021350D02*
D03*
X040550D02*
D03*
X031550Y020350D02*
D03*
X032550Y021350D02*
D03*
X041550Y020350D02*
D03*
X031550Y021350D02*
D03*
X042550Y020350D02*
D03*
X033550Y021350D02*
D03*
X034550D02*
D03*
X032150Y022550D02*
D03*
Y023550D02*
D03*
Y024550D02*
D03*
Y025550D02*
D03*
Y026550D02*
D03*
Y027550D02*
D03*
X051150Y022550D02*
D03*
Y023550D02*
D03*
Y024550D02*
D03*
Y025550D02*
D03*
Y026550D02*
D03*
Y027550D02*
D03*
Y028550D02*
D03*
Y029550D02*
D03*
X052950Y027750D02*
D03*
Y028750D02*
D03*
Y029750D02*
D03*
Y033000D02*
D03*
Y032000D02*
D03*
Y031000D02*
D03*
X052927Y034227D02*
D03*
Y035227D02*
D03*
Y036227D02*
D03*
X048300Y036300D02*
D03*
Y035300D02*
D03*
X037050Y025050D02*
D03*
X036050D02*
D03*
X035050D02*
D03*
X053000Y026600D02*
D03*
Y025600D02*
D03*
Y024600D02*
D03*
X043550Y040350D02*
D03*
Y039350D02*
D03*
X044550D02*
D03*
Y040350D02*
D03*
X046550Y039350D02*
D03*
X052550D02*
D03*
X049550D02*
D03*
X051550Y040350D02*
D03*
X046550D02*
D03*
X052550D02*
D03*
X051550Y039350D02*
D03*
X050550D02*
D03*
Y040350D02*
D03*
X048550Y039350D02*
D03*
X049550Y040350D02*
D03*
X045550Y039350D02*
D03*
X048550Y040350D02*
D03*
X047550Y039350D02*
D03*
X045550Y040350D02*
D03*
X047550D02*
D03*
X038550Y039350D02*
D03*
X037550Y040350D02*
D03*
Y039350D02*
D03*
X035550D02*
D03*
X036550Y040350D02*
D03*
X035550D02*
D03*
X039550Y039350D02*
D03*
X036550D02*
D03*
X038550Y040350D02*
D03*
X042550D02*
D03*
X040550Y039350D02*
D03*
X039550Y040350D02*
D03*
X034550Y039350D02*
D03*
X033550D02*
D03*
X032550D02*
D03*
X041550Y040350D02*
D03*
X040550D02*
D03*
X031550Y039350D02*
D03*
X032550Y040350D02*
D03*
X041550Y039350D02*
D03*
X031550Y040350D02*
D03*
X042550Y039350D02*
D03*
X033550Y040350D02*
D03*
X034550D02*
D03*
X051150Y038150D02*
D03*
Y037150D02*
D03*
Y036150D02*
D03*
Y035150D02*
D03*
Y034150D02*
D03*
Y033150D02*
D03*
Y032150D02*
D03*
Y031150D02*
D03*
X029050Y025100D02*
D03*
X032150Y034550D02*
D03*
Y033550D02*
D03*
Y032550D02*
D03*
Y031550D02*
D03*
Y030550D02*
D03*
Y029550D02*
D03*
G54D62*
X025550Y027100D02*
D03*
G54D67*
X054300Y041100D02*
X056800Y038600D01*
X025300Y041100D02*
X054300D01*
X025300Y035100D02*
Y041100D01*
Y035100D02*
X030800D01*
Y027850D02*
Y035100D01*
X022800Y027850D02*
X030800D01*
X022800Y022100D02*
Y027850D01*
Y022100D02*
X025300Y019600D01*
X054300D01*
X056800Y022100D01*
Y038600D01*
G54D68*
X023650Y027000D02*
D03*
Y025450D02*
D03*
Y022550D02*
D03*
Y024100D02*
D03*
X026100Y035900D02*
D03*
Y037450D02*
D03*
G54D69*
X038200Y023300D02*
D03*
Y024300D02*
D03*
Y025300D02*
D03*
Y026300D02*
D03*
Y027300D02*
D03*
Y028300D02*
D03*
Y029300D02*
D03*
Y031300D02*
D03*
Y032300D02*
D03*
Y033300D02*
D03*
Y034300D02*
D03*
Y035300D02*
D03*
Y036300D02*
D03*
X041200Y023300D02*
D03*
Y024300D02*
D03*
Y025300D02*
D03*
Y026300D02*
D03*
Y027300D02*
D03*
Y028300D02*
D03*
Y030300D02*
D03*
Y031300D02*
D03*
Y032300D02*
D03*
Y033300D02*
D03*
Y034300D02*
D03*
Y035300D02*
D03*
Y036300D02*
D03*
G54D70*
X052150Y037150D02*
D03*
Y038150D02*
D03*
X029550Y027100D02*
D03*
Y026100D02*
D03*
X028550Y027100D02*
D03*
Y026100D02*
D03*
X027550Y027100D02*
D03*
Y026100D02*
D03*
X026550Y027100D02*
D03*
Y026100D02*
D03*
X025550D02*
D03*
G54D71*
X046250Y037500D02*
D03*
X042800Y033800D02*
D03*
X043500Y033650D02*
D03*
Y033150D02*
D03*
X042150Y035450D02*
D03*
X040800Y034850D02*
D03*
X045300Y034300D02*
D03*
X037100Y024200D02*
D03*
X049100Y034350D02*
D03*
X049400Y034700D02*
D03*
X047100Y035775D02*
D03*
X049350Y036200D02*
D03*
X047050Y035150D02*
D03*
X042150Y034800D02*
D03*
X039750Y024100D02*
D03*
X044200Y023800D02*
D03*
X045200Y034650D02*
D03*
X041000Y030800D02*
D03*
X044650Y034800D02*
D03*
X047300Y034650D02*
D03*
X047400Y033450D02*
D03*
X048900Y032800D02*
D03*
X050900Y028100D02*
D03*
X050800Y026100D02*
D03*
X039400Y022450D02*
D03*
X049500Y032200D02*
D03*
Y033150D02*
D03*
X051600Y033700D02*
D03*
X051900Y026750D02*
D03*
X024400Y023350D02*
D03*
X051650Y031450D02*
D03*
X048350Y025100D02*
D03*
X037800Y032650D02*
D03*
X037650Y032400D02*
D03*
X049350Y024400D02*
D03*
X045237Y035937D02*
D03*
X036450Y035650D02*
D03*
X039550Y033300D02*
D03*
X036100Y036700D02*
D03*
X045605Y027700D02*
D03*
X046200Y023900D02*
D03*
Y024150D02*
D03*
X045630Y028500D02*
D03*
X045900Y030950D02*
D03*
X033990Y028512D02*
D03*
X033486Y034014D02*
D03*
X031100Y022100D02*
D03*
X038700Y025450D02*
D03*
X026750Y023550D02*
D03*
X025450Y025350D02*
D03*
X026650Y022300D02*
D03*
X025550Y022350D02*
D03*
X044600Y025350D02*
D03*
X049540Y025900D02*
D03*
X046650Y031400D02*
D03*
X045800Y034000D02*
D03*
X049257Y023654D02*
D03*
X050050Y027950D02*
D03*
X044950Y024850D02*
D03*
X049850Y027072D02*
D03*
X049450Y028450D02*
D03*
X047800Y031550D02*
D03*
X048000D02*
D03*
X046250Y029050D02*
D03*
X046550Y029400D02*
D03*
X049140Y031150D02*
D03*
X042050Y032350D02*
D03*
X047300Y033000D02*
D03*
X047050D02*
D03*
X048850Y030750D02*
D03*
X048800Y025750D02*
D03*
X044650Y027300D02*
D03*
X043300Y029450D02*
D03*
X043050D02*
D03*
X034200Y030100D02*
D03*
X036850Y035900D02*
D03*
X045450Y035750D02*
D03*
X040100Y034200D02*
D03*
X042300Y038500D02*
D03*
X043850Y032250D02*
D03*
X040350Y030750D02*
D03*
X035700Y036000D02*
D03*
X036250Y030100D02*
D03*
X034950Y036400D02*
D03*
X034500Y036350D02*
D03*
X035350Y036400D02*
D03*
X035450Y030080D02*
D03*
Y029800D02*
D03*
X045030Y039820D02*
D03*
X044750D02*
D03*
X043100Y030600D02*
D03*
X039300Y029700D02*
D03*
X037550Y030850D02*
D03*
X046000Y037500D02*
D03*
X048301Y026024D02*
D03*
X049400Y026700D02*
D03*
X049052Y026950D02*
D03*
X046100Y029400D02*
D03*
X031750Y024000D02*
D03*
X029150Y023450D02*
D03*
X037550Y029550D02*
D03*
X036400Y031600D02*
D03*
X031850Y023100D02*
D03*
X033950Y033500D02*
D03*
X041350Y038850D02*
D03*
X033100Y028300D02*
D03*
X034850Y026750D02*
D03*
X043600Y038200D02*
D03*
X043850D02*
D03*
X044150Y037950D02*
D03*
Y037700D02*
D03*
X043150Y037250D02*
D03*
Y036950D02*
D03*
X038850Y036800D02*
D03*
X038550D02*
D03*
X040300Y037800D02*
D03*
X041800Y036600D02*
D03*
X041111Y037761D02*
D03*
X042150Y037950D02*
D03*
X048011Y028261D02*
D03*
X047800Y031750D02*
D03*
X042850Y036500D02*
D03*
X042600D02*
D03*
X043100Y030350D02*
D03*
X043550Y029450D02*
D03*
Y029200D02*
D03*
X037300Y026500D02*
D03*
X037050Y031830D02*
D03*
X036950Y026500D02*
D03*
X038750Y026400D02*
D03*
X037700Y031850D02*
D03*
X039300Y030000D02*
D03*
X038650Y029550D02*
D03*
X037550Y023950D02*
D03*
X037800Y025850D02*
D03*
X034900Y028300D02*
D03*
X033950Y027150D02*
D03*
X037100Y034600D02*
D03*
X034100Y022400D02*
D03*
X037350Y023650D02*
D03*
X038100Y025800D02*
D03*
X039600Y026800D02*
D03*
X039100Y035450D02*
D03*
X033500Y031150D02*
D03*
X036390Y032464D02*
D03*
X044650Y027550D02*
D03*
X046150Y025850D02*
D03*
X044250Y024600D02*
D03*
X043650D02*
D03*
X042850Y025300D02*
D03*
X043100Y031050D02*
D03*
X046400Y026700D02*
D03*
X046500Y026500D02*
D03*
X036400Y036150D02*
D03*
X040350Y035400D02*
D03*
X037200Y029100D02*
D03*
X036400Y028200D02*
D03*
X033300Y025250D02*
D03*
X038650Y033700D02*
D03*
X046900Y023900D02*
D03*
X047200Y025500D02*
D03*
X047350Y024250D02*
D03*
X047700Y024100D02*
D03*
X046200Y024450D02*
D03*
X046800Y024600D02*
D03*
X047350Y024900D02*
D03*
X037900Y027800D02*
D03*
X036850Y026100D02*
D03*
X043500Y034300D02*
D03*
X042350D02*
D03*
X036550Y034550D02*
D03*
X034300Y032050D02*
D03*
X034850Y033400D02*
D03*
X037700Y031100D02*
D03*
Y031550D02*
D03*
X040000Y030600D02*
D03*
X037550Y030050D02*
D03*
X036250Y029800D02*
D03*
X036450Y030900D02*
D03*
X037550Y033250D02*
D03*
X039550Y028350D02*
D03*
X041900Y027600D02*
D03*
X040150Y029500D02*
D03*
X042050Y031800D02*
D03*
X041643Y028010D02*
D03*
X040700Y027800D02*
D03*
X041400Y030800D02*
D03*
X036400Y031900D02*
D03*
X036650Y033200D02*
D03*
X036000Y030550D02*
D03*
X035400D02*
D03*
X035600Y030800D02*
D03*
X034150Y034200D02*
D03*
X033050Y024750D02*
D03*
X033950Y023500D02*
D03*
X037793Y034557D02*
D03*
X036200Y029050D02*
D03*
Y032700D02*
D03*
X035500Y031750D02*
D03*
X046500Y028499D02*
D03*
X048000Y025185D02*
D03*
X048350Y038650D02*
D03*
X048700D02*
D03*
X047850D02*
D03*
X043350Y038550D02*
D03*
X051950Y032100D02*
D03*
X050100Y031650D02*
D03*
X046100Y026350D02*
D03*
X040050Y024400D02*
D03*
X049800Y030800D02*
D03*
X044607Y027943D02*
D03*
X040050Y025150D02*
D03*
X026050Y038450D02*
D03*
X026350D02*
D03*
X027550Y036650D02*
D03*
X028100D02*
D03*
Y036950D02*
D03*
X028240Y037500D02*
D03*
X028250Y037250D02*
D03*
Y037750D02*
D03*
X029250Y038600D02*
D03*
X029400Y038050D02*
D03*
X031900Y037600D02*
D03*
X026200Y038650D02*
D03*
X025900D02*
D03*
X025778Y038428D02*
D03*
X034050Y039850D02*
D03*
X039800Y037850D02*
D03*
X054650Y035550D02*
D03*
X054700Y032300D02*
D03*
Y029100D02*
D03*
X054600Y025900D02*
D03*
X054100Y035750D02*
D03*
X054050Y032500D02*
D03*
X054100Y029300D02*
D03*
X054050Y026050D02*
D03*
Y025300D02*
D03*
X054100Y028450D02*
D03*
X054150Y031550D02*
D03*
X054350Y035450D02*
D03*
X055550Y035900D02*
D03*
M02*
