%FSAX24Y24*%
%MOIN*%
G70*
G01*
G75*
G04 Layer_Color=255*
%ADD10C,0.0060*%
%ADD11C,0.0394*%
%ADD12R,0.0374X0.0394*%
%ADD13R,0.0394X0.0374*%
%ADD14R,0.0630X0.0500*%
%ADD15R,0.0500X0.0630*%
%ADD16R,0.0787X0.0787*%
%ADD17R,0.0850X0.1080*%
%ADD18R,0.0512X0.0728*%
%ADD19R,0.0276X0.0276*%
%ADD20R,0.0276X0.0276*%
%ADD21R,0.0236X0.0315*%
%ADD22R,0.0315X0.0236*%
%ADD23R,0.0728X0.0512*%
%ADD24R,0.0600X0.1000*%
%ADD25R,0.0591X0.1102*%
%ADD26R,0.0550X0.0450*%
%ADD27O,0.0669X0.0118*%
%ADD28R,0.0681X0.0748*%
%ADD29R,0.1654X0.1181*%
%ADD30O,0.0138X0.0669*%
%ADD31R,0.0500X0.1200*%
%ADD32R,0.0787X0.0787*%
%ADD33R,0.0220X0.0200*%
%ADD34R,0.0866X0.0236*%
%ADD35R,0.0866X0.0236*%
%ADD36R,0.0272X0.0390*%
%ADD37R,0.0965X0.0748*%
%ADD38R,0.0160X0.0250*%
%ADD39R,0.0197X0.0161*%
%ADD40R,0.0630X0.0118*%
%ADD41O,0.0630X0.0118*%
%ADD42C,0.0200*%
%ADD43C,0.0070*%
%ADD44C,0.0080*%
%ADD45C,0.0120*%
%ADD46C,0.0250*%
%ADD47C,0.0100*%
%ADD48C,0.0500*%
%ADD49C,0.0030*%
%ADD50C,0.0040*%
%ADD51C,0.0600*%
%ADD52C,0.1750*%
%ADD53R,0.0600X0.0600*%
%ADD54R,0.0600X0.0600*%
%ADD55C,0.0750*%
%ADD56R,0.0750X0.0750*%
%ADD57C,0.0800*%
%ADD58R,0.0800X0.0800*%
%ADD59C,0.0591*%
%ADD60R,0.0591X0.0591*%
%ADD61R,0.0550X0.0550*%
%ADD62C,0.0550*%
%ADD63R,0.0550X0.0550*%
%ADD64R,0.0591X0.0591*%
%ADD65C,0.0200*%
%ADD66C,0.0160*%
%ADD67C,0.0400*%
%ADD68C,0.0850*%
%ADD69C,0.0520*%
%ADD70C,0.0554*%
%ADD71C,0.0300*%
%ADD72R,0.1575X0.0630*%
%ADD73R,0.0200X0.0220*%
%ADD74R,0.0236X0.0591*%
%ADD75R,0.0591X0.0236*%
%ADD76R,0.1142X0.2126*%
%ADD77R,0.0701X0.1402*%
%ADD78R,0.0902X0.0673*%
%ADD79R,0.0134X0.0256*%
%ADD80R,0.0134X0.0315*%
%ADD81R,0.1260X0.0630*%
%ADD82R,0.1100X0.1500*%
%ADD83C,0.0050*%
G54D11*
X026300Y040350D02*
D03*
X055950Y037850D02*
D03*
G54D12*
X048200Y023885D02*
D03*
Y024515D02*
D03*
X048900Y023885D02*
D03*
Y024515D02*
D03*
G54D13*
X048365Y025550D02*
D03*
X047735D02*
D03*
X030735Y024000D02*
D03*
X031365D02*
D03*
X030735Y023050D02*
D03*
X031365D02*
D03*
G54D14*
X056000Y034700D02*
D03*
Y035500D02*
D03*
G54D15*
X048900Y029200D02*
D03*
X048100D02*
D03*
G54D17*
X046480Y032300D02*
D03*
X048220D02*
D03*
X046480Y033900D02*
D03*
X048220D02*
D03*
G54D18*
X026121Y023750D02*
D03*
X024979D02*
D03*
X026121Y022750D02*
D03*
X024979D02*
D03*
X028421Y035900D02*
D03*
X027279D02*
D03*
G54D21*
X025256Y024485D02*
D03*
X024744D02*
D03*
X025000Y025115D02*
D03*
X025606Y021335D02*
D03*
X025094D02*
D03*
X025350Y021965D02*
D03*
X028650Y023664D02*
D03*
Y024136D02*
D03*
X028050Y025336D02*
D03*
Y024864D02*
D03*
X029650Y022786D02*
D03*
Y022314D02*
D03*
G54D22*
X054600Y031450D02*
D03*
Y031962D02*
D03*
X055230Y031706D02*
D03*
X054600Y028200D02*
D03*
Y028712D02*
D03*
X055230Y028456D02*
D03*
X054585Y024944D02*
D03*
Y025456D02*
D03*
X055215Y025200D02*
D03*
X033014Y034450D02*
D03*
X033486D02*
D03*
X033064Y033500D02*
D03*
X033536D02*
D03*
X033064Y032600D02*
D03*
X033536D02*
D03*
X033064Y031550D02*
D03*
X033536D02*
D03*
X033064Y030550D02*
D03*
X033536D02*
D03*
X033014Y029550D02*
D03*
X033486D02*
D03*
X033064Y027400D02*
D03*
X033536D02*
D03*
X033064Y026400D02*
D03*
X033536D02*
D03*
X033064Y025600D02*
D03*
X033536D02*
D03*
X033064Y024400D02*
D03*
X033536D02*
D03*
X033064Y023500D02*
D03*
X033536D02*
D03*
X033064Y022400D02*
D03*
X033536D02*
D03*
X033464Y034950D02*
D03*
X033936D02*
D03*
X049814Y038200D02*
D03*
X050286D02*
D03*
X049814Y037200D02*
D03*
X050286D02*
D03*
X049814Y036200D02*
D03*
X050286D02*
D03*
X049814Y035200D02*
D03*
X050286D02*
D03*
X049814Y033150D02*
D03*
X050286D02*
D03*
X049814Y032200D02*
D03*
X050286D02*
D03*
X049814Y031200D02*
D03*
X050286D02*
D03*
X049814Y029600D02*
D03*
X050286D02*
D03*
X049814Y028600D02*
D03*
X050286D02*
D03*
X049864Y027600D02*
D03*
X050336D02*
D03*
X049814Y026550D02*
D03*
X050286D02*
D03*
X049814Y025600D02*
D03*
X050286D02*
D03*
X049814Y024550D02*
D03*
X050286D02*
D03*
X049814Y023550D02*
D03*
X050286D02*
D03*
X049814Y022550D02*
D03*
X050286D02*
D03*
X048364Y023300D02*
D03*
X048836D02*
D03*
X026764Y021000D02*
D03*
X027236D02*
D03*
X054550Y034600D02*
D03*
Y035112D02*
D03*
X055180Y034856D02*
D03*
G54D23*
X045600Y032821D02*
D03*
Y031679D02*
D03*
G54D33*
X024400Y023050D02*
D03*
Y022633D02*
D03*
Y024150D02*
D03*
Y023733D02*
D03*
G54D51*
X042650Y032300D02*
D03*
X031100Y036100D02*
D03*
X030350D02*
D03*
X043550Y021350D02*
D03*
Y020350D02*
D03*
X044550D02*
D03*
Y021350D02*
D03*
X046550Y020350D02*
D03*
X052550D02*
D03*
X049550D02*
D03*
X051550Y021350D02*
D03*
X046550D02*
D03*
X030550D02*
D03*
X052550D02*
D03*
X051550Y020350D02*
D03*
X050550D02*
D03*
Y021350D02*
D03*
X048550Y020350D02*
D03*
X049550Y021350D02*
D03*
X045550Y020350D02*
D03*
X048550Y021350D02*
D03*
X047550Y020350D02*
D03*
X045550Y021350D02*
D03*
X047550D02*
D03*
X038550Y020350D02*
D03*
X037550Y021350D02*
D03*
Y020350D02*
D03*
X035550D02*
D03*
X036550Y021350D02*
D03*
X035550D02*
D03*
X039550Y020350D02*
D03*
X036550D02*
D03*
X038550Y021350D02*
D03*
X042550D02*
D03*
X040550Y020350D02*
D03*
X039550Y021350D02*
D03*
X034550Y020350D02*
D03*
X033550D02*
D03*
X032550D02*
D03*
X041550Y021350D02*
D03*
X040550D02*
D03*
X031550Y020350D02*
D03*
X032550Y021350D02*
D03*
X041550Y020350D02*
D03*
X031550Y021350D02*
D03*
X042550Y020350D02*
D03*
X033550Y021350D02*
D03*
X034550D02*
D03*
X032150Y022550D02*
D03*
Y023550D02*
D03*
Y024550D02*
D03*
Y025550D02*
D03*
Y026550D02*
D03*
X051150Y023550D02*
D03*
Y024550D02*
D03*
Y025550D02*
D03*
Y026550D02*
D03*
Y027550D02*
D03*
Y028550D02*
D03*
Y029550D02*
D03*
X038200Y023300D02*
D03*
Y024300D02*
D03*
Y025300D02*
D03*
Y026300D02*
D03*
Y027300D02*
D03*
Y028300D02*
D03*
Y029300D02*
D03*
Y030300D02*
D03*
Y031300D02*
D03*
Y032300D02*
D03*
Y033300D02*
D03*
Y034300D02*
D03*
Y035300D02*
D03*
Y036300D02*
D03*
X041200Y023300D02*
D03*
Y024300D02*
D03*
Y025300D02*
D03*
Y026300D02*
D03*
Y027300D02*
D03*
Y028300D02*
D03*
Y029300D02*
D03*
Y030300D02*
D03*
Y031300D02*
D03*
Y032300D02*
D03*
Y033300D02*
D03*
Y034300D02*
D03*
Y035300D02*
D03*
X025550Y027100D02*
D03*
X043550Y040350D02*
D03*
Y039350D02*
D03*
X044550D02*
D03*
Y040350D02*
D03*
X046550Y039350D02*
D03*
X052550D02*
D03*
X049550D02*
D03*
X051550Y040350D02*
D03*
X046550D02*
D03*
X030550D02*
D03*
X052550D02*
D03*
X051550Y039350D02*
D03*
X050550D02*
D03*
Y040350D02*
D03*
X048550Y039350D02*
D03*
X049550Y040350D02*
D03*
X045550Y039350D02*
D03*
X048550Y040350D02*
D03*
X047550Y039350D02*
D03*
X045550Y040350D02*
D03*
X047550D02*
D03*
X038550Y039350D02*
D03*
X037550Y040350D02*
D03*
Y039350D02*
D03*
X035550D02*
D03*
X036550Y040350D02*
D03*
X035550D02*
D03*
X039550Y039350D02*
D03*
X036550D02*
D03*
X038550Y040350D02*
D03*
X042550D02*
D03*
X040550Y039350D02*
D03*
X039550Y040350D02*
D03*
X034550Y039350D02*
D03*
X033550D02*
D03*
X032550D02*
D03*
X041550Y040350D02*
D03*
X040550D02*
D03*
X031550Y039350D02*
D03*
X032550Y040350D02*
D03*
X041550Y039350D02*
D03*
X031550Y040350D02*
D03*
X042550Y039350D02*
D03*
X033550Y040350D02*
D03*
X034550D02*
D03*
X051150Y038150D02*
D03*
Y037150D02*
D03*
Y036150D02*
D03*
Y035150D02*
D03*
Y034150D02*
D03*
Y033150D02*
D03*
Y032150D02*
D03*
X029050Y025100D02*
D03*
X029950D02*
D03*
X032150Y033550D02*
D03*
Y032550D02*
D03*
Y031550D02*
D03*
Y030550D02*
D03*
Y029550D02*
D03*
G54D52*
X028550Y039850D02*
D03*
X054550Y038600D02*
D03*
Y022100D02*
D03*
X028550Y020850D02*
D03*
G54D53*
X030550Y020350D02*
D03*
X051150Y022550D02*
D03*
X041200Y036300D02*
D03*
X030550Y039350D02*
D03*
X051150Y031150D02*
D03*
G54D54*
X032150Y027550D02*
D03*
Y034550D02*
D03*
G54D55*
X052950Y027750D02*
D03*
Y028750D02*
D03*
Y032000D02*
D03*
Y031000D02*
D03*
X052927Y034227D02*
D03*
Y035227D02*
D03*
X053000Y025600D02*
D03*
Y024600D02*
D03*
G54D56*
X052950Y029750D02*
D03*
Y033000D02*
D03*
X052927Y036227D02*
D03*
X053000Y026600D02*
D03*
G54D57*
X023650Y027000D02*
D03*
Y024100D02*
D03*
X026100Y037450D02*
D03*
G54D58*
X023650Y025450D02*
D03*
Y022550D02*
D03*
X026100Y035900D02*
D03*
G54D59*
X052150Y037150D02*
D03*
X029550Y027100D02*
D03*
Y026100D02*
D03*
X028550Y027100D02*
D03*
Y026100D02*
D03*
X027550Y027100D02*
D03*
Y026100D02*
D03*
X026550Y027100D02*
D03*
Y026100D02*
D03*
G54D60*
X052150Y038150D02*
D03*
G54D61*
X048300Y036300D02*
D03*
G54D62*
Y035300D02*
D03*
X037050Y025050D02*
D03*
X036050D02*
D03*
G54D63*
X035050D02*
D03*
G54D64*
X025550Y026100D02*
D03*
G54D72*
X037020Y036900D02*
D03*
X034580D02*
D03*
X045250Y023900D02*
D03*
X042809D02*
D03*
G54D73*
X054117Y036200D02*
D03*
X053700D02*
D03*
X054100Y035200D02*
D03*
X053683D02*
D03*
X054050Y034200D02*
D03*
X053633D02*
D03*
X054050Y032950D02*
D03*
X053633D02*
D03*
X054050Y032000D02*
D03*
X053633D02*
D03*
X054050Y031000D02*
D03*
X053633D02*
D03*
X054100Y029750D02*
D03*
X053683D02*
D03*
X054100Y028750D02*
D03*
X053683D02*
D03*
X054100Y027750D02*
D03*
X053683D02*
D03*
X054050Y026600D02*
D03*
X053633D02*
D03*
X054050Y025600D02*
D03*
X053633D02*
D03*
X054050Y024600D02*
D03*
X053633D02*
D03*
X024800Y026100D02*
D03*
X024383D02*
D03*
X024800Y026950D02*
D03*
X024383D02*
D03*
G54D74*
X026950Y022324D02*
D03*
X026576Y021576D02*
D03*
X027324D02*
D03*
G54D75*
X026526Y025050D02*
D03*
X027274Y024676D02*
D03*
Y025424D02*
D03*
X028076Y022400D02*
D03*
X028824Y022026D02*
D03*
Y022774D02*
D03*
X027276Y023750D02*
D03*
X028024Y023376D02*
D03*
Y024124D02*
D03*
G54D76*
X043001Y028100D02*
D03*
X046899D02*
D03*
G54D77*
X046150Y036650D02*
D03*
X042450D02*
D03*
G54D78*
X048150Y030409D02*
D03*
G54D79*
X047766Y029945D02*
D03*
X048022D02*
D03*
X048278D02*
D03*
X048534D02*
D03*
G54D80*
Y031155D02*
D03*
X048278D02*
D03*
X048022D02*
D03*
X047766D02*
D03*
G54D81*
X042566Y033100D02*
D03*
X044534D02*
D03*
G54D82*
X027345Y037600D02*
D03*
X030155D02*
D03*
M02*
