%FSAX24Y24*%
%MOIN*%
G70*
G01*
G75*
G04 Layer_Color=16711935*
%ADD10C,0.0060*%
%ADD11C,0.0394*%
%ADD12R,0.0374X0.0394*%
%ADD13R,0.0394X0.0374*%
%ADD14R,0.0630X0.0500*%
%ADD15R,0.0500X0.0630*%
%ADD16R,0.0787X0.0787*%
%ADD17R,0.0850X0.1080*%
%ADD18R,0.0512X0.0728*%
%ADD19R,0.0276X0.0276*%
%ADD20R,0.0276X0.0276*%
%ADD21R,0.0236X0.0315*%
%ADD22R,0.0315X0.0236*%
%ADD23R,0.0728X0.0512*%
%ADD24R,0.0600X0.1000*%
%ADD25R,0.0591X0.1102*%
%ADD26R,0.0550X0.0450*%
%ADD27O,0.0669X0.0118*%
%ADD28R,0.0681X0.0748*%
%ADD29R,0.1654X0.1181*%
%ADD30O,0.0138X0.0669*%
%ADD31R,0.0500X0.1200*%
%ADD32R,0.0787X0.0787*%
%ADD33R,0.0220X0.0200*%
%ADD34R,0.0866X0.0236*%
%ADD35R,0.0866X0.0236*%
%ADD36R,0.0272X0.0390*%
%ADD37R,0.0965X0.0748*%
%ADD38R,0.0160X0.0250*%
%ADD39R,0.0197X0.0161*%
%ADD40R,0.0630X0.0118*%
%ADD41O,0.0630X0.0118*%
%ADD42C,0.0200*%
%ADD43C,0.0070*%
%ADD44C,0.0080*%
%ADD45C,0.0120*%
%ADD46C,0.0250*%
%ADD47C,0.0100*%
%ADD48C,0.0500*%
%ADD49C,0.0030*%
%ADD50C,0.0040*%
%ADD51C,0.0600*%
%ADD52C,0.1750*%
%ADD53R,0.0600X0.0600*%
%ADD54R,0.0600X0.0600*%
%ADD55C,0.0750*%
%ADD56R,0.0750X0.0750*%
%ADD57C,0.0800*%
%ADD58R,0.0800X0.0800*%
%ADD59C,0.0591*%
%ADD60R,0.0591X0.0591*%
%ADD61R,0.0550X0.0550*%
%ADD62C,0.0550*%
%ADD63R,0.0550X0.0550*%
%ADD64R,0.0591X0.0591*%
%ADD65C,0.0200*%
%ADD66C,0.0160*%
%ADD67C,0.0400*%
%ADD68C,0.0850*%
%ADD69C,0.0520*%
%ADD70C,0.0554*%
%ADD71C,0.0300*%
%ADD72R,0.1575X0.0630*%
%ADD73R,0.0200X0.0220*%
%ADD74R,0.0236X0.0591*%
%ADD75R,0.0591X0.0236*%
%ADD76R,0.1142X0.2126*%
%ADD77R,0.0701X0.1402*%
%ADD78R,0.0902X0.0673*%
%ADD79R,0.0134X0.0256*%
%ADD80R,0.0134X0.0315*%
%ADD81R,0.1260X0.0630*%
%ADD82R,0.1100X0.1500*%
%ADD83C,0.0050*%
%ADD84C,0.0098*%
%ADD85C,0.0079*%
%ADD86R,0.0200X0.1240*%
%ADD87R,0.0200X0.1640*%
%ADD88R,0.1240X0.0200*%
%ADD89C,0.0000*%
%ADD90R,0.0925X0.0709*%
%ADD91C,0.0787*%
%ADD92R,0.0454X0.0474*%
%ADD93R,0.0474X0.0454*%
%ADD94R,0.0710X0.0580*%
%ADD95R,0.0580X0.0710*%
%ADD96R,0.0867X0.0867*%
%ADD97R,0.0930X0.1160*%
%ADD98R,0.0592X0.0808*%
%ADD99R,0.0356X0.0356*%
%ADD100R,0.0356X0.0356*%
%ADD101R,0.0316X0.0395*%
%ADD102R,0.0395X0.0316*%
%ADD103R,0.0808X0.0592*%
%ADD104R,0.0680X0.1080*%
%ADD105R,0.0671X0.1182*%
%ADD106R,0.0630X0.0530*%
%ADD107O,0.0749X0.0198*%
%ADD108R,0.0761X0.0828*%
%ADD109R,0.1734X0.1261*%
%ADD110O,0.0218X0.0749*%
%ADD111R,0.0580X0.1280*%
%ADD112R,0.0867X0.0867*%
%ADD113R,0.0300X0.0280*%
%ADD114R,0.0946X0.0316*%
%ADD115R,0.0946X0.0316*%
%ADD116R,0.0352X0.0470*%
%ADD117R,0.1025X0.0808*%
%ADD118R,0.0200X0.0290*%
%ADD119R,0.0257X0.0221*%
%ADD120R,0.0710X0.0198*%
%ADD121O,0.0710X0.0198*%
%ADD122C,0.0680*%
%ADD123C,0.1830*%
%ADD124R,0.0680X0.0680*%
%ADD125C,0.0830*%
%ADD126R,0.0830X0.0830*%
%ADD127C,0.0880*%
%ADD128R,0.0880X0.0880*%
%ADD129C,0.0671*%
%ADD130R,0.0671X0.0671*%
%ADD131R,0.0630X0.0630*%
%ADD132C,0.0630*%
%ADD133R,0.0630X0.0630*%
%ADD134R,0.0671X0.0671*%
%ADD135R,0.1655X0.0710*%
%ADD136R,0.0280X0.0300*%
%ADD137R,0.0316X0.0671*%
%ADD138R,0.0671X0.0316*%
%ADD139R,0.1222X0.2206*%
%ADD140R,0.0781X0.1482*%
%ADD141R,0.0982X0.0753*%
%ADD142R,0.0214X0.0336*%
%ADD143R,0.0214X0.0395*%
%ADD144R,0.1340X0.0710*%
%ADD145R,0.1180X0.1580*%
%ADD146C,0.0280*%
G54D47*
X075550Y004450D02*
Y003850D01*
X075850D01*
X075950Y003950D01*
Y004050D01*
X075850Y004150D01*
X075550D01*
X075850D01*
X075950Y004250D01*
Y004350D01*
X075850Y004450D01*
X075550D01*
X076250Y003850D02*
X076450D01*
X076550Y003950D01*
Y004150D01*
X076450Y004250D01*
X076250D01*
X076150Y004150D01*
Y003950D01*
X076250Y003850D01*
X076850Y004350D02*
Y004250D01*
X076750D01*
X076950D01*
X076850D01*
Y003950D01*
X076950Y003850D01*
X077349Y004350D02*
Y004250D01*
X077249D01*
X077449D01*
X077349D01*
Y003950D01*
X077449Y003850D01*
X077849D02*
X078049D01*
X078149Y003950D01*
Y004150D01*
X078049Y004250D01*
X077849D01*
X077749Y004150D01*
Y003950D01*
X077849Y003850D01*
X078349D02*
Y004250D01*
X078449D01*
X078549Y004150D01*
Y003850D01*
Y004150D01*
X078649Y004250D01*
X078749Y004150D01*
Y003850D01*
X079949Y004350D02*
X079849Y004450D01*
X079649D01*
X079549Y004350D01*
Y004250D01*
X079649Y004150D01*
X079849D01*
X079949Y004050D01*
Y003950D01*
X079849Y003850D01*
X079649D01*
X079549Y003950D01*
X080248Y003850D02*
X080448D01*
X080548Y003950D01*
Y004150D01*
X080448Y004250D01*
X080248D01*
X080149Y004150D01*
Y003950D01*
X080248Y003850D01*
X080748D02*
X080948D01*
X080848D01*
Y004450D01*
X080748D01*
X081648D02*
Y003850D01*
X081348D01*
X081248Y003950D01*
Y004150D01*
X081348Y004250D01*
X081648D01*
X082148Y003850D02*
X081948D01*
X081848Y003950D01*
Y004150D01*
X081948Y004250D01*
X082148D01*
X082248Y004150D01*
Y004050D01*
X081848D01*
X082448Y004250D02*
Y003850D01*
Y004050D01*
X082548Y004150D01*
X082648Y004250D01*
X082748D01*
G54D51*
X032150Y022550D02*
D03*
Y023550D02*
D03*
Y024550D02*
D03*
Y025550D02*
D03*
Y026550D02*
D03*
Y033550D02*
D03*
Y032550D02*
D03*
Y031550D02*
D03*
Y030550D02*
D03*
Y029550D02*
D03*
G54D54*
Y027550D02*
D03*
Y034550D02*
D03*
G54D91*
X026300Y040350D02*
D03*
X055950Y037850D02*
D03*
G54D92*
X048200Y023885D02*
D03*
Y024515D02*
D03*
X048900Y023885D02*
D03*
Y024515D02*
D03*
G54D93*
X048365Y025550D02*
D03*
X047735D02*
D03*
X030735Y024000D02*
D03*
X031365D02*
D03*
X030735Y023050D02*
D03*
X031365D02*
D03*
G54D94*
X056000Y034700D02*
D03*
Y035500D02*
D03*
G54D95*
X048900Y029200D02*
D03*
X048100D02*
D03*
G54D97*
X046480Y032300D02*
D03*
X048220D02*
D03*
X046480Y033900D02*
D03*
X048220D02*
D03*
G54D98*
X026121Y023750D02*
D03*
X024979D02*
D03*
X026121Y022750D02*
D03*
X024979D02*
D03*
X028421Y035900D02*
D03*
X027279D02*
D03*
G54D101*
X025256Y024485D02*
D03*
X024744D02*
D03*
X025000Y025115D02*
D03*
X025606Y021335D02*
D03*
X025094D02*
D03*
X025350Y021965D02*
D03*
X028650Y023664D02*
D03*
Y024136D02*
D03*
X028050Y025336D02*
D03*
Y024864D02*
D03*
X029650Y022786D02*
D03*
Y022314D02*
D03*
G54D102*
X054600Y031450D02*
D03*
Y031962D02*
D03*
X055230Y031706D02*
D03*
X054600Y028200D02*
D03*
Y028712D02*
D03*
X055230Y028456D02*
D03*
X054585Y024944D02*
D03*
Y025456D02*
D03*
X055215Y025200D02*
D03*
X033014Y034450D02*
D03*
X033486D02*
D03*
X033064Y033500D02*
D03*
X033536D02*
D03*
X033064Y032600D02*
D03*
X033536D02*
D03*
X033064Y031550D02*
D03*
X033536D02*
D03*
X033064Y030550D02*
D03*
X033536D02*
D03*
X033014Y029550D02*
D03*
X033486D02*
D03*
X033064Y027400D02*
D03*
X033536D02*
D03*
X033064Y026400D02*
D03*
X033536D02*
D03*
X033064Y025600D02*
D03*
X033536D02*
D03*
X033064Y024400D02*
D03*
X033536D02*
D03*
X033064Y023500D02*
D03*
X033536D02*
D03*
X033064Y022400D02*
D03*
X033536D02*
D03*
X033464Y034950D02*
D03*
X033936D02*
D03*
X049814Y038200D02*
D03*
X050286D02*
D03*
X049814Y037200D02*
D03*
X050286D02*
D03*
X049814Y036200D02*
D03*
X050286D02*
D03*
X049814Y035200D02*
D03*
X050286D02*
D03*
X049814Y033150D02*
D03*
X050286D02*
D03*
X049814Y032200D02*
D03*
X050286D02*
D03*
X049814Y031200D02*
D03*
X050286D02*
D03*
X049814Y029600D02*
D03*
X050286D02*
D03*
X049814Y028600D02*
D03*
X050286D02*
D03*
X049864Y027600D02*
D03*
X050336D02*
D03*
X049814Y026550D02*
D03*
X050286D02*
D03*
X049814Y025600D02*
D03*
X050286D02*
D03*
X049814Y024550D02*
D03*
X050286D02*
D03*
X049814Y023550D02*
D03*
X050286D02*
D03*
X049814Y022550D02*
D03*
X050286D02*
D03*
X048364Y023300D02*
D03*
X048836D02*
D03*
X026764Y021000D02*
D03*
X027236D02*
D03*
X054550Y034600D02*
D03*
Y035112D02*
D03*
X055180Y034856D02*
D03*
G54D103*
X045600Y032821D02*
D03*
Y031679D02*
D03*
G54D113*
X024400Y023050D02*
D03*
Y022633D02*
D03*
Y024150D02*
D03*
Y023733D02*
D03*
G54D122*
X042650Y032300D02*
D03*
X031100Y036100D02*
D03*
X030350D02*
D03*
X043550Y021350D02*
D03*
Y020350D02*
D03*
X044550D02*
D03*
Y021350D02*
D03*
X046550Y020350D02*
D03*
X052550D02*
D03*
X049550D02*
D03*
X051550Y021350D02*
D03*
X046550D02*
D03*
X030550D02*
D03*
X052550D02*
D03*
X051550Y020350D02*
D03*
X050550D02*
D03*
Y021350D02*
D03*
X048550Y020350D02*
D03*
X049550Y021350D02*
D03*
X045550Y020350D02*
D03*
X048550Y021350D02*
D03*
X047550Y020350D02*
D03*
X045550Y021350D02*
D03*
X047550D02*
D03*
X038550Y020350D02*
D03*
X037550Y021350D02*
D03*
Y020350D02*
D03*
X035550D02*
D03*
X036550Y021350D02*
D03*
X035550D02*
D03*
X039550Y020350D02*
D03*
X036550D02*
D03*
X038550Y021350D02*
D03*
X042550D02*
D03*
X040550Y020350D02*
D03*
X039550Y021350D02*
D03*
X034550Y020350D02*
D03*
X033550D02*
D03*
X032550D02*
D03*
X041550Y021350D02*
D03*
X040550D02*
D03*
X031550Y020350D02*
D03*
X032550Y021350D02*
D03*
X041550Y020350D02*
D03*
X031550Y021350D02*
D03*
X042550Y020350D02*
D03*
X033550Y021350D02*
D03*
X034550D02*
D03*
X051150Y023550D02*
D03*
Y024550D02*
D03*
Y025550D02*
D03*
Y026550D02*
D03*
Y027550D02*
D03*
Y028550D02*
D03*
Y029550D02*
D03*
X038200Y023300D02*
D03*
Y024300D02*
D03*
Y025300D02*
D03*
Y026300D02*
D03*
Y027300D02*
D03*
Y028300D02*
D03*
Y029300D02*
D03*
Y030300D02*
D03*
Y031300D02*
D03*
Y032300D02*
D03*
Y033300D02*
D03*
Y034300D02*
D03*
Y035300D02*
D03*
Y036300D02*
D03*
X041200Y023300D02*
D03*
Y024300D02*
D03*
Y025300D02*
D03*
Y026300D02*
D03*
Y027300D02*
D03*
Y028300D02*
D03*
Y029300D02*
D03*
Y030300D02*
D03*
Y031300D02*
D03*
Y032300D02*
D03*
Y033300D02*
D03*
Y034300D02*
D03*
Y035300D02*
D03*
X025550Y027100D02*
D03*
X043550Y040350D02*
D03*
Y039350D02*
D03*
X044550D02*
D03*
Y040350D02*
D03*
X046550Y039350D02*
D03*
X052550D02*
D03*
X049550D02*
D03*
X051550Y040350D02*
D03*
X046550D02*
D03*
X030550D02*
D03*
X052550D02*
D03*
X051550Y039350D02*
D03*
X050550D02*
D03*
Y040350D02*
D03*
X048550Y039350D02*
D03*
X049550Y040350D02*
D03*
X045550Y039350D02*
D03*
X048550Y040350D02*
D03*
X047550Y039350D02*
D03*
X045550Y040350D02*
D03*
X047550D02*
D03*
X038550Y039350D02*
D03*
X037550Y040350D02*
D03*
Y039350D02*
D03*
X035550D02*
D03*
X036550Y040350D02*
D03*
X035550D02*
D03*
X039550Y039350D02*
D03*
X036550D02*
D03*
X038550Y040350D02*
D03*
X042550D02*
D03*
X040550Y039350D02*
D03*
X039550Y040350D02*
D03*
X034550Y039350D02*
D03*
X033550D02*
D03*
X032550D02*
D03*
X041550Y040350D02*
D03*
X040550D02*
D03*
X031550Y039350D02*
D03*
X032550Y040350D02*
D03*
X041550Y039350D02*
D03*
X031550Y040350D02*
D03*
X042550Y039350D02*
D03*
X033550Y040350D02*
D03*
X034550D02*
D03*
X051150Y038150D02*
D03*
Y037150D02*
D03*
Y036150D02*
D03*
Y035150D02*
D03*
Y034150D02*
D03*
Y033150D02*
D03*
Y032150D02*
D03*
X029050Y025100D02*
D03*
X029950D02*
D03*
G54D123*
X028550Y039850D02*
D03*
X054550Y038600D02*
D03*
Y022100D02*
D03*
X028550Y020850D02*
D03*
G54D124*
X030550Y020350D02*
D03*
X051150Y022550D02*
D03*
X041200Y036300D02*
D03*
X030550Y039350D02*
D03*
X051150Y031150D02*
D03*
G54D125*
X052950Y027750D02*
D03*
Y028750D02*
D03*
Y032000D02*
D03*
Y031000D02*
D03*
X052927Y034227D02*
D03*
Y035227D02*
D03*
X053000Y025600D02*
D03*
Y024600D02*
D03*
G54D126*
X052950Y029750D02*
D03*
Y033000D02*
D03*
X052927Y036227D02*
D03*
X053000Y026600D02*
D03*
G54D127*
X023650Y027000D02*
D03*
Y024100D02*
D03*
X026100Y037450D02*
D03*
G54D128*
X023650Y025450D02*
D03*
Y022550D02*
D03*
X026100Y035900D02*
D03*
G54D129*
X052150Y037150D02*
D03*
X029550Y027100D02*
D03*
Y026100D02*
D03*
X028550Y027100D02*
D03*
Y026100D02*
D03*
X027550Y027100D02*
D03*
Y026100D02*
D03*
X026550Y027100D02*
D03*
Y026100D02*
D03*
G54D130*
X052150Y038150D02*
D03*
G54D131*
X048300Y036300D02*
D03*
G54D132*
Y035300D02*
D03*
X037050Y025050D02*
D03*
X036050D02*
D03*
G54D133*
X035050D02*
D03*
G54D134*
X025550Y026100D02*
D03*
G54D135*
X037020Y036900D02*
D03*
X034580D02*
D03*
X045250Y023900D02*
D03*
X042809D02*
D03*
G54D136*
X054117Y036200D02*
D03*
X053700D02*
D03*
X054100Y035200D02*
D03*
X053683D02*
D03*
X054050Y034200D02*
D03*
X053633D02*
D03*
X054050Y032950D02*
D03*
X053633D02*
D03*
X054050Y032000D02*
D03*
X053633D02*
D03*
X054050Y031000D02*
D03*
X053633D02*
D03*
X054100Y029750D02*
D03*
X053683D02*
D03*
X054100Y028750D02*
D03*
X053683D02*
D03*
X054100Y027750D02*
D03*
X053683D02*
D03*
X054050Y026600D02*
D03*
X053633D02*
D03*
X054050Y025600D02*
D03*
X053633D02*
D03*
X054050Y024600D02*
D03*
X053633D02*
D03*
X024800Y026100D02*
D03*
X024383D02*
D03*
X024800Y026950D02*
D03*
X024383D02*
D03*
G54D137*
X026950Y022324D02*
D03*
X026576Y021576D02*
D03*
X027324D02*
D03*
G54D138*
X026526Y025050D02*
D03*
X027274Y024676D02*
D03*
Y025424D02*
D03*
X028076Y022400D02*
D03*
X028824Y022026D02*
D03*
Y022774D02*
D03*
X027276Y023750D02*
D03*
X028024Y023376D02*
D03*
Y024124D02*
D03*
G54D139*
X043001Y028100D02*
D03*
X046899D02*
D03*
G54D140*
X046150Y036650D02*
D03*
X042450D02*
D03*
G54D141*
X048150Y030409D02*
D03*
G54D142*
X047766Y029945D02*
D03*
X048022D02*
D03*
X048278D02*
D03*
X048534D02*
D03*
G54D143*
Y031155D02*
D03*
X048278D02*
D03*
X048022D02*
D03*
X047766D02*
D03*
G54D144*
X042566Y033100D02*
D03*
X044534D02*
D03*
G54D145*
X027345Y037600D02*
D03*
X030155D02*
D03*
G54D146*
X039800Y037850D02*
D03*
M02*
