%FSAX24Y24*%
%MOIN*%
G70*
G01*
G75*
G04 Layer_Color=8388736*
%ADD10C,0.0060*%
%ADD11C,0.0394*%
%ADD12R,0.0374X0.0394*%
%ADD13R,0.0394X0.0374*%
%ADD14R,0.0630X0.0500*%
%ADD15R,0.0500X0.0630*%
%ADD16R,0.0787X0.0787*%
%ADD17R,0.0850X0.1080*%
%ADD18R,0.0512X0.0728*%
%ADD19R,0.0276X0.0276*%
%ADD20R,0.0276X0.0276*%
%ADD21R,0.0236X0.0315*%
%ADD22R,0.0315X0.0236*%
%ADD23R,0.0728X0.0512*%
%ADD24R,0.0600X0.1000*%
%ADD25R,0.0591X0.1102*%
%ADD26R,0.0550X0.0450*%
%ADD27O,0.0669X0.0118*%
%ADD28R,0.0681X0.0748*%
%ADD29R,0.1654X0.1181*%
%ADD30O,0.0138X0.0669*%
%ADD31R,0.0500X0.1200*%
%ADD32R,0.0787X0.0787*%
%ADD33R,0.0220X0.0200*%
%ADD34R,0.0866X0.0236*%
%ADD35R,0.0866X0.0236*%
%ADD36R,0.0272X0.0390*%
%ADD37R,0.0965X0.0748*%
%ADD38R,0.0160X0.0250*%
%ADD39R,0.0197X0.0161*%
%ADD40R,0.0630X0.0118*%
%ADD41O,0.0630X0.0118*%
%ADD42C,0.0200*%
%ADD43C,0.0070*%
%ADD44C,0.0080*%
%ADD45C,0.0120*%
%ADD46C,0.0250*%
%ADD47C,0.0100*%
%ADD48C,0.0500*%
%ADD49C,0.0030*%
%ADD50C,0.0040*%
%ADD51C,0.0600*%
%ADD52C,0.1750*%
%ADD53R,0.0600X0.0600*%
%ADD54R,0.0600X0.0600*%
%ADD55C,0.0750*%
%ADD56R,0.0750X0.0750*%
%ADD57C,0.0800*%
%ADD58R,0.0800X0.0800*%
%ADD59C,0.0591*%
%ADD60R,0.0591X0.0591*%
%ADD61R,0.0550X0.0550*%
%ADD62C,0.0550*%
%ADD63R,0.0550X0.0550*%
%ADD64R,0.0591X0.0591*%
%ADD65C,0.0200*%
%ADD66C,0.0160*%
%ADD67C,0.0400*%
%ADD68C,0.0850*%
%ADD69C,0.0520*%
%ADD70C,0.0554*%
%ADD71C,0.0300*%
%ADD72R,0.1575X0.0630*%
%ADD73R,0.0200X0.0220*%
%ADD74R,0.0236X0.0591*%
%ADD75R,0.0591X0.0236*%
%ADD76R,0.1142X0.2126*%
%ADD77R,0.0701X0.1402*%
%ADD78R,0.0902X0.0673*%
%ADD79R,0.0134X0.0256*%
%ADD80R,0.0134X0.0315*%
%ADD81R,0.1260X0.0630*%
%ADD82R,0.1100X0.1500*%
%ADD83C,0.0050*%
%ADD84C,0.0098*%
%ADD85C,0.0079*%
%ADD86R,0.0200X0.1240*%
%ADD87R,0.0200X0.1640*%
%ADD88R,0.1240X0.0200*%
%ADD89C,0.0000*%
%ADD90R,0.0925X0.0709*%
%ADD91C,0.0787*%
%ADD92R,0.0454X0.0474*%
%ADD93R,0.0474X0.0454*%
%ADD94R,0.0710X0.0580*%
%ADD95R,0.0580X0.0710*%
%ADD96R,0.0867X0.0867*%
%ADD97R,0.0930X0.1160*%
%ADD98R,0.0592X0.0808*%
%ADD99R,0.0356X0.0356*%
%ADD100R,0.0356X0.0356*%
%ADD101R,0.0316X0.0395*%
%ADD102R,0.0395X0.0316*%
%ADD103R,0.0808X0.0592*%
%ADD104R,0.0680X0.1080*%
%ADD105R,0.0671X0.1182*%
%ADD106R,0.0630X0.0530*%
%ADD107O,0.0749X0.0198*%
%ADD108R,0.0761X0.0828*%
%ADD109R,0.1734X0.1261*%
%ADD110O,0.0218X0.0749*%
%ADD111R,0.0580X0.1280*%
%ADD112R,0.0867X0.0867*%
%ADD113R,0.0300X0.0280*%
%ADD114R,0.0946X0.0316*%
%ADD115R,0.0946X0.0316*%
%ADD116R,0.0352X0.0470*%
%ADD117R,0.1025X0.0808*%
%ADD118R,0.0200X0.0290*%
%ADD119R,0.0257X0.0221*%
%ADD120R,0.0710X0.0198*%
%ADD121O,0.0710X0.0198*%
%ADD122C,0.0680*%
%ADD123C,0.1830*%
%ADD124R,0.0680X0.0680*%
%ADD125C,0.0830*%
%ADD126R,0.0830X0.0830*%
%ADD127C,0.0880*%
%ADD128R,0.0880X0.0880*%
%ADD129C,0.0671*%
%ADD130R,0.0671X0.0671*%
%ADD131R,0.0630X0.0630*%
%ADD132C,0.0630*%
%ADD133R,0.0630X0.0630*%
%ADD134R,0.0671X0.0671*%
%ADD135R,0.1655X0.0710*%
%ADD136R,0.0280X0.0300*%
%ADD137R,0.0316X0.0671*%
%ADD138R,0.0671X0.0316*%
%ADD139R,0.1222X0.2206*%
%ADD140R,0.0781X0.1482*%
%ADD141R,0.0982X0.0753*%
%ADD142R,0.0214X0.0336*%
%ADD143R,0.0214X0.0395*%
%ADD144R,0.1340X0.0710*%
%ADD145R,0.1180X0.1580*%
%ADD146C,0.0280*%
%ADD147C,0.0010*%
%ADD148C,0.0020*%
%ADD149C,0.0036*%
%ADD150R,0.0132X0.0182*%
%ADD151R,0.0200X0.2470*%
%ADD152C,0.0039*%
G54D10*
X025540Y031723D02*
X025607Y031790D01*
X025740D01*
X025807Y031723D01*
Y031657D01*
X025740Y031590D01*
X025807Y031523D01*
Y031457D01*
X025740Y031390D01*
X025607D01*
X025540Y031457D01*
Y031523D01*
X025607Y031590D01*
X025540Y031657D01*
Y031723D01*
X025607Y031590D02*
X025740D01*
X025940Y031723D02*
X026007Y031790D01*
X026140D01*
X026207Y031723D01*
Y031457D01*
X026140Y031390D01*
X026007D01*
X025940Y031457D01*
Y031723D01*
X026340D02*
X026407Y031790D01*
X026540D01*
X026607Y031723D01*
Y031457D01*
X026540Y031390D01*
X026407D01*
X026340Y031457D01*
Y031723D01*
X026740Y031390D02*
Y031457D01*
X026807D01*
Y031390D01*
X026740D01*
X027073Y031723D02*
X027140Y031790D01*
X027273D01*
X027340Y031723D01*
Y031457D01*
X027273Y031390D01*
X027140D01*
X027073Y031457D01*
Y031723D01*
X027473D02*
X027540Y031790D01*
X027673D01*
X027740Y031723D01*
Y031457D01*
X027673Y031390D01*
X027540D01*
X027473Y031457D01*
Y031723D01*
X038360Y017123D02*
X038427Y017190D01*
X038560D01*
X038627Y017123D01*
Y017057D01*
X038560Y016990D01*
X038493D01*
X038560D01*
X038627Y016923D01*
Y016857D01*
X038560Y016790D01*
X038427D01*
X038360Y016857D01*
X038960Y016790D02*
Y017190D01*
X038760Y016990D01*
X039026D01*
X039160Y017123D02*
X039226Y017190D01*
X039360D01*
X039426Y017123D01*
Y016857D01*
X039360Y016790D01*
X039226D01*
X039160Y016857D01*
Y017123D01*
X039560D02*
X039626Y017190D01*
X039760D01*
X039826Y017123D01*
Y016857D01*
X039760Y016790D01*
X039626D01*
X039560Y016857D01*
Y017123D01*
X039959Y016790D02*
Y016857D01*
X040026D01*
Y016790D01*
X039959D01*
X040293Y017123D02*
X040359Y017190D01*
X040493D01*
X040559Y017123D01*
Y016857D01*
X040493Y016790D01*
X040359D01*
X040293Y016857D01*
Y017123D01*
X040693D02*
X040759Y017190D01*
X040893D01*
X040959Y017123D01*
Y016857D01*
X040893Y016790D01*
X040759D01*
X040693Y016857D01*
Y017123D01*
X023057Y043920D02*
X022790D01*
X023057Y044186D01*
Y044253D01*
X022990Y044320D01*
X022857D01*
X022790Y044253D01*
X023457Y044320D02*
X023190D01*
Y044120D01*
X023324Y044186D01*
X023390D01*
X023457Y044120D01*
Y043987D01*
X023390Y043920D01*
X023257D01*
X023190Y043987D01*
X023590Y044253D02*
X023657Y044320D01*
X023790D01*
X023857Y044253D01*
Y043987D01*
X023790Y043920D01*
X023657D01*
X023590Y043987D01*
Y044253D01*
X023990Y043920D02*
Y043987D01*
X024057D01*
Y043920D01*
X023990D01*
X024323Y044253D02*
X024390Y044320D01*
X024523D01*
X024590Y044253D01*
Y043987D01*
X024523Y043920D01*
X024390D01*
X024323Y043987D01*
Y044253D01*
X024723D02*
X024790Y044320D01*
X024923D01*
X024990Y044253D01*
Y043987D01*
X024923Y043920D01*
X024790D01*
X024723Y043987D01*
Y044253D01*
X018000Y028967D02*
Y028700D01*
X017733Y028967D01*
X017667D01*
X017600Y028900D01*
Y028767D01*
X017667Y028700D01*
X018000Y029100D02*
Y029233D01*
Y029167D01*
X017600D01*
X017667Y029100D01*
X017600Y029700D02*
Y029433D01*
X017800D01*
X017733Y029566D01*
Y029633D01*
X017800Y029700D01*
X017933D01*
X018000Y029633D01*
Y029500D01*
X017933Y029433D01*
X017667Y029833D02*
X017600Y029900D01*
Y030033D01*
X017667Y030100D01*
X017933D01*
X018000Y030033D01*
Y029900D01*
X017933Y029833D01*
X017667D01*
X018000Y030233D02*
X017933D01*
Y030299D01*
X018000D01*
Y030233D01*
X017667Y030566D02*
X017600Y030633D01*
Y030766D01*
X017667Y030833D01*
X017933D01*
X018000Y030766D01*
Y030633D01*
X017933Y030566D01*
X017667D01*
Y030966D02*
X017600Y031033D01*
Y031166D01*
X017667Y031233D01*
X017933D01*
X018000Y031166D01*
Y031033D01*
X017933Y030966D01*
X017667D01*
G54D43*
X028667Y042200D02*
X028400D01*
Y042000D01*
X028533Y042067D01*
X028600D01*
X028667Y042000D01*
Y041867D01*
X028600Y041800D01*
X028467D01*
X028400Y041867D01*
X028800Y042200D02*
X029066D01*
Y042133D01*
X028800Y041867D01*
Y041800D01*
X029466Y042200D02*
X029200D01*
Y042000D01*
X029333Y042067D01*
X029400D01*
X029466Y042000D01*
Y041867D01*
X029400Y041800D01*
X029266D01*
X029200Y041867D01*
X029600Y041800D02*
Y042067D01*
X029666D01*
X029733Y042000D01*
Y041800D01*
Y042000D01*
X029800Y042067D01*
X029866Y042000D01*
Y041800D01*
X029999D02*
X030133D01*
X030066D01*
Y042067D01*
X029999D01*
X030333Y041800D02*
X030466D01*
X030399D01*
Y042200D01*
X030333D01*
X030733Y041733D02*
X030799Y041800D01*
Y041867D01*
X030733D01*
Y041800D01*
X030799D01*
X030733Y041733D01*
X030666Y041667D01*
X031732Y041800D02*
X031466D01*
X031732Y042067D01*
Y042133D01*
X031666Y042200D01*
X031532D01*
X031466Y042133D01*
X031866D02*
X031932Y042200D01*
X032065D01*
X032132Y042133D01*
Y041867D01*
X032065Y041800D01*
X031932D01*
X031866Y041867D01*
Y042133D01*
X032532Y041800D02*
X032265D01*
X032532Y042067D01*
Y042133D01*
X032465Y042200D01*
X032332D01*
X032265Y042133D01*
X032932Y042200D02*
X032665D01*
Y042000D01*
X032799Y042067D01*
X032865D01*
X032932Y042000D01*
Y041867D01*
X032865Y041800D01*
X032732D01*
X032665Y041867D01*
X033065Y041800D02*
Y042067D01*
X033132D01*
X033198Y042000D01*
Y041800D01*
Y042000D01*
X033265Y042067D01*
X033332Y042000D01*
Y041800D01*
X033465D02*
X033598D01*
X033532D01*
Y042067D01*
X033465D01*
X033798Y041800D02*
X033932D01*
X033865D01*
Y042200D01*
X033798D01*
X019000Y040533D02*
X019067Y040600D01*
X019200D01*
X019267Y040533D01*
Y040467D01*
X019200Y040400D01*
X019133D01*
X019200D01*
X019267Y040333D01*
Y040267D01*
X019200Y040200D01*
X019067D01*
X019000Y040267D01*
X019666Y040600D02*
X019400D01*
Y040400D01*
X019533Y040467D01*
X019600D01*
X019666Y040400D01*
Y040267D01*
X019600Y040200D01*
X019467D01*
X019400Y040267D01*
X019800Y040533D02*
X019866Y040600D01*
X020000D01*
X020066Y040533D01*
Y040267D01*
X020000Y040200D01*
X019866D01*
X019800Y040267D01*
Y040533D01*
X020200Y040200D02*
Y040467D01*
X020266D01*
X020333Y040400D01*
Y040200D01*
Y040400D01*
X020400Y040467D01*
X020466Y040400D01*
Y040200D01*
X020599D02*
X020733D01*
X020666D01*
Y040467D01*
X020599D01*
X020933Y040200D02*
X021066D01*
X020999D01*
Y040600D01*
X020933D01*
X021333Y040133D02*
X021399Y040200D01*
Y040267D01*
X021333D01*
Y040200D01*
X021399D01*
X021333Y040133D01*
X021266Y040067D01*
X022332Y040200D02*
X022066D01*
X022332Y040467D01*
Y040533D01*
X022266Y040600D01*
X022132D01*
X022066Y040533D01*
X022466D02*
X022532Y040600D01*
X022665D01*
X022732Y040533D01*
Y040267D01*
X022665Y040200D01*
X022532D01*
X022466Y040267D01*
Y040533D01*
X022865Y040600D02*
X023132D01*
Y040533D01*
X022865Y040267D01*
Y040200D01*
X023532Y040600D02*
X023265D01*
Y040400D01*
X023399Y040467D01*
X023465D01*
X023532Y040400D01*
Y040267D01*
X023465Y040200D01*
X023332D01*
X023265Y040267D01*
X023665Y040200D02*
Y040467D01*
X023732D01*
X023798Y040400D01*
Y040200D01*
Y040400D01*
X023865Y040467D01*
X023932Y040400D01*
Y040200D01*
X024065D02*
X024198D01*
X024132D01*
Y040467D01*
X024065D01*
X024398Y040200D02*
X024532D01*
X024465D01*
Y040600D01*
X024398D01*
X028617Y018600D02*
X028350D01*
Y018400D01*
X028483Y018467D01*
X028550D01*
X028617Y018400D01*
Y018267D01*
X028550Y018200D01*
X028417D01*
X028350Y018267D01*
X028750Y018600D02*
X029016D01*
Y018533D01*
X028750Y018267D01*
Y018200D01*
X029416Y018600D02*
X029150D01*
Y018400D01*
X029283Y018467D01*
X029350D01*
X029416Y018400D01*
Y018267D01*
X029350Y018200D01*
X029216D01*
X029150Y018267D01*
X029550Y018200D02*
Y018467D01*
X029616D01*
X029683Y018400D01*
Y018200D01*
Y018400D01*
X029750Y018467D01*
X029816Y018400D01*
Y018200D01*
X029949D02*
X030083D01*
X030016D01*
Y018467D01*
X029949D01*
X030283Y018200D02*
X030416D01*
X030349D01*
Y018600D01*
X030283D01*
X030683Y018133D02*
X030749Y018200D01*
Y018267D01*
X030683D01*
Y018200D01*
X030749D01*
X030683Y018133D01*
X030616Y018067D01*
X031416Y018200D02*
X031549D01*
X031482D01*
Y018600D01*
X031416Y018533D01*
X032015Y018200D02*
X031749D01*
X032015Y018467D01*
Y018533D01*
X031949Y018600D01*
X031816D01*
X031749Y018533D01*
X032415Y018600D02*
X032149D01*
Y018400D01*
X032282Y018467D01*
X032349D01*
X032415Y018400D01*
Y018267D01*
X032349Y018200D01*
X032215D01*
X032149Y018267D01*
X032549Y018200D02*
Y018467D01*
X032615D01*
X032682Y018400D01*
Y018200D01*
Y018400D01*
X032749Y018467D01*
X032815Y018400D01*
Y018200D01*
X032949D02*
X033082D01*
X033015D01*
Y018467D01*
X032949D01*
X033282Y018200D02*
X033415D01*
X033348D01*
Y018600D01*
X033282D01*
X054550Y042083D02*
X054617Y042150D01*
X054750D01*
X054817Y042083D01*
Y042017D01*
X054750Y041950D01*
X054683D01*
X054750D01*
X054817Y041883D01*
Y041817D01*
X054750Y041750D01*
X054617D01*
X054550Y041817D01*
X054950Y041750D02*
X055083D01*
X055017D01*
Y042150D01*
X054950Y042083D01*
X055283Y042150D02*
X055550D01*
Y042083D01*
X055283Y041817D01*
Y041750D01*
X055950Y042150D02*
X055683D01*
Y041950D01*
X055816Y042017D01*
X055883D01*
X055950Y041950D01*
Y041817D01*
X055883Y041750D01*
X055750D01*
X055683Y041817D01*
X056083Y041750D02*
Y042017D01*
X056149D01*
X056216Y041950D01*
Y041750D01*
Y041950D01*
X056283Y042017D01*
X056349Y041950D01*
Y041750D01*
X056483D02*
X056616D01*
X056549D01*
Y042017D01*
X056483D01*
X056816Y041750D02*
X056949D01*
X056883D01*
Y042150D01*
X056816D01*
X057216Y041683D02*
X057282Y041750D01*
Y041817D01*
X057216D01*
Y041750D01*
X057282D01*
X057216Y041683D01*
X057149Y041617D01*
X057949Y041750D02*
X058082D01*
X058016D01*
Y042150D01*
X057949Y042083D01*
X058282Y041817D02*
X058349Y041750D01*
X058482D01*
X058549Y041817D01*
Y042083D01*
X058482Y042150D01*
X058349D01*
X058282Y042083D01*
Y042017D01*
X058349Y041950D01*
X058549D01*
X058682Y042083D02*
X058749Y042150D01*
X058882D01*
X058949Y042083D01*
Y041817D01*
X058882Y041750D01*
X058749D01*
X058682Y041817D01*
Y042083D01*
X059082D02*
X059149Y042150D01*
X059282D01*
X059348Y042083D01*
Y041817D01*
X059282Y041750D01*
X059149D01*
X059082Y041817D01*
Y042083D01*
X059482Y041750D02*
Y042017D01*
X059548D01*
X059615Y041950D01*
Y041750D01*
Y041950D01*
X059682Y042017D01*
X059748Y041950D01*
Y041750D01*
X059882D02*
X060015D01*
X059948D01*
Y042017D01*
X059882D01*
X060215Y041750D02*
X060348D01*
X060281D01*
Y042150D01*
X060215D01*
X058800Y037983D02*
X058867Y038050D01*
X059000D01*
X059067Y037983D01*
Y037917D01*
X059000Y037850D01*
X058933D01*
X059000D01*
X059067Y037783D01*
Y037717D01*
X059000Y037650D01*
X058867D01*
X058800Y037717D01*
X059200Y037983D02*
X059267Y038050D01*
X059400D01*
X059466Y037983D01*
Y037917D01*
X059400Y037850D01*
X059333D01*
X059400D01*
X059466Y037783D01*
Y037717D01*
X059400Y037650D01*
X059267D01*
X059200Y037717D01*
X059600Y037650D02*
X059733D01*
X059666D01*
Y038050D01*
X059600Y037983D01*
X060200Y038050D02*
X059933D01*
Y037850D01*
X060066Y037917D01*
X060133D01*
X060200Y037850D01*
Y037717D01*
X060133Y037650D01*
X060000D01*
X059933Y037717D01*
X060333Y037650D02*
Y037917D01*
X060399D01*
X060466Y037850D01*
Y037650D01*
Y037850D01*
X060533Y037917D01*
X060599Y037850D01*
Y037650D01*
X060733D02*
X060866D01*
X060799D01*
Y037917D01*
X060733D01*
X061066Y037650D02*
X061199D01*
X061133D01*
Y038050D01*
X061066D01*
X061466Y037583D02*
X061532Y037650D01*
Y037717D01*
X061466D01*
Y037650D01*
X061532D01*
X061466Y037583D01*
X061399Y037517D01*
X062199Y037650D02*
X062332D01*
X062266D01*
Y038050D01*
X062199Y037983D01*
X062532D02*
X062599Y038050D01*
X062732D01*
X062799Y037983D01*
Y037917D01*
X062732Y037850D01*
X062799Y037783D01*
Y037717D01*
X062732Y037650D01*
X062599D01*
X062532Y037717D01*
Y037783D01*
X062599Y037850D01*
X062532Y037917D01*
Y037983D01*
X062599Y037850D02*
X062732D01*
X063199Y037650D02*
X062932D01*
X063199Y037917D01*
Y037983D01*
X063132Y038050D01*
X062999D01*
X062932Y037983D01*
X063598Y038050D02*
X063332D01*
Y037850D01*
X063465Y037917D01*
X063532D01*
X063598Y037850D01*
Y037717D01*
X063532Y037650D01*
X063399D01*
X063332Y037717D01*
X063732Y037650D02*
Y037917D01*
X063798D01*
X063865Y037850D01*
Y037650D01*
Y037850D01*
X063932Y037917D01*
X063998Y037850D01*
Y037650D01*
X064132D02*
X064265D01*
X064198D01*
Y037917D01*
X064132D01*
X064465Y037650D02*
X064598D01*
X064531D01*
Y038050D01*
X064465D01*
X058100Y022233D02*
X058167Y022300D01*
X058300D01*
X058367Y022233D01*
Y022167D01*
X058300Y022100D01*
X058233D01*
X058300D01*
X058367Y022033D01*
Y021967D01*
X058300Y021900D01*
X058167D01*
X058100Y021967D01*
X058500Y021900D02*
X058633D01*
X058567D01*
Y022300D01*
X058500Y022233D01*
X058833Y022300D02*
X059100D01*
Y022233D01*
X058833Y021967D01*
Y021900D01*
X059500Y022300D02*
X059233D01*
Y022100D01*
X059366Y022167D01*
X059433D01*
X059500Y022100D01*
Y021967D01*
X059433Y021900D01*
X059300D01*
X059233Y021967D01*
X059633Y021900D02*
Y022167D01*
X059699D01*
X059766Y022100D01*
Y021900D01*
Y022100D01*
X059833Y022167D01*
X059899Y022100D01*
Y021900D01*
X060033D02*
X060166D01*
X060099D01*
Y022167D01*
X060033D01*
X060366Y021900D02*
X060499D01*
X060433D01*
Y022300D01*
X060366D01*
X060766Y021833D02*
X060832Y021900D01*
Y021967D01*
X060766D01*
Y021900D01*
X060832D01*
X060766Y021833D01*
X060699Y021767D01*
X061765Y021900D02*
X061499D01*
X061765Y022167D01*
Y022233D01*
X061699Y022300D01*
X061566D01*
X061499Y022233D01*
X062165Y022300D02*
X061899D01*
Y022100D01*
X062032Y022167D01*
X062099D01*
X062165Y022100D01*
Y021967D01*
X062099Y021900D01*
X061965D01*
X061899Y021967D01*
X062299Y022233D02*
X062365Y022300D01*
X062499D01*
X062565Y022233D01*
Y021967D01*
X062499Y021900D01*
X062365D01*
X062299Y021967D01*
Y022233D01*
X062699Y021900D02*
Y022167D01*
X062765D01*
X062832Y022100D01*
Y021900D01*
Y022100D01*
X062898Y022167D01*
X062965Y022100D01*
Y021900D01*
X063098D02*
X063232D01*
X063165D01*
Y022167D01*
X063098D01*
X063432Y021900D02*
X063565D01*
X063498D01*
Y022300D01*
X063432D01*
G54D47*
X027500Y020850D02*
X029600D01*
X028550Y019800D02*
Y021900D01*
X053500Y038600D02*
X055600D01*
X054550Y037550D02*
Y039650D01*
X053500Y022100D02*
X055600D01*
X054550Y021050D02*
Y023150D01*
X027550Y039850D02*
X029550D01*
X028550Y038850D02*
Y040850D01*
X030800Y031550D02*
Y031750D01*
X022800Y031550D02*
Y034700D01*
X027900Y031650D02*
X030800D01*
X022800D02*
X025380D01*
X030200Y031850D02*
X030800Y031650D01*
X030200Y031450D02*
X030800Y031650D01*
X022800D02*
X023400Y031450D01*
X022800Y031650D02*
X023400Y031850D01*
X056820Y016950D02*
Y020900D01*
X022820Y016950D02*
Y018500D01*
X041119Y017050D02*
X056820D01*
X022820D02*
X038200D01*
X056220Y017250D02*
X056820Y017050D01*
X056220Y016850D02*
X056820Y017050D01*
X022820D02*
X023420Y016850D01*
X022820Y017050D02*
X023420Y017250D01*
X022017Y019600D02*
X023583D01*
X022800Y018817D02*
Y020383D01*
X028258Y039850D02*
X028842D01*
X028550Y039558D02*
Y040142D01*
X025300Y041750D02*
Y043500D01*
X022800Y041950D02*
Y043500D01*
X021800Y043400D02*
X022800D01*
X025300D02*
X026300D01*
X022200Y043600D02*
X022800Y043400D01*
X022200Y043200D02*
X022800Y043400D01*
X025300D02*
X025900Y043200D01*
X025300Y043400D02*
X025900Y043600D01*
X027500Y020850D02*
X029600D01*
X028550Y019800D02*
Y021900D01*
X018250Y041100D02*
X022150D01*
X018250Y019600D02*
X019050D01*
X018350Y030350D02*
Y041100D01*
Y019600D02*
Y030350D01*
X018150Y040500D02*
X018350Y041100D01*
X018550Y040500D01*
X018350Y019600D02*
X018550Y020200D01*
X018150D02*
X018350Y019600D01*
X054550Y022100D02*
X055850D01*
X019200Y019600D02*
X024800D01*
X055950Y037850D02*
X058450D01*
X055850Y022100D02*
X057750D01*
X022800Y016300D02*
Y027850D01*
X030800D01*
X025300Y035050D02*
X030750D01*
X025300D02*
Y041100D01*
X022800Y040600D02*
Y041100D01*
X056800Y015950D02*
Y038600D01*
X022800Y019600D02*
X034250D01*
X054300D01*
X056800Y022100D01*
X054550Y039050D02*
Y041550D01*
X024750Y040350D02*
X026300D01*
X028550Y039850D02*
Y041600D01*
Y018850D02*
Y020850D01*
M02*
