%FSAX24Y24*%
%MOIN*%
G70*
G01*
G75*
G04 Layer_Color=9218505*
%ADD10C,0.0060*%
%ADD11C,0.0394*%
%ADD12R,0.0374X0.0394*%
%ADD13R,0.0394X0.0374*%
%ADD14R,0.0630X0.0500*%
%ADD15R,0.0500X0.0630*%
%ADD16R,0.0787X0.0787*%
%ADD17R,0.0850X0.1080*%
%ADD18R,0.0512X0.0728*%
%ADD19R,0.0276X0.0276*%
%ADD20R,0.0276X0.0276*%
%ADD21R,0.0236X0.0315*%
%ADD22R,0.0315X0.0236*%
%ADD23R,0.0728X0.0512*%
%ADD24R,0.0600X0.1000*%
%ADD25R,0.0591X0.1102*%
%ADD26R,0.0550X0.0450*%
%ADD27O,0.0669X0.0118*%
%ADD28R,0.0681X0.0748*%
%ADD29R,0.1654X0.1181*%
%ADD30O,0.0138X0.0669*%
%ADD31R,0.0500X0.1200*%
%ADD32R,0.0787X0.0787*%
%ADD33R,0.0220X0.0200*%
%ADD34R,0.0866X0.0236*%
%ADD35R,0.0866X0.0236*%
%ADD36R,0.0272X0.0390*%
%ADD37R,0.0965X0.0748*%
%ADD38R,0.0160X0.0250*%
%ADD39R,0.0197X0.0161*%
%ADD40R,0.0630X0.0118*%
%ADD41O,0.0630X0.0118*%
%ADD42C,0.0200*%
%ADD43C,0.0070*%
%ADD44C,0.0080*%
%ADD45C,0.0120*%
%ADD46C,0.0250*%
%ADD47C,0.0100*%
%ADD48C,0.0500*%
%ADD49C,0.0030*%
%ADD50C,0.0040*%
%ADD51C,0.0600*%
%ADD52C,0.1750*%
%ADD53R,0.0600X0.0600*%
%ADD54R,0.0600X0.0600*%
%ADD55C,0.0750*%
%ADD56R,0.0750X0.0750*%
%ADD57C,0.0800*%
%ADD58R,0.0800X0.0800*%
%ADD59C,0.0591*%
%ADD60R,0.0591X0.0591*%
%ADD61R,0.0550X0.0550*%
%ADD62C,0.0550*%
%ADD63R,0.0550X0.0550*%
%ADD64R,0.0591X0.0591*%
%ADD65C,0.0200*%
%ADD66C,0.0160*%
%ADD67C,0.0400*%
%ADD68C,0.0850*%
%ADD69C,0.0520*%
%ADD70C,0.0554*%
%ADD71C,0.0300*%
%ADD72R,0.1575X0.0630*%
%ADD73R,0.0200X0.0220*%
%ADD74R,0.0236X0.0591*%
%ADD75R,0.0591X0.0236*%
%ADD76R,0.1142X0.2126*%
%ADD77R,0.0701X0.1402*%
%ADD78R,0.0902X0.0673*%
%ADD79R,0.0134X0.0256*%
%ADD80R,0.0134X0.0315*%
%ADD81R,0.1260X0.0630*%
%ADD82R,0.1100X0.1500*%
%ADD83C,0.0050*%
%ADD84C,0.0098*%
%ADD85C,0.0079*%
%ADD86R,0.0200X0.1240*%
%ADD87R,0.0200X0.1640*%
%ADD88R,0.1240X0.0200*%
%ADD89C,0.0000*%
%ADD90R,0.0925X0.0709*%
%ADD91C,0.0787*%
%ADD92R,0.0454X0.0474*%
%ADD93R,0.0474X0.0454*%
%ADD94R,0.0710X0.0580*%
%ADD95R,0.0580X0.0710*%
%ADD96R,0.0867X0.0867*%
%ADD97R,0.0930X0.1160*%
%ADD98R,0.0592X0.0808*%
%ADD99R,0.0356X0.0356*%
%ADD100R,0.0356X0.0356*%
%ADD101R,0.0316X0.0395*%
%ADD102R,0.0395X0.0316*%
%ADD103R,0.0808X0.0592*%
%ADD104R,0.0680X0.1080*%
%ADD105R,0.0671X0.1182*%
%ADD106R,0.0630X0.0530*%
%ADD107O,0.0749X0.0198*%
%ADD108R,0.0761X0.0828*%
%ADD109R,0.1734X0.1261*%
%ADD110O,0.0218X0.0749*%
%ADD111R,0.0580X0.1280*%
%ADD112R,0.0867X0.0867*%
%ADD113R,0.0300X0.0280*%
%ADD114R,0.0946X0.0316*%
%ADD115R,0.0946X0.0316*%
%ADD116R,0.0352X0.0470*%
%ADD117R,0.1025X0.0808*%
%ADD118R,0.0200X0.0290*%
%ADD119R,0.0257X0.0221*%
%ADD120R,0.0710X0.0198*%
%ADD121O,0.0710X0.0198*%
%ADD122C,0.0680*%
%ADD123C,0.1830*%
%ADD124R,0.0680X0.0680*%
%ADD125C,0.0830*%
%ADD126R,0.0830X0.0830*%
%ADD127C,0.0880*%
%ADD128R,0.0880X0.0880*%
%ADD129C,0.0671*%
%ADD130R,0.0671X0.0671*%
%ADD131R,0.0630X0.0630*%
%ADD132C,0.0630*%
%ADD133R,0.0630X0.0630*%
%ADD134R,0.0671X0.0671*%
%ADD135R,0.1655X0.0710*%
%ADD136R,0.0280X0.0300*%
%ADD137R,0.0316X0.0671*%
%ADD138R,0.0671X0.0316*%
%ADD139R,0.1222X0.2206*%
%ADD140R,0.0781X0.1482*%
%ADD141R,0.0982X0.0753*%
%ADD142R,0.0214X0.0336*%
%ADD143R,0.0214X0.0395*%
%ADD144R,0.1340X0.0710*%
%ADD145R,0.1180X0.1580*%
%ADD146C,0.0280*%
%ADD147C,0.0010*%
%ADD148C,0.0020*%
%ADD149C,0.0036*%
%ADD150R,0.0132X0.0182*%
%ADD151R,0.0200X0.2470*%
G54D43*
X043573Y030521D02*
G03*
X042525Y029473I000000J-001048D01*
G01*
X047375D02*
G03*
X046327Y030521I-001048J000000D01*
G01*
Y025679D02*
G03*
X047375Y026727I000000J001048D01*
G01*
X042525D02*
G03*
X043573Y025679I001048J000000D01*
G01*
X042550Y038850D02*
G03*
X042050Y038350I000000J-000500D01*
G01*
X034127Y035227D02*
X035800D01*
X034127D02*
Y036447D01*
X037473Y035939D02*
Y036447D01*
X036761Y035227D02*
X037473Y035939D01*
X035800Y035227D02*
X036761D01*
X035800Y038573D02*
X036761D01*
X037473Y037861D01*
Y037353D02*
Y037861D01*
X034127Y037353D02*
Y038573D01*
X035800D01*
X056400Y034360D02*
Y034700D01*
X056000Y034360D02*
X056400D01*
X055600D02*
X056000D01*
X055600D02*
Y034700D01*
Y035500D02*
Y035840D01*
X056000D01*
X056400D01*
Y035500D02*
Y035840D01*
X042050Y037600D02*
Y038350D01*
Y035550D02*
Y035700D01*
Y035550D02*
X043150Y034450D01*
X044300D01*
X046550Y035150D02*
Y035700D01*
X045850Y034450D02*
X046550Y035150D01*
X044300Y034450D02*
X045850D01*
X044300Y038850D02*
X045500D01*
X046550Y037800D01*
Y037600D02*
Y037800D01*
X042550Y038850D02*
X044300D01*
X042356Y022227D02*
X044030D01*
X042356D02*
Y023447D01*
X045703Y022939D02*
Y023447D01*
X044990Y022227D02*
X045703Y022939D01*
X044030Y022227D02*
X044990D01*
X044030Y025573D02*
X044990D01*
X045703Y024861D01*
Y024353D02*
Y024861D01*
X042356Y024353D02*
Y025573D01*
X044030D01*
X030640Y038502D02*
Y038800D01*
X026650D02*
X030640D01*
X026650Y036400D02*
X030640D01*
Y036698D01*
X027250Y039300D02*
Y038900D01*
X027050D01*
X026983Y038967D01*
Y039233D01*
X027050Y039300D01*
X027250D01*
X026850Y038900D02*
X026717D01*
X026783D01*
Y039300D01*
X026850Y039233D01*
X037683Y038433D02*
X037750Y038500D01*
X037883D01*
X037950Y038433D01*
Y038167D01*
X037883Y038100D01*
X037750D01*
X037683Y038167D01*
X037550Y038500D02*
X037284D01*
Y038433D01*
X037550Y038167D01*
Y038100D01*
G54D47*
X054575Y031156D02*
G03*
X054575Y031156I-000036J000000D01*
G01*
Y027906D02*
G03*
X054575Y027906I-000036J000000D01*
G01*
X054560Y024650D02*
G03*
X054560Y024650I-000036J000000D01*
G01*
X025586Y024424D02*
G03*
X025586Y024424I-000036J000000D01*
G01*
X025936Y021274D02*
G03*
X025936Y021274I-000036J000000D01*
G01*
X054525Y034306D02*
G03*
X054525Y034306I-000036J000000D01*
G01*
X075550Y003450D02*
Y002850D01*
X075850D01*
X075950Y002950D01*
Y003050D01*
X075850Y003150D01*
X075550D01*
X075850D01*
X075950Y003250D01*
Y003350D01*
X075850Y003450D01*
X075550D01*
X076250Y002850D02*
X076450D01*
X076550Y002950D01*
Y003150D01*
X076450Y003250D01*
X076250D01*
X076150Y003150D01*
Y002950D01*
X076250Y002850D01*
X076850Y003350D02*
Y003250D01*
X076750D01*
X076950D01*
X076850D01*
Y002950D01*
X076950Y002850D01*
X077349Y003350D02*
Y003250D01*
X077249D01*
X077449D01*
X077349D01*
Y002950D01*
X077449Y002850D01*
X077849D02*
X078049D01*
X078149Y002950D01*
Y003150D01*
X078049Y003250D01*
X077849D01*
X077749Y003150D01*
Y002950D01*
X077849Y002850D01*
X078349D02*
Y003250D01*
X078449D01*
X078549Y003150D01*
Y002850D01*
Y003150D01*
X078649Y003250D01*
X078749Y003150D01*
Y002850D01*
X079849Y003450D02*
X079649D01*
X079549Y003350D01*
Y002950D01*
X079649Y002850D01*
X079849D01*
X079949Y002950D01*
Y003350D01*
X079849Y003450D01*
X080149Y003250D02*
X080348Y002850D01*
X080548Y003250D01*
X081048Y002850D02*
X080848D01*
X080748Y002950D01*
Y003150D01*
X080848Y003250D01*
X081048D01*
X081148Y003150D01*
Y003050D01*
X080748D01*
X081348Y003250D02*
Y002850D01*
Y003050D01*
X081448Y003150D01*
X081548Y003250D01*
X081648D01*
X081948Y002850D02*
X082148D01*
X082048D01*
Y003450D01*
X081948D01*
X082548Y003250D02*
X082748D01*
X082848Y003150D01*
Y002850D01*
X082548D01*
X082448Y002950D01*
X082548Y003050D01*
X082848D01*
X083048Y003250D02*
Y002950D01*
X083148Y002850D01*
X083447D01*
Y002750D01*
X083347Y002650D01*
X083248D01*
X083447Y002850D02*
Y003250D01*
G54D50*
X048473Y023600D02*
Y023860D01*
X047928Y023600D02*
X048473D01*
X047928D02*
Y023860D01*
Y024540D02*
Y024800D01*
X048473D01*
Y024540D02*
Y024800D01*
X049173Y023600D02*
Y023860D01*
X048628Y023600D02*
X049173D01*
X048628D02*
Y023860D01*
Y024540D02*
Y024800D01*
X049173D01*
Y024540D02*
Y024800D01*
X055345Y031226D02*
Y031486D01*
X054725Y031226D02*
X055345D01*
X054465Y032186D02*
X055345D01*
Y031926D02*
Y032186D01*
Y027976D02*
Y028236D01*
X054725Y027976D02*
X055345D01*
X054465Y028936D02*
X055345D01*
Y028676D02*
Y028936D01*
X055330Y024720D02*
Y024980D01*
X054710Y024720D02*
X055330D01*
X054450Y025680D02*
X055330D01*
Y025420D02*
Y025680D01*
X046100Y032995D02*
Y033085D01*
X048770D01*
X046100Y031515D02*
X048770D01*
X046100D02*
Y031605D01*
X025220Y025230D02*
X025480D01*
Y024610D02*
Y025230D01*
X024520Y024350D02*
Y025230D01*
X024780D01*
X025570Y022080D02*
X025830D01*
Y021460D02*
Y022080D01*
X024870Y021200D02*
Y022080D01*
X025130D01*
X032770Y034655D02*
X033000D01*
X032770Y034245D02*
Y034655D01*
Y034245D02*
X033000D01*
X033500Y034655D02*
X033730D01*
Y034245D02*
Y034655D01*
X033500Y034245D02*
X033730D01*
X032820Y033705D02*
X033050D01*
X032820Y033295D02*
Y033705D01*
Y033295D02*
X033050D01*
X033550Y033705D02*
X033780D01*
Y033295D02*
Y033705D01*
X033550Y033295D02*
X033780D01*
X032820Y032805D02*
X033050D01*
X032820Y032395D02*
Y032805D01*
Y032395D02*
X033050D01*
X033550Y032805D02*
X033780D01*
Y032395D02*
Y032805D01*
X033550Y032395D02*
X033780D01*
X032820Y031755D02*
X033050D01*
X032820Y031345D02*
Y031755D01*
Y031345D02*
X033050D01*
X033550Y031755D02*
X033780D01*
Y031345D02*
Y031755D01*
X033550Y031345D02*
X033780D01*
X032820Y030755D02*
X033050D01*
X032820Y030345D02*
Y030755D01*
Y030345D02*
X033050D01*
X033550Y030755D02*
X033780D01*
Y030345D02*
Y030755D01*
X033550Y030345D02*
X033780D01*
X032770Y029755D02*
X033000D01*
X032770Y029345D02*
Y029755D01*
Y029345D02*
X033000D01*
X033500Y029755D02*
X033730D01*
Y029345D02*
Y029755D01*
X033500Y029345D02*
X033730D01*
X032820Y027605D02*
X033050D01*
X032820Y027195D02*
Y027605D01*
Y027195D02*
X033050D01*
X033550Y027605D02*
X033780D01*
Y027195D02*
Y027605D01*
X033550Y027195D02*
X033780D01*
X032820Y026605D02*
X033050D01*
X032820Y026195D02*
Y026605D01*
Y026195D02*
X033050D01*
X033550Y026605D02*
X033780D01*
Y026195D02*
Y026605D01*
X033550Y026195D02*
X033780D01*
X032820Y025805D02*
X033050D01*
X032820Y025395D02*
Y025805D01*
Y025395D02*
X033050D01*
X033550Y025805D02*
X033780D01*
Y025395D02*
Y025805D01*
X033550Y025395D02*
X033780D01*
X032820Y024605D02*
X033050D01*
X032820Y024195D02*
Y024605D01*
Y024195D02*
X033050D01*
X033550Y024605D02*
X033780D01*
Y024195D02*
Y024605D01*
X033550Y024195D02*
X033780D01*
X032820Y023705D02*
X033050D01*
X032820Y023295D02*
Y023705D01*
Y023295D02*
X033050D01*
X033550Y023705D02*
X033780D01*
Y023295D02*
Y023705D01*
X033550Y023295D02*
X033780D01*
X032820Y022605D02*
X033050D01*
X032820Y022195D02*
Y022605D01*
Y022195D02*
X033050D01*
X033550Y022605D02*
X033780D01*
Y022195D02*
Y022605D01*
X033550Y022195D02*
X033780D01*
X033220Y035155D02*
X033450D01*
X033220Y034745D02*
Y035155D01*
Y034745D02*
X033450D01*
X033950Y035155D02*
X034180D01*
Y034745D02*
Y035155D01*
X033950Y034745D02*
X034180D01*
X049570Y038405D02*
X049800D01*
X049570Y037995D02*
Y038405D01*
Y037995D02*
X049800D01*
X050300Y038405D02*
X050530D01*
Y037995D02*
Y038405D01*
X050300Y037995D02*
X050530D01*
X049570Y037405D02*
X049800D01*
X049570Y036995D02*
Y037405D01*
Y036995D02*
X049800D01*
X050300Y037405D02*
X050530D01*
Y036995D02*
Y037405D01*
X050300Y036995D02*
X050530D01*
X049570Y036405D02*
X049800D01*
X049570Y035995D02*
Y036405D01*
Y035995D02*
X049800D01*
X050300Y036405D02*
X050530D01*
Y035995D02*
Y036405D01*
X050300Y035995D02*
X050530D01*
X049570Y035405D02*
X049800D01*
X049570Y034995D02*
Y035405D01*
Y034995D02*
X049800D01*
X050300Y035405D02*
X050530D01*
Y034995D02*
Y035405D01*
X050300Y034995D02*
X050530D01*
X049570Y033355D02*
X049800D01*
X049570Y032945D02*
Y033355D01*
Y032945D02*
X049800D01*
X050300Y033355D02*
X050530D01*
Y032945D02*
Y033355D01*
X050300Y032945D02*
X050530D01*
X049570Y032405D02*
X049800D01*
X049570Y031995D02*
Y032405D01*
Y031995D02*
X049800D01*
X050300Y032405D02*
X050530D01*
Y031995D02*
Y032405D01*
X050300Y031995D02*
X050530D01*
X049570Y031405D02*
X049800D01*
X049570Y030995D02*
Y031405D01*
Y030995D02*
X049800D01*
X050300Y031405D02*
X050530D01*
Y030995D02*
Y031405D01*
X050300Y030995D02*
X050530D01*
X049570Y029805D02*
X049800D01*
X049570Y029395D02*
Y029805D01*
Y029395D02*
X049800D01*
X050300Y029805D02*
X050530D01*
Y029395D02*
Y029805D01*
X050300Y029395D02*
X050530D01*
X049570Y028805D02*
X049800D01*
X049570Y028395D02*
Y028805D01*
Y028395D02*
X049800D01*
X050300Y028805D02*
X050530D01*
Y028395D02*
Y028805D01*
X050300Y028395D02*
X050530D01*
X049620Y027805D02*
X049850D01*
X049620Y027395D02*
Y027805D01*
Y027395D02*
X049850D01*
X050350Y027805D02*
X050580D01*
Y027395D02*
Y027805D01*
X050350Y027395D02*
X050580D01*
X049570Y026755D02*
X049800D01*
X049570Y026345D02*
Y026755D01*
Y026345D02*
X049800D01*
X050300Y026755D02*
X050530D01*
Y026345D02*
Y026755D01*
X050300Y026345D02*
X050530D01*
X049570Y025805D02*
X049800D01*
X049570Y025395D02*
Y025805D01*
Y025395D02*
X049800D01*
X050300Y025805D02*
X050530D01*
Y025395D02*
Y025805D01*
X050300Y025395D02*
X050530D01*
X049570Y024755D02*
X049800D01*
X049570Y024345D02*
Y024755D01*
Y024345D02*
X049800D01*
X050300Y024755D02*
X050530D01*
Y024345D02*
Y024755D01*
X050300Y024345D02*
X050530D01*
X049570Y023755D02*
X049800D01*
X049570Y023345D02*
Y023755D01*
Y023345D02*
X049800D01*
X050300Y023755D02*
X050530D01*
Y023345D02*
Y023755D01*
X050300Y023345D02*
X050530D01*
X049570Y022755D02*
X049800D01*
X049570Y022345D02*
Y022755D01*
Y022345D02*
X049800D01*
X050300Y022755D02*
X050530D01*
Y022345D02*
Y022755D01*
X050300Y022345D02*
X050530D01*
X048120Y023505D02*
X048350D01*
X048120Y023095D02*
Y023505D01*
Y023095D02*
X048350D01*
X048850Y023505D02*
X049080D01*
Y023095D02*
Y023505D01*
X048850Y023095D02*
X049080D01*
X046076Y032841D02*
Y033195D01*
X045124D02*
X046076D01*
X045124Y032841D02*
Y033195D01*
Y031305D02*
Y031659D01*
Y031305D02*
X046076D01*
Y031659D01*
X048390Y025823D02*
X048650D01*
Y025278D02*
Y025823D01*
X048390Y025278D02*
X048650D01*
X047450D02*
X047710D01*
X047450D02*
Y025823D01*
X047710D01*
X026141Y023274D02*
X026495D01*
Y024226D01*
X026141D02*
X026495D01*
X024605D02*
X024959D01*
X024605Y023274D02*
Y024226D01*
Y023274D02*
X024959D01*
X026141Y022274D02*
X026495D01*
Y023226D01*
X026141D02*
X026495D01*
X024605D02*
X024959D01*
X024605Y022274D02*
Y023226D01*
Y022274D02*
X024959D01*
X030450Y023727D02*
X030710D01*
X030450D02*
Y024272D01*
X030710D01*
X031390D02*
X031650D01*
Y023727D02*
Y024272D01*
X031390Y023727D02*
X031650D01*
X030450Y022777D02*
X030710D01*
X030450D02*
Y023322D01*
X030710D01*
X031390D02*
X031650D01*
Y022777D02*
Y023322D01*
X031390Y022777D02*
X031650D01*
X028445Y023420D02*
Y023650D01*
Y023420D02*
X028855D01*
Y023650D01*
X028445Y024150D02*
Y024380D01*
X028855D01*
Y024150D02*
Y024380D01*
X028255Y025350D02*
Y025580D01*
X027845D02*
X028255D01*
X027845Y025350D02*
Y025580D01*
X028255Y024620D02*
Y024850D01*
X027845Y024620D02*
X028255D01*
X027845D02*
Y024850D01*
X026520Y021205D02*
X026750D01*
X026520Y020795D02*
Y021205D01*
Y020795D02*
X026750D01*
X027250Y021205D02*
X027480D01*
Y020795D02*
Y021205D01*
X027250Y020795D02*
X027480D01*
X029855Y022800D02*
Y023030D01*
X029445D02*
X029855D01*
X029445Y022800D02*
Y023030D01*
X029855Y022070D02*
Y022300D01*
X029445Y022070D02*
X029855D01*
X029445D02*
Y022300D01*
X048900Y028800D02*
X049240D01*
Y029200D01*
Y029600D01*
X048900D02*
X049240D01*
X047760D02*
X048100D01*
X047760Y029200D02*
Y029600D01*
Y028800D02*
Y029200D01*
Y028800D02*
X048100D01*
X028441Y035424D02*
X028795D01*
Y036376D01*
X028441D02*
X028795D01*
X026905D02*
X027259D01*
X026905Y035424D02*
Y036376D01*
Y035424D02*
X027259D01*
X048859Y029676D02*
Y030511D01*
X048150Y029676D02*
X048859D01*
X048150Y031424D02*
X048859D01*
Y030511D02*
Y031424D01*
X047441Y030511D02*
Y031424D01*
X048150D01*
X047441Y029676D02*
X048150D01*
X047441D02*
Y030511D01*
X046100Y034595D02*
Y034685D01*
X048770D01*
X046100Y033115D02*
X048770D01*
X046100D02*
Y033205D01*
X055295Y034376D02*
Y034636D01*
X054675Y034376D02*
X055295D01*
X054415Y035336D02*
X055295D01*
Y035076D02*
Y035336D01*
X049000Y028600D02*
X049050Y028650D01*
X049150D01*
X049200Y028600D01*
Y028400D01*
X049150Y028350D01*
X049050D01*
X049000Y028400D01*
X048750Y028350D02*
Y028650D01*
X048900Y028500D01*
X048700D01*
X048600Y028350D02*
X048500D01*
X048550D01*
Y028650D01*
X048600Y028600D01*
G54D83*
X026654Y040350D02*
G03*
X026654Y040350I-000354J000000D01*
G01*
X039450Y036800D02*
G03*
X039950Y036800I000250J000000D01*
G01*
X056304Y037850D02*
G03*
X056304Y037850I-000354J000000D01*
G01*
X030050Y019850D02*
Y021850D01*
X031050D02*
X053050D01*
Y019850D02*
Y021850D01*
X031050Y019850D02*
X053050D01*
X030050Y021850D02*
X031050D01*
X030050Y019850D02*
X031050D01*
X053517Y036000D02*
X054317D01*
Y036400D01*
X053517D02*
X054317D01*
X053517Y036000D02*
Y036400D01*
X053500Y035000D02*
X054300D01*
Y035400D01*
X053500D02*
X054300D01*
X053500Y035000D02*
Y035400D01*
X053450Y034000D02*
X054250D01*
Y034400D01*
X053450D02*
X054250D01*
X053450Y034000D02*
Y034400D01*
Y032750D02*
X054250D01*
Y033150D01*
X053450D02*
X054250D01*
X053450Y032750D02*
Y033150D01*
Y031800D02*
X054250D01*
Y032200D01*
X053450D02*
X054250D01*
X053450Y031800D02*
Y032200D01*
Y030800D02*
X054250D01*
Y031200D01*
X053450D02*
X054250D01*
X053450Y030800D02*
Y031200D01*
X053500Y029550D02*
X054300D01*
Y029950D01*
X053500D02*
X054300D01*
X053500Y029550D02*
Y029950D01*
Y028550D02*
X054300D01*
Y028950D01*
X053500D02*
X054300D01*
X053500Y028550D02*
Y028950D01*
Y027550D02*
X054300D01*
Y027950D01*
X053500D02*
X054300D01*
X053500Y027550D02*
Y027950D01*
X053450Y026400D02*
X054250D01*
Y026800D01*
X053450D02*
X054250D01*
X053450Y026400D02*
Y026800D01*
Y025400D02*
X054250D01*
Y025800D01*
X053450D02*
X054250D01*
X053450Y025400D02*
Y025800D01*
Y024400D02*
X054250D01*
Y024800D01*
X053450D02*
X054250D01*
X053450Y024400D02*
Y024800D01*
X024200Y025900D02*
X025000D01*
Y026300D01*
X024200D02*
X025000D01*
X024200Y025900D02*
Y026300D01*
Y026750D02*
X025000D01*
Y027150D01*
X024200D02*
X025000D01*
X024200Y026750D02*
Y027150D01*
X024600Y022450D02*
Y023250D01*
X024200D02*
X024600D01*
X024200Y022450D02*
Y023250D01*
Y022450D02*
X024600D01*
X050650Y022050D02*
X051650D01*
Y030050D01*
X050650D02*
X051650D01*
X050650Y022050D02*
Y030050D01*
X026359Y022226D02*
X026674D01*
X026359Y022029D02*
Y022226D01*
X027226D02*
X027541D01*
Y022029D02*
Y022226D01*
X026624Y024459D02*
Y024774D01*
Y024459D02*
X026821D01*
X026624Y025326D02*
Y025641D01*
X026821D01*
X028174Y021809D02*
Y022124D01*
Y021809D02*
X028371D01*
X028174Y022676D02*
Y022991D01*
X028371D01*
X024600Y023550D02*
Y024350D01*
X024200D02*
X024600D01*
X024200Y023550D02*
Y024350D01*
Y023550D02*
X024600D01*
X043573Y030521D02*
X044950D01*
X042525Y029311D02*
Y029473D01*
X047375Y029311D02*
Y029473D01*
X044950Y030521D02*
X046327D01*
X044950Y025679D02*
X046327D01*
X047375Y026727D02*
Y026889D01*
X042525Y026727D02*
Y026889D01*
X043573Y025679D02*
X044950D01*
X040600Y022800D02*
Y036800D01*
X038800Y022800D02*
X040600D01*
X038800D02*
Y036800D01*
X039450D01*
X039950D02*
X040600D01*
X030050Y038850D02*
Y040850D01*
X031050D02*
X053050D01*
Y038850D02*
Y040850D01*
X031050Y038850D02*
X053050D01*
X030050Y040850D02*
X031050D01*
X030050Y038850D02*
X031050D01*
X050650Y030650D02*
Y038650D01*
X051650D01*
Y030650D02*
Y038650D01*
X050650Y030650D02*
X051650D01*
X044314Y034439D02*
X044888Y033865D01*
X042211Y034439D02*
X044314D01*
X042211Y033533D02*
Y034439D01*
X044888Y033533D02*
Y033865D01*
Y032335D02*
Y032667D01*
X042211Y031761D02*
Y032667D01*
Y031761D02*
X044314D01*
X044888Y032335D01*
X027374Y023159D02*
Y023474D01*
Y023159D02*
X027571D01*
X027374Y024026D02*
Y024341D01*
X027571D01*
X056150Y036200D02*
X056200Y036250D01*
X056300D01*
X056350Y036200D01*
Y036000D01*
X056300Y035950D01*
X056200D01*
X056150Y036000D01*
X055850Y036250D02*
X056050D01*
Y036100D01*
X055950Y036150D01*
X055900D01*
X055850Y036100D01*
Y036000D01*
X055900Y035950D01*
X056000D01*
X056050Y036000D01*
X055550Y035950D02*
X055750D01*
X055550Y036150D01*
Y036200D01*
X055600Y036250D01*
X055700D01*
X055750Y036200D01*
X024150Y021650D02*
Y021950D01*
X024000D01*
X023950Y021900D01*
Y021800D01*
X024000Y021750D01*
X024150D01*
X023850Y021650D02*
X023750D01*
X023800D01*
Y021950D01*
X023850Y021900D01*
X023400Y021650D02*
X023600D01*
X023400Y021850D01*
Y021900D01*
X023450Y021950D01*
X023550D01*
X023600Y021900D01*
X023950Y024600D02*
Y024900D01*
X023800D01*
X023750Y024850D01*
Y024750D01*
X023800Y024700D01*
X023950D01*
X023650Y024600D02*
X023550D01*
X023600D01*
Y024900D01*
X023650Y024850D01*
X023400Y024600D02*
X023300D01*
X023350D01*
Y024900D01*
X023400Y024850D01*
X024150Y025300D02*
Y025500D01*
X024300D01*
Y025400D01*
Y025500D01*
X024450D01*
X024150Y025200D02*
X024450D01*
Y025050D01*
X024400Y025000D01*
X024350D01*
X024300Y025050D01*
Y025200D01*
Y025050D01*
X024250Y025000D01*
X024200D01*
X024150Y025050D01*
Y025200D01*
X024450Y024900D02*
Y024800D01*
Y024850D01*
X024150D01*
X024200Y024900D01*
X024150Y024650D02*
Y024450D01*
X024200D01*
X024400Y024650D01*
X024450D01*
X027100Y035750D02*
Y036050D01*
X026950D01*
X026900Y036000D01*
Y035900D01*
X026950Y035850D01*
X027100D01*
X026800Y036000D02*
X026750Y036050D01*
X026650D01*
X026600Y036000D01*
Y035950D01*
X026650Y035900D01*
X026700D01*
X026650D01*
X026600Y035850D01*
Y035800D01*
X026650Y035750D01*
X026750D01*
X026800Y035800D01*
X052427Y036427D02*
Y036727D01*
X052277D01*
X052227Y036677D01*
Y036577D01*
X052277Y036527D01*
X052427D01*
X051927Y036727D02*
X052027Y036677D01*
X052127Y036577D01*
Y036477D01*
X052077Y036427D01*
X051977D01*
X051927Y036477D01*
Y036527D01*
X051977Y036577D01*
X052127D01*
X052450Y033500D02*
Y033800D01*
X052300D01*
X052250Y033750D01*
Y033650D01*
X052300Y033600D01*
X052450D01*
X052150Y033800D02*
X051950D01*
Y033750D01*
X052150Y033550D01*
Y033500D01*
X052350Y030050D02*
Y030350D01*
X052200D01*
X052150Y030300D01*
Y030200D01*
X052200Y030150D01*
X052350D01*
X052050Y030300D02*
X052000Y030350D01*
X051900D01*
X051850Y030300D01*
Y030250D01*
X051900Y030200D01*
X051850Y030150D01*
Y030100D01*
X051900Y030050D01*
X052000D01*
X052050Y030100D01*
Y030150D01*
X052000Y030200D01*
X052050Y030250D01*
Y030300D01*
X052000Y030200D02*
X051900D01*
X052500Y027050D02*
Y027350D01*
X052350D01*
X052300Y027300D01*
Y027200D01*
X052350Y027150D01*
X052500D01*
X052200Y027100D02*
X052150Y027050D01*
X052050D01*
X052000Y027100D01*
Y027300D01*
X052050Y027350D01*
X052150D01*
X052200Y027300D01*
Y027250D01*
X052150Y027200D01*
X052000D01*
X040500Y037300D02*
Y037050D01*
X040450Y037000D01*
X040350D01*
X040300Y037050D01*
Y037300D01*
X040200Y037250D02*
X040150Y037300D01*
X040050D01*
X040000Y037250D01*
Y037200D01*
X040050Y037150D01*
X040100D01*
X040050D01*
X040000Y037100D01*
Y037050D01*
X040050Y037000D01*
X040150D01*
X040200Y037050D01*
X029950Y022000D02*
X030250D01*
Y022150D01*
X030200Y022200D01*
X030100D01*
X030050Y022150D01*
Y022000D01*
Y022100D02*
X029950Y022200D01*
Y022300D02*
Y022400D01*
Y022350D01*
X030250D01*
X030200Y022300D01*
Y022550D02*
X030250Y022600D01*
Y022700D01*
X030200Y022750D01*
X030000D01*
X029950Y022700D01*
Y022600D01*
X030000Y022550D01*
X030200D01*
X029950Y023050D02*
Y022850D01*
X030150Y023050D01*
X030200D01*
X030250Y023000D01*
Y022900D01*
X030200Y022850D01*
X027450Y020400D02*
Y020700D01*
X027300D01*
X027250Y020650D01*
Y020550D01*
X027300Y020500D01*
X027450D01*
X027350D02*
X027250Y020400D01*
X027150D02*
X027050D01*
X027100D01*
Y020700D01*
X027150Y020650D01*
X026900D02*
X026850Y020700D01*
X026750D01*
X026700Y020650D01*
Y020450D01*
X026750Y020400D01*
X026850D01*
X026900Y020450D01*
Y020650D01*
X026600Y020400D02*
X026500D01*
X026550D01*
Y020700D01*
X026600Y020650D01*
X028650Y025600D02*
X028350D01*
Y025450D01*
X028400Y025400D01*
X028500D01*
X028550Y025450D01*
Y025600D01*
Y025500D02*
X028650Y025400D01*
Y025300D02*
Y025200D01*
Y025250D01*
X028350D01*
X028400Y025300D01*
Y025050D02*
X028350Y025000D01*
Y024900D01*
X028400Y024850D01*
X028600D01*
X028650Y024900D01*
Y025000D01*
X028600Y025050D01*
X028400D01*
Y024750D02*
X028350Y024700D01*
Y024600D01*
X028400Y024550D01*
X028600D01*
X028650Y024600D01*
Y024700D01*
X028600Y024750D01*
X028400D01*
X029250Y024300D02*
X028950D01*
Y024150D01*
X029000Y024100D01*
X029100D01*
X029150Y024150D01*
Y024300D01*
Y024200D02*
X029250Y024100D01*
X029200Y024000D02*
X029250Y023950D01*
Y023850D01*
X029200Y023800D01*
X029000D01*
X028950Y023850D01*
Y023950D01*
X029000Y024000D01*
X029050D01*
X029100Y023950D01*
Y023800D01*
X029200Y023700D02*
X029250Y023650D01*
Y023550D01*
X029200Y023500D01*
X029000D01*
X028950Y023550D01*
Y023650D01*
X029000Y023700D01*
X029050D01*
X029100Y023650D01*
Y023500D01*
X031450Y022350D02*
Y022650D01*
X031300D01*
X031250Y022600D01*
Y022500D01*
X031300Y022450D01*
X031450D01*
X031350D02*
X031250Y022350D01*
X031150Y022400D02*
X031100Y022350D01*
X031000D01*
X030950Y022400D01*
Y022600D01*
X031000Y022650D01*
X031100D01*
X031150Y022600D01*
Y022550D01*
X031100Y022500D01*
X030950D01*
X030650Y022650D02*
X030850D01*
Y022500D01*
X030750Y022550D01*
X030700D01*
X030650Y022500D01*
Y022400D01*
X030700Y022350D01*
X030800D01*
X030850Y022400D01*
X031400Y024400D02*
Y024700D01*
X031250D01*
X031200Y024650D01*
Y024550D01*
X031250Y024500D01*
X031400D01*
X031300D02*
X031200Y024400D01*
X031100Y024450D02*
X031050Y024400D01*
X030950D01*
X030900Y024450D01*
Y024650D01*
X030950Y024700D01*
X031050D01*
X031100Y024650D01*
Y024600D01*
X031050Y024550D01*
X030900D01*
X030650Y024400D02*
Y024700D01*
X030800Y024550D01*
X030600D01*
X027400Y022800D02*
Y023100D01*
X027250D01*
X027200Y023050D01*
Y022950D01*
X027250Y022900D01*
X027400D01*
X027300D02*
X027200Y022800D01*
X027100Y022850D02*
X027050Y022800D01*
X026950D01*
X026900Y022850D01*
Y023050D01*
X026950Y023100D01*
X027050D01*
X027100Y023050D01*
Y023000D01*
X027050Y022950D01*
X026900D01*
X026800Y023050D02*
X026750Y023100D01*
X026650D01*
X026600Y023050D01*
Y023000D01*
X026650Y022950D01*
X026700D01*
X026650D01*
X026600Y022900D01*
Y022850D01*
X026650Y022800D01*
X026750D01*
X026800Y022850D01*
X026450Y024350D02*
Y024650D01*
X026300D01*
X026250Y024600D01*
Y024500D01*
X026300Y024450D01*
X026450D01*
X026350D02*
X026250Y024350D01*
X026150Y024400D02*
X026100Y024350D01*
X026000D01*
X025950Y024400D01*
Y024600D01*
X026000Y024650D01*
X026100D01*
X026150Y024600D01*
Y024550D01*
X026100Y024500D01*
X025950D01*
X025850Y024350D02*
X025750D01*
X025800D01*
Y024650D01*
X025850Y024600D01*
X048550Y025900D02*
Y026200D01*
X048400D01*
X048350Y026150D01*
Y026050D01*
X048400Y026000D01*
X048550D01*
X048450D02*
X048350Y025900D01*
X048250Y025950D02*
X048200Y025900D01*
X048100D01*
X048050Y025950D01*
Y026150D01*
X048100Y026200D01*
X048200D01*
X048250Y026150D01*
Y026100D01*
X048200Y026050D01*
X048050D01*
X047950Y026150D02*
X047900Y026200D01*
X047800D01*
X047750Y026150D01*
Y025950D01*
X047800Y025900D01*
X047900D01*
X047950Y025950D01*
Y026150D01*
X045050Y031300D02*
Y031600D01*
X044900D01*
X044850Y031550D01*
Y031450D01*
X044900Y031400D01*
X045050D01*
X044950D02*
X044850Y031300D01*
X044750Y031550D02*
X044700Y031600D01*
X044600D01*
X044550Y031550D01*
Y031500D01*
X044600Y031450D01*
X044550Y031400D01*
Y031350D01*
X044600Y031300D01*
X044700D01*
X044750Y031350D01*
Y031400D01*
X044700Y031450D01*
X044750Y031500D01*
Y031550D01*
X044700Y031450D02*
X044600D01*
X044450Y031550D02*
X044400Y031600D01*
X044300D01*
X044250Y031550D01*
Y031500D01*
X044300Y031450D01*
X044250Y031400D01*
Y031350D01*
X044300Y031300D01*
X044400D01*
X044450Y031350D01*
Y031400D01*
X044400Y031450D01*
X044450Y031500D01*
Y031550D01*
X044400Y031450D02*
X044300D01*
X048000Y023200D02*
Y023500D01*
X047850D01*
X047800Y023450D01*
Y023350D01*
X047850Y023300D01*
X048000D01*
X047900D02*
X047800Y023200D01*
X047700Y023450D02*
X047650Y023500D01*
X047550D01*
X047500Y023450D01*
Y023400D01*
X047550Y023350D01*
X047500Y023300D01*
Y023250D01*
X047550Y023200D01*
X047650D01*
X047700Y023250D01*
Y023300D01*
X047650Y023350D01*
X047700Y023400D01*
Y023450D01*
X047650Y023350D02*
X047550D01*
X047200Y023500D02*
X047300Y023450D01*
X047400Y023350D01*
Y023250D01*
X047350Y023200D01*
X047250D01*
X047200Y023250D01*
Y023300D01*
X047250Y023350D01*
X047400D01*
X050450Y022900D02*
Y023200D01*
X050300D01*
X050250Y023150D01*
Y023050D01*
X050300Y023000D01*
X050450D01*
X050350D02*
X050250Y022900D01*
X049950Y023200D02*
X050150D01*
Y023050D01*
X050050Y023100D01*
X050000D01*
X049950Y023050D01*
Y022950D01*
X050000Y022900D01*
X050100D01*
X050150Y022950D01*
X049700Y022900D02*
Y023200D01*
X049850Y023050D01*
X049650D01*
X050400Y023850D02*
Y024150D01*
X050250D01*
X050200Y024100D01*
Y024000D01*
X050250Y023950D01*
X050400D01*
X050300D02*
X050200Y023850D01*
X049900Y024150D02*
X050100D01*
Y024000D01*
X050000Y024050D01*
X049950D01*
X049900Y024000D01*
Y023900D01*
X049950Y023850D01*
X050050D01*
X050100Y023900D01*
X049800Y024100D02*
X049750Y024150D01*
X049650D01*
X049600Y024100D01*
Y024050D01*
X049650Y024000D01*
X049700D01*
X049650D01*
X049600Y023950D01*
Y023900D01*
X049650Y023850D01*
X049750D01*
X049800Y023900D01*
X050450Y024850D02*
Y025150D01*
X050300D01*
X050250Y025100D01*
Y025000D01*
X050300Y024950D01*
X050450D01*
X050350D02*
X050250Y024850D01*
X049950Y025150D02*
X050150D01*
Y025000D01*
X050050Y025050D01*
X050000D01*
X049950Y025000D01*
Y024900D01*
X050000Y024850D01*
X050100D01*
X050150Y024900D01*
X049650Y024850D02*
X049850D01*
X049650Y025050D01*
Y025100D01*
X049700Y025150D01*
X049800D01*
X049850Y025100D01*
X050400Y025950D02*
Y026250D01*
X050250D01*
X050200Y026200D01*
Y026100D01*
X050250Y026050D01*
X050400D01*
X050300D02*
X050200Y025950D01*
X049900Y026250D02*
X050100D01*
Y026100D01*
X050000Y026150D01*
X049950D01*
X049900Y026100D01*
Y026000D01*
X049950Y025950D01*
X050050D01*
X050100Y026000D01*
X049800Y025950D02*
X049700D01*
X049750D01*
Y026250D01*
X049800Y026200D01*
X050450Y026900D02*
Y027200D01*
X050300D01*
X050250Y027150D01*
Y027050D01*
X050300Y027000D01*
X050450D01*
X050350D02*
X050250Y026900D01*
X049950Y027200D02*
X050150D01*
Y027050D01*
X050050Y027100D01*
X050000D01*
X049950Y027050D01*
Y026950D01*
X050000Y026900D01*
X050100D01*
X050150Y026950D01*
X049850Y027150D02*
X049800Y027200D01*
X049700D01*
X049650Y027150D01*
Y026950D01*
X049700Y026900D01*
X049800D01*
X049850Y026950D01*
Y027150D01*
X050450Y027950D02*
Y028250D01*
X050300D01*
X050250Y028200D01*
Y028100D01*
X050300Y028050D01*
X050450D01*
X050350D02*
X050250Y027950D01*
X050000D02*
Y028250D01*
X050150Y028100D01*
X049950D01*
X049850Y028000D02*
X049800Y027950D01*
X049700D01*
X049650Y028000D01*
Y028200D01*
X049700Y028250D01*
X049800D01*
X049850Y028200D01*
Y028150D01*
X049800Y028100D01*
X049650D01*
X050450Y028900D02*
Y029200D01*
X050300D01*
X050250Y029150D01*
Y029050D01*
X050300Y029000D01*
X050450D01*
X050350D02*
X050250Y028900D01*
X050000D02*
Y029200D01*
X050150Y029050D01*
X049950D01*
X049850Y029150D02*
X049800Y029200D01*
X049700D01*
X049650Y029150D01*
Y029100D01*
X049700Y029050D01*
X049650Y029000D01*
Y028950D01*
X049700Y028900D01*
X049800D01*
X049850Y028950D01*
Y029000D01*
X049800Y029050D01*
X049850Y029100D01*
Y029150D01*
X049800Y029050D02*
X049700D01*
X050393Y029928D02*
Y030228D01*
X050243D01*
X050193Y030178D01*
Y030078D01*
X050243Y030028D01*
X050393D01*
X050293D02*
X050193Y029928D01*
X049943D02*
Y030228D01*
X050093Y030078D01*
X049893D01*
X049793Y030228D02*
X049593D01*
Y030178D01*
X049793Y029978D01*
Y029928D01*
X050450Y031550D02*
Y031850D01*
X050300D01*
X050250Y031800D01*
Y031700D01*
X050300Y031650D01*
X050450D01*
X050350D02*
X050250Y031550D01*
X050000D02*
Y031850D01*
X050150Y031700D01*
X049950D01*
X049650Y031850D02*
X049750Y031800D01*
X049850Y031700D01*
Y031600D01*
X049800Y031550D01*
X049700D01*
X049650Y031600D01*
Y031650D01*
X049700Y031700D01*
X049850D01*
X050450Y032500D02*
Y032800D01*
X050300D01*
X050250Y032750D01*
Y032650D01*
X050300Y032600D01*
X050450D01*
X050350D02*
X050250Y032500D01*
X050000D02*
Y032800D01*
X050150Y032650D01*
X049950D01*
X049650Y032800D02*
X049850D01*
Y032650D01*
X049750Y032700D01*
X049700D01*
X049650Y032650D01*
Y032550D01*
X049700Y032500D01*
X049800D01*
X049850Y032550D01*
X050350Y033450D02*
Y033750D01*
X050200D01*
X050150Y033700D01*
Y033600D01*
X050200Y033550D01*
X050350D01*
X050250D02*
X050150Y033450D01*
X049900D02*
Y033750D01*
X050050Y033600D01*
X049850D01*
X049600Y033450D02*
Y033750D01*
X049750Y033600D01*
X049550D01*
X050450Y035550D02*
Y035850D01*
X050300D01*
X050250Y035800D01*
Y035700D01*
X050300Y035650D01*
X050450D01*
X050350D02*
X050250Y035550D01*
X050000D02*
Y035850D01*
X050150Y035700D01*
X049950D01*
X049650Y035550D02*
X049850D01*
X049650Y035750D01*
Y035800D01*
X049700Y035850D01*
X049800D01*
X049850Y035800D01*
X050450Y036550D02*
Y036850D01*
X050300D01*
X050250Y036800D01*
Y036700D01*
X050300Y036650D01*
X050450D01*
X050350D02*
X050250Y036550D01*
X050000D02*
Y036850D01*
X050150Y036700D01*
X049950D01*
X049850Y036550D02*
X049750D01*
X049800D01*
Y036850D01*
X049850Y036800D01*
X050400Y037500D02*
Y037800D01*
X050250D01*
X050200Y037750D01*
Y037650D01*
X050250Y037600D01*
X050400D01*
X050300D02*
X050200Y037500D01*
X049950D02*
Y037800D01*
X050100Y037650D01*
X049900D01*
X049800Y037750D02*
X049750Y037800D01*
X049650D01*
X049600Y037750D01*
Y037550D01*
X049650Y037500D01*
X049750D01*
X049800Y037550D01*
Y037750D01*
X049450Y038150D02*
Y038450D01*
X049300D01*
X049250Y038400D01*
Y038300D01*
X049300Y038250D01*
X049450D01*
X049350D02*
X049250Y038150D01*
X049150Y038400D02*
X049100Y038450D01*
X049000D01*
X048950Y038400D01*
Y038350D01*
X049000Y038300D01*
X049050D01*
X049000D01*
X048950Y038250D01*
Y038200D01*
X049000Y038150D01*
X049100D01*
X049150Y038200D01*
X048850D02*
X048800Y038150D01*
X048700D01*
X048650Y038200D01*
Y038400D01*
X048700Y038450D01*
X048800D01*
X048850Y038400D01*
Y038350D01*
X048800Y038300D01*
X048650D01*
X033950Y035300D02*
Y035600D01*
X033800D01*
X033750Y035550D01*
Y035450D01*
X033800Y035400D01*
X033950D01*
X033850D02*
X033750Y035300D01*
X033650Y035550D02*
X033600Y035600D01*
X033500D01*
X033450Y035550D01*
Y035500D01*
X033500Y035450D01*
X033550D01*
X033500D01*
X033450Y035400D01*
Y035350D01*
X033500Y035300D01*
X033600D01*
X033650Y035350D01*
X033150Y035600D02*
X033250Y035550D01*
X033350Y035450D01*
Y035350D01*
X033300Y035300D01*
X033200D01*
X033150Y035350D01*
Y035400D01*
X033200Y035450D01*
X033350D01*
X034650Y022250D02*
Y022550D01*
X034500D01*
X034450Y022500D01*
Y022400D01*
X034500Y022350D01*
X034650D01*
X034550D02*
X034450Y022250D01*
X034350Y022500D02*
X034300Y022550D01*
X034200D01*
X034150Y022500D01*
Y022450D01*
X034200Y022400D01*
X034250D01*
X034200D01*
X034150Y022350D01*
Y022300D01*
X034200Y022250D01*
X034300D01*
X034350Y022300D01*
X033900Y022250D02*
Y022550D01*
X034050Y022400D01*
X033850D01*
X033750Y022900D02*
Y023200D01*
X033600D01*
X033550Y023150D01*
Y023050D01*
X033600Y023000D01*
X033750D01*
X033650D02*
X033550Y022900D01*
X033450Y023150D02*
X033400Y023200D01*
X033300D01*
X033250Y023150D01*
Y023100D01*
X033300Y023050D01*
X033350D01*
X033300D01*
X033250Y023000D01*
Y022950D01*
X033300Y022900D01*
X033400D01*
X033450Y022950D01*
X033150Y023150D02*
X033100Y023200D01*
X033000D01*
X032950Y023150D01*
Y023100D01*
X033000Y023050D01*
X033050D01*
X033000D01*
X032950Y023000D01*
Y022950D01*
X033000Y022900D01*
X033100D01*
X033150Y022950D01*
X033700Y023800D02*
Y024100D01*
X033550D01*
X033500Y024050D01*
Y023950D01*
X033550Y023900D01*
X033700D01*
X033600D02*
X033500Y023800D01*
X033400Y024050D02*
X033350Y024100D01*
X033250D01*
X033200Y024050D01*
Y024000D01*
X033250Y023950D01*
X033300D01*
X033250D01*
X033200Y023900D01*
Y023850D01*
X033250Y023800D01*
X033350D01*
X033400Y023850D01*
X032900Y023800D02*
X033100D01*
X032900Y024000D01*
Y024050D01*
X032950Y024100D01*
X033050D01*
X033100Y024050D01*
X033650Y025000D02*
Y025300D01*
X033500D01*
X033450Y025250D01*
Y025150D01*
X033500Y025100D01*
X033650D01*
X033550D02*
X033450Y025000D01*
X033350Y025250D02*
X033300Y025300D01*
X033200D01*
X033150Y025250D01*
Y025200D01*
X033200Y025150D01*
X033250D01*
X033200D01*
X033150Y025100D01*
Y025050D01*
X033200Y025000D01*
X033300D01*
X033350Y025050D01*
X033050Y025000D02*
X032950D01*
X033000D01*
Y025300D01*
X033050Y025250D01*
X033750Y026750D02*
Y027050D01*
X033600D01*
X033550Y027000D01*
Y026900D01*
X033600Y026850D01*
X033750D01*
X033650D02*
X033550Y026750D01*
X033450Y027000D02*
X033400Y027050D01*
X033300D01*
X033250Y027000D01*
Y026950D01*
X033300Y026900D01*
X033350D01*
X033300D01*
X033250Y026850D01*
Y026800D01*
X033300Y026750D01*
X033400D01*
X033450Y026800D01*
X033150Y027000D02*
X033100Y027050D01*
X033000D01*
X032950Y027000D01*
Y026800D01*
X033000Y026750D01*
X033100D01*
X033150Y026800D01*
Y027000D01*
X033750Y027750D02*
Y028050D01*
X033600D01*
X033550Y028000D01*
Y027900D01*
X033600Y027850D01*
X033750D01*
X033650D02*
X033550Y027750D01*
X033250D02*
X033450D01*
X033250Y027950D01*
Y028000D01*
X033300Y028050D01*
X033400D01*
X033450Y028000D01*
X033150Y027800D02*
X033100Y027750D01*
X033000D01*
X032950Y027800D01*
Y028000D01*
X033000Y028050D01*
X033100D01*
X033150Y028000D01*
Y027950D01*
X033100Y027900D01*
X032950D01*
X033700Y029850D02*
Y030150D01*
X033550D01*
X033500Y030100D01*
Y030000D01*
X033550Y029950D01*
X033700D01*
X033600D02*
X033500Y029850D01*
X033200D02*
X033400D01*
X033200Y030050D01*
Y030100D01*
X033250Y030150D01*
X033350D01*
X033400Y030100D01*
X033100D02*
X033050Y030150D01*
X032950D01*
X032900Y030100D01*
Y030050D01*
X032950Y030000D01*
X032900Y029950D01*
Y029900D01*
X032950Y029850D01*
X033050D01*
X033100Y029900D01*
Y029950D01*
X033050Y030000D01*
X033100Y030050D01*
Y030100D01*
X033050Y030000D02*
X032950D01*
X033700Y030900D02*
Y031200D01*
X033550D01*
X033500Y031150D01*
Y031050D01*
X033550Y031000D01*
X033700D01*
X033600D02*
X033500Y030900D01*
X033200D02*
X033400D01*
X033200Y031100D01*
Y031150D01*
X033250Y031200D01*
X033350D01*
X033400Y031150D01*
X033100Y031200D02*
X032900D01*
Y031150D01*
X033100Y030950D01*
Y030900D01*
X033700Y031850D02*
Y032150D01*
X033550D01*
X033500Y032100D01*
Y032000D01*
X033550Y031950D01*
X033700D01*
X033600D02*
X033500Y031850D01*
X033200D02*
X033400D01*
X033200Y032050D01*
Y032100D01*
X033250Y032150D01*
X033350D01*
X033400Y032100D01*
X032900Y032150D02*
X033000Y032100D01*
X033100Y032000D01*
Y031900D01*
X033050Y031850D01*
X032950D01*
X032900Y031900D01*
Y031950D01*
X032950Y032000D01*
X033100D01*
X033700Y032900D02*
Y033200D01*
X033550D01*
X033500Y033150D01*
Y033050D01*
X033550Y033000D01*
X033700D01*
X033600D02*
X033500Y032900D01*
X033200D02*
X033400D01*
X033200Y033100D01*
Y033150D01*
X033250Y033200D01*
X033350D01*
X033400Y033150D01*
X032900Y033200D02*
X033100D01*
Y033050D01*
X033000Y033100D01*
X032950D01*
X032900Y033050D01*
Y032950D01*
X032950Y032900D01*
X033050D01*
X033100Y032950D01*
X033700Y033800D02*
Y034100D01*
X033550D01*
X033500Y034050D01*
Y033950D01*
X033550Y033900D01*
X033700D01*
X033600D02*
X033500Y033800D01*
X033200D02*
X033400D01*
X033200Y034000D01*
Y034050D01*
X033250Y034100D01*
X033350D01*
X033400Y034050D01*
X032950Y033800D02*
Y034100D01*
X033100Y033950D01*
X032900D01*
X034650Y034300D02*
Y034600D01*
X034500D01*
X034450Y034550D01*
Y034450D01*
X034500Y034400D01*
X034650D01*
X034550D02*
X034450Y034300D01*
X034150D02*
X034350D01*
X034150Y034500D01*
Y034550D01*
X034200Y034600D01*
X034300D01*
X034350Y034550D01*
X034050D02*
X034000Y034600D01*
X033900D01*
X033850Y034550D01*
Y034500D01*
X033900Y034450D01*
X033950D01*
X033900D01*
X033850Y034400D01*
Y034350D01*
X033900Y034300D01*
X034000D01*
X034050Y034350D01*
X027850Y022800D02*
Y023000D01*
X027900Y023050D01*
X028000D01*
X028050Y023000D01*
Y022800D01*
X028000Y022750D01*
X027900D01*
X027950Y022850D02*
X027850Y022750D01*
X027900D02*
X027850Y022800D01*
X027750Y023050D02*
X027550D01*
Y023000D01*
X027750Y022800D01*
Y022750D01*
X026300Y025350D02*
Y025550D01*
X026350Y025600D01*
X026450D01*
X026500Y025550D01*
Y025350D01*
X026450Y025300D01*
X026350D01*
X026400Y025400D02*
X026300Y025300D01*
X026350D02*
X026300Y025350D01*
X026000Y025600D02*
X026100Y025550D01*
X026200Y025450D01*
Y025350D01*
X026150Y025300D01*
X026050D01*
X026000Y025350D01*
Y025400D01*
X026050Y025450D01*
X026200D01*
X027500Y022400D02*
Y022600D01*
X027550Y022650D01*
X027650D01*
X027700Y022600D01*
Y022400D01*
X027650Y022350D01*
X027550D01*
X027600Y022450D02*
X027500Y022350D01*
X027550D02*
X027500Y022400D01*
X027200Y022650D02*
X027400D01*
Y022500D01*
X027300Y022550D01*
X027250D01*
X027200Y022500D01*
Y022400D01*
X027250Y022350D01*
X027350D01*
X027400Y022400D01*
X027050Y024049D02*
Y024249D01*
X027100Y024299D01*
X027200D01*
X027250Y024249D01*
Y024049D01*
X027200Y023999D01*
X027100D01*
X027150Y024099D02*
X027050Y023999D01*
X027100D02*
X027050Y024049D01*
X026800Y023999D02*
Y024299D01*
X026950Y024149D01*
X026750D01*
X047050Y031000D02*
Y031200D01*
X047100Y031250D01*
X047200D01*
X047250Y031200D01*
Y031000D01*
X047200Y030950D01*
X047100D01*
X047150Y031050D02*
X047050Y030950D01*
X047100D02*
X047050Y031000D01*
X046750Y030950D02*
X046950D01*
X046750Y031150D01*
Y031200D01*
X046800Y031250D01*
X046900D01*
X046950Y031200D01*
X042450Y030650D02*
Y030350D01*
X042250D01*
X042000D02*
Y030650D01*
X042150Y030500D01*
X041950D01*
X047350Y036850D02*
Y036550D01*
X047150D01*
X047050Y036800D02*
X047000Y036850D01*
X046900D01*
X046850Y036800D01*
Y036750D01*
X046900Y036700D01*
X046950D01*
X046900D01*
X046850Y036650D01*
Y036600D01*
X046900Y036550D01*
X047000D01*
X047050Y036600D01*
X030950Y035300D02*
X030650D01*
Y035500D01*
Y035600D02*
Y035700D01*
Y035650D01*
X030950D01*
X030900Y035600D01*
X052250Y022550D02*
X052350D01*
X052300D01*
Y022300D01*
X052350Y022250D01*
X052400D01*
X052450Y022300D01*
X052000Y022250D02*
Y022550D01*
X052150Y022400D01*
X051950D01*
X050950Y030550D02*
X051050D01*
X051000D01*
Y030300D01*
X051050Y030250D01*
X051100D01*
X051150Y030300D01*
X050850Y030500D02*
X050800Y030550D01*
X050700D01*
X050650Y030500D01*
Y030450D01*
X050700Y030400D01*
X050750D01*
X050700D01*
X050650Y030350D01*
Y030300D01*
X050700Y030250D01*
X050800D01*
X050850Y030300D01*
X024250Y022150D02*
Y022350D01*
X024400D01*
Y022250D01*
Y022350D01*
X024550D01*
X024250Y022050D02*
X024550D01*
Y021900D01*
X024500Y021850D01*
X024450D01*
X024400Y021900D01*
Y022050D01*
Y021900D01*
X024350Y021850D01*
X024300D01*
X024250Y021900D01*
Y022050D01*
X024550Y021750D02*
Y021650D01*
Y021700D01*
X024250D01*
X024300Y021750D01*
X024250Y021300D02*
X024300Y021400D01*
X024400Y021500D01*
X024500D01*
X024550Y021450D01*
Y021350D01*
X024500Y021300D01*
X024450D01*
X024400Y021350D01*
Y021500D01*
X024950Y027550D02*
X025150D01*
Y027400D01*
X025050D01*
X025150D01*
Y027250D01*
X024850Y027550D02*
Y027250D01*
X024700D01*
X024650Y027300D01*
Y027350D01*
X024700Y027400D01*
X024850D01*
X024700D01*
X024650Y027450D01*
Y027500D01*
X024700Y027550D01*
X024850D01*
X024550Y027250D02*
X024450D01*
X024500D01*
Y027550D01*
X024550Y027500D01*
X024100Y027550D02*
X024300D01*
Y027400D01*
X024200Y027450D01*
X024150D01*
X024100Y027400D01*
Y027300D01*
X024150Y027250D01*
X024250D01*
X024300Y027300D01*
X023900Y026400D02*
X024100D01*
Y026250D01*
X024000D01*
X024100D01*
Y026100D01*
X023800Y026400D02*
Y026100D01*
X023650D01*
X023600Y026150D01*
Y026200D01*
X023650Y026250D01*
X023800D01*
X023650D01*
X023600Y026300D01*
Y026350D01*
X023650Y026400D01*
X023800D01*
X023500Y026100D02*
X023400D01*
X023450D01*
Y026400D01*
X023500Y026350D01*
X023100Y026100D02*
Y026400D01*
X023250Y026250D01*
X023050D01*
X054050Y025250D02*
X054250D01*
Y025100D01*
X054150D01*
X054250D01*
Y024950D01*
X053950Y025250D02*
Y024950D01*
X053800D01*
X053750Y025000D01*
Y025050D01*
X053800Y025100D01*
X053950D01*
X053800D01*
X053750Y025150D01*
Y025200D01*
X053800Y025250D01*
X053950D01*
X053650Y024950D02*
X053550D01*
X053600D01*
Y025250D01*
X053650Y025200D01*
X053400D02*
X053350Y025250D01*
X053250D01*
X053200Y025200D01*
Y025150D01*
X053250Y025100D01*
X053300D01*
X053250D01*
X053200Y025050D01*
Y025000D01*
X053250Y024950D01*
X053350D01*
X053400Y025000D01*
X054150Y026250D02*
X054350D01*
Y026100D01*
X054250D01*
X054350D01*
Y025950D01*
X054050Y026250D02*
Y025950D01*
X053900D01*
X053850Y026000D01*
Y026050D01*
X053900Y026100D01*
X054050D01*
X053900D01*
X053850Y026150D01*
Y026200D01*
X053900Y026250D01*
X054050D01*
X053750Y025950D02*
X053650D01*
X053700D01*
Y026250D01*
X053750Y026200D01*
X053300Y025950D02*
X053500D01*
X053300Y026150D01*
Y026200D01*
X053350Y026250D01*
X053450D01*
X053500Y026200D01*
X054200Y027250D02*
X054400D01*
Y027100D01*
X054300D01*
X054400D01*
Y026950D01*
X054100Y027250D02*
Y026950D01*
X053950D01*
X053900Y027000D01*
Y027050D01*
X053950Y027100D01*
X054100D01*
X053950D01*
X053900Y027150D01*
Y027200D01*
X053950Y027250D01*
X054100D01*
X053800Y026950D02*
X053700D01*
X053750D01*
Y027250D01*
X053800Y027200D01*
X053550Y026950D02*
X053450D01*
X053500D01*
Y027250D01*
X053550Y027200D01*
X054100Y028400D02*
X054300D01*
Y028250D01*
X054200D01*
X054300D01*
Y028100D01*
X054000Y028400D02*
Y028100D01*
X053850D01*
X053800Y028150D01*
Y028200D01*
X053850Y028250D01*
X054000D01*
X053850D01*
X053800Y028300D01*
Y028350D01*
X053850Y028400D01*
X054000D01*
X053700Y028100D02*
X053600D01*
X053650D01*
Y028400D01*
X053700Y028350D01*
X053450D02*
X053400Y028400D01*
X053300D01*
X053250Y028350D01*
Y028150D01*
X053300Y028100D01*
X053400D01*
X053450Y028150D01*
Y028350D01*
X054100Y029400D02*
X054300D01*
Y029250D01*
X054200D01*
X054300D01*
Y029100D01*
X054000Y029400D02*
Y029100D01*
X053850D01*
X053800Y029150D01*
Y029200D01*
X053850Y029250D01*
X054000D01*
X053850D01*
X053800Y029300D01*
Y029350D01*
X053850Y029400D01*
X054000D01*
X053700Y029150D02*
X053650Y029100D01*
X053550D01*
X053500Y029150D01*
Y029350D01*
X053550Y029400D01*
X053650D01*
X053700Y029350D01*
Y029300D01*
X053650Y029250D01*
X053500D01*
X054100Y030400D02*
X054300D01*
Y030250D01*
X054200D01*
X054300D01*
Y030100D01*
X054000Y030400D02*
Y030100D01*
X053850D01*
X053800Y030150D01*
Y030200D01*
X053850Y030250D01*
X054000D01*
X053850D01*
X053800Y030300D01*
Y030350D01*
X053850Y030400D01*
X054000D01*
X053700Y030350D02*
X053650Y030400D01*
X053550D01*
X053500Y030350D01*
Y030300D01*
X053550Y030250D01*
X053500Y030200D01*
Y030150D01*
X053550Y030100D01*
X053650D01*
X053700Y030150D01*
Y030200D01*
X053650Y030250D01*
X053700Y030300D01*
Y030350D01*
X053650Y030250D02*
X053550D01*
X054050Y031600D02*
X054250D01*
Y031450D01*
X054150D01*
X054250D01*
Y031300D01*
X053950Y031600D02*
Y031300D01*
X053800D01*
X053750Y031350D01*
Y031400D01*
X053800Y031450D01*
X053950D01*
X053800D01*
X053750Y031500D01*
Y031550D01*
X053800Y031600D01*
X053950D01*
X053650D02*
X053450D01*
Y031550D01*
X053650Y031350D01*
Y031300D01*
X054050Y032600D02*
X054250D01*
Y032450D01*
X054150D01*
X054250D01*
Y032300D01*
X053950Y032600D02*
Y032300D01*
X053800D01*
X053750Y032350D01*
Y032400D01*
X053800Y032450D01*
X053950D01*
X053800D01*
X053750Y032500D01*
Y032550D01*
X053800Y032600D01*
X053950D01*
X053450D02*
X053550Y032550D01*
X053650Y032450D01*
Y032350D01*
X053600Y032300D01*
X053500D01*
X053450Y032350D01*
Y032400D01*
X053500Y032450D01*
X053650D01*
X054050Y033600D02*
X054250D01*
Y033450D01*
X054150D01*
X054250D01*
Y033300D01*
X053950Y033600D02*
Y033300D01*
X053800D01*
X053750Y033350D01*
Y033400D01*
X053800Y033450D01*
X053950D01*
X053800D01*
X053750Y033500D01*
Y033550D01*
X053800Y033600D01*
X053950D01*
X053450D02*
X053650D01*
Y033450D01*
X053550Y033500D01*
X053500D01*
X053450Y033450D01*
Y033350D01*
X053500Y033300D01*
X053600D01*
X053650Y033350D01*
X054084Y034800D02*
X054283D01*
Y034650D01*
X054183D01*
X054283D01*
Y034500D01*
X053984Y034800D02*
Y034500D01*
X053834D01*
X053784Y034550D01*
Y034600D01*
X053834Y034650D01*
X053984D01*
X053834D01*
X053784Y034700D01*
Y034750D01*
X053834Y034800D01*
X053984D01*
X053534Y034500D02*
Y034800D01*
X053684Y034650D01*
X053484D01*
X054134Y035850D02*
X054333D01*
Y035700D01*
X054233D01*
X054333D01*
Y035550D01*
X054034Y035850D02*
Y035550D01*
X053884D01*
X053834Y035600D01*
Y035650D01*
X053884Y035700D01*
X054034D01*
X053884D01*
X053834Y035750D01*
Y035800D01*
X053884Y035850D01*
X054034D01*
X053734Y035800D02*
X053684Y035850D01*
X053584D01*
X053534Y035800D01*
Y035750D01*
X053584Y035700D01*
X053634D01*
X053584D01*
X053534Y035650D01*
Y035600D01*
X053584Y035550D01*
X053684D01*
X053734Y035600D01*
X054117Y036800D02*
X054317D01*
Y036650D01*
X054217D01*
X054317D01*
Y036500D01*
X054017Y036800D02*
Y036500D01*
X053867D01*
X053817Y036550D01*
Y036600D01*
X053867Y036650D01*
X054017D01*
X053867D01*
X053817Y036700D01*
Y036750D01*
X053867Y036800D01*
X054017D01*
X053517Y036500D02*
X053717D01*
X053517Y036700D01*
Y036750D01*
X053567Y036800D01*
X053667D01*
X053717Y036750D01*
X025750Y021050D02*
Y020750D01*
X025600D01*
X025550Y020800D01*
Y021000D01*
X025600Y021050D01*
X025750D01*
X025450Y020750D02*
X025350D01*
X025400D01*
Y021050D01*
X025450Y021000D01*
X025200D02*
X025150Y021050D01*
X025050D01*
X025000Y021000D01*
Y020950D01*
X025050Y020900D01*
X025100D01*
X025050D01*
X025000Y020850D01*
Y020800D01*
X025050Y020750D01*
X025150D01*
X025200Y020800D01*
X025800Y025700D02*
Y025400D01*
X025650D01*
X025600Y025450D01*
Y025650D01*
X025650Y025700D01*
X025800D01*
X025500Y025400D02*
X025400D01*
X025450D01*
Y025700D01*
X025500Y025650D01*
X025050Y025400D02*
X025250D01*
X025050Y025600D01*
Y025650D01*
X025100Y025700D01*
X025200D01*
X025250Y025650D01*
X049300Y031950D02*
X049000D01*
Y032100D01*
X049050Y032150D01*
X049250D01*
X049300Y032100D01*
Y031950D01*
X049050Y032250D02*
X049000Y032300D01*
Y032400D01*
X049050Y032450D01*
X049250D01*
X049300Y032400D01*
Y032300D01*
X049250Y032250D01*
X049200D01*
X049150Y032300D01*
Y032450D01*
X049300Y033600D02*
X049000D01*
Y033750D01*
X049050Y033800D01*
X049250D01*
X049300Y033750D01*
Y033600D01*
X049250Y033900D02*
X049300Y033950D01*
Y034050D01*
X049250Y034100D01*
X049200D01*
X049150Y034050D01*
X049100Y034100D01*
X049050D01*
X049000Y034050D01*
Y033950D01*
X049050Y033900D01*
X049100D01*
X049150Y033950D01*
X049200Y033900D01*
X049250D01*
X049150Y033950D02*
Y034050D01*
X055300Y024600D02*
Y024300D01*
X055150D01*
X055100Y024350D01*
Y024550D01*
X055150Y024600D01*
X055300D01*
X055000D02*
X054800D01*
Y024550D01*
X055000Y024350D01*
Y024300D01*
X055300Y027850D02*
Y027550D01*
X055150D01*
X055100Y027600D01*
Y027800D01*
X055150Y027850D01*
X055300D01*
X054800D02*
X054900Y027800D01*
X055000Y027700D01*
Y027600D01*
X054950Y027550D01*
X054850D01*
X054800Y027600D01*
Y027650D01*
X054850Y027700D01*
X055000D01*
X055350Y031100D02*
Y030800D01*
X055200D01*
X055150Y030850D01*
Y031050D01*
X055200Y031100D01*
X055350D01*
X054850D02*
X055050D01*
Y030950D01*
X054950Y031000D01*
X054900D01*
X054850Y030950D01*
Y030850D01*
X054900Y030800D01*
X055000D01*
X055050Y030850D01*
X055300Y034250D02*
Y033950D01*
X055150D01*
X055100Y034000D01*
Y034200D01*
X055150Y034250D01*
X055300D01*
X054850Y033950D02*
Y034250D01*
X055000Y034100D01*
X054800D01*
X043750Y031300D02*
X043800Y031350D01*
X043900D01*
X043950Y031300D01*
Y031100D01*
X043900Y031050D01*
X043800D01*
X043750Y031100D01*
X043650Y031300D02*
X043600Y031350D01*
X043500D01*
X043450Y031300D01*
Y031250D01*
X043500Y031200D01*
X043550D01*
X043500D01*
X043450Y031150D01*
Y031100D01*
X043500Y031050D01*
X043600D01*
X043650Y031100D01*
X043350D02*
X043300Y031050D01*
X043200D01*
X043150Y031100D01*
Y031300D01*
X043200Y031350D01*
X043300D01*
X043350Y031300D01*
Y031250D01*
X043300Y031200D01*
X043150D01*
X049150Y025100D02*
X049200Y025050D01*
Y024950D01*
X049150Y024900D01*
X048950D01*
X048900Y024950D01*
Y025050D01*
X048950Y025100D01*
X049150Y025200D02*
X049200Y025250D01*
Y025350D01*
X049150Y025400D01*
X049100D01*
X049050Y025350D01*
Y025300D01*
Y025350D01*
X049000Y025400D01*
X048950D01*
X048900Y025350D01*
Y025250D01*
X048950Y025200D01*
X049200Y025500D02*
Y025700D01*
X049150D01*
X048950Y025500D01*
X048900D01*
X047750Y024150D02*
X047800Y024100D01*
Y024000D01*
X047750Y023950D01*
X047550D01*
X047500Y024000D01*
Y024100D01*
X047550Y024150D01*
X047750Y024250D02*
X047800Y024300D01*
Y024400D01*
X047750Y024450D01*
X047700D01*
X047650Y024400D01*
Y024350D01*
Y024400D01*
X047600Y024450D01*
X047550D01*
X047500Y024400D01*
Y024300D01*
X047550Y024250D01*
X047800Y024750D02*
X047750Y024650D01*
X047650Y024550D01*
X047550D01*
X047500Y024600D01*
Y024700D01*
X047550Y024750D01*
X047600D01*
X047650Y024700D01*
Y024550D01*
X027600Y040800D02*
X027800D01*
Y040650D01*
X027700D01*
X027800D01*
Y040500D01*
X027500Y040800D02*
X027400D01*
X027450D01*
Y040500D01*
X027500D01*
X027400D01*
X027250Y040800D02*
Y040500D01*
X027100D01*
X027050Y040550D01*
Y040750D01*
X027100Y040800D01*
X027250D01*
X026950Y040500D02*
X026850D01*
X026900D01*
Y040800D01*
X026950Y040750D01*
X029950Y020650D02*
Y020950D01*
X029800D01*
X029750Y020900D01*
Y020800D01*
X029800Y020750D01*
X029950D01*
X029450Y020650D02*
X029650D01*
X029450Y020850D01*
Y020900D01*
X029500Y020950D01*
X029600D01*
X029650Y020900D01*
X029850Y040650D02*
Y040950D01*
X029700D01*
X029650Y040900D01*
Y040800D01*
X029700Y040750D01*
X029850D01*
X029550Y040650D02*
X029450D01*
X029500D01*
Y040950D01*
X029550Y040900D01*
X056350Y037350D02*
X056550D01*
Y037200D01*
X056450D01*
X056550D01*
Y037050D01*
X056250Y037350D02*
X056150D01*
X056200D01*
Y037050D01*
X056250D01*
X056150D01*
X056000Y037350D02*
Y037050D01*
X055850D01*
X055800Y037100D01*
Y037300D01*
X055850Y037350D01*
X056000D01*
X055700Y037300D02*
X055650Y037350D01*
X055550D01*
X055500Y037300D01*
Y037250D01*
X055550Y037200D01*
X055600D01*
X055550D01*
X055500Y037150D01*
Y037100D01*
X055550Y037050D01*
X055650D01*
X055700Y037100D01*
X046383Y022533D02*
X046450Y022600D01*
X046583D01*
X046650Y022533D01*
Y022267D01*
X046583Y022200D01*
X046450D01*
X046383Y022267D01*
X045984Y022200D02*
X046250D01*
X045984Y022467D01*
Y022533D01*
X046050Y022600D01*
X046183D01*
X046250Y022533D01*
X045584Y022600D02*
X045717Y022533D01*
X045850Y022400D01*
Y022267D01*
X045784Y022200D01*
X045650D01*
X045584Y022267D01*
Y022333D01*
X045650Y022400D01*
X045850D01*
X041900Y022700D02*
Y022400D01*
X041750D01*
X041700Y022450D01*
Y022500D01*
X041750Y022550D01*
X041900D01*
X041750D01*
X041700Y022600D01*
Y022650D01*
X041750Y022700D01*
X041900D01*
X041450Y022400D02*
X041550D01*
X041600Y022450D01*
Y022550D01*
X041550Y022600D01*
X041450D01*
X041400Y022550D01*
Y022500D01*
X041600D01*
X041250Y022600D02*
X041150D01*
X041100Y022550D01*
Y022400D01*
X041250D01*
X041300Y022450D01*
X041250Y022500D01*
X041100D01*
X040900Y022300D02*
X040850D01*
X040800Y022350D01*
Y022600D01*
X040950D01*
X041000Y022550D01*
Y022450D01*
X040950Y022400D01*
X040800D01*
X040700D02*
X040600D01*
X040650D01*
Y022700D01*
X040700D01*
X040301Y022400D02*
X040400D01*
X040450Y022450D01*
Y022550D01*
X040400Y022600D01*
X040301D01*
X040251Y022550D01*
Y022500D01*
X040450D01*
X040151Y022700D02*
Y022400D01*
X040001D01*
X039951Y022450D01*
Y022500D01*
X040001Y022550D01*
X040151D01*
X040001D01*
X039951Y022600D01*
Y022650D01*
X040001Y022700D01*
X040151D01*
X039801Y022400D02*
X039701D01*
X039651Y022450D01*
Y022550D01*
X039701Y022600D01*
X039801D01*
X039851Y022550D01*
Y022450D01*
X039801Y022400D01*
X039551D02*
Y022600D01*
X039401D01*
X039351Y022550D01*
Y022400D01*
X039101D02*
X039201D01*
X039251Y022450D01*
Y022550D01*
X039201Y022600D01*
X039101D01*
X039051Y022550D01*
Y022500D01*
X039251D01*
X038501Y022700D02*
X038601D01*
X038651Y022650D01*
Y022450D01*
X038601Y022400D01*
X038501D01*
X038451Y022450D01*
Y022650D01*
X038501Y022700D01*
X038351Y022300D02*
Y022600D01*
X038201D01*
X038151Y022550D01*
Y022450D01*
X038201Y022400D01*
X038351D01*
X037901D02*
X038001D01*
X038051Y022450D01*
Y022550D01*
X038001Y022600D01*
X037901D01*
X037851Y022550D01*
Y022500D01*
X038051D01*
X037751Y022400D02*
Y022600D01*
X037601D01*
X037551Y022550D01*
Y022400D01*
X037451D02*
Y022700D01*
X037301D01*
X037252Y022650D01*
Y022550D01*
X037301Y022500D01*
X037451D01*
X037351D02*
X037252Y022400D01*
X037002Y022700D02*
X037102D01*
X037152Y022650D01*
Y022450D01*
X037102Y022400D01*
X037002D01*
X036952Y022450D01*
Y022650D01*
X037002Y022700D01*
X036852D02*
Y022500D01*
X036752Y022400D01*
X036652Y022500D01*
Y022700D01*
X036052Y022650D02*
X036102Y022700D01*
X036202D01*
X036252Y022650D01*
Y022450D01*
X036202Y022400D01*
X036102D01*
X036052Y022450D01*
X035902Y022600D02*
X035802D01*
X035752Y022550D01*
Y022400D01*
X035902D01*
X035952Y022450D01*
X035902Y022500D01*
X035752D01*
X035652Y022300D02*
Y022600D01*
X035502D01*
X035452Y022550D01*
Y022450D01*
X035502Y022400D01*
X035652D01*
X035202D02*
X035302D01*
X035352Y022450D01*
Y022550D01*
X035302Y022600D01*
X035202D01*
X035152Y022550D01*
Y022500D01*
X035352D01*
X029800Y039100D02*
X029700D01*
X029750D01*
Y039400D01*
X029800Y039350D01*
X029600Y040100D02*
X029800D01*
X029600Y040300D01*
Y040350D01*
X029650Y040400D01*
X029750D01*
X029800Y040350D01*
X053650Y040350D02*
Y040650D01*
X053800Y040500D01*
X053600D01*
X053300Y040650D02*
X053400Y040600D01*
X053500Y040500D01*
Y040400D01*
X053450Y040350D01*
X053350D01*
X053300Y040400D01*
Y040450D01*
X053350Y040500D01*
X053500D01*
X053650Y039350D02*
Y039650D01*
X053800Y039500D01*
X053600D01*
X053300Y039650D02*
X053500D01*
Y039500D01*
X053400Y039550D01*
X053350D01*
X053300Y039500D01*
Y039400D01*
X053350Y039350D01*
X053450D01*
X053500Y039400D01*
X053650Y020100D02*
Y020400D01*
X053800Y020250D01*
X053600D01*
X053300Y020400D02*
X053500D01*
Y020250D01*
X053400Y020300D01*
X053350D01*
X053300Y020250D01*
Y020150D01*
X053350Y020100D01*
X053450D01*
X053500Y020150D01*
X053650Y021100D02*
Y021400D01*
X053800Y021250D01*
X053600D01*
X053300Y021400D02*
X053400Y021350D01*
X053500Y021250D01*
Y021150D01*
X053450Y021100D01*
X053350D01*
X053300Y021150D01*
Y021200D01*
X053350Y021250D01*
X053500D01*
X029650Y021150D02*
X029850D01*
X029650Y021350D01*
Y021400D01*
X029700Y021450D01*
X029800D01*
X029850Y021400D01*
X029800Y020050D02*
X029700D01*
X029750D01*
Y020350D01*
X029800Y020300D01*
G54D84*
X027708Y021576D02*
G03*
X027708Y021576I-000049J000000D01*
G01*
X027323Y025759D02*
G03*
X027323Y025759I-000049J000000D01*
G01*
X028873Y023109D02*
G03*
X028873Y023109I-000049J000000D01*
G01*
X028073Y024459D02*
G03*
X028073Y024459I-000049J000000D01*
G01*
G54D87*
X048800Y032300D02*
D03*
Y033900D02*
D03*
G54D147*
X036730Y031550D02*
G03*
X036730Y031560I000000J000005D01*
G01*
D02*
G03*
X036730Y031550I000000J-000005D01*
G01*
Y031680D02*
G03*
X036730Y031690I000000J000005D01*
G01*
D02*
G03*
X036730Y031680I000000J-000005D01*
G01*
Y034070D02*
G03*
X036730Y034080I000000J000005D01*
G01*
D02*
G03*
X036730Y034070I000000J-000005D01*
G01*
Y034200D02*
G03*
X036730Y034210I000000J000005D01*
G01*
D02*
G03*
X036730Y034200I000000J-000005D01*
G01*
X036750Y031510D02*
G03*
X036750Y031520I000000J000005D01*
G01*
D02*
G03*
X036750Y031510I000000J-000005D01*
G01*
Y031720D02*
G03*
X036750Y031730I000000J000005D01*
G01*
D02*
G03*
X036750Y031720I000000J-000005D01*
G01*
Y034030D02*
G03*
X036750Y034040I000000J000005D01*
G01*
D02*
G03*
X036750Y034030I000000J-000005D01*
G01*
Y034240D02*
G03*
X036750Y034250I000000J000005D01*
G01*
D02*
G03*
X036750Y034240I000000J-000005D01*
G01*
X036770Y031490D02*
G03*
X036770Y031500I000000J000005D01*
G01*
D02*
G03*
X036770Y031490I000000J-000005D01*
G01*
Y031740D02*
G03*
X036770Y031750I000000J000005D01*
G01*
D02*
G03*
X036770Y031740I000000J-000005D01*
G01*
Y034010D02*
G03*
X036770Y034020I000000J000005D01*
G01*
D02*
G03*
X036770Y034010I000000J-000005D01*
G01*
Y034260D02*
G03*
X036770Y034270I000000J000005D01*
G01*
D02*
G03*
X036770Y034260I000000J-000005D01*
G01*
X036790Y031470D02*
G03*
X036790Y031480I000000J000005D01*
G01*
D02*
G03*
X036790Y031470I000000J-000005D01*
G01*
Y031760D02*
G03*
X036790Y031770I000000J000005D01*
G01*
D02*
G03*
X036790Y031760I000000J-000005D01*
G01*
Y033990D02*
G03*
X036790Y034000I000000J000005D01*
G01*
D02*
G03*
X036790Y033990I000000J-000005D01*
G01*
Y034280D02*
G03*
X036790Y034290I000000J000005D01*
G01*
D02*
G03*
X036790Y034280I000000J-000005D01*
G01*
X036810Y031470D02*
G03*
X036810Y031480I000000J000005D01*
G01*
D02*
G03*
X036810Y031470I000000J-000005D01*
G01*
Y031760D02*
G03*
X036810Y031770I000000J000005D01*
G01*
D02*
G03*
X036810Y031760I000000J-000005D01*
G01*
Y033990D02*
G03*
X036810Y034000I000000J000005D01*
G01*
D02*
G03*
X036810Y033990I000000J-000005D01*
G01*
Y034280D02*
G03*
X036810Y034290I000000J000005D01*
G01*
D02*
G03*
X036810Y034280I000000J-000005D01*
G01*
X036830Y031450D02*
G03*
X036830Y031460I000000J000005D01*
G01*
D02*
G03*
X036830Y031450I000000J-000005D01*
G01*
Y031780D02*
G03*
X036830Y031790I000000J000005D01*
G01*
D02*
G03*
X036830Y031780I000000J-000005D01*
G01*
Y033970D02*
G03*
X036830Y033980I000000J000005D01*
G01*
D02*
G03*
X036830Y033970I000000J-000005D01*
G01*
Y034300D02*
G03*
X036830Y034310I000000J000005D01*
G01*
D02*
G03*
X036830Y034300I000000J-000005D01*
G01*
X036850Y031450D02*
G03*
X036850Y031460I000000J000005D01*
G01*
D02*
G03*
X036850Y031450I000000J-000005D01*
G01*
Y031780D02*
G03*
X036850Y031790I000000J000005D01*
G01*
D02*
G03*
X036850Y031780I000000J-000005D01*
G01*
Y033970D02*
G03*
X036850Y033980I000000J000005D01*
G01*
D02*
G03*
X036850Y033970I000000J-000005D01*
G01*
Y034300D02*
G03*
X036850Y034310I000000J000005D01*
G01*
D02*
G03*
X036850Y034300I000000J-000005D01*
G01*
X036870Y030930D02*
G03*
X036870Y030940I000000J000005D01*
G01*
D02*
G03*
X036870Y030930I000000J-000005D01*
G01*
Y031240D02*
G03*
X036870Y031250I000000J000005D01*
G01*
D02*
G03*
X036870Y031240I000000J-000005D01*
G01*
Y031450D02*
G03*
X036870Y031460I000000J000005D01*
G01*
D02*
G03*
X036870Y031450I000000J-000005D01*
G01*
Y031780D02*
G03*
X036870Y031790I000000J000005D01*
G01*
D02*
G03*
X036870Y031780I000000J-000005D01*
G01*
Y033970D02*
G03*
X036870Y033980I000000J000005D01*
G01*
D02*
G03*
X036870Y033970I000000J-000005D01*
G01*
Y034300D02*
G03*
X036870Y034310I000000J000005D01*
G01*
D02*
G03*
X036870Y034300I000000J-000005D01*
G01*
X036890Y030930D02*
G03*
X036890Y030940I000000J000005D01*
G01*
D02*
G03*
X036890Y030930I000000J-000005D01*
G01*
Y031240D02*
G03*
X036890Y031250I000000J000005D01*
G01*
D02*
G03*
X036890Y031240I000000J-000005D01*
G01*
Y031450D02*
G03*
X036890Y031460I000000J000005D01*
G01*
D02*
G03*
X036890Y031450I000000J-000005D01*
G01*
Y031780D02*
G03*
X036890Y031790I000000J000005D01*
G01*
D02*
G03*
X036890Y031780I000000J-000005D01*
G01*
Y033970D02*
G03*
X036890Y033980I000000J000005D01*
G01*
D02*
G03*
X036890Y033970I000000J-000005D01*
G01*
Y034300D02*
G03*
X036890Y034310I000000J000005D01*
G01*
D02*
G03*
X036890Y034300I000000J-000005D01*
G01*
X036910Y030930D02*
G03*
X036910Y030940I000000J000005D01*
G01*
D02*
G03*
X036910Y030930I000000J-000005D01*
G01*
Y031240D02*
G03*
X036910Y031250I000000J000005D01*
G01*
D02*
G03*
X036910Y031240I000000J-000005D01*
G01*
Y031450D02*
G03*
X036910Y031460I000000J000005D01*
G01*
D02*
G03*
X036910Y031450I000000J-000005D01*
G01*
Y031780D02*
G03*
X036910Y031790I000000J000005D01*
G01*
D02*
G03*
X036910Y031780I000000J-000005D01*
G01*
Y033970D02*
G03*
X036910Y033980I000000J000005D01*
G01*
D02*
G03*
X036910Y033970I000000J-000005D01*
G01*
Y034300D02*
G03*
X036910Y034310I000000J000005D01*
G01*
D02*
G03*
X036910Y034300I000000J-000005D01*
G01*
X036930Y030930D02*
G03*
X036930Y030940I000000J000005D01*
G01*
D02*
G03*
X036930Y030930I000000J-000005D01*
G01*
Y031240D02*
G03*
X036930Y031250I000000J000005D01*
G01*
D02*
G03*
X036930Y031240I000000J-000005D01*
G01*
Y031470D02*
G03*
X036930Y031480I000000J000005D01*
G01*
D02*
G03*
X036930Y031470I000000J-000005D01*
G01*
Y031760D02*
G03*
X036930Y031770I000000J000005D01*
G01*
D02*
G03*
X036930Y031760I000000J-000005D01*
G01*
Y033990D02*
G03*
X036930Y034000I000000J000005D01*
G01*
D02*
G03*
X036930Y033990I000000J-000005D01*
G01*
Y034280D02*
G03*
X036930Y034290I000000J000005D01*
G01*
D02*
G03*
X036930Y034280I000000J-000005D01*
G01*
X036950Y030930D02*
G03*
X036950Y030940I000000J000005D01*
G01*
D02*
G03*
X036950Y030930I000000J-000005D01*
G01*
Y031240D02*
G03*
X036950Y031250I000000J000005D01*
G01*
D02*
G03*
X036950Y031240I000000J-000005D01*
G01*
Y031470D02*
G03*
X036950Y031480I000000J000005D01*
G01*
D02*
G03*
X036950Y031470I000000J-000005D01*
G01*
Y031760D02*
G03*
X036950Y031770I000000J000005D01*
G01*
D02*
G03*
X036950Y031760I000000J-000005D01*
G01*
Y033990D02*
G03*
X036950Y034000I000000J000005D01*
G01*
D02*
G03*
X036950Y033990I000000J-000005D01*
G01*
Y034280D02*
G03*
X036950Y034290I000000J000005D01*
G01*
D02*
G03*
X036950Y034280I000000J-000005D01*
G01*
X036970Y030930D02*
G03*
X036970Y030940I000000J000005D01*
G01*
D02*
G03*
X036970Y030930I000000J-000005D01*
G01*
Y031240D02*
G03*
X036970Y031250I000000J000005D01*
G01*
D02*
G03*
X036970Y031240I000000J-000005D01*
G01*
Y031490D02*
G03*
X036970Y031500I000000J000005D01*
G01*
D02*
G03*
X036970Y031490I000000J-000005D01*
G01*
Y031740D02*
G03*
X036970Y031750I000000J000005D01*
G01*
D02*
G03*
X036970Y031740I000000J-000005D01*
G01*
Y034010D02*
G03*
X036970Y034020I000000J000005D01*
G01*
D02*
G03*
X036970Y034010I000000J-000005D01*
G01*
Y034260D02*
G03*
X036970Y034270I000000J000005D01*
G01*
D02*
G03*
X036970Y034260I000000J-000005D01*
G01*
X036990Y030930D02*
G03*
X036990Y030940I000000J000005D01*
G01*
D02*
G03*
X036990Y030930I000000J-000005D01*
G01*
Y031240D02*
G03*
X036990Y031250I000000J000005D01*
G01*
D02*
G03*
X036990Y031240I000000J-000005D01*
G01*
Y031510D02*
G03*
X036990Y031520I000000J000005D01*
G01*
D02*
G03*
X036990Y031510I000000J-000005D01*
G01*
Y031720D02*
G03*
X036990Y031730I000000J000005D01*
G01*
D02*
G03*
X036990Y031720I000000J-000005D01*
G01*
Y034030D02*
G03*
X036990Y034040I000000J000005D01*
G01*
D02*
G03*
X036990Y034030I000000J-000005D01*
G01*
Y034240D02*
G03*
X036990Y034250I000000J000005D01*
G01*
D02*
G03*
X036990Y034240I000000J-000005D01*
G01*
X037010Y030930D02*
G03*
X037010Y030940I000000J000005D01*
G01*
D02*
G03*
X037010Y030930I000000J-000005D01*
G01*
Y031240D02*
G03*
X037010Y031250I000000J000005D01*
G01*
D02*
G03*
X037010Y031240I000000J-000005D01*
G01*
Y031570D02*
G03*
X037010Y031580I000000J000005D01*
G01*
D02*
G03*
X037010Y031570I000000J-000005D01*
G01*
Y031660D02*
G03*
X037010Y031670I000000J000005D01*
G01*
D02*
G03*
X037010Y031660I000000J-000005D01*
G01*
Y034090D02*
G03*
X037010Y034100I000000J000005D01*
G01*
D02*
G03*
X037010Y034090I000000J-000005D01*
G01*
Y034180D02*
G03*
X037010Y034190I000000J000005D01*
G01*
D02*
G03*
X037010Y034180I000000J-000005D01*
G01*
X037030Y030930D02*
G03*
X037030Y030940I000000J000005D01*
G01*
D02*
G03*
X037030Y030930I000000J-000005D01*
G01*
Y031240D02*
G03*
X037030Y031250I000000J000005D01*
G01*
D02*
G03*
X037030Y031240I000000J-000005D01*
G01*
X037050Y030930D02*
G03*
X037050Y030940I000000J000005D01*
G01*
D02*
G03*
X037050Y030930I000000J-000005D01*
G01*
Y031240D02*
G03*
X037050Y031250I000000J000005D01*
G01*
D02*
G03*
X037050Y031240I000000J-000005D01*
G01*
X037070Y029730D02*
G03*
X037070Y029740I000000J000005D01*
G01*
D02*
G03*
X037070Y029730I000000J-000005D01*
G01*
Y029880D02*
G03*
X037070Y029890I000000J000005D01*
G01*
D02*
G03*
X037070Y029880I000000J-000005D01*
G01*
Y030410D02*
G03*
X037070Y030420I000000J000005D01*
G01*
D02*
G03*
X037070Y030410I000000J-000005D01*
G01*
Y030480D02*
G03*
X037070Y030490I000000J000005D01*
G01*
D02*
G03*
X037070Y030480I000000J-000005D01*
G01*
Y030930D02*
G03*
X037070Y030940I000000J000005D01*
G01*
D02*
G03*
X037070Y030930I000000J-000005D01*
G01*
Y031240D02*
G03*
X037070Y031250I000000J000005D01*
G01*
D02*
G03*
X037070Y031240I000000J-000005D01*
G01*
Y032810D02*
G03*
X037070Y032820I000000J000005D01*
G01*
D02*
G03*
X037070Y032810I000000J-000005D01*
G01*
Y032960D02*
G03*
X037070Y032970I000000J000005D01*
G01*
D02*
G03*
X037070Y032960I000000J-000005D01*
G01*
Y033310D02*
G03*
X037070Y033320I000000J000005D01*
G01*
D02*
G03*
X037070Y033310I000000J-000005D01*
G01*
Y033380D02*
G03*
X037070Y033390I000000J000005D01*
G01*
D02*
G03*
X037070Y033380I000000J-000005D01*
G01*
Y034530D02*
G03*
X037070Y034540I000000J000005D01*
G01*
D02*
G03*
X037070Y034530I000000J-000005D01*
G01*
Y034600D02*
G03*
X037070Y034610I000000J000005D01*
G01*
D02*
G03*
X037070Y034600I000000J-000005D01*
G01*
X037090Y029650D02*
G03*
X037090Y029660I000000J000005D01*
G01*
D02*
G03*
X037090Y029650I000000J-000005D01*
G01*
Y029960D02*
G03*
X037090Y029970I000000J000005D01*
G01*
D02*
G03*
X037090Y029960I000000J-000005D01*
G01*
Y030330D02*
G03*
X037090Y030340I000000J000005D01*
G01*
D02*
G03*
X037090Y030330I000000J-000005D01*
G01*
Y030560D02*
G03*
X037090Y030570I000000J000005D01*
G01*
D02*
G03*
X037090Y030560I000000J-000005D01*
G01*
Y030850D02*
G03*
X037090Y030860I000000J000005D01*
G01*
D02*
G03*
X037090Y030850I000000J-000005D01*
G01*
Y031320D02*
G03*
X037090Y031330I000000J000005D01*
G01*
D02*
G03*
X037090Y031320I000000J-000005D01*
G01*
Y031450D02*
G03*
X037090Y031460I000000J000005D01*
G01*
D02*
G03*
X037090Y031450I000000J-000005D01*
G01*
Y031760D02*
G03*
X037090Y031770I000000J000005D01*
G01*
D02*
G03*
X037090Y031760I000000J-000005D01*
G01*
Y031890D02*
G03*
X037090Y031900I000000J000005D01*
G01*
D02*
G03*
X037090Y031890I000000J-000005D01*
G01*
Y032200D02*
G03*
X037090Y032210I000000J000005D01*
G01*
D02*
G03*
X037090Y032200I000000J-000005D01*
G01*
Y032290D02*
G03*
X037090Y032300I000000J000005D01*
G01*
D02*
G03*
X037090Y032290I000000J-000005D01*
G01*
Y032600D02*
G03*
X037090Y032610I000000J000005D01*
G01*
D02*
G03*
X037090Y032600I000000J-000005D01*
G01*
Y032730D02*
G03*
X037090Y032740I000000J000005D01*
G01*
D02*
G03*
X037090Y032730I000000J-000005D01*
G01*
Y033020D02*
G03*
X037090Y033030I000000J000005D01*
G01*
D02*
G03*
X037090Y033020I000000J-000005D01*
G01*
Y033310D02*
G03*
X037090Y033320I000000J000005D01*
G01*
D02*
G03*
X037090Y033310I000000J-000005D01*
G01*
Y033420D02*
G03*
X037090Y033430I000000J000005D01*
G01*
D02*
G03*
X037090Y033420I000000J-000005D01*
G01*
Y033530D02*
G03*
X037090Y033540I000000J000005D01*
G01*
D02*
G03*
X037090Y033530I000000J-000005D01*
G01*
Y033820D02*
G03*
X037090Y033830I000000J000005D01*
G01*
D02*
G03*
X037090Y033820I000000J-000005D01*
G01*
Y033970D02*
G03*
X037090Y033980I000000J000005D01*
G01*
D02*
G03*
X037090Y033970I000000J-000005D01*
G01*
Y034280D02*
G03*
X037090Y034290I000000J000005D01*
G01*
D02*
G03*
X037090Y034280I000000J-000005D01*
G01*
Y034430D02*
G03*
X037090Y034440I000000J000005D01*
G01*
D02*
G03*
X037090Y034430I000000J-000005D01*
G01*
Y034680D02*
G03*
X037090Y034690I000000J000005D01*
G01*
D02*
G03*
X037090Y034680I000000J-000005D01*
G01*
X037110Y029610D02*
G03*
X037110Y029620I000000J000005D01*
G01*
D02*
G03*
X037110Y029610I000000J-000005D01*
G01*
Y030000D02*
G03*
X037110Y030010I000000J000005D01*
G01*
D02*
G03*
X037110Y030000I000000J-000005D01*
G01*
Y030270D02*
G03*
X037110Y030280I000000J000005D01*
G01*
D02*
G03*
X037110Y030270I000000J-000005D01*
G01*
Y030600D02*
G03*
X037110Y030610I000000J000005D01*
G01*
D02*
G03*
X037110Y030600I000000J-000005D01*
G01*
Y030850D02*
G03*
X037110Y030860I000000J000005D01*
G01*
D02*
G03*
X037110Y030850I000000J-000005D01*
G01*
Y031320D02*
G03*
X037110Y031330I000000J000005D01*
G01*
D02*
G03*
X037110Y031320I000000J-000005D01*
G01*
Y031450D02*
G03*
X037110Y031460I000000J000005D01*
G01*
D02*
G03*
X037110Y031450I000000J-000005D01*
G01*
Y031760D02*
G03*
X037110Y031770I000000J000005D01*
G01*
D02*
G03*
X037110Y031760I000000J-000005D01*
G01*
Y031890D02*
G03*
X037110Y031900I000000J000005D01*
G01*
D02*
G03*
X037110Y031890I000000J-000005D01*
G01*
Y032200D02*
G03*
X037110Y032210I000000J000005D01*
G01*
D02*
G03*
X037110Y032200I000000J-000005D01*
G01*
Y032290D02*
G03*
X037110Y032300I000000J000005D01*
G01*
D02*
G03*
X037110Y032290I000000J-000005D01*
G01*
Y032600D02*
G03*
X037110Y032610I000000J000005D01*
G01*
D02*
G03*
X037110Y032600I000000J-000005D01*
G01*
Y032710D02*
G03*
X037110Y032720I000000J000005D01*
G01*
D02*
G03*
X037110Y032710I000000J-000005D01*
G01*
Y033060D02*
G03*
X037110Y033070I000000J000005D01*
G01*
D02*
G03*
X037110Y033060I000000J-000005D01*
G01*
Y033310D02*
G03*
X037110Y033320I000000J000005D01*
G01*
D02*
G03*
X037110Y033310I000000J-000005D01*
G01*
Y033460D02*
G03*
X037110Y033470I000000J000005D01*
G01*
D02*
G03*
X037110Y033460I000000J-000005D01*
G01*
Y033530D02*
G03*
X037110Y033540I000000J000005D01*
G01*
D02*
G03*
X037110Y033530I000000J-000005D01*
G01*
Y033820D02*
G03*
X037110Y033830I000000J000005D01*
G01*
D02*
G03*
X037110Y033820I000000J-000005D01*
G01*
Y033970D02*
G03*
X037110Y033980I000000J000005D01*
G01*
D02*
G03*
X037110Y033970I000000J-000005D01*
G01*
Y034280D02*
G03*
X037110Y034290I000000J000005D01*
G01*
D02*
G03*
X037110Y034280I000000J-000005D01*
G01*
Y034390D02*
G03*
X037110Y034400I000000J000005D01*
G01*
D02*
G03*
X037110Y034390I000000J-000005D01*
G01*
Y034720D02*
G03*
X037110Y034730I000000J000005D01*
G01*
D02*
G03*
X037110Y034720I000000J-000005D01*
G01*
X037130Y029570D02*
G03*
X037130Y029580I000000J000005D01*
G01*
D02*
G03*
X037130Y029570I000000J-000005D01*
G01*
Y030040D02*
G03*
X037130Y030050I000000J000005D01*
G01*
D02*
G03*
X037130Y030040I000000J-000005D01*
G01*
Y030270D02*
G03*
X037130Y030280I000000J000005D01*
G01*
D02*
G03*
X037130Y030270I000000J-000005D01*
G01*
Y030640D02*
G03*
X037130Y030650I000000J000005D01*
G01*
D02*
G03*
X037130Y030640I000000J-000005D01*
G01*
Y030850D02*
G03*
X037130Y030860I000000J000005D01*
G01*
D02*
G03*
X037130Y030850I000000J-000005D01*
G01*
Y031320D02*
G03*
X037130Y031330I000000J000005D01*
G01*
D02*
G03*
X037130Y031320I000000J-000005D01*
G01*
Y031450D02*
G03*
X037130Y031460I000000J000005D01*
G01*
D02*
G03*
X037130Y031450I000000J-000005D01*
G01*
Y031760D02*
G03*
X037130Y031770I000000J000005D01*
G01*
D02*
G03*
X037130Y031760I000000J-000005D01*
G01*
Y031890D02*
G03*
X037130Y031900I000000J000005D01*
G01*
D02*
G03*
X037130Y031890I000000J-000005D01*
G01*
Y032200D02*
G03*
X037130Y032210I000000J000005D01*
G01*
D02*
G03*
X037130Y032200I000000J-000005D01*
G01*
Y032290D02*
G03*
X037130Y032300I000000J000005D01*
G01*
D02*
G03*
X037130Y032290I000000J-000005D01*
G01*
Y032600D02*
G03*
X037130Y032610I000000J000005D01*
G01*
D02*
G03*
X037130Y032600I000000J-000005D01*
G01*
Y032710D02*
G03*
X037130Y032720I000000J000005D01*
G01*
D02*
G03*
X037130Y032710I000000J-000005D01*
G01*
Y033080D02*
G03*
X037130Y033090I000000J000005D01*
G01*
D02*
G03*
X037130Y033080I000000J-000005D01*
G01*
Y033310D02*
G03*
X037130Y033320I000000J000005D01*
G01*
D02*
G03*
X037130Y033310I000000J-000005D01*
G01*
Y033480D02*
G03*
X037130Y033490I000000J000005D01*
G01*
D02*
G03*
X037130Y033480I000000J-000005D01*
G01*
Y033530D02*
G03*
X037130Y033540I000000J000005D01*
G01*
D02*
G03*
X037130Y033530I000000J-000005D01*
G01*
Y033820D02*
G03*
X037130Y033830I000000J000005D01*
G01*
D02*
G03*
X037130Y033820I000000J-000005D01*
G01*
Y033970D02*
G03*
X037130Y033980I000000J000005D01*
G01*
D02*
G03*
X037130Y033970I000000J-000005D01*
G01*
Y034280D02*
G03*
X037130Y034290I000000J000005D01*
G01*
D02*
G03*
X037130Y034280I000000J-000005D01*
G01*
Y034390D02*
G03*
X037130Y034400I000000J000005D01*
G01*
D02*
G03*
X037130Y034390I000000J-000005D01*
G01*
Y034760D02*
G03*
X037130Y034770I000000J000005D01*
G01*
D02*
G03*
X037130Y034760I000000J-000005D01*
G01*
X037150Y029550D02*
G03*
X037150Y029560I000000J000005D01*
G01*
D02*
G03*
X037150Y029550I000000J-000005D01*
G01*
Y030060D02*
G03*
X037150Y030070I000000J000005D01*
G01*
D02*
G03*
X037150Y030060I000000J-000005D01*
G01*
Y030270D02*
G03*
X037150Y030280I000000J000005D01*
G01*
D02*
G03*
X037150Y030270I000000J-000005D01*
G01*
Y030660D02*
G03*
X037150Y030670I000000J000005D01*
G01*
D02*
G03*
X037150Y030660I000000J-000005D01*
G01*
Y030850D02*
G03*
X037150Y030860I000000J000005D01*
G01*
D02*
G03*
X037150Y030850I000000J-000005D01*
G01*
Y031320D02*
G03*
X037150Y031330I000000J000005D01*
G01*
D02*
G03*
X037150Y031320I000000J-000005D01*
G01*
Y031450D02*
G03*
X037150Y031460I000000J000005D01*
G01*
D02*
G03*
X037150Y031450I000000J-000005D01*
G01*
Y031760D02*
G03*
X037150Y031770I000000J000005D01*
G01*
D02*
G03*
X037150Y031760I000000J-000005D01*
G01*
Y031890D02*
G03*
X037150Y031900I000000J000005D01*
G01*
D02*
G03*
X037150Y031890I000000J-000005D01*
G01*
Y032200D02*
G03*
X037150Y032210I000000J000005D01*
G01*
D02*
G03*
X037150Y032200I000000J-000005D01*
G01*
Y032290D02*
G03*
X037150Y032300I000000J000005D01*
G01*
D02*
G03*
X037150Y032290I000000J-000005D01*
G01*
Y032600D02*
G03*
X037150Y032610I000000J000005D01*
G01*
D02*
G03*
X037150Y032600I000000J-000005D01*
G01*
Y032710D02*
G03*
X037150Y032720I000000J000005D01*
G01*
D02*
G03*
X037150Y032710I000000J-000005D01*
G01*
Y033120D02*
G03*
X037150Y033130I000000J000005D01*
G01*
D02*
G03*
X037150Y033120I000000J-000005D01*
G01*
Y033310D02*
G03*
X037150Y033320I000000J000005D01*
G01*
D02*
G03*
X037150Y033310I000000J-000005D01*
G01*
Y033500D02*
G03*
X037150Y033510I000000J000005D01*
G01*
D02*
G03*
X037150Y033500I000000J-000005D01*
G01*
Y033530D02*
G03*
X037150Y033540I000000J000005D01*
G01*
D02*
G03*
X037150Y033530I000000J-000005D01*
G01*
Y033820D02*
G03*
X037150Y033830I000000J000005D01*
G01*
D02*
G03*
X037150Y033820I000000J-000005D01*
G01*
Y033970D02*
G03*
X037150Y033980I000000J000005D01*
G01*
D02*
G03*
X037150Y033970I000000J-000005D01*
G01*
Y034280D02*
G03*
X037150Y034290I000000J000005D01*
G01*
D02*
G03*
X037150Y034280I000000J-000005D01*
G01*
Y034390D02*
G03*
X037150Y034400I000000J000005D01*
G01*
D02*
G03*
X037150Y034390I000000J-000005D01*
G01*
Y034780D02*
G03*
X037150Y034790I000000J000005D01*
G01*
D02*
G03*
X037150Y034780I000000J-000005D01*
G01*
X037170Y029530D02*
G03*
X037170Y029540I000000J000005D01*
G01*
D02*
G03*
X037170Y029530I000000J-000005D01*
G01*
Y030080D02*
G03*
X037170Y030090I000000J000005D01*
G01*
D02*
G03*
X037170Y030080I000000J-000005D01*
G01*
Y030270D02*
G03*
X037170Y030280I000000J000005D01*
G01*
D02*
G03*
X037170Y030270I000000J-000005D01*
G01*
Y030680D02*
G03*
X037170Y030690I000000J000005D01*
G01*
D02*
G03*
X037170Y030680I000000J-000005D01*
G01*
Y030850D02*
G03*
X037170Y030860I000000J000005D01*
G01*
D02*
G03*
X037170Y030850I000000J-000005D01*
G01*
Y031320D02*
G03*
X037170Y031330I000000J000005D01*
G01*
D02*
G03*
X037170Y031320I000000J-000005D01*
G01*
Y031450D02*
G03*
X037170Y031460I000000J000005D01*
G01*
D02*
G03*
X037170Y031450I000000J-000005D01*
G01*
Y031760D02*
G03*
X037170Y031770I000000J000005D01*
G01*
D02*
G03*
X037170Y031760I000000J-000005D01*
G01*
Y031890D02*
G03*
X037170Y031900I000000J000005D01*
G01*
D02*
G03*
X037170Y031890I000000J-000005D01*
G01*
Y032200D02*
G03*
X037170Y032210I000000J000005D01*
G01*
D02*
G03*
X037170Y032200I000000J-000005D01*
G01*
Y032290D02*
G03*
X037170Y032300I000000J000005D01*
G01*
D02*
G03*
X037170Y032290I000000J-000005D01*
G01*
Y032600D02*
G03*
X037170Y032610I000000J000005D01*
G01*
D02*
G03*
X037170Y032600I000000J-000005D01*
G01*
Y032710D02*
G03*
X037170Y032720I000000J000005D01*
G01*
D02*
G03*
X037170Y032710I000000J-000005D01*
G01*
Y033140D02*
G03*
X037170Y033150I000000J000005D01*
G01*
D02*
G03*
X037170Y033140I000000J-000005D01*
G01*
Y033310D02*
G03*
X037170Y033320I000000J000005D01*
G01*
D02*
G03*
X037170Y033310I000000J-000005D01*
G01*
Y033820D02*
G03*
X037170Y033830I000000J000005D01*
G01*
D02*
G03*
X037170Y033820I000000J-000005D01*
G01*
Y033970D02*
G03*
X037170Y033980I000000J000005D01*
G01*
D02*
G03*
X037170Y033970I000000J-000005D01*
G01*
Y034280D02*
G03*
X037170Y034290I000000J000005D01*
G01*
D02*
G03*
X037170Y034280I000000J-000005D01*
G01*
Y034390D02*
G03*
X037170Y034400I000000J000005D01*
G01*
D02*
G03*
X037170Y034390I000000J-000005D01*
G01*
Y034800D02*
G03*
X037170Y034810I000000J000005D01*
G01*
D02*
G03*
X037170Y034800I000000J-000005D01*
G01*
X037190Y029510D02*
G03*
X037190Y029520I000000J000005D01*
G01*
D02*
G03*
X037190Y029510I000000J-000005D01*
G01*
Y030100D02*
G03*
X037190Y030110I000000J000005D01*
G01*
D02*
G03*
X037190Y030100I000000J-000005D01*
G01*
Y030270D02*
G03*
X037190Y030280I000000J000005D01*
G01*
D02*
G03*
X037190Y030270I000000J-000005D01*
G01*
Y030700D02*
G03*
X037190Y030710I000000J000005D01*
G01*
D02*
G03*
X037190Y030700I000000J-000005D01*
G01*
Y030850D02*
G03*
X037190Y030860I000000J000005D01*
G01*
D02*
G03*
X037190Y030850I000000J-000005D01*
G01*
Y031320D02*
G03*
X037190Y031330I000000J000005D01*
G01*
D02*
G03*
X037190Y031320I000000J-000005D01*
G01*
Y031450D02*
G03*
X037190Y031460I000000J000005D01*
G01*
D02*
G03*
X037190Y031450I000000J-000005D01*
G01*
Y031760D02*
G03*
X037190Y031770I000000J000005D01*
G01*
D02*
G03*
X037190Y031760I000000J-000005D01*
G01*
Y031890D02*
G03*
X037190Y031900I000000J000005D01*
G01*
D02*
G03*
X037190Y031890I000000J-000005D01*
G01*
Y032200D02*
G03*
X037190Y032210I000000J000005D01*
G01*
D02*
G03*
X037190Y032200I000000J-000005D01*
G01*
Y032290D02*
G03*
X037190Y032300I000000J000005D01*
G01*
D02*
G03*
X037190Y032290I000000J-000005D01*
G01*
Y032600D02*
G03*
X037190Y032610I000000J000005D01*
G01*
D02*
G03*
X037190Y032600I000000J-000005D01*
G01*
Y032710D02*
G03*
X037190Y032720I000000J000005D01*
G01*
D02*
G03*
X037190Y032710I000000J-000005D01*
G01*
Y033140D02*
G03*
X037190Y033150I000000J000005D01*
G01*
D02*
G03*
X037190Y033140I000000J-000005D01*
G01*
Y033310D02*
G03*
X037190Y033320I000000J000005D01*
G01*
D02*
G03*
X037190Y033310I000000J-000005D01*
G01*
Y033820D02*
G03*
X037190Y033830I000000J000005D01*
G01*
D02*
G03*
X037190Y033820I000000J-000005D01*
G01*
Y033970D02*
G03*
X037190Y033980I000000J000005D01*
G01*
D02*
G03*
X037190Y033970I000000J-000005D01*
G01*
Y034280D02*
G03*
X037190Y034290I000000J000005D01*
G01*
D02*
G03*
X037190Y034280I000000J-000005D01*
G01*
Y034390D02*
G03*
X037190Y034400I000000J000005D01*
G01*
D02*
G03*
X037190Y034390I000000J-000005D01*
G01*
Y034820D02*
G03*
X037190Y034830I000000J000005D01*
G01*
D02*
G03*
X037190Y034820I000000J-000005D01*
G01*
X037210Y029490D02*
G03*
X037210Y029500I000000J000005D01*
G01*
D02*
G03*
X037210Y029490I000000J-000005D01*
G01*
Y030120D02*
G03*
X037210Y030130I000000J000005D01*
G01*
D02*
G03*
X037210Y030120I000000J-000005D01*
G01*
Y030270D02*
G03*
X037210Y030280I000000J000005D01*
G01*
D02*
G03*
X037210Y030270I000000J-000005D01*
G01*
Y030720D02*
G03*
X037210Y030730I000000J000005D01*
G01*
D02*
G03*
X037210Y030720I000000J-000005D01*
G01*
Y030850D02*
G03*
X037210Y030860I000000J000005D01*
G01*
D02*
G03*
X037210Y030850I000000J-000005D01*
G01*
Y031320D02*
G03*
X037210Y031330I000000J000005D01*
G01*
D02*
G03*
X037210Y031320I000000J-000005D01*
G01*
Y031450D02*
G03*
X037210Y031460I000000J000005D01*
G01*
D02*
G03*
X037210Y031450I000000J-000005D01*
G01*
Y031760D02*
G03*
X037210Y031770I000000J000005D01*
G01*
D02*
G03*
X037210Y031760I000000J-000005D01*
G01*
Y031890D02*
G03*
X037210Y031900I000000J000005D01*
G01*
D02*
G03*
X037210Y031890I000000J-000005D01*
G01*
Y032200D02*
G03*
X037210Y032210I000000J000005D01*
G01*
D02*
G03*
X037210Y032200I000000J-000005D01*
G01*
Y032290D02*
G03*
X037210Y032300I000000J000005D01*
G01*
D02*
G03*
X037210Y032290I000000J-000005D01*
G01*
Y032600D02*
G03*
X037210Y032610I000000J000005D01*
G01*
D02*
G03*
X037210Y032600I000000J-000005D01*
G01*
Y032710D02*
G03*
X037210Y032720I000000J000005D01*
G01*
D02*
G03*
X037210Y032710I000000J-000005D01*
G01*
Y033160D02*
G03*
X037210Y033170I000000J000005D01*
G01*
D02*
G03*
X037210Y033160I000000J-000005D01*
G01*
Y033310D02*
G03*
X037210Y033320I000000J000005D01*
G01*
D02*
G03*
X037210Y033310I000000J-000005D01*
G01*
Y033820D02*
G03*
X037210Y033830I000000J000005D01*
G01*
D02*
G03*
X037210Y033820I000000J-000005D01*
G01*
Y033970D02*
G03*
X037210Y033980I000000J000005D01*
G01*
D02*
G03*
X037210Y033970I000000J-000005D01*
G01*
Y034280D02*
G03*
X037210Y034290I000000J000005D01*
G01*
D02*
G03*
X037210Y034280I000000J-000005D01*
G01*
Y034390D02*
G03*
X037210Y034400I000000J000005D01*
G01*
D02*
G03*
X037210Y034390I000000J-000005D01*
G01*
Y034840D02*
G03*
X037210Y034850I000000J000005D01*
G01*
D02*
G03*
X037210Y034840I000000J-000005D01*
G01*
X037230Y029470D02*
G03*
X037230Y029480I000000J000005D01*
G01*
D02*
G03*
X037230Y029470I000000J-000005D01*
G01*
Y030140D02*
G03*
X037230Y030150I000000J000005D01*
G01*
D02*
G03*
X037230Y030140I000000J-000005D01*
G01*
Y030270D02*
G03*
X037230Y030280I000000J000005D01*
G01*
D02*
G03*
X037230Y030270I000000J-000005D01*
G01*
Y030740D02*
G03*
X037230Y030750I000000J000005D01*
G01*
D02*
G03*
X037230Y030740I000000J-000005D01*
G01*
Y030850D02*
G03*
X037230Y030860I000000J000005D01*
G01*
D02*
G03*
X037230Y030850I000000J-000005D01*
G01*
Y031320D02*
G03*
X037230Y031330I000000J000005D01*
G01*
D02*
G03*
X037230Y031320I000000J-000005D01*
G01*
Y031450D02*
G03*
X037230Y031460I000000J000005D01*
G01*
D02*
G03*
X037230Y031450I000000J-000005D01*
G01*
Y031760D02*
G03*
X037230Y031770I000000J000005D01*
G01*
D02*
G03*
X037230Y031760I000000J-000005D01*
G01*
Y031890D02*
G03*
X037230Y031900I000000J000005D01*
G01*
D02*
G03*
X037230Y031890I000000J-000005D01*
G01*
Y032200D02*
G03*
X037230Y032210I000000J000005D01*
G01*
D02*
G03*
X037230Y032200I000000J-000005D01*
G01*
Y032290D02*
G03*
X037230Y032300I000000J000005D01*
G01*
D02*
G03*
X037230Y032290I000000J-000005D01*
G01*
Y032600D02*
G03*
X037230Y032610I000000J000005D01*
G01*
D02*
G03*
X037230Y032600I000000J-000005D01*
G01*
Y032710D02*
G03*
X037230Y032720I000000J000005D01*
G01*
D02*
G03*
X037230Y032710I000000J-000005D01*
G01*
Y033180D02*
G03*
X037230Y033190I000000J000005D01*
G01*
D02*
G03*
X037230Y033180I000000J-000005D01*
G01*
Y033310D02*
G03*
X037230Y033320I000000J000005D01*
G01*
D02*
G03*
X037230Y033310I000000J-000005D01*
G01*
Y033820D02*
G03*
X037230Y033830I000000J000005D01*
G01*
D02*
G03*
X037230Y033820I000000J-000005D01*
G01*
Y033970D02*
G03*
X037230Y033980I000000J000005D01*
G01*
D02*
G03*
X037230Y033970I000000J-000005D01*
G01*
Y034280D02*
G03*
X037230Y034290I000000J000005D01*
G01*
D02*
G03*
X037230Y034280I000000J-000005D01*
G01*
Y034390D02*
G03*
X037230Y034400I000000J000005D01*
G01*
D02*
G03*
X037230Y034390I000000J-000005D01*
G01*
Y034860D02*
G03*
X037230Y034870I000000J000005D01*
G01*
D02*
G03*
X037230Y034860I000000J-000005D01*
G01*
X037250Y029470D02*
G03*
X037250Y029480I000000J000005D01*
G01*
D02*
G03*
X037250Y029470I000000J-000005D01*
G01*
Y030140D02*
G03*
X037250Y030150I000000J000005D01*
G01*
D02*
G03*
X037250Y030140I000000J-000005D01*
G01*
Y030270D02*
G03*
X037250Y030280I000000J000005D01*
G01*
D02*
G03*
X037250Y030270I000000J-000005D01*
G01*
Y030740D02*
G03*
X037250Y030750I000000J000005D01*
G01*
D02*
G03*
X037250Y030740I000000J-000005D01*
G01*
Y030850D02*
G03*
X037250Y030860I000000J000005D01*
G01*
D02*
G03*
X037250Y030850I000000J-000005D01*
G01*
Y031320D02*
G03*
X037250Y031330I000000J000005D01*
G01*
D02*
G03*
X037250Y031320I000000J-000005D01*
G01*
Y031450D02*
G03*
X037250Y031460I000000J000005D01*
G01*
D02*
G03*
X037250Y031450I000000J-000005D01*
G01*
Y031760D02*
G03*
X037250Y031770I000000J000005D01*
G01*
D02*
G03*
X037250Y031760I000000J-000005D01*
G01*
Y031890D02*
G03*
X037250Y031900I000000J000005D01*
G01*
D02*
G03*
X037250Y031890I000000J-000005D01*
G01*
Y032200D02*
G03*
X037250Y032210I000000J000005D01*
G01*
D02*
G03*
X037250Y032200I000000J-000005D01*
G01*
Y032290D02*
G03*
X037250Y032300I000000J000005D01*
G01*
D02*
G03*
X037250Y032290I000000J-000005D01*
G01*
Y032600D02*
G03*
X037250Y032610I000000J000005D01*
G01*
D02*
G03*
X037250Y032600I000000J-000005D01*
G01*
Y032710D02*
G03*
X037250Y032720I000000J000005D01*
G01*
D02*
G03*
X037250Y032710I000000J-000005D01*
G01*
Y033180D02*
G03*
X037250Y033190I000000J000005D01*
G01*
D02*
G03*
X037250Y033180I000000J-000005D01*
G01*
Y033310D02*
G03*
X037250Y033320I000000J000005D01*
G01*
D02*
G03*
X037250Y033310I000000J-000005D01*
G01*
Y033820D02*
G03*
X037250Y033830I000000J000005D01*
G01*
D02*
G03*
X037250Y033820I000000J-000005D01*
G01*
Y033970D02*
G03*
X037250Y033980I000000J000005D01*
G01*
D02*
G03*
X037250Y033970I000000J-000005D01*
G01*
Y034280D02*
G03*
X037250Y034290I000000J000005D01*
G01*
D02*
G03*
X037250Y034280I000000J-000005D01*
G01*
Y034390D02*
G03*
X037250Y034400I000000J000005D01*
G01*
D02*
G03*
X037250Y034390I000000J-000005D01*
G01*
Y034860D02*
G03*
X037250Y034870I000000J000005D01*
G01*
D02*
G03*
X037250Y034860I000000J-000005D01*
G01*
X037270Y029450D02*
G03*
X037270Y029460I000000J000005D01*
G01*
D02*
G03*
X037270Y029450I000000J-000005D01*
G01*
Y030160D02*
G03*
X037270Y030170I000000J000005D01*
G01*
D02*
G03*
X037270Y030160I000000J-000005D01*
G01*
Y030270D02*
G03*
X037270Y030280I000000J000005D01*
G01*
D02*
G03*
X037270Y030270I000000J-000005D01*
G01*
Y030740D02*
G03*
X037270Y030750I000000J000005D01*
G01*
D02*
G03*
X037270Y030740I000000J-000005D01*
G01*
Y030850D02*
G03*
X037270Y030860I000000J000005D01*
G01*
D02*
G03*
X037270Y030850I000000J-000005D01*
G01*
Y031320D02*
G03*
X037270Y031330I000000J000005D01*
G01*
D02*
G03*
X037270Y031320I000000J-000005D01*
G01*
Y031450D02*
G03*
X037270Y031460I000000J000005D01*
G01*
D02*
G03*
X037270Y031450I000000J-000005D01*
G01*
Y031760D02*
G03*
X037270Y031770I000000J000005D01*
G01*
D02*
G03*
X037270Y031760I000000J-000005D01*
G01*
Y031890D02*
G03*
X037270Y031900I000000J000005D01*
G01*
D02*
G03*
X037270Y031890I000000J-000005D01*
G01*
Y032200D02*
G03*
X037270Y032210I000000J000005D01*
G01*
D02*
G03*
X037270Y032200I000000J-000005D01*
G01*
Y032290D02*
G03*
X037270Y032300I000000J000005D01*
G01*
D02*
G03*
X037270Y032290I000000J-000005D01*
G01*
Y032600D02*
G03*
X037270Y032610I000000J000005D01*
G01*
D02*
G03*
X037270Y032600I000000J-000005D01*
G01*
Y032710D02*
G03*
X037270Y032720I000000J000005D01*
G01*
D02*
G03*
X037270Y032710I000000J-000005D01*
G01*
Y033200D02*
G03*
X037270Y033210I000000J000005D01*
G01*
D02*
G03*
X037270Y033200I000000J-000005D01*
G01*
Y033310D02*
G03*
X037270Y033320I000000J000005D01*
G01*
D02*
G03*
X037270Y033310I000000J-000005D01*
G01*
Y033820D02*
G03*
X037270Y033830I000000J000005D01*
G01*
D02*
G03*
X037270Y033820I000000J-000005D01*
G01*
Y033970D02*
G03*
X037270Y033980I000000J000005D01*
G01*
D02*
G03*
X037270Y033970I000000J-000005D01*
G01*
Y034280D02*
G03*
X037270Y034290I000000J000005D01*
G01*
D02*
G03*
X037270Y034280I000000J-000005D01*
G01*
Y034390D02*
G03*
X037270Y034400I000000J000005D01*
G01*
D02*
G03*
X037270Y034390I000000J-000005D01*
G01*
Y034880D02*
G03*
X037270Y034890I000000J000005D01*
G01*
D02*
G03*
X037270Y034880I000000J-000005D01*
G01*
X037290Y029450D02*
G03*
X037290Y029460I000000J000005D01*
G01*
D02*
G03*
X037290Y029450I000000J-000005D01*
G01*
Y030160D02*
G03*
X037290Y030170I000000J000005D01*
G01*
D02*
G03*
X037290Y030160I000000J-000005D01*
G01*
Y030270D02*
G03*
X037290Y030280I000000J000005D01*
G01*
D02*
G03*
X037290Y030270I000000J-000005D01*
G01*
Y030760D02*
G03*
X037290Y030770I000000J000005D01*
G01*
D02*
G03*
X037290Y030760I000000J-000005D01*
G01*
Y030850D02*
G03*
X037290Y030860I000000J000005D01*
G01*
D02*
G03*
X037290Y030850I000000J-000005D01*
G01*
Y031320D02*
G03*
X037290Y031330I000000J000005D01*
G01*
D02*
G03*
X037290Y031320I000000J-000005D01*
G01*
Y031450D02*
G03*
X037290Y031460I000000J000005D01*
G01*
D02*
G03*
X037290Y031450I000000J-000005D01*
G01*
Y031760D02*
G03*
X037290Y031770I000000J000005D01*
G01*
D02*
G03*
X037290Y031760I000000J-000005D01*
G01*
Y031890D02*
G03*
X037290Y031900I000000J000005D01*
G01*
D02*
G03*
X037290Y031890I000000J-000005D01*
G01*
Y032200D02*
G03*
X037290Y032210I000000J000005D01*
G01*
D02*
G03*
X037290Y032200I000000J-000005D01*
G01*
Y032290D02*
G03*
X037290Y032300I000000J000005D01*
G01*
D02*
G03*
X037290Y032290I000000J-000005D01*
G01*
Y032600D02*
G03*
X037290Y032610I000000J000005D01*
G01*
D02*
G03*
X037290Y032600I000000J-000005D01*
G01*
Y032710D02*
G03*
X037290Y032720I000000J000005D01*
G01*
D02*
G03*
X037290Y032710I000000J-000005D01*
G01*
Y033200D02*
G03*
X037290Y033210I000000J000005D01*
G01*
D02*
G03*
X037290Y033200I000000J-000005D01*
G01*
Y033310D02*
G03*
X037290Y033320I000000J000005D01*
G01*
D02*
G03*
X037290Y033310I000000J-000005D01*
G01*
Y033820D02*
G03*
X037290Y033830I000000J000005D01*
G01*
D02*
G03*
X037290Y033820I000000J-000005D01*
G01*
Y033970D02*
G03*
X037290Y033980I000000J000005D01*
G01*
D02*
G03*
X037290Y033970I000000J-000005D01*
G01*
Y034280D02*
G03*
X037290Y034290I000000J000005D01*
G01*
D02*
G03*
X037290Y034280I000000J-000005D01*
G01*
Y034390D02*
G03*
X037290Y034400I000000J000005D01*
G01*
D02*
G03*
X037290Y034390I000000J-000005D01*
G01*
Y034880D02*
G03*
X037290Y034890I000000J000005D01*
G01*
D02*
G03*
X037290Y034880I000000J-000005D01*
G01*
X037310Y029450D02*
G03*
X037310Y029460I000000J000005D01*
G01*
D02*
G03*
X037310Y029450I000000J-000005D01*
G01*
Y030160D02*
G03*
X037310Y030170I000000J000005D01*
G01*
D02*
G03*
X037310Y030160I000000J-000005D01*
G01*
Y030270D02*
G03*
X037310Y030280I000000J000005D01*
G01*
D02*
G03*
X037310Y030270I000000J-000005D01*
G01*
Y030760D02*
G03*
X037310Y030770I000000J000005D01*
G01*
D02*
G03*
X037310Y030760I000000J-000005D01*
G01*
Y030850D02*
G03*
X037310Y030860I000000J000005D01*
G01*
D02*
G03*
X037310Y030850I000000J-000005D01*
G01*
Y031320D02*
G03*
X037310Y031330I000000J000005D01*
G01*
D02*
G03*
X037310Y031320I000000J-000005D01*
G01*
Y031450D02*
G03*
X037310Y031460I000000J000005D01*
G01*
D02*
G03*
X037310Y031450I000000J-000005D01*
G01*
Y031760D02*
G03*
X037310Y031770I000000J000005D01*
G01*
D02*
G03*
X037310Y031760I000000J-000005D01*
G01*
Y031890D02*
G03*
X037310Y031900I000000J000005D01*
G01*
D02*
G03*
X037310Y031890I000000J-000005D01*
G01*
Y032200D02*
G03*
X037310Y032210I000000J000005D01*
G01*
D02*
G03*
X037310Y032200I000000J-000005D01*
G01*
Y032290D02*
G03*
X037310Y032300I000000J000005D01*
G01*
D02*
G03*
X037310Y032290I000000J-000005D01*
G01*
Y032600D02*
G03*
X037310Y032610I000000J000005D01*
G01*
D02*
G03*
X037310Y032600I000000J-000005D01*
G01*
Y032710D02*
G03*
X037310Y032720I000000J000005D01*
G01*
D02*
G03*
X037310Y032710I000000J-000005D01*
G01*
Y033200D02*
G03*
X037310Y033210I000000J000005D01*
G01*
D02*
G03*
X037310Y033200I000000J-000005D01*
G01*
Y033310D02*
G03*
X037310Y033320I000000J000005D01*
G01*
D02*
G03*
X037310Y033310I000000J-000005D01*
G01*
Y033820D02*
G03*
X037310Y033830I000000J000005D01*
G01*
D02*
G03*
X037310Y033820I000000J-000005D01*
G01*
Y033970D02*
G03*
X037310Y033980I000000J000005D01*
G01*
D02*
G03*
X037310Y033970I000000J-000005D01*
G01*
Y034280D02*
G03*
X037310Y034290I000000J000005D01*
G01*
D02*
G03*
X037310Y034280I000000J-000005D01*
G01*
Y034390D02*
G03*
X037310Y034400I000000J000005D01*
G01*
D02*
G03*
X037310Y034390I000000J-000005D01*
G01*
Y034880D02*
G03*
X037310Y034890I000000J000005D01*
G01*
D02*
G03*
X037310Y034880I000000J-000005D01*
G01*
X037330Y029430D02*
G03*
X037330Y029440I000000J000005D01*
G01*
D02*
G03*
X037330Y029430I000000J-000005D01*
G01*
Y029760D02*
G03*
X037330Y029770I000000J000005D01*
G01*
D02*
G03*
X037330Y029760I000000J-000005D01*
G01*
Y029850D02*
G03*
X037330Y029860I000000J000005D01*
G01*
D02*
G03*
X037330Y029850I000000J-000005D01*
G01*
Y030160D02*
G03*
X037330Y030170I000000J000005D01*
G01*
D02*
G03*
X037330Y030160I000000J-000005D01*
G01*
Y030470D02*
G03*
X037330Y030480I000000J000005D01*
G01*
D02*
G03*
X037330Y030470I000000J-000005D01*
G01*
Y030760D02*
G03*
X037330Y030770I000000J000005D01*
G01*
D02*
G03*
X037330Y030760I000000J-000005D01*
G01*
Y030930D02*
G03*
X037330Y030940I000000J000005D01*
G01*
D02*
G03*
X037330Y030930I000000J-000005D01*
G01*
Y031240D02*
G03*
X037330Y031250I000000J000005D01*
G01*
D02*
G03*
X037330Y031240I000000J-000005D01*
G01*
Y031450D02*
G03*
X037330Y031460I000000J000005D01*
G01*
D02*
G03*
X037330Y031450I000000J-000005D01*
G01*
Y031760D02*
G03*
X037330Y031770I000000J000005D01*
G01*
D02*
G03*
X037330Y031760I000000J-000005D01*
G01*
Y031890D02*
G03*
X037330Y031900I000000J000005D01*
G01*
D02*
G03*
X037330Y031890I000000J-000005D01*
G01*
Y032200D02*
G03*
X037330Y032210I000000J000005D01*
G01*
D02*
G03*
X037330Y032200I000000J-000005D01*
G01*
Y032290D02*
G03*
X037330Y032300I000000J000005D01*
G01*
D02*
G03*
X037330Y032290I000000J-000005D01*
G01*
Y032600D02*
G03*
X037330Y032610I000000J000005D01*
G01*
D02*
G03*
X037330Y032600I000000J-000005D01*
G01*
Y032890D02*
G03*
X037330Y032900I000000J000005D01*
G01*
D02*
G03*
X037330Y032890I000000J-000005D01*
G01*
Y033220D02*
G03*
X037330Y033230I000000J000005D01*
G01*
D02*
G03*
X037330Y033220I000000J-000005D01*
G01*
Y033310D02*
G03*
X037330Y033320I000000J000005D01*
G01*
D02*
G03*
X037330Y033310I000000J-000005D01*
G01*
Y033820D02*
G03*
X037330Y033830I000000J000005D01*
G01*
D02*
G03*
X037330Y033820I000000J-000005D01*
G01*
Y033970D02*
G03*
X037330Y033980I000000J000005D01*
G01*
D02*
G03*
X037330Y033970I000000J-000005D01*
G01*
Y034280D02*
G03*
X037330Y034290I000000J000005D01*
G01*
D02*
G03*
X037330Y034280I000000J-000005D01*
G01*
Y034590D02*
G03*
X037330Y034600I000000J000005D01*
G01*
D02*
G03*
X037330Y034590I000000J-000005D01*
G01*
Y034880D02*
G03*
X037330Y034890I000000J000005D01*
G01*
D02*
G03*
X037330Y034880I000000J-000005D01*
G01*
X037350Y029430D02*
G03*
X037350Y029440I000000J000005D01*
G01*
D02*
G03*
X037350Y029430I000000J-000005D01*
G01*
Y029740D02*
G03*
X037350Y029750I000000J000005D01*
G01*
D02*
G03*
X037350Y029740I000000J-000005D01*
G01*
Y029890D02*
G03*
X037350Y029900I000000J000005D01*
G01*
D02*
G03*
X037350Y029890I000000J-000005D01*
G01*
Y030180D02*
G03*
X037350Y030190I000000J000005D01*
G01*
D02*
G03*
X037350Y030180I000000J-000005D01*
G01*
Y030490D02*
G03*
X037350Y030500I000000J000005D01*
G01*
D02*
G03*
X037350Y030490I000000J-000005D01*
G01*
Y030760D02*
G03*
X037350Y030770I000000J000005D01*
G01*
D02*
G03*
X037350Y030760I000000J-000005D01*
G01*
Y030930D02*
G03*
X037350Y030940I000000J000005D01*
G01*
D02*
G03*
X037350Y030930I000000J-000005D01*
G01*
Y031240D02*
G03*
X037350Y031250I000000J000005D01*
G01*
D02*
G03*
X037350Y031240I000000J-000005D01*
G01*
Y031450D02*
G03*
X037350Y031460I000000J000005D01*
G01*
D02*
G03*
X037350Y031450I000000J-000005D01*
G01*
Y031760D02*
G03*
X037350Y031770I000000J000005D01*
G01*
D02*
G03*
X037350Y031760I000000J-000005D01*
G01*
Y031890D02*
G03*
X037350Y031900I000000J000005D01*
G01*
D02*
G03*
X037350Y031890I000000J-000005D01*
G01*
Y032200D02*
G03*
X037350Y032210I000000J000005D01*
G01*
D02*
G03*
X037350Y032200I000000J-000005D01*
G01*
Y032290D02*
G03*
X037350Y032300I000000J000005D01*
G01*
D02*
G03*
X037350Y032290I000000J-000005D01*
G01*
Y032600D02*
G03*
X037350Y032610I000000J000005D01*
G01*
D02*
G03*
X037350Y032600I000000J-000005D01*
G01*
Y032910D02*
G03*
X037350Y032920I000000J000005D01*
G01*
D02*
G03*
X037350Y032910I000000J-000005D01*
G01*
Y033220D02*
G03*
X037350Y033230I000000J000005D01*
G01*
D02*
G03*
X037350Y033220I000000J-000005D01*
G01*
Y033310D02*
G03*
X037350Y033320I000000J000005D01*
G01*
D02*
G03*
X037350Y033310I000000J-000005D01*
G01*
Y033340D02*
G03*
X037350Y033350I000000J000005D01*
G01*
D02*
G03*
X037350Y033340I000000J-000005D01*
G01*
Y033450D02*
G03*
X037350Y033460I000000J000005D01*
G01*
D02*
G03*
X037350Y033450I000000J-000005D01*
G01*
Y033820D02*
G03*
X037350Y033830I000000J000005D01*
G01*
D02*
G03*
X037350Y033820I000000J-000005D01*
G01*
Y033970D02*
G03*
X037350Y033980I000000J000005D01*
G01*
D02*
G03*
X037350Y033970I000000J-000005D01*
G01*
Y034280D02*
G03*
X037350Y034290I000000J000005D01*
G01*
D02*
G03*
X037350Y034280I000000J-000005D01*
G01*
Y034610D02*
G03*
X037350Y034620I000000J000005D01*
G01*
D02*
G03*
X037350Y034610I000000J-000005D01*
G01*
Y034880D02*
G03*
X037350Y034890I000000J000005D01*
G01*
D02*
G03*
X037350Y034880I000000J-000005D01*
G01*
X037370Y029430D02*
G03*
X037370Y029440I000000J000005D01*
G01*
D02*
G03*
X037370Y029430I000000J-000005D01*
G01*
Y029720D02*
G03*
X037370Y029730I000000J000005D01*
G01*
D02*
G03*
X037370Y029720I000000J-000005D01*
G01*
Y029890D02*
G03*
X037370Y029900I000000J000005D01*
G01*
D02*
G03*
X037370Y029890I000000J-000005D01*
G01*
Y030180D02*
G03*
X037370Y030190I000000J000005D01*
G01*
D02*
G03*
X037370Y030180I000000J-000005D01*
G01*
Y030490D02*
G03*
X037370Y030500I000000J000005D01*
G01*
D02*
G03*
X037370Y030490I000000J-000005D01*
G01*
Y030780D02*
G03*
X037370Y030790I000000J000005D01*
G01*
D02*
G03*
X037370Y030780I000000J-000005D01*
G01*
Y030930D02*
G03*
X037370Y030940I000000J000005D01*
G01*
D02*
G03*
X037370Y030930I000000J-000005D01*
G01*
Y031240D02*
G03*
X037370Y031250I000000J000005D01*
G01*
D02*
G03*
X037370Y031240I000000J-000005D01*
G01*
Y031450D02*
G03*
X037370Y031460I000000J000005D01*
G01*
D02*
G03*
X037370Y031450I000000J-000005D01*
G01*
Y031760D02*
G03*
X037370Y031770I000000J000005D01*
G01*
D02*
G03*
X037370Y031760I000000J-000005D01*
G01*
Y031890D02*
G03*
X037370Y031900I000000J000005D01*
G01*
D02*
G03*
X037370Y031890I000000J-000005D01*
G01*
Y032200D02*
G03*
X037370Y032210I000000J000005D01*
G01*
D02*
G03*
X037370Y032200I000000J-000005D01*
G01*
Y032290D02*
G03*
X037370Y032300I000000J000005D01*
G01*
D02*
G03*
X037370Y032290I000000J-000005D01*
G01*
Y032600D02*
G03*
X037370Y032610I000000J000005D01*
G01*
D02*
G03*
X037370Y032600I000000J-000005D01*
G01*
Y032930D02*
G03*
X037370Y032940I000000J000005D01*
G01*
D02*
G03*
X037370Y032930I000000J-000005D01*
G01*
Y033220D02*
G03*
X037370Y033230I000000J000005D01*
G01*
D02*
G03*
X037370Y033220I000000J-000005D01*
G01*
Y033470D02*
G03*
X037370Y033480I000000J000005D01*
G01*
D02*
G03*
X037370Y033470I000000J-000005D01*
G01*
Y033820D02*
G03*
X037370Y033830I000000J000005D01*
G01*
D02*
G03*
X037370Y033820I000000J-000005D01*
G01*
Y033970D02*
G03*
X037370Y033980I000000J000005D01*
G01*
D02*
G03*
X037370Y033970I000000J-000005D01*
G01*
Y034280D02*
G03*
X037370Y034290I000000J000005D01*
G01*
D02*
G03*
X037370Y034280I000000J-000005D01*
G01*
Y034610D02*
G03*
X037370Y034620I000000J000005D01*
G01*
D02*
G03*
X037370Y034610I000000J-000005D01*
G01*
Y034900D02*
G03*
X037370Y034910I000000J000005D01*
G01*
D02*
G03*
X037370Y034900I000000J-000005D01*
G01*
X037390Y029430D02*
G03*
X037390Y029440I000000J000005D01*
G01*
D02*
G03*
X037390Y029430I000000J-000005D01*
G01*
Y029720D02*
G03*
X037390Y029730I000000J000005D01*
G01*
D02*
G03*
X037390Y029720I000000J-000005D01*
G01*
Y029890D02*
G03*
X037390Y029900I000000J000005D01*
G01*
D02*
G03*
X037390Y029890I000000J-000005D01*
G01*
Y030180D02*
G03*
X037390Y030190I000000J000005D01*
G01*
D02*
G03*
X037390Y030180I000000J-000005D01*
G01*
Y030490D02*
G03*
X037390Y030500I000000J000005D01*
G01*
D02*
G03*
X037390Y030490I000000J-000005D01*
G01*
Y030780D02*
G03*
X037390Y030790I000000J000005D01*
G01*
D02*
G03*
X037390Y030780I000000J-000005D01*
G01*
Y030930D02*
G03*
X037390Y030940I000000J000005D01*
G01*
D02*
G03*
X037390Y030930I000000J-000005D01*
G01*
Y031240D02*
G03*
X037390Y031250I000000J000005D01*
G01*
D02*
G03*
X037390Y031240I000000J-000005D01*
G01*
Y031450D02*
G03*
X037390Y031460I000000J000005D01*
G01*
D02*
G03*
X037390Y031450I000000J-000005D01*
G01*
Y031760D02*
G03*
X037390Y031770I000000J000005D01*
G01*
D02*
G03*
X037390Y031760I000000J-000005D01*
G01*
Y031890D02*
G03*
X037390Y031900I000000J000005D01*
G01*
D02*
G03*
X037390Y031890I000000J-000005D01*
G01*
Y032200D02*
G03*
X037390Y032210I000000J000005D01*
G01*
D02*
G03*
X037390Y032200I000000J-000005D01*
G01*
Y032290D02*
G03*
X037390Y032300I000000J000005D01*
G01*
D02*
G03*
X037390Y032290I000000J-000005D01*
G01*
Y032600D02*
G03*
X037390Y032610I000000J000005D01*
G01*
D02*
G03*
X037390Y032600I000000J-000005D01*
G01*
Y032930D02*
G03*
X037390Y032940I000000J000005D01*
G01*
D02*
G03*
X037390Y032930I000000J-000005D01*
G01*
Y033220D02*
G03*
X037390Y033230I000000J000005D01*
G01*
D02*
G03*
X037390Y033220I000000J-000005D01*
G01*
Y033490D02*
G03*
X037390Y033500I000000J000005D01*
G01*
D02*
G03*
X037390Y033490I000000J-000005D01*
G01*
Y033820D02*
G03*
X037390Y033830I000000J000005D01*
G01*
D02*
G03*
X037390Y033820I000000J-000005D01*
G01*
Y033970D02*
G03*
X037390Y033980I000000J000005D01*
G01*
D02*
G03*
X037390Y033970I000000J-000005D01*
G01*
Y034280D02*
G03*
X037390Y034290I000000J000005D01*
G01*
D02*
G03*
X037390Y034280I000000J-000005D01*
G01*
Y034610D02*
G03*
X037390Y034620I000000J000005D01*
G01*
D02*
G03*
X037390Y034610I000000J-000005D01*
G01*
Y034900D02*
G03*
X037390Y034910I000000J000005D01*
G01*
D02*
G03*
X037390Y034900I000000J-000005D01*
G01*
X037410Y029430D02*
G03*
X037410Y029440I000000J000005D01*
G01*
D02*
G03*
X037410Y029430I000000J-000005D01*
G01*
Y029720D02*
G03*
X037410Y029730I000000J000005D01*
G01*
D02*
G03*
X037410Y029720I000000J-000005D01*
G01*
Y029890D02*
G03*
X037410Y029900I000000J000005D01*
G01*
D02*
G03*
X037410Y029890I000000J-000005D01*
G01*
Y030180D02*
G03*
X037410Y030190I000000J000005D01*
G01*
D02*
G03*
X037410Y030180I000000J-000005D01*
G01*
Y030490D02*
G03*
X037410Y030500I000000J000005D01*
G01*
D02*
G03*
X037410Y030490I000000J-000005D01*
G01*
Y030780D02*
G03*
X037410Y030790I000000J000005D01*
G01*
D02*
G03*
X037410Y030780I000000J-000005D01*
G01*
Y030930D02*
G03*
X037410Y030940I000000J000005D01*
G01*
D02*
G03*
X037410Y030930I000000J-000005D01*
G01*
Y031240D02*
G03*
X037410Y031250I000000J000005D01*
G01*
D02*
G03*
X037410Y031240I000000J-000005D01*
G01*
Y031450D02*
G03*
X037410Y031460I000000J000005D01*
G01*
D02*
G03*
X037410Y031450I000000J-000005D01*
G01*
Y031760D02*
G03*
X037410Y031770I000000J000005D01*
G01*
D02*
G03*
X037410Y031760I000000J-000005D01*
G01*
Y031890D02*
G03*
X037410Y031900I000000J000005D01*
G01*
D02*
G03*
X037410Y031890I000000J-000005D01*
G01*
Y032200D02*
G03*
X037410Y032210I000000J000005D01*
G01*
D02*
G03*
X037410Y032200I000000J-000005D01*
G01*
Y032290D02*
G03*
X037410Y032300I000000J000005D01*
G01*
D02*
G03*
X037410Y032290I000000J-000005D01*
G01*
Y032600D02*
G03*
X037410Y032610I000000J000005D01*
G01*
D02*
G03*
X037410Y032600I000000J-000005D01*
G01*
Y032930D02*
G03*
X037410Y032940I000000J000005D01*
G01*
D02*
G03*
X037410Y032930I000000J-000005D01*
G01*
Y033220D02*
G03*
X037410Y033230I000000J000005D01*
G01*
D02*
G03*
X037410Y033220I000000J-000005D01*
G01*
Y033510D02*
G03*
X037410Y033520I000000J000005D01*
G01*
D02*
G03*
X037410Y033510I000000J-000005D01*
G01*
Y033820D02*
G03*
X037410Y033830I000000J000005D01*
G01*
D02*
G03*
X037410Y033820I000000J-000005D01*
G01*
Y033970D02*
G03*
X037410Y033980I000000J000005D01*
G01*
D02*
G03*
X037410Y033970I000000J-000005D01*
G01*
Y034280D02*
G03*
X037410Y034290I000000J000005D01*
G01*
D02*
G03*
X037410Y034280I000000J-000005D01*
G01*
Y034610D02*
G03*
X037410Y034620I000000J000005D01*
G01*
D02*
G03*
X037410Y034610I000000J-000005D01*
G01*
Y034900D02*
G03*
X037410Y034910I000000J000005D01*
G01*
D02*
G03*
X037410Y034900I000000J-000005D01*
G01*
X037430Y029430D02*
G03*
X037430Y029440I000000J000005D01*
G01*
D02*
G03*
X037430Y029430I000000J-000005D01*
G01*
Y029740D02*
G03*
X037430Y029750I000000J000005D01*
G01*
D02*
G03*
X037430Y029740I000000J-000005D01*
G01*
Y029870D02*
G03*
X037430Y029880I000000J000005D01*
G01*
D02*
G03*
X037430Y029870I000000J-000005D01*
G01*
Y030180D02*
G03*
X037430Y030190I000000J000005D01*
G01*
D02*
G03*
X037430Y030180I000000J-000005D01*
G01*
Y030490D02*
G03*
X037430Y030500I000000J000005D01*
G01*
D02*
G03*
X037430Y030490I000000J-000005D01*
G01*
Y030780D02*
G03*
X037430Y030790I000000J000005D01*
G01*
D02*
G03*
X037430Y030780I000000J-000005D01*
G01*
Y030930D02*
G03*
X037430Y030940I000000J000005D01*
G01*
D02*
G03*
X037430Y030930I000000J-000005D01*
G01*
Y031240D02*
G03*
X037430Y031250I000000J000005D01*
G01*
D02*
G03*
X037430Y031240I000000J-000005D01*
G01*
Y031450D02*
G03*
X037430Y031460I000000J000005D01*
G01*
D02*
G03*
X037430Y031450I000000J-000005D01*
G01*
Y031760D02*
G03*
X037430Y031770I000000J000005D01*
G01*
D02*
G03*
X037430Y031760I000000J-000005D01*
G01*
Y031890D02*
G03*
X037430Y031900I000000J000005D01*
G01*
D02*
G03*
X037430Y031890I000000J-000005D01*
G01*
Y032200D02*
G03*
X037430Y032210I000000J000005D01*
G01*
D02*
G03*
X037430Y032200I000000J-000005D01*
G01*
Y032290D02*
G03*
X037430Y032300I000000J000005D01*
G01*
D02*
G03*
X037430Y032290I000000J-000005D01*
G01*
Y032600D02*
G03*
X037430Y032610I000000J000005D01*
G01*
D02*
G03*
X037430Y032600I000000J-000005D01*
G01*
Y032710D02*
G03*
X037430Y032720I000000J000005D01*
G01*
D02*
G03*
X037430Y032710I000000J-000005D01*
G01*
Y032720D02*
G03*
X037430Y032730I000000J000005D01*
G01*
D02*
G03*
X037430Y032720I000000J-000005D01*
G01*
Y032910D02*
G03*
X037430Y032920I000000J000005D01*
G01*
D02*
G03*
X037430Y032910I000000J-000005D01*
G01*
Y033220D02*
G03*
X037430Y033230I000000J000005D01*
G01*
D02*
G03*
X037430Y033220I000000J-000005D01*
G01*
Y033510D02*
G03*
X037430Y033520I000000J000005D01*
G01*
D02*
G03*
X037430Y033510I000000J-000005D01*
G01*
Y033820D02*
G03*
X037430Y033830I000000J000005D01*
G01*
D02*
G03*
X037430Y033820I000000J-000005D01*
G01*
Y033970D02*
G03*
X037430Y033980I000000J000005D01*
G01*
D02*
G03*
X037430Y033970I000000J-000005D01*
G01*
Y034280D02*
G03*
X037430Y034290I000000J000005D01*
G01*
D02*
G03*
X037430Y034280I000000J-000005D01*
G01*
Y034610D02*
G03*
X037430Y034620I000000J000005D01*
G01*
D02*
G03*
X037430Y034610I000000J-000005D01*
G01*
Y034900D02*
G03*
X037430Y034910I000000J000005D01*
G01*
D02*
G03*
X037430Y034900I000000J-000005D01*
G01*
X037450Y029430D02*
G03*
X037450Y029440I000000J000005D01*
G01*
D02*
G03*
X037450Y029430I000000J-000005D01*
G01*
Y029760D02*
G03*
X037450Y029770I000000J000005D01*
G01*
D02*
G03*
X037450Y029760I000000J-000005D01*
G01*
Y029850D02*
G03*
X037450Y029860I000000J000005D01*
G01*
D02*
G03*
X037450Y029850I000000J-000005D01*
G01*
Y030180D02*
G03*
X037450Y030190I000000J000005D01*
G01*
D02*
G03*
X037450Y030180I000000J-000005D01*
G01*
Y030270D02*
G03*
X037450Y030280I000000J000005D01*
G01*
D02*
G03*
X037450Y030270I000000J-000005D01*
G01*
Y030300D02*
G03*
X037450Y030310I000000J000005D01*
G01*
D02*
G03*
X037450Y030300I000000J-000005D01*
G01*
Y030470D02*
G03*
X037450Y030480I000000J000005D01*
G01*
D02*
G03*
X037450Y030470I000000J-000005D01*
G01*
Y030760D02*
G03*
X037450Y030770I000000J000005D01*
G01*
D02*
G03*
X037450Y030760I000000J-000005D01*
G01*
Y030930D02*
G03*
X037450Y030940I000000J000005D01*
G01*
D02*
G03*
X037450Y030930I000000J-000005D01*
G01*
Y031240D02*
G03*
X037450Y031250I000000J000005D01*
G01*
D02*
G03*
X037450Y031240I000000J-000005D01*
G01*
Y031450D02*
G03*
X037450Y031460I000000J000005D01*
G01*
D02*
G03*
X037450Y031450I000000J-000005D01*
G01*
Y031760D02*
G03*
X037450Y031770I000000J000005D01*
G01*
D02*
G03*
X037450Y031760I000000J-000005D01*
G01*
Y031890D02*
G03*
X037450Y031900I000000J000005D01*
G01*
D02*
G03*
X037450Y031890I000000J-000005D01*
G01*
Y032200D02*
G03*
X037450Y032210I000000J000005D01*
G01*
D02*
G03*
X037450Y032200I000000J-000005D01*
G01*
Y032290D02*
G03*
X037450Y032300I000000J000005D01*
G01*
D02*
G03*
X037450Y032290I000000J-000005D01*
G01*
Y032600D02*
G03*
X037450Y032610I000000J000005D01*
G01*
D02*
G03*
X037450Y032600I000000J-000005D01*
G01*
Y032710D02*
G03*
X037450Y032720I000000J000005D01*
G01*
D02*
G03*
X037450Y032710I000000J-000005D01*
G01*
Y032760D02*
G03*
X037450Y032770I000000J000005D01*
G01*
D02*
G03*
X037450Y032760I000000J-000005D01*
G01*
Y032890D02*
G03*
X037450Y032900I000000J000005D01*
G01*
D02*
G03*
X037450Y032890I000000J-000005D01*
G01*
Y033220D02*
G03*
X037450Y033230I000000J000005D01*
G01*
D02*
G03*
X037450Y033220I000000J-000005D01*
G01*
Y033510D02*
G03*
X037450Y033520I000000J000005D01*
G01*
D02*
G03*
X037450Y033510I000000J-000005D01*
G01*
Y033820D02*
G03*
X037450Y033830I000000J000005D01*
G01*
D02*
G03*
X037450Y033820I000000J-000005D01*
G01*
Y033970D02*
G03*
X037450Y033980I000000J000005D01*
G01*
D02*
G03*
X037450Y033970I000000J-000005D01*
G01*
Y034280D02*
G03*
X037450Y034290I000000J000005D01*
G01*
D02*
G03*
X037450Y034280I000000J-000005D01*
G01*
Y034390D02*
G03*
X037450Y034400I000000J000005D01*
G01*
D02*
G03*
X037450Y034390I000000J-000005D01*
G01*
Y034420D02*
G03*
X037450Y034430I000000J000005D01*
G01*
D02*
G03*
X037450Y034420I000000J-000005D01*
G01*
Y034570D02*
G03*
X037450Y034580I000000J000005D01*
G01*
D02*
G03*
X037450Y034570I000000J-000005D01*
G01*
Y034880D02*
G03*
X037450Y034890I000000J000005D01*
G01*
D02*
G03*
X037450Y034880I000000J-000005D01*
G01*
X037470Y029450D02*
G03*
X037470Y029460I000000J000005D01*
G01*
D02*
G03*
X037470Y029450I000000J-000005D01*
G01*
Y030160D02*
G03*
X037470Y030170I000000J000005D01*
G01*
D02*
G03*
X037470Y030160I000000J-000005D01*
G01*
Y030270D02*
G03*
X037470Y030280I000000J000005D01*
G01*
D02*
G03*
X037470Y030270I000000J-000005D01*
G01*
Y030760D02*
G03*
X037470Y030770I000000J000005D01*
G01*
D02*
G03*
X037470Y030760I000000J-000005D01*
G01*
Y030930D02*
G03*
X037470Y030940I000000J000005D01*
G01*
D02*
G03*
X037470Y030930I000000J-000005D01*
G01*
Y031240D02*
G03*
X037470Y031250I000000J000005D01*
G01*
D02*
G03*
X037470Y031240I000000J-000005D01*
G01*
Y031450D02*
G03*
X037470Y031460I000000J000005D01*
G01*
D02*
G03*
X037470Y031450I000000J-000005D01*
G01*
Y031760D02*
G03*
X037470Y031770I000000J000005D01*
G01*
D02*
G03*
X037470Y031760I000000J-000005D01*
G01*
Y031890D02*
G03*
X037470Y031900I000000J000005D01*
G01*
D02*
G03*
X037470Y031890I000000J-000005D01*
G01*
Y032220D02*
G03*
X037470Y032230I000000J000005D01*
G01*
D02*
G03*
X037470Y032220I000000J-000005D01*
G01*
Y032270D02*
G03*
X037470Y032280I000000J000005D01*
G01*
D02*
G03*
X037470Y032270I000000J-000005D01*
G01*
Y032600D02*
G03*
X037470Y032610I000000J000005D01*
G01*
D02*
G03*
X037470Y032600I000000J-000005D01*
G01*
Y032710D02*
G03*
X037470Y032720I000000J000005D01*
G01*
D02*
G03*
X037470Y032710I000000J-000005D01*
G01*
Y033200D02*
G03*
X037470Y033210I000000J000005D01*
G01*
D02*
G03*
X037470Y033200I000000J-000005D01*
G01*
Y033510D02*
G03*
X037470Y033520I000000J000005D01*
G01*
D02*
G03*
X037470Y033510I000000J-000005D01*
G01*
Y033820D02*
G03*
X037470Y033830I000000J000005D01*
G01*
D02*
G03*
X037470Y033820I000000J-000005D01*
G01*
Y033970D02*
G03*
X037470Y033980I000000J000005D01*
G01*
D02*
G03*
X037470Y033970I000000J-000005D01*
G01*
Y034280D02*
G03*
X037470Y034290I000000J000005D01*
G01*
D02*
G03*
X037470Y034280I000000J-000005D01*
G01*
Y034390D02*
G03*
X037470Y034400I000000J000005D01*
G01*
D02*
G03*
X037470Y034390I000000J-000005D01*
G01*
Y034880D02*
G03*
X037470Y034890I000000J000005D01*
G01*
D02*
G03*
X037470Y034880I000000J-000005D01*
G01*
X037490Y029450D02*
G03*
X037490Y029460I000000J000005D01*
G01*
D02*
G03*
X037490Y029450I000000J-000005D01*
G01*
Y030160D02*
G03*
X037490Y030170I000000J000005D01*
G01*
D02*
G03*
X037490Y030160I000000J-000005D01*
G01*
Y030270D02*
G03*
X037490Y030280I000000J000005D01*
G01*
D02*
G03*
X037490Y030270I000000J-000005D01*
G01*
Y030760D02*
G03*
X037490Y030770I000000J000005D01*
G01*
D02*
G03*
X037490Y030760I000000J-000005D01*
G01*
Y030930D02*
G03*
X037490Y030940I000000J000005D01*
G01*
D02*
G03*
X037490Y030930I000000J-000005D01*
G01*
Y031240D02*
G03*
X037490Y031250I000000J000005D01*
G01*
D02*
G03*
X037490Y031240I000000J-000005D01*
G01*
Y031450D02*
G03*
X037490Y031460I000000J000005D01*
G01*
D02*
G03*
X037490Y031450I000000J-000005D01*
G01*
Y031760D02*
G03*
X037490Y031770I000000J000005D01*
G01*
D02*
G03*
X037490Y031760I000000J-000005D01*
G01*
Y031890D02*
G03*
X037490Y031900I000000J000005D01*
G01*
D02*
G03*
X037490Y031890I000000J-000005D01*
G01*
Y032600D02*
G03*
X037490Y032610I000000J000005D01*
G01*
D02*
G03*
X037490Y032600I000000J-000005D01*
G01*
Y032710D02*
G03*
X037490Y032720I000000J000005D01*
G01*
D02*
G03*
X037490Y032710I000000J-000005D01*
G01*
Y033200D02*
G03*
X037490Y033210I000000J000005D01*
G01*
D02*
G03*
X037490Y033200I000000J-000005D01*
G01*
Y033510D02*
G03*
X037490Y033520I000000J000005D01*
G01*
D02*
G03*
X037490Y033510I000000J-000005D01*
G01*
Y033820D02*
G03*
X037490Y033830I000000J000005D01*
G01*
D02*
G03*
X037490Y033820I000000J-000005D01*
G01*
Y033970D02*
G03*
X037490Y033980I000000J000005D01*
G01*
D02*
G03*
X037490Y033970I000000J-000005D01*
G01*
Y034280D02*
G03*
X037490Y034290I000000J000005D01*
G01*
D02*
G03*
X037490Y034280I000000J-000005D01*
G01*
Y034390D02*
G03*
X037490Y034400I000000J000005D01*
G01*
D02*
G03*
X037490Y034390I000000J-000005D01*
G01*
Y034880D02*
G03*
X037490Y034890I000000J000005D01*
G01*
D02*
G03*
X037490Y034880I000000J-000005D01*
G01*
X037510Y029450D02*
G03*
X037510Y029460I000000J000005D01*
G01*
D02*
G03*
X037510Y029450I000000J-000005D01*
G01*
Y030160D02*
G03*
X037510Y030170I000000J000005D01*
G01*
D02*
G03*
X037510Y030160I000000J-000005D01*
G01*
Y030270D02*
G03*
X037510Y030280I000000J000005D01*
G01*
D02*
G03*
X037510Y030270I000000J-000005D01*
G01*
Y030740D02*
G03*
X037510Y030750I000000J000005D01*
G01*
D02*
G03*
X037510Y030740I000000J-000005D01*
G01*
Y030930D02*
G03*
X037510Y030940I000000J000005D01*
G01*
D02*
G03*
X037510Y030930I000000J-000005D01*
G01*
Y031240D02*
G03*
X037510Y031250I000000J000005D01*
G01*
D02*
G03*
X037510Y031240I000000J-000005D01*
G01*
Y031450D02*
G03*
X037510Y031460I000000J000005D01*
G01*
D02*
G03*
X037510Y031450I000000J-000005D01*
G01*
Y031760D02*
G03*
X037510Y031770I000000J000005D01*
G01*
D02*
G03*
X037510Y031760I000000J-000005D01*
G01*
Y031910D02*
G03*
X037510Y031920I000000J000005D01*
G01*
D02*
G03*
X037510Y031910I000000J-000005D01*
G01*
Y032580D02*
G03*
X037510Y032590I000000J000005D01*
G01*
D02*
G03*
X037510Y032580I000000J-000005D01*
G01*
Y032710D02*
G03*
X037510Y032720I000000J000005D01*
G01*
D02*
G03*
X037510Y032710I000000J-000005D01*
G01*
Y033200D02*
G03*
X037510Y033210I000000J000005D01*
G01*
D02*
G03*
X037510Y033200I000000J-000005D01*
G01*
Y033510D02*
G03*
X037510Y033520I000000J000005D01*
G01*
D02*
G03*
X037510Y033510I000000J-000005D01*
G01*
Y033820D02*
G03*
X037510Y033830I000000J000005D01*
G01*
D02*
G03*
X037510Y033820I000000J-000005D01*
G01*
Y033970D02*
G03*
X037510Y033980I000000J000005D01*
G01*
D02*
G03*
X037510Y033970I000000J-000005D01*
G01*
Y034280D02*
G03*
X037510Y034290I000000J000005D01*
G01*
D02*
G03*
X037510Y034280I000000J-000005D01*
G01*
Y034390D02*
G03*
X037510Y034400I000000J000005D01*
G01*
D02*
G03*
X037510Y034390I000000J-000005D01*
G01*
Y034860D02*
G03*
X037510Y034870I000000J000005D01*
G01*
D02*
G03*
X037510Y034860I000000J-000005D01*
G01*
X037530Y029470D02*
G03*
X037530Y029480I000000J000005D01*
G01*
D02*
G03*
X037530Y029470I000000J-000005D01*
G01*
Y030140D02*
G03*
X037530Y030150I000000J000005D01*
G01*
D02*
G03*
X037530Y030140I000000J-000005D01*
G01*
Y030270D02*
G03*
X037530Y030280I000000J000005D01*
G01*
D02*
G03*
X037530Y030270I000000J-000005D01*
G01*
Y030740D02*
G03*
X037530Y030750I000000J000005D01*
G01*
D02*
G03*
X037530Y030740I000000J-000005D01*
G01*
Y030930D02*
G03*
X037530Y030940I000000J000005D01*
G01*
D02*
G03*
X037530Y030930I000000J-000005D01*
G01*
Y031240D02*
G03*
X037530Y031250I000000J000005D01*
G01*
D02*
G03*
X037530Y031240I000000J-000005D01*
G01*
Y031450D02*
G03*
X037530Y031460I000000J000005D01*
G01*
D02*
G03*
X037530Y031450I000000J-000005D01*
G01*
Y031760D02*
G03*
X037530Y031770I000000J000005D01*
G01*
D02*
G03*
X037530Y031760I000000J-000005D01*
G01*
Y031910D02*
G03*
X037530Y031920I000000J000005D01*
G01*
D02*
G03*
X037530Y031910I000000J-000005D01*
G01*
Y032580D02*
G03*
X037530Y032590I000000J000005D01*
G01*
D02*
G03*
X037530Y032580I000000J-000005D01*
G01*
Y032710D02*
G03*
X037530Y032720I000000J000005D01*
G01*
D02*
G03*
X037530Y032710I000000J-000005D01*
G01*
Y033180D02*
G03*
X037530Y033190I000000J000005D01*
G01*
D02*
G03*
X037530Y033180I000000J-000005D01*
G01*
Y033510D02*
G03*
X037530Y033520I000000J000005D01*
G01*
D02*
G03*
X037530Y033510I000000J-000005D01*
G01*
Y033820D02*
G03*
X037530Y033830I000000J000005D01*
G01*
D02*
G03*
X037530Y033820I000000J-000005D01*
G01*
Y033970D02*
G03*
X037530Y033980I000000J000005D01*
G01*
D02*
G03*
X037530Y033970I000000J-000005D01*
G01*
Y034280D02*
G03*
X037530Y034290I000000J000005D01*
G01*
D02*
G03*
X037530Y034280I000000J-000005D01*
G01*
Y034390D02*
G03*
X037530Y034400I000000J000005D01*
G01*
D02*
G03*
X037530Y034390I000000J-000005D01*
G01*
Y034860D02*
G03*
X037530Y034870I000000J000005D01*
G01*
D02*
G03*
X037530Y034860I000000J-000005D01*
G01*
X037550Y029470D02*
G03*
X037550Y029480I000000J000005D01*
G01*
D02*
G03*
X037550Y029470I000000J-000005D01*
G01*
Y030140D02*
G03*
X037550Y030150I000000J000005D01*
G01*
D02*
G03*
X037550Y030140I000000J-000005D01*
G01*
Y030270D02*
G03*
X037550Y030280I000000J000005D01*
G01*
D02*
G03*
X037550Y030270I000000J-000005D01*
G01*
Y030720D02*
G03*
X037550Y030730I000000J000005D01*
G01*
D02*
G03*
X037550Y030720I000000J-000005D01*
G01*
Y030930D02*
G03*
X037550Y030940I000000J000005D01*
G01*
D02*
G03*
X037550Y030930I000000J-000005D01*
G01*
Y031240D02*
G03*
X037550Y031250I000000J000005D01*
G01*
D02*
G03*
X037550Y031240I000000J-000005D01*
G01*
Y031450D02*
G03*
X037550Y031460I000000J000005D01*
G01*
D02*
G03*
X037550Y031450I000000J-000005D01*
G01*
Y031760D02*
G03*
X037550Y031770I000000J000005D01*
G01*
D02*
G03*
X037550Y031760I000000J-000005D01*
G01*
Y031910D02*
G03*
X037550Y031920I000000J000005D01*
G01*
D02*
G03*
X037550Y031910I000000J-000005D01*
G01*
Y032580D02*
G03*
X037550Y032590I000000J000005D01*
G01*
D02*
G03*
X037550Y032580I000000J-000005D01*
G01*
Y032710D02*
G03*
X037550Y032720I000000J000005D01*
G01*
D02*
G03*
X037550Y032710I000000J-000005D01*
G01*
Y033180D02*
G03*
X037550Y033190I000000J000005D01*
G01*
D02*
G03*
X037550Y033180I000000J-000005D01*
G01*
Y033510D02*
G03*
X037550Y033520I000000J000005D01*
G01*
D02*
G03*
X037550Y033510I000000J-000005D01*
G01*
Y033820D02*
G03*
X037550Y033830I000000J000005D01*
G01*
D02*
G03*
X037550Y033820I000000J-000005D01*
G01*
Y033970D02*
G03*
X037550Y033980I000000J000005D01*
G01*
D02*
G03*
X037550Y033970I000000J-000005D01*
G01*
Y034280D02*
G03*
X037550Y034290I000000J000005D01*
G01*
D02*
G03*
X037550Y034280I000000J-000005D01*
G01*
Y034390D02*
G03*
X037550Y034400I000000J000005D01*
G01*
D02*
G03*
X037550Y034390I000000J-000005D01*
G01*
Y034840D02*
G03*
X037550Y034850I000000J000005D01*
G01*
D02*
G03*
X037550Y034840I000000J-000005D01*
G01*
X037570Y029490D02*
G03*
X037570Y029500I000000J000005D01*
G01*
D02*
G03*
X037570Y029490I000000J-000005D01*
G01*
Y030120D02*
G03*
X037570Y030130I000000J000005D01*
G01*
D02*
G03*
X037570Y030120I000000J-000005D01*
G01*
Y030270D02*
G03*
X037570Y030280I000000J000005D01*
G01*
D02*
G03*
X037570Y030270I000000J-000005D01*
G01*
Y030720D02*
G03*
X037570Y030730I000000J000005D01*
G01*
D02*
G03*
X037570Y030720I000000J-000005D01*
G01*
Y030930D02*
G03*
X037570Y030940I000000J000005D01*
G01*
D02*
G03*
X037570Y030930I000000J-000005D01*
G01*
Y031240D02*
G03*
X037570Y031250I000000J000005D01*
G01*
D02*
G03*
X037570Y031240I000000J-000005D01*
G01*
Y031450D02*
G03*
X037570Y031460I000000J000005D01*
G01*
D02*
G03*
X037570Y031450I000000J-000005D01*
G01*
Y031760D02*
G03*
X037570Y031770I000000J000005D01*
G01*
D02*
G03*
X037570Y031760I000000J-000005D01*
G01*
Y031930D02*
G03*
X037570Y031940I000000J000005D01*
G01*
D02*
G03*
X037570Y031930I000000J-000005D01*
G01*
Y032560D02*
G03*
X037570Y032570I000000J000005D01*
G01*
D02*
G03*
X037570Y032560I000000J-000005D01*
G01*
Y032710D02*
G03*
X037570Y032720I000000J000005D01*
G01*
D02*
G03*
X037570Y032710I000000J-000005D01*
G01*
Y033160D02*
G03*
X037570Y033170I000000J000005D01*
G01*
D02*
G03*
X037570Y033160I000000J-000005D01*
G01*
Y033510D02*
G03*
X037570Y033520I000000J000005D01*
G01*
D02*
G03*
X037570Y033510I000000J-000005D01*
G01*
Y033820D02*
G03*
X037570Y033830I000000J000005D01*
G01*
D02*
G03*
X037570Y033820I000000J-000005D01*
G01*
Y033970D02*
G03*
X037570Y033980I000000J000005D01*
G01*
D02*
G03*
X037570Y033970I000000J-000005D01*
G01*
Y034280D02*
G03*
X037570Y034290I000000J000005D01*
G01*
D02*
G03*
X037570Y034280I000000J-000005D01*
G01*
Y034390D02*
G03*
X037570Y034400I000000J000005D01*
G01*
D02*
G03*
X037570Y034390I000000J-000005D01*
G01*
Y034840D02*
G03*
X037570Y034850I000000J000005D01*
G01*
D02*
G03*
X037570Y034840I000000J-000005D01*
G01*
X037590Y029510D02*
G03*
X037590Y029520I000000J000005D01*
G01*
D02*
G03*
X037590Y029510I000000J-000005D01*
G01*
Y030100D02*
G03*
X037590Y030110I000000J000005D01*
G01*
D02*
G03*
X037590Y030100I000000J-000005D01*
G01*
Y030270D02*
G03*
X037590Y030280I000000J000005D01*
G01*
D02*
G03*
X037590Y030270I000000J-000005D01*
G01*
Y030700D02*
G03*
X037590Y030710I000000J000005D01*
G01*
D02*
G03*
X037590Y030700I000000J-000005D01*
G01*
Y030930D02*
G03*
X037590Y030940I000000J000005D01*
G01*
D02*
G03*
X037590Y030930I000000J-000005D01*
G01*
Y031240D02*
G03*
X037590Y031250I000000J000005D01*
G01*
D02*
G03*
X037590Y031240I000000J-000005D01*
G01*
Y031450D02*
G03*
X037590Y031460I000000J000005D01*
G01*
D02*
G03*
X037590Y031450I000000J-000005D01*
G01*
Y031760D02*
G03*
X037590Y031770I000000J000005D01*
G01*
D02*
G03*
X037590Y031760I000000J-000005D01*
G01*
Y031930D02*
G03*
X037590Y031940I000000J000005D01*
G01*
D02*
G03*
X037590Y031930I000000J-000005D01*
G01*
Y032560D02*
G03*
X037590Y032570I000000J000005D01*
G01*
D02*
G03*
X037590Y032560I000000J-000005D01*
G01*
Y032710D02*
G03*
X037590Y032720I000000J000005D01*
G01*
D02*
G03*
X037590Y032710I000000J-000005D01*
G01*
Y033160D02*
G03*
X037590Y033170I000000J000005D01*
G01*
D02*
G03*
X037590Y033160I000000J-000005D01*
G01*
Y033510D02*
G03*
X037590Y033520I000000J000005D01*
G01*
D02*
G03*
X037590Y033510I000000J-000005D01*
G01*
Y033820D02*
G03*
X037590Y033830I000000J000005D01*
G01*
D02*
G03*
X037590Y033820I000000J-000005D01*
G01*
Y033970D02*
G03*
X037590Y033980I000000J000005D01*
G01*
D02*
G03*
X037590Y033970I000000J-000005D01*
G01*
Y034280D02*
G03*
X037590Y034290I000000J000005D01*
G01*
D02*
G03*
X037590Y034280I000000J-000005D01*
G01*
Y034390D02*
G03*
X037590Y034400I000000J000005D01*
G01*
D02*
G03*
X037590Y034390I000000J-000005D01*
G01*
Y034820D02*
G03*
X037590Y034830I000000J000005D01*
G01*
D02*
G03*
X037590Y034820I000000J-000005D01*
G01*
X037610Y029530D02*
G03*
X037610Y029540I000000J000005D01*
G01*
D02*
G03*
X037610Y029530I000000J-000005D01*
G01*
Y030080D02*
G03*
X037610Y030090I000000J000005D01*
G01*
D02*
G03*
X037610Y030080I000000J-000005D01*
G01*
Y030270D02*
G03*
X037610Y030280I000000J000005D01*
G01*
D02*
G03*
X037610Y030270I000000J-000005D01*
G01*
Y030680D02*
G03*
X037610Y030690I000000J000005D01*
G01*
D02*
G03*
X037610Y030680I000000J-000005D01*
G01*
Y030930D02*
G03*
X037610Y030940I000000J000005D01*
G01*
D02*
G03*
X037610Y030930I000000J-000005D01*
G01*
Y031240D02*
G03*
X037610Y031250I000000J000005D01*
G01*
D02*
G03*
X037610Y031240I000000J-000005D01*
G01*
Y031450D02*
G03*
X037610Y031460I000000J000005D01*
G01*
D02*
G03*
X037610Y031450I000000J-000005D01*
G01*
Y031760D02*
G03*
X037610Y031770I000000J000005D01*
G01*
D02*
G03*
X037610Y031760I000000J-000005D01*
G01*
Y031950D02*
G03*
X037610Y031960I000000J000005D01*
G01*
D02*
G03*
X037610Y031950I000000J-000005D01*
G01*
Y032540D02*
G03*
X037610Y032550I000000J000005D01*
G01*
D02*
G03*
X037610Y032540I000000J-000005D01*
G01*
Y032710D02*
G03*
X037610Y032720I000000J000005D01*
G01*
D02*
G03*
X037610Y032710I000000J-000005D01*
G01*
Y033140D02*
G03*
X037610Y033150I000000J000005D01*
G01*
D02*
G03*
X037610Y033140I000000J-000005D01*
G01*
Y033510D02*
G03*
X037610Y033520I000000J000005D01*
G01*
D02*
G03*
X037610Y033510I000000J-000005D01*
G01*
Y033820D02*
G03*
X037610Y033830I000000J000005D01*
G01*
D02*
G03*
X037610Y033820I000000J-000005D01*
G01*
Y033970D02*
G03*
X037610Y033980I000000J000005D01*
G01*
D02*
G03*
X037610Y033970I000000J-000005D01*
G01*
Y034280D02*
G03*
X037610Y034290I000000J000005D01*
G01*
D02*
G03*
X037610Y034280I000000J-000005D01*
G01*
Y034390D02*
G03*
X037610Y034400I000000J000005D01*
G01*
D02*
G03*
X037610Y034390I000000J-000005D01*
G01*
Y034800D02*
G03*
X037610Y034810I000000J000005D01*
G01*
D02*
G03*
X037610Y034800I000000J-000005D01*
G01*
X037630Y029550D02*
G03*
X037630Y029560I000000J000005D01*
G01*
D02*
G03*
X037630Y029550I000000J-000005D01*
G01*
Y030060D02*
G03*
X037630Y030070I000000J000005D01*
G01*
D02*
G03*
X037630Y030060I000000J-000005D01*
G01*
Y030270D02*
G03*
X037630Y030280I000000J000005D01*
G01*
D02*
G03*
X037630Y030270I000000J-000005D01*
G01*
Y030660D02*
G03*
X037630Y030670I000000J000005D01*
G01*
D02*
G03*
X037630Y030660I000000J-000005D01*
G01*
Y030930D02*
G03*
X037630Y030940I000000J000005D01*
G01*
D02*
G03*
X037630Y030930I000000J-000005D01*
G01*
Y031240D02*
G03*
X037630Y031250I000000J000005D01*
G01*
D02*
G03*
X037630Y031240I000000J-000005D01*
G01*
Y031450D02*
G03*
X037630Y031460I000000J000005D01*
G01*
D02*
G03*
X037630Y031450I000000J-000005D01*
G01*
Y031760D02*
G03*
X037630Y031770I000000J000005D01*
G01*
D02*
G03*
X037630Y031760I000000J-000005D01*
G01*
Y031970D02*
G03*
X037630Y031980I000000J000005D01*
G01*
D02*
G03*
X037630Y031970I000000J-000005D01*
G01*
Y032520D02*
G03*
X037630Y032530I000000J000005D01*
G01*
D02*
G03*
X037630Y032520I000000J-000005D01*
G01*
Y032710D02*
G03*
X037630Y032720I000000J000005D01*
G01*
D02*
G03*
X037630Y032710I000000J-000005D01*
G01*
Y033120D02*
G03*
X037630Y033130I000000J000005D01*
G01*
D02*
G03*
X037630Y033120I000000J-000005D01*
G01*
Y033510D02*
G03*
X037630Y033520I000000J000005D01*
G01*
D02*
G03*
X037630Y033510I000000J-000005D01*
G01*
Y033820D02*
G03*
X037630Y033830I000000J000005D01*
G01*
D02*
G03*
X037630Y033820I000000J-000005D01*
G01*
Y033970D02*
G03*
X037630Y033980I000000J000005D01*
G01*
D02*
G03*
X037630Y033970I000000J-000005D01*
G01*
Y034280D02*
G03*
X037630Y034290I000000J000005D01*
G01*
D02*
G03*
X037630Y034280I000000J-000005D01*
G01*
Y034390D02*
G03*
X037630Y034400I000000J000005D01*
G01*
D02*
G03*
X037630Y034390I000000J-000005D01*
G01*
Y034800D02*
G03*
X037630Y034810I000000J000005D01*
G01*
D02*
G03*
X037630Y034800I000000J-000005D01*
G01*
X037650Y029570D02*
G03*
X037650Y029580I000000J000005D01*
G01*
D02*
G03*
X037650Y029570I000000J-000005D01*
G01*
Y030040D02*
G03*
X037650Y030050I000000J000005D01*
G01*
D02*
G03*
X037650Y030040I000000J-000005D01*
G01*
Y030270D02*
G03*
X037650Y030280I000000J000005D01*
G01*
D02*
G03*
X037650Y030270I000000J-000005D01*
G01*
Y030640D02*
G03*
X037650Y030650I000000J000005D01*
G01*
D02*
G03*
X037650Y030640I000000J-000005D01*
G01*
Y030930D02*
G03*
X037650Y030940I000000J000005D01*
G01*
D02*
G03*
X037650Y030930I000000J-000005D01*
G01*
Y031240D02*
G03*
X037650Y031250I000000J000005D01*
G01*
D02*
G03*
X037650Y031240I000000J-000005D01*
G01*
Y031450D02*
G03*
X037650Y031460I000000J000005D01*
G01*
D02*
G03*
X037650Y031450I000000J-000005D01*
G01*
Y031760D02*
G03*
X037650Y031770I000000J000005D01*
G01*
D02*
G03*
X037650Y031760I000000J-000005D01*
G01*
Y031990D02*
G03*
X037650Y032000I000000J000005D01*
G01*
D02*
G03*
X037650Y031990I000000J-000005D01*
G01*
Y032500D02*
G03*
X037650Y032510I000000J000005D01*
G01*
D02*
G03*
X037650Y032500I000000J-000005D01*
G01*
Y032710D02*
G03*
X037650Y032720I000000J000005D01*
G01*
D02*
G03*
X037650Y032710I000000J-000005D01*
G01*
Y033100D02*
G03*
X037650Y033110I000000J000005D01*
G01*
D02*
G03*
X037650Y033100I000000J-000005D01*
G01*
Y033510D02*
G03*
X037650Y033520I000000J000005D01*
G01*
D02*
G03*
X037650Y033510I000000J-000005D01*
G01*
Y033820D02*
G03*
X037650Y033830I000000J000005D01*
G01*
D02*
G03*
X037650Y033820I000000J-000005D01*
G01*
Y033970D02*
G03*
X037650Y033980I000000J000005D01*
G01*
D02*
G03*
X037650Y033970I000000J-000005D01*
G01*
Y034280D02*
G03*
X037650Y034290I000000J000005D01*
G01*
D02*
G03*
X037650Y034280I000000J-000005D01*
G01*
Y034390D02*
G03*
X037650Y034400I000000J000005D01*
G01*
D02*
G03*
X037650Y034390I000000J-000005D01*
G01*
Y034760D02*
G03*
X037650Y034770I000000J000005D01*
G01*
D02*
G03*
X037650Y034760I000000J-000005D01*
G01*
X037670Y029610D02*
G03*
X037670Y029620I000000J000005D01*
G01*
D02*
G03*
X037670Y029610I000000J-000005D01*
G01*
Y030000D02*
G03*
X037670Y030010I000000J000005D01*
G01*
D02*
G03*
X037670Y030000I000000J-000005D01*
G01*
Y030290D02*
G03*
X037670Y030300I000000J000005D01*
G01*
D02*
G03*
X037670Y030290I000000J-000005D01*
G01*
Y030600D02*
G03*
X037670Y030610I000000J000005D01*
G01*
D02*
G03*
X037670Y030600I000000J-000005D01*
G01*
Y030930D02*
G03*
X037670Y030940I000000J000005D01*
G01*
D02*
G03*
X037670Y030930I000000J-000005D01*
G01*
Y031240D02*
G03*
X037670Y031250I000000J000005D01*
G01*
D02*
G03*
X037670Y031240I000000J-000005D01*
G01*
Y031450D02*
G03*
X037670Y031460I000000J000005D01*
G01*
D02*
G03*
X037670Y031450I000000J-000005D01*
G01*
Y031760D02*
G03*
X037670Y031770I000000J000005D01*
G01*
D02*
G03*
X037670Y031760I000000J-000005D01*
G01*
Y032010D02*
G03*
X037670Y032020I000000J000005D01*
G01*
D02*
G03*
X037670Y032010I000000J-000005D01*
G01*
Y032480D02*
G03*
X037670Y032490I000000J000005D01*
G01*
D02*
G03*
X037670Y032480I000000J-000005D01*
G01*
Y032710D02*
G03*
X037670Y032720I000000J000005D01*
G01*
D02*
G03*
X037670Y032710I000000J-000005D01*
G01*
Y033060D02*
G03*
X037670Y033070I000000J000005D01*
G01*
D02*
G03*
X037670Y033060I000000J-000005D01*
G01*
Y033510D02*
G03*
X037670Y033520I000000J000005D01*
G01*
D02*
G03*
X037670Y033510I000000J-000005D01*
G01*
Y033820D02*
G03*
X037670Y033830I000000J000005D01*
G01*
D02*
G03*
X037670Y033820I000000J-000005D01*
G01*
Y033970D02*
G03*
X037670Y033980I000000J000005D01*
G01*
D02*
G03*
X037670Y033970I000000J-000005D01*
G01*
Y034280D02*
G03*
X037670Y034290I000000J000005D01*
G01*
D02*
G03*
X037670Y034280I000000J-000005D01*
G01*
Y034410D02*
G03*
X037670Y034420I000000J000005D01*
G01*
D02*
G03*
X037670Y034410I000000J-000005D01*
G01*
Y034720D02*
G03*
X037670Y034730I000000J000005D01*
G01*
D02*
G03*
X037670Y034720I000000J-000005D01*
G01*
X037690Y029650D02*
G03*
X037690Y029660I000000J000005D01*
G01*
D02*
G03*
X037690Y029650I000000J-000005D01*
G01*
Y029960D02*
G03*
X037690Y029970I000000J000005D01*
G01*
D02*
G03*
X037690Y029960I000000J-000005D01*
G01*
Y030330D02*
G03*
X037690Y030340I000000J000005D01*
G01*
D02*
G03*
X037690Y030330I000000J-000005D01*
G01*
Y030560D02*
G03*
X037690Y030570I000000J000005D01*
G01*
D02*
G03*
X037690Y030560I000000J-000005D01*
G01*
Y030930D02*
G03*
X037690Y030940I000000J000005D01*
G01*
D02*
G03*
X037690Y030930I000000J-000005D01*
G01*
Y031240D02*
G03*
X037690Y031250I000000J000005D01*
G01*
D02*
G03*
X037690Y031240I000000J-000005D01*
G01*
Y031450D02*
G03*
X037690Y031460I000000J000005D01*
G01*
D02*
G03*
X037690Y031450I000000J-000005D01*
G01*
Y031760D02*
G03*
X037690Y031770I000000J000005D01*
G01*
D02*
G03*
X037690Y031760I000000J-000005D01*
G01*
Y032050D02*
G03*
X037690Y032060I000000J000005D01*
G01*
D02*
G03*
X037690Y032050I000000J-000005D01*
G01*
Y032440D02*
G03*
X037690Y032450I000000J000005D01*
G01*
D02*
G03*
X037690Y032440I000000J-000005D01*
G01*
Y032750D02*
G03*
X037690Y032760I000000J000005D01*
G01*
D02*
G03*
X037690Y032750I000000J-000005D01*
G01*
Y033020D02*
G03*
X037690Y033030I000000J000005D01*
G01*
D02*
G03*
X037690Y033020I000000J-000005D01*
G01*
Y033510D02*
G03*
X037690Y033520I000000J000005D01*
G01*
D02*
G03*
X037690Y033510I000000J-000005D01*
G01*
Y033820D02*
G03*
X037690Y033830I000000J000005D01*
G01*
D02*
G03*
X037690Y033820I000000J-000005D01*
G01*
Y033970D02*
G03*
X037690Y033980I000000J000005D01*
G01*
D02*
G03*
X037690Y033970I000000J-000005D01*
G01*
Y034280D02*
G03*
X037690Y034290I000000J000005D01*
G01*
D02*
G03*
X037690Y034280I000000J-000005D01*
G01*
Y034450D02*
G03*
X037690Y034460I000000J000005D01*
G01*
D02*
G03*
X037690Y034450I000000J-000005D01*
G01*
Y034680D02*
G03*
X037690Y034690I000000J000005D01*
G01*
D02*
G03*
X037690Y034680I000000J-000005D01*
G01*
X037710Y029730D02*
G03*
X037710Y029740I000000J000005D01*
G01*
D02*
G03*
X037710Y029730I000000J-000005D01*
G01*
Y029880D02*
G03*
X037710Y029890I000000J000005D01*
G01*
D02*
G03*
X037710Y029880I000000J-000005D01*
G01*
Y030410D02*
G03*
X037710Y030420I000000J000005D01*
G01*
D02*
G03*
X037710Y030410I000000J-000005D01*
G01*
Y030480D02*
G03*
X037710Y030490I000000J000005D01*
G01*
D02*
G03*
X037710Y030480I000000J-000005D01*
G01*
Y030930D02*
G03*
X037710Y030940I000000J000005D01*
G01*
D02*
G03*
X037710Y030930I000000J-000005D01*
G01*
Y031240D02*
G03*
X037710Y031250I000000J000005D01*
G01*
D02*
G03*
X037710Y031240I000000J-000005D01*
G01*
Y031450D02*
G03*
X037710Y031460I000000J000005D01*
G01*
D02*
G03*
X037710Y031450I000000J-000005D01*
G01*
Y031760D02*
G03*
X037710Y031770I000000J000005D01*
G01*
D02*
G03*
X037710Y031760I000000J-000005D01*
G01*
Y032150D02*
G03*
X037710Y032160I000000J000005D01*
G01*
D02*
G03*
X037710Y032150I000000J-000005D01*
G01*
Y032340D02*
G03*
X037710Y032350I000000J000005D01*
G01*
D02*
G03*
X037710Y032340I000000J-000005D01*
G01*
Y032810D02*
G03*
X037710Y032820I000000J000005D01*
G01*
D02*
G03*
X037710Y032810I000000J-000005D01*
G01*
Y032960D02*
G03*
X037710Y032970I000000J000005D01*
G01*
D02*
G03*
X037710Y032960I000000J-000005D01*
G01*
Y033510D02*
G03*
X037710Y033520I000000J000005D01*
G01*
D02*
G03*
X037710Y033510I000000J-000005D01*
G01*
Y033820D02*
G03*
X037710Y033830I000000J000005D01*
G01*
D02*
G03*
X037710Y033820I000000J-000005D01*
G01*
Y033970D02*
G03*
X037710Y033980I000000J000005D01*
G01*
D02*
G03*
X037710Y033970I000000J-000005D01*
G01*
Y034280D02*
G03*
X037710Y034290I000000J000005D01*
G01*
D02*
G03*
X037710Y034280I000000J-000005D01*
G01*
Y034530D02*
G03*
X037710Y034540I000000J000005D01*
G01*
D02*
G03*
X037710Y034530I000000J-000005D01*
G01*
Y034600D02*
G03*
X037710Y034610I000000J000005D01*
G01*
D02*
G03*
X037710Y034600I000000J-000005D01*
G01*
G54D148*
X036730Y031555D02*
Y031685D01*
Y034075D02*
Y034205D01*
X036750Y031515D02*
Y031725D01*
Y034035D02*
Y034245D01*
X036770Y031495D02*
Y031745D01*
Y034015D02*
Y034265D01*
X036790Y031475D02*
Y031765D01*
Y033995D02*
Y034285D01*
X036810Y031475D02*
Y031765D01*
Y033995D02*
Y034285D01*
X036830Y031455D02*
Y031785D01*
Y033975D02*
Y034305D01*
X036850Y031455D02*
Y031785D01*
Y033975D02*
Y034305D01*
X036870Y030935D02*
Y031245D01*
Y031455D02*
Y031785D01*
Y033975D02*
Y034305D01*
X036890Y030935D02*
Y031245D01*
Y031455D02*
Y031785D01*
Y033975D02*
Y034305D01*
X036910Y030935D02*
Y031245D01*
Y031455D02*
Y031785D01*
Y033975D02*
Y034305D01*
X036930Y030935D02*
Y031245D01*
Y031475D02*
Y031765D01*
Y033995D02*
Y034285D01*
X036950Y030935D02*
Y031245D01*
Y031475D02*
Y031765D01*
Y033995D02*
Y034285D01*
X036970Y030935D02*
Y031245D01*
Y031495D02*
Y031745D01*
Y034015D02*
Y034265D01*
X036990Y030935D02*
Y031245D01*
Y031515D02*
Y031725D01*
Y034035D02*
Y034245D01*
X037010Y030935D02*
Y031245D01*
Y031575D02*
Y031665D01*
Y034095D02*
Y034185D01*
X037030Y030935D02*
Y031245D01*
X037050Y030935D02*
Y031245D01*
X037070Y029735D02*
Y029885D01*
Y030415D02*
Y030485D01*
Y030935D02*
Y031245D01*
Y032815D02*
Y032965D01*
Y033315D02*
Y033385D01*
Y034535D02*
Y034605D01*
X037090Y029655D02*
Y029965D01*
Y030335D02*
Y030565D01*
Y030855D02*
Y031325D01*
Y031455D02*
Y031765D01*
Y031895D02*
Y032205D01*
Y032295D02*
Y032605D01*
Y032735D02*
Y033025D01*
Y033315D02*
Y033425D01*
Y033535D02*
Y033825D01*
Y033975D02*
Y034285D01*
Y034435D02*
Y034685D01*
X037110Y029615D02*
Y030005D01*
Y030275D02*
Y030605D01*
Y030855D02*
Y031325D01*
Y031455D02*
Y031765D01*
Y031895D02*
Y032205D01*
Y032295D02*
Y032605D01*
Y032715D02*
Y033065D01*
Y033315D02*
Y033465D01*
Y033535D02*
Y033825D01*
Y033975D02*
Y034285D01*
Y034395D02*
Y034725D01*
X037130Y029575D02*
Y030045D01*
Y030275D02*
Y030645D01*
Y030855D02*
Y031325D01*
Y031455D02*
Y031765D01*
Y031895D02*
Y032205D01*
Y032295D02*
Y032605D01*
Y032715D02*
Y033085D01*
Y033315D02*
Y033485D01*
Y033535D02*
Y033825D01*
Y033975D02*
Y034285D01*
Y034395D02*
Y034765D01*
X037150Y029555D02*
Y030065D01*
Y030275D02*
Y030665D01*
Y030855D02*
Y031325D01*
Y031455D02*
Y031765D01*
Y031895D02*
Y032205D01*
Y032295D02*
Y032605D01*
Y032715D02*
Y033125D01*
Y033315D02*
Y033505D01*
Y033535D02*
Y033825D01*
Y033975D02*
Y034285D01*
Y034395D02*
Y034785D01*
X037170Y029535D02*
Y030085D01*
Y030275D02*
Y030685D01*
Y030855D02*
Y031325D01*
Y031455D02*
Y031765D01*
Y031895D02*
Y032205D01*
Y032295D02*
Y032605D01*
Y032715D02*
Y033145D01*
Y033315D02*
Y033825D01*
Y033975D02*
Y034285D01*
Y034395D02*
Y034805D01*
X037190Y029515D02*
Y030105D01*
Y030275D02*
Y030705D01*
Y030855D02*
Y031325D01*
Y031455D02*
Y031765D01*
Y031895D02*
Y032205D01*
Y032295D02*
Y032605D01*
Y032715D02*
Y033145D01*
Y033315D02*
Y033825D01*
Y033975D02*
Y034285D01*
Y034395D02*
Y034825D01*
X037210Y029495D02*
Y030125D01*
Y030275D02*
Y030725D01*
Y030855D02*
Y031325D01*
Y031455D02*
Y031765D01*
Y031895D02*
Y032205D01*
Y032295D02*
Y032605D01*
Y032715D02*
Y033165D01*
Y033315D02*
Y033825D01*
Y033975D02*
Y034285D01*
Y034395D02*
Y034845D01*
X037230Y029475D02*
Y030145D01*
Y030275D02*
Y030745D01*
Y030855D02*
Y031325D01*
Y031455D02*
Y031765D01*
Y031895D02*
Y032205D01*
Y032295D02*
Y032605D01*
Y032715D02*
Y033185D01*
Y033315D02*
Y033825D01*
Y033975D02*
Y034285D01*
Y034395D02*
Y034865D01*
X037250Y029475D02*
Y030145D01*
Y030275D02*
Y030745D01*
Y030855D02*
Y031325D01*
Y031455D02*
Y031765D01*
Y031895D02*
Y032205D01*
Y032295D02*
Y032605D01*
Y032715D02*
Y033185D01*
Y033315D02*
Y033825D01*
Y033975D02*
Y034285D01*
Y034395D02*
Y034865D01*
X037270Y029455D02*
Y030165D01*
Y030275D02*
Y030745D01*
Y030855D02*
Y031325D01*
Y031455D02*
Y031765D01*
Y031895D02*
Y032205D01*
Y032295D02*
Y032605D01*
Y032715D02*
Y033205D01*
Y033315D02*
Y033825D01*
Y033975D02*
Y034285D01*
Y034395D02*
Y034885D01*
X037290Y029455D02*
Y030165D01*
Y030275D02*
Y030765D01*
Y030855D02*
Y031325D01*
Y031455D02*
Y031765D01*
Y031895D02*
Y032205D01*
Y032295D02*
Y032605D01*
Y032715D02*
Y033205D01*
Y033315D02*
Y033825D01*
Y033975D02*
Y034285D01*
Y034395D02*
Y034885D01*
X037310Y029455D02*
Y030165D01*
Y030275D02*
Y030765D01*
Y030855D02*
Y031325D01*
Y031455D02*
Y031765D01*
Y031895D02*
Y032205D01*
Y032295D02*
Y032605D01*
Y032715D02*
Y033205D01*
Y033315D02*
Y033825D01*
Y033975D02*
Y034285D01*
Y034395D02*
Y034885D01*
X037330Y029435D02*
Y029765D01*
Y029855D02*
Y030165D01*
Y030475D02*
Y030765D01*
Y030935D02*
Y031245D01*
Y031455D02*
Y031765D01*
Y031895D02*
Y032205D01*
Y032295D02*
Y032605D01*
Y032895D02*
Y033225D01*
Y033315D02*
Y033825D01*
Y033975D02*
Y034285D01*
Y034595D02*
Y034885D01*
X037350Y029435D02*
Y029745D01*
Y029895D02*
Y030185D01*
Y030495D02*
Y030765D01*
Y030935D02*
Y031245D01*
Y031455D02*
Y031765D01*
Y031895D02*
Y032205D01*
Y032295D02*
Y032605D01*
Y032915D02*
Y033225D01*
Y033315D02*
Y033345D01*
Y033455D02*
Y033825D01*
Y033975D02*
Y034285D01*
Y034615D02*
Y034885D01*
X037370Y029435D02*
Y029725D01*
Y029895D02*
Y030185D01*
Y030495D02*
Y030785D01*
Y030935D02*
Y031245D01*
Y031455D02*
Y031765D01*
Y031895D02*
Y032205D01*
Y032295D02*
Y032605D01*
Y032935D02*
Y033225D01*
Y033475D02*
Y033825D01*
Y033975D02*
Y034285D01*
Y034615D02*
Y034905D01*
X037390Y029435D02*
Y029725D01*
Y029895D02*
Y030185D01*
Y030495D02*
Y030785D01*
Y030935D02*
Y031245D01*
Y031455D02*
Y031765D01*
Y031895D02*
Y032205D01*
Y032295D02*
Y032605D01*
Y032935D02*
Y033225D01*
Y033495D02*
Y033825D01*
Y033975D02*
Y034285D01*
Y034615D02*
Y034905D01*
X037410Y029435D02*
Y029725D01*
Y029895D02*
Y030185D01*
Y030495D02*
Y030785D01*
Y030935D02*
Y031245D01*
Y031455D02*
Y031765D01*
Y031895D02*
Y032205D01*
Y032295D02*
Y032605D01*
Y032935D02*
Y033225D01*
Y033515D02*
Y033825D01*
Y033975D02*
Y034285D01*
Y034615D02*
Y034905D01*
X037430Y029435D02*
Y029745D01*
Y029875D02*
Y030185D01*
Y030495D02*
Y030785D01*
Y030935D02*
Y031245D01*
Y031455D02*
Y031765D01*
Y031895D02*
Y032205D01*
Y032295D02*
Y032605D01*
Y032715D02*
Y032725D01*
Y032915D02*
Y033225D01*
Y033515D02*
Y033825D01*
Y033975D02*
Y034285D01*
Y034615D02*
Y034905D01*
X037450Y029435D02*
Y029765D01*
Y029855D02*
Y030185D01*
Y030275D02*
Y030305D01*
Y030475D02*
Y030765D01*
Y030935D02*
Y031245D01*
Y031455D02*
Y031765D01*
Y031895D02*
Y032205D01*
Y032295D02*
Y032605D01*
Y032715D02*
Y032765D01*
Y032895D02*
Y033225D01*
Y033515D02*
Y033825D01*
Y033975D02*
Y034285D01*
Y034395D02*
Y034425D01*
Y034575D02*
Y034885D01*
X037470Y029455D02*
Y030165D01*
Y030275D02*
Y030765D01*
Y030935D02*
Y031245D01*
Y031455D02*
Y031765D01*
Y031895D02*
Y032225D01*
Y032275D02*
Y032605D01*
Y032715D02*
Y033205D01*
Y033515D02*
Y033825D01*
Y033975D02*
Y034285D01*
Y034395D02*
Y034885D01*
X037490Y029455D02*
Y030165D01*
Y030275D02*
Y030765D01*
Y030935D02*
Y031245D01*
Y031455D02*
Y031765D01*
Y031895D02*
Y032605D01*
Y032715D02*
Y033205D01*
Y033515D02*
Y033825D01*
Y033975D02*
Y034285D01*
Y034395D02*
Y034885D01*
X037510Y029455D02*
Y030165D01*
Y030275D02*
Y030745D01*
Y030935D02*
Y031245D01*
Y031455D02*
Y031765D01*
Y031915D02*
Y032585D01*
Y032715D02*
Y033205D01*
Y033515D02*
Y033825D01*
Y033975D02*
Y034285D01*
Y034395D02*
Y034865D01*
X037530Y029475D02*
Y030145D01*
Y030275D02*
Y030745D01*
Y030935D02*
Y031245D01*
Y031455D02*
Y031765D01*
Y031915D02*
Y032585D01*
Y032715D02*
Y033185D01*
Y033515D02*
Y033825D01*
Y033975D02*
Y034285D01*
Y034395D02*
Y034865D01*
X037550Y029475D02*
Y030145D01*
Y030275D02*
Y030725D01*
Y030935D02*
Y031245D01*
Y031455D02*
Y031765D01*
Y031915D02*
Y032585D01*
Y032715D02*
Y033185D01*
Y033515D02*
Y033825D01*
Y033975D02*
Y034285D01*
Y034395D02*
Y034845D01*
X037570Y029495D02*
Y030125D01*
Y030275D02*
Y030725D01*
Y030935D02*
Y031245D01*
Y031455D02*
Y031765D01*
Y031935D02*
Y032565D01*
Y032715D02*
Y033165D01*
Y033515D02*
Y033825D01*
Y033975D02*
Y034285D01*
Y034395D02*
Y034845D01*
X037590Y029515D02*
Y030105D01*
Y030275D02*
Y030705D01*
Y030935D02*
Y031245D01*
Y031455D02*
Y031765D01*
Y031935D02*
Y032565D01*
Y032715D02*
Y033165D01*
Y033515D02*
Y033825D01*
Y033975D02*
Y034285D01*
Y034395D02*
Y034825D01*
X037610Y029535D02*
Y030085D01*
Y030275D02*
Y030685D01*
Y030935D02*
Y031245D01*
Y031455D02*
Y031765D01*
Y031955D02*
Y032545D01*
Y032715D02*
Y033145D01*
Y033515D02*
Y033825D01*
Y033975D02*
Y034285D01*
Y034395D02*
Y034805D01*
X037630Y029555D02*
Y030065D01*
Y030275D02*
Y030665D01*
Y030935D02*
Y031245D01*
Y031455D02*
Y031765D01*
Y031975D02*
Y032525D01*
Y032715D02*
Y033125D01*
Y033515D02*
Y033825D01*
Y033975D02*
Y034285D01*
Y034395D02*
Y034805D01*
X037650Y029575D02*
Y030045D01*
Y030275D02*
Y030645D01*
Y030935D02*
Y031245D01*
Y031455D02*
Y031765D01*
Y031995D02*
Y032505D01*
Y032715D02*
Y033105D01*
Y033515D02*
Y033825D01*
Y033975D02*
Y034285D01*
Y034395D02*
Y034765D01*
X037670Y029615D02*
Y030005D01*
Y030295D02*
Y030605D01*
Y030935D02*
Y031245D01*
Y031455D02*
Y031765D01*
Y032015D02*
Y032485D01*
Y032715D02*
Y033065D01*
Y033515D02*
Y033825D01*
Y033975D02*
Y034285D01*
Y034415D02*
Y034725D01*
X037690Y029655D02*
Y029965D01*
Y030335D02*
Y030565D01*
Y030935D02*
Y031245D01*
Y031455D02*
Y031765D01*
Y032055D02*
Y032445D01*
Y032755D02*
Y033025D01*
Y033515D02*
Y033825D01*
Y033975D02*
Y034285D01*
Y034455D02*
Y034685D01*
X037710Y029735D02*
Y029885D01*
Y030415D02*
Y030485D01*
Y030935D02*
Y031245D01*
Y031455D02*
Y031765D01*
Y032155D02*
Y032345D01*
Y032815D02*
Y032965D01*
Y033515D02*
Y033825D01*
Y033975D02*
Y034285D01*
Y034535D02*
Y034605D01*
G54D149*
X036336Y028814D02*
X036359Y028773D01*
X036370Y028733D01*
Y028672D02*
Y028733D01*
X036091Y028729D02*
X036105Y028751D01*
X036127Y028764D01*
X036163Y028767D01*
X036204Y028765D01*
X036224Y028753D01*
X036242Y028726D01*
X036247Y028701D01*
Y028696D02*
Y028701D01*
X036278Y028872D02*
X036298Y028870D01*
X036307Y028845D02*
X036336Y028814D01*
X036298Y028870D02*
X036332Y028872D01*
X036089Y028714D02*
X036091Y028729D01*
X036089Y028696D02*
Y028714D01*
X035972Y028661D02*
X035981Y028611D01*
X035968Y028722D02*
X035972Y028661D01*
X035983Y028785D02*
X036012Y028832D01*
X035968Y028722D02*
X035983Y028785D01*
X036287Y028543D02*
X036312Y028512D01*
X036328Y028561D02*
X036346Y028588D01*
X036310Y028552D02*
X036328Y028561D01*
X036287Y028543D02*
X036310Y028552D01*
X036224Y028561D02*
X036242Y028557D01*
X036233Y028561D02*
X036242Y028557D01*
X036224Y028579D02*
X036233Y028561D01*
X036224Y028579D02*
Y028602D01*
X036229Y028620D01*
X036242Y028647D01*
X036247Y028696D01*
X036171Y028562D02*
X036224Y028561D01*
X036312Y028512D02*
X036340Y028481D01*
X036364Y028633D02*
X036370Y028672D01*
X036346Y028588D02*
X036364Y028633D01*
X036065Y028530D02*
X036096Y028548D01*
X036132Y028562D02*
X036171D01*
X036096Y028548D02*
X036132Y028562D01*
X036031Y028508D02*
X036065Y028530D01*
X036016Y028499D02*
X036031Y028508D01*
X036089Y028633D02*
Y028696D01*
X036080Y028602D02*
X036089Y028633D01*
X036071Y028584D02*
X036080Y028602D01*
X036058Y028570D02*
X036071Y028584D01*
X036044Y028566D02*
X036058Y028570D01*
X036031Y028566D02*
X036044D01*
X036013Y028570D02*
X036031Y028566D01*
X035999Y028584D02*
X036013Y028570D01*
X035981Y028611D02*
X035999Y028584D01*
X036319Y028192D02*
X036346Y028183D01*
X036238Y028192D02*
X036319D01*
X036238D02*
X036247Y028197D01*
X036319Y028008D02*
X036346Y027999D01*
X036139Y028008D02*
X036319D01*
X036130Y028012D02*
X036139Y028008D01*
X036121Y028026D02*
X036130Y028012D01*
X036121Y028026D02*
Y028044D01*
X036125Y028053D01*
X036139Y028062D02*
X036315Y028063D01*
X036319Y027823D02*
X036346Y027814D01*
X036139Y027823D02*
X036319D01*
X036130Y027828D02*
X036139Y027823D01*
X036121Y027841D02*
X036130Y027828D01*
X036121Y027841D02*
Y027850D01*
X036139Y027877D02*
X036315Y027878D01*
X036360Y027798D02*
X036371Y027773D01*
X036346Y027814D02*
X036360Y027798D01*
X036315Y027878D02*
X036328Y027882D01*
X036357Y027896D01*
X036371Y027916D01*
Y027957D01*
X036360Y027982D02*
X036371Y027957D01*
X036346Y027999D02*
X036360Y027982D01*
X036315Y028063D02*
X036328Y028066D01*
X036357Y028081D01*
X036371Y028101D01*
Y028142D01*
X036360Y028167D02*
X036371Y028142D01*
X036346Y028183D02*
X036360Y028167D01*
X036191Y028306D02*
X036218Y028314D01*
X036236Y028323D01*
X036250Y028346D01*
X036252Y028366D01*
X036247Y028393D02*
X036252Y028366D01*
X036229Y028420D02*
X036247Y028393D01*
X036209Y028432D02*
X036229Y028420D01*
X036168Y028434D02*
X036209Y028432D01*
X036259Y028200D02*
X036304Y028224D01*
X036339Y028256D01*
X036364Y028301D01*
X036375Y028339D01*
Y028400D01*
X036364Y028440D02*
X036375Y028400D01*
X036340Y028481D02*
X036364Y028440D01*
X036247Y028197D02*
X036259Y028200D01*
X036089Y027693D02*
X036314D01*
X036040Y027697D02*
X036089Y027693D01*
X036017Y027706D02*
X036040Y027697D01*
X036004Y027715D02*
X036017Y027706D01*
X035995Y027729D02*
X036004Y027715D01*
X035986Y027751D02*
X035995Y027729D01*
X035981Y027774D02*
X035986Y027751D01*
X035981Y027774D02*
Y027796D01*
X036314Y027693D02*
X036328Y027697D01*
X036357Y027712D01*
X036371Y027732D01*
Y027773D01*
X036139Y028192D02*
Y028197D01*
X036067Y028192D02*
X036139D01*
X036017Y028188D02*
X036067Y028192D01*
X035990Y027967D02*
X036017Y027949D01*
X035999Y027931D02*
X036017Y027940D01*
X036016Y027950D02*
X036017Y027940D01*
X035986Y027918D02*
X035999Y027931D01*
X036130Y028057D02*
X036139Y028062D01*
X036125Y028053D02*
X036130Y028057D01*
Y027873D02*
X036139Y027877D01*
X036121Y027859D02*
X036130Y027873D01*
X036121Y027850D02*
Y027859D01*
X035981Y027994D02*
X035986Y027976D01*
X035981Y027994D02*
Y028039D01*
X035991Y028061D01*
X035998Y028183D02*
X036016Y028189D01*
X035986Y028174D02*
X035998Y028183D01*
X035984Y028086D02*
X035991Y028077D01*
X036002D01*
X035991Y028061D02*
X036002Y028077D01*
X035977Y028328D02*
X035995Y028287D01*
X035988Y028452D02*
X036016Y028499D01*
X036092Y028380D02*
X036094Y028364D01*
X036103Y028342D01*
X036123Y028324D01*
X036141Y028312D01*
X036168Y028306D01*
X036191D01*
X036132Y028431D02*
X036168Y028434D01*
X036110Y028418D02*
X036132Y028431D01*
X036096Y028396D02*
X036110Y028418D01*
X036092Y028380D02*
X036096Y028396D01*
X035995Y028287D02*
X036018Y028251D01*
X036061Y028224D01*
X036103Y028202D01*
X036139Y028197D01*
X035981Y027909D02*
X035986Y027918D01*
Y027976D02*
X035990Y027967D01*
X035982Y028162D02*
X035986Y028174D01*
X035982Y028097D02*
X035984Y028086D01*
X035973Y028389D02*
X035988Y028452D01*
X035981Y027796D02*
Y027909D01*
X035982Y028097D02*
Y028162D01*
X035973Y028389D02*
X035977Y028328D01*
X036166Y030101D02*
X036220Y030100D01*
X036283Y030078D01*
X036292D02*
X036314D01*
X036332D01*
X036346D01*
X036283D02*
X036307Y030051D01*
X036336Y030020D02*
X036359Y029979D01*
X036370Y029939D01*
Y029878D02*
Y029939D01*
X036359Y029840D02*
X036370Y029878D01*
X036334Y029795D02*
X036359Y029840D01*
X036300Y029763D02*
X036334Y029795D01*
X036255Y029739D02*
X036300Y029763D01*
X036087Y029919D02*
X036091Y029935D01*
X036105Y029957D01*
X036127Y029970D01*
X036163Y029973D01*
X036204Y029971D01*
X036224Y029959D01*
X036242Y029932D01*
X036247Y029905D01*
X036246Y029885D02*
X036247Y029905D01*
X036231Y029862D02*
X036246Y029885D01*
X036213Y029853D02*
X036231Y029862D01*
X036186Y029845D02*
X036213Y029853D01*
X036163Y029845D02*
X036186D01*
X036136Y029851D02*
X036163Y029845D01*
X036118Y029863D02*
X036136Y029851D01*
X036098Y029881D02*
X036118Y029863D01*
X036089Y029903D02*
X036098Y029881D01*
X036087Y029919D02*
X036089Y029903D01*
X036307Y030051D02*
X036336Y030020D01*
X036072Y030079D02*
X036089Y030087D01*
X036098Y030096D01*
X036103Y030105D01*
X036107Y030114D01*
X035982Y030088D02*
X035998Y030079D01*
X036060Y030069D02*
X036091Y030087D01*
X036127Y030101D01*
X036166D01*
X035971Y030103D02*
X035982Y030088D01*
X035968Y030114D02*
X035971Y030103D01*
X035998Y030079D02*
X036067D01*
X036004D02*
X036072D01*
X036057Y029763D02*
X036098Y029741D01*
X036013Y029790D02*
X036057Y029763D01*
X035990Y029826D02*
X036013Y029790D01*
X035983Y029991D02*
X036012Y030038D01*
X036026Y030047D01*
X036060Y030069D01*
X035972Y029867D02*
X035990Y029826D01*
X035968Y029928D02*
X035972Y029867D01*
X035968Y029928D02*
X035983Y029991D01*
X036116Y029362D02*
X036274D01*
X036332D02*
X036381Y029364D01*
X036224Y029727D02*
X036274Y029709D01*
X036220Y029731D02*
X036224Y029727D01*
X036220Y029731D02*
X036242Y029736D01*
X035995Y029722D02*
X036058Y029731D01*
X035986Y029718D02*
X035995Y029722D01*
X035977Y029704D02*
X035986Y029718D01*
X035977Y029641D02*
Y029704D01*
Y029641D02*
X035981Y029628D01*
X035986Y029623D01*
X036157D01*
X036220Y029619D01*
X036233Y029614D01*
X036247Y029605D01*
X036260Y029592D01*
X036265Y029578D01*
Y029542D02*
Y029578D01*
X036260Y029515D02*
X036265Y029542D01*
X036247Y029493D02*
X036260Y029515D01*
X036233Y029479D02*
X036247Y029493D01*
X036215Y029470D02*
X036233Y029479D01*
X036202Y029466D02*
X036215Y029470D01*
X035999Y029466D02*
X036202D01*
X036381Y029364D02*
X036397Y029367D01*
X036361Y029653D02*
X036373Y029632D01*
X036388Y029594D01*
X036395Y029556D01*
X036390Y029517D02*
X036395Y029556D01*
X036372Y029495D02*
X036390Y029517D01*
X036345Y029482D02*
X036372Y029495D01*
X036325Y029475D02*
X036345Y029482D01*
X036325Y029475D02*
X036345Y029495D01*
X036363Y029526D01*
X036366Y029554D01*
X036364Y029589D02*
X036366Y029554D01*
X036345Y029641D02*
X036364Y029589D01*
X036359Y029700D02*
X036368Y029704D01*
X036352Y029680D02*
X036359Y029700D01*
X036352Y029680D02*
X036361Y029653D01*
X036323Y029675D02*
X036345Y029641D01*
X036274Y029709D02*
X036323Y029675D01*
X036409Y029722D02*
X036422D01*
X036368Y029704D02*
X036409Y029722D01*
X036242Y029736D02*
X036255Y029739D01*
X036397Y029367D02*
X036442Y029391D01*
X036467Y029425D01*
X036483Y029477D01*
X036487Y029531D01*
X036490Y029605D01*
X036483Y029652D02*
X036490Y029605D01*
X036469Y029682D02*
X036483Y029652D01*
X036440Y029713D02*
X036469Y029682D01*
X036422Y029722D02*
X036440Y029713D01*
X036269Y029358D02*
X036274Y029362D01*
X036260Y029353D02*
X036269Y029358D01*
X036256Y029349D02*
X036260Y029353D01*
X036251Y029335D02*
X036256Y029349D01*
X036251Y029322D02*
Y029335D01*
Y029322D02*
X036256Y029304D01*
X036269Y029286D01*
X036274Y029272D01*
Y029124D02*
Y029272D01*
X036265Y029110D02*
X036274Y029124D01*
X036256Y029106D02*
X036265Y029110D01*
X036247Y029106D02*
X036256D01*
X036233Y029115D02*
X036247Y029106D01*
X036224Y029133D02*
X036233Y029115D01*
X036206Y029182D02*
X036224Y029133D01*
X036184Y029277D02*
X036206Y029182D01*
X036175Y029304D02*
X036184Y029277D01*
X036161Y029322D02*
X036175Y029304D01*
X036134Y029349D02*
X036161Y029322D01*
X036116Y029362D02*
X036134Y029349D01*
X036008Y029007D02*
X036022Y028998D01*
X036035Y028993D01*
X036049D01*
X036062Y028998D01*
X036071Y029002D01*
X036080Y029011D01*
X036085Y029020D01*
Y029034D01*
X036080Y029052D02*
X036085Y029034D01*
X036076Y029061D02*
X036080Y029052D01*
X036062Y029079D02*
X036076Y029061D01*
X036049Y029110D02*
X036062Y029079D01*
X036044Y029142D02*
X036049Y029110D01*
X036044Y029142D02*
Y029259D01*
X036049Y029268D01*
X036062Y029277D01*
X036085D01*
X036094Y029272D01*
X036103Y029263D01*
X036121Y029218D01*
X036161Y029079D01*
X036170Y029047D01*
X036188Y029025D01*
X036224Y029002D01*
X036251Y028993D01*
X036283D01*
X036319Y029002D01*
X036341Y029016D01*
X036359Y029043D01*
X036368Y029074D01*
X036373Y029313D01*
X036364Y029331D02*
X036373Y029313D01*
X036350Y029349D02*
X036364Y029331D01*
X036332Y029362D02*
X036350Y029349D01*
X036370Y029140D02*
Y029201D01*
X036280Y028992D02*
X036298D01*
X036310Y028994D02*
X036336Y028990D01*
X036354Y028976D01*
X036366Y028958D01*
X036370Y028924D01*
X036363Y028904D02*
X036370Y028924D01*
X036352Y028884D02*
X036363Y028904D01*
X036260Y028989D02*
X036280Y028992D01*
X036233Y028936D02*
X036237Y028960D01*
X036246Y028976D02*
X036260Y028989D01*
X036237Y028960D02*
X036246Y028976D01*
X036233Y028936D02*
X036237Y028911D01*
X036278Y028872D02*
X036307Y028845D01*
X036251Y028888D02*
X036265Y028876D01*
X036219Y028886D02*
X036265Y028876D01*
X036332Y028872D02*
X036352Y028884D01*
X036012Y028832D02*
X036026Y028841D01*
X036060Y028863D01*
X036091Y028881D01*
X036127Y028895D01*
X036166D01*
X036219Y028886D01*
X036237Y028911D02*
X036251Y028888D01*
X036004Y029367D02*
X036035Y029362D01*
X035986Y029376D02*
X036004Y029367D01*
X036058Y029731D02*
X036125D01*
X036130Y029736D01*
X036098Y029741D02*
X036130Y029736D01*
X035986Y029461D02*
X035999Y029466D01*
X035977Y029448D02*
X035977Y029391D01*
X035977Y029448D02*
X035986Y029461D01*
X035977Y029391D02*
X035986Y029376D01*
X036013Y029349D02*
X036035Y029362D01*
X035999Y029335D02*
X036013Y029349D01*
X035986Y029317D02*
X035999Y029335D01*
X035977Y029299D02*
X035986Y029317D01*
X035972Y029281D02*
X035977Y029299D01*
X035972Y029259D02*
Y029281D01*
X035990Y029025D02*
X036008Y029007D01*
X035981Y029038D02*
X035990Y029025D01*
X035977Y029056D02*
X035981Y029038D01*
X035972Y029083D02*
X035977Y029056D01*
X035972Y029083D02*
Y029115D01*
Y029128D02*
Y029259D01*
Y029115D02*
Y029129D01*
X036355Y031015D02*
X036366Y030990D01*
X036341Y031032D02*
X036355Y031015D01*
X036314Y031041D02*
X036341Y031032D01*
X036314Y031041D02*
X036348D01*
X036361Y031046D01*
X036366Y031066D01*
X036190Y031154D02*
X036217Y031161D01*
X036235Y031170D01*
X036249Y031194D01*
X036251Y031213D01*
X036246Y031240D02*
X036251Y031213D01*
X036228Y031267D02*
X036246Y031240D01*
X036208Y031280D02*
X036228Y031267D01*
X036166Y031282D02*
X036208Y031280D01*
X036366Y031066D02*
X036368Y031109D01*
X036363Y031125D02*
X036368Y031109D01*
X036348Y031136D02*
X036363Y031125D01*
X036328Y031136D02*
X036348D01*
X036328D02*
X036334Y031141D01*
X036343Y031149D01*
X036357Y031172D01*
X036368Y031195D01*
Y031242D01*
X036366Y031260D02*
X036368Y031242D01*
X036346Y031309D02*
X036366Y031260D01*
X036321Y031350D02*
X036346Y031309D01*
X035976Y031055D02*
X035981Y031044D01*
X035986Y031041D01*
X036012Y031037D01*
X035994Y031032D02*
X036012Y031037D01*
X035981Y031023D02*
X035994Y031032D01*
X035977Y031010D02*
X035981Y031023D01*
X036091Y031228D02*
X036093Y031212D01*
X036102Y031190D01*
X036121Y031172D01*
X036139Y031159D01*
X036166Y031154D01*
X036190D01*
X036130Y031278D02*
X036166Y031282D01*
X036109Y031266D02*
X036130Y031278D01*
X036094Y031244D02*
X036109Y031266D01*
X036091Y031228D02*
X036094Y031244D01*
X035999Y031329D02*
X036030Y031361D01*
X035986Y031305D02*
X035999Y031329D01*
X035976Y031267D02*
X035986Y031305D01*
X035976Y031185D02*
X035990Y031161D01*
X036012Y031140D01*
X035985D02*
X036012D01*
X035974Y031122D02*
X035985Y031140D01*
X035972Y031228D02*
X035976Y031267D01*
X035972Y031228D02*
X035976Y031185D01*
X035974Y031122D02*
X035976Y031055D01*
X036107Y030352D02*
X036274D01*
X036359Y030303D02*
X036368Y030267D01*
X036337Y030330D02*
X036359Y030303D01*
X036305Y030348D02*
X036337Y030330D01*
X036274Y030352D02*
X036305Y030348D01*
X036352Y030929D02*
X036366Y030949D01*
Y030990D01*
X036204Y030726D02*
X036224Y030713D01*
X036357Y030727D02*
X036370Y030699D01*
X036328Y030783D02*
X036357Y030727D01*
X036301Y030805D02*
X036328Y030783D01*
X036244Y030828D02*
X036301Y030805D01*
X036179Y030839D02*
X036244Y030828D01*
X036130Y030911D02*
X036310D01*
X036323Y030915D01*
X036352Y030929D01*
X036163Y030727D02*
X036204Y030726D01*
X036186Y030600D02*
X036213Y030607D01*
X036231Y030616D01*
X036246Y030639D01*
X036247Y030659D01*
X036242Y030686D02*
X036247Y030659D01*
X036224Y030713D02*
X036242Y030686D01*
X036316Y030474D02*
X036330Y030475D01*
X036341Y030481D01*
X036359Y030495D01*
X036368Y030511D01*
Y030576D01*
X036363Y030583D02*
X036368Y030576D01*
X036352Y030591D02*
X036363Y030583D01*
X036341Y030594D02*
X036352Y030591D01*
X036341Y030594D02*
X036355Y030614D01*
X036366Y030643D01*
X036370Y030699D01*
X036289Y030475D02*
X036310Y030474D01*
X036316D01*
X036080D02*
X036289Y030475D01*
X036080Y030474D02*
X036089Y030469D01*
X036107Y030352D02*
Y030442D01*
X035830Y030249D02*
Y030317D01*
X035839Y030333D01*
X035830Y030238D02*
Y030307D01*
X035859Y030349D02*
X035873Y030352D01*
X035968D01*
X035839Y030333D02*
X035851Y030343D01*
X035859Y030349D01*
X035968Y030352D02*
Y030442D01*
X035986Y030925D02*
X035997D01*
X036127Y030724D02*
X036163Y030727D01*
X036105Y030711D02*
X036127Y030724D01*
X035979Y030934D02*
X035986Y030925D01*
Y030909D02*
X035997Y030925D01*
X035977Y030889D02*
X035986Y030909D01*
X035976Y030861D02*
X035981Y030844D01*
X035986Y030830D01*
X036001Y030817D01*
X036028Y030805D01*
X036003Y030774D02*
X036028Y030805D01*
X035981Y030742D02*
X036003Y030774D01*
X035968Y030702D02*
X035981Y030742D01*
X036107Y030835D02*
X036179Y030839D01*
X036105Y030852D02*
X036107Y030835D01*
X036105Y030852D02*
X036107Y030870D01*
X036116Y030895D01*
X036130Y030911D01*
X036087Y030673D02*
X036089Y030657D01*
X036098Y030636D01*
X036118Y030618D01*
X036136Y030605D01*
X036163Y030600D01*
X036186D01*
X036091Y030690D02*
X036105Y030711D01*
X036087Y030673D02*
X036091Y030690D01*
X035968Y030668D02*
X035981Y030632D01*
X036003Y030610D01*
X035859D02*
X036003D01*
X036103Y030451D02*
X036107Y030442D01*
X036089Y030469D02*
X036098Y030460D01*
X036103Y030451D01*
X035971Y030453D02*
X035982Y030467D01*
X035995Y030474D01*
X035859Y030475D02*
X035995Y030474D01*
X035977Y030945D02*
Y031010D01*
Y030945D02*
X035979Y030934D01*
X035976Y030861D02*
X035977Y030889D01*
X035968Y030668D02*
Y030702D01*
X035853Y030605D02*
X035859Y030610D01*
X035839Y030594D02*
X035853Y030605D01*
X035830Y030578D02*
X035839Y030594D01*
X035830Y030510D02*
Y030578D01*
Y030510D02*
X035833Y030502D01*
X035842Y030488D01*
X035859Y030475D01*
X035968Y030442D02*
X035971Y030453D01*
X036107Y030204D02*
X036220D01*
X036368Y030244D02*
Y030267D01*
Y030159D02*
Y030244D01*
Y030127D02*
Y030159D01*
X036247Y030190D02*
X036251Y030172D01*
X036238Y030199D02*
X036247Y030190D01*
X036220Y030204D02*
X036238Y030199D01*
X036274Y030078D02*
X036292D01*
X036265Y030082D02*
X036274Y030078D01*
X036256Y030091D02*
X036265Y030082D01*
X036252Y030105D02*
X036256Y030091D01*
X036251Y030172D02*
X036252Y030105D01*
X036346Y030078D02*
X036355Y030082D01*
X036364Y030091D01*
X036368Y030105D01*
Y030127D01*
X036107Y030114D02*
Y030204D01*
X035864D02*
X035968D01*
X035851Y030208D02*
X035864Y030204D01*
X035837Y030222D02*
X035851Y030208D01*
X035830Y030238D02*
X035833Y030231D01*
X035837Y030222D01*
X035968Y030114D02*
Y030204D01*
X036390Y032601D02*
X036418Y032612D01*
X036364Y032513D02*
Y032551D01*
X036354Y032565D02*
X036364Y032551D01*
X036339Y032578D02*
X036354Y032565D01*
X036337Y032596D02*
X036339Y032578D01*
X036337Y032596D02*
X036390Y032601D01*
X036219Y032218D02*
Y032333D01*
X036226Y032335D01*
X036251Y032322D01*
Y032241D02*
Y032322D01*
X036366Y032257D02*
X036370Y032313D01*
X036359Y032371D02*
X036370Y032313D01*
X036334Y032409D02*
X036359Y032371D01*
X036310Y032437D02*
X036334Y032409D01*
X036267Y032455D02*
X036310Y032437D01*
X036231Y032470D02*
X036267Y032455D01*
X036231Y032470D02*
X036330D01*
X036354Y032486D01*
X036364Y032513D01*
X035997Y032608D02*
X036015Y032601D01*
X036111Y032598D01*
X035866D02*
X036111D01*
X036125Y032218D02*
Y032353D01*
X036123D02*
X036125D01*
X036114Y032351D02*
X036123Y032353D01*
X036100Y032342D02*
X036114Y032351D01*
X036084Y032320D02*
X036100Y032342D01*
X036082Y032290D02*
X036084Y032320D01*
X035988Y032378D02*
X036024Y032418D01*
X035974Y032338D02*
X035988Y032378D01*
X035871Y032468D02*
X036102D01*
X036062Y032452D02*
X036102Y032468D01*
X036024Y032418D02*
X036062Y032452D01*
X036082Y032290D02*
X036089Y032261D01*
X036103Y032238D01*
X035855Y032594D02*
X035866Y032598D01*
X035841Y032581D02*
X035855Y032594D01*
X035832Y032569D02*
X035841Y032581D01*
X035832Y032497D02*
Y032569D01*
X035974Y032338D02*
X035976Y032234D01*
X035832Y032497D02*
X035833Y032490D01*
X035844Y032477D01*
X035871Y032468D01*
X036190Y031860D02*
X036217Y031867D01*
X036235Y031876D01*
X036249Y031899D01*
X036251Y031919D01*
X036246Y031946D02*
X036251Y031919D01*
X036228Y031973D02*
X036246Y031946D01*
X036361Y031852D02*
X036370Y031879D01*
Y031942D01*
X036363Y031960D02*
X036370Y031942D01*
X036343Y031989D02*
X036363Y031960D01*
X036208Y031986D02*
X036228Y031973D01*
X036166Y031987D02*
X036208Y031986D01*
X036337Y032005D02*
X036343Y031989D01*
X036337Y032005D02*
X036359Y032009D01*
X036366Y032025D01*
Y032063D01*
X036346Y032090D02*
X036366Y032063D01*
X036325Y032110D02*
X036346Y032090D01*
X036188Y032110D02*
X036325D01*
X036188D02*
X036201Y032131D01*
X036210Y032171D01*
X036219Y032218D01*
X036229Y032196D02*
X036251Y032241D01*
X036222Y032176D02*
X036229Y032196D01*
X036222Y032142D02*
Y032176D01*
Y032142D02*
X036237Y032122D01*
X036294Y032124D01*
X036316Y032137D01*
X036336Y032167D01*
X036355Y032205D01*
X036366Y032257D01*
X036091Y031933D02*
X036093Y031917D01*
X036102Y031896D01*
X036121Y031878D01*
X036139Y031865D01*
X036166Y031860D01*
X036094Y031950D02*
X036109Y031971D01*
X036091Y031933D02*
X036094Y031950D01*
X035976Y031881D02*
X035986Y031851D01*
X035972Y031946D02*
X035977Y031969D01*
X035970Y031919D02*
X035972Y031946D01*
X035970Y031919D02*
X035976Y031881D01*
X036130Y031984D02*
X036166Y031987D01*
X036109Y031971D02*
X036130Y031984D01*
X036123Y032220D02*
X036125Y032218D01*
X036103Y032238D02*
X036123Y032220D01*
X035976Y032234D02*
X035986Y032211D01*
X036004Y032184D01*
X036035Y032149D01*
X036089Y032121D01*
X036134Y032110D01*
X035873D02*
X036134D01*
X035977Y031969D02*
X035981Y031977D01*
X035873D02*
X035981D01*
X035855Y032103D02*
X035873Y032110D01*
X035839Y032090D02*
X035855Y032103D01*
X035830Y032077D02*
X035839Y032090D01*
X035830Y032002D02*
Y032077D01*
Y032002D02*
X035833Y031996D01*
X035851Y031982D01*
X035873Y031977D01*
X036278Y031734D02*
X036327Y031694D01*
X036190Y031505D02*
X036217Y031512D01*
X036235Y031521D01*
X036249Y031545D01*
X036251Y031564D01*
X036246Y031591D02*
X036251Y031564D01*
X036228Y031618D02*
X036246Y031591D01*
X036208Y031631D02*
X036228Y031618D01*
X036166Y031633D02*
X036208Y031631D01*
X036283Y031375D02*
X036321Y031350D01*
X036233Y031399D02*
X036283Y031375D01*
X036233Y031399D02*
X036282Y031419D01*
X036321Y031446D01*
X036355Y031491D01*
X036368Y031530D01*
Y031600D01*
X036355Y031651D02*
X036368Y031600D01*
X036327Y031694D02*
X036355Y031651D01*
X036251Y031748D02*
X036278Y031734D01*
X036251Y031748D02*
X036274Y031762D01*
X036312Y031780D01*
X036336Y031806D01*
X036361Y031852D01*
X036040Y031712D02*
X036076Y031732D01*
X036091Y031579D02*
X036093Y031563D01*
X036102Y031541D01*
X036121Y031523D01*
X036139Y031510D01*
X036166Y031505D01*
X036190D01*
X036130Y031629D02*
X036166Y031633D01*
X036109Y031617D02*
X036130Y031629D01*
X036094Y031595D02*
X036109Y031617D01*
X036091Y031579D02*
X036094Y031595D01*
X036008Y031681D02*
X036040Y031712D01*
X035981Y031636D02*
X036008Y031681D01*
X035976Y031599D02*
X035981Y031636D01*
X035976Y031539D02*
X035985Y031500D01*
X036010Y031462D01*
X036035Y031433D01*
X036082Y031410D01*
X036111Y031402D01*
X036076Y031393D02*
X036111Y031402D01*
X036053Y031381D02*
X036076Y031393D01*
X036030Y031361D02*
X036053Y031381D01*
X036166Y031860D02*
X036190D01*
X035986Y031851D02*
X036003Y031818D01*
X036031Y031780D01*
X036066Y031757D01*
X036102Y031743D01*
X036076Y031732D02*
X036102Y031743D01*
X035976Y031539D02*
Y031599D01*
X036219Y033386D02*
Y033523D01*
X036238Y033516D01*
X036249Y033501D01*
X036364Y033523D02*
X036368Y033496D01*
X036332Y033591D02*
X036364Y033523D01*
X036188Y033753D02*
X036215Y033760D01*
X036233Y033769D01*
X036301Y033622D02*
X036332Y033591D01*
X036276Y033638D02*
X036301Y033622D01*
X036253Y033649D02*
X036276Y033638D01*
X036253Y033649D02*
X036269Y033654D01*
X036300Y033672D01*
X036330Y033694D01*
X036346Y033715D01*
X036354Y033728D01*
X036363Y033746D01*
X036368Y033762D01*
X036233Y033769D02*
X036247Y033793D01*
X036249Y033813D01*
X036244Y033840D02*
X036249Y033813D01*
X036226Y033867D02*
X036244Y033840D01*
X036125Y033417D02*
Y033535D01*
X036103Y033525D02*
X036125Y033535D01*
X036085Y033510D02*
X036103Y033525D01*
X036082Y033487D02*
X036085Y033510D01*
X035974Y033498D02*
X035986Y033552D01*
X036120Y033771D02*
X036138Y033759D01*
X036165Y033753D01*
X036188D01*
X035976Y033759D02*
X035988Y033726D01*
X036015Y033687D01*
X036062Y033661D01*
X036103Y033651D01*
X036066Y033634D02*
X036103Y033651D01*
X036019Y033602D02*
X036066Y033634D01*
X035986Y033552D02*
X036019Y033602D01*
X036089Y033827D02*
X036091Y033811D01*
X036100Y033789D01*
X036120Y033771D01*
X036093Y033843D02*
X036107Y033865D01*
X036089Y033827D02*
X036093Y033843D01*
X035976Y033759D02*
Y033832D01*
X036249Y033444D02*
Y033501D01*
X036368Y033422D02*
Y033496D01*
X036082Y033487D02*
X036087Y033449D01*
X036103Y033426D01*
X035974Y033498D02*
X035977Y033426D01*
X036215Y033069D02*
X036233Y033078D01*
X036393Y032949D02*
X036422Y032950D01*
X036188Y033062D02*
X036215Y033069D01*
X036190Y032716D02*
X036217Y032724D01*
X036235Y032733D01*
X036249Y032756D01*
X036251Y032776D01*
X036246Y032803D02*
X036251Y032776D01*
X036228Y032830D02*
X036246Y032803D01*
X036208Y032842D02*
X036228Y032830D01*
X036166Y032844D02*
X036208Y032842D01*
X036375Y032936D02*
X036393Y032949D01*
X036361Y032918D02*
X036375Y032936D01*
X036357Y032904D02*
X036361Y032918D01*
X036357Y032904D02*
X036359Y032893D01*
X036379Y032864D01*
X036391Y032823D01*
X036393Y032788D01*
X036390Y032760D02*
X036393Y032788D01*
X036373Y032738D02*
X036390Y032760D01*
X036348Y032725D02*
X036373Y032738D01*
X036348Y032725D02*
X036357Y032751D01*
X036368Y032778D01*
Y032819D01*
X036346Y032871D02*
X036368Y032819D01*
X036334Y032896D02*
X036346Y032871D01*
X036305Y032923D02*
X036334Y032896D01*
X036264Y032943D02*
X036305Y032923D01*
X036264Y032943D02*
X036327Y032950D01*
X036352Y032958D01*
X036361Y032970D01*
X036368Y032983D01*
Y033031D01*
X036364Y033042D02*
X036368Y033031D01*
X036354Y033049D02*
X036364Y033042D01*
X036341Y033051D02*
X036354Y033049D01*
X036341Y033051D02*
X036352Y033064D01*
X036418Y032612D02*
X036454Y032641D01*
X036481Y032675D01*
X036490Y032700D01*
Y032855D01*
X036480Y032902D02*
X036490Y032855D01*
X036456Y032940D02*
X036480Y032902D01*
X036422Y032950D02*
X036456Y032940D01*
X036233Y033078D02*
X036247Y033102D01*
X036249Y033121D01*
X036244Y033148D02*
X036249Y033121D01*
X036226Y033175D02*
X036244Y033148D01*
X036206Y033188D02*
X036226Y033175D01*
X036165Y033190D02*
X036206Y033188D01*
X036352Y033064D02*
X036368Y033107D01*
Y033156D01*
X036357Y033208D02*
X036368Y033156D01*
X036321Y033260D02*
X036357Y033208D01*
X036285Y033291D02*
X036321Y033260D01*
X036247Y033309D02*
X036285Y033291D01*
X036199Y033318D02*
X036247Y033309D01*
X036199Y033318D02*
X036202Y033323D01*
X036213Y033355D01*
X036219Y033386D01*
X036238Y033400D02*
X036249Y033444D01*
X036228Y033359D02*
X036238Y033400D01*
X036228Y033359D02*
X036229Y033341D01*
X036240Y033327D01*
X036258Y033312D01*
X036278Y033307D01*
X036300D01*
X036334Y033336D01*
X036359Y033384D01*
X036368Y033422D01*
X036120Y033080D02*
X036138Y033067D01*
X035985Y033071D02*
X036017Y033042D01*
X036138Y033067D02*
X036165Y033062D01*
X036188D01*
X036091Y032790D02*
X036093Y032774D01*
X036102Y032752D01*
X036121Y032734D01*
X036139Y032722D01*
X036166Y032716D01*
X036190D01*
X036130Y032841D02*
X036166Y032844D01*
X036109Y032828D02*
X036130Y032841D01*
X036094Y032806D02*
X036109Y032828D01*
X036091Y032790D02*
X036094Y032806D01*
X035995Y033042D02*
X036017D01*
X035985Y033035D02*
X035995Y033042D01*
X035977Y033024D02*
X035985Y033035D01*
X035977Y032972D02*
X035981Y032961D01*
X035992Y032950D01*
X036003Y032945D01*
X036109D01*
X036075Y032936D02*
X036109Y032945D01*
X036040Y032918D02*
X036075Y032936D01*
X036017Y032902D02*
X036040Y032918D01*
X035995Y032878D02*
X036017Y032902D01*
X035981Y032850D02*
X035995Y032878D01*
X035976Y032812D02*
X035981Y032850D01*
X035977Y032742D02*
X035992Y032722D01*
X036015Y032709D01*
X035997Y032707D02*
X036015Y032709D01*
X035986Y032702D02*
X035997Y032707D01*
X035977Y032689D02*
X035986Y032702D01*
X035977Y032632D02*
X035986Y032621D01*
X035997Y032608D01*
X036089Y033136D02*
X036091Y033120D01*
X036100Y033098D01*
X036120Y033080D01*
X036129Y033186D02*
X036165Y033190D01*
X036107Y033174D02*
X036129Y033186D01*
X036093Y033152D02*
X036107Y033174D01*
X036089Y033136D02*
X036093Y033152D01*
X036103Y033426D02*
X036125Y033417D01*
X035977Y033426D02*
X035986Y033399D01*
X036004Y033370D01*
X036030Y033336D01*
X036066Y033316D01*
X036107Y033303D01*
X036080Y033294D02*
X036107Y033303D01*
X036030Y033265D02*
X036080Y033294D01*
X035995Y033229D02*
X036030Y033265D01*
X035979Y033193D02*
X035995Y033229D01*
X035976Y033102D02*
X035985Y033071D01*
X035977Y032972D02*
Y033024D01*
X035972Y032778D02*
X035976Y032812D01*
X035972Y032778D02*
X035977Y032742D01*
Y032632D02*
Y032689D01*
X035972Y033150D02*
X035979Y033193D01*
X035972Y033150D02*
X035976Y033102D01*
X036313Y034425D02*
X036328Y034427D01*
X036345D01*
X036371Y034420D01*
X036405Y034410D01*
X036412Y034415D01*
Y034437D01*
X036395Y034499D02*
X036412Y034437D01*
X036371Y034552D02*
X036395Y034499D01*
X036366Y034600D02*
X036371Y034552D01*
X036357Y034645D02*
X036366Y034600D01*
X036357Y034645D02*
X036378Y034686D01*
X036409Y034737D01*
X036405Y034833D02*
X036409Y034737D01*
X036345Y034847D02*
X036405Y034833D01*
X036337Y034871D02*
X036345Y034847D01*
X036325Y034909D02*
X036337Y034871D01*
X036285Y034962D02*
X036325Y034909D01*
X036237Y034989D02*
X036285Y034962D01*
X036179Y034996D02*
X036237Y034989D01*
X036129Y034991D02*
X036179Y034996D01*
X036066Y034977D02*
X036129Y034991D01*
X035997Y034950D02*
X036066Y034977D01*
X035944Y034926D02*
X035997Y034950D01*
X035903Y034907D02*
X035944Y034926D01*
X035855Y034885D02*
X035903Y034907D01*
X035821Y034869D02*
X035855Y034885D01*
X035809Y034849D02*
X035821Y034869D01*
X036337Y034811D02*
X036345Y034847D01*
X036328Y034768D02*
X036337Y034811D01*
X036311Y034751D02*
X036328Y034768D01*
X036270Y034734D02*
X036311Y034751D01*
X036193Y034725D02*
X036270Y034734D01*
X036143Y034727D02*
X036193Y034725D01*
X036102Y034713D02*
X036143Y034727D01*
X036071Y034713D02*
X036102D01*
X036006Y034720D02*
X036071Y034713D01*
X035949Y034729D02*
X036006Y034720D01*
X035869Y034751D02*
X035949Y034729D01*
X035826Y034794D02*
X035869Y034751D01*
X035809Y034835D02*
X035826Y034794D01*
X035809Y034835D02*
Y034852D01*
X035752Y034782D02*
X035809Y034845D01*
X035713Y034708D02*
X035752Y034782D01*
X035697Y034633D02*
X035713Y034708D01*
X035694Y034571D02*
X035697Y034633D01*
X035694Y034571D02*
X035709Y034504D01*
X035740Y034437D01*
X035783Y034396D01*
X035853Y034362D01*
X035896Y034350D01*
X035925Y034307D01*
X035949Y034257D01*
X035999Y034175D01*
X036023Y034137D01*
X036078Y034120D01*
X036114Y034132D01*
X036150Y034153D01*
X036160Y034185D01*
Y034237D01*
X036145Y034281D02*
X036160Y034237D01*
X036107Y034317D02*
X036145Y034281D01*
X036061Y034319D02*
X036107Y034317D01*
X036030Y034302D02*
X036061Y034319D01*
X036013Y034266D02*
X036030Y034302D01*
X036004Y034230D02*
X036013Y034266D01*
X035999Y034173D02*
X036004Y034230D01*
X036277Y034302D02*
X036292Y034317D01*
X036299Y034338D01*
X036306Y034381D01*
X036316Y034446D01*
Y034482D01*
X036321Y034542D01*
X036273Y034509D02*
X036275Y034475D01*
X036265Y034446D02*
X036275Y034475D01*
X036256Y034444D02*
X036265Y034446D01*
X036237Y034252D02*
X036249Y034230D01*
X036273Y034197D01*
X036297Y034185D01*
X036318Y034180D01*
X036150Y034153D02*
X036184Y034163D01*
X036201Y034177D01*
X036205Y034223D01*
Y034266D01*
X036215Y034302D01*
Y034355D01*
X036241Y034439D01*
X036251Y034453D01*
X036263Y034427D01*
X036270Y034350D01*
X036282Y034276D01*
X036304Y034249D01*
X036345Y034237D01*
X036373Y034218D01*
X036383Y034192D01*
X036376Y034161D02*
X036383Y034192D01*
X036354Y034137D02*
X036376Y034161D01*
X036323Y034125D02*
X036354Y034137D01*
X036294Y034120D02*
X036323Y034125D01*
X036263Y034129D02*
X036294Y034120D01*
X036241Y034149D02*
X036263Y034129D01*
X036217Y034180D02*
X036241Y034149D01*
X036205Y034223D02*
X036217Y034180D01*
X035970Y034305D02*
X036011Y034261D01*
X035939Y034365D02*
X035970Y034305D01*
X035927Y034427D02*
X035939Y034365D01*
X035893Y034470D02*
X035927Y034427D01*
X035869Y034499D02*
X035893Y034470D01*
X035869Y034499D02*
X035925D01*
X035963Y034489D01*
X035982Y034492D01*
X036004Y034528D01*
X036049Y034561D01*
X036095Y034578D01*
X036157D01*
X036196Y034564D01*
X036229Y034542D01*
X036273Y034509D01*
X036368Y033762D02*
Y033969D01*
X036363Y033984D02*
X036368Y033969D01*
X036355Y033994D02*
X036363Y033984D01*
X036348Y034000D02*
X036355Y033994D01*
X035846Y034000D02*
X036348D01*
X036206Y033879D02*
X036226Y033867D01*
X036165Y033881D02*
X036206Y033879D01*
X035880Y034594D02*
X035885Y034574D01*
X035880Y034594D02*
X035902Y034619D01*
X035919Y034630D01*
X035932Y034657D01*
X035965Y034599D01*
X035950Y034568D02*
X035965Y034599D01*
X035926Y034559D02*
X035950Y034568D01*
X035898Y034557D02*
X035926Y034559D01*
X035885Y034574D02*
X035898Y034557D01*
X035846Y034418D02*
X035854Y034402D01*
X035846Y034418D02*
X035850Y034432D01*
X035869Y034449D01*
X035887Y034453D01*
X035905Y034444D01*
X035916Y034436D01*
X035912Y034404D02*
X035916Y034436D01*
X035901Y034389D02*
X035912Y034404D01*
X035885Y034378D02*
X035901Y034389D01*
X035874Y034374D02*
X035885Y034378D01*
X035858Y034381D02*
X035874Y034374D01*
X035854Y034402D02*
X035858Y034381D01*
X036129Y033877D02*
X036165Y033881D01*
X036107Y033865D02*
X036129Y033877D01*
X035992Y033879D02*
Y033881D01*
X035976Y033832D02*
X035992Y033879D01*
X035844Y033881D02*
X035992D01*
X035837Y033998D02*
X035846Y034000D01*
X035828Y033984D02*
X035837Y033998D01*
X035828Y033910D02*
Y033984D01*
Y033910D02*
X035833Y033894D01*
X035844Y033881D01*
G54D150*
X047523Y031330D02*
D03*
G54D151*
X026639Y037600D02*
D03*
M02*
