%FSAX24Y24*%
%MOIN*%
G70*
G01*
G75*
%ADD10C,0.0060*%
%ADD11C,0.0394*%
%ADD12R,0.0374X0.0394*%
%ADD13R,0.0394X0.0374*%
%ADD14R,0.0630X0.0500*%
%ADD15R,0.0500X0.0630*%
%ADD16R,0.0787X0.0787*%
%ADD17R,0.0850X0.1080*%
%ADD18R,0.0512X0.0728*%
%ADD19R,0.0276X0.0276*%
%ADD20R,0.0276X0.0276*%
%ADD21R,0.0236X0.0315*%
%ADD22R,0.0315X0.0236*%
%ADD23R,0.0728X0.0512*%
%ADD24R,0.0600X0.1000*%
%ADD25R,0.0591X0.1102*%
%ADD26R,0.0550X0.0450*%
%ADD27O,0.0669X0.0118*%
%ADD28R,0.0681X0.0748*%
%ADD29R,0.1654X0.1181*%
%ADD30O,0.0138X0.0669*%
%ADD31R,0.0500X0.1200*%
%ADD32R,0.0787X0.0787*%
%ADD33R,0.0220X0.0200*%
%ADD34R,0.0866X0.0236*%
%ADD35R,0.0866X0.0236*%
%ADD36R,0.0272X0.0390*%
%ADD37R,0.0965X0.0748*%
%ADD38R,0.0160X0.0250*%
%ADD39R,0.0197X0.0161*%
%ADD40R,0.0630X0.0118*%
%ADD41O,0.0630X0.0118*%
%ADD42C,0.0200*%
%ADD43C,0.0070*%
%ADD44C,0.0080*%
%ADD45C,0.0120*%
%ADD46C,0.0250*%
%ADD47C,0.0100*%
%ADD48C,0.0500*%
%ADD49C,0.0030*%
%ADD50C,0.0040*%
%ADD51C,0.0600*%
%ADD52C,0.1750*%
%ADD53R,0.0600X0.0600*%
%ADD54R,0.0600X0.0600*%
%ADD55C,0.0750*%
%ADD56R,0.0750X0.0750*%
%ADD57C,0.0800*%
%ADD58R,0.0800X0.0800*%
%ADD59C,0.0591*%
%ADD60R,0.0591X0.0591*%
%ADD61R,0.0550X0.0550*%
%ADD62C,0.0550*%
%ADD63R,0.0550X0.0550*%
%ADD64R,0.0591X0.0591*%
%ADD65C,0.0200*%
%ADD66C,0.0160*%
%ADD67C,0.0400*%
%ADD68C,0.0850*%
%ADD69C,0.0520*%
%ADD70C,0.0554*%
%ADD71C,0.0300*%
%ADD72R,0.1575X0.0630*%
%ADD73R,0.0200X0.0220*%
%ADD74R,0.0236X0.0591*%
%ADD75R,0.0591X0.0236*%
%ADD76R,0.1142X0.2126*%
%ADD77R,0.0701X0.1402*%
%ADD78R,0.0902X0.0673*%
%ADD79R,0.0134X0.0256*%
%ADD80R,0.0134X0.0315*%
%ADD81R,0.1260X0.0630*%
%ADD82R,0.1100X0.1500*%
%ADD83C,0.0050*%
%ADD84C,0.0098*%
%ADD85C,0.0079*%
%ADD86R,0.0200X0.1240*%
%ADD87R,0.0200X0.1640*%
%ADD88R,0.1240X0.0200*%
%ADD89C,0.0000*%
%ADD90R,0.0925X0.0709*%
%ADD91C,0.0787*%
%ADD92R,0.0454X0.0474*%
%ADD93R,0.0474X0.0454*%
%ADD94R,0.0710X0.0580*%
%ADD95R,0.0580X0.0710*%
%ADD96R,0.0867X0.0867*%
%ADD97R,0.0930X0.1160*%
%ADD98R,0.0592X0.0808*%
%ADD99R,0.0356X0.0356*%
%ADD100R,0.0356X0.0356*%
%ADD101R,0.0316X0.0395*%
%ADD102R,0.0395X0.0316*%
%ADD103R,0.0808X0.0592*%
%ADD104R,0.0680X0.1080*%
%ADD105R,0.0671X0.1182*%
%ADD106R,0.0630X0.0530*%
%ADD107O,0.0749X0.0198*%
%ADD108R,0.0761X0.0828*%
%ADD109R,0.1734X0.1261*%
%ADD110O,0.0218X0.0749*%
%ADD111R,0.0580X0.1280*%
%ADD112R,0.0867X0.0867*%
%ADD113R,0.0300X0.0280*%
%ADD114R,0.0946X0.0316*%
%ADD115R,0.0946X0.0316*%
%ADD116R,0.0352X0.0470*%
%ADD117R,0.1025X0.0808*%
%ADD118R,0.0200X0.0290*%
%ADD119R,0.0257X0.0221*%
%ADD120R,0.0710X0.0198*%
%ADD121O,0.0710X0.0198*%
%ADD122C,0.0680*%
%ADD123C,0.1830*%
%ADD124R,0.0680X0.0680*%
%ADD125C,0.0830*%
%ADD126R,0.0830X0.0830*%
%ADD127C,0.0880*%
%ADD128R,0.0880X0.0880*%
%ADD129C,0.0671*%
%ADD130R,0.0671X0.0671*%
%ADD131R,0.0630X0.0630*%
%ADD132C,0.0630*%
%ADD133R,0.0630X0.0630*%
%ADD134R,0.0671X0.0671*%
%ADD135R,0.1655X0.0710*%
%ADD136R,0.0280X0.0300*%
%ADD137R,0.0316X0.0671*%
%ADD138R,0.0671X0.0316*%
%ADD139R,0.1222X0.2206*%
%ADD140R,0.0781X0.1482*%
%ADD141R,0.0982X0.0753*%
%ADD142R,0.0214X0.0336*%
%ADD143R,0.0214X0.0395*%
%ADD144R,0.1340X0.0710*%
%ADD145R,0.1180X0.1580*%
%ADD146C,0.0280*%
%ADD147C,0.0010*%
%ADD148C,0.0020*%
%ADD149C,0.0036*%
%ADD150R,0.0132X0.0182*%
%ADD151R,0.0200X0.2470*%
%ADD152C,0.0039*%
%ADD153C,0.0464*%
%ADD154C,0.0067*%
%ADD155C,0.0073*%
%ADD156C,0.0181*%
%ADD157C,0.0082*%
%ADD158C,0.0073*%
%ADD159C,0.0113*%
%ADD160C,0.0076*%
%ADD161C,0.0099*%
%ADD162C,0.0160*%
G54D83*
X042450Y032300D02*
X042850D01*
X042650Y032100D02*
Y032500D01*
X030900Y036100D02*
X031300D01*
X031100Y035900D02*
Y036300D01*
X030150Y036100D02*
X030550D01*
X030350Y035900D02*
Y036300D01*
X027925Y039850D02*
X029175D01*
X028550Y039225D02*
Y040475D01*
X043350Y021350D02*
X043750D01*
X043550Y021150D02*
Y021550D01*
X043350Y020350D02*
X043750D01*
X043550Y020150D02*
Y020550D01*
X044350Y020350D02*
X044750D01*
X044550Y020150D02*
Y020550D01*
X044350Y021350D02*
X044750D01*
X044550Y021150D02*
Y021550D01*
X046350Y020350D02*
X046750D01*
X046550Y020150D02*
Y020550D01*
X052350Y020350D02*
X052750D01*
X052550Y020150D02*
Y020550D01*
X049350Y020350D02*
X049750D01*
X049550Y020150D02*
Y020550D01*
X051350Y021350D02*
X051750D01*
X051550Y021150D02*
Y021550D01*
X046350Y021350D02*
X046750D01*
X046550Y021150D02*
Y021550D01*
X030350Y020350D02*
X030750D01*
X030550Y020150D02*
Y020550D01*
X030350Y021350D02*
X030750D01*
X030550Y021150D02*
Y021550D01*
X052350Y021350D02*
X052750D01*
X052550Y021150D02*
Y021550D01*
X051350Y020350D02*
X051750D01*
X051550Y020150D02*
Y020550D01*
X050350Y020350D02*
X050750D01*
X050550Y020150D02*
Y020550D01*
X050350Y021350D02*
X050750D01*
X050550Y021150D02*
Y021550D01*
X048350Y020350D02*
X048750D01*
X048550Y020150D02*
Y020550D01*
X049350Y021350D02*
X049750D01*
X049550Y021150D02*
Y021550D01*
X045350Y020350D02*
X045750D01*
X045550Y020150D02*
Y020550D01*
X048350Y021350D02*
X048750D01*
X048550Y021150D02*
Y021550D01*
X047350Y020350D02*
X047750D01*
X047550Y020150D02*
Y020550D01*
X045350Y021350D02*
X045750D01*
X045550Y021150D02*
Y021550D01*
X047350Y021350D02*
X047750D01*
X047550Y021150D02*
Y021550D01*
X038350Y020350D02*
X038750D01*
X038550Y020150D02*
Y020550D01*
X037350Y021350D02*
X037750D01*
X037550Y021150D02*
Y021550D01*
X037350Y020350D02*
X037750D01*
X037550Y020150D02*
Y020550D01*
X035350Y020350D02*
X035750D01*
X035550Y020150D02*
Y020550D01*
X036350Y021350D02*
X036750D01*
X036550Y021150D02*
Y021550D01*
X035350Y021350D02*
X035750D01*
X035550Y021150D02*
Y021550D01*
X039350Y020350D02*
X039750D01*
X039550Y020150D02*
Y020550D01*
X036350Y020350D02*
X036750D01*
X036550Y020150D02*
Y020550D01*
X038350Y021350D02*
X038750D01*
X038550Y021150D02*
Y021550D01*
X042350Y021350D02*
X042750D01*
X042550Y021150D02*
Y021550D01*
X040350Y020350D02*
X040750D01*
X040550Y020150D02*
Y020550D01*
X039350Y021350D02*
X039750D01*
X039550Y021150D02*
Y021550D01*
X034350Y020350D02*
X034750D01*
X034550Y020150D02*
Y020550D01*
X033350Y020350D02*
X033750D01*
X033550Y020150D02*
Y020550D01*
X032350Y020350D02*
X032750D01*
X032550Y020150D02*
Y020550D01*
X041350Y021350D02*
X041750D01*
X041550Y021150D02*
Y021550D01*
X040350Y021350D02*
X040750D01*
X040550Y021150D02*
Y021550D01*
X031350Y020350D02*
X031750D01*
X031550Y020150D02*
Y020550D01*
X032350Y021350D02*
X032750D01*
X032550Y021150D02*
Y021550D01*
X041350Y020350D02*
X041750D01*
X041550Y020150D02*
Y020550D01*
X031350Y021350D02*
X031750D01*
X031550Y021150D02*
Y021550D01*
X042350Y020350D02*
X042750D01*
X042550Y020150D02*
Y020550D01*
X033350Y021350D02*
X033750D01*
X033550Y021150D02*
Y021550D01*
X034350Y021350D02*
X034750D01*
X034550Y021150D02*
Y021550D01*
X053925Y038600D02*
X055175D01*
X054550Y037975D02*
Y039225D01*
X053925Y022100D02*
X055175D01*
X054550Y021475D02*
Y022725D01*
X031950Y022550D02*
X032350D01*
X032150Y022350D02*
Y022750D01*
X031950Y023550D02*
X032350D01*
X032150Y023350D02*
Y023750D01*
X031950Y024550D02*
X032350D01*
X032150Y024350D02*
Y024750D01*
X031950Y025550D02*
X032350D01*
X032150Y025350D02*
Y025750D01*
X031950Y026550D02*
X032350D01*
X032150Y026350D02*
Y026750D01*
X031950Y027550D02*
X032350D01*
X032150Y027350D02*
Y027750D01*
X050950Y022550D02*
X051350D01*
X051150Y022350D02*
Y022750D01*
X050950Y023550D02*
X051350D01*
X051150Y023350D02*
Y023750D01*
X050950Y024550D02*
X051350D01*
X051150Y024350D02*
Y024750D01*
X050950Y025550D02*
X051350D01*
X051150Y025350D02*
Y025750D01*
X050950Y026550D02*
X051350D01*
X051150Y026350D02*
Y026750D01*
X050950Y027550D02*
X051350D01*
X051150Y027350D02*
Y027750D01*
X050950Y028550D02*
X051350D01*
X051150Y028350D02*
Y028750D01*
X050950Y029550D02*
X051350D01*
X051150Y029350D02*
Y029750D01*
X052750Y027750D02*
X053150D01*
X052950Y027550D02*
Y027950D01*
X052750Y028750D02*
X053150D01*
X052950Y028550D02*
Y028950D01*
X052750Y029750D02*
X053150D01*
X052950Y029550D02*
Y029950D01*
X052750Y033000D02*
X053150D01*
X052950Y032800D02*
Y033200D01*
X052750Y032000D02*
X053150D01*
X052950Y031800D02*
Y032200D01*
X052750Y031000D02*
X053150D01*
X052950Y030800D02*
Y031200D01*
X052727Y034227D02*
X053127D01*
X052927Y034027D02*
Y034427D01*
X052727Y035227D02*
X053127D01*
X052927Y035027D02*
Y035427D01*
X052727Y036227D02*
X053127D01*
X052927Y036027D02*
Y036427D01*
X023325Y027000D02*
X023975D01*
X023650Y026675D02*
Y027325D01*
X023325Y025450D02*
X023975D01*
X023650Y025125D02*
Y025775D01*
X023325Y022550D02*
X023975D01*
X023650Y022225D02*
Y022875D01*
X023325Y024100D02*
X023975D01*
X023650Y023775D02*
Y024425D01*
X038040Y023300D02*
X038360D01*
X038200Y023140D02*
Y023460D01*
X038040Y024300D02*
X038360D01*
X038200Y024140D02*
Y024460D01*
X038040Y025300D02*
X038360D01*
X038200Y025140D02*
Y025460D01*
X038040Y026300D02*
X038360D01*
X038200Y026140D02*
Y026460D01*
X038040Y027300D02*
X038360D01*
X038200Y027140D02*
Y027460D01*
X038040Y028300D02*
X038360D01*
X038200Y028140D02*
Y028460D01*
X038040Y029300D02*
X038360D01*
X038200Y029140D02*
Y029460D01*
X038040Y030300D02*
X038360D01*
X038200Y030140D02*
Y030460D01*
X038040Y031300D02*
X038360D01*
X038200Y031140D02*
Y031460D01*
X038040Y032300D02*
X038360D01*
X038200Y032140D02*
Y032460D01*
X038040Y033300D02*
X038360D01*
X038200Y033140D02*
Y033460D01*
X038040Y034300D02*
X038360D01*
X038200Y034140D02*
Y034460D01*
X038040Y035300D02*
X038360D01*
X038200Y035140D02*
Y035460D01*
X038040Y036300D02*
X038360D01*
X038200Y036140D02*
Y036460D01*
X041040Y023300D02*
X041360D01*
X041200Y023140D02*
Y023460D01*
X041040Y024300D02*
X041360D01*
X041200Y024140D02*
Y024460D01*
X041040Y025300D02*
X041360D01*
X041200Y025140D02*
Y025460D01*
X041040Y026300D02*
X041360D01*
X041200Y026140D02*
Y026460D01*
X041040Y027300D02*
X041360D01*
X041200Y027140D02*
Y027460D01*
X041040Y028300D02*
X041360D01*
X041200Y028140D02*
Y028460D01*
X041040Y029300D02*
X041360D01*
X041200Y029140D02*
Y029460D01*
X041040Y030300D02*
X041360D01*
X041200Y030140D02*
Y030460D01*
X041040Y031300D02*
X041360D01*
X041200Y031140D02*
Y031460D01*
X041040Y032300D02*
X041360D01*
X041200Y032140D02*
Y032460D01*
X041040Y033300D02*
X041360D01*
X041200Y033140D02*
Y033460D01*
X041040Y034300D02*
X041360D01*
X041200Y034140D02*
Y034460D01*
X041040Y035300D02*
X041360D01*
X041200Y035140D02*
Y035460D01*
X041040Y036300D02*
X041360D01*
X041200Y036140D02*
Y036460D01*
X051973Y037150D02*
X052327D01*
X052150Y036973D02*
Y037327D01*
X051973Y038150D02*
X052327D01*
X052150Y037973D02*
Y038327D01*
X025775Y035900D02*
X026425D01*
X026100Y035575D02*
Y036225D01*
X025775Y037450D02*
X026425D01*
X026100Y037125D02*
Y037775D01*
X048100Y036300D02*
X048500D01*
X048300Y036100D02*
Y036500D01*
X048100Y035300D02*
X048500D01*
X048300Y035100D02*
Y035500D01*
X036850Y025050D02*
X037250D01*
X037050Y024850D02*
Y025250D01*
X035850Y025050D02*
X036250D01*
X036050Y024850D02*
Y025250D01*
X034850Y025050D02*
X035250D01*
X035050Y024850D02*
Y025250D01*
X052800Y026600D02*
X053200D01*
X053000Y026400D02*
Y026800D01*
X052800Y025600D02*
X053200D01*
X053000Y025400D02*
Y025800D01*
X052800Y024600D02*
X053200D01*
X053000Y024400D02*
Y024800D01*
X029373Y027100D02*
X029727D01*
X029550Y026923D02*
Y027277D01*
X029373Y026100D02*
X029727D01*
X029550Y025923D02*
Y026277D01*
X028373Y027100D02*
X028727D01*
X028550Y026923D02*
Y027277D01*
X028373Y026100D02*
X028727D01*
X028550Y025923D02*
Y026277D01*
X027373Y027100D02*
X027727D01*
X027550Y026923D02*
Y027277D01*
X027373Y026100D02*
X027727D01*
X027550Y025923D02*
Y026277D01*
X026373Y027100D02*
X026727D01*
X026550Y026923D02*
Y027277D01*
X026373Y026100D02*
X026727D01*
X026550Y025923D02*
Y026277D01*
X025375Y027100D02*
X025725D01*
X025550Y026925D02*
Y027275D01*
X025373Y026100D02*
X025727D01*
X025550Y025923D02*
Y026277D01*
X043350Y040350D02*
X043750D01*
X043550Y040150D02*
Y040550D01*
X043350Y039350D02*
X043750D01*
X043550Y039150D02*
Y039550D01*
X044350Y039350D02*
X044750D01*
X044550Y039150D02*
Y039550D01*
X044350Y040350D02*
X044750D01*
X044550Y040150D02*
Y040550D01*
X046350Y039350D02*
X046750D01*
X046550Y039150D02*
Y039550D01*
X052350Y039350D02*
X052750D01*
X052550Y039150D02*
Y039550D01*
X049350Y039350D02*
X049750D01*
X049550Y039150D02*
Y039550D01*
X051350Y040350D02*
X051750D01*
X051550Y040150D02*
Y040550D01*
X046350Y040350D02*
X046750D01*
X046550Y040150D02*
Y040550D01*
X030350Y039350D02*
X030750D01*
X030550Y039150D02*
Y039550D01*
X030350Y040350D02*
X030750D01*
X030550Y040150D02*
Y040550D01*
X052350Y040350D02*
X052750D01*
X052550Y040150D02*
Y040550D01*
X051350Y039350D02*
X051750D01*
X051550Y039150D02*
Y039550D01*
X050350Y039350D02*
X050750D01*
X050550Y039150D02*
Y039550D01*
X050350Y040350D02*
X050750D01*
X050550Y040150D02*
Y040550D01*
X048350Y039350D02*
X048750D01*
X048550Y039150D02*
Y039550D01*
X049350Y040350D02*
X049750D01*
X049550Y040150D02*
Y040550D01*
X045350Y039350D02*
X045750D01*
X045550Y039150D02*
Y039550D01*
X048350Y040350D02*
X048750D01*
X048550Y040150D02*
Y040550D01*
X047350Y039350D02*
X047750D01*
X047550Y039150D02*
Y039550D01*
X045350Y040350D02*
X045750D01*
X045550Y040150D02*
Y040550D01*
X047350Y040350D02*
X047750D01*
X047550Y040150D02*
Y040550D01*
X038350Y039350D02*
X038750D01*
X038550Y039150D02*
Y039550D01*
X037350Y040350D02*
X037750D01*
X037550Y040150D02*
Y040550D01*
X037350Y039350D02*
X037750D01*
X037550Y039150D02*
Y039550D01*
X035350Y039350D02*
X035750D01*
X035550Y039150D02*
Y039550D01*
X036350Y040350D02*
X036750D01*
X036550Y040150D02*
Y040550D01*
X035350Y040350D02*
X035750D01*
X035550Y040150D02*
Y040550D01*
X039350Y039350D02*
X039750D01*
X039550Y039150D02*
Y039550D01*
X036350Y039350D02*
X036750D01*
X036550Y039150D02*
Y039550D01*
X038350Y040350D02*
X038750D01*
X038550Y040150D02*
Y040550D01*
X042350Y040350D02*
X042750D01*
X042550Y040150D02*
Y040550D01*
X040350Y039350D02*
X040750D01*
X040550Y039150D02*
Y039550D01*
X039350Y040350D02*
X039750D01*
X039550Y040150D02*
Y040550D01*
X034350Y039350D02*
X034750D01*
X034550Y039150D02*
Y039550D01*
X033350Y039350D02*
X033750D01*
X033550Y039150D02*
Y039550D01*
X032350Y039350D02*
X032750D01*
X032550Y039150D02*
Y039550D01*
X041350Y040350D02*
X041750D01*
X041550Y040150D02*
Y040550D01*
X040350Y040350D02*
X040750D01*
X040550Y040150D02*
Y040550D01*
X031350Y039350D02*
X031750D01*
X031550Y039150D02*
Y039550D01*
X032350Y040350D02*
X032750D01*
X032550Y040150D02*
Y040550D01*
X041350Y039350D02*
X041750D01*
X041550Y039150D02*
Y039550D01*
X031350Y040350D02*
X031750D01*
X031550Y040150D02*
Y040550D01*
X042350Y039350D02*
X042750D01*
X042550Y039150D02*
Y039550D01*
X033350Y040350D02*
X033750D01*
X033550Y040150D02*
Y040550D01*
X034350Y040350D02*
X034750D01*
X034550Y040150D02*
Y040550D01*
X027925Y020850D02*
X029175D01*
X028550Y020225D02*
Y021475D01*
X050950Y038150D02*
X051350D01*
X051150Y037950D02*
Y038350D01*
X050950Y037150D02*
X051350D01*
X051150Y036950D02*
Y037350D01*
X050950Y036150D02*
X051350D01*
X051150Y035950D02*
Y036350D01*
X050950Y035150D02*
X051350D01*
X051150Y034950D02*
Y035350D01*
X050950Y034150D02*
X051350D01*
X051150Y033950D02*
Y034350D01*
X050950Y033150D02*
X051350D01*
X051150Y032950D02*
Y033350D01*
X050950Y032150D02*
X051350D01*
X051150Y031950D02*
Y032350D01*
X050950Y031150D02*
X051350D01*
X051150Y030950D02*
Y031350D01*
X028850Y025100D02*
X029250D01*
X029050Y024900D02*
Y025300D01*
X029750Y025100D02*
X030150D01*
X029950Y024900D02*
Y025300D01*
X031950Y034550D02*
X032350D01*
X032150Y034350D02*
Y034750D01*
X031950Y033550D02*
X032350D01*
X032150Y033350D02*
Y033750D01*
X031950Y032550D02*
X032350D01*
X032150Y032350D02*
Y032750D01*
X031950Y031550D02*
X032350D01*
X032150Y031350D02*
Y031750D01*
X031950Y030550D02*
X032350D01*
X032150Y030350D02*
Y030750D01*
X031950Y029550D02*
X032350D01*
X032150Y029350D02*
Y029750D01*
X055700Y034150D02*
X055800D01*
X055750Y034100D02*
Y034200D01*
X056200Y034150D02*
X056300D01*
X056250Y034100D02*
Y034200D01*
X046200Y037500D02*
X046300D01*
X046250Y037450D02*
Y037550D01*
X042750Y033800D02*
X042850D01*
X042800Y033750D02*
Y033850D01*
X043450Y033650D02*
X043550D01*
X043500Y033600D02*
Y033700D01*
X043450Y033150D02*
X043550D01*
X043500Y033100D02*
Y033200D01*
X042100Y035450D02*
X042200D01*
X042150Y035400D02*
Y035500D01*
X040750Y034850D02*
X040850D01*
X040800Y034800D02*
Y034900D01*
X045250Y034300D02*
X045350D01*
X045300Y034250D02*
Y034350D01*
X037050Y024200D02*
X037150D01*
X037100Y024150D02*
Y024250D01*
X037000Y022050D02*
X037100D01*
X037050Y022000D02*
Y022100D01*
X036750Y022050D02*
X036850D01*
X036800Y022000D02*
Y022100D01*
X036050Y022050D02*
X036150D01*
X036100Y022000D02*
Y022100D01*
X035800Y022050D02*
X035900D01*
X035850Y022000D02*
Y022100D01*
X049050Y034350D02*
X049150D01*
X049100Y034300D02*
Y034400D01*
X049350Y034700D02*
X049450D01*
X049400Y034650D02*
Y034750D01*
X047050Y035775D02*
X047150D01*
X047100Y035725D02*
Y035825D01*
X049300Y036200D02*
X049400D01*
X049350Y036150D02*
Y036250D01*
X047000Y035150D02*
X047100D01*
X047050Y035100D02*
Y035200D01*
X042100Y034800D02*
X042200D01*
X042150Y034750D02*
Y034850D01*
X039700Y024100D02*
X039800D01*
X039750Y024050D02*
Y024150D01*
X044150Y023800D02*
X044250D01*
X044200Y023750D02*
Y023850D01*
X045150Y034650D02*
X045250D01*
X045200Y034600D02*
Y034700D01*
X040950Y030800D02*
X041050D01*
X041000Y030750D02*
Y030850D01*
X044600Y034800D02*
X044700D01*
X044650Y034750D02*
Y034850D01*
X047250Y034650D02*
X047350D01*
X047300Y034600D02*
Y034700D01*
X047350Y033450D02*
X047450D01*
X047400Y033400D02*
Y033500D01*
X048850Y032800D02*
X048950D01*
X048900Y032750D02*
Y032850D01*
X050850Y028100D02*
X050950D01*
X050900Y028050D02*
Y028150D01*
X050750Y026100D02*
X050850D01*
X050800Y026050D02*
Y026150D01*
X039350Y022450D02*
X039450D01*
X039400Y022400D02*
Y022500D01*
X049450Y032200D02*
X049550D01*
X049500Y032150D02*
Y032250D01*
X049450Y033150D02*
X049550D01*
X049500Y033100D02*
Y033200D01*
X051550Y033700D02*
X051650D01*
X051600Y033650D02*
Y033750D01*
X051850Y026750D02*
X051950D01*
X051900Y026700D02*
Y026800D01*
X025400Y024800D02*
X025500D01*
X025450Y024750D02*
Y024850D01*
X024250Y024700D02*
X024350D01*
X024300Y024650D02*
Y024750D01*
X024750Y026550D02*
X024850D01*
X024800Y026500D02*
Y026600D01*
X024350Y023350D02*
X024450D01*
X024400Y023300D02*
Y023400D01*
X028850Y035900D02*
X028950D01*
X028900Y035850D02*
Y035950D01*
X044784Y029284D02*
X044884D01*
X044834Y029234D02*
Y029334D01*
X051300Y025100D02*
X051400D01*
X051350Y025050D02*
Y025150D01*
X051600Y031450D02*
X051700D01*
X051650Y031400D02*
Y031500D01*
X048300Y025100D02*
X048400D01*
X048350Y025050D02*
Y025150D01*
X049000Y025050D02*
X049100D01*
X049050Y025000D02*
Y025100D01*
X029750Y021900D02*
X029850D01*
X029800Y021850D02*
Y021950D01*
X047700Y027800D02*
X047800D01*
X047750Y027750D02*
Y027850D01*
X047700Y027050D02*
X047800D01*
X047750Y027000D02*
Y027100D01*
X037750Y032650D02*
X037850D01*
X037800Y032600D02*
Y032700D01*
X037600Y032400D02*
X037700D01*
X037650Y032350D02*
Y032450D01*
X049300Y024400D02*
X049400D01*
X049350Y024350D02*
Y024450D01*
X048050Y027800D02*
X048150D01*
X048100Y027750D02*
Y027850D01*
X045187Y035937D02*
X045287D01*
X045237Y035887D02*
Y035987D01*
X044200Y036550D02*
X044300D01*
X044250Y036500D02*
Y036600D01*
X044200Y036050D02*
X044300D01*
X044250Y036000D02*
Y036100D01*
X044200Y036300D02*
X044300D01*
X044250Y036250D02*
Y036350D01*
X036250Y038400D02*
X036350D01*
X036300Y038350D02*
Y038450D01*
X036000Y038400D02*
X036100D01*
X036050Y038350D02*
Y038450D01*
X036400Y035650D02*
X036500D01*
X036450Y035600D02*
Y035700D01*
X039500Y033300D02*
X039600D01*
X039550Y033250D02*
Y033350D01*
X036050Y036700D02*
X036150D01*
X036100Y036650D02*
Y036750D01*
X045555Y027700D02*
X045655D01*
X045605Y027650D02*
Y027750D01*
X046150Y023900D02*
X046250D01*
X046200Y023850D02*
Y023950D01*
X046150Y024150D02*
X046250D01*
X046200Y024100D02*
Y024200D01*
X045580Y028500D02*
X045680D01*
X045630Y028450D02*
Y028550D01*
X045850Y030950D02*
X045950D01*
X045900Y030900D02*
Y031000D01*
X033940Y028512D02*
X034040D01*
X033990Y028462D02*
Y028562D01*
X033436Y034014D02*
X033536D01*
X033486Y033964D02*
Y034064D01*
X033850Y038650D02*
X033950D01*
X033900Y038600D02*
Y038700D01*
X033600Y038650D02*
X033700D01*
X033650Y038600D02*
Y038700D01*
X031050Y022100D02*
X031150D01*
X031100Y022050D02*
Y022150D01*
X038650Y025450D02*
X038750D01*
X038700Y025400D02*
Y025500D01*
X026700Y023550D02*
X026800D01*
X026750Y023500D02*
Y023600D01*
X025400Y025350D02*
X025500D01*
X025450Y025300D02*
Y025400D01*
X026600Y022300D02*
X026700D01*
X026650Y022250D02*
Y022350D01*
X025500D02*
X025600D01*
X025550Y022300D02*
Y022400D01*
X044550Y025350D02*
X044650D01*
X044600Y025300D02*
Y025400D01*
X049490Y025900D02*
X049590D01*
X049540Y025850D02*
Y025950D01*
X046600Y031400D02*
X046700D01*
X046650Y031350D02*
Y031450D01*
X045750Y034000D02*
X045850D01*
X045800Y033950D02*
Y034050D01*
X049207Y023654D02*
X049307D01*
X049257Y023604D02*
Y023704D01*
X050000Y027950D02*
X050100D01*
X050050Y027900D02*
Y028000D01*
X044900Y024850D02*
X045000D01*
X044950Y024800D02*
Y024900D01*
X049800Y027072D02*
X049900D01*
X049850Y027022D02*
Y027122D01*
X049400Y028450D02*
X049500D01*
X049450Y028400D02*
Y028500D01*
X047750Y031550D02*
X047850D01*
X047800Y031500D02*
Y031600D01*
X047950Y031550D02*
X048050D01*
X048000Y031500D02*
Y031600D01*
X046200Y029050D02*
X046300D01*
X046250Y029000D02*
Y029100D01*
X046500Y029400D02*
X046600D01*
X046550Y029350D02*
Y029450D01*
X049090Y031150D02*
X049190D01*
X049140Y031100D02*
Y031200D01*
X044250Y035000D02*
X044350D01*
X044300Y034950D02*
Y035050D01*
X044250Y034750D02*
X044350D01*
X044300Y034700D02*
Y034800D01*
X042400Y033800D02*
X042500D01*
X042450Y033750D02*
Y033850D01*
X042100Y033700D02*
X042200D01*
X042150Y033650D02*
Y033750D01*
X042000Y032350D02*
X042100D01*
X042050Y032300D02*
Y032400D01*
X045750Y033200D02*
X045850D01*
X045800Y033150D02*
Y033250D01*
X045450Y033200D02*
X045550D01*
X045500Y033150D02*
Y033250D01*
X047250Y033000D02*
X047350D01*
X047300Y032950D02*
Y033050D01*
X047000Y033000D02*
X047100D01*
X047050Y032950D02*
Y033050D01*
X049050Y032250D02*
X049150D01*
X049100Y032200D02*
Y032300D01*
X049050Y032500D02*
X049150D01*
X049100Y032450D02*
Y032550D01*
X048800Y030750D02*
X048900D01*
X048850Y030700D02*
Y030800D01*
X048750Y025750D02*
X048850D01*
X048800Y025700D02*
Y025800D01*
X044600Y027300D02*
X044700D01*
X044650Y027250D02*
Y027350D01*
X043250Y029450D02*
X043350D01*
X043300Y029400D02*
Y029500D01*
X043000Y029450D02*
X043100D01*
X043050Y029400D02*
Y029500D01*
X034150Y030100D02*
X034250D01*
X034200Y030050D02*
Y030150D01*
X036800Y035900D02*
X036900D01*
X036850Y035850D02*
Y035950D01*
X045400Y035750D02*
X045500D01*
X045450Y035700D02*
Y035800D01*
X040050Y034200D02*
X040150D01*
X040100Y034150D02*
Y034250D01*
X042250Y038500D02*
X042350D01*
X042300Y038450D02*
Y038550D01*
X043800Y032250D02*
X043900D01*
X043850Y032200D02*
Y032300D01*
X040300Y030750D02*
X040400D01*
X040350Y030700D02*
Y030800D01*
X035650Y036000D02*
X035750D01*
X035700Y035950D02*
Y036050D01*
X036200Y030100D02*
X036300D01*
X036250Y030050D02*
Y030150D01*
X034900Y036400D02*
X035000D01*
X034950Y036350D02*
Y036450D01*
X034450Y036350D02*
X034550D01*
X034500Y036300D02*
Y036400D01*
X035300D02*
X035400D01*
X035350Y036350D02*
Y036450D01*
X035400Y030080D02*
X035500D01*
X035450Y030030D02*
Y030130D01*
X035400Y029800D02*
X035500D01*
X035450Y029750D02*
Y029850D01*
X035250Y032750D02*
X035350D01*
X035300Y032700D02*
Y032800D01*
X047500Y038400D02*
X047600D01*
X047550Y038350D02*
Y038450D01*
X047250Y038400D02*
X047350D01*
X047300Y038350D02*
Y038450D01*
X046500D02*
X046600D01*
X046550Y038400D02*
Y038500D01*
X046250Y038450D02*
X046350D01*
X046300Y038400D02*
Y038500D01*
X049500Y037200D02*
X049600D01*
X049550Y037150D02*
Y037250D01*
X025550Y020950D02*
X025650D01*
X025600Y020900D02*
Y021000D01*
X049250Y023050D02*
X049350D01*
X049300Y023000D02*
Y023100D01*
X049650Y028100D02*
X049750D01*
X049700Y028050D02*
Y028150D01*
X049400Y028100D02*
X049500D01*
X049450Y028050D02*
Y028150D01*
X049000Y030300D02*
X049100D01*
X049050Y030250D02*
Y030350D01*
X049250Y030300D02*
X049350D01*
X049300Y030250D02*
Y030350D01*
X047150Y030800D02*
X047250D01*
X047200Y030750D02*
Y030850D01*
X047150Y031050D02*
X047250D01*
X047200Y031000D02*
Y031100D01*
X044100Y028050D02*
X044200D01*
X044150Y028000D02*
Y028100D01*
X043900Y028050D02*
X044000D01*
X043950Y028000D02*
Y028100D01*
X046050Y028500D02*
X046150D01*
X046100Y028450D02*
Y028550D01*
X045850Y028500D02*
X045950D01*
X045900Y028450D02*
Y028550D01*
X045250Y028500D02*
X045350D01*
X045300Y028450D02*
Y028550D01*
X045000Y028500D02*
X045100D01*
X045050Y028450D02*
Y028550D01*
X045200Y025600D02*
X045300D01*
X045250Y025550D02*
Y025650D01*
X045000Y025600D02*
X045100D01*
X045050Y025550D02*
Y025650D01*
X044750Y024550D02*
X044850D01*
X044800Y024500D02*
Y024600D01*
X044950Y024550D02*
X045050D01*
X045000Y024500D02*
Y024600D01*
X031100Y033476D02*
X031200D01*
X031150Y033426D02*
Y033526D01*
X029800Y035500D02*
X029900D01*
X029850Y035450D02*
Y035550D01*
X029800Y035750D02*
X029900D01*
X029850Y035700D02*
Y035800D01*
X034350Y032750D02*
X034450D01*
X034400Y032700D02*
Y032800D01*
X040450Y034850D02*
X040550D01*
X040500Y034800D02*
Y034900D01*
X040200Y034850D02*
X040300D01*
X040250Y034800D02*
Y034900D01*
X039650Y032800D02*
X039750D01*
X039700Y032750D02*
Y032850D01*
X039400Y032800D02*
X039500D01*
X039450Y032750D02*
Y032850D01*
X039950Y027350D02*
X040050D01*
X040000Y027300D02*
Y027400D01*
X039950Y027100D02*
X040050D01*
X040000Y027050D02*
Y027150D01*
X039800Y029050D02*
X039900D01*
X039850Y029000D02*
Y029100D01*
X039800Y029300D02*
X039900D01*
X039850Y029250D02*
Y029350D01*
X030800Y025350D02*
X030900D01*
X030850Y025300D02*
Y025400D01*
X030550Y025350D02*
X030650D01*
X030600Y025300D02*
Y025400D01*
X025800Y020950D02*
X025900D01*
X025850Y020900D02*
Y021000D01*
X026050Y020950D02*
X026150D01*
X026100Y020900D02*
Y021000D01*
X024450Y021700D02*
X024550D01*
X024500Y021650D02*
Y021750D01*
X024450Y021450D02*
X024550D01*
X024500Y021400D02*
Y021500D01*
X029200Y022050D02*
X029300D01*
X029250Y022000D02*
Y022100D01*
X029500Y021900D02*
X029600D01*
X029550Y021850D02*
Y021950D01*
X028250Y025000D02*
X028350D01*
X028300Y024950D02*
Y025050D01*
X028250Y024700D02*
X028350D01*
X028300Y024650D02*
Y024750D01*
X027600Y024850D02*
X027700D01*
X027650Y024800D02*
Y024900D01*
X027600Y024550D02*
X027700D01*
X027650Y024500D02*
Y024600D01*
X042850Y024400D02*
X042950D01*
X042900Y024350D02*
Y024450D01*
X043150Y024400D02*
X043250D01*
X043200Y024350D02*
Y024450D01*
X042250Y024400D02*
X042350D01*
X042300Y024350D02*
Y024450D01*
X042550Y024400D02*
X042650D01*
X042600Y024350D02*
Y024450D01*
X033950Y037350D02*
X034050D01*
X034000Y037300D02*
Y037400D01*
X034250Y037350D02*
X034350D01*
X034300Y037300D02*
Y037400D01*
X044980Y039820D02*
X045080D01*
X045030Y039770D02*
Y039870D01*
X044700Y039820D02*
X044800D01*
X044750Y039770D02*
Y039870D01*
X040864Y038886D02*
X040964D01*
X040914Y038836D02*
Y038936D01*
X036700Y038400D02*
X036800D01*
X036750Y038350D02*
Y038450D01*
X036950Y038400D02*
X037050D01*
X037000Y038350D02*
Y038450D01*
X035100Y027000D02*
X035200D01*
X035150Y026950D02*
Y027050D01*
X035100Y027200D02*
X035200D01*
X035150Y027150D02*
Y027250D01*
X035450Y028950D02*
X035550D01*
X035500Y028900D02*
Y029000D01*
X035650Y028950D02*
X035750D01*
X035700Y028900D02*
Y029000D01*
X035350Y031100D02*
X035450D01*
X035400Y031050D02*
Y031150D01*
X043050Y030600D02*
X043150D01*
X043100Y030550D02*
Y030650D01*
X039250Y029700D02*
X039350D01*
X039300Y029650D02*
Y029750D01*
X037500Y030850D02*
X037600D01*
X037550Y030800D02*
Y030900D01*
X045950Y037500D02*
X046050D01*
X046000Y037450D02*
Y037550D01*
X048500Y027050D02*
X048600D01*
X048550Y027000D02*
Y027100D01*
X048500Y027800D02*
X048600D01*
X048550Y027750D02*
Y027850D01*
X048050Y027050D02*
X048150D01*
X048100Y027000D02*
Y027100D01*
X048251Y026024D02*
X048351D01*
X048301Y025974D02*
Y026074D01*
X049350Y026700D02*
X049450D01*
X049400Y026650D02*
Y026750D01*
X049002Y026950D02*
X049102D01*
X049052Y026900D02*
Y027000D01*
X046050Y029400D02*
X046150D01*
X046100Y029350D02*
Y029450D01*
X028600Y022450D02*
X028700D01*
X028650Y022400D02*
Y022500D01*
X031700Y024000D02*
X031800D01*
X031750Y023950D02*
Y024050D01*
X029100Y023450D02*
X029200D01*
X029150Y023400D02*
Y023500D01*
X037500Y029550D02*
X037600D01*
X037550Y029500D02*
Y029600D01*
X036350Y031600D02*
X036450D01*
X036400Y031550D02*
Y031650D01*
X031800Y023100D02*
X031900D01*
X031850Y023050D02*
Y023150D01*
X033900Y033500D02*
X034000D01*
X033950Y033450D02*
Y033550D01*
X041300Y038850D02*
X041400D01*
X041350Y038800D02*
Y038900D01*
X033050Y028300D02*
X033150D01*
X033100Y028250D02*
Y028350D01*
X034800Y026750D02*
X034900D01*
X034850Y026700D02*
Y026800D01*
X037000Y027500D02*
X037100D01*
X037050Y027450D02*
Y027550D01*
X037000Y027200D02*
X037100D01*
X037050Y027150D02*
Y027250D01*
X043550Y038200D02*
X043650D01*
X043600Y038150D02*
Y038250D01*
X043800Y038200D02*
X043900D01*
X043850Y038150D02*
Y038250D01*
X044100Y037950D02*
X044200D01*
X044150Y037900D02*
Y038000D01*
X044100Y037700D02*
X044200D01*
X044150Y037650D02*
Y037750D01*
X043100Y037250D02*
X043200D01*
X043150Y037200D02*
Y037300D01*
X043100Y036950D02*
X043200D01*
X043150Y036900D02*
Y037000D01*
X038700Y038400D02*
X038800D01*
X038750Y038350D02*
Y038450D01*
X038400Y038400D02*
X038500D01*
X038450Y038350D02*
Y038450D01*
X037650Y038400D02*
X037750D01*
X037700Y038350D02*
Y038450D01*
X037900Y038400D02*
X038000D01*
X037950Y038350D02*
Y038450D01*
X040300Y036586D02*
X040400D01*
X040350Y036536D02*
Y036636D01*
X038800Y036800D02*
X038900D01*
X038850Y036750D02*
Y036850D01*
X038500Y036800D02*
X038600D01*
X038550Y036750D02*
Y036850D01*
X040250Y037800D02*
X040350D01*
X040300Y037750D02*
Y037850D01*
X041750Y036600D02*
X041850D01*
X041800Y036550D02*
Y036650D01*
X041061Y037761D02*
X041161D01*
X041111Y037711D02*
Y037811D01*
X042100Y037950D02*
X042200D01*
X042150Y037900D02*
Y038000D01*
X047961Y028261D02*
X048061D01*
X048011Y028211D02*
Y028311D01*
X047750Y031750D02*
X047850D01*
X047800Y031700D02*
Y031800D01*
X042800Y036500D02*
X042900D01*
X042850Y036450D02*
Y036550D01*
X042550Y036500D02*
X042650D01*
X042600Y036450D02*
Y036550D01*
X043050Y030350D02*
X043150D01*
X043100Y030300D02*
Y030400D01*
X043500Y029450D02*
X043600D01*
X043550Y029400D02*
Y029500D01*
X043500Y029200D02*
X043600D01*
X043550Y029150D02*
Y029250D01*
X037250Y026500D02*
X037350D01*
X037300Y026450D02*
Y026550D01*
X037000Y031830D02*
X037100D01*
X037050Y031780D02*
Y031880D01*
X036900Y026500D02*
X037000D01*
X036950Y026450D02*
Y026550D01*
X038700Y026400D02*
X038800D01*
X038750Y026350D02*
Y026450D01*
X037650Y031850D02*
X037750D01*
X037700Y031800D02*
Y031900D01*
X039250Y030000D02*
X039350D01*
X039300Y029950D02*
Y030050D01*
X038600Y029550D02*
X038700D01*
X038650Y029500D02*
Y029600D01*
X037500Y023950D02*
X037600D01*
X037550Y023900D02*
Y024000D01*
X037750Y025850D02*
X037850D01*
X037800Y025800D02*
Y025900D01*
X034850Y028300D02*
X034950D01*
X034900Y028250D02*
Y028350D01*
X033900Y027150D02*
X034000D01*
X033950Y027100D02*
Y027200D01*
X037050Y034600D02*
X037150D01*
X037100Y034550D02*
Y034650D01*
X034050Y022400D02*
X034150D01*
X034100Y022350D02*
Y022450D01*
X037300Y023650D02*
X037400D01*
X037350Y023600D02*
Y023700D01*
X038050Y025800D02*
X038150D01*
X038100Y025750D02*
Y025850D01*
X039550Y026800D02*
X039650D01*
X039600Y026750D02*
Y026850D01*
X039050Y035450D02*
X039150D01*
X039100Y035400D02*
Y035500D01*
X033450Y031150D02*
X033550D01*
X033500Y031100D02*
Y031200D01*
Y031850D02*
X033600D01*
X033550Y031800D02*
Y031900D01*
X033500Y030800D02*
X033600D01*
X033550Y030750D02*
Y030850D01*
X036340Y032464D02*
X036440D01*
X036390Y032414D02*
Y032514D01*
X044600Y027550D02*
X044700D01*
X044650Y027500D02*
Y027600D01*
X046100Y025850D02*
X046200D01*
X046150Y025800D02*
Y025900D01*
X044200Y024600D02*
X044300D01*
X044250Y024550D02*
Y024650D01*
X043600Y024600D02*
X043700D01*
X043650Y024550D02*
Y024650D01*
X042800Y025300D02*
X042900D01*
X042850Y025250D02*
Y025350D01*
X043050Y031050D02*
X043150D01*
X043100Y031000D02*
Y031100D01*
X046350Y026700D02*
X046450D01*
X046400Y026650D02*
Y026750D01*
X046450Y026500D02*
X046550D01*
X046500Y026450D02*
Y026550D01*
X048750Y029900D02*
X048850D01*
X048800Y029850D02*
Y029950D01*
Y029600D02*
X048900D01*
X048850Y029550D02*
Y029650D01*
X036350Y036150D02*
X036450D01*
X036400Y036100D02*
Y036200D01*
X040300Y035400D02*
X040400D01*
X040350Y035350D02*
Y035450D01*
X037150Y029100D02*
X037250D01*
X037200Y029050D02*
Y029150D01*
X036350Y028200D02*
X036450D01*
X036400Y028150D02*
Y028250D01*
X033250Y025250D02*
X033350D01*
X033300Y025200D02*
Y025300D01*
X038600Y033700D02*
X038700D01*
X038650Y033650D02*
Y033750D01*
X046850Y023900D02*
X046950D01*
X046900Y023850D02*
Y023950D01*
X047150Y025500D02*
X047250D01*
X047200Y025450D02*
Y025550D01*
X047300Y024250D02*
X047400D01*
X047350Y024200D02*
Y024300D01*
X047650Y024100D02*
X047750D01*
X047700Y024050D02*
Y024150D01*
X046150Y024450D02*
X046250D01*
X046200Y024400D02*
Y024500D01*
X046750Y024600D02*
X046850D01*
X046800Y024550D02*
Y024650D01*
X047250Y025200D02*
X047350D01*
X047300Y025150D02*
Y025250D01*
Y024900D02*
X047400D01*
X047350Y024850D02*
Y024950D01*
X034600Y032750D02*
X034700D01*
X034650Y032700D02*
Y032800D01*
X035000Y032750D02*
X035100D01*
X035050Y032700D02*
Y032800D01*
X037850Y027800D02*
X037950D01*
X037900Y027750D02*
Y027850D01*
X036800Y026100D02*
X036900D01*
X036850Y026050D02*
Y026150D01*
X043450Y034300D02*
X043550D01*
X043500Y034250D02*
Y034350D01*
X042300Y034300D02*
X042400D01*
X042350Y034250D02*
Y034350D01*
X036500Y034550D02*
X036600D01*
X036550Y034500D02*
Y034600D01*
X034250Y032050D02*
X034350D01*
X034300Y032000D02*
Y032100D01*
X034800Y033400D02*
X034900D01*
X034850Y033350D02*
Y033450D01*
X037650Y031100D02*
X037750D01*
X037700Y031050D02*
Y031150D01*
X037650Y031550D02*
X037750D01*
X037700Y031500D02*
Y031600D01*
X039950Y030600D02*
X040050D01*
X040000Y030550D02*
Y030650D01*
X037500Y030050D02*
X037600D01*
X037550Y030000D02*
Y030100D01*
X036200Y029800D02*
X036300D01*
X036250Y029750D02*
Y029850D01*
X036400Y030900D02*
X036500D01*
X036450Y030850D02*
Y030950D01*
X037500Y033250D02*
X037600D01*
X037550Y033200D02*
Y033300D01*
X039500Y028350D02*
X039600D01*
X039550Y028300D02*
Y028400D01*
X041850Y027600D02*
X041950D01*
X041900Y027550D02*
Y027650D01*
X040100Y029500D02*
X040200D01*
X040150Y029450D02*
Y029550D01*
X042000Y031800D02*
X042100D01*
X042050Y031750D02*
Y031850D01*
X041593Y028010D02*
X041693D01*
X041643Y027960D02*
Y028060D01*
X040650Y027800D02*
X040750D01*
X040700Y027750D02*
Y027850D01*
X041350Y030800D02*
X041450D01*
X041400Y030750D02*
Y030850D01*
X036350Y031900D02*
X036450D01*
X036400Y031850D02*
Y031950D01*
X036600Y033200D02*
X036700D01*
X036650Y033150D02*
Y033250D01*
X035950Y030550D02*
X036050D01*
X036000Y030500D02*
Y030600D01*
X035350Y030550D02*
X035450D01*
X035400Y030500D02*
Y030600D01*
X035550Y030800D02*
X035650D01*
X035600Y030750D02*
Y030850D01*
X034100Y034200D02*
X034200D01*
X034150Y034150D02*
Y034250D01*
X033000Y024750D02*
X033100D01*
X033050Y024700D02*
Y024800D01*
X033900Y023500D02*
X034000D01*
X033950Y023450D02*
Y023550D01*
X037743Y034557D02*
X037843D01*
X037793Y034507D02*
Y034607D01*
X036150Y029050D02*
X036250D01*
X036200Y029000D02*
Y029100D01*
X036150Y032700D02*
X036250D01*
X036200Y032650D02*
Y032750D01*
X035450Y031750D02*
X035550D01*
X035500Y031700D02*
Y031800D01*
X045016Y029034D02*
X045116D01*
X045066Y028984D02*
Y029084D01*
X045272Y029028D02*
X045372D01*
X045322Y028978D02*
Y029078D01*
X046450Y028499D02*
X046550D01*
X046500Y028449D02*
Y028549D01*
X047950Y025185D02*
X048050D01*
X048000Y025135D02*
Y025235D01*
X048300Y038650D02*
X048400D01*
X048350Y038600D02*
Y038700D01*
X048650Y038650D02*
X048750D01*
X048700Y038600D02*
Y038700D01*
X047800Y038650D02*
X047900D01*
X047850Y038600D02*
Y038700D01*
X043300Y038550D02*
X043400D01*
X043350Y038500D02*
Y038600D01*
X051900Y032100D02*
X052000D01*
X051950Y032050D02*
Y032150D01*
X050050Y031650D02*
X050150D01*
X050100Y031600D02*
Y031700D01*
X046050Y026350D02*
X046150D01*
X046100Y026300D02*
Y026400D01*
X040000Y024400D02*
X040100D01*
X040050Y024350D02*
Y024450D01*
X049750Y030800D02*
X049850D01*
X049800Y030750D02*
Y030850D01*
X044557Y027943D02*
X044657D01*
X044607Y027893D02*
Y027993D01*
X040000Y025150D02*
X040100D01*
X040050Y025100D02*
Y025200D01*
X026000Y038450D02*
X026100D01*
X026050Y038400D02*
Y038500D01*
X026300Y038450D02*
X026400D01*
X026350Y038400D02*
Y038500D01*
X027500Y036650D02*
X027600D01*
X027550Y036600D02*
Y036700D01*
X028050Y036650D02*
X028150D01*
X028100Y036600D02*
Y036700D01*
X028850Y035600D02*
X028950D01*
X028900Y035550D02*
Y035650D01*
X028850Y035350D02*
X028950D01*
X028900Y035300D02*
Y035400D01*
X028050Y036950D02*
X028150D01*
X028100Y036900D02*
Y037000D01*
X028190Y037500D02*
X028290D01*
X028240Y037450D02*
Y037550D01*
X028200Y037250D02*
X028300D01*
X028250Y037200D02*
Y037300D01*
X028200Y037750D02*
X028300D01*
X028250Y037700D02*
Y037800D01*
X029200Y038600D02*
X029300D01*
X029250Y038550D02*
Y038650D01*
X029350Y038050D02*
X029450D01*
X029400Y038000D02*
Y038100D01*
X031850Y037600D02*
X031950D01*
X031900Y037550D02*
Y037650D01*
X031100Y036900D02*
X031200D01*
X031150Y036850D02*
Y036950D01*
X026150Y038650D02*
X026250D01*
X026200Y038600D02*
Y038700D01*
X025850Y038650D02*
X025950D01*
X025900Y038600D02*
Y038700D01*
X025728Y038428D02*
X025828D01*
X025778Y038378D02*
Y038478D01*
X034000Y039850D02*
X034100D01*
X034050Y039800D02*
Y039900D01*
X039750Y037850D02*
X039850D01*
X039800Y037800D02*
Y037900D01*
X054600Y035550D02*
X054700D01*
X054650Y035500D02*
Y035600D01*
X054300Y034200D02*
X054400D01*
X054350Y034150D02*
Y034250D01*
X054000Y033900D02*
X054100D01*
X054050Y033850D02*
Y033950D01*
X040664Y038886D02*
X040764D01*
X040714Y038836D02*
Y038936D01*
X054050Y030650D02*
X054150D01*
X054100Y030600D02*
Y030700D01*
X054350Y030950D02*
X054450D01*
X054400Y030900D02*
Y031000D01*
X054650Y032300D02*
X054750D01*
X054700Y032250D02*
Y032350D01*
X054050Y027450D02*
X054150D01*
X054100Y027400D02*
Y027500D01*
X054350Y027750D02*
X054450D01*
X054400Y027700D02*
Y027800D01*
X054650Y029100D02*
X054750D01*
X054700Y029050D02*
Y029150D01*
X053950Y024250D02*
X054050D01*
X054000Y024200D02*
Y024300D01*
X054250Y024550D02*
X054350D01*
X054300Y024500D02*
Y024600D01*
X054550Y025900D02*
X054650D01*
X054600Y025850D02*
Y025950D01*
X054050Y035750D02*
X054150D01*
X054100Y035700D02*
Y035800D01*
X054000Y032500D02*
X054100D01*
X054050Y032450D02*
Y032550D01*
Y029300D02*
X054150D01*
X054100Y029250D02*
Y029350D01*
X054000Y026050D02*
X054100D01*
X054050Y026000D02*
Y026100D01*
X055950Y034150D02*
X056050D01*
X056000Y034100D02*
Y034200D01*
X054000Y025300D02*
X054100D01*
X054050Y025250D02*
Y025350D01*
Y028450D02*
X054150D01*
X054100Y028400D02*
Y028500D01*
Y031550D02*
X054200D01*
X054150Y031500D02*
Y031600D01*
X054300Y035450D02*
X054400D01*
X054350Y035400D02*
Y035500D01*
X055500Y035900D02*
X055600D01*
X055550Y035850D02*
Y035950D01*
X041057Y037003D02*
X041137D01*
X041097Y036963D02*
Y037043D01*
X040663Y037003D02*
X040743D01*
X040703Y036963D02*
Y037043D01*
X041057Y037397D02*
X041137D01*
X041097Y037357D02*
Y037437D01*
X040663Y037397D02*
X040743D01*
X040703Y037357D02*
Y037437D01*
M02*
