G04 Generated by CADint PCB *
%FSLAX44Y44*%
%MOMM*%
%IPPOS*%
%ADD14C,0.112500*%
%ADD15C,0.150000*%
%ADD11C,0.152400*%
%ADD12C,0.200000*%
%ADD22C,0.203200*%
%ADD16C,0.225000*%
%ADD10C,0.250000*%
%ADD13C,0.254000*%
%ADD17C,0.262500*%
%ADD33C,0.300000*%
%ADD28C,0.500000*%
%ADD34C,1.000000*%
%ADD29C,1.600200*%
%ADD18C,1.905000*%
%ADD30C,2.489200*%
%ADD31C,2.500000*%
%ADD32C,2.600200*%
%ADD19C,2.727200*%
%ADD20C,2.997200*%
%ADD26R,0.896000X1.546000*%
%ADD21R,1.023000X1.673000*%
%ADD27R,1.146800X0.596800*%
%ADD24R,1.270000X1.270000*%
%ADD23R,1.273800X0.723800*%
%ADD25R,1.651000X0.381000*%
%LNCopper__1_Top*%
%LPD*%
D33*
X701050Y159050D02*
X707850Y152250D01*
X711500Y143400D01*
Y133800D01*
Y15200D01*
X707911Y6500D01*
X743500D01*
Y373500D01*
X113500D01*
Y336500D01*
X184484D01*
X182950Y340200D01*
Y349800D01*
X186600Y358600D01*
X193400Y365400D01*
X202200Y369050D01*
X211800D01*
X220600Y365400D01*
X227400Y358600D01*
X228000Y357153D01*
X228600Y358600D01*
X235400Y365400D01*
X244200Y369050D01*
X253800D01*
X262600Y365400D01*
X269400Y358600D01*
X270000Y357153D01*
X270600Y358600D01*
X277400Y365400D01*
X286200Y369050D01*
X295800D01*
X304600Y365400D01*
X311400Y358600D01*
X311966Y357234D01*
X312550Y358650D01*
X319350Y365450D01*
X328200Y369100D01*
X337800D01*
X346650Y365450D01*
X353450Y358650D01*
X354000Y357316D01*
X354550Y358650D01*
X361350Y365450D01*
X370200Y369100D01*
X379800D01*
X388650Y365450D01*
X395450Y358650D01*
X396000Y357316D01*
X396550Y358650D01*
X403350Y365450D01*
X412200Y369100D01*
X421800D01*
X430650Y365450D01*
X437450Y358650D01*
X438000Y357316D01*
X438550Y358650D01*
X445350Y365450D01*
X454200Y369100D01*
X463800D01*
X472650Y365450D01*
X479450Y358650D01*
X480000Y357316D01*
X480550Y358650D01*
X487350Y365450D01*
X496200Y369100D01*
X505800D01*
X514650Y365450D01*
X521450Y358650D01*
X522000Y357316D01*
X522550Y358650D01*
X529350Y365450D01*
X538200Y369100D01*
X547800D01*
X556650Y365450D01*
X563450Y358650D01*
X567100Y349800D01*
Y293000D01*
X701050Y159050D01*
X650600Y344900D02*
Y335100D01*
X646850Y326050D01*
X639950Y319150D01*
X630900Y315400D01*
X621100D01*
X612050Y319150D01*
X605150Y326050D01*
X601400Y335100D01*
Y344900D01*
X605150Y353950D01*
X612050Y360850D01*
X621100Y364600D01*
X630900D01*
X639950Y360850D01*
X646850Y353950D01*
X650600Y344900D01*
G36*
X743500Y373500D02*
X113500D01*
X182950Y340200D01*
Y349800D01*
X186600Y358600D01*
X193400Y365400D01*
X202200Y369050D01*
X211800D01*
X220600Y365400D01*
X227400Y358600D01*
X228000Y357153D01*
X228600Y358600D01*
X235400Y365400D01*
X244200Y369050D01*
X253800D01*
X262600Y365400D01*
X269400Y358600D01*
X270000Y357153D01*
X270600Y358600D01*
X277400Y365400D01*
X286200Y369050D01*
X295800D01*
X304600Y365400D01*
X311400Y358600D01*
X311966Y357234D01*
X312550Y358650D01*
X319350Y365450D01*
X328200Y369100D01*
X337800D01*
X346650Y365450D01*
X353450Y358650D01*
X354000Y357316D01*
X354550Y358650D01*
X361350Y365450D01*
X370200Y369100D01*
X379800D01*
X388650Y365450D01*
X395450Y358650D01*
X396000Y357316D01*
X396550Y358650D01*
X403350Y365450D01*
X412200Y369100D01*
X421800D01*
X430650Y365450D01*
X437450Y358650D01*
X438000Y357316D01*
X438550Y358650D01*
X445350Y365450D01*
X454200Y369100D01*
X463800D01*
X472650Y365450D01*
X479450Y358650D01*
X480000Y357316D01*
X480550Y358650D01*
X487350Y365450D01*
X496200Y369100D01*
X505800D01*
X514650Y365450D01*
X521450Y358650D01*
X522000Y357316D01*
X522550Y358650D01*
X529350Y365450D01*
X538200Y369100D01*
X547800D01*
X556650Y365450D01*
X563450Y358650D01*
X567100Y349800D01*
X601400Y335100D01*
Y344900D01*
X605150Y353950D01*
X612050Y360850D01*
X621100Y364600D01*
X630900D01*
X639950Y360850D01*
X646850Y353950D01*
X650600Y344900D01*
X701050Y159050D01*
X707850Y152250D01*
X711500Y143400D01*
X743500Y6500D01*
Y373500D01*
G37*
G36*
Y6500D02*
X711500Y143400D01*
Y133800D01*
Y15200D01*
X707911Y6500D01*
X743500D01*
G37*
G36*
X701050Y159050D02*
X650600Y344900D01*
Y335100D01*
X646850Y326050D01*
X639950Y319150D01*
X630900Y315400D01*
X621100D01*
X612050Y319150D01*
X605150Y326050D01*
X601400Y335100D01*
X567100Y349800D01*
Y293000D01*
X701050Y159050D01*
G37*
G36*
X184484Y336500D02*
X182950Y340200D01*
X113500Y373500D01*
Y336500D01*
X184484D01*
G37*
X42900Y191800D02*
Y196200D01*
Y254400D01*
X6500D01*
Y6500D01*
X45600D01*
X44600Y7500D01*
X41250Y15600D01*
Y24400D01*
X44600Y32500D01*
X50800Y38700D01*
X58900Y42050D01*
X67700D01*
X75800Y38700D01*
X79200Y35300D01*
X82600Y38700D01*
X90700Y42050D01*
X99500D01*
X107600Y38700D01*
X111000Y35300D01*
X114400Y38700D01*
X122500Y42050D01*
X131300D01*
X139400Y38700D01*
X142800Y35300D01*
X146200Y38700D01*
X154300Y42050D01*
X163100D01*
X171200Y38700D01*
X177400Y32500D01*
X180750Y24400D01*
Y15600D01*
X177400Y7500D01*
X176400Y6500D01*
X325850D01*
X324850Y7500D01*
X321500Y15600D01*
Y24400D01*
X324850Y32500D01*
X331050Y38700D01*
X339150Y42050D01*
X347950D01*
X356050Y38700D01*
X359450Y35300D01*
X362850Y38700D01*
X370950Y42050D01*
X379750D01*
X387850Y38700D01*
X391250Y35300D01*
X394650Y38700D01*
X402750Y42050D01*
X411550D01*
X419650Y38700D01*
X423050Y35300D01*
X426450Y38700D01*
X434550Y42050D01*
X443350D01*
X451450Y38700D01*
X457650Y32500D01*
X461000Y24400D01*
Y15600D01*
X457650Y7500D01*
X456650Y6500D01*
X603500D01*
X603532Y11168D01*
X601700Y15600D01*
Y80229D01*
X529350Y153500D01*
X255100D01*
Y85200D01*
Y80800D01*
X253400Y76700D01*
X250300Y73600D01*
X237600Y60900D01*
Y55500D01*
X234900Y49050D01*
X229950Y44100D01*
X223500Y41400D01*
X216500D01*
X210050Y44100D01*
X205100Y49050D01*
X202400Y55500D01*
Y62500D01*
X202800Y63500D01*
X188700Y77600D01*
X185600Y80700D01*
X183900Y84800D01*
Y89200D01*
Y104900D01*
X80200D01*
X75800D01*
X71700Y106600D01*
X68600Y109700D01*
X61700Y116600D01*
X58600Y119700D01*
X56900Y123800D01*
Y128200D01*
Y143800D01*
Y148200D01*
X58600Y152300D01*
X59800Y153500D01*
X46150D01*
X45850D01*
X45550Y153550D01*
X45300Y153650D01*
X45050Y153850D01*
X44850Y154050D01*
X44650Y154300D01*
X44550Y154550D01*
X44500Y154850D01*
Y177044D01*
X44250Y177600D01*
X43950Y178650D01*
X43750Y179650D01*
X43650Y180750D01*
Y190000D01*
X42900Y191800D01*
G36*
Y254400D02*
X6500D01*
X41250Y15600D01*
Y24400D01*
X42900Y191800D01*
Y196200D01*
Y254400D01*
G37*
G36*
X43650Y190000D02*
X42900Y191800D01*
X43650Y180750D01*
Y190000D01*
G37*
G36*
X44500Y177044D02*
X44250Y177600D01*
X44500Y154850D01*
Y177044D01*
G37*
G36*
X59800Y153500D02*
X46150D01*
X45850D01*
X45550Y153550D01*
X45300Y153650D01*
X45050Y153850D01*
X44850Y154050D01*
X44650Y154300D01*
X44550Y154550D01*
X44500Y154850D01*
X44250Y177600D01*
X43950Y178650D01*
X43750Y179650D01*
X43650Y180750D01*
X42900Y191800D01*
X41250Y24400D01*
X44600Y32500D01*
X50800Y38700D01*
X56900Y123800D01*
Y128200D01*
Y143800D01*
Y148200D01*
X58600Y152300D01*
X59800Y153500D01*
G37*
G36*
X183900Y104900D02*
X80200D01*
X75800D01*
X71700Y106600D01*
X68600Y109700D01*
X61700Y116600D01*
X58600Y119700D01*
X56900Y123800D01*
X50800Y38700D01*
X58900Y42050D01*
X67700D01*
X75800Y38700D01*
X79200Y35300D01*
X82600Y38700D01*
X90700Y42050D01*
X99500D01*
X107600Y38700D01*
X111000Y35300D01*
X114400Y38700D01*
X122500Y42050D01*
X131300D01*
X139400Y38700D01*
X142800Y35300D01*
X146200Y38700D01*
X154300Y42050D01*
X163100D01*
X171200Y38700D01*
X177400Y32500D01*
X180750Y24400D01*
X183900Y84800D01*
Y89200D01*
Y104900D01*
G37*
G36*
X202800Y63500D02*
X188700Y77600D01*
X202400Y55500D01*
Y62500D01*
X202800Y63500D01*
G37*
G36*
X529350Y153500D02*
X255100D01*
X321500Y15600D01*
Y24400D01*
X324850Y32500D01*
X331050Y38700D01*
X339150Y42050D01*
X347950D01*
X356050Y38700D01*
X359450Y35300D01*
X362850Y38700D01*
X370950Y42050D01*
X379750D01*
X387850Y38700D01*
X391250Y35300D01*
X394650Y38700D01*
X402750Y42050D01*
X411550D01*
X419650Y38700D01*
X423050Y35300D01*
X426450Y38700D01*
X434550Y42050D01*
X443350D01*
X451450Y38700D01*
X457650Y32500D01*
X461000Y24400D01*
X529350Y153500D01*
G37*
G36*
X601700Y80229D02*
X529350Y153500D01*
X601700Y15600D01*
Y80229D01*
G37*
G36*
X603532Y11168D02*
X601700Y15600D01*
X529350Y153500D01*
X461000Y24400D01*
Y15600D01*
X457650Y7500D01*
X456650Y6500D01*
X603500D01*
X603532Y11168D01*
G37*
G36*
X325850Y6500D02*
X324850Y7500D01*
X321500Y15600D01*
X255100Y153500D01*
Y85200D01*
Y80800D01*
X253400Y76700D01*
X250300Y73600D01*
X237600Y60900D01*
Y55500D01*
X234900Y49050D01*
X229950Y44100D01*
X223500Y41400D01*
X216500D01*
X210050Y44100D01*
X205100Y49050D01*
X202400Y55500D01*
X188700Y77600D01*
X185600Y80700D01*
X183900Y84800D01*
X180750Y24400D01*
Y15600D01*
X177400Y7500D01*
X176400Y6500D01*
X325850D01*
G37*
G36*
X45600D02*
X44600Y7500D01*
X41250Y15600D01*
X6500Y254400D01*
Y6500D01*
X45600D01*
G37*
D27*
X259000Y182000D03*
D22*
X253266Y179016D02*
X264734D01*
Y184984D01*
X253266D01*
Y179016D01*
D27*
X259000Y198000D03*
D22*
X253266Y195016D02*
X264734D01*
Y200984D01*
X253266D01*
Y195016D01*
D27*
X279000Y182000D03*
D22*
X273266Y179016D02*
X284734D01*
Y184984D01*
X273266D01*
Y179016D01*
D27*
X279000Y198000D03*
D22*
X273266Y195016D02*
X284734D01*
Y200984D01*
X273266D01*
Y195016D01*
D33*
X98500Y373500D02*
X6500D01*
Y265500D01*
X43500D01*
Y309850D01*
Y310150D01*
X43550Y310450D01*
X43650Y310700D01*
X43850Y310950D01*
X44050Y311150D01*
X44300Y311350D01*
X44550Y311450D01*
X44850Y311500D01*
X98500D01*
Y373500D01*
G36*
X98500Y373500D02*
X6500D01*
Y265500D01*
X43500D01*
Y309850D01*
Y310150D01*
X43550Y310450D01*
X43650Y310700D01*
X43850Y310950D01*
X44050Y311150D01*
X44300Y311350D01*
X44550Y311450D01*
X44850Y311500D01*
X98500D01*
Y373500D01*
G37*
D26*
X88000Y189000D03*
D13*
X83520Y181270D02*
X92480D01*
Y196730D01*
X83520D01*
Y181270D01*
D26*
X59000Y189000D03*
D13*
X54520Y181270D02*
X63480D01*
Y196730D01*
X54520D01*
Y181270D01*
D26*
X151000Y189000D03*
D13*
X146520Y181270D02*
X155480D01*
Y196730D01*
X146520D01*
Y181270D01*
D26*
X122000Y189000D03*
D13*
X117520Y181270D02*
X126480D01*
Y196730D01*
X117520D01*
Y181270D01*
D24*
X72000Y218000D03*
D13*
X65650Y211650D02*
X78350D01*
Y224350D01*
X65650D01*
Y211650D01*
D24*
X106290Y218000D03*
D13*
X99940Y211650D02*
X112640D01*
Y224350D01*
X99940D01*
Y211650D01*
D30*
X623800Y20000D03*
X655600D03*
X687400D03*
X719200D03*
X592000D03*
X343550D03*
X375350D03*
X407150D03*
X438950D03*
X311750D03*
X63300D03*
X95100D03*
X126900D03*
X158700D03*
X31500D03*
D29*
X220000Y160200D03*
Y135200D03*
Y109800D03*
Y84400D03*
Y59000D03*
D32*
X626000Y340000D03*
X591000D03*
D30*
X85000Y360000D03*
X543000Y345000D03*
X501000D03*
X459000D03*
X417000D03*
X375000D03*
X333000D03*
X291000D03*
X249000D03*
X207000D03*
X127000Y360000D03*
D24*
X140000Y242710D03*
D13*
X133650Y236360D02*
X146350D01*
Y249060D01*
X133650D01*
Y236360D01*
D24*
X140000Y277000D03*
D13*
X133650Y270650D02*
X146350D01*
Y283350D01*
X133650D01*
Y270650D01*
D24*
X175000Y242710D03*
D13*
X168650Y236360D02*
X181350D01*
Y249060D01*
X168650D01*
Y236360D01*
D24*
X175000Y277000D03*
D13*
X168650Y270650D02*
X181350D01*
Y283350D01*
X168650D01*
Y270650D01*
D25*
X35000Y280000D03*
D13*
X26745Y278095D02*
X43255D01*
Y281905D01*
X26745D01*
Y278095D01*
D25*
X35000Y267300D03*
D13*
X26745Y265395D02*
X43255D01*
Y269205D01*
X26745D01*
Y265395D01*
D25*
X35000Y254600D03*
D13*
X26745Y252695D02*
X43255D01*
Y256505D01*
X26745D01*
Y252695D01*
D25*
X35000Y241900D03*
D13*
X26745Y239995D02*
X43255D01*
Y243805D01*
X26745D01*
Y239995D01*
D25*
X86816Y241900D03*
D13*
X78561Y239995D02*
X95071D01*
Y243805D01*
X78561D01*
Y239995D01*
D25*
X86816Y254600D03*
D13*
X78561Y252695D02*
X95071D01*
Y256505D01*
X78561D01*
Y252695D01*
D25*
X86816Y267300D03*
D13*
X78561Y265395D02*
X95071D01*
Y269205D01*
X78561D01*
Y265395D01*
D25*
X86816Y280000D03*
D13*
X78561Y278095D02*
X95071D01*
Y281905D01*
X78561D01*
Y278095D01*
D33*
X35000Y267300D02*
X49700D01*
X54000Y263000D01*
Y194000D01*
X59000Y189000D01*
X85000Y360000D02*
X85000Y360000D01*
X35000Y267300D02*
X35000Y267300D01*
Y280000D02*
X35000Y280000D01*
D34*
Y254600D02*
Y241900D01*
D33*
X592000Y20000D02*
X592000Y20000D01*
X311750D02*
X311750Y20000D01*
X31500D02*
X31500Y20000D01*
X35000Y241900D02*
X35000Y241900D01*
X86816Y254600D02*
X108600D01*
X131000Y277000D01*
X140000D01*
X106000Y270000D02*
X103300Y267300D01*
X86816D01*
X80000Y140000D02*
X215200D01*
X220000Y135200D01*
D28*
X106000Y270000D03*
X80000Y140000D03*
D33*
X86816Y280000D02*
Y283816D01*
X102000Y299000D01*
X165000D01*
X175000Y289000D01*
Y277000D01*
X175000Y277000D02*
X185000D01*
X237000Y225000D01*
Y116000D01*
X231000Y110000D01*
X220200D01*
X220000Y109800D01*
X279000Y207000D02*
Y198000D01*
X259000D02*
X279000D01*
X127000Y360000D02*
X127000Y360000D01*
X591000Y340000D02*
X591000Y340000D01*
X719200Y20000D02*
X719200Y20000D01*
D28*
X279000Y207000D03*
D33*
X259000Y182000D02*
X244000Y167000D01*
Y83000D01*
X220000Y59000D01*
X151000Y189000D02*
Y184000D01*
X120000Y153000D01*
X75000D01*
X68000Y146000D01*
Y126000D01*
X78000Y116000D01*
X190000D01*
X195000Y111000D01*
Y87000D01*
X220000Y62000D01*
Y59000D01*
X106290Y218000D02*
X123000D01*
X151000Y190000D01*
Y189000D01*
X279000Y172000D02*
Y182000D01*
X86816Y241900D02*
X95000D01*
X140000Y242710D02*
X175000D01*
X95000Y241900D02*
X139190D01*
X140000Y242710D01*
X175000D02*
Y205200D01*
X220000Y160200D01*
D28*
X279000Y172000D03*
D31*
X333000Y345000D02*
Y183000D01*
X333000Y183000D03*
X375000Y345000D02*
Y183000D01*
X375000Y183000D03*
X417000Y345000D02*
Y183000D01*
X417000Y183000D03*
X623800Y20000D02*
Y92200D01*
X459000Y257000D01*
Y345000D01*
X655600Y20000D02*
Y116400D01*
X501000Y271000D01*
Y345000D01*
X687400Y20000D02*
Y138600D01*
X543000Y283000D01*
Y345000D01*
D33*
X85000Y125000D02*
X198000D01*
X204000Y119000D01*
Y100000D01*
X219600Y84400D01*
X220000D01*
X72000Y218000D02*
X88000Y202000D01*
Y189000D01*
X88000Y189000D02*
X122000D01*
X100000Y180000D02*
X91000Y189000D01*
X88000D01*
D28*
X85000Y125000D03*
X100000Y180000D03*
M02*
