G75*
G70*
%OFA0B0*%
%FSLAX24Y24*%
%IPPOS*%
%LPD*%
%AMOC8*
5,1,8,0,0,1.08239X$1,22.5*
%
%ADD10C,0.0000*%
%ADD11C,0.0591*%
%ADD12C,0.0600*%
%ADD13C,0.0160*%
%ADD14C,0.0317*%
%ADD15C,0.0100*%
%ADD16C,0.0356*%
%ADD17C,0.0240*%
D10*
X000350Y000280D02*
X057830Y000280D01*
X057830Y012091D01*
X000350Y012091D01*
X000350Y000280D01*
X025744Y006186D02*
X025748Y006350D01*
X025760Y006514D01*
X025780Y006677D01*
X025808Y006839D01*
X025844Y006999D01*
X025888Y007157D01*
X025940Y007313D01*
X025999Y007466D01*
X026065Y007617D01*
X026139Y007763D01*
X026220Y007906D01*
X026308Y008045D01*
X026402Y008179D01*
X026504Y008309D01*
X026611Y008433D01*
X026724Y008552D01*
X026843Y008665D01*
X026967Y008772D01*
X027097Y008874D01*
X027231Y008968D01*
X027370Y009056D01*
X027513Y009137D01*
X027659Y009211D01*
X027810Y009277D01*
X027963Y009336D01*
X028119Y009388D01*
X028277Y009432D01*
X028437Y009468D01*
X028599Y009496D01*
X028762Y009516D01*
X028926Y009528D01*
X029090Y009532D01*
X029254Y009528D01*
X029418Y009516D01*
X029581Y009496D01*
X029743Y009468D01*
X029903Y009432D01*
X030061Y009388D01*
X030217Y009336D01*
X030370Y009277D01*
X030521Y009211D01*
X030667Y009137D01*
X030810Y009056D01*
X030949Y008968D01*
X031083Y008874D01*
X031213Y008772D01*
X031337Y008665D01*
X031456Y008552D01*
X031569Y008433D01*
X031676Y008309D01*
X031778Y008179D01*
X031872Y008045D01*
X031960Y007906D01*
X032041Y007763D01*
X032115Y007617D01*
X032181Y007466D01*
X032240Y007313D01*
X032292Y007157D01*
X032336Y006999D01*
X032372Y006839D01*
X032400Y006677D01*
X032420Y006514D01*
X032432Y006350D01*
X032436Y006186D01*
X032432Y006022D01*
X032420Y005858D01*
X032400Y005695D01*
X032372Y005533D01*
X032336Y005373D01*
X032292Y005215D01*
X032240Y005059D01*
X032181Y004906D01*
X032115Y004755D01*
X032041Y004609D01*
X031960Y004466D01*
X031872Y004327D01*
X031778Y004193D01*
X031676Y004063D01*
X031569Y003939D01*
X031456Y003820D01*
X031337Y003707D01*
X031213Y003600D01*
X031083Y003498D01*
X030949Y003404D01*
X030810Y003316D01*
X030667Y003235D01*
X030521Y003161D01*
X030370Y003095D01*
X030217Y003036D01*
X030061Y002984D01*
X029903Y002940D01*
X029743Y002904D01*
X029581Y002876D01*
X029418Y002856D01*
X029254Y002844D01*
X029090Y002840D01*
X028926Y002844D01*
X028762Y002856D01*
X028599Y002876D01*
X028437Y002904D01*
X028277Y002940D01*
X028119Y002984D01*
X027963Y003036D01*
X027810Y003095D01*
X027659Y003161D01*
X027513Y003235D01*
X027370Y003316D01*
X027231Y003404D01*
X027097Y003498D01*
X026967Y003600D01*
X026843Y003707D01*
X026724Y003820D01*
X026611Y003939D01*
X026504Y004063D01*
X026402Y004193D01*
X026308Y004327D01*
X026220Y004466D01*
X026139Y004609D01*
X026065Y004755D01*
X025999Y004906D01*
X025940Y005059D01*
X025888Y005215D01*
X025844Y005373D01*
X025808Y005533D01*
X025780Y005695D01*
X025760Y005858D01*
X025748Y006022D01*
X025744Y006186D01*
D11*
X004393Y001756D02*
X004393Y001166D01*
X003393Y001166D02*
X003393Y001756D01*
X053787Y001756D02*
X053787Y001166D01*
X054787Y001166D02*
X054787Y001756D01*
D12*
X056256Y001855D03*
X056256Y001067D03*
X001925Y001067D03*
X001925Y001855D03*
D13*
X001425Y001865D02*
X000550Y001865D01*
X000550Y002024D02*
X001454Y002024D01*
X001425Y001954D02*
X001425Y001755D01*
X001501Y001572D01*
X001612Y001461D01*
X001501Y001351D01*
X001425Y001167D01*
X001425Y000968D01*
X001501Y000784D01*
X001642Y000644D01*
X001826Y000567D01*
X002024Y000567D01*
X002208Y000644D01*
X002349Y000784D01*
X002391Y000887D01*
X002798Y000480D01*
X000550Y000480D01*
X000550Y006600D01*
X006006Y006600D01*
X006109Y006643D01*
X006188Y006721D01*
X006230Y006824D01*
X006230Y011891D01*
X051670Y011891D01*
X051670Y006824D01*
X051713Y006721D01*
X051792Y006643D01*
X051894Y006600D01*
X057630Y006600D01*
X057630Y000480D01*
X055629Y000480D01*
X055748Y000599D01*
X055838Y000689D01*
X055864Y000752D01*
X055972Y000644D01*
X056156Y000567D01*
X056355Y000567D01*
X056539Y000644D01*
X056680Y000784D01*
X056756Y000968D01*
X056756Y001167D01*
X056680Y001351D01*
X056569Y001461D01*
X056680Y001572D01*
X056756Y001755D01*
X056756Y001954D01*
X056680Y002138D01*
X056539Y002279D01*
X056355Y002355D01*
X056156Y002355D01*
X055972Y002279D01*
X055869Y002175D01*
X055700Y002175D01*
X055582Y002126D01*
X055492Y002036D01*
X055295Y001839D01*
X055282Y001808D01*
X055282Y001855D01*
X055207Y002037D01*
X055068Y002176D01*
X054886Y002252D01*
X054689Y002252D01*
X054507Y002176D01*
X054367Y002037D01*
X054292Y001855D01*
X054292Y001067D01*
X054343Y000944D01*
X054232Y000944D01*
X054282Y001067D01*
X054282Y001855D01*
X054207Y002037D01*
X054068Y002176D01*
X053886Y002252D01*
X053689Y002252D01*
X053507Y002176D01*
X053367Y002037D01*
X053292Y001855D01*
X053292Y001067D01*
X053343Y000944D01*
X046299Y000944D01*
X046299Y004878D01*
X046299Y004932D01*
X046299Y004934D01*
X046299Y004936D01*
X046278Y004986D01*
X046258Y005036D01*
X046257Y005037D01*
X046256Y005039D01*
X046218Y005077D01*
X046180Y005115D01*
X046179Y005116D01*
X046177Y005117D01*
X046127Y005138D01*
X046078Y005159D01*
X046076Y005159D01*
X046074Y005160D01*
X046020Y005160D01*
X037815Y005258D01*
X037814Y005258D01*
X037760Y005258D01*
X037706Y005259D01*
X037704Y005258D01*
X037702Y005258D01*
X037652Y005238D01*
X037602Y005218D01*
X037601Y005216D01*
X037599Y005216D01*
X037561Y005178D01*
X037523Y005140D01*
X037522Y005138D01*
X037521Y005137D01*
X037500Y005087D01*
X037479Y005037D01*
X037479Y005036D01*
X037478Y005034D01*
X037478Y004980D01*
X037477Y004926D01*
X037478Y004924D01*
X037478Y000944D01*
X019699Y000944D01*
X019699Y004831D01*
X019699Y004832D01*
X019699Y004880D01*
X019699Y004928D01*
X019698Y004930D01*
X019698Y004932D01*
X019679Y004976D01*
X019661Y005020D01*
X019659Y005021D01*
X019658Y005023D01*
X019624Y005056D01*
X019590Y005090D01*
X019588Y005091D01*
X019587Y005092D01*
X019543Y005110D01*
X019498Y005128D01*
X019496Y005128D01*
X019495Y005129D01*
X019447Y005128D01*
X019399Y005128D01*
X019397Y005128D01*
X012678Y005030D01*
X012630Y005030D01*
X012629Y005029D01*
X012627Y005029D01*
X012583Y005010D01*
X012538Y004992D01*
X012537Y004991D01*
X012535Y004990D01*
X012502Y004955D01*
X012468Y004922D01*
X012467Y004920D01*
X012466Y004919D01*
X012448Y004874D01*
X012430Y004830D01*
X012430Y004828D01*
X012429Y004826D01*
X012430Y004778D01*
X012430Y000944D01*
X004814Y000944D01*
X004834Y000983D01*
X004857Y001055D01*
X004869Y001128D01*
X004869Y001443D01*
X004412Y001443D01*
X004412Y001480D01*
X004375Y001480D01*
X004375Y002232D01*
X004356Y002232D01*
X004282Y002220D01*
X004211Y002197D01*
X004144Y002163D01*
X004084Y002119D01*
X004031Y002066D01*
X003987Y002005D01*
X003953Y001939D01*
X003930Y001868D01*
X003918Y001794D01*
X003918Y001480D01*
X004375Y001480D01*
X004375Y001443D01*
X003918Y001443D01*
X003918Y001128D01*
X003930Y001055D01*
X003953Y000983D01*
X003973Y000944D01*
X003838Y000944D01*
X003889Y001067D01*
X003889Y001855D01*
X003813Y002037D01*
X003674Y002176D01*
X003492Y002252D01*
X003295Y002252D01*
X003113Y002176D01*
X002974Y002037D01*
X002898Y001855D01*
X002898Y001285D01*
X002836Y001348D01*
X002836Y001623D01*
X002787Y001741D01*
X002697Y001831D01*
X002402Y002126D01*
X002332Y002155D01*
X002208Y002279D01*
X002024Y002355D01*
X001826Y002355D01*
X001642Y002279D01*
X001501Y002138D01*
X001425Y001954D01*
X001445Y001707D02*
X000550Y001707D01*
X000550Y001548D02*
X001525Y001548D01*
X001540Y001390D02*
X000550Y001390D01*
X000550Y001231D02*
X001452Y001231D01*
X001425Y001073D02*
X000550Y001073D01*
X000550Y000914D02*
X001447Y000914D01*
X001530Y000756D02*
X000550Y000756D01*
X000550Y000597D02*
X001754Y000597D01*
X002096Y000597D02*
X002681Y000597D01*
X002523Y000756D02*
X002320Y000756D01*
X003889Y001073D02*
X003927Y001073D01*
X003918Y001231D02*
X003889Y001231D01*
X003889Y001390D02*
X003918Y001390D01*
X003918Y001548D02*
X003889Y001548D01*
X003889Y001707D02*
X003918Y001707D01*
X004375Y001707D02*
X004412Y001707D01*
X004412Y001548D02*
X004375Y001548D01*
X004412Y001480D02*
X004412Y002232D01*
X004431Y002232D01*
X004505Y002220D01*
X004576Y002197D01*
X004643Y002163D01*
X004703Y002119D01*
X004756Y002066D01*
X004800Y002005D01*
X004834Y001939D01*
X004857Y001868D01*
X004869Y001794D01*
X004869Y001480D01*
X004412Y001480D01*
X004869Y001548D02*
X012430Y001548D01*
X012430Y001390D02*
X004869Y001390D01*
X004869Y001231D02*
X012430Y001231D01*
X012430Y001073D02*
X004860Y001073D01*
X002898Y001390D02*
X002836Y001390D01*
X002836Y001548D02*
X002898Y001548D01*
X002898Y001707D02*
X002801Y001707D01*
X002902Y001865D02*
X002663Y001865D01*
X002504Y002024D02*
X002968Y002024D01*
X003127Y002182D02*
X002305Y002182D01*
X001545Y002182D02*
X000550Y002182D01*
X000550Y002341D02*
X001791Y002341D01*
X002059Y002341D02*
X012430Y002341D01*
X012430Y002499D02*
X000550Y002499D01*
X000550Y002658D02*
X012430Y002658D01*
X012430Y002816D02*
X000550Y002816D01*
X000550Y002975D02*
X012430Y002975D01*
X012430Y003133D02*
X000550Y003133D01*
X000550Y003292D02*
X012430Y003292D01*
X012430Y003450D02*
X000550Y003450D01*
X000550Y003609D02*
X012430Y003609D01*
X012430Y003767D02*
X000550Y003767D01*
X000550Y003926D02*
X012430Y003926D01*
X012430Y004084D02*
X000550Y004084D01*
X000550Y004243D02*
X012430Y004243D01*
X012430Y004401D02*
X000550Y004401D01*
X000550Y004560D02*
X012430Y004560D01*
X012430Y004718D02*
X000550Y004718D01*
X000550Y004877D02*
X012449Y004877D01*
X013023Y005035D02*
X000550Y005035D01*
X000550Y005194D02*
X025672Y005194D01*
X025680Y005151D02*
X025948Y004506D01*
X026336Y003925D01*
X026830Y003431D01*
X027410Y003043D01*
X028056Y002775D01*
X028741Y002639D01*
X029440Y002639D01*
X030125Y002775D01*
X030770Y003043D01*
X031351Y003431D01*
X031845Y003925D01*
X032233Y004506D01*
X032501Y005151D01*
X032637Y005836D01*
X032637Y006535D01*
X032501Y007220D01*
X032233Y007865D01*
X031845Y008446D01*
X031351Y008940D01*
X030770Y009328D01*
X030125Y009596D01*
X029440Y009732D01*
X028741Y009732D01*
X028056Y009596D01*
X027410Y009328D01*
X026830Y008940D01*
X026336Y008446D01*
X025948Y007865D01*
X025680Y007220D01*
X025544Y006535D01*
X025544Y005836D01*
X025680Y005151D01*
X025728Y005035D02*
X019646Y005035D01*
X019699Y004877D02*
X025794Y004877D01*
X025860Y004718D02*
X019699Y004718D01*
X019699Y004560D02*
X025925Y004560D01*
X026017Y004401D02*
X019699Y004401D01*
X019699Y004243D02*
X026123Y004243D01*
X026229Y004084D02*
X019699Y004084D01*
X019699Y003926D02*
X026335Y003926D01*
X026493Y003767D02*
X019699Y003767D01*
X019699Y003609D02*
X026652Y003609D01*
X026810Y003450D02*
X019699Y003450D01*
X019699Y003292D02*
X027038Y003292D01*
X027275Y003133D02*
X019699Y003133D01*
X019699Y002975D02*
X027575Y002975D01*
X027958Y002816D02*
X019699Y002816D01*
X019699Y002658D02*
X028648Y002658D01*
X029532Y002658D02*
X037478Y002658D01*
X037478Y002816D02*
X030223Y002816D01*
X030606Y002975D02*
X037478Y002975D01*
X037478Y003133D02*
X030905Y003133D01*
X031143Y003292D02*
X037478Y003292D01*
X037758Y003292D02*
X046019Y003292D01*
X046019Y003133D02*
X037758Y003133D01*
X037758Y002975D02*
X046019Y002975D01*
X046299Y002975D02*
X057630Y002975D01*
X057630Y003133D02*
X046299Y003133D01*
X046299Y003292D02*
X057630Y003292D01*
X057630Y003450D02*
X046299Y003450D01*
X046299Y003609D02*
X057630Y003609D01*
X057630Y003767D02*
X046299Y003767D01*
X046299Y003926D02*
X057630Y003926D01*
X057630Y004084D02*
X046299Y004084D01*
X046299Y004243D02*
X057630Y004243D01*
X057630Y004401D02*
X046299Y004401D01*
X046019Y004401D02*
X037758Y004401D01*
X037758Y004243D02*
X046019Y004243D01*
X046019Y004084D02*
X037758Y004084D01*
X037478Y004084D02*
X031951Y004084D01*
X032057Y004243D02*
X037478Y004243D01*
X037478Y004401D02*
X032163Y004401D01*
X032255Y004560D02*
X037478Y004560D01*
X037478Y004718D02*
X032321Y004718D01*
X032387Y004877D02*
X037478Y004877D01*
X037758Y004877D02*
X046019Y004877D01*
X046019Y004880D02*
X037758Y004978D01*
X037758Y000944D01*
X046019Y000944D01*
X046019Y004880D01*
X046019Y004718D02*
X037758Y004718D01*
X037758Y004560D02*
X046019Y004560D01*
X046299Y004560D02*
X057630Y004560D01*
X057630Y004718D02*
X046299Y004718D01*
X046299Y004877D02*
X057630Y004877D01*
X057630Y005035D02*
X046258Y005035D01*
X043208Y005194D02*
X057630Y005194D01*
X057630Y005352D02*
X032540Y005352D01*
X032509Y005194D02*
X037577Y005194D01*
X037478Y005035D02*
X032452Y005035D01*
X032572Y005511D02*
X057630Y005511D01*
X057630Y005669D02*
X032604Y005669D01*
X032635Y005828D02*
X057630Y005828D01*
X057630Y005986D02*
X032637Y005986D01*
X032637Y006145D02*
X057630Y006145D01*
X057630Y006303D02*
X032637Y006303D01*
X032637Y006462D02*
X057630Y006462D01*
X057650Y006880D02*
X051950Y006880D01*
X051950Y011911D01*
X057650Y011911D01*
X057650Y006880D01*
X057650Y006937D02*
X051950Y006937D01*
X051950Y007096D02*
X057650Y007096D01*
X057650Y007254D02*
X051950Y007254D01*
X051950Y007413D02*
X057650Y007413D01*
X057650Y007571D02*
X051950Y007571D01*
X051950Y007730D02*
X057650Y007730D01*
X057650Y007888D02*
X051950Y007888D01*
X051950Y008047D02*
X057650Y008047D01*
X057650Y008205D02*
X051950Y008205D01*
X051670Y008205D02*
X032006Y008205D01*
X032112Y008047D02*
X051670Y008047D01*
X051670Y007888D02*
X032218Y007888D01*
X032289Y007730D02*
X051670Y007730D01*
X051670Y007571D02*
X032355Y007571D01*
X032421Y007413D02*
X051670Y007413D01*
X051670Y007254D02*
X032486Y007254D01*
X032525Y007096D02*
X051670Y007096D01*
X051670Y006937D02*
X032557Y006937D01*
X032588Y006779D02*
X051689Y006779D01*
X051846Y006620D02*
X032620Y006620D01*
X026069Y008047D02*
X006230Y008047D01*
X006230Y008205D02*
X026174Y008205D01*
X026280Y008364D02*
X006230Y008364D01*
X006230Y008522D02*
X026411Y008522D01*
X026570Y008681D02*
X006230Y008681D01*
X005950Y008681D02*
X000530Y008681D01*
X000530Y008522D02*
X005950Y008522D01*
X005950Y008364D02*
X000530Y008364D01*
X000530Y008205D02*
X005950Y008205D01*
X005950Y008047D02*
X000530Y008047D01*
X000530Y007888D02*
X005950Y007888D01*
X006230Y007888D02*
X025963Y007888D01*
X025891Y007730D02*
X006230Y007730D01*
X006230Y007571D02*
X025826Y007571D01*
X025760Y007413D02*
X006230Y007413D01*
X006230Y007254D02*
X025694Y007254D01*
X025655Y007096D02*
X006230Y007096D01*
X006230Y006937D02*
X025624Y006937D01*
X025592Y006779D02*
X006211Y006779D01*
X005950Y006880D02*
X005950Y011911D01*
X000530Y011911D01*
X000530Y006880D01*
X005950Y006880D01*
X005950Y006937D02*
X000530Y006937D01*
X000530Y007096D02*
X005950Y007096D01*
X005950Y007254D02*
X000530Y007254D01*
X000530Y007413D02*
X005950Y007413D01*
X005950Y007571D02*
X000530Y007571D01*
X000530Y007730D02*
X005950Y007730D01*
X006054Y006620D02*
X025561Y006620D01*
X025544Y006462D02*
X000550Y006462D01*
X000550Y006303D02*
X025544Y006303D01*
X025544Y006145D02*
X000550Y006145D01*
X000550Y005986D02*
X025544Y005986D01*
X025546Y005828D02*
X000550Y005828D01*
X000550Y005669D02*
X025577Y005669D01*
X025609Y005511D02*
X000550Y005511D01*
X000550Y005352D02*
X025640Y005352D01*
X031846Y003926D02*
X037478Y003926D01*
X037478Y003767D02*
X031687Y003767D01*
X031529Y003609D02*
X037478Y003609D01*
X037478Y003450D02*
X031370Y003450D01*
X037478Y002499D02*
X019699Y002499D01*
X019699Y002341D02*
X037478Y002341D01*
X037758Y002341D02*
X046019Y002341D01*
X046019Y002499D02*
X037758Y002499D01*
X037758Y002658D02*
X046019Y002658D01*
X046019Y002816D02*
X037758Y002816D01*
X037758Y002182D02*
X046019Y002182D01*
X046019Y002024D02*
X037758Y002024D01*
X037758Y001865D02*
X046019Y001865D01*
X046299Y001865D02*
X053296Y001865D01*
X053362Y002024D02*
X046299Y002024D01*
X046299Y002182D02*
X053521Y002182D01*
X054054Y002182D02*
X054521Y002182D01*
X054362Y002024D02*
X054213Y002024D01*
X054278Y001865D02*
X054296Y001865D01*
X054282Y001707D02*
X054292Y001707D01*
X054282Y001548D02*
X054292Y001548D01*
X054282Y001390D02*
X054292Y001390D01*
X054282Y001231D02*
X054292Y001231D01*
X054282Y001073D02*
X054292Y001073D01*
X053292Y001073D02*
X046299Y001073D01*
X046019Y001073D02*
X037758Y001073D01*
X037478Y001073D02*
X019699Y001073D01*
X019699Y001231D02*
X037478Y001231D01*
X037478Y001390D02*
X019699Y001390D01*
X019699Y001548D02*
X037478Y001548D01*
X037478Y001707D02*
X019699Y001707D01*
X019699Y001865D02*
X037478Y001865D01*
X037478Y002024D02*
X019699Y002024D01*
X019699Y002182D02*
X037478Y002182D01*
X037758Y001707D02*
X046019Y001707D01*
X046019Y001548D02*
X037758Y001548D01*
X037758Y001390D02*
X046019Y001390D01*
X046019Y001231D02*
X037758Y001231D01*
X046299Y001231D02*
X053292Y001231D01*
X053292Y001390D02*
X046299Y001390D01*
X046299Y001548D02*
X053292Y001548D01*
X053292Y001707D02*
X046299Y001707D01*
X046299Y002341D02*
X056122Y002341D01*
X056390Y002341D02*
X057630Y002341D01*
X057630Y002499D02*
X046299Y002499D01*
X046299Y002658D02*
X057630Y002658D01*
X057630Y002816D02*
X046299Y002816D01*
X046019Y003450D02*
X037758Y003450D01*
X037758Y003609D02*
X046019Y003609D01*
X046019Y003767D02*
X037758Y003767D01*
X037758Y003926D02*
X046019Y003926D01*
X055054Y002182D02*
X055876Y002182D01*
X055480Y002024D02*
X055213Y002024D01*
X055278Y001865D02*
X055321Y001865D01*
X056636Y002182D02*
X057630Y002182D01*
X057630Y002024D02*
X056727Y002024D01*
X056756Y001865D02*
X057630Y001865D01*
X057630Y001707D02*
X056735Y001707D01*
X056656Y001548D02*
X057630Y001548D01*
X057630Y001390D02*
X056641Y001390D01*
X056729Y001231D02*
X057630Y001231D01*
X057630Y001073D02*
X056756Y001073D01*
X056733Y000914D02*
X057630Y000914D01*
X057630Y000756D02*
X056651Y000756D01*
X056427Y000597D02*
X057630Y000597D01*
X056085Y000597D02*
X055746Y000597D01*
X055748Y000599D02*
X055748Y000599D01*
X057650Y008364D02*
X051950Y008364D01*
X051950Y008522D02*
X057650Y008522D01*
X057650Y008681D02*
X051950Y008681D01*
X051670Y008681D02*
X031611Y008681D01*
X031769Y008522D02*
X051670Y008522D01*
X051670Y008364D02*
X031900Y008364D01*
X031452Y008839D02*
X051670Y008839D01*
X051670Y008998D02*
X031265Y008998D01*
X031028Y009156D02*
X051670Y009156D01*
X051670Y009315D02*
X030791Y009315D01*
X030421Y009473D02*
X051670Y009473D01*
X051670Y009632D02*
X029945Y009632D01*
X028236Y009632D02*
X006230Y009632D01*
X006230Y009790D02*
X051670Y009790D01*
X051950Y009790D02*
X057650Y009790D01*
X057650Y009632D02*
X051950Y009632D01*
X051950Y009473D02*
X057650Y009473D01*
X057650Y009315D02*
X051950Y009315D01*
X051950Y009156D02*
X057650Y009156D01*
X057650Y008998D02*
X051950Y008998D01*
X051950Y008839D02*
X057650Y008839D01*
X057650Y009949D02*
X051950Y009949D01*
X051950Y010107D02*
X057650Y010107D01*
X057650Y010266D02*
X051950Y010266D01*
X051950Y010424D02*
X057650Y010424D01*
X057650Y010583D02*
X051950Y010583D01*
X051950Y010741D02*
X057650Y010741D01*
X057650Y010900D02*
X051950Y010900D01*
X051670Y010900D02*
X006230Y010900D01*
X006230Y010741D02*
X051670Y010741D01*
X051670Y010583D02*
X006230Y010583D01*
X005950Y010583D02*
X000530Y010583D01*
X000530Y010741D02*
X005950Y010741D01*
X005950Y010900D02*
X000530Y010900D01*
X000530Y011058D02*
X005950Y011058D01*
X005950Y011217D02*
X000530Y011217D01*
X000530Y011375D02*
X005950Y011375D01*
X005950Y011534D02*
X000530Y011534D01*
X000530Y011692D02*
X005950Y011692D01*
X005950Y011851D02*
X000530Y011851D01*
X006230Y011851D02*
X051670Y011851D01*
X051670Y011692D02*
X006230Y011692D01*
X006230Y011534D02*
X051670Y011534D01*
X051670Y011375D02*
X006230Y011375D01*
X006230Y011217D02*
X051670Y011217D01*
X051670Y011058D02*
X006230Y011058D01*
X006230Y010424D02*
X051670Y010424D01*
X051670Y010266D02*
X006230Y010266D01*
X006230Y010107D02*
X051670Y010107D01*
X051670Y009949D02*
X006230Y009949D01*
X005950Y009949D02*
X000530Y009949D01*
X000530Y010107D02*
X005950Y010107D01*
X005950Y010266D02*
X000530Y010266D01*
X000530Y010424D02*
X005950Y010424D01*
X005950Y009790D02*
X000530Y009790D01*
X000530Y009632D02*
X005950Y009632D01*
X005950Y009473D02*
X000530Y009473D01*
X000530Y009315D02*
X005950Y009315D01*
X005950Y009156D02*
X000530Y009156D01*
X000530Y008998D02*
X005950Y008998D01*
X005950Y008839D02*
X000530Y008839D01*
X006230Y008839D02*
X026728Y008839D01*
X026915Y008998D02*
X006230Y008998D01*
X006230Y009156D02*
X027153Y009156D01*
X027390Y009315D02*
X006230Y009315D01*
X006230Y009473D02*
X027760Y009473D01*
X051950Y011058D02*
X057650Y011058D01*
X057650Y011217D02*
X051950Y011217D01*
X051950Y011375D02*
X057650Y011375D01*
X057650Y011534D02*
X051950Y011534D01*
X051950Y011692D02*
X057650Y011692D01*
X057650Y011851D02*
X051950Y011851D01*
X012430Y002182D02*
X004605Y002182D01*
X004412Y002182D02*
X004375Y002182D01*
X004375Y002024D02*
X004412Y002024D01*
X004412Y001865D02*
X004375Y001865D01*
X004000Y002024D02*
X003819Y002024D01*
X003885Y001865D02*
X003929Y001865D01*
X004182Y002182D02*
X003660Y002182D01*
X004787Y002024D02*
X012430Y002024D01*
X012430Y001865D02*
X004857Y001865D01*
X004869Y001707D02*
X012430Y001707D01*
D14*
X011985Y001495D03*
X011886Y003365D03*
X005390Y004054D03*
X006670Y005038D03*
X011886Y004939D03*
X001256Y006022D03*
X008442Y007794D03*
X007550Y008680D03*
X007200Y008680D03*
X007200Y009080D03*
X007550Y009080D03*
X008540Y010451D03*
X042103Y005924D03*
X043776Y005825D03*
X049879Y005530D03*
X052142Y006317D03*
X052536Y004546D03*
X049977Y003955D03*
X046926Y001298D03*
X036886Y001593D03*
X020449Y001888D03*
X000764Y000806D03*
X047516Y007991D03*
X049050Y008930D03*
X049400Y008930D03*
X049400Y009380D03*
X049050Y009380D03*
X047516Y009861D03*
D15*
X019449Y004878D02*
X012680Y004780D01*
X012680Y000914D01*
X019449Y000914D01*
X019449Y004878D01*
X019449Y004811D02*
X014813Y004811D01*
X012680Y004713D02*
X019449Y004713D01*
X019449Y004614D02*
X012680Y004614D01*
X012680Y004516D02*
X019449Y004516D01*
X019449Y004417D02*
X012680Y004417D01*
X012680Y004319D02*
X019449Y004319D01*
X019449Y004220D02*
X012680Y004220D01*
X012680Y004122D02*
X019449Y004122D01*
X019449Y004023D02*
X012680Y004023D01*
X012680Y003925D02*
X019449Y003925D01*
X019449Y003826D02*
X012680Y003826D01*
X012680Y003728D02*
X019449Y003728D01*
X019449Y003629D02*
X012680Y003629D01*
X012680Y003531D02*
X019449Y003531D01*
X019449Y003432D02*
X012680Y003432D01*
X012680Y003334D02*
X019449Y003334D01*
X019449Y003235D02*
X012680Y003235D01*
X012680Y003137D02*
X019449Y003137D01*
X019449Y003038D02*
X012680Y003038D01*
X012680Y002940D02*
X019449Y002940D01*
X019449Y002841D02*
X012680Y002841D01*
X012680Y002743D02*
X019449Y002743D01*
X019449Y002644D02*
X012680Y002644D01*
X012680Y002546D02*
X019449Y002546D01*
X019449Y002447D02*
X012680Y002447D01*
X012680Y002349D02*
X019449Y002349D01*
X019449Y002250D02*
X012680Y002250D01*
X012680Y002152D02*
X019449Y002152D01*
X019449Y002053D02*
X012680Y002053D01*
X012680Y001955D02*
X019449Y001955D01*
X019449Y001856D02*
X012680Y001856D01*
X012680Y001758D02*
X019449Y001758D01*
X019449Y001659D02*
X012680Y001659D01*
X012680Y001561D02*
X019449Y001561D01*
X019449Y001462D02*
X012680Y001462D01*
X012680Y001364D02*
X019449Y001364D01*
X019449Y001265D02*
X012680Y001265D01*
X012680Y001167D02*
X019449Y001167D01*
X019449Y001068D02*
X012680Y001068D01*
X012680Y000970D02*
X019449Y000970D01*
D16*
X015212Y001264D03*
X014622Y001264D03*
X014622Y001756D03*
X015212Y001756D03*
X015212Y002249D03*
X014622Y002249D03*
X014622Y002741D03*
X015212Y002741D03*
X015212Y003233D03*
X014622Y003233D03*
X004550Y007980D03*
X004050Y007980D03*
X004050Y008480D03*
X004550Y008480D03*
X004550Y008980D03*
X004050Y008980D03*
X004050Y009480D03*
X004550Y009480D03*
X004550Y009980D03*
X004050Y009980D03*
X042919Y003180D03*
X043519Y003180D03*
X043519Y002680D03*
X042919Y002680D03*
X042919Y002180D03*
X043519Y002180D03*
X043519Y001680D03*
X042919Y001680D03*
X042919Y001180D03*
X043519Y001180D03*
X053598Y007957D03*
X054189Y007957D03*
X054189Y008449D03*
X053598Y008449D03*
X053598Y008941D03*
X054189Y008941D03*
X054189Y009532D03*
X053598Y009532D03*
X053598Y010024D03*
X054189Y010024D03*
D17*
X055764Y001855D02*
X056256Y001855D01*
X055764Y001855D02*
X055567Y001658D01*
X055567Y000871D01*
X055321Y000624D01*
X003106Y000624D01*
X002516Y001215D01*
X002516Y001560D01*
X002220Y001855D01*
X001925Y001855D01*
M02*
