G75*
G70*
%OFA0B0*%
%FSLAX24Y24*%
%IPPOS*%
%LPD*%
%AMOC8*
5,1,8,0,0,1.08239X$1,22.5*
%
%ADD10C,0.0000*%
%ADD11C,0.6733*%
%ADD12C,0.0631*%
%ADD13C,0.0640*%
D10*
X000350Y000280D02*
X057830Y000280D01*
X057830Y012091D01*
X000350Y012091D01*
X000350Y000280D01*
X025744Y006186D02*
X025748Y006350D01*
X025760Y006514D01*
X025780Y006677D01*
X025808Y006839D01*
X025844Y006999D01*
X025888Y007157D01*
X025940Y007313D01*
X025999Y007466D01*
X026065Y007617D01*
X026139Y007763D01*
X026220Y007906D01*
X026308Y008045D01*
X026402Y008179D01*
X026504Y008309D01*
X026611Y008433D01*
X026724Y008552D01*
X026843Y008665D01*
X026967Y008772D01*
X027097Y008874D01*
X027231Y008968D01*
X027370Y009056D01*
X027513Y009137D01*
X027659Y009211D01*
X027810Y009277D01*
X027963Y009336D01*
X028119Y009388D01*
X028277Y009432D01*
X028437Y009468D01*
X028599Y009496D01*
X028762Y009516D01*
X028926Y009528D01*
X029090Y009532D01*
X029254Y009528D01*
X029418Y009516D01*
X029581Y009496D01*
X029743Y009468D01*
X029903Y009432D01*
X030061Y009388D01*
X030217Y009336D01*
X030370Y009277D01*
X030521Y009211D01*
X030667Y009137D01*
X030810Y009056D01*
X030949Y008968D01*
X031083Y008874D01*
X031213Y008772D01*
X031337Y008665D01*
X031456Y008552D01*
X031569Y008433D01*
X031676Y008309D01*
X031778Y008179D01*
X031872Y008045D01*
X031960Y007906D01*
X032041Y007763D01*
X032115Y007617D01*
X032181Y007466D01*
X032240Y007313D01*
X032292Y007157D01*
X032336Y006999D01*
X032372Y006839D01*
X032400Y006677D01*
X032420Y006514D01*
X032432Y006350D01*
X032436Y006186D01*
X032432Y006022D01*
X032420Y005858D01*
X032400Y005695D01*
X032372Y005533D01*
X032336Y005373D01*
X032292Y005215D01*
X032240Y005059D01*
X032181Y004906D01*
X032115Y004755D01*
X032041Y004609D01*
X031960Y004466D01*
X031872Y004327D01*
X031778Y004193D01*
X031676Y004063D01*
X031569Y003939D01*
X031456Y003820D01*
X031337Y003707D01*
X031213Y003600D01*
X031083Y003498D01*
X030949Y003404D01*
X030810Y003316D01*
X030667Y003235D01*
X030521Y003161D01*
X030370Y003095D01*
X030217Y003036D01*
X030061Y002984D01*
X029903Y002940D01*
X029743Y002904D01*
X029581Y002876D01*
X029418Y002856D01*
X029254Y002844D01*
X029090Y002840D01*
X028926Y002844D01*
X028762Y002856D01*
X028599Y002876D01*
X028437Y002904D01*
X028277Y002940D01*
X028119Y002984D01*
X027963Y003036D01*
X027810Y003095D01*
X027659Y003161D01*
X027513Y003235D01*
X027370Y003316D01*
X027231Y003404D01*
X027097Y003498D01*
X026967Y003600D01*
X026843Y003707D01*
X026724Y003820D01*
X026611Y003939D01*
X026504Y004063D01*
X026402Y004193D01*
X026308Y004327D01*
X026220Y004466D01*
X026139Y004609D01*
X026065Y004755D01*
X025999Y004906D01*
X025940Y005059D01*
X025888Y005215D01*
X025844Y005373D01*
X025808Y005533D01*
X025780Y005695D01*
X025760Y005858D01*
X025748Y006022D01*
X025744Y006186D01*
D11*
X029090Y006186D03*
D12*
X053787Y001756D02*
X053787Y001166D01*
X054787Y001166D02*
X054787Y001756D01*
X004393Y001756D02*
X004393Y001166D01*
X003393Y001166D02*
X003393Y001756D01*
D13*
X001925Y001855D03*
X001925Y001067D03*
X056256Y001067D03*
X056256Y001855D03*
M02*
