%
M48
M72
T01C0.0197
T02C0.0236
T03C0.0354
T04C0.0394
T05C0.6693
%
T01
X764Y806
X11985Y1495
X11886Y3365
X5390Y4054
X6670Y5038
X11886Y4939
X1256Y6022
X8442Y7794
X7550Y8680
X7200Y8680
X7200Y9080
X7550Y9080
X8540Y10451
X42103Y5924
X43776Y5825
X49879Y5530
X52142Y6317
X52536Y4546
X49977Y3955
X46926Y1298
X36886Y1593
X20449Y1888
X47516Y7991
X49050Y8930
X49400Y8930
X49400Y9380
X49050Y9380
X47516Y9861
T02
X43519Y1180
X42919Y1180
X42919Y1680
X43519Y1680
X43519Y2180
X42919Y2180
X42919Y2680
X43519Y2680
X43519Y3180
X42919Y3180
X15212Y3233
X14622Y3233
X14622Y2741
X15212Y2741
X15212Y2249
X14622Y2249
X14622Y1756
X15212Y1756
X15212Y1264
X14622Y1264
X4550Y7980
X4050Y7980
X4050Y8480
X4550Y8480
X4550Y8980
X4050Y8980
X4050Y9480
X4550Y9480
X4550Y9980
X4050Y9980
X53598Y10024
X54189Y10024
X54189Y9532
X53598Y9532
X53598Y8941
X54189Y8941
X54189Y8449
X53598Y8449
X53598Y7957
X54189Y7957
T03
X56256Y1067
X56256Y1855
X1925Y1855
X1925Y1067
T04
X3393Y1461
X4393Y1461
X53787Y1461
X54787Y1461
T05
X29090Y6186
M30
