G75*
G70*
%OFA0B0*%
%FSLAX24Y24*%
%IPPOS*%
%LPD*%
%AMOC8*
5,1,8,0,0,1.08239X$1,22.5*
%
%ADD10C,0.0000*%
%ADD11C,0.0080*%
%ADD12C,0.0100*%
%ADD13C,0.0050*%
%ADD14R,0.0500X0.0500*%
%ADD15C,0.0040*%
%ADD16R,0.0827X0.0118*%
%ADD17C,0.0030*%
%ADD18R,0.0250X0.0250*%
D10*
X000350Y000280D02*
X057830Y000280D01*
X057830Y012091D01*
X000350Y012091D01*
X000350Y000280D01*
X025744Y006186D02*
X025748Y006350D01*
X025760Y006514D01*
X025780Y006677D01*
X025808Y006839D01*
X025844Y006999D01*
X025888Y007157D01*
X025940Y007313D01*
X025999Y007466D01*
X026065Y007617D01*
X026139Y007763D01*
X026220Y007906D01*
X026308Y008045D01*
X026402Y008179D01*
X026504Y008309D01*
X026611Y008433D01*
X026724Y008552D01*
X026843Y008665D01*
X026967Y008772D01*
X027097Y008874D01*
X027231Y008968D01*
X027370Y009056D01*
X027513Y009137D01*
X027659Y009211D01*
X027810Y009277D01*
X027963Y009336D01*
X028119Y009388D01*
X028277Y009432D01*
X028437Y009468D01*
X028599Y009496D01*
X028762Y009516D01*
X028926Y009528D01*
X029090Y009532D01*
X029254Y009528D01*
X029418Y009516D01*
X029581Y009496D01*
X029743Y009468D01*
X029903Y009432D01*
X030061Y009388D01*
X030217Y009336D01*
X030370Y009277D01*
X030521Y009211D01*
X030667Y009137D01*
X030810Y009056D01*
X030949Y008968D01*
X031083Y008874D01*
X031213Y008772D01*
X031337Y008665D01*
X031456Y008552D01*
X031569Y008433D01*
X031676Y008309D01*
X031778Y008179D01*
X031872Y008045D01*
X031960Y007906D01*
X032041Y007763D01*
X032115Y007617D01*
X032181Y007466D01*
X032240Y007313D01*
X032292Y007157D01*
X032336Y006999D01*
X032372Y006839D01*
X032400Y006677D01*
X032420Y006514D01*
X032432Y006350D01*
X032436Y006186D01*
X032432Y006022D01*
X032420Y005858D01*
X032400Y005695D01*
X032372Y005533D01*
X032336Y005373D01*
X032292Y005215D01*
X032240Y005059D01*
X032181Y004906D01*
X032115Y004755D01*
X032041Y004609D01*
X031960Y004466D01*
X031872Y004327D01*
X031778Y004193D01*
X031676Y004063D01*
X031569Y003939D01*
X031456Y003820D01*
X031337Y003707D01*
X031213Y003600D01*
X031083Y003498D01*
X030949Y003404D01*
X030810Y003316D01*
X030667Y003235D01*
X030521Y003161D01*
X030370Y003095D01*
X030217Y003036D01*
X030061Y002984D01*
X029903Y002940D01*
X029743Y002904D01*
X029581Y002876D01*
X029418Y002856D01*
X029254Y002844D01*
X029090Y002840D01*
X028926Y002844D01*
X028762Y002856D01*
X028599Y002876D01*
X028437Y002904D01*
X028277Y002940D01*
X028119Y002984D01*
X027963Y003036D01*
X027810Y003095D01*
X027659Y003161D01*
X027513Y003235D01*
X027370Y003316D01*
X027231Y003404D01*
X027097Y003498D01*
X026967Y003600D01*
X026843Y003707D01*
X026724Y003820D01*
X026611Y003939D01*
X026504Y004063D01*
X026402Y004193D01*
X026308Y004327D01*
X026220Y004466D01*
X026139Y004609D01*
X026065Y004755D01*
X025999Y004906D01*
X025940Y005059D01*
X025888Y005215D01*
X025844Y005373D01*
X025808Y005533D01*
X025780Y005695D01*
X025760Y005858D01*
X025748Y006022D01*
X025744Y006186D01*
D11*
X003010Y002957D02*
X002396Y002957D01*
X002703Y003264D02*
X002703Y002650D01*
X002260Y002209D02*
X001590Y002209D01*
X001590Y001619D01*
X001059Y001567D02*
X001059Y002181D01*
X000752Y001874D02*
X001366Y001874D01*
X002260Y001619D02*
X002260Y002209D01*
X002259Y001618D02*
X002238Y001606D01*
X002219Y001591D01*
X002201Y001574D01*
X002187Y001554D01*
X002175Y001532D01*
X002167Y001509D01*
X002162Y001485D01*
X002160Y001461D01*
X002162Y001437D01*
X002167Y001413D01*
X002175Y001390D01*
X002187Y001368D01*
X002201Y001348D01*
X002219Y001331D01*
X002238Y001316D01*
X002259Y001304D01*
X002260Y001304D02*
X002260Y000713D01*
X001590Y000713D01*
X001590Y001304D01*
X001591Y001304D02*
X001612Y001316D01*
X001631Y001331D01*
X001649Y001348D01*
X001663Y001368D01*
X001675Y001390D01*
X001683Y001413D01*
X001688Y001437D01*
X001690Y001461D01*
X001688Y001485D01*
X001683Y001509D01*
X001675Y001532D01*
X001663Y001554D01*
X001649Y001574D01*
X001631Y001591D01*
X001612Y001606D01*
X001591Y001618D01*
X052622Y002858D02*
X053236Y002858D01*
X052929Y003165D02*
X052929Y002551D01*
X055921Y002209D02*
X055921Y001619D01*
X056590Y001619D02*
X056590Y002209D01*
X055921Y002209D01*
X057162Y002181D02*
X057162Y001567D01*
X056590Y001618D02*
X056569Y001606D01*
X056550Y001591D01*
X056532Y001574D01*
X056518Y001554D01*
X056506Y001532D01*
X056498Y001509D01*
X056493Y001485D01*
X056491Y001461D01*
X056493Y001437D01*
X056498Y001413D01*
X056506Y001390D01*
X056518Y001368D01*
X056532Y001348D01*
X056550Y001331D01*
X056569Y001316D01*
X056590Y001304D01*
X056590Y000713D01*
X055921Y000713D01*
X055921Y001304D01*
X055942Y001316D01*
X055961Y001331D01*
X055979Y001348D01*
X055993Y001368D01*
X056005Y001390D01*
X056013Y001413D01*
X056018Y001437D01*
X056020Y001461D01*
X056018Y001485D01*
X056013Y001509D01*
X056005Y001532D01*
X055993Y001554D01*
X055979Y001574D01*
X055961Y001591D01*
X055942Y001606D01*
X055921Y001618D01*
X056855Y001874D02*
X057469Y001874D01*
D12*
X055287Y002211D02*
X053287Y002211D01*
X053287Y000711D01*
X055287Y000711D01*
X055287Y002211D01*
X004893Y002211D02*
X004893Y000711D01*
X002893Y000711D01*
X002893Y002211D01*
X004893Y002211D01*
X003229Y004494D02*
X002658Y004494D01*
X002933Y004908D01*
X003229Y004494D01*
D13*
X003819Y002936D02*
X003969Y002936D01*
X003894Y002936D02*
X003894Y002561D01*
X003819Y002486D01*
X003744Y002486D01*
X003668Y002561D01*
X004129Y002486D02*
X004429Y002486D01*
X004279Y002486D02*
X004279Y002936D01*
X004129Y002786D01*
X002034Y002786D02*
X001959Y002711D01*
X002034Y002636D01*
X002034Y002561D01*
X001959Y002486D01*
X001809Y002486D01*
X001734Y002561D01*
X001498Y002561D02*
X001498Y002936D01*
X001423Y002936D02*
X001574Y002936D01*
X001734Y002861D02*
X001809Y002936D01*
X001959Y002936D01*
X002034Y002861D01*
X002034Y002786D01*
X001959Y002711D02*
X001884Y002711D01*
X001498Y002561D02*
X001423Y002486D01*
X001348Y002486D01*
X001273Y002561D01*
X013614Y002918D02*
X013614Y001579D01*
X016220Y001579D01*
X016220Y002918D01*
X013614Y002918D01*
X016019Y003036D02*
X016334Y002721D01*
X016334Y003036D01*
X016295Y003075D01*
X016019Y003075D01*
X016019Y003036D01*
X016019Y003045D02*
X016326Y003045D01*
X016334Y002996D02*
X016059Y002996D01*
X016108Y002948D02*
X016334Y002948D01*
X016334Y002899D02*
X016156Y002899D01*
X016205Y002851D02*
X016334Y002851D01*
X016334Y002802D02*
X016253Y002802D01*
X016302Y002754D02*
X016334Y002754D01*
X008120Y008128D02*
X006620Y008128D01*
X006620Y008378D01*
X005590Y008272D02*
X002984Y008272D01*
X002984Y009611D01*
X005590Y009611D01*
X005590Y008272D01*
X003185Y008154D02*
X002870Y008469D01*
X002870Y008154D01*
X002909Y008115D01*
X003185Y008115D01*
X003185Y008154D01*
X003185Y008137D02*
X002887Y008137D01*
X002870Y008186D02*
X003153Y008186D01*
X003105Y008234D02*
X002870Y008234D01*
X002870Y008283D02*
X003056Y008283D01*
X003008Y008331D02*
X002870Y008331D01*
X002870Y008380D02*
X002959Y008380D01*
X002911Y008428D02*
X002870Y008428D01*
X006620Y009378D02*
X006620Y009628D01*
X008120Y009628D01*
X008120Y009378D01*
X006541Y009878D02*
X006543Y009896D01*
X006549Y009912D01*
X006558Y009927D01*
X006571Y009940D01*
X006586Y009949D01*
X006602Y009955D01*
X006620Y009957D01*
X006638Y009955D01*
X006654Y009949D01*
X006669Y009940D01*
X006682Y009927D01*
X006691Y009912D01*
X006697Y009896D01*
X006699Y009878D01*
X006697Y009860D01*
X006691Y009844D01*
X006682Y009829D01*
X006669Y009816D01*
X006654Y009807D01*
X006638Y009801D01*
X006620Y009799D01*
X006602Y009801D01*
X006586Y009807D01*
X006571Y009816D01*
X006558Y009829D01*
X006549Y009844D01*
X006543Y009860D01*
X006541Y009878D01*
X008120Y008378D02*
X008120Y008128D01*
X041960Y002918D02*
X041960Y001579D01*
X044567Y001579D01*
X044567Y002918D01*
X041960Y002918D01*
X041846Y001776D02*
X042161Y001461D01*
X042161Y001422D01*
X041886Y001422D01*
X041846Y001461D01*
X041846Y001776D01*
X041846Y001735D02*
X041887Y001735D01*
X041846Y001687D02*
X041936Y001687D01*
X041984Y001638D02*
X041846Y001638D01*
X041846Y001590D02*
X042033Y001590D01*
X042081Y001541D02*
X041846Y001541D01*
X041846Y001493D02*
X042130Y001493D01*
X042161Y001444D02*
X041863Y001444D01*
X054062Y002561D02*
X054137Y002486D01*
X054212Y002486D01*
X054287Y002561D01*
X054287Y002936D01*
X054212Y002936D02*
X054362Y002936D01*
X054523Y002861D02*
X054598Y002936D01*
X054748Y002936D01*
X054823Y002861D01*
X054823Y002786D01*
X054523Y002486D01*
X054823Y002486D01*
X055604Y002561D02*
X055679Y002486D01*
X055754Y002486D01*
X055829Y002561D01*
X055829Y002936D01*
X055754Y002936D02*
X055904Y002936D01*
X056064Y002711D02*
X056290Y002936D01*
X056290Y002486D01*
X056365Y002711D02*
X056064Y002711D01*
X049910Y008153D02*
X049912Y008171D01*
X049918Y008187D01*
X049927Y008202D01*
X049940Y008215D01*
X049955Y008224D01*
X049971Y008230D01*
X049989Y008232D01*
X050007Y008230D01*
X050023Y008224D01*
X050038Y008215D01*
X050051Y008202D01*
X050060Y008187D01*
X050066Y008171D01*
X050068Y008153D01*
X050066Y008135D01*
X050060Y008119D01*
X050051Y008104D01*
X050038Y008091D01*
X050023Y008082D01*
X050007Y008076D01*
X049989Y008074D01*
X049971Y008076D01*
X049955Y008082D01*
X049940Y008091D01*
X049927Y008104D01*
X049918Y008119D01*
X049912Y008135D01*
X049910Y008153D01*
X049989Y008403D02*
X048489Y008403D01*
X048489Y008653D01*
X049989Y008653D02*
X049989Y008403D01*
X052590Y008272D02*
X052590Y009611D01*
X055197Y009611D01*
X055197Y008272D01*
X052590Y008272D01*
X054996Y009729D02*
X055311Y009414D01*
X055311Y009729D01*
X055271Y009768D01*
X054996Y009768D01*
X054996Y009729D01*
X054996Y009738D02*
X055302Y009738D01*
X055311Y009689D02*
X055036Y009689D01*
X055084Y009641D02*
X055311Y009641D01*
X055311Y009592D02*
X055133Y009592D01*
X055181Y009544D02*
X055311Y009544D01*
X055311Y009495D02*
X055230Y009495D01*
X055278Y009447D02*
X055311Y009447D01*
X049989Y009653D02*
X049989Y009903D01*
X048489Y009903D01*
X048489Y009653D01*
D14*
X053537Y002461D03*
X003143Y002461D03*
D15*
X003459Y005033D02*
X003459Y005214D01*
X003519Y005274D01*
X003760Y005274D01*
X003820Y005214D01*
X003820Y005033D01*
X003459Y005033D01*
X003579Y005402D02*
X003459Y005522D01*
X003820Y005522D01*
X003820Y005402D02*
X003820Y005642D01*
X006640Y007708D02*
X006700Y007648D01*
X006820Y007648D01*
X006880Y007708D01*
X006880Y008009D01*
X007008Y007889D02*
X007128Y008009D01*
X007128Y007648D01*
X007008Y007648D02*
X007248Y007648D01*
X006640Y007708D02*
X006640Y008009D01*
X003489Y009888D02*
X003249Y009888D01*
X003369Y009888D02*
X003369Y010248D01*
X003249Y010128D01*
X003121Y010188D02*
X003121Y009948D01*
X003061Y009888D01*
X002881Y009888D01*
X002881Y010248D01*
X003061Y010248D01*
X003121Y010188D01*
X002753Y010248D02*
X002513Y010248D01*
X002513Y009888D01*
X002753Y009888D01*
X002384Y009888D02*
X002144Y009888D01*
X002144Y010248D01*
X002513Y010068D02*
X002633Y010068D01*
X040621Y003456D02*
X040621Y003095D01*
X040861Y003095D01*
X040989Y003095D02*
X041229Y003095D01*
X041357Y003095D02*
X041537Y003095D01*
X041597Y003155D01*
X041597Y003396D01*
X041537Y003456D01*
X041357Y003456D01*
X041357Y003095D01*
X041109Y003275D02*
X040989Y003275D01*
X040989Y003095D02*
X040989Y003456D01*
X041229Y003456D01*
X041726Y003275D02*
X041966Y003275D01*
X041906Y003095D02*
X041906Y003456D01*
X041726Y003275D01*
X017172Y001142D02*
X017172Y001082D01*
X016932Y000842D01*
X017172Y000842D01*
X016804Y000902D02*
X016804Y001142D01*
X016744Y001202D01*
X016563Y001202D01*
X016563Y000842D01*
X016744Y000842D01*
X016804Y000902D01*
X016435Y000842D02*
X016195Y000842D01*
X016195Y001202D01*
X016435Y001202D01*
X016315Y001022D02*
X016195Y001022D01*
X015827Y001202D02*
X015827Y000842D01*
X016067Y000842D01*
X016932Y001142D02*
X016992Y001202D01*
X017112Y001202D01*
X017172Y001142D01*
X049273Y010083D02*
X049333Y010023D01*
X049453Y010023D01*
X049513Y010083D01*
X049513Y010384D01*
X049641Y010323D02*
X049701Y010384D01*
X049821Y010384D01*
X049881Y010323D01*
X049881Y010263D01*
X049641Y010023D01*
X049881Y010023D01*
X049273Y010083D02*
X049273Y010384D01*
X054003Y010635D02*
X054243Y010635D01*
X054372Y010635D02*
X054612Y010635D01*
X054740Y010635D02*
X054920Y010635D01*
X054980Y010695D01*
X054980Y010935D01*
X054920Y010995D01*
X054740Y010995D01*
X054740Y010635D01*
X054372Y010635D02*
X054372Y010995D01*
X054612Y010995D01*
X054492Y010815D02*
X054372Y010815D01*
X054003Y010995D02*
X054003Y010635D01*
X055108Y010695D02*
X055168Y010635D01*
X055288Y010635D01*
X055348Y010695D01*
X055348Y010755D01*
X055288Y010815D01*
X055228Y010815D01*
X055288Y010815D02*
X055348Y010875D01*
X055348Y010935D01*
X055288Y010995D01*
X055168Y010995D01*
X055108Y010935D01*
D16*
X002933Y004927D03*
D17*
X005967Y005413D02*
X005967Y005703D01*
X006112Y005703D01*
X006160Y005655D01*
X006160Y005558D01*
X006112Y005510D01*
X005967Y005510D01*
X006064Y005510D02*
X006160Y005413D01*
X006261Y005413D02*
X006455Y005413D01*
X006358Y005413D02*
X006358Y005703D01*
X006261Y005606D01*
X011404Y006998D02*
X011404Y007192D01*
X011404Y007293D02*
X011404Y007389D01*
X011404Y007341D02*
X011695Y007341D01*
X011695Y007293D02*
X011695Y007389D01*
X011695Y007489D02*
X011404Y007489D01*
X011404Y007634D01*
X011453Y007683D01*
X011646Y007683D01*
X011695Y007634D01*
X011695Y007489D01*
X011695Y007784D02*
X011695Y007977D01*
X011695Y007881D02*
X011404Y007881D01*
X011501Y007784D01*
X011549Y007095D02*
X011549Y006998D01*
X011404Y006998D02*
X011695Y006998D01*
X010791Y010243D02*
X010694Y010243D01*
X010646Y010291D01*
X010545Y010243D02*
X010448Y010339D01*
X010496Y010339D02*
X010351Y010339D01*
X010351Y010243D02*
X010351Y010533D01*
X010496Y010533D01*
X010545Y010485D01*
X010545Y010388D01*
X010496Y010339D01*
X010646Y010485D02*
X010694Y010533D01*
X010791Y010533D01*
X010839Y010485D01*
X010839Y010436D01*
X010791Y010388D01*
X010839Y010339D01*
X010839Y010291D01*
X010791Y010243D01*
X010791Y010388D02*
X010742Y010388D01*
X007601Y010915D02*
X007407Y010915D01*
X007504Y010915D02*
X007504Y011206D01*
X007407Y011109D01*
X007306Y011157D02*
X007258Y011206D01*
X007161Y011206D01*
X007113Y011157D01*
X007113Y010964D01*
X007161Y010915D01*
X007258Y010915D01*
X007306Y010964D01*
X045108Y010568D02*
X045108Y010472D01*
X045156Y010423D01*
X045156Y010322D02*
X045108Y010274D01*
X045108Y010129D01*
X045398Y010129D01*
X045398Y010274D01*
X045350Y010322D01*
X045156Y010322D01*
X045398Y010423D02*
X045205Y010617D01*
X045156Y010617D01*
X045108Y010568D01*
X045398Y010617D02*
X045398Y010423D01*
X045398Y010029D02*
X045398Y009932D01*
X045398Y009981D02*
X045108Y009981D01*
X045108Y010029D02*
X045108Y009932D01*
X045108Y009831D02*
X045108Y009638D01*
X045398Y009638D01*
X045253Y009638D02*
X045253Y009734D01*
X051744Y009649D02*
X051744Y009795D01*
X051792Y009843D01*
X051889Y009843D01*
X051937Y009795D01*
X051937Y009649D01*
X052034Y009649D02*
X051744Y009649D01*
X051937Y009746D02*
X052034Y009843D01*
X052034Y009944D02*
X051840Y010138D01*
X051792Y010138D01*
X051744Y010089D01*
X051744Y009992D01*
X051792Y009944D01*
X052034Y009944D02*
X052034Y010138D01*
X051222Y006690D02*
X051222Y006443D01*
X050975Y006690D01*
X050913Y006690D01*
X050851Y006628D01*
X050851Y006505D01*
X050913Y006443D01*
X050913Y006322D02*
X050851Y006260D01*
X050851Y006137D01*
X050913Y006075D01*
X051160Y006075D01*
X051222Y006137D01*
X051222Y006260D01*
X051160Y006322D01*
X054938Y005437D02*
X055131Y005437D01*
X055232Y005340D02*
X055329Y005437D01*
X055329Y005147D01*
X055232Y005147D02*
X055426Y005147D01*
X054938Y005147D02*
X054938Y005437D01*
X054938Y005292D02*
X055034Y005292D01*
X053562Y004597D02*
X053192Y004597D01*
X053377Y004411D01*
X053377Y004658D01*
X053377Y004290D02*
X053439Y004228D01*
X053439Y004043D01*
X053562Y004043D02*
X053192Y004043D01*
X053192Y004228D01*
X053253Y004290D01*
X053377Y004290D01*
X053439Y004166D02*
X053562Y004290D01*
X056101Y003787D02*
X056101Y003594D01*
X056149Y003545D01*
X056246Y003545D01*
X056295Y003594D01*
X056396Y003691D02*
X056589Y003691D01*
X056541Y003836D02*
X056396Y003691D01*
X056295Y003787D02*
X056246Y003836D01*
X056149Y003836D01*
X056101Y003787D01*
X056541Y003836D02*
X056541Y003545D01*
D18*
X056631Y002336D03*
X002300Y002336D03*
M02*
