G75*
G70*
%OFA0B0*%
%FSLAX24Y24*%
%IPPOS*%
%LPD*%
%AMOC8*
5,1,8,0,0,1.08239X$1,22.5*
%
%ADD10C,0.0000*%
%ADD11C,0.0080*%
%ADD12C,0.0100*%
%ADD13C,0.0050*%
%ADD14R,0.0500X0.0500*%
%ADD15C,0.0040*%
%ADD16R,0.0827X0.0118*%
%ADD17C,0.0030*%
%ADD18R,0.0250X0.0010*%
%ADD19R,0.0170X0.0010*%
%ADD20R,0.0300X0.0010*%
%ADD21R,0.0040X0.0010*%
%ADD22R,0.1190X0.0010*%
%ADD23R,0.1120X0.0010*%
%ADD24R,0.1130X0.0010*%
%ADD25R,0.0240X0.0010*%
%ADD26R,0.0190X0.0010*%
%ADD27R,0.0420X0.0010*%
%ADD28R,0.1270X0.0010*%
%ADD29R,0.0210X0.0010*%
%ADD30R,0.1250X0.0010*%
%ADD31R,0.0200X0.0010*%
%ADD32R,0.0410X0.0010*%
%ADD33R,0.1310X0.0010*%
%ADD34R,0.0230X0.0010*%
%ADD35R,0.1280X0.0010*%
%ADD36R,0.1330X0.0010*%
%ADD37R,0.1320X0.0010*%
%ADD38R,0.0220X0.0010*%
%ADD39R,0.1370X0.0010*%
%ADD40R,0.1360X0.0010*%
%ADD41R,0.1400X0.0010*%
%ADD42R,0.0260X0.0010*%
%ADD43R,0.1410X0.0010*%
%ADD44R,0.0270X0.0010*%
%ADD45R,0.1430X0.0010*%
%ADD46R,0.0290X0.0010*%
%ADD47R,0.1420X0.0010*%
%ADD48R,0.0280X0.0010*%
%ADD49R,0.1450X0.0010*%
%ADD50R,0.0400X0.0010*%
%ADD51R,0.1460X0.0010*%
%ADD52R,0.1480X0.0010*%
%ADD53R,0.0310X0.0010*%
%ADD54R,0.1490X0.0010*%
%ADD55R,0.0330X0.0010*%
%ADD56R,0.1470X0.0010*%
%ADD57R,0.0340X0.0010*%
%ADD58R,0.1510X0.0010*%
%ADD59R,0.0350X0.0010*%
%ADD60R,0.0360X0.0010*%
%ADD61R,0.0520X0.0010*%
%ADD62R,0.0940X0.0010*%
%ADD63R,0.1500X0.0010*%
%ADD64R,0.0390X0.0010*%
%ADD65R,0.0500X0.0010*%
%ADD66R,0.0920X0.0010*%
%ADD67R,0.0370X0.0010*%
%ADD68R,0.0380X0.0010*%
%ADD69R,0.0900X0.0010*%
%ADD70R,0.1520X0.0010*%
%ADD71R,0.0490X0.0010*%
%ADD72R,0.0890X0.0010*%
%ADD73R,0.0880X0.0010*%
%ADD74R,0.1530X0.0010*%
%ADD75R,0.0480X0.0010*%
%ADD76R,0.0430X0.0010*%
%ADD77R,0.0470X0.0010*%
%ADD78R,0.0440X0.0010*%
%ADD79R,0.0870X0.0010*%
%ADD80R,0.0450X0.0010*%
%ADD81R,0.0460X0.0010*%
%ADD82R,0.0510X0.0010*%
%ADD83R,0.0530X0.0010*%
%ADD84R,0.0540X0.0010*%
%ADD85R,0.0550X0.0010*%
%ADD86R,0.0570X0.0010*%
%ADD87R,0.0560X0.0010*%
%ADD88R,0.0590X0.0010*%
%ADD89R,0.0580X0.0010*%
%ADD90R,0.0930X0.0010*%
%ADD91R,0.0600X0.0010*%
%ADD92R,0.1550X0.0010*%
%ADD93R,0.0320X0.0010*%
%ADD94R,0.1020X0.0010*%
%ADD95R,0.1040X0.0010*%
%ADD96R,0.1070X0.0010*%
%ADD97R,0.0840X0.0010*%
%ADD98R,0.1090X0.0010*%
%ADD99R,0.0820X0.0010*%
%ADD100R,0.1110X0.0010*%
%ADD101R,0.0760X0.0010*%
%ADD102R,0.0800X0.0010*%
%ADD103R,0.0790X0.0010*%
%ADD104R,0.1180X0.0010*%
%ADD105R,0.0780X0.0010*%
%ADD106R,0.1140X0.0010*%
%ADD107R,0.1240X0.0010*%
%ADD108R,0.0770X0.0010*%
%ADD109R,0.1150X0.0010*%
%ADD110R,0.1290X0.0010*%
%ADD111R,0.1160X0.0010*%
%ADD112R,0.0750X0.0010*%
%ADD113R,0.1340X0.0010*%
%ADD114R,0.1170X0.0010*%
%ADD115R,0.1350X0.0010*%
%ADD116R,0.0610X0.0010*%
%ADD117R,0.0860X0.0010*%
%ADD118R,0.0850X0.0010*%
%ADD119R,0.1050X0.0010*%
%ADD120R,0.1030X0.0010*%
%ADD121R,0.0180X0.0010*%
%ADD122R,0.1440X0.0010*%
%ADD123R,0.0830X0.0010*%
%ADD124R,0.1390X0.0010*%
%ADD125R,0.0810X0.0010*%
%ADD126R,0.1300X0.0010*%
%ADD127R,0.0160X0.0010*%
%ADD128R,0.0150X0.0010*%
%ADD129R,0.1210X0.0010*%
%ADD130R,0.1200X0.0010*%
%ADD131R,0.0720X0.0010*%
%ADD132R,0.0120X0.0010*%
D10*
X000377Y000280D02*
X055495Y000280D01*
X055495Y012091D01*
X000377Y012091D01*
X000377Y000280D01*
X010135Y006186D02*
X010137Y006227D01*
X010143Y006269D01*
X010152Y006309D01*
X010166Y006348D01*
X010183Y006386D01*
X010203Y006422D01*
X010227Y006456D01*
X010254Y006488D01*
X010284Y006517D01*
X010316Y006543D01*
X010351Y006566D01*
X010387Y006586D01*
X010425Y006602D01*
X010465Y006614D01*
X010506Y006623D01*
X010547Y006628D01*
X010588Y006629D01*
X010630Y006626D01*
X010671Y006619D01*
X010711Y006609D01*
X010750Y006594D01*
X010787Y006576D01*
X010823Y006555D01*
X010857Y006530D01*
X010888Y006503D01*
X010916Y006473D01*
X010941Y006440D01*
X010963Y006404D01*
X010982Y006367D01*
X010997Y006329D01*
X011009Y006289D01*
X011017Y006248D01*
X011021Y006207D01*
X011021Y006165D01*
X011017Y006124D01*
X011009Y006083D01*
X010997Y006043D01*
X010982Y006005D01*
X010963Y005968D01*
X010941Y005932D01*
X010916Y005899D01*
X010888Y005869D01*
X010857Y005842D01*
X010823Y005817D01*
X010787Y005796D01*
X010750Y005778D01*
X010711Y005763D01*
X010671Y005753D01*
X010630Y005746D01*
X010588Y005743D01*
X010547Y005744D01*
X010506Y005749D01*
X010465Y005758D01*
X010425Y005770D01*
X010387Y005786D01*
X010351Y005806D01*
X010316Y005829D01*
X010284Y005855D01*
X010254Y005884D01*
X010227Y005916D01*
X010203Y005950D01*
X010183Y005986D01*
X010166Y006024D01*
X010152Y006063D01*
X010143Y006103D01*
X010137Y006145D01*
X010135Y006186D01*
X017010Y006186D02*
X017012Y006257D01*
X017018Y006328D01*
X017028Y006399D01*
X017042Y006468D01*
X017059Y006537D01*
X017081Y006605D01*
X017106Y006672D01*
X017135Y006737D01*
X017167Y006800D01*
X017203Y006862D01*
X017242Y006921D01*
X017285Y006978D01*
X017330Y007033D01*
X017379Y007085D01*
X017430Y007134D01*
X017484Y007180D01*
X017541Y007224D01*
X017599Y007264D01*
X017660Y007300D01*
X017723Y007334D01*
X017788Y007363D01*
X017854Y007389D01*
X017922Y007412D01*
X017990Y007430D01*
X018060Y007445D01*
X018130Y007456D01*
X018201Y007463D01*
X018272Y007466D01*
X018343Y007465D01*
X018414Y007460D01*
X018485Y007451D01*
X018555Y007438D01*
X018624Y007422D01*
X018692Y007401D01*
X018759Y007377D01*
X018825Y007349D01*
X018888Y007317D01*
X018950Y007282D01*
X019010Y007244D01*
X019068Y007202D01*
X019123Y007158D01*
X019176Y007110D01*
X019226Y007059D01*
X019273Y007006D01*
X019317Y006950D01*
X019358Y006892D01*
X019396Y006831D01*
X019430Y006769D01*
X019460Y006704D01*
X019487Y006639D01*
X019511Y006571D01*
X019530Y006503D01*
X019546Y006434D01*
X019558Y006363D01*
X019566Y006293D01*
X019570Y006222D01*
X019570Y006150D01*
X019566Y006079D01*
X019558Y006009D01*
X019546Y005938D01*
X019530Y005869D01*
X019511Y005801D01*
X019487Y005733D01*
X019460Y005668D01*
X019430Y005603D01*
X019396Y005541D01*
X019358Y005480D01*
X019317Y005422D01*
X019273Y005366D01*
X019226Y005313D01*
X019176Y005262D01*
X019123Y005214D01*
X019068Y005170D01*
X019010Y005128D01*
X018950Y005090D01*
X018888Y005055D01*
X018825Y005023D01*
X018759Y004995D01*
X018692Y004971D01*
X018624Y004950D01*
X018555Y004934D01*
X018485Y004921D01*
X018414Y004912D01*
X018343Y004907D01*
X018272Y004906D01*
X018201Y004909D01*
X018130Y004916D01*
X018060Y004927D01*
X017990Y004942D01*
X017922Y004960D01*
X017854Y004983D01*
X017788Y005009D01*
X017723Y005038D01*
X017660Y005072D01*
X017599Y005108D01*
X017541Y005148D01*
X017484Y005192D01*
X017430Y005238D01*
X017379Y005287D01*
X017330Y005339D01*
X017285Y005394D01*
X017242Y005451D01*
X017203Y005510D01*
X017167Y005572D01*
X017135Y005635D01*
X017106Y005700D01*
X017081Y005767D01*
X017059Y005835D01*
X017042Y005904D01*
X017028Y005973D01*
X017018Y006044D01*
X017012Y006115D01*
X017010Y006186D01*
X024590Y006186D02*
X024594Y006350D01*
X024606Y006514D01*
X024626Y006677D01*
X024654Y006839D01*
X024690Y006999D01*
X024734Y007157D01*
X024786Y007313D01*
X024845Y007466D01*
X024911Y007617D01*
X024985Y007763D01*
X025066Y007906D01*
X025154Y008045D01*
X025248Y008179D01*
X025350Y008309D01*
X025457Y008433D01*
X025570Y008552D01*
X025689Y008665D01*
X025813Y008772D01*
X025943Y008874D01*
X026077Y008968D01*
X026216Y009056D01*
X026359Y009137D01*
X026505Y009211D01*
X026656Y009277D01*
X026809Y009336D01*
X026965Y009388D01*
X027123Y009432D01*
X027283Y009468D01*
X027445Y009496D01*
X027608Y009516D01*
X027772Y009528D01*
X027936Y009532D01*
X028100Y009528D01*
X028264Y009516D01*
X028427Y009496D01*
X028589Y009468D01*
X028749Y009432D01*
X028907Y009388D01*
X029063Y009336D01*
X029216Y009277D01*
X029367Y009211D01*
X029513Y009137D01*
X029656Y009056D01*
X029795Y008968D01*
X029929Y008874D01*
X030059Y008772D01*
X030183Y008665D01*
X030302Y008552D01*
X030415Y008433D01*
X030522Y008309D01*
X030624Y008179D01*
X030718Y008045D01*
X030806Y007906D01*
X030887Y007763D01*
X030961Y007617D01*
X031027Y007466D01*
X031086Y007313D01*
X031138Y007157D01*
X031182Y006999D01*
X031218Y006839D01*
X031246Y006677D01*
X031266Y006514D01*
X031278Y006350D01*
X031282Y006186D01*
X031278Y006022D01*
X031266Y005858D01*
X031246Y005695D01*
X031218Y005533D01*
X031182Y005373D01*
X031138Y005215D01*
X031086Y005059D01*
X031027Y004906D01*
X030961Y004755D01*
X030887Y004609D01*
X030806Y004466D01*
X030718Y004327D01*
X030624Y004193D01*
X030522Y004063D01*
X030415Y003939D01*
X030302Y003820D01*
X030183Y003707D01*
X030059Y003600D01*
X029929Y003498D01*
X029795Y003404D01*
X029656Y003316D01*
X029513Y003235D01*
X029367Y003161D01*
X029216Y003095D01*
X029063Y003036D01*
X028907Y002984D01*
X028749Y002940D01*
X028589Y002904D01*
X028427Y002876D01*
X028264Y002856D01*
X028100Y002844D01*
X027936Y002840D01*
X027772Y002844D01*
X027608Y002856D01*
X027445Y002876D01*
X027283Y002904D01*
X027123Y002940D01*
X026965Y002984D01*
X026809Y003036D01*
X026656Y003095D01*
X026505Y003161D01*
X026359Y003235D01*
X026216Y003316D01*
X026077Y003404D01*
X025943Y003498D01*
X025813Y003600D01*
X025689Y003707D01*
X025570Y003820D01*
X025457Y003939D01*
X025350Y004063D01*
X025248Y004193D01*
X025154Y004327D01*
X025066Y004466D01*
X024985Y004609D01*
X024911Y004755D01*
X024845Y004906D01*
X024786Y005059D01*
X024734Y005215D01*
X024690Y005373D01*
X024654Y005533D01*
X024626Y005695D01*
X024606Y005858D01*
X024594Y006022D01*
X024590Y006186D01*
X036302Y006186D02*
X036304Y006257D01*
X036310Y006328D01*
X036320Y006399D01*
X036334Y006468D01*
X036351Y006537D01*
X036373Y006605D01*
X036398Y006672D01*
X036427Y006737D01*
X036459Y006800D01*
X036495Y006862D01*
X036534Y006921D01*
X036577Y006978D01*
X036622Y007033D01*
X036671Y007085D01*
X036722Y007134D01*
X036776Y007180D01*
X036833Y007224D01*
X036891Y007264D01*
X036952Y007300D01*
X037015Y007334D01*
X037080Y007363D01*
X037146Y007389D01*
X037214Y007412D01*
X037282Y007430D01*
X037352Y007445D01*
X037422Y007456D01*
X037493Y007463D01*
X037564Y007466D01*
X037635Y007465D01*
X037706Y007460D01*
X037777Y007451D01*
X037847Y007438D01*
X037916Y007422D01*
X037984Y007401D01*
X038051Y007377D01*
X038117Y007349D01*
X038180Y007317D01*
X038242Y007282D01*
X038302Y007244D01*
X038360Y007202D01*
X038415Y007158D01*
X038468Y007110D01*
X038518Y007059D01*
X038565Y007006D01*
X038609Y006950D01*
X038650Y006892D01*
X038688Y006831D01*
X038722Y006769D01*
X038752Y006704D01*
X038779Y006639D01*
X038803Y006571D01*
X038822Y006503D01*
X038838Y006434D01*
X038850Y006363D01*
X038858Y006293D01*
X038862Y006222D01*
X038862Y006150D01*
X038858Y006079D01*
X038850Y006009D01*
X038838Y005938D01*
X038822Y005869D01*
X038803Y005801D01*
X038779Y005733D01*
X038752Y005668D01*
X038722Y005603D01*
X038688Y005541D01*
X038650Y005480D01*
X038609Y005422D01*
X038565Y005366D01*
X038518Y005313D01*
X038468Y005262D01*
X038415Y005214D01*
X038360Y005170D01*
X038302Y005128D01*
X038242Y005090D01*
X038180Y005055D01*
X038117Y005023D01*
X038051Y004995D01*
X037984Y004971D01*
X037916Y004950D01*
X037847Y004934D01*
X037777Y004921D01*
X037706Y004912D01*
X037635Y004907D01*
X037564Y004906D01*
X037493Y004909D01*
X037422Y004916D01*
X037352Y004927D01*
X037282Y004942D01*
X037214Y004960D01*
X037146Y004983D01*
X037080Y005009D01*
X037015Y005038D01*
X036952Y005072D01*
X036891Y005108D01*
X036833Y005148D01*
X036776Y005192D01*
X036722Y005238D01*
X036671Y005287D01*
X036622Y005339D01*
X036577Y005394D01*
X036534Y005451D01*
X036495Y005510D01*
X036459Y005572D01*
X036427Y005635D01*
X036398Y005700D01*
X036373Y005767D01*
X036351Y005835D01*
X036334Y005904D01*
X036320Y005973D01*
X036310Y006044D01*
X036304Y006115D01*
X036302Y006186D01*
X044851Y006186D02*
X044853Y006227D01*
X044859Y006269D01*
X044868Y006309D01*
X044882Y006348D01*
X044899Y006386D01*
X044919Y006422D01*
X044943Y006456D01*
X044970Y006488D01*
X045000Y006517D01*
X045032Y006543D01*
X045067Y006566D01*
X045103Y006586D01*
X045141Y006602D01*
X045181Y006614D01*
X045222Y006623D01*
X045263Y006628D01*
X045304Y006629D01*
X045346Y006626D01*
X045387Y006619D01*
X045427Y006609D01*
X045466Y006594D01*
X045503Y006576D01*
X045539Y006555D01*
X045573Y006530D01*
X045604Y006503D01*
X045632Y006473D01*
X045657Y006440D01*
X045679Y006404D01*
X045698Y006367D01*
X045713Y006329D01*
X045725Y006289D01*
X045733Y006248D01*
X045737Y006207D01*
X045737Y006165D01*
X045733Y006124D01*
X045725Y006083D01*
X045713Y006043D01*
X045698Y006005D01*
X045679Y005968D01*
X045657Y005932D01*
X045632Y005899D01*
X045604Y005869D01*
X045573Y005842D01*
X045539Y005817D01*
X045503Y005796D01*
X045466Y005778D01*
X045427Y005763D01*
X045387Y005753D01*
X045346Y005746D01*
X045304Y005743D01*
X045263Y005744D01*
X045222Y005749D01*
X045181Y005758D01*
X045141Y005770D01*
X045103Y005786D01*
X045067Y005806D01*
X045032Y005829D01*
X045000Y005855D01*
X044970Y005884D01*
X044943Y005916D01*
X044919Y005950D01*
X044899Y005986D01*
X044882Y006024D01*
X044868Y006063D01*
X044859Y006103D01*
X044853Y006145D01*
X044851Y006186D01*
D11*
X049216Y003657D02*
X049216Y003044D01*
X048909Y003350D02*
X049523Y003350D01*
X052354Y003350D02*
X052968Y003350D01*
X052661Y003044D02*
X052661Y003657D01*
X005399Y003400D02*
X004785Y003400D01*
X005092Y003707D02*
X005092Y003093D01*
X001983Y003400D02*
X001370Y003400D01*
X001677Y003707D02*
X001677Y003093D01*
D12*
X001404Y002447D02*
X003483Y002447D01*
X003483Y000869D01*
X001404Y000869D01*
X001404Y002447D01*
X004849Y002447D02*
X006928Y002447D01*
X006928Y000869D01*
X004849Y000869D01*
X004849Y002447D01*
X003058Y004494D02*
X002487Y004494D01*
X002763Y004908D01*
X003058Y004494D01*
X048944Y002447D02*
X048944Y000869D01*
X051023Y000869D01*
X051023Y002447D01*
X048944Y002447D01*
X052389Y002447D02*
X054467Y002447D01*
X054467Y000869D01*
X052389Y000869D01*
X052389Y002447D01*
D13*
X053203Y002758D02*
X053278Y002683D01*
X053353Y002683D01*
X053428Y002758D01*
X053428Y003133D01*
X053353Y003133D02*
X053503Y003133D01*
X053663Y002908D02*
X053889Y003133D01*
X053889Y002683D01*
X053964Y002908D02*
X053663Y002908D01*
X050519Y002983D02*
X050519Y003058D01*
X050444Y003133D01*
X050294Y003133D01*
X050219Y003058D01*
X050058Y003133D02*
X049908Y003133D01*
X049983Y003133D02*
X049983Y002758D01*
X049908Y002683D01*
X049833Y002683D01*
X049758Y002758D01*
X050219Y002683D02*
X050519Y002983D01*
X050519Y002683D02*
X050219Y002683D01*
X042428Y002918D02*
X042428Y001579D01*
X039822Y001579D01*
X039822Y002918D01*
X042428Y002918D01*
X040023Y001461D02*
X039708Y001776D01*
X039708Y001461D01*
X039747Y001422D01*
X040023Y001422D01*
X040023Y001461D01*
X040023Y001444D02*
X039725Y001444D01*
X039708Y001493D02*
X039991Y001493D01*
X039943Y001541D02*
X039708Y001541D01*
X039708Y001590D02*
X039894Y001590D01*
X039846Y001638D02*
X039708Y001638D01*
X039708Y001687D02*
X039797Y001687D01*
X039749Y001735D02*
X039708Y001735D01*
X016164Y002721D02*
X015849Y003036D01*
X015849Y003075D01*
X016125Y003075D01*
X016164Y003036D01*
X016164Y002721D01*
X016164Y002754D02*
X016132Y002754D01*
X016164Y002802D02*
X016083Y002802D01*
X016035Y002851D02*
X016164Y002851D01*
X016164Y002899D02*
X015986Y002899D01*
X016050Y002918D02*
X016050Y001579D01*
X013444Y001579D01*
X013444Y002918D01*
X016050Y002918D01*
X015938Y002948D02*
X016164Y002948D01*
X016164Y002996D02*
X015889Y002996D01*
X015849Y003045D02*
X016156Y003045D01*
X006424Y002683D02*
X006124Y002683D01*
X006274Y002683D02*
X006274Y003133D01*
X006124Y002983D01*
X005964Y003133D02*
X005814Y003133D01*
X005889Y003133D02*
X005889Y002758D01*
X005814Y002683D01*
X005739Y002683D01*
X005664Y002758D01*
X002979Y002758D02*
X002904Y002683D01*
X002754Y002683D01*
X002679Y002758D01*
X002829Y002908D02*
X002904Y002908D01*
X002979Y002833D01*
X002979Y002758D01*
X002904Y002908D02*
X002979Y002983D01*
X002979Y003058D01*
X002904Y003133D01*
X002754Y003133D01*
X002679Y003058D01*
X002519Y003133D02*
X002369Y003133D01*
X002444Y003133D02*
X002444Y002758D01*
X002369Y002683D01*
X002294Y002683D01*
X002219Y002758D01*
X002739Y008115D02*
X003015Y008115D01*
X003015Y008154D01*
X002700Y008469D01*
X002700Y008154D01*
X002739Y008115D01*
X002717Y008137D02*
X003015Y008137D01*
X002983Y008186D02*
X002700Y008186D01*
X002700Y008234D02*
X002935Y008234D01*
X002886Y008283D02*
X002700Y008283D01*
X002700Y008331D02*
X002838Y008331D01*
X002814Y008272D02*
X002814Y009611D01*
X005420Y009611D01*
X005420Y008272D01*
X002814Y008272D01*
X002789Y008380D02*
X002700Y008380D01*
X002700Y008428D02*
X002741Y008428D01*
X006450Y008328D02*
X006450Y008128D01*
X007950Y008128D01*
X007950Y008328D01*
X007950Y009428D02*
X007950Y009628D01*
X006450Y009628D01*
X006450Y009428D01*
X006371Y009878D02*
X006373Y009896D01*
X006379Y009912D01*
X006388Y009927D01*
X006401Y009940D01*
X006416Y009949D01*
X006432Y009955D01*
X006450Y009957D01*
X006468Y009955D01*
X006484Y009949D01*
X006499Y009940D01*
X006512Y009927D01*
X006521Y009912D01*
X006527Y009896D01*
X006529Y009878D01*
X006527Y009860D01*
X006521Y009844D01*
X006512Y009829D01*
X006499Y009816D01*
X006484Y009807D01*
X006468Y009801D01*
X006450Y009799D01*
X006432Y009801D01*
X006416Y009807D01*
X006401Y009816D01*
X006388Y009829D01*
X006379Y009844D01*
X006373Y009860D01*
X006371Y009878D01*
X046350Y009703D02*
X046350Y009903D01*
X047850Y009903D01*
X047850Y009703D01*
X050452Y009611D02*
X053058Y009611D01*
X053058Y008272D01*
X050452Y008272D01*
X050452Y009611D01*
X052857Y009729D02*
X053172Y009414D01*
X053172Y009729D01*
X053133Y009768D01*
X052857Y009768D01*
X052857Y009729D01*
X052857Y009738D02*
X053163Y009738D01*
X053172Y009689D02*
X052897Y009689D01*
X052945Y009641D02*
X053172Y009641D01*
X053172Y009592D02*
X052994Y009592D01*
X053042Y009544D02*
X053172Y009544D01*
X053172Y009495D02*
X053091Y009495D01*
X053139Y009447D02*
X053172Y009447D01*
X047850Y008603D02*
X047850Y008403D01*
X046350Y008403D01*
X046350Y008603D01*
X047771Y008153D02*
X047773Y008171D01*
X047779Y008187D01*
X047788Y008202D01*
X047801Y008215D01*
X047816Y008224D01*
X047832Y008230D01*
X047850Y008232D01*
X047868Y008230D01*
X047884Y008224D01*
X047899Y008215D01*
X047912Y008202D01*
X047921Y008187D01*
X047927Y008171D01*
X047929Y008153D01*
X047927Y008135D01*
X047921Y008119D01*
X047912Y008104D01*
X047899Y008091D01*
X047884Y008082D01*
X047868Y008076D01*
X047850Y008074D01*
X047832Y008076D01*
X047816Y008082D01*
X047801Y008091D01*
X047788Y008104D01*
X047779Y008119D01*
X047773Y008135D01*
X047771Y008153D01*
D14*
X049233Y002658D03*
X052678Y002658D03*
X005139Y002658D03*
X001694Y002658D03*
D15*
X003289Y005033D02*
X003289Y005214D01*
X003349Y005274D01*
X003589Y005274D01*
X003649Y005214D01*
X003649Y005033D01*
X003289Y005033D01*
X003409Y005402D02*
X003289Y005522D01*
X003649Y005522D01*
X003649Y005402D02*
X003649Y005642D01*
X006470Y007708D02*
X006530Y007648D01*
X006650Y007648D01*
X006710Y007708D01*
X006710Y008009D01*
X006838Y007889D02*
X006958Y008009D01*
X006958Y007648D01*
X006838Y007648D02*
X007078Y007648D01*
X006470Y007708D02*
X006470Y008009D01*
X003319Y009888D02*
X003079Y009888D01*
X003199Y009888D02*
X003199Y010248D01*
X003079Y010128D01*
X002951Y010188D02*
X002951Y009948D01*
X002891Y009888D01*
X002711Y009888D01*
X002711Y010248D01*
X002891Y010248D01*
X002951Y010188D01*
X002583Y010248D02*
X002342Y010248D01*
X002342Y009888D01*
X002583Y009888D01*
X002214Y009888D02*
X001974Y009888D01*
X001974Y010248D01*
X002342Y010068D02*
X002462Y010068D01*
X038482Y003456D02*
X038482Y003095D01*
X038722Y003095D01*
X038850Y003095D02*
X039090Y003095D01*
X039219Y003095D02*
X039399Y003095D01*
X039459Y003155D01*
X039459Y003396D01*
X039399Y003456D01*
X039219Y003456D01*
X039219Y003095D01*
X038970Y003275D02*
X038850Y003275D01*
X038850Y003095D02*
X038850Y003456D01*
X039090Y003456D01*
X039587Y003275D02*
X039827Y003275D01*
X039767Y003095D02*
X039767Y003456D01*
X039587Y003275D01*
X017002Y001142D02*
X017002Y001082D01*
X016762Y000842D01*
X017002Y000842D01*
X016633Y000902D02*
X016633Y001142D01*
X016573Y001202D01*
X016393Y001202D01*
X016393Y000842D01*
X016573Y000842D01*
X016633Y000902D01*
X016265Y000842D02*
X016025Y000842D01*
X016025Y001202D01*
X016265Y001202D01*
X016145Y001022D02*
X016025Y001022D01*
X015657Y001202D02*
X015657Y000842D01*
X015897Y000842D01*
X016762Y001142D02*
X016822Y001202D01*
X016942Y001202D01*
X017002Y001142D01*
X047134Y010083D02*
X047194Y010023D01*
X047314Y010023D01*
X047374Y010083D01*
X047374Y010384D01*
X047502Y010323D02*
X047562Y010384D01*
X047682Y010384D01*
X047742Y010323D01*
X047742Y010263D01*
X047502Y010023D01*
X047742Y010023D01*
X047134Y010083D02*
X047134Y010384D01*
X051865Y010635D02*
X052105Y010635D01*
X052233Y010635D02*
X052473Y010635D01*
X052601Y010635D02*
X052781Y010635D01*
X052841Y010695D01*
X052841Y010935D01*
X052781Y010995D01*
X052601Y010995D01*
X052601Y010635D01*
X052233Y010635D02*
X052233Y010995D01*
X052473Y010995D01*
X052353Y010815D02*
X052233Y010815D01*
X051865Y010995D02*
X051865Y010635D01*
X052969Y010695D02*
X053030Y010635D01*
X053150Y010635D01*
X053210Y010695D01*
X053210Y010755D01*
X053150Y010815D01*
X053090Y010815D01*
X053150Y010815D02*
X053210Y010875D01*
X053210Y010935D01*
X053150Y010995D01*
X053030Y010995D01*
X052969Y010935D01*
D16*
X002763Y004927D03*
D17*
X006147Y005563D02*
X006147Y005853D01*
X006292Y005853D01*
X006340Y005805D01*
X006340Y005708D01*
X006292Y005660D01*
X006147Y005660D01*
X006243Y005660D02*
X006340Y005563D01*
X006441Y005563D02*
X006635Y005563D01*
X006538Y005563D02*
X006538Y005853D01*
X006441Y005756D01*
X008675Y006309D02*
X008675Y006503D01*
X008675Y006604D02*
X008675Y006700D01*
X008675Y006652D02*
X008965Y006652D01*
X008965Y006604D02*
X008965Y006700D01*
X008965Y006800D02*
X008675Y006800D01*
X008675Y006945D01*
X008723Y006994D01*
X008917Y006994D01*
X008965Y006945D01*
X008965Y006800D01*
X008965Y007095D02*
X008965Y007288D01*
X008965Y007192D02*
X008675Y007192D01*
X008772Y007095D01*
X008820Y006406D02*
X008820Y006309D01*
X008965Y006309D02*
X008675Y006309D01*
X009492Y010736D02*
X009492Y011026D01*
X009637Y011026D01*
X009686Y010978D01*
X009686Y010881D01*
X009637Y010833D01*
X009492Y010833D01*
X009589Y010833D02*
X009686Y010736D01*
X009787Y010784D02*
X009835Y010736D01*
X009932Y010736D01*
X009980Y010784D01*
X009980Y010833D01*
X009932Y010881D01*
X009884Y010881D01*
X009932Y010881D02*
X009980Y010929D01*
X009980Y010978D01*
X009932Y011026D01*
X009835Y011026D01*
X009787Y010978D01*
X007081Y010765D02*
X006887Y010765D01*
X006984Y010765D02*
X006984Y011056D01*
X006887Y010959D01*
X006786Y011007D02*
X006738Y011056D01*
X006641Y011056D01*
X006593Y011007D01*
X006593Y010814D01*
X006641Y010765D01*
X006738Y010765D01*
X006786Y010814D01*
X042969Y010568D02*
X042969Y010472D01*
X043018Y010423D01*
X043018Y010322D02*
X042969Y010274D01*
X042969Y010129D01*
X043259Y010129D01*
X043259Y010274D01*
X043211Y010322D01*
X043018Y010322D01*
X043259Y010423D02*
X043066Y010617D01*
X043018Y010617D01*
X042969Y010568D01*
X043259Y010617D02*
X043259Y010423D01*
X043259Y010029D02*
X043259Y009932D01*
X043259Y009981D02*
X042969Y009981D01*
X042969Y010029D02*
X042969Y009932D01*
X042969Y009831D02*
X042969Y009638D01*
X043259Y009638D01*
X043114Y009638D02*
X043114Y009734D01*
X049455Y009999D02*
X049455Y010145D01*
X049503Y010193D01*
X049600Y010193D01*
X049648Y010145D01*
X049648Y009999D01*
X049648Y010096D02*
X049745Y010193D01*
X049745Y010294D02*
X049552Y010488D01*
X049503Y010488D01*
X049455Y010439D01*
X049455Y010342D01*
X049503Y010294D01*
X049745Y010294D02*
X049745Y010488D01*
X049745Y009999D02*
X049455Y009999D01*
X049083Y006690D02*
X049083Y006443D01*
X048836Y006690D01*
X048775Y006690D01*
X048713Y006628D01*
X048713Y006505D01*
X048775Y006443D01*
X048775Y006322D02*
X048713Y006260D01*
X048713Y006137D01*
X048775Y006075D01*
X049021Y006075D01*
X049083Y006137D01*
X049083Y006260D01*
X049021Y006322D01*
X052799Y005535D02*
X052993Y005535D01*
X053094Y005439D02*
X053190Y005535D01*
X053190Y005245D01*
X053094Y005245D02*
X053287Y005245D01*
X052896Y005390D02*
X052799Y005390D01*
X052799Y005245D02*
X052799Y005535D01*
X051423Y004597D02*
X051053Y004597D01*
X051238Y004411D01*
X051238Y004658D01*
X051238Y004290D02*
X051300Y004228D01*
X051300Y004043D01*
X051423Y004043D02*
X051053Y004043D01*
X051053Y004228D01*
X051115Y004290D01*
X051238Y004290D01*
X051300Y004166D02*
X051423Y004290D01*
X054840Y004360D02*
X054986Y004215D01*
X054986Y004408D01*
X055131Y004360D02*
X054840Y004360D01*
X054889Y004114D02*
X054840Y004065D01*
X054840Y003969D01*
X054889Y003920D01*
X055082Y003920D01*
X055131Y003969D01*
X055131Y004065D01*
X055082Y004114D01*
D18*
X020022Y008964D03*
X015542Y008984D03*
X012812Y009554D03*
X012812Y009564D03*
X011892Y009564D03*
X011892Y009554D03*
X011892Y009544D03*
X011892Y009534D03*
X011892Y009524D03*
X011892Y009514D03*
X011892Y009504D03*
X011892Y009574D03*
X011892Y009584D03*
X011892Y009594D03*
X011892Y009604D03*
X011892Y009614D03*
X011892Y009624D03*
X011892Y009634D03*
X011892Y009644D03*
X011892Y009654D03*
X011892Y009664D03*
X011892Y009674D03*
X011892Y009684D03*
X011892Y009694D03*
X011892Y009704D03*
X011892Y009714D03*
X011892Y009724D03*
X011892Y009734D03*
X011892Y009744D03*
X011892Y009754D03*
X012812Y009714D03*
X012812Y009704D03*
X011892Y009314D03*
X011892Y009304D03*
X011892Y009294D03*
X011892Y009284D03*
X011892Y009274D03*
X011892Y009264D03*
X011892Y009254D03*
X011892Y009244D03*
X011892Y009234D03*
X011892Y009224D03*
X011892Y009214D03*
X011892Y009204D03*
X011892Y009194D03*
X011892Y009184D03*
X011892Y009174D03*
X011892Y009164D03*
X011892Y009154D03*
X011892Y009144D03*
X011892Y009134D03*
X011892Y009124D03*
X011892Y009114D03*
X011892Y009104D03*
X011892Y009094D03*
X011892Y009084D03*
X011892Y009074D03*
X011892Y009064D03*
X011892Y009054D03*
X011892Y009044D03*
X011892Y009034D03*
X011892Y009024D03*
X011892Y009014D03*
X011892Y009004D03*
X011892Y008994D03*
X011892Y008984D03*
X011892Y008974D03*
X011892Y008964D03*
X011892Y008954D03*
X011892Y008944D03*
X011892Y008934D03*
X011892Y008924D03*
D19*
X015582Y008924D03*
X014472Y009954D03*
D20*
X016137Y009954D03*
X016137Y009944D03*
X016137Y009934D03*
X016137Y009924D03*
X016137Y009914D03*
X016137Y009904D03*
X016137Y009894D03*
X016137Y009884D03*
X016137Y009874D03*
X016137Y009864D03*
X016137Y009854D03*
X016137Y009844D03*
X016137Y009834D03*
X016137Y009824D03*
X016137Y009814D03*
X016137Y009804D03*
X016137Y009794D03*
X016137Y009784D03*
X016137Y009774D03*
X016137Y009764D03*
X016137Y009754D03*
X016137Y009744D03*
X016137Y009734D03*
X016137Y009724D03*
X016137Y009714D03*
X016137Y009704D03*
X016137Y009694D03*
X016137Y009684D03*
X016137Y009674D03*
X016137Y009664D03*
X016137Y009654D03*
X016137Y009644D03*
X016137Y009634D03*
X016137Y009624D03*
X016137Y009614D03*
X016137Y009384D03*
X016137Y009374D03*
X016137Y009364D03*
X016137Y009354D03*
X016137Y009344D03*
X016137Y009334D03*
X016137Y009324D03*
X016137Y009314D03*
X016137Y009304D03*
X016137Y009294D03*
X016137Y009284D03*
X016137Y009274D03*
X016137Y009264D03*
X016137Y009254D03*
X016137Y009244D03*
X016137Y009234D03*
X016137Y009224D03*
X016137Y009214D03*
X016137Y009204D03*
X016137Y009194D03*
X016137Y009184D03*
X016137Y009174D03*
X016137Y009164D03*
X016137Y009154D03*
X016137Y009144D03*
X016137Y009134D03*
X016137Y009124D03*
X016137Y009114D03*
X016137Y009104D03*
X016137Y009094D03*
X016137Y009084D03*
X016137Y009074D03*
X016137Y009064D03*
X016137Y009054D03*
X016137Y009044D03*
X016137Y009034D03*
X016137Y009024D03*
X016137Y009014D03*
X016137Y009004D03*
X016137Y008994D03*
X016137Y008984D03*
X016137Y008974D03*
X016137Y008964D03*
X016137Y008954D03*
X016137Y008944D03*
X016137Y008934D03*
X016137Y008924D03*
X015517Y009024D03*
X017207Y009644D03*
X017207Y009654D03*
X017767Y009754D03*
X017767Y009764D03*
X017767Y009904D03*
X017767Y009914D03*
X017207Y009914D03*
X018997Y010034D03*
X020487Y009844D03*
X020017Y009014D03*
D21*
X017077Y008924D03*
D22*
X018392Y008924D03*
D23*
X012327Y009384D03*
X012327Y009884D03*
X010657Y010174D03*
X010657Y008934D03*
D24*
X012332Y009394D03*
X013662Y009124D03*
X013662Y009114D03*
X013662Y009104D03*
X013662Y009094D03*
X013662Y009084D03*
X013662Y009074D03*
X013662Y009064D03*
X013662Y009054D03*
X013662Y009044D03*
X013662Y009034D03*
X013662Y009024D03*
X013662Y009014D03*
X013662Y009004D03*
X013662Y008994D03*
X013662Y008984D03*
X013662Y008974D03*
X013662Y008964D03*
X013662Y008954D03*
X013662Y008944D03*
X013662Y008934D03*
X012332Y009874D03*
D25*
X012817Y009694D03*
X012817Y009684D03*
X012817Y009674D03*
X012817Y009664D03*
X012817Y009654D03*
X012817Y009644D03*
X012817Y009634D03*
X012817Y009624D03*
X012817Y009614D03*
X012817Y009604D03*
X012817Y009594D03*
X012817Y009584D03*
X012817Y009574D03*
X014507Y009574D03*
X014507Y009564D03*
X014507Y009554D03*
X014507Y009544D03*
X014507Y009534D03*
X014507Y009524D03*
X014507Y009514D03*
X014507Y009504D03*
X014507Y009494D03*
X014507Y009484D03*
X014507Y009474D03*
X014507Y009464D03*
X014507Y009454D03*
X014507Y009444D03*
X014507Y009434D03*
X014507Y009424D03*
X014507Y009414D03*
X014507Y009404D03*
X014507Y009394D03*
X014507Y009384D03*
X014507Y009374D03*
X014507Y009364D03*
X014507Y009354D03*
X014507Y009344D03*
X014507Y009334D03*
X014507Y009324D03*
X014507Y009314D03*
X014507Y009304D03*
X014507Y009294D03*
X014507Y009284D03*
X014507Y009274D03*
X014507Y009264D03*
X014507Y009254D03*
X014507Y009244D03*
X014507Y009234D03*
X014507Y009224D03*
X014507Y009214D03*
X014507Y009204D03*
X014507Y009194D03*
X014507Y009184D03*
X014507Y009174D03*
X014507Y009164D03*
X014507Y009154D03*
X014507Y009144D03*
X014507Y009134D03*
X014507Y009124D03*
X014507Y009114D03*
X014507Y009104D03*
X014507Y009094D03*
X014507Y009084D03*
X014507Y009074D03*
X014507Y009064D03*
X014507Y009054D03*
X014507Y009044D03*
X014507Y009034D03*
X014507Y009024D03*
X014507Y009014D03*
X014507Y009004D03*
X014507Y008994D03*
X014507Y008984D03*
X014507Y008974D03*
X014507Y008964D03*
X014507Y008954D03*
X014507Y008944D03*
X014507Y008934D03*
X015547Y008974D03*
X014507Y009584D03*
X014507Y009594D03*
X014507Y009894D03*
X018307Y009634D03*
X018987Y010084D03*
X018987Y010094D03*
D26*
X018972Y010134D03*
X015572Y008934D03*
D27*
X015457Y009114D03*
X017207Y008974D03*
X017227Y008964D03*
X017237Y008954D03*
X017257Y008934D03*
X020027Y009114D03*
X014597Y009754D03*
D28*
X016622Y009414D03*
X018392Y008934D03*
X016622Y010134D03*
D29*
X014492Y009924D03*
X015562Y008954D03*
X020022Y008934D03*
X018982Y010114D03*
D30*
X016612Y010144D03*
X010652Y008944D03*
D31*
X014487Y009934D03*
X015567Y008944D03*
X018977Y010124D03*
D32*
X018962Y009954D03*
X020022Y009104D03*
X017242Y008944D03*
X017202Y008984D03*
X017192Y008994D03*
X017172Y009004D03*
X014592Y009764D03*
D33*
X016642Y009444D03*
X018392Y008944D03*
X016642Y010104D03*
D34*
X015552Y009944D03*
X015552Y009934D03*
X015552Y009924D03*
X015552Y009914D03*
X015552Y009904D03*
X015552Y009894D03*
X015552Y009884D03*
X015552Y009874D03*
X015552Y009864D03*
X015552Y009854D03*
X015552Y009844D03*
X015552Y009834D03*
X015552Y009824D03*
X015552Y009814D03*
X015552Y009804D03*
X015552Y009794D03*
X015552Y009784D03*
X015552Y009774D03*
X015552Y009764D03*
X015552Y009754D03*
X015552Y009744D03*
X015552Y009734D03*
X015552Y009724D03*
X015552Y009714D03*
X015552Y009704D03*
X015552Y009694D03*
X015552Y009684D03*
X015552Y009674D03*
X015552Y009664D03*
X015552Y009654D03*
X015552Y009644D03*
X015552Y009634D03*
X015552Y009624D03*
X015552Y009614D03*
X015552Y009604D03*
X015552Y009594D03*
X015552Y009584D03*
X015552Y009574D03*
X015552Y009564D03*
X015552Y009554D03*
X015552Y009544D03*
X015552Y009534D03*
X015552Y009524D03*
X015552Y009514D03*
X015552Y009504D03*
X015552Y009494D03*
X015552Y009484D03*
X015552Y009474D03*
X015552Y009464D03*
X015552Y009454D03*
X015552Y009444D03*
X015552Y009434D03*
X015552Y009424D03*
X015552Y009414D03*
X015552Y009404D03*
X015552Y009394D03*
X015552Y009384D03*
X015552Y009374D03*
X015552Y009364D03*
X015552Y009354D03*
X015552Y009344D03*
X015552Y009334D03*
X015552Y009324D03*
X015552Y009314D03*
X015552Y009304D03*
X015552Y009294D03*
X015552Y009284D03*
X015552Y009274D03*
X015552Y009264D03*
X014502Y009904D03*
X014502Y009914D03*
X018362Y009664D03*
X020022Y008954D03*
X020022Y008944D03*
D35*
X016627Y009424D03*
X010657Y008954D03*
X010657Y010154D03*
D36*
X016652Y010074D03*
X018392Y008954D03*
D37*
X016647Y009454D03*
X016647Y009464D03*
X016647Y010084D03*
X016647Y010094D03*
X010657Y008964D03*
D38*
X015557Y008964D03*
X018327Y009644D03*
X018337Y009654D03*
X018987Y010104D03*
D39*
X016672Y009974D03*
X016672Y009964D03*
X016672Y009604D03*
X016672Y009594D03*
X016672Y009584D03*
X016672Y009574D03*
X016672Y009564D03*
X016672Y009554D03*
X018392Y008964D03*
X010652Y008984D03*
X010652Y010124D03*
D40*
X010657Y008974D03*
X016667Y009534D03*
X016667Y009544D03*
X016667Y009984D03*
X016667Y009994D03*
X016667Y010004D03*
D41*
X018397Y008974D03*
X010657Y008994D03*
D42*
X012807Y009534D03*
X012807Y009544D03*
X013227Y009564D03*
X013227Y009574D03*
X013227Y009584D03*
X013227Y009594D03*
X013227Y009604D03*
X013227Y009614D03*
X013227Y009624D03*
X013227Y009634D03*
X013227Y009644D03*
X013227Y009654D03*
X013227Y009664D03*
X013227Y009674D03*
X013227Y009684D03*
X013227Y009694D03*
X013227Y009704D03*
X013227Y009714D03*
X013227Y009724D03*
X013227Y009734D03*
X013227Y009744D03*
X013227Y009754D03*
X013227Y009764D03*
X012807Y009734D03*
X012807Y009724D03*
X013227Y009364D03*
X013227Y009354D03*
X013227Y009344D03*
X013227Y009334D03*
X013227Y009324D03*
X013227Y009314D03*
X013227Y009304D03*
X013227Y009294D03*
X013227Y009284D03*
X013227Y009274D03*
X013227Y009264D03*
X013227Y009254D03*
X013227Y009244D03*
X013227Y009234D03*
X013227Y009224D03*
X013227Y009214D03*
X013227Y009204D03*
X013227Y009194D03*
X013227Y009184D03*
X013227Y009174D03*
X013227Y009164D03*
X013227Y009154D03*
X013227Y009144D03*
X013227Y009134D03*
X014517Y009884D03*
X018997Y010064D03*
X018997Y010074D03*
X020027Y008974D03*
D43*
X018392Y008984D03*
X010652Y010104D03*
D44*
X012802Y009744D03*
X012802Y009524D03*
X014522Y009874D03*
X015532Y008994D03*
X018392Y009674D03*
X019002Y010054D03*
X020022Y008984D03*
D45*
X018392Y008994D03*
X010652Y009014D03*
X010652Y010094D03*
D46*
X012792Y009754D03*
X012792Y009504D03*
X014532Y009854D03*
X014532Y009864D03*
X017212Y009864D03*
X017212Y009854D03*
X017212Y009844D03*
X017212Y009834D03*
X017212Y009824D03*
X017212Y009814D03*
X017212Y009804D03*
X017212Y009794D03*
X017212Y009784D03*
X017212Y009774D03*
X017212Y009764D03*
X017212Y009754D03*
X017212Y009744D03*
X017212Y009734D03*
X017212Y009724D03*
X017212Y009714D03*
X017212Y009704D03*
X017212Y009694D03*
X017212Y009684D03*
X017212Y009674D03*
X017212Y009664D03*
X017762Y009774D03*
X017762Y009784D03*
X017762Y009794D03*
X017762Y009804D03*
X017762Y009814D03*
X017762Y009824D03*
X017762Y009834D03*
X017762Y009844D03*
X017762Y009854D03*
X017762Y009864D03*
X017762Y009874D03*
X017762Y009884D03*
X017762Y009894D03*
X017212Y009894D03*
X017212Y009884D03*
X017212Y009874D03*
X017212Y009904D03*
X018272Y009624D03*
X020182Y009284D03*
X020192Y009304D03*
X020212Y009344D03*
X020222Y009364D03*
X020242Y009394D03*
X020252Y009414D03*
X020252Y009424D03*
X020262Y009434D03*
X020272Y009444D03*
X020272Y009454D03*
X020282Y009474D03*
X020292Y009484D03*
X020302Y009504D03*
X020312Y009524D03*
X020322Y009534D03*
X020322Y009544D03*
X020332Y009564D03*
X020342Y009584D03*
X020352Y009594D03*
X020362Y009614D03*
X020362Y009624D03*
X020372Y009634D03*
X020382Y009644D03*
X020382Y009654D03*
X020392Y009674D03*
X020412Y009704D03*
X020412Y009714D03*
X020422Y009724D03*
X020442Y009764D03*
X020452Y009784D03*
X020472Y009814D03*
X020502Y009874D03*
X020512Y009894D03*
X020522Y009904D03*
X020522Y009914D03*
X020532Y009924D03*
X020542Y009954D03*
X020552Y009964D03*
X020562Y009984D03*
X020582Y010014D03*
X020592Y010044D03*
X020612Y010074D03*
X020622Y010094D03*
X020642Y010124D03*
X020652Y010144D03*
X020652Y010154D03*
X020022Y009004D03*
X020022Y008994D03*
D47*
X010657Y009004D03*
D48*
X011277Y009164D03*
X011277Y009174D03*
X011277Y009184D03*
X011277Y009194D03*
X011277Y009204D03*
X011277Y009214D03*
X011277Y009224D03*
X011277Y009234D03*
X011277Y009244D03*
X011277Y009254D03*
X011277Y009264D03*
X011277Y009274D03*
X011277Y009284D03*
X011277Y009294D03*
X011277Y009304D03*
X011277Y009314D03*
X011277Y009324D03*
X011277Y009334D03*
X011277Y009344D03*
X011277Y009354D03*
X011277Y009364D03*
X011277Y009374D03*
X011277Y009384D03*
X011277Y009394D03*
X011277Y009404D03*
X011277Y009414D03*
X011277Y009424D03*
X011277Y009434D03*
X011277Y009444D03*
X011277Y009454D03*
X011277Y009464D03*
X011277Y009474D03*
X011277Y009484D03*
X011277Y009494D03*
X011277Y009504D03*
X011277Y009514D03*
X011277Y009524D03*
X011277Y009534D03*
X011277Y009544D03*
X011277Y009554D03*
X011277Y009564D03*
X011277Y009574D03*
X011277Y009584D03*
X011277Y009594D03*
X011277Y009604D03*
X011277Y009614D03*
X011277Y009624D03*
X011277Y009634D03*
X011277Y009644D03*
X011277Y009654D03*
X011277Y009664D03*
X011277Y009674D03*
X011277Y009684D03*
X011277Y009694D03*
X011277Y009704D03*
X011277Y009714D03*
X011277Y009724D03*
X011277Y009734D03*
X011277Y009744D03*
X011277Y009754D03*
X011277Y009764D03*
X011277Y009774D03*
X011277Y009784D03*
X011277Y009794D03*
X011277Y009804D03*
X011277Y009814D03*
X011277Y009824D03*
X011277Y009834D03*
X011277Y009844D03*
X011277Y009854D03*
X011277Y009864D03*
X011277Y009874D03*
X011277Y009884D03*
X011277Y009894D03*
X011277Y009904D03*
X011277Y009914D03*
X011277Y009924D03*
X011277Y009934D03*
X011277Y009944D03*
X010027Y009944D03*
X010027Y009934D03*
X010027Y009924D03*
X010027Y009914D03*
X010027Y009904D03*
X010027Y009894D03*
X010027Y009884D03*
X010027Y009874D03*
X010027Y009864D03*
X010027Y009854D03*
X010027Y009844D03*
X010027Y009834D03*
X010027Y009824D03*
X010027Y009814D03*
X010027Y009804D03*
X010027Y009794D03*
X010027Y009784D03*
X010027Y009774D03*
X010027Y009764D03*
X010027Y009754D03*
X010027Y009744D03*
X010027Y009734D03*
X010027Y009724D03*
X010027Y009714D03*
X010027Y009704D03*
X010027Y009694D03*
X010027Y009684D03*
X010027Y009674D03*
X010027Y009664D03*
X010027Y009654D03*
X010027Y009644D03*
X010027Y009634D03*
X010027Y009624D03*
X010027Y009614D03*
X010027Y009604D03*
X010027Y009594D03*
X010027Y009584D03*
X010027Y009574D03*
X010027Y009564D03*
X010027Y009554D03*
X010027Y009544D03*
X010027Y009534D03*
X010027Y009524D03*
X010027Y009514D03*
X010027Y009504D03*
X010027Y009494D03*
X010027Y009484D03*
X010027Y009474D03*
X010027Y009464D03*
X010027Y009454D03*
X010027Y009444D03*
X010027Y009434D03*
X010027Y009424D03*
X010027Y009414D03*
X010027Y009404D03*
X010027Y009394D03*
X010027Y009384D03*
X010027Y009374D03*
X010027Y009364D03*
X010027Y009354D03*
X010027Y009344D03*
X010027Y009334D03*
X010027Y009324D03*
X010027Y009314D03*
X010027Y009304D03*
X010027Y009294D03*
X010027Y009284D03*
X010027Y009274D03*
X010027Y009264D03*
X010027Y009254D03*
X010027Y009244D03*
X010027Y009234D03*
X010027Y009224D03*
X010027Y009214D03*
X010027Y009204D03*
X010027Y009194D03*
X010027Y009184D03*
X010027Y009174D03*
X010027Y009164D03*
X012797Y009514D03*
X015527Y009014D03*
X015527Y009004D03*
X018997Y010044D03*
X020427Y009744D03*
X020427Y009734D03*
X020437Y009754D03*
X020447Y009774D03*
X020457Y009794D03*
X020467Y009804D03*
X020477Y009824D03*
X020477Y009834D03*
X020497Y009854D03*
X020497Y009864D03*
X020507Y009884D03*
X020537Y009934D03*
X020537Y009944D03*
X020557Y009974D03*
X020567Y009994D03*
X020577Y010004D03*
X020587Y010024D03*
X020587Y010034D03*
X020607Y010054D03*
X020607Y010064D03*
X020617Y010084D03*
X020627Y010104D03*
X020637Y010114D03*
X020647Y010134D03*
X020657Y010164D03*
X020667Y010174D03*
X020407Y009694D03*
X020397Y009684D03*
X020387Y009664D03*
X020357Y009604D03*
X020337Y009574D03*
X020327Y009554D03*
X020307Y009514D03*
X020297Y009494D03*
X020277Y009464D03*
X020247Y009404D03*
X020237Y009384D03*
X020227Y009374D03*
X020217Y009354D03*
X020207Y009334D03*
X020207Y009324D03*
X020197Y009314D03*
X020187Y009294D03*
D49*
X018392Y009004D03*
D50*
X017167Y009014D03*
X017157Y009024D03*
X017137Y009034D03*
X017137Y009044D03*
X017127Y009054D03*
X017107Y009064D03*
X017077Y009094D03*
X015467Y009104D03*
X017817Y009644D03*
X017837Y010034D03*
X018337Y010044D03*
X014587Y009774D03*
X020017Y009094D03*
D51*
X018397Y009014D03*
X010657Y009024D03*
X010657Y009034D03*
X010657Y010074D03*
D52*
X010657Y010054D03*
X018387Y009024D03*
D53*
X019802Y009404D03*
X019822Y009374D03*
X019842Y009334D03*
X019862Y009304D03*
X019862Y009294D03*
X020022Y009024D03*
X017202Y009634D03*
X017772Y009734D03*
X017772Y009744D03*
X017772Y009924D03*
X017772Y009934D03*
X017202Y009934D03*
X017202Y009924D03*
X018402Y010004D03*
X018422Y009984D03*
X019002Y010024D03*
X015512Y009034D03*
X014542Y009844D03*
D54*
X010652Y010044D03*
X010652Y009064D03*
X010652Y009054D03*
X018392Y009044D03*
X018392Y009034D03*
D55*
X020022Y009034D03*
X019762Y009474D03*
X019732Y009524D03*
X019722Y009544D03*
X019702Y009584D03*
X019672Y009634D03*
X019662Y009654D03*
X019642Y009684D03*
X019632Y009704D03*
X019622Y009724D03*
X019612Y009734D03*
X019602Y009754D03*
X019592Y009774D03*
X019562Y009824D03*
X019562Y009834D03*
X019552Y009844D03*
X019542Y009854D03*
X019542Y009864D03*
X019532Y009874D03*
X019532Y009884D03*
X019512Y009914D03*
X019502Y009934D03*
X019492Y009954D03*
X019482Y009964D03*
X019472Y009984D03*
X019452Y010014D03*
X019432Y010054D03*
X019432Y010064D03*
X019422Y010074D03*
X019412Y010094D03*
X019402Y010104D03*
X019382Y010144D03*
X018992Y010004D03*
X018442Y009964D03*
X018392Y010014D03*
X017782Y009964D03*
X017782Y009704D03*
X017192Y009624D03*
X017192Y009614D03*
X014552Y009824D03*
X015502Y009044D03*
D56*
X010652Y009044D03*
X010652Y010064D03*
D57*
X015497Y009054D03*
X016757Y009384D03*
X016767Y009374D03*
X016787Y009354D03*
X017787Y009694D03*
X017787Y009974D03*
X018367Y010024D03*
X018987Y009994D03*
X019367Y010164D03*
X019367Y010174D03*
X019377Y010154D03*
X019387Y010134D03*
X019397Y010124D03*
X019397Y010114D03*
X019417Y010084D03*
X019437Y010044D03*
X019447Y010034D03*
X019447Y010024D03*
X019467Y010004D03*
X019467Y009994D03*
X019477Y009974D03*
X019497Y009944D03*
X019507Y009924D03*
X019527Y009894D03*
X019567Y009814D03*
X019587Y009784D03*
X017187Y009954D03*
X020017Y009044D03*
D58*
X018392Y009054D03*
X010652Y009084D03*
D59*
X014562Y009814D03*
X016782Y009364D03*
X016802Y009344D03*
X016812Y009334D03*
X016822Y009324D03*
X016852Y009294D03*
X017792Y009674D03*
X017792Y009684D03*
X017792Y009984D03*
X017802Y009994D03*
X018362Y010034D03*
X018462Y009954D03*
X018982Y009984D03*
X020022Y009054D03*
D60*
X020017Y009064D03*
X016887Y009264D03*
X016867Y009284D03*
X016847Y009304D03*
X016837Y009314D03*
X015487Y009074D03*
X015487Y009064D03*
X015247Y009264D03*
X015047Y009424D03*
X014567Y009804D03*
X017807Y010004D03*
X017817Y010014D03*
D61*
X018907Y009644D03*
X018907Y009354D03*
X017877Y009274D03*
X017877Y009264D03*
X017897Y009064D03*
X020017Y009204D03*
X014647Y009674D03*
X014647Y009684D03*
D62*
X018687Y009064D03*
D63*
X010657Y009074D03*
X010657Y010024D03*
X010657Y010034D03*
D64*
X015472Y009094D03*
X017022Y009144D03*
X017042Y009124D03*
X017072Y009104D03*
X017092Y009084D03*
X017102Y009074D03*
X017812Y009654D03*
X017832Y010024D03*
X018972Y009964D03*
X020022Y009084D03*
D65*
X020017Y009184D03*
X018917Y009374D03*
X017867Y009254D03*
X017877Y009084D03*
X017887Y009074D03*
X014637Y009694D03*
D66*
X018707Y009264D03*
X018697Y009074D03*
D67*
X020022Y009074D03*
X017802Y009664D03*
X016952Y009204D03*
X016942Y009214D03*
X016922Y009234D03*
X016912Y009244D03*
X016902Y009254D03*
X016882Y009274D03*
X016972Y009194D03*
X017002Y009164D03*
X015222Y009284D03*
X015202Y009304D03*
X015182Y009314D03*
X015172Y009324D03*
X015162Y009334D03*
X015142Y009344D03*
X015132Y009354D03*
X015122Y009364D03*
X015112Y009374D03*
X015092Y009384D03*
X015082Y009394D03*
X015072Y009404D03*
X015052Y009414D03*
X015032Y009434D03*
X015012Y009444D03*
X015012Y009454D03*
X014992Y009464D03*
X014982Y009474D03*
X014972Y009484D03*
X014952Y009494D03*
X014942Y009504D03*
X014932Y009514D03*
X014922Y009524D03*
X014902Y009534D03*
X014892Y009544D03*
X014882Y009554D03*
X014872Y009564D03*
X014852Y009574D03*
X014842Y009584D03*
X014832Y009594D03*
X014572Y009794D03*
D68*
X014577Y009784D03*
X015207Y009294D03*
X015237Y009274D03*
X015477Y009084D03*
X016937Y009224D03*
X016977Y009184D03*
X016987Y009174D03*
X017007Y009154D03*
X017037Y009134D03*
X017057Y009114D03*
X018977Y009974D03*
D69*
X018717Y009684D03*
X018717Y009254D03*
X018707Y009084D03*
D70*
X010657Y009094D03*
X010657Y009104D03*
X010657Y010004D03*
X010657Y010014D03*
D71*
X014632Y009704D03*
X015422Y009174D03*
X017862Y009104D03*
X017862Y009094D03*
X017862Y009244D03*
X018922Y009384D03*
X018922Y009614D03*
X018922Y009624D03*
X020022Y009174D03*
D72*
X018722Y009114D03*
X018712Y009094D03*
X018722Y009234D03*
X018722Y009244D03*
X018062Y009324D03*
X018722Y009694D03*
D73*
X018727Y009704D03*
X018727Y009714D03*
X018087Y010054D03*
X018087Y010064D03*
X018727Y009224D03*
X018727Y009214D03*
X018727Y009124D03*
X018717Y009104D03*
D74*
X010652Y009114D03*
X010652Y009124D03*
X010652Y009134D03*
X010652Y009144D03*
X010652Y009154D03*
X010652Y009954D03*
X010652Y009964D03*
X010652Y009974D03*
X010652Y009984D03*
X010652Y009994D03*
D75*
X014627Y009714D03*
X015427Y009164D03*
X017857Y009114D03*
X017857Y009224D03*
X017857Y009234D03*
X018927Y009394D03*
X018927Y009604D03*
X017857Y009624D03*
D76*
X017832Y009634D03*
X015452Y009124D03*
D77*
X015432Y009154D03*
X017852Y009134D03*
X017852Y009124D03*
X017852Y009204D03*
X017852Y009214D03*
X018932Y009404D03*
X018932Y009414D03*
X018932Y009584D03*
X018932Y009594D03*
X020022Y009164D03*
D78*
X020017Y009134D03*
X020017Y009124D03*
X018947Y009494D03*
X018947Y009504D03*
X015447Y009134D03*
X014607Y009734D03*
X014607Y009744D03*
D79*
X018052Y009334D03*
X018732Y009204D03*
X018732Y009194D03*
X018732Y009184D03*
X018732Y009174D03*
X018732Y009164D03*
X018732Y009154D03*
X018732Y009144D03*
X018732Y009134D03*
X018732Y009724D03*
X018732Y009734D03*
X018732Y009934D03*
X018732Y009944D03*
D80*
X017872Y010044D03*
X018942Y009544D03*
X018942Y009534D03*
X018942Y009524D03*
X018942Y009514D03*
X018942Y009484D03*
X018942Y009474D03*
X018942Y009464D03*
X020022Y009144D03*
X015442Y009144D03*
D81*
X017847Y009144D03*
X017847Y009154D03*
X017847Y009164D03*
X017847Y009174D03*
X017847Y009184D03*
X017847Y009194D03*
X018937Y009424D03*
X018937Y009434D03*
X018937Y009444D03*
X018937Y009454D03*
X018937Y009554D03*
X018937Y009564D03*
X018937Y009574D03*
X020017Y009154D03*
X014617Y009724D03*
D82*
X015412Y009194D03*
X015412Y009184D03*
X018912Y009364D03*
X018912Y009634D03*
X020022Y009194D03*
D83*
X020022Y009214D03*
X018902Y009654D03*
X015402Y009204D03*
D84*
X015397Y009214D03*
X014657Y009664D03*
X018897Y009344D03*
X020017Y009224D03*
D85*
X015392Y009224D03*
X014662Y009654D03*
D86*
X015382Y009244D03*
X015382Y009234D03*
X018882Y009334D03*
D87*
X018887Y009664D03*
X020017Y009244D03*
X020017Y009234D03*
X014667Y009644D03*
D88*
X014682Y009624D03*
X015372Y009254D03*
X018872Y009324D03*
D89*
X020017Y009264D03*
X020017Y009254D03*
X014677Y009634D03*
D90*
X018702Y009274D03*
D91*
X020017Y009274D03*
X014687Y009614D03*
D92*
X018392Y009314D03*
X018392Y009304D03*
X018392Y009294D03*
X018392Y009284D03*
D93*
X019637Y009694D03*
X019647Y009674D03*
X019657Y009664D03*
X019667Y009644D03*
X019677Y009624D03*
X019687Y009614D03*
X019687Y009604D03*
X019697Y009594D03*
X019707Y009574D03*
X019717Y009564D03*
X019717Y009554D03*
X019727Y009534D03*
X019737Y009514D03*
X019747Y009504D03*
X019747Y009494D03*
X019757Y009484D03*
X019767Y009464D03*
X019777Y009454D03*
X019777Y009444D03*
X019787Y009434D03*
X019797Y009424D03*
X019797Y009414D03*
X019807Y009394D03*
X019807Y009384D03*
X019827Y009364D03*
X019827Y009354D03*
X019837Y009344D03*
X019847Y009324D03*
X019857Y009314D03*
X019867Y009284D03*
X019627Y009714D03*
X019607Y009744D03*
X019597Y009764D03*
X019577Y009794D03*
X019577Y009804D03*
X019517Y009904D03*
X018997Y010014D03*
X018437Y009974D03*
X018407Y009994D03*
X017777Y009954D03*
X017777Y009944D03*
X017197Y009944D03*
X017777Y009724D03*
X017777Y009714D03*
X014547Y009834D03*
D94*
X012277Y009324D03*
D95*
X012287Y009334D03*
D96*
X012302Y009344D03*
X012302Y009924D03*
D97*
X018037Y009344D03*
X018747Y009794D03*
X018747Y009804D03*
X018747Y009814D03*
X018747Y009824D03*
X018747Y009834D03*
X018747Y009844D03*
X018747Y009854D03*
X018747Y009864D03*
X018747Y009874D03*
X018097Y010094D03*
D98*
X012312Y009914D03*
X012312Y009904D03*
X012312Y009364D03*
X012312Y009354D03*
D99*
X018027Y009354D03*
X018027Y009364D03*
D100*
X013652Y009774D03*
X013652Y009784D03*
X013652Y009794D03*
X013652Y009804D03*
X013652Y009814D03*
X013652Y009824D03*
X013652Y009834D03*
X013652Y009844D03*
X013652Y009854D03*
X013652Y009864D03*
X013652Y009874D03*
X013652Y009884D03*
X013652Y009894D03*
X013652Y009904D03*
X013652Y009914D03*
X013652Y009924D03*
X013652Y009934D03*
X013652Y009944D03*
X012322Y009894D03*
X012322Y009374D03*
D101*
X013477Y009374D03*
X013477Y009384D03*
X013477Y009394D03*
X013477Y009404D03*
X013477Y009414D03*
X013477Y009424D03*
X013477Y009434D03*
X013477Y009444D03*
X013477Y009454D03*
X013477Y009464D03*
X013477Y009474D03*
X013477Y009484D03*
X013477Y009494D03*
X013477Y009504D03*
X013477Y009514D03*
X013477Y009524D03*
X013477Y009534D03*
X013477Y009544D03*
X013477Y009554D03*
X017997Y009564D03*
X017997Y009434D03*
X018137Y010154D03*
D102*
X018107Y010124D03*
X018017Y009374D03*
D103*
X018012Y009384D03*
X018012Y009614D03*
D104*
X016577Y009394D03*
X016577Y010174D03*
D105*
X018117Y010134D03*
X018007Y009604D03*
X018007Y009394D03*
D106*
X012337Y009404D03*
X012337Y009414D03*
X012337Y009424D03*
X012337Y009844D03*
X012337Y009854D03*
X012337Y009864D03*
D107*
X016607Y010154D03*
X016607Y009404D03*
D108*
X018002Y009404D03*
X018002Y009414D03*
X018002Y009424D03*
X018002Y009574D03*
X018002Y009584D03*
X018002Y009594D03*
X018132Y010144D03*
D109*
X012342Y009834D03*
X012342Y009434D03*
D110*
X016632Y009434D03*
X016632Y010114D03*
X016632Y010124D03*
D111*
X012347Y009824D03*
X012347Y009814D03*
X012347Y009804D03*
X012347Y009794D03*
X012347Y009784D03*
X012347Y009484D03*
X012347Y009474D03*
X012347Y009464D03*
X012347Y009454D03*
X012347Y009444D03*
D112*
X017992Y009444D03*
X017992Y009454D03*
X017992Y009464D03*
X017992Y009474D03*
X017992Y009484D03*
X017992Y009494D03*
X017992Y009504D03*
X017992Y009514D03*
X017992Y009524D03*
X017992Y009534D03*
X017992Y009544D03*
X017992Y009554D03*
D113*
X016657Y009494D03*
X016657Y009484D03*
X016657Y009474D03*
X016657Y010054D03*
X016657Y010064D03*
X010657Y010134D03*
D114*
X012352Y009774D03*
X012352Y009764D03*
X012352Y009494D03*
D115*
X016662Y009504D03*
X016662Y009514D03*
X016662Y009524D03*
X016662Y010014D03*
X016662Y010024D03*
X016662Y010034D03*
X016662Y010044D03*
D116*
X014692Y009604D03*
X018862Y009674D03*
D117*
X018737Y009744D03*
X018737Y009754D03*
X018737Y009764D03*
X018737Y009904D03*
X018737Y009914D03*
X018737Y009924D03*
X018097Y010074D03*
D118*
X018092Y010084D03*
X018742Y009894D03*
X018742Y009884D03*
X018742Y009784D03*
X018742Y009774D03*
D119*
X012292Y009934D03*
D120*
X012282Y009944D03*
D121*
X014477Y009944D03*
D122*
X010657Y010084D03*
D123*
X018102Y010104D03*
D124*
X010652Y010114D03*
D125*
X018102Y010114D03*
D126*
X010657Y010144D03*
D127*
X018957Y010144D03*
D128*
X018952Y010154D03*
D129*
X010652Y010164D03*
D130*
X016587Y010164D03*
D131*
X018157Y010164D03*
D132*
X018927Y010164D03*
M02*
