%
M48
M72
T01C0.0197
T02C0.0236
T03C0.0315
T04C0.0394
T05C0.0886
T06C0.2559
T07C0.6693
%
T01
X44787Y1298
X34748Y1593
X47838Y3955
X50889Y4939
X47740Y5530
X41637Y5825
X39964Y5924
X11716Y4939
X6795Y4743
X5023Y4152
X11716Y3365
X11815Y1495
X20279Y1888
X9826Y7367
X8271Y7794
X7380Y8680
X7030Y8680
X7030Y9080
X7380Y9080
X8251Y10516
X1086Y6022
X45378Y7991
X46911Y8930
X47261Y8930
X47261Y9380
X46911Y9380
X45378Y9861
X50594Y6416
T02
X41380Y1180
X40780Y1180
X40780Y1680
X41380Y1680
X41380Y2180
X40780Y2180
X40780Y2680
X41380Y2680
X41380Y3180
X40780Y3180
X4380Y7980
X3880Y7980
X3880Y8480
X4380Y8480
X4380Y8980
X3880Y8980
X3880Y9480
X4380Y9480
X4380Y9980
X3880Y9980
X14452Y3233
X15042Y3233
X15042Y2741
X14452Y2741
X14452Y2249
X15042Y2249
X15042Y1756
X14452Y1756
X14452Y1264
X15042Y1264
X51460Y7957
X52050Y7957
X52050Y8449
X51460Y8449
X51460Y8941
X52050Y8941
X52050Y9532
X51460Y9532
X51460Y10024
X52050Y10024
T03
X54019Y1658
X52837Y1658
X3034Y1658
X1853Y1658
T04
X5298Y1658
X6479Y1658
X49393Y1658
X50574Y1658
T05
X45294Y6186
X10578Y6186
T06
X18290Y6186
X37582Y6186
T07
X27936Y6186
M30
