G75*
G70*
%OFA0B0*%
%FSLAX24Y24*%
%IPPOS*%
%LPD*%
%AMOC8*
5,1,8,0,0,1.08239X$1,22.5*
%
%ADD10C,0.0000*%
%ADD11C,0.6733*%
%ADD12C,0.2599*%
%ADD13C,0.0926*%
%ADD14C,0.0700*%
%ADD15R,0.0749X0.0867*%
%ADD16R,0.0434X0.0473*%
%ADD17R,0.0473X0.0434*%
%ADD18R,0.0709X0.0827*%
%ADD19R,0.0571X0.0217*%
%ADD20R,0.0906X0.0749*%
%ADD21R,0.0750X0.0670*%
%ADD22C,0.0860*%
%ADD23C,0.0440*%
D10*
X000377Y000280D02*
X055495Y000280D01*
X055495Y012091D01*
X000377Y012091D01*
X000377Y000280D01*
X010135Y006186D02*
X010137Y006227D01*
X010143Y006269D01*
X010152Y006309D01*
X010166Y006348D01*
X010183Y006386D01*
X010203Y006422D01*
X010227Y006456D01*
X010254Y006488D01*
X010284Y006517D01*
X010316Y006543D01*
X010351Y006566D01*
X010387Y006586D01*
X010425Y006602D01*
X010465Y006614D01*
X010506Y006623D01*
X010547Y006628D01*
X010588Y006629D01*
X010630Y006626D01*
X010671Y006619D01*
X010711Y006609D01*
X010750Y006594D01*
X010787Y006576D01*
X010823Y006555D01*
X010857Y006530D01*
X010888Y006503D01*
X010916Y006473D01*
X010941Y006440D01*
X010963Y006404D01*
X010982Y006367D01*
X010997Y006329D01*
X011009Y006289D01*
X011017Y006248D01*
X011021Y006207D01*
X011021Y006165D01*
X011017Y006124D01*
X011009Y006083D01*
X010997Y006043D01*
X010982Y006005D01*
X010963Y005968D01*
X010941Y005932D01*
X010916Y005899D01*
X010888Y005869D01*
X010857Y005842D01*
X010823Y005817D01*
X010787Y005796D01*
X010750Y005778D01*
X010711Y005763D01*
X010671Y005753D01*
X010630Y005746D01*
X010588Y005743D01*
X010547Y005744D01*
X010506Y005749D01*
X010465Y005758D01*
X010425Y005770D01*
X010387Y005786D01*
X010351Y005806D01*
X010316Y005829D01*
X010284Y005855D01*
X010254Y005884D01*
X010227Y005916D01*
X010203Y005950D01*
X010183Y005986D01*
X010166Y006024D01*
X010152Y006063D01*
X010143Y006103D01*
X010137Y006145D01*
X010135Y006186D01*
X017010Y006186D02*
X017012Y006257D01*
X017018Y006328D01*
X017028Y006399D01*
X017042Y006468D01*
X017059Y006537D01*
X017081Y006605D01*
X017106Y006672D01*
X017135Y006737D01*
X017167Y006800D01*
X017203Y006862D01*
X017242Y006921D01*
X017285Y006978D01*
X017330Y007033D01*
X017379Y007085D01*
X017430Y007134D01*
X017484Y007180D01*
X017541Y007224D01*
X017599Y007264D01*
X017660Y007300D01*
X017723Y007334D01*
X017788Y007363D01*
X017854Y007389D01*
X017922Y007412D01*
X017990Y007430D01*
X018060Y007445D01*
X018130Y007456D01*
X018201Y007463D01*
X018272Y007466D01*
X018343Y007465D01*
X018414Y007460D01*
X018485Y007451D01*
X018555Y007438D01*
X018624Y007422D01*
X018692Y007401D01*
X018759Y007377D01*
X018825Y007349D01*
X018888Y007317D01*
X018950Y007282D01*
X019010Y007244D01*
X019068Y007202D01*
X019123Y007158D01*
X019176Y007110D01*
X019226Y007059D01*
X019273Y007006D01*
X019317Y006950D01*
X019358Y006892D01*
X019396Y006831D01*
X019430Y006769D01*
X019460Y006704D01*
X019487Y006639D01*
X019511Y006571D01*
X019530Y006503D01*
X019546Y006434D01*
X019558Y006363D01*
X019566Y006293D01*
X019570Y006222D01*
X019570Y006150D01*
X019566Y006079D01*
X019558Y006009D01*
X019546Y005938D01*
X019530Y005869D01*
X019511Y005801D01*
X019487Y005733D01*
X019460Y005668D01*
X019430Y005603D01*
X019396Y005541D01*
X019358Y005480D01*
X019317Y005422D01*
X019273Y005366D01*
X019226Y005313D01*
X019176Y005262D01*
X019123Y005214D01*
X019068Y005170D01*
X019010Y005128D01*
X018950Y005090D01*
X018888Y005055D01*
X018825Y005023D01*
X018759Y004995D01*
X018692Y004971D01*
X018624Y004950D01*
X018555Y004934D01*
X018485Y004921D01*
X018414Y004912D01*
X018343Y004907D01*
X018272Y004906D01*
X018201Y004909D01*
X018130Y004916D01*
X018060Y004927D01*
X017990Y004942D01*
X017922Y004960D01*
X017854Y004983D01*
X017788Y005009D01*
X017723Y005038D01*
X017660Y005072D01*
X017599Y005108D01*
X017541Y005148D01*
X017484Y005192D01*
X017430Y005238D01*
X017379Y005287D01*
X017330Y005339D01*
X017285Y005394D01*
X017242Y005451D01*
X017203Y005510D01*
X017167Y005572D01*
X017135Y005635D01*
X017106Y005700D01*
X017081Y005767D01*
X017059Y005835D01*
X017042Y005904D01*
X017028Y005973D01*
X017018Y006044D01*
X017012Y006115D01*
X017010Y006186D01*
X024590Y006186D02*
X024594Y006350D01*
X024606Y006514D01*
X024626Y006677D01*
X024654Y006839D01*
X024690Y006999D01*
X024734Y007157D01*
X024786Y007313D01*
X024845Y007466D01*
X024911Y007617D01*
X024985Y007763D01*
X025066Y007906D01*
X025154Y008045D01*
X025248Y008179D01*
X025350Y008309D01*
X025457Y008433D01*
X025570Y008552D01*
X025689Y008665D01*
X025813Y008772D01*
X025943Y008874D01*
X026077Y008968D01*
X026216Y009056D01*
X026359Y009137D01*
X026505Y009211D01*
X026656Y009277D01*
X026809Y009336D01*
X026965Y009388D01*
X027123Y009432D01*
X027283Y009468D01*
X027445Y009496D01*
X027608Y009516D01*
X027772Y009528D01*
X027936Y009532D01*
X028100Y009528D01*
X028264Y009516D01*
X028427Y009496D01*
X028589Y009468D01*
X028749Y009432D01*
X028907Y009388D01*
X029063Y009336D01*
X029216Y009277D01*
X029367Y009211D01*
X029513Y009137D01*
X029656Y009056D01*
X029795Y008968D01*
X029929Y008874D01*
X030059Y008772D01*
X030183Y008665D01*
X030302Y008552D01*
X030415Y008433D01*
X030522Y008309D01*
X030624Y008179D01*
X030718Y008045D01*
X030806Y007906D01*
X030887Y007763D01*
X030961Y007617D01*
X031027Y007466D01*
X031086Y007313D01*
X031138Y007157D01*
X031182Y006999D01*
X031218Y006839D01*
X031246Y006677D01*
X031266Y006514D01*
X031278Y006350D01*
X031282Y006186D01*
X031278Y006022D01*
X031266Y005858D01*
X031246Y005695D01*
X031218Y005533D01*
X031182Y005373D01*
X031138Y005215D01*
X031086Y005059D01*
X031027Y004906D01*
X030961Y004755D01*
X030887Y004609D01*
X030806Y004466D01*
X030718Y004327D01*
X030624Y004193D01*
X030522Y004063D01*
X030415Y003939D01*
X030302Y003820D01*
X030183Y003707D01*
X030059Y003600D01*
X029929Y003498D01*
X029795Y003404D01*
X029656Y003316D01*
X029513Y003235D01*
X029367Y003161D01*
X029216Y003095D01*
X029063Y003036D01*
X028907Y002984D01*
X028749Y002940D01*
X028589Y002904D01*
X028427Y002876D01*
X028264Y002856D01*
X028100Y002844D01*
X027936Y002840D01*
X027772Y002844D01*
X027608Y002856D01*
X027445Y002876D01*
X027283Y002904D01*
X027123Y002940D01*
X026965Y002984D01*
X026809Y003036D01*
X026656Y003095D01*
X026505Y003161D01*
X026359Y003235D01*
X026216Y003316D01*
X026077Y003404D01*
X025943Y003498D01*
X025813Y003600D01*
X025689Y003707D01*
X025570Y003820D01*
X025457Y003939D01*
X025350Y004063D01*
X025248Y004193D01*
X025154Y004327D01*
X025066Y004466D01*
X024985Y004609D01*
X024911Y004755D01*
X024845Y004906D01*
X024786Y005059D01*
X024734Y005215D01*
X024690Y005373D01*
X024654Y005533D01*
X024626Y005695D01*
X024606Y005858D01*
X024594Y006022D01*
X024590Y006186D01*
X036302Y006186D02*
X036304Y006257D01*
X036310Y006328D01*
X036320Y006399D01*
X036334Y006468D01*
X036351Y006537D01*
X036373Y006605D01*
X036398Y006672D01*
X036427Y006737D01*
X036459Y006800D01*
X036495Y006862D01*
X036534Y006921D01*
X036577Y006978D01*
X036622Y007033D01*
X036671Y007085D01*
X036722Y007134D01*
X036776Y007180D01*
X036833Y007224D01*
X036891Y007264D01*
X036952Y007300D01*
X037015Y007334D01*
X037080Y007363D01*
X037146Y007389D01*
X037214Y007412D01*
X037282Y007430D01*
X037352Y007445D01*
X037422Y007456D01*
X037493Y007463D01*
X037564Y007466D01*
X037635Y007465D01*
X037706Y007460D01*
X037777Y007451D01*
X037847Y007438D01*
X037916Y007422D01*
X037984Y007401D01*
X038051Y007377D01*
X038117Y007349D01*
X038180Y007317D01*
X038242Y007282D01*
X038302Y007244D01*
X038360Y007202D01*
X038415Y007158D01*
X038468Y007110D01*
X038518Y007059D01*
X038565Y007006D01*
X038609Y006950D01*
X038650Y006892D01*
X038688Y006831D01*
X038722Y006769D01*
X038752Y006704D01*
X038779Y006639D01*
X038803Y006571D01*
X038822Y006503D01*
X038838Y006434D01*
X038850Y006363D01*
X038858Y006293D01*
X038862Y006222D01*
X038862Y006150D01*
X038858Y006079D01*
X038850Y006009D01*
X038838Y005938D01*
X038822Y005869D01*
X038803Y005801D01*
X038779Y005733D01*
X038752Y005668D01*
X038722Y005603D01*
X038688Y005541D01*
X038650Y005480D01*
X038609Y005422D01*
X038565Y005366D01*
X038518Y005313D01*
X038468Y005262D01*
X038415Y005214D01*
X038360Y005170D01*
X038302Y005128D01*
X038242Y005090D01*
X038180Y005055D01*
X038117Y005023D01*
X038051Y004995D01*
X037984Y004971D01*
X037916Y004950D01*
X037847Y004934D01*
X037777Y004921D01*
X037706Y004912D01*
X037635Y004907D01*
X037564Y004906D01*
X037493Y004909D01*
X037422Y004916D01*
X037352Y004927D01*
X037282Y004942D01*
X037214Y004960D01*
X037146Y004983D01*
X037080Y005009D01*
X037015Y005038D01*
X036952Y005072D01*
X036891Y005108D01*
X036833Y005148D01*
X036776Y005192D01*
X036722Y005238D01*
X036671Y005287D01*
X036622Y005339D01*
X036577Y005394D01*
X036534Y005451D01*
X036495Y005510D01*
X036459Y005572D01*
X036427Y005635D01*
X036398Y005700D01*
X036373Y005767D01*
X036351Y005835D01*
X036334Y005904D01*
X036320Y005973D01*
X036310Y006044D01*
X036304Y006115D01*
X036302Y006186D01*
X044851Y006186D02*
X044853Y006227D01*
X044859Y006269D01*
X044868Y006309D01*
X044882Y006348D01*
X044899Y006386D01*
X044919Y006422D01*
X044943Y006456D01*
X044970Y006488D01*
X045000Y006517D01*
X045032Y006543D01*
X045067Y006566D01*
X045103Y006586D01*
X045141Y006602D01*
X045181Y006614D01*
X045222Y006623D01*
X045263Y006628D01*
X045304Y006629D01*
X045346Y006626D01*
X045387Y006619D01*
X045427Y006609D01*
X045466Y006594D01*
X045503Y006576D01*
X045539Y006555D01*
X045573Y006530D01*
X045604Y006503D01*
X045632Y006473D01*
X045657Y006440D01*
X045679Y006404D01*
X045698Y006367D01*
X045713Y006329D01*
X045725Y006289D01*
X045733Y006248D01*
X045737Y006207D01*
X045737Y006165D01*
X045733Y006124D01*
X045725Y006083D01*
X045713Y006043D01*
X045698Y006005D01*
X045679Y005968D01*
X045657Y005932D01*
X045632Y005899D01*
X045604Y005869D01*
X045573Y005842D01*
X045539Y005817D01*
X045503Y005796D01*
X045466Y005778D01*
X045427Y005763D01*
X045387Y005753D01*
X045346Y005746D01*
X045304Y005743D01*
X045263Y005744D01*
X045222Y005749D01*
X045181Y005758D01*
X045141Y005770D01*
X045103Y005786D01*
X045067Y005806D01*
X045032Y005829D01*
X045000Y005855D01*
X044970Y005884D01*
X044943Y005916D01*
X044919Y005950D01*
X044899Y005986D01*
X044882Y006024D01*
X044868Y006063D01*
X044859Y006103D01*
X044853Y006145D01*
X044851Y006186D01*
D11*
X027936Y006186D03*
D12*
X037582Y006186D03*
X018290Y006186D03*
D13*
X010578Y006186D03*
X045294Y006186D03*
D14*
X049393Y001988D02*
X049393Y001328D01*
X050574Y001328D02*
X050574Y001988D01*
X052837Y001988D02*
X052837Y001328D01*
X054019Y001328D02*
X054019Y001988D01*
X006479Y001988D02*
X006479Y001328D01*
X005298Y001328D02*
X005298Y001988D01*
X003034Y001988D02*
X003034Y001328D01*
X001853Y001328D02*
X001853Y001988D01*
D15*
X002763Y003845D03*
X002763Y005577D03*
D16*
X005786Y006218D03*
X006456Y006218D03*
X006843Y010400D03*
X007512Y010400D03*
D17*
X009038Y010457D03*
X009038Y009788D03*
X005062Y009197D03*
X005062Y008686D03*
X003172Y008686D03*
X003172Y009197D03*
X013802Y002504D03*
X013802Y001993D03*
X015692Y001993D03*
X015692Y002504D03*
X040180Y002504D03*
X040180Y001993D03*
X042070Y001993D03*
X042070Y002504D03*
X052997Y003892D03*
X054476Y003560D03*
X054476Y004229D03*
X052997Y004561D03*
X048909Y007184D03*
X048909Y007853D03*
X050810Y008686D03*
X050810Y009197D03*
X049090Y009639D03*
X049090Y010308D03*
X052700Y009197D03*
X052700Y008686D03*
D18*
X047100Y009153D03*
X007200Y008878D03*
D19*
X006422Y008750D03*
X006422Y008495D03*
X007977Y008495D03*
X007977Y008750D03*
X007977Y009006D03*
X007977Y009262D03*
X006422Y009262D03*
X006422Y009006D03*
X046323Y009025D03*
X046323Y008769D03*
X047878Y008769D03*
X047878Y009025D03*
X047878Y009281D03*
X047878Y009537D03*
X046323Y009537D03*
X046323Y009281D03*
D20*
X051755Y008941D03*
X041125Y002249D03*
X014747Y002249D03*
X004117Y008941D03*
D21*
X051938Y005088D03*
X051938Y003968D03*
D22*
X044077Y010123D02*
X044079Y010150D01*
X044085Y010177D01*
X044094Y010203D01*
X044107Y010227D01*
X044123Y010250D01*
X044142Y010269D01*
X044164Y010286D01*
X044188Y010300D01*
X044213Y010310D01*
X044240Y010317D01*
X044267Y010320D01*
X044295Y010319D01*
X044322Y010314D01*
X044348Y010306D01*
X044372Y010294D01*
X044395Y010278D01*
X044416Y010260D01*
X044433Y010239D01*
X044448Y010215D01*
X044459Y010190D01*
X044467Y010164D01*
X044471Y010137D01*
X044471Y010109D01*
X044467Y010082D01*
X044459Y010056D01*
X044448Y010031D01*
X044433Y010007D01*
X044416Y009986D01*
X044395Y009968D01*
X044373Y009952D01*
X044348Y009940D01*
X044322Y009932D01*
X044295Y009927D01*
X044267Y009926D01*
X044240Y009929D01*
X044213Y009936D01*
X044188Y009946D01*
X044164Y009960D01*
X044142Y009977D01*
X044123Y009996D01*
X044107Y010019D01*
X044094Y010043D01*
X044085Y010069D01*
X044079Y010096D01*
X044077Y010123D01*
X007463Y006874D02*
X007465Y006901D01*
X007471Y006928D01*
X007480Y006954D01*
X007493Y006978D01*
X007509Y007001D01*
X007528Y007020D01*
X007550Y007037D01*
X007574Y007051D01*
X007599Y007061D01*
X007626Y007068D01*
X007653Y007071D01*
X007681Y007070D01*
X007708Y007065D01*
X007734Y007057D01*
X007758Y007045D01*
X007781Y007029D01*
X007802Y007011D01*
X007819Y006990D01*
X007834Y006966D01*
X007845Y006941D01*
X007853Y006915D01*
X007857Y006888D01*
X007857Y006860D01*
X007853Y006833D01*
X007845Y006807D01*
X007834Y006782D01*
X007819Y006758D01*
X007802Y006737D01*
X007781Y006719D01*
X007759Y006703D01*
X007734Y006691D01*
X007708Y006683D01*
X007681Y006678D01*
X007653Y006677D01*
X007626Y006680D01*
X007599Y006687D01*
X007574Y006697D01*
X007550Y006711D01*
X007528Y006728D01*
X007509Y006747D01*
X007493Y006770D01*
X007480Y006794D01*
X007471Y006820D01*
X007465Y006847D01*
X007463Y006874D01*
D23*
X007660Y006874D03*
X044274Y010123D03*
M02*
