G75*
G70*
%OFA0B0*%
%FSLAX24Y24*%
%IPPOS*%
%LPD*%
%AMOC8*
5,1,8,0,0,1.08239X$1,22.5*
%
%ADD10C,0.1290*%
%ADD11C,0.0867*%
%ADD12R,0.0920X0.0520*%
%ADD13R,0.0906X0.1457*%
%ADD14OC8,0.0631*%
%ADD15R,0.0750X0.0670*%
%ADD16R,0.0670X0.0750*%
%ADD17R,0.0552X0.0631*%
%ADD18R,0.0631X0.0552*%
%ADD19R,0.0670X0.0670*%
%ADD20C,0.1103*%
%ADD21C,0.0860*%
%ADD22C,0.0440*%
%ADD23R,0.0827X0.1024*%
%ADD24R,0.0827X0.1339*%
%ADD25R,0.0237X0.1260*%
%ADD26C,0.0394*%
%ADD27C,0.0631*%
D10*
X001430Y015300D03*
D11*
X008180Y018800D03*
X009680Y018800D03*
X009680Y021800D03*
X008180Y021800D03*
D12*
X004710Y010460D03*
X004710Y009550D03*
X004710Y008640D03*
D13*
X007150Y009550D03*
D14*
X006680Y005499D03*
X006680Y004499D03*
X006680Y003499D03*
X007680Y003499D03*
X007680Y004499D03*
X007680Y005499D03*
X013278Y015404D03*
X013278Y016404D03*
X014278Y016404D03*
X014278Y015404D03*
X015278Y015404D03*
X015278Y016404D03*
D15*
X002680Y009760D03*
X002680Y008640D03*
D16*
X005370Y011500D03*
X006490Y011500D03*
D17*
X004304Y007300D03*
X003556Y007300D03*
X003556Y005800D03*
X004304Y005800D03*
D18*
X001680Y012176D03*
X001680Y012924D03*
X012180Y011674D03*
X012180Y010926D03*
X013680Y010926D03*
X013680Y011674D03*
X015180Y011674D03*
X015180Y010926D03*
X015330Y013426D03*
X015330Y014174D03*
D19*
X011180Y014956D03*
X011180Y013144D03*
X008180Y013144D03*
X008180Y014956D03*
X005180Y014956D03*
X005180Y013144D03*
D20*
X005180Y014050D03*
X008180Y014050D03*
X011180Y014050D03*
D21*
X015233Y007050D02*
X015235Y007077D01*
X015241Y007104D01*
X015250Y007130D01*
X015263Y007154D01*
X015279Y007177D01*
X015298Y007196D01*
X015320Y007213D01*
X015344Y007227D01*
X015369Y007237D01*
X015396Y007244D01*
X015423Y007247D01*
X015451Y007246D01*
X015478Y007241D01*
X015504Y007233D01*
X015528Y007221D01*
X015551Y007205D01*
X015572Y007187D01*
X015589Y007166D01*
X015604Y007142D01*
X015615Y007117D01*
X015623Y007091D01*
X015627Y007064D01*
X015627Y007036D01*
X015623Y007009D01*
X015615Y006983D01*
X015604Y006958D01*
X015589Y006934D01*
X015572Y006913D01*
X015551Y006895D01*
X015529Y006879D01*
X015504Y006867D01*
X015478Y006859D01*
X015451Y006854D01*
X015423Y006853D01*
X015396Y006856D01*
X015369Y006863D01*
X015344Y006873D01*
X015320Y006887D01*
X015298Y006904D01*
X015279Y006923D01*
X015263Y006946D01*
X015250Y006970D01*
X015241Y006996D01*
X015235Y007023D01*
X015233Y007050D01*
X003483Y017550D02*
X003485Y017577D01*
X003491Y017604D01*
X003500Y017630D01*
X003513Y017654D01*
X003529Y017677D01*
X003548Y017696D01*
X003570Y017713D01*
X003594Y017727D01*
X003619Y017737D01*
X003646Y017744D01*
X003673Y017747D01*
X003701Y017746D01*
X003728Y017741D01*
X003754Y017733D01*
X003778Y017721D01*
X003801Y017705D01*
X003822Y017687D01*
X003839Y017666D01*
X003854Y017642D01*
X003865Y017617D01*
X003873Y017591D01*
X003877Y017564D01*
X003877Y017536D01*
X003873Y017509D01*
X003865Y017483D01*
X003854Y017458D01*
X003839Y017434D01*
X003822Y017413D01*
X003801Y017395D01*
X003779Y017379D01*
X003754Y017367D01*
X003728Y017359D01*
X003701Y017354D01*
X003673Y017353D01*
X003646Y017356D01*
X003619Y017363D01*
X003594Y017373D01*
X003570Y017387D01*
X003548Y017404D01*
X003529Y017423D01*
X003513Y017446D01*
X003500Y017470D01*
X003491Y017496D01*
X003485Y017523D01*
X003483Y017550D01*
D22*
X003680Y017550D03*
X015430Y007050D03*
D23*
X001678Y001269D03*
X005182Y001269D03*
D24*
X005182Y003592D03*
X001678Y003592D03*
D25*
X002800Y003631D03*
X003115Y003631D03*
X003430Y003631D03*
X003745Y003631D03*
X004060Y003631D03*
D26*
X004296Y002450D03*
X002564Y002450D03*
D27*
X002225Y005800D02*
X001635Y005800D01*
X001635Y006800D02*
X002225Y006800D01*
M02*
