G75*
G70*
%OFA0B0*%
%FSLAX24Y24*%
%IPPOS*%
%LPD*%
%AMOC8*
5,1,8,0,0,1.08239X$1,22.5*
%
%ADD10C,0.0827*%
%ADD11R,0.0880X0.0480*%
%ADD12R,0.0866X0.1417*%
%ADD13OC8,0.0591*%
%ADD14R,0.0710X0.0630*%
%ADD15R,0.0630X0.0710*%
%ADD16R,0.0512X0.0591*%
%ADD17R,0.0591X0.0512*%
%ADD18R,0.0630X0.0630*%
%ADD19C,0.0400*%
%ADD20R,0.0787X0.0984*%
%ADD21R,0.0787X0.1299*%
%ADD22R,0.0197X0.1220*%
%ADD23C,0.0591*%
%ADD24C,0.0240*%
%ADD25C,0.0160*%
%ADD26C,0.0356*%
D10*
X008180Y018800D03*
X009680Y018800D03*
X009680Y021800D03*
X008180Y021800D03*
D11*
X004710Y010460D03*
X004710Y009550D03*
X004710Y008640D03*
D12*
X007150Y009550D03*
D13*
X006680Y005499D03*
X006680Y004499D03*
X006680Y003499D03*
X007680Y003499D03*
X007680Y004499D03*
X007680Y005499D03*
X013278Y015404D03*
X013278Y016404D03*
X014278Y016404D03*
X014278Y015404D03*
X015278Y015404D03*
X015278Y016404D03*
D14*
X002680Y009760D03*
X002680Y008640D03*
D15*
X005370Y011500D03*
X006490Y011500D03*
D16*
X004304Y007300D03*
X003556Y007300D03*
X003556Y005800D03*
X004304Y005800D03*
D17*
X001680Y012176D03*
X001680Y012924D03*
X012180Y011674D03*
X012180Y010926D03*
X013680Y010926D03*
X013680Y011674D03*
X015180Y011674D03*
X015180Y010926D03*
X015330Y013426D03*
X015330Y014174D03*
D18*
X011180Y014956D03*
X011180Y013144D03*
X008180Y013144D03*
X008180Y014956D03*
X005180Y014956D03*
X005180Y013144D03*
D19*
X003680Y017550D03*
X015430Y007050D03*
D20*
X005182Y001269D03*
X001678Y001269D03*
D21*
X001678Y003592D03*
X005182Y003592D03*
D22*
X004060Y003631D03*
X003745Y003631D03*
X003430Y003631D03*
X003115Y003631D03*
X002800Y003631D03*
D23*
X002225Y005800D02*
X001635Y005800D01*
X001635Y006800D02*
X002225Y006800D01*
D24*
X001930Y006800D02*
X002680Y006800D01*
X002880Y006600D01*
X004254Y006600D01*
X004304Y006550D01*
X004304Y007300D01*
X004304Y006550D02*
X004304Y005800D01*
X003556Y005800D02*
X002930Y005800D01*
X001930Y005800D01*
X002930Y007300D02*
X002680Y007550D01*
X002680Y008640D01*
X004710Y008640D01*
X004710Y009550D02*
X006930Y009550D01*
X006930Y006550D01*
X006680Y006300D01*
X006680Y005499D01*
X007680Y005499D01*
X007089Y009489D02*
X007150Y009550D01*
X007180Y009580D01*
X007180Y011300D01*
X006980Y011500D01*
X006490Y011500D01*
X006930Y009550D02*
X007150Y009550D01*
X003556Y007300D02*
X002930Y007300D01*
X009680Y017300D02*
X008180Y018800D01*
X008180Y021800D01*
X009680Y021800D02*
X009680Y018800D01*
X013930Y018800D01*
X015278Y017452D01*
X015278Y016404D01*
X013444Y016536D02*
X013278Y016404D01*
X013278Y016952D01*
X012930Y017300D01*
X009680Y017300D01*
D25*
X000440Y023125D02*
X000440Y000810D01*
X001104Y000810D01*
X001104Y001189D01*
X001598Y001189D01*
X001598Y001349D01*
X001598Y001941D01*
X001261Y001941D01*
X001215Y001929D01*
X001174Y001905D01*
X001140Y001872D01*
X001117Y001831D01*
X001104Y001785D01*
X001104Y001349D01*
X001598Y001349D01*
X001758Y001349D01*
X001758Y001941D01*
X002095Y001941D01*
X002141Y001929D01*
X002182Y001905D01*
X002216Y001872D01*
X002239Y001831D01*
X002252Y001785D01*
X002252Y001349D01*
X001758Y001349D01*
X001758Y001189D01*
X002252Y001189D01*
X002252Y000810D01*
X004608Y000810D01*
X004608Y001189D01*
X005102Y001189D01*
X005102Y001349D01*
X005102Y001941D01*
X004765Y001941D01*
X004719Y001929D01*
X004678Y001905D01*
X004644Y001872D01*
X004621Y001831D01*
X004608Y001785D01*
X004608Y001349D01*
X005102Y001349D01*
X005262Y001349D01*
X005262Y001941D01*
X005599Y001941D01*
X005645Y001929D01*
X005686Y001905D01*
X005720Y001872D01*
X005743Y001831D01*
X005756Y001785D01*
X005756Y001349D01*
X005262Y001349D01*
X005262Y001189D01*
X005756Y001189D01*
X005756Y000810D01*
X016455Y000810D01*
X016455Y023125D01*
X000440Y023125D01*
X000440Y023057D02*
X016455Y023057D01*
X016455Y022899D02*
X000440Y022899D01*
X000440Y022740D02*
X016455Y022740D01*
X016455Y022582D02*
X000440Y022582D01*
X000440Y022423D02*
X016455Y022423D01*
X016455Y022265D02*
X010055Y022265D01*
X010016Y022303D02*
X009798Y022393D01*
X009562Y022393D01*
X009344Y022303D01*
X009177Y022136D01*
X009087Y021918D01*
X009087Y021682D01*
X009177Y021464D01*
X009344Y021297D01*
X009380Y021282D01*
X009380Y019318D01*
X009344Y019303D01*
X009177Y019136D01*
X009087Y018918D01*
X009087Y018682D01*
X009177Y018464D01*
X009344Y018297D01*
X009562Y018207D01*
X009798Y018207D01*
X010016Y018297D01*
X010183Y018464D01*
X010198Y018500D01*
X013806Y018500D01*
X014978Y017327D01*
X014978Y016776D01*
X014803Y016601D01*
X014803Y016207D01*
X015018Y015992D01*
X015018Y015816D01*
X014803Y015601D01*
X014803Y015207D01*
X015018Y014992D01*
X015018Y014610D01*
X014960Y014610D01*
X014855Y014504D01*
X014855Y013844D01*
X014898Y013800D01*
X014891Y013792D01*
X014867Y013751D01*
X014855Y013706D01*
X014855Y013474D01*
X015282Y013474D01*
X015282Y013378D01*
X014855Y013378D01*
X014855Y013146D01*
X014867Y013101D01*
X014891Y013060D01*
X014924Y013026D01*
X014965Y013002D01*
X015011Y012990D01*
X015282Y012990D01*
X015282Y013378D01*
X015378Y013378D01*
X015378Y013474D01*
X015805Y013474D01*
X015805Y013706D01*
X015793Y013751D01*
X015769Y013792D01*
X015762Y013800D01*
X015805Y013844D01*
X015805Y014504D01*
X015700Y014610D01*
X015538Y014610D01*
X015538Y014992D01*
X015754Y015207D01*
X015754Y015601D01*
X015538Y015816D01*
X015538Y015992D01*
X015754Y016207D01*
X015754Y016601D01*
X015578Y016776D01*
X015578Y017511D01*
X015533Y017622D01*
X014100Y019054D01*
X013990Y019100D01*
X010198Y019100D01*
X010183Y019136D01*
X010016Y019303D01*
X009980Y019318D01*
X009980Y021282D01*
X010016Y021297D01*
X010183Y021464D01*
X010273Y021682D01*
X010273Y021918D01*
X010183Y022136D01*
X010016Y022303D01*
X010196Y022106D02*
X016455Y022106D01*
X016455Y021948D02*
X010261Y021948D01*
X010273Y021789D02*
X016455Y021789D01*
X016455Y021631D02*
X010252Y021631D01*
X010186Y021472D02*
X016455Y021472D01*
X016455Y021314D02*
X010033Y021314D01*
X009980Y021155D02*
X016455Y021155D01*
X016455Y020997D02*
X009980Y020997D01*
X009980Y020838D02*
X016455Y020838D01*
X016455Y020680D02*
X009980Y020680D01*
X009980Y020521D02*
X016455Y020521D01*
X016455Y020363D02*
X009980Y020363D01*
X009980Y020204D02*
X016455Y020204D01*
X016455Y020046D02*
X009980Y020046D01*
X009980Y019887D02*
X016455Y019887D01*
X016455Y019729D02*
X009980Y019729D01*
X009980Y019570D02*
X016455Y019570D01*
X016455Y019412D02*
X009980Y019412D01*
X010066Y019253D02*
X016455Y019253D01*
X016455Y019095D02*
X014003Y019095D01*
X014218Y018936D02*
X016455Y018936D01*
X016455Y018778D02*
X014377Y018778D01*
X014535Y018619D02*
X016455Y018619D01*
X016455Y018461D02*
X014694Y018461D01*
X014852Y018302D02*
X016455Y018302D01*
X016455Y018144D02*
X015011Y018144D01*
X015169Y017985D02*
X016455Y017985D01*
X016455Y017827D02*
X015328Y017827D01*
X015486Y017668D02*
X016455Y017668D01*
X016455Y017510D02*
X015578Y017510D01*
X015578Y017351D02*
X016455Y017351D01*
X016455Y017193D02*
X015578Y017193D01*
X015578Y017034D02*
X016455Y017034D01*
X016455Y016876D02*
X015578Y016876D01*
X015638Y016717D02*
X016455Y016717D01*
X016455Y016559D02*
X015754Y016559D01*
X015754Y016400D02*
X016455Y016400D01*
X016455Y016242D02*
X015754Y016242D01*
X015629Y016083D02*
X016455Y016083D01*
X016455Y015925D02*
X015538Y015925D01*
X015589Y015766D02*
X016455Y015766D01*
X016455Y015608D02*
X015747Y015608D01*
X015754Y015449D02*
X016455Y015449D01*
X016455Y015291D02*
X015754Y015291D01*
X015678Y015132D02*
X016455Y015132D01*
X016455Y014974D02*
X015538Y014974D01*
X015538Y014815D02*
X016455Y014815D01*
X016455Y014657D02*
X015538Y014657D01*
X015805Y014498D02*
X016455Y014498D01*
X016455Y014340D02*
X015805Y014340D01*
X015805Y014181D02*
X016455Y014181D01*
X016455Y014023D02*
X015805Y014023D01*
X015805Y013864D02*
X016455Y013864D01*
X016455Y013706D02*
X015805Y013706D01*
X015805Y013547D02*
X016455Y013547D01*
X016455Y013389D02*
X015378Y013389D01*
X015378Y013378D02*
X015805Y013378D01*
X015805Y013146D01*
X015793Y013101D01*
X015769Y013060D01*
X015736Y013026D01*
X015695Y013002D01*
X015649Y012990D01*
X015378Y012990D01*
X015378Y013378D01*
X015282Y013389D02*
X014209Y013389D01*
X014051Y013547D02*
X014855Y013547D01*
X014855Y013706D02*
X013892Y013706D01*
X013900Y013697D02*
X013827Y013770D01*
X013732Y013810D01*
X013038Y013810D01*
X012940Y013908D01*
X012940Y015071D01*
X013082Y014929D01*
X013475Y014929D01*
X013754Y015207D01*
X013754Y015601D01*
X013538Y015816D01*
X013538Y015992D01*
X013754Y016207D01*
X013754Y016601D01*
X013731Y016624D01*
X013716Y016677D01*
X013641Y016770D01*
X013578Y016805D01*
X013578Y017011D01*
X013533Y017122D01*
X013184Y017470D01*
X013100Y017554D01*
X012990Y017600D01*
X009804Y017600D01*
X008758Y018646D01*
X008773Y018682D01*
X008773Y018918D01*
X008683Y019136D01*
X008516Y019303D01*
X008480Y019318D01*
X008480Y021282D01*
X008516Y021297D01*
X008683Y021464D01*
X008773Y021682D01*
X008773Y021918D01*
X008683Y022136D01*
X008516Y022303D01*
X008298Y022393D01*
X008062Y022393D01*
X007844Y022303D01*
X007677Y022136D01*
X007587Y021918D01*
X007587Y021682D01*
X007677Y021464D01*
X007844Y021297D01*
X007880Y021282D01*
X007880Y019318D01*
X007844Y019303D01*
X007677Y019136D01*
X007645Y019060D01*
X007128Y019060D01*
X007033Y019020D01*
X006960Y018947D01*
X001460Y013447D01*
X001423Y013360D01*
X001310Y013360D01*
X001205Y013254D01*
X001205Y012594D01*
X001248Y012550D01*
X001205Y012506D01*
X001205Y011846D01*
X001310Y011740D01*
X001420Y011740D01*
X001420Y008748D01*
X001460Y008653D01*
X001533Y008580D01*
X001693Y008420D01*
X001788Y008380D01*
X002145Y008380D01*
X002145Y008251D01*
X002251Y008145D01*
X002380Y008145D01*
X002380Y007490D01*
X002426Y007380D01*
X002510Y007296D01*
X002706Y007100D01*
X002597Y007100D01*
X002494Y007203D01*
X002320Y007275D01*
X001540Y007275D01*
X001366Y007203D01*
X001232Y007069D01*
X001159Y006895D01*
X001159Y006705D01*
X001232Y006531D01*
X001366Y006397D01*
X001540Y006325D01*
X002320Y006325D01*
X002494Y006397D01*
X002577Y006479D01*
X002626Y006430D01*
X002710Y006346D01*
X002820Y006300D01*
X004004Y006300D01*
X004004Y006275D01*
X003974Y006275D01*
X003930Y006232D01*
X003886Y006275D01*
X003226Y006275D01*
X003120Y006170D01*
X003120Y006100D01*
X002597Y006100D01*
X002494Y006203D01*
X002320Y006275D01*
X001540Y006275D01*
X001366Y006203D01*
X001232Y006069D01*
X001159Y005895D01*
X001159Y005705D01*
X001232Y005531D01*
X001366Y005397D01*
X001540Y005325D01*
X002320Y005325D01*
X002494Y005397D01*
X002540Y005443D01*
X002540Y004334D01*
X002522Y004316D01*
X002522Y002946D01*
X002627Y002841D01*
X003918Y002841D01*
X003922Y002845D01*
X003938Y002841D01*
X004060Y002841D01*
X004182Y002841D01*
X004228Y002853D01*
X004269Y002877D01*
X004302Y002910D01*
X004326Y002951D01*
X004338Y002997D01*
X004338Y003631D01*
X004060Y003631D01*
X004060Y002841D01*
X004060Y003631D01*
X004060Y003631D01*
X004060Y003631D01*
X004338Y003631D01*
X004338Y004265D01*
X004326Y004311D01*
X004302Y004352D01*
X004269Y004385D01*
X004228Y004409D01*
X004182Y004421D01*
X004060Y004421D01*
X004060Y003631D01*
X004060Y003631D01*
X004060Y004421D01*
X003938Y004421D01*
X003922Y004417D01*
X003918Y004421D01*
X003060Y004421D01*
X003060Y005500D01*
X003120Y005500D01*
X003120Y005430D01*
X003226Y005325D01*
X003886Y005325D01*
X003930Y005368D01*
X003974Y005325D01*
X004634Y005325D01*
X004740Y005430D01*
X004740Y006170D01*
X004634Y006275D01*
X004604Y006275D01*
X004604Y006825D01*
X004634Y006825D01*
X004740Y006930D01*
X004740Y007670D01*
X004634Y007775D01*
X003974Y007775D01*
X003930Y007732D01*
X003886Y007775D01*
X003226Y007775D01*
X003120Y007670D01*
X003120Y007600D01*
X003054Y007600D01*
X002980Y007674D01*
X002980Y008145D01*
X003109Y008145D01*
X003215Y008251D01*
X003215Y008340D01*
X004090Y008340D01*
X004090Y008326D01*
X004195Y008220D01*
X005224Y008220D01*
X005330Y008326D01*
X005330Y008955D01*
X005224Y009060D01*
X004195Y009060D01*
X004090Y008955D01*
X004090Y008940D01*
X003215Y008940D01*
X003215Y009030D01*
X003109Y009135D01*
X002251Y009135D01*
X002145Y009030D01*
X002145Y008900D01*
X001948Y008900D01*
X001940Y008908D01*
X001940Y011740D01*
X002050Y011740D01*
X002155Y011846D01*
X002155Y012506D01*
X002112Y012550D01*
X002155Y012594D01*
X002155Y013254D01*
X002079Y013331D01*
X007288Y018540D01*
X007645Y018540D01*
X007677Y018464D01*
X007844Y018297D01*
X008062Y018207D01*
X008298Y018207D01*
X008334Y018222D01*
X009510Y017046D01*
X009620Y017000D01*
X012806Y017000D01*
X012978Y016827D01*
X012978Y016776D01*
X012803Y016601D01*
X012803Y016207D01*
X013018Y015992D01*
X013018Y015816D01*
X012803Y015601D01*
X012803Y015295D01*
X011900Y016197D01*
X011900Y016197D01*
X011827Y016270D01*
X011732Y016310D01*
X005378Y016310D01*
X005283Y016270D01*
X005210Y016197D01*
X004960Y015947D01*
X004920Y015852D01*
X004920Y015450D01*
X004790Y015450D01*
X004685Y015345D01*
X004685Y014566D01*
X004687Y014564D01*
X004577Y014453D01*
X004469Y014192D01*
X004469Y013908D01*
X004577Y013647D01*
X004687Y013536D01*
X004685Y013534D01*
X004685Y012755D01*
X004790Y012650D01*
X004963Y012650D01*
X005210Y012403D01*
X005283Y012330D01*
X005378Y012290D01*
X006172Y012290D01*
X006220Y012242D01*
X006220Y012035D01*
X006100Y012035D01*
X005995Y011929D01*
X005995Y011071D01*
X006100Y010965D01*
X006727Y010965D01*
X006710Y010947D01*
X006670Y010852D01*
X006670Y010439D01*
X006642Y010439D01*
X006537Y010333D01*
X006537Y009850D01*
X005330Y009850D01*
X005330Y009865D01*
X005224Y009970D01*
X004195Y009970D01*
X004090Y009865D01*
X004090Y009235D01*
X004195Y009130D01*
X005224Y009130D01*
X005330Y009235D01*
X005330Y009250D01*
X006537Y009250D01*
X006537Y008767D01*
X006630Y008674D01*
X006630Y006674D01*
X006426Y006470D01*
X006380Y006360D01*
X006380Y005871D01*
X006205Y005696D01*
X006205Y005302D01*
X006483Y005024D01*
X006836Y005024D01*
X006786Y004974D01*
X006483Y004974D01*
X006205Y004696D01*
X006205Y004302D01*
X006483Y004024D01*
X006877Y004024D01*
X007155Y004302D01*
X007155Y004608D01*
X007205Y004657D01*
X007205Y004302D01*
X007483Y004024D01*
X007877Y004024D01*
X008092Y004239D01*
X008681Y004239D01*
X008776Y004278D01*
X013827Y009330D01*
X013900Y009403D01*
X013940Y009498D01*
X013940Y010490D01*
X014050Y010490D01*
X014155Y010596D01*
X014155Y011256D01*
X014112Y011300D01*
X014155Y011344D01*
X014155Y012004D01*
X014050Y012110D01*
X013940Y012110D01*
X013940Y012352D01*
X013900Y012447D01*
X013827Y012520D01*
X013577Y012770D01*
X013482Y012810D01*
X011675Y012810D01*
X011675Y013534D01*
X011673Y013536D01*
X011783Y013647D01*
X011891Y013908D01*
X011891Y014192D01*
X011783Y014453D01*
X011663Y014573D01*
X011675Y014617D01*
X011675Y014878D01*
X011257Y014878D01*
X011257Y015033D01*
X011103Y015033D01*
X011103Y015450D01*
X010841Y015450D01*
X010796Y015438D01*
X010755Y015415D01*
X010721Y015381D01*
X010697Y015340D01*
X010685Y015294D01*
X010685Y015033D01*
X011103Y015033D01*
X011103Y014878D01*
X010685Y014878D01*
X010685Y014617D01*
X010697Y014573D01*
X010577Y014453D01*
X010469Y014192D01*
X010469Y013908D01*
X010577Y013647D01*
X010687Y013536D01*
X010685Y013534D01*
X010685Y012755D01*
X010790Y012650D01*
X010963Y012650D01*
X011210Y012403D01*
X011283Y012330D01*
X011378Y012290D01*
X013322Y012290D01*
X013420Y012192D01*
X013420Y012110D01*
X013310Y012110D01*
X013205Y012004D01*
X013205Y011344D01*
X013248Y011300D01*
X013205Y011256D01*
X013205Y010596D01*
X013310Y010490D01*
X013420Y010490D01*
X013420Y009658D01*
X008521Y004759D01*
X008477Y004759D01*
X008527Y004780D01*
X012327Y008580D01*
X012400Y008653D01*
X012440Y008748D01*
X012440Y010490D01*
X012550Y010490D01*
X012655Y010596D01*
X012655Y011256D01*
X012612Y011300D01*
X012655Y011344D01*
X012655Y012004D01*
X012550Y012110D01*
X011810Y012110D01*
X011705Y012004D01*
X011705Y011960D01*
X008638Y011960D01*
X008440Y012158D01*
X008440Y012650D01*
X008570Y012650D01*
X008675Y012755D01*
X008675Y013534D01*
X008673Y013536D01*
X008783Y013647D01*
X008891Y013908D01*
X008891Y014192D01*
X008783Y014453D01*
X008663Y014573D01*
X008675Y014617D01*
X008675Y014878D01*
X008257Y014878D01*
X008257Y015033D01*
X008103Y015033D01*
X008103Y015450D01*
X007841Y015450D01*
X007796Y015438D01*
X007755Y015415D01*
X007721Y015381D01*
X007697Y015340D01*
X007685Y015294D01*
X007685Y015033D01*
X008103Y015033D01*
X008103Y014878D01*
X007685Y014878D01*
X007685Y014617D01*
X007697Y014573D01*
X007577Y014453D01*
X007469Y014192D01*
X007469Y013908D01*
X007577Y013647D01*
X007687Y013536D01*
X007685Y013534D01*
X007685Y012755D01*
X007790Y012650D01*
X007920Y012650D01*
X007920Y011998D01*
X007960Y011903D01*
X008310Y011553D01*
X008383Y011480D01*
X008478Y011440D01*
X011705Y011440D01*
X011705Y011344D01*
X011748Y011300D01*
X011705Y011256D01*
X011705Y010596D01*
X011810Y010490D01*
X011920Y010490D01*
X011920Y008908D01*
X008272Y005260D01*
X008113Y005260D01*
X008155Y005302D01*
X008155Y005696D01*
X007877Y005974D01*
X007483Y005974D01*
X007308Y005799D01*
X007052Y005799D01*
X006980Y005871D01*
X006980Y006176D01*
X007100Y006296D01*
X007184Y006380D01*
X007230Y006490D01*
X007230Y008290D01*
X009982Y008290D01*
X010077Y008330D01*
X010150Y008403D01*
X010190Y008498D01*
X010190Y010852D01*
X010150Y010947D01*
X010077Y011020D01*
X009982Y011060D01*
X007480Y011060D01*
X007480Y011360D01*
X007434Y011470D01*
X007350Y011554D01*
X007150Y011754D01*
X007040Y011800D01*
X006985Y011800D01*
X006985Y011929D01*
X006879Y012035D01*
X006740Y012035D01*
X006740Y012402D01*
X006700Y012497D01*
X006627Y012570D01*
X006427Y012770D01*
X006332Y012810D01*
X005675Y012810D01*
X005675Y013534D01*
X005673Y013536D01*
X005783Y013647D01*
X005891Y013908D01*
X005891Y014192D01*
X005783Y014453D01*
X005673Y014564D01*
X005675Y014566D01*
X005675Y015345D01*
X005570Y015450D01*
X005440Y015450D01*
X005440Y015692D01*
X005538Y015790D01*
X011572Y015790D01*
X012420Y014942D01*
X012420Y013748D01*
X012460Y013653D01*
X012533Y013580D01*
X012783Y013330D01*
X012878Y013290D01*
X013572Y013290D01*
X014781Y012081D01*
X014705Y012004D01*
X014705Y011344D01*
X014748Y011300D01*
X014705Y011256D01*
X014705Y010596D01*
X014810Y010490D01*
X014920Y010490D01*
X014920Y010208D01*
X009260Y004547D01*
X009220Y004452D01*
X009220Y003308D01*
X008522Y002610D01*
X007438Y002610D01*
X006951Y003097D01*
X007155Y003302D01*
X007155Y003696D01*
X006877Y003974D01*
X006483Y003974D01*
X006205Y003696D01*
X006205Y003302D01*
X006420Y003087D01*
X006420Y002948D01*
X006460Y002853D01*
X007110Y002203D01*
X007183Y002130D01*
X007278Y002090D01*
X008682Y002090D01*
X008777Y002130D01*
X009627Y002980D01*
X009700Y003053D01*
X009740Y003148D01*
X009740Y004292D01*
X015327Y009880D01*
X015400Y009953D01*
X015440Y010048D01*
X015440Y010490D01*
X015550Y010490D01*
X015655Y010596D01*
X015655Y011256D01*
X015612Y011300D01*
X015655Y011344D01*
X015655Y012004D01*
X015550Y012110D01*
X015437Y012110D01*
X015400Y012197D01*
X013900Y013697D01*
X013900Y013697D01*
X013680Y013550D02*
X012930Y013550D01*
X012680Y013800D01*
X012680Y015050D01*
X011680Y016050D01*
X005430Y016050D01*
X005180Y015800D01*
X005180Y014956D01*
X005571Y015449D02*
X007836Y015449D01*
X007685Y015291D02*
X005675Y015291D01*
X005675Y015132D02*
X007685Y015132D01*
X007685Y014815D02*
X005675Y014815D01*
X005675Y014657D02*
X007685Y014657D01*
X007622Y014498D02*
X005738Y014498D01*
X005830Y014340D02*
X007530Y014340D01*
X007469Y014181D02*
X005891Y014181D01*
X005891Y014023D02*
X007469Y014023D01*
X007487Y013864D02*
X005873Y013864D01*
X005807Y013706D02*
X007553Y013706D01*
X007677Y013547D02*
X005683Y013547D01*
X005675Y013389D02*
X007685Y013389D01*
X007685Y013230D02*
X005675Y013230D01*
X005675Y013072D02*
X007685Y013072D01*
X007685Y012913D02*
X005675Y012913D01*
X005430Y012550D02*
X006280Y012550D01*
X006480Y012350D01*
X006480Y011510D01*
X006490Y011500D01*
X006670Y010853D02*
X005245Y010853D01*
X005260Y010844D02*
X005219Y010868D01*
X005174Y010880D01*
X004750Y010880D01*
X004750Y010500D01*
X004670Y010500D01*
X004670Y010880D01*
X004246Y010880D01*
X004200Y010868D01*
X004159Y010844D01*
X004126Y010810D01*
X004102Y010769D01*
X004090Y010724D01*
X004090Y010500D01*
X004670Y010500D01*
X004670Y010420D01*
X004090Y010420D01*
X004090Y010196D01*
X004102Y010150D01*
X004126Y010109D01*
X004159Y010076D01*
X004200Y010052D01*
X004246Y010040D01*
X004670Y010040D01*
X004670Y010420D01*
X004750Y010420D01*
X004750Y010500D01*
X005330Y010500D01*
X005330Y010724D01*
X005318Y010769D01*
X005294Y010810D01*
X005260Y010844D01*
X005293Y010965D02*
X005031Y010965D01*
X004986Y010977D01*
X004945Y011001D01*
X004911Y011035D01*
X004887Y011076D01*
X004875Y011121D01*
X004875Y011423D01*
X005293Y011423D01*
X005293Y011577D01*
X004875Y011577D01*
X004875Y011879D01*
X004887Y011924D01*
X004911Y011965D01*
X004945Y011999D01*
X004986Y012023D01*
X005031Y012035D01*
X005293Y012035D01*
X005293Y011577D01*
X005448Y011577D01*
X005865Y011577D01*
X005865Y011879D01*
X005853Y011924D01*
X005829Y011965D01*
X005796Y011999D01*
X005755Y012023D01*
X005709Y012035D01*
X005448Y012035D01*
X005448Y011577D01*
X005448Y011423D01*
X005865Y011423D01*
X005865Y011121D01*
X005853Y011076D01*
X005829Y011035D01*
X005796Y011001D01*
X005755Y010977D01*
X005709Y010965D01*
X005448Y010965D01*
X005448Y011423D01*
X005293Y011423D01*
X005293Y010965D01*
X005293Y011011D02*
X005448Y011011D01*
X005448Y011170D02*
X005293Y011170D01*
X005293Y011328D02*
X005448Y011328D01*
X005448Y011487D02*
X005995Y011487D01*
X005995Y011645D02*
X005865Y011645D01*
X005865Y011804D02*
X005995Y011804D01*
X006027Y011962D02*
X005831Y011962D01*
X005448Y011962D02*
X005293Y011962D01*
X005293Y011804D02*
X005448Y011804D01*
X005448Y011645D02*
X005293Y011645D01*
X005293Y011487D02*
X001940Y011487D01*
X001940Y011645D02*
X004875Y011645D01*
X004875Y011804D02*
X002113Y011804D01*
X002155Y011962D02*
X004909Y011962D01*
X005175Y012438D02*
X002155Y012438D01*
X002155Y012596D02*
X005016Y012596D01*
X005180Y012800D02*
X005430Y012550D01*
X005180Y012800D02*
X005180Y013144D01*
X004685Y013072D02*
X002155Y013072D01*
X002155Y013230D02*
X004685Y013230D01*
X004685Y013389D02*
X002136Y013389D01*
X002295Y013547D02*
X004677Y013547D01*
X004553Y013706D02*
X002453Y013706D01*
X002612Y013864D02*
X004487Y013864D01*
X004469Y014023D02*
X002770Y014023D01*
X002929Y014181D02*
X004469Y014181D01*
X004530Y014340D02*
X003087Y014340D01*
X003246Y014498D02*
X004622Y014498D01*
X004685Y014657D02*
X003404Y014657D01*
X003563Y014815D02*
X004685Y014815D01*
X004685Y014974D02*
X003721Y014974D01*
X003880Y015132D02*
X004685Y015132D01*
X004685Y015291D02*
X004038Y015291D01*
X004197Y015449D02*
X004789Y015449D01*
X004920Y015608D02*
X004355Y015608D01*
X004514Y015766D02*
X004920Y015766D01*
X004950Y015925D02*
X004672Y015925D01*
X004831Y016083D02*
X005095Y016083D01*
X004989Y016242D02*
X005254Y016242D01*
X005148Y016400D02*
X012803Y016400D01*
X012803Y016242D02*
X011856Y016242D01*
X012015Y016083D02*
X012928Y016083D01*
X013018Y015925D02*
X012173Y015925D01*
X012332Y015766D02*
X012968Y015766D01*
X012809Y015608D02*
X012490Y015608D01*
X012649Y015449D02*
X012803Y015449D01*
X012940Y014974D02*
X013037Y014974D01*
X012940Y014815D02*
X015018Y014815D01*
X015018Y014657D02*
X012940Y014657D01*
X012940Y014498D02*
X014855Y014498D01*
X014855Y014340D02*
X012940Y014340D01*
X012940Y014181D02*
X014855Y014181D01*
X014855Y014023D02*
X012940Y014023D01*
X012984Y013864D02*
X014855Y013864D01*
X014855Y013230D02*
X014368Y013230D01*
X014526Y013072D02*
X014884Y013072D01*
X014843Y012755D02*
X016455Y012755D01*
X016455Y012913D02*
X014685Y012913D01*
X015002Y012596D02*
X016455Y012596D01*
X016455Y012438D02*
X015160Y012438D01*
X015319Y012279D02*
X016455Y012279D01*
X016455Y012121D02*
X015432Y012121D01*
X015655Y011962D02*
X016455Y011962D01*
X016455Y011804D02*
X015655Y011804D01*
X015655Y011645D02*
X016455Y011645D01*
X016455Y011487D02*
X015655Y011487D01*
X015640Y011328D02*
X016455Y011328D01*
X016455Y011170D02*
X015655Y011170D01*
X015655Y011011D02*
X016455Y011011D01*
X016455Y010853D02*
X015655Y010853D01*
X015655Y010694D02*
X016455Y010694D01*
X016455Y010536D02*
X015595Y010536D01*
X015440Y010377D02*
X016455Y010377D01*
X016455Y010219D02*
X015440Y010219D01*
X015440Y010060D02*
X016455Y010060D01*
X016455Y009902D02*
X015349Y009902D01*
X015191Y009743D02*
X016455Y009743D01*
X016455Y009585D02*
X015032Y009585D01*
X014874Y009426D02*
X016455Y009426D01*
X016455Y009268D02*
X014715Y009268D01*
X014557Y009109D02*
X016455Y009109D01*
X016455Y008951D02*
X014398Y008951D01*
X014240Y008792D02*
X016455Y008792D01*
X016455Y008634D02*
X014081Y008634D01*
X013923Y008475D02*
X016455Y008475D01*
X016455Y008317D02*
X013764Y008317D01*
X013606Y008158D02*
X016455Y008158D01*
X016455Y008000D02*
X013447Y008000D01*
X013289Y007841D02*
X015346Y007841D01*
X015347Y007841D02*
X015032Y007739D01*
X014786Y007518D01*
X014652Y007215D01*
X014652Y006885D01*
X014786Y006582D01*
X015032Y006361D01*
X015032Y006361D01*
X015347Y006259D01*
X015676Y006293D01*
X015962Y006459D01*
X016157Y006726D01*
X016157Y006726D01*
X016226Y007050D01*
X016157Y007374D01*
X015962Y007641D01*
X015676Y007807D01*
X015347Y007841D01*
X015347Y007841D01*
X015349Y007841D02*
X016455Y007841D01*
X016455Y007683D02*
X015891Y007683D01*
X015962Y007641D02*
X015962Y007641D01*
X015962Y007641D01*
X016047Y007524D02*
X016455Y007524D01*
X016455Y007366D02*
X016158Y007366D01*
X016157Y007374D02*
X016157Y007374D01*
X016192Y007207D02*
X016455Y007207D01*
X016455Y007049D02*
X016225Y007049D01*
X016192Y006890D02*
X016455Y006890D01*
X016455Y006732D02*
X016158Y006732D01*
X016045Y006573D02*
X016455Y006573D01*
X016455Y006415D02*
X015886Y006415D01*
X015962Y006459D02*
X015962Y006459D01*
X015962Y006459D01*
X015676Y006293D02*
X015676Y006293D01*
X015347Y006259D02*
X015347Y006259D01*
X014973Y006415D02*
X011862Y006415D01*
X012021Y006573D02*
X014797Y006573D01*
X014786Y006582D02*
X014786Y006582D01*
X014720Y006732D02*
X012179Y006732D01*
X012338Y006890D02*
X014652Y006890D01*
X014652Y007049D02*
X012496Y007049D01*
X012655Y007207D02*
X014652Y007207D01*
X014719Y007366D02*
X012813Y007366D01*
X012972Y007524D02*
X014793Y007524D01*
X014786Y007518D02*
X014786Y007518D01*
X014970Y007683D02*
X013130Y007683D01*
X012712Y008000D02*
X012497Y008000D01*
X012553Y007841D02*
X012339Y007841D01*
X012395Y007683D02*
X012180Y007683D01*
X012236Y007524D02*
X012022Y007524D01*
X012078Y007366D02*
X011863Y007366D01*
X011919Y007207D02*
X011705Y007207D01*
X011761Y007049D02*
X011546Y007049D01*
X011602Y006890D02*
X011388Y006890D01*
X011444Y006732D02*
X011229Y006732D01*
X011285Y006573D02*
X011071Y006573D01*
X011127Y006415D02*
X010912Y006415D01*
X010968Y006256D02*
X010754Y006256D01*
X010810Y006098D02*
X010595Y006098D01*
X010651Y005939D02*
X010437Y005939D01*
X010493Y005781D02*
X010278Y005781D01*
X010334Y005622D02*
X010120Y005622D01*
X010176Y005464D02*
X009961Y005464D01*
X010017Y005305D02*
X009803Y005305D01*
X009859Y005147D02*
X009644Y005147D01*
X009700Y004988D02*
X009486Y004988D01*
X009542Y004830D02*
X009327Y004830D01*
X009383Y004671D02*
X009169Y004671D01*
X009245Y004513D02*
X009010Y004513D01*
X008852Y004354D02*
X009220Y004354D01*
X009220Y004196D02*
X008049Y004196D01*
X007890Y004037D02*
X009220Y004037D01*
X009220Y003879D02*
X007972Y003879D01*
X007877Y003974D02*
X008155Y003696D01*
X008155Y003517D01*
X007698Y003517D01*
X007662Y003517D01*
X007662Y003974D01*
X007483Y003974D01*
X007205Y003696D01*
X007205Y003517D01*
X007662Y003517D01*
X007662Y003480D01*
X007698Y003480D01*
X007698Y003024D01*
X007877Y003024D01*
X008155Y003302D01*
X008155Y003480D01*
X007698Y003480D01*
X007698Y003517D01*
X007698Y003974D01*
X007877Y003974D01*
X007698Y003879D02*
X007662Y003879D01*
X007662Y003720D02*
X007698Y003720D01*
X007698Y003562D02*
X007662Y003562D01*
X007662Y003480D02*
X007205Y003480D01*
X007205Y003302D01*
X007483Y003024D01*
X007662Y003024D01*
X007662Y003480D01*
X007662Y003403D02*
X007698Y003403D01*
X007698Y003245D02*
X007662Y003245D01*
X007662Y003086D02*
X007698Y003086D01*
X007939Y003086D02*
X008998Y003086D01*
X008840Y002928D02*
X007120Y002928D01*
X006962Y003086D02*
X007421Y003086D01*
X007262Y003245D02*
X007098Y003245D01*
X007155Y003403D02*
X007205Y003403D01*
X007205Y003562D02*
X007155Y003562D01*
X007131Y003720D02*
X007229Y003720D01*
X007388Y003879D02*
X006972Y003879D01*
X006890Y004037D02*
X007470Y004037D01*
X007311Y004196D02*
X007049Y004196D01*
X007155Y004354D02*
X007205Y004354D01*
X007205Y004513D02*
X007155Y004513D01*
X006680Y004500D02*
X007180Y005000D01*
X008380Y005000D01*
X012180Y008800D01*
X012180Y010926D01*
X012655Y010853D02*
X013205Y010853D01*
X013205Y011011D02*
X012655Y011011D01*
X012655Y011170D02*
X013205Y011170D01*
X013220Y011328D02*
X012640Y011328D01*
X012655Y011487D02*
X013205Y011487D01*
X013205Y011645D02*
X012655Y011645D01*
X012655Y011804D02*
X013205Y011804D01*
X013205Y011962D02*
X012655Y011962D01*
X012180Y011674D02*
X012154Y011700D01*
X008530Y011700D01*
X008180Y012050D01*
X008180Y013144D01*
X007920Y012596D02*
X006602Y012596D01*
X006725Y012438D02*
X007920Y012438D01*
X007920Y012279D02*
X006740Y012279D01*
X006740Y012121D02*
X007920Y012121D01*
X007935Y011962D02*
X006952Y011962D01*
X006985Y011804D02*
X008059Y011804D01*
X008217Y011645D02*
X007259Y011645D01*
X007418Y011487D02*
X008376Y011487D01*
X008636Y011962D02*
X011705Y011962D01*
X011720Y011328D02*
X007480Y011328D01*
X007480Y011170D02*
X011705Y011170D01*
X011705Y011011D02*
X010087Y011011D01*
X010190Y010853D02*
X011705Y010853D01*
X011705Y010694D02*
X010190Y010694D01*
X010190Y010536D02*
X011765Y010536D01*
X011920Y010377D02*
X010190Y010377D01*
X010190Y010219D02*
X011920Y010219D01*
X011920Y010060D02*
X010190Y010060D01*
X010190Y009902D02*
X011920Y009902D01*
X011920Y009743D02*
X010190Y009743D01*
X010190Y009585D02*
X011920Y009585D01*
X011920Y009426D02*
X010190Y009426D01*
X010190Y009268D02*
X011920Y009268D01*
X011920Y009109D02*
X010190Y009109D01*
X010190Y008951D02*
X011920Y008951D01*
X011804Y008792D02*
X010190Y008792D01*
X010190Y008634D02*
X011646Y008634D01*
X011487Y008475D02*
X010180Y008475D01*
X010046Y008317D02*
X011329Y008317D01*
X011170Y008158D02*
X007230Y008158D01*
X007230Y008000D02*
X011012Y008000D01*
X010853Y007841D02*
X007230Y007841D01*
X007230Y007683D02*
X010695Y007683D01*
X010536Y007524D02*
X007230Y007524D01*
X007230Y007366D02*
X010378Y007366D01*
X010219Y007207D02*
X007230Y007207D01*
X007230Y007049D02*
X010061Y007049D01*
X009902Y006890D02*
X007230Y006890D01*
X007230Y006732D02*
X009744Y006732D01*
X009585Y006573D02*
X007230Y006573D01*
X007199Y006415D02*
X009427Y006415D01*
X009268Y006256D02*
X007060Y006256D01*
X006980Y006098D02*
X009110Y006098D01*
X008951Y005939D02*
X007912Y005939D01*
X008070Y005781D02*
X008793Y005781D01*
X008634Y005622D02*
X008155Y005622D01*
X008155Y005464D02*
X008476Y005464D01*
X008317Y005305D02*
X008155Y005305D01*
X008577Y004830D02*
X008592Y004830D01*
X008736Y004988D02*
X008750Y004988D01*
X008894Y005147D02*
X008909Y005147D01*
X009053Y005305D02*
X009067Y005305D01*
X009211Y005464D02*
X009226Y005464D01*
X009370Y005622D02*
X009384Y005622D01*
X009528Y005781D02*
X009543Y005781D01*
X009687Y005939D02*
X009701Y005939D01*
X009845Y006098D02*
X009860Y006098D01*
X010004Y006256D02*
X010018Y006256D01*
X010162Y006415D02*
X010177Y006415D01*
X010321Y006573D02*
X010335Y006573D01*
X010479Y006732D02*
X010494Y006732D01*
X010638Y006890D02*
X010652Y006890D01*
X010796Y007049D02*
X010811Y007049D01*
X010955Y007207D02*
X010969Y007207D01*
X011113Y007366D02*
X011128Y007366D01*
X011272Y007524D02*
X011286Y007524D01*
X011430Y007683D02*
X011445Y007683D01*
X011589Y007841D02*
X011603Y007841D01*
X011747Y008000D02*
X011762Y008000D01*
X011906Y008158D02*
X011920Y008158D01*
X012064Y008317D02*
X012079Y008317D01*
X012223Y008475D02*
X012237Y008475D01*
X012381Y008634D02*
X012396Y008634D01*
X012440Y008792D02*
X012554Y008792D01*
X012440Y008951D02*
X012713Y008951D01*
X012871Y009109D02*
X012440Y009109D01*
X012440Y009268D02*
X013030Y009268D01*
X013188Y009426D02*
X012440Y009426D01*
X012440Y009585D02*
X013347Y009585D01*
X013420Y009743D02*
X012440Y009743D01*
X012440Y009902D02*
X013420Y009902D01*
X013420Y010060D02*
X012440Y010060D01*
X012440Y010219D02*
X013420Y010219D01*
X013420Y010377D02*
X012440Y010377D01*
X012595Y010536D02*
X013265Y010536D01*
X013205Y010694D02*
X012655Y010694D01*
X013680Y010926D02*
X013680Y009550D01*
X008629Y004499D01*
X007680Y004499D01*
X008131Y003720D02*
X009220Y003720D01*
X009220Y003562D02*
X008155Y003562D01*
X008155Y003403D02*
X009220Y003403D01*
X009157Y003245D02*
X008098Y003245D01*
X008523Y002611D02*
X007437Y002611D01*
X007279Y002769D02*
X008681Y002769D01*
X008630Y002350D02*
X009480Y003200D01*
X009480Y004400D01*
X015180Y010100D01*
X015180Y010926D01*
X014705Y010853D02*
X014155Y010853D01*
X014155Y011011D02*
X014705Y011011D01*
X014705Y011170D02*
X014155Y011170D01*
X014140Y011328D02*
X014720Y011328D01*
X014705Y011487D02*
X014155Y011487D01*
X014155Y011645D02*
X014705Y011645D01*
X014705Y011804D02*
X014155Y011804D01*
X014155Y011962D02*
X014705Y011962D01*
X014742Y012121D02*
X013940Y012121D01*
X013940Y012279D02*
X014583Y012279D01*
X014425Y012438D02*
X013904Y012438D01*
X013752Y012596D02*
X014266Y012596D01*
X014108Y012755D02*
X013593Y012755D01*
X013430Y012550D02*
X013680Y012300D01*
X013680Y011674D01*
X013420Y012121D02*
X008477Y012121D01*
X008440Y012279D02*
X013333Y012279D01*
X013430Y012550D02*
X011430Y012550D01*
X011180Y012800D01*
X011180Y013144D01*
X011016Y012596D02*
X008440Y012596D01*
X008440Y012438D02*
X011175Y012438D01*
X010685Y012755D02*
X008675Y012755D01*
X008675Y012913D02*
X010685Y012913D01*
X010685Y013072D02*
X008675Y013072D01*
X008675Y013230D02*
X010685Y013230D01*
X010685Y013389D02*
X008675Y013389D01*
X008683Y013547D02*
X010677Y013547D01*
X010553Y013706D02*
X008807Y013706D01*
X008873Y013864D02*
X010487Y013864D01*
X010469Y014023D02*
X008891Y014023D01*
X008891Y014181D02*
X010469Y014181D01*
X010530Y014340D02*
X008830Y014340D01*
X008738Y014498D02*
X010622Y014498D01*
X010685Y014657D02*
X008675Y014657D01*
X008675Y014815D02*
X010685Y014815D01*
X010685Y015132D02*
X008675Y015132D01*
X008675Y015033D02*
X008675Y015294D01*
X008663Y015340D01*
X008639Y015381D01*
X008605Y015415D01*
X008564Y015438D01*
X008519Y015450D01*
X008257Y015450D01*
X008257Y015033D01*
X008675Y015033D01*
X008675Y015291D02*
X010685Y015291D01*
X010836Y015449D02*
X008524Y015449D01*
X008257Y015449D02*
X008103Y015449D01*
X008103Y015291D02*
X008257Y015291D01*
X008257Y015132D02*
X008103Y015132D01*
X008103Y014974D02*
X005675Y014974D01*
X005440Y015608D02*
X011755Y015608D01*
X011596Y015766D02*
X005514Y015766D01*
X005306Y016559D02*
X012803Y016559D01*
X012919Y016717D02*
X005465Y016717D01*
X005623Y016876D02*
X012930Y016876D01*
X013278Y016404D02*
X013278Y015404D01*
X013589Y015766D02*
X013968Y015766D01*
X014082Y015880D02*
X013803Y015601D01*
X013803Y015207D01*
X014082Y014929D01*
X014475Y014929D01*
X014754Y015207D01*
X014754Y015601D01*
X014475Y015880D01*
X014082Y015880D01*
X014082Y015929D02*
X014475Y015929D01*
X014754Y016207D01*
X014754Y016601D01*
X014475Y016880D01*
X014082Y016880D01*
X013803Y016601D01*
X013803Y016207D01*
X014082Y015929D01*
X013928Y016083D02*
X013629Y016083D01*
X013538Y015925D02*
X015018Y015925D01*
X014968Y015766D02*
X014589Y015766D01*
X014747Y015608D02*
X014809Y015608D01*
X014803Y015449D02*
X014754Y015449D01*
X014754Y015291D02*
X014803Y015291D01*
X014879Y015132D02*
X014678Y015132D01*
X014520Y014974D02*
X015018Y014974D01*
X015278Y015404D02*
X015278Y014174D01*
X015330Y014174D01*
X015282Y013230D02*
X015378Y013230D01*
X015378Y013072D02*
X015282Y013072D01*
X015776Y013072D02*
X016455Y013072D01*
X016455Y013230D02*
X015805Y013230D01*
X015180Y012050D02*
X013680Y013550D01*
X013632Y013230D02*
X011675Y013230D01*
X011675Y013072D02*
X013791Y013072D01*
X013949Y012913D02*
X011675Y012913D01*
X011675Y013389D02*
X012724Y013389D01*
X012565Y013547D02*
X011683Y013547D01*
X011807Y013706D02*
X012438Y013706D01*
X012420Y013864D02*
X011873Y013864D01*
X011891Y014023D02*
X012420Y014023D01*
X012420Y014181D02*
X011891Y014181D01*
X011830Y014340D02*
X012420Y014340D01*
X012420Y014498D02*
X011738Y014498D01*
X011675Y014657D02*
X012420Y014657D01*
X012420Y014815D02*
X011675Y014815D01*
X011675Y015033D02*
X011675Y015294D01*
X011663Y015340D01*
X011639Y015381D01*
X011605Y015415D01*
X011564Y015438D01*
X011519Y015450D01*
X011257Y015450D01*
X011257Y015033D01*
X011675Y015033D01*
X011675Y015132D02*
X012230Y015132D01*
X012072Y015291D02*
X011675Y015291D01*
X011524Y015449D02*
X011913Y015449D01*
X012389Y014974D02*
X011257Y014974D01*
X011103Y014974D02*
X008257Y014974D01*
X007685Y012755D02*
X006443Y012755D01*
X006183Y012279D02*
X002155Y012279D01*
X002155Y012121D02*
X006220Y012121D01*
X005995Y011328D02*
X005865Y011328D01*
X005865Y011170D02*
X005995Y011170D01*
X006054Y011011D02*
X005806Y011011D01*
X005330Y010694D02*
X006670Y010694D01*
X006670Y010536D02*
X005330Y010536D01*
X005330Y010420D02*
X005330Y010196D01*
X005318Y010150D01*
X005294Y010109D01*
X005260Y010076D01*
X005219Y010052D01*
X005174Y010040D01*
X004750Y010040D01*
X004750Y010420D01*
X005330Y010420D01*
X005330Y010377D02*
X006581Y010377D01*
X006537Y010219D02*
X005330Y010219D01*
X005233Y010060D02*
X006537Y010060D01*
X006537Y009902D02*
X005293Y009902D01*
X004750Y010060D02*
X004670Y010060D01*
X004670Y010219D02*
X004750Y010219D01*
X004750Y010377D02*
X004670Y010377D01*
X004670Y010536D02*
X004750Y010536D01*
X004750Y010694D02*
X004670Y010694D01*
X004670Y010853D02*
X004750Y010853D01*
X004935Y011011D02*
X001940Y011011D01*
X001940Y010853D02*
X004174Y010853D01*
X004090Y010694D02*
X001940Y010694D01*
X001940Y010536D02*
X004090Y010536D01*
X004090Y010377D02*
X001940Y010377D01*
X001940Y010219D02*
X002214Y010219D01*
X002215Y010219D02*
X002181Y010185D01*
X002157Y010144D01*
X002145Y010099D01*
X002145Y009837D01*
X002603Y009837D01*
X002603Y010255D01*
X002301Y010255D01*
X002256Y010243D01*
X002215Y010219D01*
X002145Y010060D02*
X001940Y010060D01*
X001940Y009902D02*
X002145Y009902D01*
X002145Y009682D02*
X002145Y009421D01*
X002157Y009375D01*
X002181Y009334D01*
X002215Y009301D01*
X002256Y009277D01*
X002301Y009265D01*
X002603Y009265D01*
X002603Y009682D01*
X002757Y009682D01*
X002757Y009265D01*
X003059Y009265D01*
X003104Y009277D01*
X003145Y009301D01*
X003179Y009334D01*
X003203Y009375D01*
X003215Y009421D01*
X003215Y009682D01*
X002757Y009682D01*
X002757Y009837D01*
X002603Y009837D01*
X002603Y009682D01*
X002145Y009682D01*
X002145Y009585D02*
X001940Y009585D01*
X001940Y009743D02*
X002603Y009743D01*
X002757Y009743D02*
X004090Y009743D01*
X004090Y009585D02*
X003215Y009585D01*
X003215Y009426D02*
X004090Y009426D01*
X004090Y009268D02*
X003068Y009268D01*
X003136Y009109D02*
X006537Y009109D01*
X006537Y008951D02*
X005330Y008951D01*
X005330Y008792D02*
X006537Y008792D01*
X006630Y008634D02*
X005330Y008634D01*
X005330Y008475D02*
X006630Y008475D01*
X006630Y008317D02*
X005321Y008317D01*
X004727Y007683D02*
X006630Y007683D01*
X006630Y007841D02*
X002980Y007841D01*
X002980Y007683D02*
X003133Y007683D01*
X002980Y008000D02*
X006630Y008000D01*
X006630Y008158D02*
X003122Y008158D01*
X003215Y008317D02*
X004099Y008317D01*
X004090Y008951D02*
X003215Y008951D01*
X002757Y009268D02*
X002603Y009268D01*
X002603Y009426D02*
X002757Y009426D01*
X002757Y009585D02*
X002603Y009585D01*
X002757Y009837D02*
X003215Y009837D01*
X003215Y010099D01*
X003203Y010144D01*
X003179Y010185D01*
X003145Y010219D01*
X003104Y010243D01*
X003059Y010255D01*
X002757Y010255D01*
X002757Y009837D01*
X002757Y009902D02*
X002603Y009902D01*
X002603Y010060D02*
X002757Y010060D01*
X002757Y010219D02*
X002603Y010219D01*
X003146Y010219D02*
X004090Y010219D01*
X004187Y010060D02*
X003215Y010060D01*
X003215Y009902D02*
X004127Y009902D01*
X004875Y011170D02*
X001940Y011170D01*
X001940Y011328D02*
X004875Y011328D01*
X004685Y012755D02*
X002155Y012755D01*
X002155Y012913D02*
X004685Y012913D01*
X002986Y014974D02*
X002166Y014974D01*
X002112Y014844D02*
X001886Y014618D01*
X001590Y014495D01*
X001270Y014495D01*
X000974Y014618D01*
X000748Y014844D01*
X000625Y015140D01*
X000625Y015460D01*
X000748Y015756D01*
X000974Y015982D01*
X001270Y016105D01*
X001590Y016105D01*
X001886Y015982D01*
X002112Y015756D01*
X002235Y015460D01*
X002235Y015140D01*
X002112Y014844D01*
X002083Y014815D02*
X002827Y014815D01*
X002669Y014657D02*
X001925Y014657D01*
X001597Y014498D02*
X002510Y014498D01*
X002352Y014340D02*
X000440Y014340D01*
X000440Y014498D02*
X001263Y014498D01*
X000935Y014657D02*
X000440Y014657D01*
X000440Y014815D02*
X000777Y014815D01*
X000694Y014974D02*
X000440Y014974D01*
X000440Y015132D02*
X000628Y015132D01*
X000625Y015291D02*
X000440Y015291D01*
X000440Y015449D02*
X000625Y015449D01*
X000686Y015608D02*
X000440Y015608D01*
X000440Y015766D02*
X000758Y015766D01*
X000916Y015925D02*
X000440Y015925D01*
X000440Y016083D02*
X001217Y016083D01*
X001643Y016083D02*
X004095Y016083D01*
X003937Y015925D02*
X001944Y015925D01*
X002102Y015766D02*
X003778Y015766D01*
X003620Y015608D02*
X002174Y015608D01*
X002235Y015449D02*
X003461Y015449D01*
X003303Y015291D02*
X002235Y015291D01*
X002232Y015132D02*
X003144Y015132D01*
X002193Y014181D02*
X000440Y014181D01*
X000440Y014023D02*
X002035Y014023D01*
X001876Y013864D02*
X000440Y013864D01*
X000440Y013706D02*
X001718Y013706D01*
X001559Y013547D02*
X000440Y013547D01*
X000440Y013389D02*
X001435Y013389D01*
X001680Y013300D02*
X007180Y018800D01*
X008180Y018800D01*
X008566Y019253D02*
X009294Y019253D01*
X009380Y019412D02*
X008480Y019412D01*
X008480Y019570D02*
X009380Y019570D01*
X009380Y019729D02*
X008480Y019729D01*
X008480Y019887D02*
X009380Y019887D01*
X009380Y020046D02*
X008480Y020046D01*
X008480Y020204D02*
X009380Y020204D01*
X009380Y020363D02*
X008480Y020363D01*
X008480Y020521D02*
X009380Y020521D01*
X009380Y020680D02*
X008480Y020680D01*
X008480Y020838D02*
X009380Y020838D01*
X009380Y020997D02*
X008480Y020997D01*
X008480Y021155D02*
X009380Y021155D01*
X009327Y021314D02*
X008533Y021314D01*
X008686Y021472D02*
X009174Y021472D01*
X009108Y021631D02*
X008752Y021631D01*
X008773Y021789D02*
X009087Y021789D01*
X009099Y021948D02*
X008761Y021948D01*
X008696Y022106D02*
X009164Y022106D01*
X009305Y022265D02*
X008555Y022265D01*
X007805Y022265D02*
X000440Y022265D01*
X000440Y022106D02*
X007664Y022106D01*
X007599Y021948D02*
X000440Y021948D01*
X000440Y021789D02*
X007587Y021789D01*
X007608Y021631D02*
X000440Y021631D01*
X000440Y021472D02*
X007674Y021472D01*
X007827Y021314D02*
X000440Y021314D01*
X000440Y021155D02*
X007880Y021155D01*
X007880Y020997D02*
X000440Y020997D01*
X000440Y020838D02*
X007880Y020838D01*
X007880Y020680D02*
X000440Y020680D01*
X000440Y020521D02*
X007880Y020521D01*
X007880Y020363D02*
X000440Y020363D01*
X000440Y020204D02*
X007880Y020204D01*
X007880Y020046D02*
X000440Y020046D01*
X000440Y019887D02*
X007880Y019887D01*
X007880Y019729D02*
X000440Y019729D01*
X000440Y019570D02*
X007880Y019570D01*
X007880Y019412D02*
X000440Y019412D01*
X000440Y019253D02*
X007794Y019253D01*
X007660Y019095D02*
X000440Y019095D01*
X000440Y018936D02*
X006948Y018936D01*
X006960Y018947D02*
X006960Y018947D01*
X006790Y018778D02*
X000440Y018778D01*
X000440Y018619D02*
X006631Y018619D01*
X006473Y018461D02*
X000440Y018461D01*
X000440Y018302D02*
X003476Y018302D01*
X003597Y018341D02*
X003282Y018239D01*
X003036Y018018D01*
X002902Y017715D01*
X002902Y017385D01*
X003036Y017082D01*
X003036Y017082D01*
X003036Y017082D01*
X003282Y016861D01*
X003282Y016861D01*
X003597Y016759D01*
X003926Y016793D01*
X004212Y016959D01*
X004407Y017226D01*
X004407Y017226D01*
X004476Y017550D01*
X004407Y017874D01*
X004212Y018141D01*
X003926Y018307D01*
X003597Y018341D01*
X003597Y018341D01*
X003926Y018307D02*
X003926Y018307D01*
X003934Y018302D02*
X006314Y018302D01*
X006156Y018144D02*
X004208Y018144D01*
X004212Y018141D02*
X004212Y018141D01*
X004212Y018141D01*
X004326Y017985D02*
X005997Y017985D01*
X005839Y017827D02*
X004417Y017827D01*
X004407Y017874D02*
X004407Y017874D01*
X004450Y017668D02*
X005680Y017668D01*
X005522Y017510D02*
X004467Y017510D01*
X004433Y017351D02*
X005363Y017351D01*
X005205Y017193D02*
X004382Y017193D01*
X004267Y017034D02*
X005046Y017034D01*
X004888Y016876D02*
X004068Y016876D01*
X003926Y016793D02*
X003926Y016793D01*
X004212Y016959D02*
X004212Y016959D01*
X004212Y016959D01*
X004412Y016400D02*
X000440Y016400D01*
X000440Y016242D02*
X004254Y016242D01*
X004571Y016559D02*
X000440Y016559D01*
X000440Y016717D02*
X004729Y016717D01*
X003597Y016759D02*
X003597Y016759D01*
X003266Y016876D02*
X000440Y016876D01*
X000440Y017034D02*
X003090Y017034D01*
X002987Y017193D02*
X000440Y017193D01*
X000440Y017351D02*
X002917Y017351D01*
X002902Y017510D02*
X000440Y017510D01*
X000440Y017668D02*
X002902Y017668D01*
X002951Y017827D02*
X000440Y017827D01*
X000440Y017985D02*
X003022Y017985D01*
X003036Y018018D02*
X003036Y018018D01*
X003176Y018144D02*
X000440Y018144D01*
X003282Y018239D02*
X003282Y018239D01*
X005782Y017034D02*
X009538Y017034D01*
X009363Y017193D02*
X005940Y017193D01*
X006099Y017351D02*
X009205Y017351D01*
X009046Y017510D02*
X006257Y017510D01*
X006416Y017668D02*
X008888Y017668D01*
X008729Y017827D02*
X006574Y017827D01*
X006733Y017985D02*
X008571Y017985D01*
X008412Y018144D02*
X006891Y018144D01*
X007050Y018302D02*
X007839Y018302D01*
X007680Y018461D02*
X007208Y018461D01*
X008785Y018619D02*
X009113Y018619D01*
X009087Y018778D02*
X008773Y018778D01*
X008766Y018936D02*
X009094Y018936D01*
X009160Y019095D02*
X008700Y019095D01*
X008944Y018461D02*
X009180Y018461D01*
X009102Y018302D02*
X009339Y018302D01*
X009261Y018144D02*
X014162Y018144D01*
X014004Y018302D02*
X010021Y018302D01*
X010180Y018461D02*
X013845Y018461D01*
X014321Y017985D02*
X009419Y017985D01*
X009578Y017827D02*
X014479Y017827D01*
X014638Y017668D02*
X009736Y017668D01*
X011103Y015449D02*
X011257Y015449D01*
X011257Y015291D02*
X011103Y015291D01*
X011103Y015132D02*
X011257Y015132D01*
X013145Y017510D02*
X014796Y017510D01*
X014955Y017351D02*
X013303Y017351D01*
X013462Y017193D02*
X014978Y017193D01*
X014978Y017034D02*
X013569Y017034D01*
X013578Y016876D02*
X014077Y016876D01*
X013919Y016717D02*
X013683Y016717D01*
X013754Y016559D02*
X013803Y016559D01*
X013803Y016400D02*
X013754Y016400D01*
X013754Y016242D02*
X013803Y016242D01*
X013809Y015608D02*
X013747Y015608D01*
X013754Y015449D02*
X013803Y015449D01*
X013803Y015291D02*
X013754Y015291D01*
X013678Y015132D02*
X013879Y015132D01*
X014037Y014974D02*
X013520Y014974D01*
X014629Y016083D02*
X014928Y016083D01*
X014803Y016242D02*
X014754Y016242D01*
X014754Y016400D02*
X014803Y016400D01*
X014803Y016559D02*
X014754Y016559D01*
X014638Y016717D02*
X014919Y016717D01*
X014978Y016876D02*
X014479Y016876D01*
X015278Y016404D02*
X015278Y015404D01*
X015180Y012050D02*
X015180Y011674D01*
X014705Y010694D02*
X014155Y010694D01*
X014095Y010536D02*
X014765Y010536D01*
X014920Y010377D02*
X013940Y010377D01*
X013940Y010219D02*
X014920Y010219D01*
X014772Y010060D02*
X013940Y010060D01*
X013940Y009902D02*
X014614Y009902D01*
X014455Y009743D02*
X013940Y009743D01*
X013940Y009585D02*
X014297Y009585D01*
X014138Y009426D02*
X013910Y009426D01*
X013980Y009268D02*
X013765Y009268D01*
X013821Y009109D02*
X013607Y009109D01*
X013663Y008951D02*
X013448Y008951D01*
X013504Y008792D02*
X013290Y008792D01*
X013346Y008634D02*
X013131Y008634D01*
X013187Y008475D02*
X012973Y008475D01*
X013029Y008317D02*
X012814Y008317D01*
X012870Y008158D02*
X012656Y008158D01*
X011704Y006256D02*
X016455Y006256D01*
X016455Y006098D02*
X011545Y006098D01*
X011387Y005939D02*
X016455Y005939D01*
X016455Y005781D02*
X011228Y005781D01*
X011070Y005622D02*
X016455Y005622D01*
X016455Y005464D02*
X010911Y005464D01*
X010753Y005305D02*
X016455Y005305D01*
X016455Y005147D02*
X010594Y005147D01*
X010436Y004988D02*
X016455Y004988D01*
X016455Y004830D02*
X010277Y004830D01*
X010119Y004671D02*
X016455Y004671D01*
X016455Y004513D02*
X009960Y004513D01*
X009802Y004354D02*
X016455Y004354D01*
X016455Y004196D02*
X009740Y004196D01*
X009740Y004037D02*
X016455Y004037D01*
X016455Y003879D02*
X009740Y003879D01*
X009740Y003720D02*
X016455Y003720D01*
X016455Y003562D02*
X009740Y003562D01*
X009740Y003403D02*
X016455Y003403D01*
X016455Y003245D02*
X009740Y003245D01*
X009714Y003086D02*
X016455Y003086D01*
X016455Y002928D02*
X009575Y002928D01*
X009417Y002769D02*
X016455Y002769D01*
X016455Y002611D02*
X009258Y002611D01*
X009100Y002452D02*
X016455Y002452D01*
X016455Y002294D02*
X008941Y002294D01*
X008783Y002135D02*
X016455Y002135D01*
X016455Y001977D02*
X000440Y001977D01*
X000440Y002135D02*
X002391Y002135D01*
X002362Y002147D02*
X002493Y002093D01*
X002635Y002093D01*
X002766Y002147D01*
X002867Y002248D01*
X002921Y002379D01*
X002921Y002521D01*
X002867Y002652D01*
X002766Y002753D01*
X002635Y002807D01*
X002493Y002807D01*
X002362Y002753D01*
X002261Y002652D01*
X002207Y002521D01*
X002207Y002379D01*
X002261Y002248D01*
X002362Y002147D01*
X002242Y002294D02*
X000440Y002294D01*
X000440Y002452D02*
X002207Y002452D01*
X002244Y002611D02*
X000440Y002611D01*
X000440Y002769D02*
X001235Y002769D01*
X001215Y002774D02*
X001261Y002762D01*
X001598Y002762D01*
X001598Y003512D01*
X001104Y003512D01*
X001104Y002918D01*
X001117Y002873D01*
X001140Y002832D01*
X001174Y002798D01*
X001215Y002774D01*
X001104Y002928D02*
X000440Y002928D01*
X000440Y003086D02*
X001104Y003086D01*
X001104Y003245D02*
X000440Y003245D01*
X000440Y003403D02*
X001104Y003403D01*
X001104Y003672D02*
X001104Y004265D01*
X001117Y004311D01*
X001140Y004352D01*
X001174Y004385D01*
X001215Y004409D01*
X001261Y004421D01*
X001598Y004421D01*
X001598Y003672D01*
X001758Y003672D01*
X001758Y004421D01*
X002095Y004421D01*
X002141Y004409D01*
X002182Y004385D01*
X002216Y004352D01*
X002239Y004311D01*
X002252Y004265D01*
X002252Y003672D01*
X001758Y003672D01*
X001758Y003512D01*
X002252Y003512D01*
X002252Y002918D01*
X002239Y002873D01*
X002216Y002832D01*
X002182Y002798D01*
X002141Y002774D01*
X002095Y002762D01*
X001758Y002762D01*
X001758Y003512D01*
X001598Y003512D01*
X001598Y003672D01*
X001104Y003672D01*
X001104Y003720D02*
X000440Y003720D01*
X000440Y003562D02*
X001598Y003562D01*
X001598Y003720D02*
X001758Y003720D01*
X001758Y003562D02*
X002522Y003562D01*
X002522Y003720D02*
X002252Y003720D01*
X002252Y003879D02*
X002522Y003879D01*
X002522Y004037D02*
X002252Y004037D01*
X002252Y004196D02*
X002522Y004196D01*
X002540Y004354D02*
X002214Y004354D01*
X002540Y004513D02*
X000440Y004513D01*
X000440Y004671D02*
X002540Y004671D01*
X002540Y004830D02*
X000440Y004830D01*
X000440Y004988D02*
X002540Y004988D01*
X002540Y005147D02*
X000440Y005147D01*
X000440Y005305D02*
X002540Y005305D01*
X002800Y005670D02*
X002930Y005800D01*
X002800Y005670D02*
X002800Y003631D01*
X002522Y003403D02*
X002252Y003403D01*
X002252Y003245D02*
X002522Y003245D01*
X002522Y003086D02*
X002252Y003086D01*
X002252Y002928D02*
X002540Y002928D01*
X002401Y002769D02*
X002121Y002769D01*
X001758Y002769D02*
X001598Y002769D01*
X001598Y002928D02*
X001758Y002928D01*
X001758Y003086D02*
X001598Y003086D01*
X001598Y003245D02*
X001758Y003245D01*
X001758Y003403D02*
X001598Y003403D01*
X001598Y003879D02*
X001758Y003879D01*
X001758Y004037D02*
X001598Y004037D01*
X001598Y004196D02*
X001758Y004196D01*
X001758Y004354D02*
X001598Y004354D01*
X001142Y004354D02*
X000440Y004354D01*
X000440Y004196D02*
X001104Y004196D01*
X001104Y004037D02*
X000440Y004037D01*
X000440Y003879D02*
X001104Y003879D01*
X001299Y005464D02*
X000440Y005464D01*
X000440Y005622D02*
X001194Y005622D01*
X001159Y005781D02*
X000440Y005781D01*
X000440Y005939D02*
X001178Y005939D01*
X001260Y006098D02*
X000440Y006098D01*
X000440Y006256D02*
X001494Y006256D01*
X001348Y006415D02*
X000440Y006415D01*
X000440Y006573D02*
X001214Y006573D01*
X001159Y006732D02*
X000440Y006732D01*
X000440Y006890D02*
X001159Y006890D01*
X001223Y007049D02*
X000440Y007049D01*
X000440Y007207D02*
X001375Y007207D01*
X002238Y008158D02*
X000440Y008158D01*
X000440Y008000D02*
X002380Y008000D01*
X002380Y007841D02*
X000440Y007841D01*
X000440Y007683D02*
X002380Y007683D01*
X002380Y007524D02*
X000440Y007524D01*
X000440Y007366D02*
X002440Y007366D01*
X002485Y007207D02*
X002599Y007207D01*
X002641Y006415D02*
X002512Y006415D01*
X002366Y006256D02*
X003206Y006256D01*
X003120Y005464D02*
X003060Y005464D01*
X003060Y005305D02*
X006205Y005305D01*
X006205Y005464D02*
X004740Y005464D01*
X004740Y005622D02*
X006205Y005622D01*
X006290Y005781D02*
X004740Y005781D01*
X004740Y005939D02*
X006380Y005939D01*
X006380Y006098D02*
X004740Y006098D01*
X004654Y006256D02*
X006380Y006256D01*
X006403Y006415D02*
X004604Y006415D01*
X004604Y006573D02*
X006529Y006573D01*
X006630Y006732D02*
X004604Y006732D01*
X004700Y006890D02*
X006630Y006890D01*
X006630Y007049D02*
X004740Y007049D01*
X004740Y007207D02*
X006630Y007207D01*
X006630Y007366D02*
X004740Y007366D01*
X004740Y007524D02*
X006630Y007524D01*
X006930Y008550D02*
X006930Y010800D01*
X009930Y010800D01*
X009930Y008550D01*
X006930Y008550D01*
X006930Y008634D02*
X009930Y008634D01*
X009930Y008792D02*
X006930Y008792D01*
X006930Y008951D02*
X009930Y008951D01*
X009930Y009109D02*
X006930Y009109D01*
X006930Y009268D02*
X009930Y009268D01*
X009930Y009426D02*
X006930Y009426D01*
X006930Y009585D02*
X009930Y009585D01*
X009930Y009743D02*
X006930Y009743D01*
X006930Y009902D02*
X009930Y009902D01*
X009930Y010060D02*
X006930Y010060D01*
X006930Y010219D02*
X009930Y010219D01*
X009930Y010377D02*
X006930Y010377D01*
X006930Y010536D02*
X009930Y010536D01*
X009930Y010694D02*
X006930Y010694D01*
X003954Y006256D02*
X003906Y006256D01*
X003060Y005147D02*
X006360Y005147D01*
X006339Y004830D02*
X003060Y004830D01*
X003060Y004988D02*
X006800Y004988D01*
X006680Y004500D02*
X006680Y004499D01*
X006311Y004196D02*
X005756Y004196D01*
X005756Y004265D02*
X005743Y004311D01*
X005720Y004352D01*
X005686Y004385D01*
X005645Y004409D01*
X005599Y004421D01*
X005262Y004421D01*
X005262Y003672D01*
X005102Y003672D01*
X005102Y004421D01*
X004765Y004421D01*
X004719Y004409D01*
X004678Y004385D01*
X004644Y004352D01*
X004621Y004311D01*
X004608Y004265D01*
X004608Y003672D01*
X005102Y003672D01*
X005102Y003512D01*
X004608Y003512D01*
X004608Y002918D01*
X004621Y002873D01*
X004644Y002832D01*
X004678Y002798D01*
X004719Y002774D01*
X004765Y002762D01*
X005102Y002762D01*
X005102Y003512D01*
X005262Y003512D01*
X005262Y003672D01*
X005756Y003672D01*
X005756Y004265D01*
X005718Y004354D02*
X006205Y004354D01*
X006205Y004513D02*
X003060Y004513D01*
X003060Y004671D02*
X006205Y004671D01*
X006470Y004037D02*
X005756Y004037D01*
X005756Y003879D02*
X006388Y003879D01*
X006229Y003720D02*
X005756Y003720D01*
X005756Y003512D02*
X005262Y003512D01*
X005262Y002762D01*
X005599Y002762D01*
X005645Y002774D01*
X005686Y002798D01*
X005720Y002832D01*
X005743Y002873D01*
X005756Y002918D01*
X005756Y003512D01*
X005756Y003403D02*
X006205Y003403D01*
X006205Y003562D02*
X005262Y003562D01*
X005262Y003720D02*
X005102Y003720D01*
X005102Y003562D02*
X004338Y003562D01*
X004338Y003720D02*
X004608Y003720D01*
X004608Y003879D02*
X004338Y003879D01*
X004338Y004037D02*
X004608Y004037D01*
X004608Y004196D02*
X004338Y004196D01*
X004300Y004354D02*
X004646Y004354D01*
X005102Y004354D02*
X005262Y004354D01*
X005262Y004196D02*
X005102Y004196D01*
X005102Y004037D02*
X005262Y004037D01*
X005262Y003879D02*
X005102Y003879D01*
X005102Y003403D02*
X005262Y003403D01*
X005262Y003245D02*
X005102Y003245D01*
X005102Y003086D02*
X005262Y003086D01*
X005262Y002928D02*
X005102Y002928D01*
X005102Y002769D02*
X005262Y002769D01*
X005625Y002769D02*
X006543Y002769D01*
X006429Y002928D02*
X005756Y002928D01*
X005756Y003086D02*
X006420Y003086D01*
X006262Y003245D02*
X005756Y003245D01*
X006680Y003000D02*
X007330Y002350D01*
X008630Y002350D01*
X007177Y002135D02*
X004469Y002135D01*
X004498Y002147D02*
X004599Y002248D01*
X004653Y002379D01*
X004653Y002521D01*
X004599Y002652D01*
X004498Y002753D01*
X004367Y002807D01*
X004225Y002807D01*
X004094Y002753D01*
X003993Y002652D01*
X003939Y002521D01*
X003939Y002379D01*
X003993Y002248D01*
X004094Y002147D01*
X004225Y002093D01*
X004367Y002093D01*
X004498Y002147D01*
X004618Y002294D02*
X007019Y002294D01*
X006860Y002452D02*
X004653Y002452D01*
X004616Y002611D02*
X006702Y002611D01*
X006680Y003000D02*
X006680Y003499D01*
X005747Y001818D02*
X016455Y001818D01*
X016455Y001660D02*
X005756Y001660D01*
X005756Y001501D02*
X016455Y001501D01*
X016455Y001343D02*
X005262Y001343D01*
X005262Y001501D02*
X005102Y001501D01*
X005102Y001343D02*
X001758Y001343D01*
X001758Y001501D02*
X001598Y001501D01*
X001598Y001343D02*
X000440Y001343D01*
X000440Y001501D02*
X001104Y001501D01*
X001104Y001660D02*
X000440Y001660D01*
X000440Y001818D02*
X001113Y001818D01*
X001104Y001184D02*
X000440Y001184D01*
X000440Y001026D02*
X001104Y001026D01*
X001104Y000867D02*
X000440Y000867D01*
X001598Y001660D02*
X001758Y001660D01*
X001758Y001818D02*
X001598Y001818D01*
X002243Y001818D02*
X004617Y001818D01*
X004608Y001660D02*
X002252Y001660D01*
X002252Y001501D02*
X004608Y001501D01*
X004608Y001184D02*
X002252Y001184D01*
X002252Y001026D02*
X004608Y001026D01*
X004608Y000867D02*
X002252Y000867D01*
X002737Y002135D02*
X004123Y002135D01*
X003974Y002294D02*
X002886Y002294D01*
X002921Y002452D02*
X003939Y002452D01*
X003976Y002611D02*
X002884Y002611D01*
X002727Y002769D02*
X004133Y002769D01*
X004060Y002928D02*
X004060Y002928D01*
X004060Y003086D02*
X004060Y003086D01*
X004060Y003245D02*
X004060Y003245D01*
X004060Y003403D02*
X004060Y003403D01*
X004060Y003562D02*
X004060Y003562D01*
X004060Y003720D02*
X004060Y003720D01*
X004060Y003879D02*
X004060Y003879D01*
X004060Y004037D02*
X004060Y004037D01*
X004060Y004196D02*
X004060Y004196D01*
X004060Y004354D02*
X004060Y004354D01*
X004338Y003403D02*
X004608Y003403D01*
X004608Y003245D02*
X004338Y003245D01*
X004338Y003086D02*
X004608Y003086D01*
X004608Y002928D02*
X004312Y002928D01*
X004459Y002769D02*
X004739Y002769D01*
X005102Y001818D02*
X005262Y001818D01*
X005262Y001660D02*
X005102Y001660D01*
X005756Y001184D02*
X016455Y001184D01*
X016455Y001026D02*
X005756Y001026D01*
X005756Y000867D02*
X016455Y000867D01*
X015032Y007739D02*
X015032Y007739D01*
X015676Y007807D02*
X015676Y007807D01*
X007448Y005939D02*
X006980Y005939D01*
X002680Y008640D02*
X001840Y008640D01*
X001680Y008800D01*
X001680Y012176D01*
X001205Y012121D02*
X000440Y012121D01*
X000440Y012279D02*
X001205Y012279D01*
X001205Y012438D02*
X000440Y012438D01*
X000440Y012596D02*
X001205Y012596D01*
X001205Y012755D02*
X000440Y012755D01*
X000440Y012913D02*
X001205Y012913D01*
X001205Y013072D02*
X000440Y013072D01*
X000440Y013230D02*
X001205Y013230D01*
X001680Y013300D02*
X001680Y012924D01*
X001205Y011962D02*
X000440Y011962D01*
X000440Y011804D02*
X001247Y011804D01*
X001420Y011645D02*
X000440Y011645D01*
X000440Y011487D02*
X001420Y011487D01*
X001420Y011328D02*
X000440Y011328D01*
X000440Y011170D02*
X001420Y011170D01*
X001420Y011011D02*
X000440Y011011D01*
X000440Y010853D02*
X001420Y010853D01*
X001420Y010694D02*
X000440Y010694D01*
X000440Y010536D02*
X001420Y010536D01*
X001420Y010377D02*
X000440Y010377D01*
X000440Y010219D02*
X001420Y010219D01*
X001420Y010060D02*
X000440Y010060D01*
X000440Y009902D02*
X001420Y009902D01*
X001420Y009743D02*
X000440Y009743D01*
X000440Y009585D02*
X001420Y009585D01*
X001420Y009426D02*
X000440Y009426D01*
X000440Y009268D02*
X001420Y009268D01*
X001420Y009109D02*
X000440Y009109D01*
X000440Y008951D02*
X001420Y008951D01*
X001420Y008792D02*
X000440Y008792D01*
X000440Y008634D02*
X001479Y008634D01*
X001637Y008475D02*
X000440Y008475D01*
X000440Y008317D02*
X002145Y008317D01*
X002145Y008951D02*
X001940Y008951D01*
X001940Y009109D02*
X002224Y009109D01*
X002292Y009268D02*
X001940Y009268D01*
X001940Y009426D02*
X002145Y009426D01*
D26*
X001430Y008050D03*
X003930Y011550D03*
X006680Y015050D03*
X009680Y015050D03*
X013680Y014300D03*
X008680Y006550D03*
X005930Y007550D03*
X005180Y005300D03*
X006430Y001550D03*
X003180Y022550D03*
X010930Y022550D03*
M02*
