%
M48
M72
T01C0.0236
T02C0.0354
T03C0.0394
T04C0.0551
T05C0.1063
T06C0.1250
%
T01
X5180Y5300
X5930Y7550
X8680Y6550
X6430Y1550
X1430Y8050
X3930Y11550
X6680Y15050
X9680Y15050
X13680Y14300
X10930Y22550
X3180Y22550
T02
X2564Y2450
X4296Y2450
T03
X6680Y3499
X6680Y4499
X6680Y5499
X7680Y5499
X7680Y4499
X7680Y3499
X1930Y5800
X1930Y6800
X13278Y15404
X13278Y16404
X14278Y16404
X14278Y15404
X15278Y15404
X15278Y16404
T04
X9680Y18800
X8180Y18800
X8180Y21800
X9680Y21800
T05
X8180Y14050
X5180Y14050
X11180Y14050
T06
X1430Y15300
M30
