G75*
G70*
%OFA0B0*%
%FSLAX24Y24*%
%IPPOS*%
%LPD*%
%AMOC8*
5,1,8,0,0,1.08239X$1,22.5*
%
%ADD10C,0.0070*%
%ADD11C,0.0080*%
%ADD12C,0.1290*%
%ADD13C,0.0867*%
%ADD14OC8,0.0631*%
%ADD15C,0.1103*%
%ADD16C,0.0394*%
%ADD17C,0.0631*%
D10*
X010599Y005012D02*
X010992Y005012D01*
X010992Y005110D02*
X010894Y005209D01*
X010697Y005209D01*
X010599Y005110D01*
X010599Y005012D01*
X010697Y004815D02*
X010894Y004815D01*
X010992Y004913D01*
X010992Y005110D01*
X011206Y005209D02*
X011502Y005209D01*
X011600Y005110D01*
X011600Y004913D01*
X011502Y004815D01*
X011206Y004815D01*
X011814Y004815D02*
X012109Y004815D01*
X012208Y004913D01*
X012109Y005012D01*
X011814Y005012D01*
X011814Y005110D02*
X011814Y004815D01*
X011814Y005110D02*
X011912Y005209D01*
X012109Y005209D01*
X012416Y005110D02*
X012613Y005110D01*
X012514Y005307D02*
X012416Y005406D01*
X012514Y005307D02*
X012514Y004815D01*
X012422Y004416D02*
X012422Y003825D01*
X012717Y003825D01*
X012815Y003923D01*
X012815Y004120D01*
X012717Y004219D01*
X012422Y004219D01*
X012419Y003426D02*
X012320Y003327D01*
X012320Y003229D01*
X012714Y002835D01*
X012320Y002835D01*
X012106Y002835D02*
X012008Y002835D01*
X012008Y002933D01*
X012106Y002933D01*
X012106Y002835D01*
X011803Y002933D02*
X011704Y002835D01*
X011507Y002835D01*
X011409Y002933D01*
X011409Y003032D01*
X011507Y003130D01*
X011803Y003130D01*
X011803Y002933D01*
X011803Y003130D02*
X011606Y003327D01*
X011409Y003426D01*
X011195Y003229D02*
X010998Y003426D01*
X010801Y003229D01*
X010801Y002835D01*
X010801Y003130D02*
X011195Y003130D01*
X011195Y003229D02*
X011195Y002835D01*
X012419Y003426D02*
X012616Y003426D01*
X012714Y003327D01*
X013322Y003825D02*
X013322Y004219D01*
X013322Y004022D02*
X013125Y004219D01*
X013027Y004219D01*
X013536Y004120D02*
X013536Y003825D01*
X013831Y003825D01*
X013930Y003923D01*
X013831Y004022D01*
X013536Y004022D01*
X013536Y004120D02*
X013634Y004219D01*
X013831Y004219D01*
X014144Y004120D02*
X014144Y003923D01*
X014242Y003825D01*
X014439Y003825D01*
X014537Y003923D01*
X014537Y004120D01*
X014439Y004219D01*
X014242Y004219D01*
X014144Y004120D01*
X014346Y004815D02*
X014346Y005110D01*
X014445Y005209D01*
X014740Y005209D01*
X014740Y004815D01*
X014948Y004815D02*
X015145Y004815D01*
X015047Y004815D02*
X015047Y005406D01*
X015145Y005406D02*
X014948Y005406D01*
X014948Y005805D02*
X014948Y006396D01*
X015145Y006396D02*
X014751Y006396D01*
X014537Y006598D02*
X014537Y007189D01*
X014242Y007189D01*
X014144Y007090D01*
X014144Y006893D01*
X014242Y006795D01*
X014537Y006795D01*
X014751Y006893D02*
X014751Y007287D01*
X014850Y007386D01*
X015047Y007386D01*
X015145Y007287D01*
X015145Y006893D01*
X015047Y006795D01*
X014850Y006795D01*
X014751Y006893D01*
X014439Y006199D02*
X014242Y006199D01*
X014144Y006100D01*
X014144Y005903D01*
X014242Y005805D01*
X014439Y005805D01*
X014537Y005903D01*
X014537Y006100D01*
X014439Y006199D01*
X013930Y006199D02*
X013930Y005608D01*
X013930Y005805D02*
X013634Y005805D01*
X013536Y005903D01*
X013536Y006100D01*
X013634Y006199D01*
X013930Y006199D01*
X013831Y006795D02*
X013634Y006795D01*
X013831Y006795D02*
X013930Y006893D01*
X013930Y007090D01*
X013831Y007189D01*
X013634Y007189D01*
X013536Y007090D01*
X013536Y006992D01*
X013930Y006992D01*
X013322Y006795D02*
X013322Y007189D01*
X013027Y007189D01*
X012928Y007090D01*
X012928Y006795D01*
X012714Y006795D02*
X012714Y007386D01*
X012419Y007386D01*
X012320Y007287D01*
X012320Y007090D01*
X012419Y006992D01*
X012714Y006992D01*
X012517Y006992D02*
X012320Y006795D01*
X012106Y006893D02*
X012008Y006795D01*
X011811Y006795D01*
X011713Y006893D01*
X011713Y007287D01*
X011811Y007386D01*
X012008Y007386D01*
X012106Y007287D01*
X012106Y006893D01*
X011915Y006396D02*
X011915Y005805D01*
X012211Y005805D01*
X012309Y005903D01*
X012309Y006100D01*
X012211Y006199D01*
X011915Y006199D01*
X011701Y006100D02*
X011603Y006199D01*
X011406Y006199D01*
X011308Y006100D01*
X011308Y006002D01*
X011701Y006002D01*
X011701Y006100D02*
X011701Y005903D01*
X011603Y005805D01*
X011406Y005805D01*
X011302Y006795D02*
X011105Y006992D01*
X011105Y007386D01*
X011499Y007386D02*
X011499Y006992D01*
X011302Y006795D01*
X012616Y006494D02*
X012616Y006396D01*
X012616Y006199D02*
X012616Y005805D01*
X012714Y005805D02*
X012517Y005805D01*
X012616Y006199D02*
X012714Y006199D01*
X012928Y006199D02*
X013223Y006199D01*
X013322Y006100D01*
X013223Y006002D01*
X013027Y006002D01*
X012928Y005903D01*
X013027Y005805D01*
X013322Y005805D01*
X013432Y005209D02*
X013333Y005110D01*
X013333Y005012D01*
X013727Y005012D01*
X013727Y005110D02*
X013629Y005209D01*
X013432Y005209D01*
X013727Y005110D02*
X013727Y004913D01*
X013629Y004815D01*
X013432Y004815D01*
X013119Y004815D02*
X013119Y005209D01*
X013119Y005012D02*
X012922Y005209D01*
X012824Y005209D01*
X013935Y005209D02*
X014132Y005209D01*
X014034Y005307D02*
X014034Y004913D01*
X013935Y004815D01*
X014751Y004317D02*
X014751Y004219D01*
X014850Y004120D01*
X015145Y004120D01*
X015145Y003825D02*
X014850Y003825D01*
X014751Y003923D01*
X014751Y004022D01*
X014850Y004120D01*
X014751Y004317D02*
X014850Y004416D01*
X015145Y004416D01*
X015145Y003825D01*
X015145Y003426D02*
X014850Y003426D01*
X014751Y003327D01*
X014751Y003130D01*
X014850Y003032D01*
X015145Y003032D01*
X014948Y003032D02*
X014751Y002835D01*
X014537Y002933D02*
X014537Y003130D01*
X014439Y003229D01*
X014242Y003229D01*
X014144Y003130D01*
X014144Y003032D01*
X014537Y003032D01*
X014537Y002933D02*
X014439Y002835D01*
X014242Y002835D01*
X013930Y003229D02*
X013733Y002835D01*
X013536Y003229D01*
X015145Y003426D02*
X015145Y002835D01*
D11*
X010293Y010990D02*
X010100Y010990D01*
X010003Y011087D01*
X010293Y010990D02*
X010390Y011087D01*
X010390Y011474D01*
X010293Y011570D01*
X010100Y011570D01*
X010003Y011474D01*
X009782Y011280D02*
X009782Y011087D01*
X009686Y010990D01*
X009492Y010990D01*
X009395Y011087D01*
X009395Y011280D01*
X009492Y011377D01*
X009686Y011377D01*
X009782Y011280D01*
X009175Y011377D02*
X009175Y010990D01*
X009175Y011377D02*
X008884Y011377D01*
X008788Y011280D01*
X008788Y010990D01*
X008567Y010990D02*
X008567Y011377D01*
X008277Y011377D01*
X008180Y011280D01*
X008180Y010990D01*
X007959Y011087D02*
X007959Y011280D01*
X007862Y011377D01*
X007669Y011377D01*
X007572Y011280D01*
X007572Y011183D01*
X007959Y011183D01*
X007959Y011087D02*
X007862Y010990D01*
X007669Y010990D01*
X007351Y011087D02*
X007255Y010990D01*
X006964Y010990D01*
X006647Y011087D02*
X006647Y011474D01*
X006744Y011377D02*
X006550Y011377D01*
X006647Y011087D02*
X006550Y010990D01*
X006964Y011377D02*
X007255Y011377D01*
X007351Y011280D01*
X007351Y011087D01*
X007351Y011980D02*
X007158Y011980D01*
X007255Y011980D02*
X007255Y012560D01*
X007351Y012560D01*
X007572Y012464D02*
X007572Y012270D01*
X007669Y012173D01*
X007959Y012173D01*
X007959Y011980D02*
X007959Y012560D01*
X007669Y012560D01*
X007572Y012464D01*
X006946Y012367D02*
X006946Y012077D01*
X006850Y011980D01*
X006559Y011980D01*
X006559Y012367D01*
X006339Y012270D02*
X006339Y012077D01*
X006242Y011980D01*
X005952Y011980D01*
X005952Y011883D02*
X005952Y012367D01*
X006242Y012367D01*
X006339Y012270D01*
X006145Y011787D02*
X006048Y011787D01*
X005952Y011883D01*
X008180Y012173D02*
X008567Y012173D01*
X008567Y012077D02*
X008567Y012270D01*
X008470Y012367D01*
X008277Y012367D01*
X008180Y012270D01*
X008180Y012173D01*
X008277Y011980D02*
X008470Y011980D01*
X008567Y012077D01*
X008788Y011980D02*
X008788Y012270D01*
X008884Y012367D01*
X008981Y012270D01*
X008981Y011980D01*
X009175Y011980D02*
X009175Y012367D01*
X009078Y012367D01*
X008981Y012270D01*
X009395Y012270D02*
X009395Y012077D01*
X009492Y011980D01*
X009686Y011980D01*
X009782Y012077D01*
X009782Y012270D01*
X009686Y012367D01*
X009492Y012367D01*
X009395Y012270D01*
X010003Y012270D02*
X010390Y012270D01*
X010390Y011980D02*
X010390Y012560D01*
X010003Y012560D02*
X010003Y011980D01*
X010077Y015640D02*
X010270Y015640D01*
X010367Y015737D01*
X010367Y015930D01*
X010270Y016027D01*
X010077Y016027D01*
X009980Y015930D01*
X009980Y015833D01*
X010367Y015833D01*
X010588Y015737D02*
X010588Y016027D01*
X010588Y015737D02*
X010684Y015640D01*
X010781Y015737D01*
X010878Y015640D01*
X010975Y015737D01*
X010975Y016027D01*
X011195Y015930D02*
X011195Y015737D01*
X011292Y015640D01*
X011486Y015640D01*
X011582Y015737D01*
X011582Y015930D01*
X011486Y016027D01*
X011292Y016027D01*
X011195Y015930D01*
X011803Y015930D02*
X011900Y015833D01*
X012190Y015833D01*
X012190Y015640D02*
X012190Y016220D01*
X011900Y016220D01*
X011803Y016124D01*
X011803Y015930D01*
X009759Y015833D02*
X009566Y016027D01*
X009469Y016027D01*
X009759Y016027D02*
X009759Y015640D01*
X007140Y015837D02*
X007043Y015740D01*
X006850Y015740D01*
X006753Y015837D01*
X006532Y015837D02*
X006436Y015740D01*
X006242Y015740D01*
X006145Y015837D01*
X006145Y016030D01*
X006242Y016127D01*
X006436Y016127D01*
X006532Y016030D01*
X006532Y015837D01*
X006753Y016224D02*
X006850Y016320D01*
X007043Y016320D01*
X007140Y016224D01*
X007140Y015837D01*
X007140Y016730D02*
X006753Y016730D01*
X006436Y016827D02*
X006339Y016730D01*
X006436Y016827D02*
X006436Y017214D01*
X006532Y017117D02*
X006339Y017117D01*
X006127Y017020D02*
X006030Y017117D01*
X005837Y017117D01*
X005740Y017020D01*
X005740Y016730D01*
X005519Y016827D02*
X005519Y017020D01*
X005423Y017117D01*
X005229Y017117D01*
X005132Y017020D01*
X005132Y016923D01*
X005519Y016923D01*
X005519Y016827D02*
X005423Y016730D01*
X005229Y016730D01*
X004912Y016730D02*
X004912Y017117D01*
X004912Y016923D02*
X004718Y017117D01*
X004621Y017117D01*
X004405Y017117D02*
X004115Y017117D01*
X004018Y017020D01*
X004018Y016730D01*
X003798Y016827D02*
X003798Y017020D01*
X003701Y017117D01*
X003507Y017117D01*
X003411Y017020D01*
X003411Y016923D01*
X003798Y016923D01*
X003798Y016827D02*
X003701Y016730D01*
X003507Y016730D01*
X003093Y016827D02*
X002996Y016730D01*
X003093Y016827D02*
X003093Y017214D01*
X003190Y017117D02*
X002996Y017117D01*
X003397Y016224D02*
X003397Y015837D01*
X003300Y015740D01*
X003300Y016127D02*
X003494Y016127D01*
X003714Y016127D02*
X004005Y016127D01*
X004101Y016030D01*
X004101Y015837D01*
X004005Y015740D01*
X003714Y015740D01*
X004322Y015933D02*
X004709Y015933D01*
X004709Y015837D02*
X004709Y016030D01*
X004612Y016127D01*
X004419Y016127D01*
X004322Y016030D01*
X004322Y015933D01*
X004419Y015740D02*
X004612Y015740D01*
X004709Y015837D01*
X004930Y015740D02*
X004930Y016030D01*
X005027Y016127D01*
X005317Y016127D01*
X005317Y015740D01*
X005538Y015740D02*
X005538Y016030D01*
X005634Y016127D01*
X005925Y016127D01*
X005925Y015740D01*
X006127Y016730D02*
X006127Y017310D01*
X006753Y017310D02*
X007140Y017310D01*
X007140Y016730D01*
X007140Y017020D02*
X006947Y017020D01*
X004405Y017117D02*
X004405Y016730D01*
D12*
X001430Y015300D03*
D13*
X008180Y018800D03*
X009680Y018800D03*
X009680Y021800D03*
X008180Y021800D03*
D14*
X013278Y016404D03*
X013278Y015404D03*
X014278Y015404D03*
X014278Y016404D03*
X015278Y016404D03*
X015278Y015404D03*
X007680Y005499D03*
X007680Y004499D03*
X007680Y003499D03*
X006680Y003499D03*
X006680Y004499D03*
X006680Y005499D03*
D15*
X005180Y014050D03*
X008180Y014050D03*
X011180Y014050D03*
D16*
X002564Y002450D03*
X004296Y002450D03*
D17*
X002225Y005800D02*
X001635Y005800D01*
X001635Y006800D02*
X002225Y006800D01*
M02*
