G75*
G70*
%OFA0B0*%
%FSLAX24Y24*%
%IPPOS*%
%LPD*%
%AMOC8*
5,1,8,0,0,1.08239X$1,22.5*
%
%ADD10C,0.0000*%
%ADD11C,0.0660*%
%ADD12C,0.0160*%
%ADD13C,0.0317*%
%ADD14C,0.0100*%
%ADD15C,0.0356*%
%ADD16C,0.0240*%
D10*
X000377Y000280D02*
X055495Y000280D01*
X055495Y012091D01*
X000377Y012091D01*
X000377Y000280D01*
X010135Y006186D02*
X010137Y006227D01*
X010143Y006269D01*
X010152Y006309D01*
X010166Y006348D01*
X010183Y006386D01*
X010203Y006422D01*
X010227Y006456D01*
X010254Y006488D01*
X010284Y006517D01*
X010316Y006543D01*
X010351Y006566D01*
X010387Y006586D01*
X010425Y006602D01*
X010465Y006614D01*
X010506Y006623D01*
X010547Y006628D01*
X010588Y006629D01*
X010630Y006626D01*
X010671Y006619D01*
X010711Y006609D01*
X010750Y006594D01*
X010787Y006576D01*
X010823Y006555D01*
X010857Y006530D01*
X010888Y006503D01*
X010916Y006473D01*
X010941Y006440D01*
X010963Y006404D01*
X010982Y006367D01*
X010997Y006329D01*
X011009Y006289D01*
X011017Y006248D01*
X011021Y006207D01*
X011021Y006165D01*
X011017Y006124D01*
X011009Y006083D01*
X010997Y006043D01*
X010982Y006005D01*
X010963Y005968D01*
X010941Y005932D01*
X010916Y005899D01*
X010888Y005869D01*
X010857Y005842D01*
X010823Y005817D01*
X010787Y005796D01*
X010750Y005778D01*
X010711Y005763D01*
X010671Y005753D01*
X010630Y005746D01*
X010588Y005743D01*
X010547Y005744D01*
X010506Y005749D01*
X010465Y005758D01*
X010425Y005770D01*
X010387Y005786D01*
X010351Y005806D01*
X010316Y005829D01*
X010284Y005855D01*
X010254Y005884D01*
X010227Y005916D01*
X010203Y005950D01*
X010183Y005986D01*
X010166Y006024D01*
X010152Y006063D01*
X010143Y006103D01*
X010137Y006145D01*
X010135Y006186D01*
X017010Y006186D02*
X017012Y006257D01*
X017018Y006328D01*
X017028Y006399D01*
X017042Y006468D01*
X017059Y006537D01*
X017081Y006605D01*
X017106Y006672D01*
X017135Y006737D01*
X017167Y006800D01*
X017203Y006862D01*
X017242Y006921D01*
X017285Y006978D01*
X017330Y007033D01*
X017379Y007085D01*
X017430Y007134D01*
X017484Y007180D01*
X017541Y007224D01*
X017599Y007264D01*
X017660Y007300D01*
X017723Y007334D01*
X017788Y007363D01*
X017854Y007389D01*
X017922Y007412D01*
X017990Y007430D01*
X018060Y007445D01*
X018130Y007456D01*
X018201Y007463D01*
X018272Y007466D01*
X018343Y007465D01*
X018414Y007460D01*
X018485Y007451D01*
X018555Y007438D01*
X018624Y007422D01*
X018692Y007401D01*
X018759Y007377D01*
X018825Y007349D01*
X018888Y007317D01*
X018950Y007282D01*
X019010Y007244D01*
X019068Y007202D01*
X019123Y007158D01*
X019176Y007110D01*
X019226Y007059D01*
X019273Y007006D01*
X019317Y006950D01*
X019358Y006892D01*
X019396Y006831D01*
X019430Y006769D01*
X019460Y006704D01*
X019487Y006639D01*
X019511Y006571D01*
X019530Y006503D01*
X019546Y006434D01*
X019558Y006363D01*
X019566Y006293D01*
X019570Y006222D01*
X019570Y006150D01*
X019566Y006079D01*
X019558Y006009D01*
X019546Y005938D01*
X019530Y005869D01*
X019511Y005801D01*
X019487Y005733D01*
X019460Y005668D01*
X019430Y005603D01*
X019396Y005541D01*
X019358Y005480D01*
X019317Y005422D01*
X019273Y005366D01*
X019226Y005313D01*
X019176Y005262D01*
X019123Y005214D01*
X019068Y005170D01*
X019010Y005128D01*
X018950Y005090D01*
X018888Y005055D01*
X018825Y005023D01*
X018759Y004995D01*
X018692Y004971D01*
X018624Y004950D01*
X018555Y004934D01*
X018485Y004921D01*
X018414Y004912D01*
X018343Y004907D01*
X018272Y004906D01*
X018201Y004909D01*
X018130Y004916D01*
X018060Y004927D01*
X017990Y004942D01*
X017922Y004960D01*
X017854Y004983D01*
X017788Y005009D01*
X017723Y005038D01*
X017660Y005072D01*
X017599Y005108D01*
X017541Y005148D01*
X017484Y005192D01*
X017430Y005238D01*
X017379Y005287D01*
X017330Y005339D01*
X017285Y005394D01*
X017242Y005451D01*
X017203Y005510D01*
X017167Y005572D01*
X017135Y005635D01*
X017106Y005700D01*
X017081Y005767D01*
X017059Y005835D01*
X017042Y005904D01*
X017028Y005973D01*
X017018Y006044D01*
X017012Y006115D01*
X017010Y006186D01*
X024590Y006186D02*
X024594Y006350D01*
X024606Y006514D01*
X024626Y006677D01*
X024654Y006839D01*
X024690Y006999D01*
X024734Y007157D01*
X024786Y007313D01*
X024845Y007466D01*
X024911Y007617D01*
X024985Y007763D01*
X025066Y007906D01*
X025154Y008045D01*
X025248Y008179D01*
X025350Y008309D01*
X025457Y008433D01*
X025570Y008552D01*
X025689Y008665D01*
X025813Y008772D01*
X025943Y008874D01*
X026077Y008968D01*
X026216Y009056D01*
X026359Y009137D01*
X026505Y009211D01*
X026656Y009277D01*
X026809Y009336D01*
X026965Y009388D01*
X027123Y009432D01*
X027283Y009468D01*
X027445Y009496D01*
X027608Y009516D01*
X027772Y009528D01*
X027936Y009532D01*
X028100Y009528D01*
X028264Y009516D01*
X028427Y009496D01*
X028589Y009468D01*
X028749Y009432D01*
X028907Y009388D01*
X029063Y009336D01*
X029216Y009277D01*
X029367Y009211D01*
X029513Y009137D01*
X029656Y009056D01*
X029795Y008968D01*
X029929Y008874D01*
X030059Y008772D01*
X030183Y008665D01*
X030302Y008552D01*
X030415Y008433D01*
X030522Y008309D01*
X030624Y008179D01*
X030718Y008045D01*
X030806Y007906D01*
X030887Y007763D01*
X030961Y007617D01*
X031027Y007466D01*
X031086Y007313D01*
X031138Y007157D01*
X031182Y006999D01*
X031218Y006839D01*
X031246Y006677D01*
X031266Y006514D01*
X031278Y006350D01*
X031282Y006186D01*
X031278Y006022D01*
X031266Y005858D01*
X031246Y005695D01*
X031218Y005533D01*
X031182Y005373D01*
X031138Y005215D01*
X031086Y005059D01*
X031027Y004906D01*
X030961Y004755D01*
X030887Y004609D01*
X030806Y004466D01*
X030718Y004327D01*
X030624Y004193D01*
X030522Y004063D01*
X030415Y003939D01*
X030302Y003820D01*
X030183Y003707D01*
X030059Y003600D01*
X029929Y003498D01*
X029795Y003404D01*
X029656Y003316D01*
X029513Y003235D01*
X029367Y003161D01*
X029216Y003095D01*
X029063Y003036D01*
X028907Y002984D01*
X028749Y002940D01*
X028589Y002904D01*
X028427Y002876D01*
X028264Y002856D01*
X028100Y002844D01*
X027936Y002840D01*
X027772Y002844D01*
X027608Y002856D01*
X027445Y002876D01*
X027283Y002904D01*
X027123Y002940D01*
X026965Y002984D01*
X026809Y003036D01*
X026656Y003095D01*
X026505Y003161D01*
X026359Y003235D01*
X026216Y003316D01*
X026077Y003404D01*
X025943Y003498D01*
X025813Y003600D01*
X025689Y003707D01*
X025570Y003820D01*
X025457Y003939D01*
X025350Y004063D01*
X025248Y004193D01*
X025154Y004327D01*
X025066Y004466D01*
X024985Y004609D01*
X024911Y004755D01*
X024845Y004906D01*
X024786Y005059D01*
X024734Y005215D01*
X024690Y005373D01*
X024654Y005533D01*
X024626Y005695D01*
X024606Y005858D01*
X024594Y006022D01*
X024590Y006186D01*
X036302Y006186D02*
X036304Y006257D01*
X036310Y006328D01*
X036320Y006399D01*
X036334Y006468D01*
X036351Y006537D01*
X036373Y006605D01*
X036398Y006672D01*
X036427Y006737D01*
X036459Y006800D01*
X036495Y006862D01*
X036534Y006921D01*
X036577Y006978D01*
X036622Y007033D01*
X036671Y007085D01*
X036722Y007134D01*
X036776Y007180D01*
X036833Y007224D01*
X036891Y007264D01*
X036952Y007300D01*
X037015Y007334D01*
X037080Y007363D01*
X037146Y007389D01*
X037214Y007412D01*
X037282Y007430D01*
X037352Y007445D01*
X037422Y007456D01*
X037493Y007463D01*
X037564Y007466D01*
X037635Y007465D01*
X037706Y007460D01*
X037777Y007451D01*
X037847Y007438D01*
X037916Y007422D01*
X037984Y007401D01*
X038051Y007377D01*
X038117Y007349D01*
X038180Y007317D01*
X038242Y007282D01*
X038302Y007244D01*
X038360Y007202D01*
X038415Y007158D01*
X038468Y007110D01*
X038518Y007059D01*
X038565Y007006D01*
X038609Y006950D01*
X038650Y006892D01*
X038688Y006831D01*
X038722Y006769D01*
X038752Y006704D01*
X038779Y006639D01*
X038803Y006571D01*
X038822Y006503D01*
X038838Y006434D01*
X038850Y006363D01*
X038858Y006293D01*
X038862Y006222D01*
X038862Y006150D01*
X038858Y006079D01*
X038850Y006009D01*
X038838Y005938D01*
X038822Y005869D01*
X038803Y005801D01*
X038779Y005733D01*
X038752Y005668D01*
X038722Y005603D01*
X038688Y005541D01*
X038650Y005480D01*
X038609Y005422D01*
X038565Y005366D01*
X038518Y005313D01*
X038468Y005262D01*
X038415Y005214D01*
X038360Y005170D01*
X038302Y005128D01*
X038242Y005090D01*
X038180Y005055D01*
X038117Y005023D01*
X038051Y004995D01*
X037984Y004971D01*
X037916Y004950D01*
X037847Y004934D01*
X037777Y004921D01*
X037706Y004912D01*
X037635Y004907D01*
X037564Y004906D01*
X037493Y004909D01*
X037422Y004916D01*
X037352Y004927D01*
X037282Y004942D01*
X037214Y004960D01*
X037146Y004983D01*
X037080Y005009D01*
X037015Y005038D01*
X036952Y005072D01*
X036891Y005108D01*
X036833Y005148D01*
X036776Y005192D01*
X036722Y005238D01*
X036671Y005287D01*
X036622Y005339D01*
X036577Y005394D01*
X036534Y005451D01*
X036495Y005510D01*
X036459Y005572D01*
X036427Y005635D01*
X036398Y005700D01*
X036373Y005767D01*
X036351Y005835D01*
X036334Y005904D01*
X036320Y005973D01*
X036310Y006044D01*
X036304Y006115D01*
X036302Y006186D01*
X044851Y006186D02*
X044853Y006227D01*
X044859Y006269D01*
X044868Y006309D01*
X044882Y006348D01*
X044899Y006386D01*
X044919Y006422D01*
X044943Y006456D01*
X044970Y006488D01*
X045000Y006517D01*
X045032Y006543D01*
X045067Y006566D01*
X045103Y006586D01*
X045141Y006602D01*
X045181Y006614D01*
X045222Y006623D01*
X045263Y006628D01*
X045304Y006629D01*
X045346Y006626D01*
X045387Y006619D01*
X045427Y006609D01*
X045466Y006594D01*
X045503Y006576D01*
X045539Y006555D01*
X045573Y006530D01*
X045604Y006503D01*
X045632Y006473D01*
X045657Y006440D01*
X045679Y006404D01*
X045698Y006367D01*
X045713Y006329D01*
X045725Y006289D01*
X045733Y006248D01*
X045737Y006207D01*
X045737Y006165D01*
X045733Y006124D01*
X045725Y006083D01*
X045713Y006043D01*
X045698Y006005D01*
X045679Y005968D01*
X045657Y005932D01*
X045632Y005899D01*
X045604Y005869D01*
X045573Y005842D01*
X045539Y005817D01*
X045503Y005796D01*
X045466Y005778D01*
X045427Y005763D01*
X045387Y005753D01*
X045346Y005746D01*
X045304Y005743D01*
X045263Y005744D01*
X045222Y005749D01*
X045181Y005758D01*
X045141Y005770D01*
X045103Y005786D01*
X045067Y005806D01*
X045032Y005829D01*
X045000Y005855D01*
X044970Y005884D01*
X044943Y005916D01*
X044919Y005950D01*
X044899Y005986D01*
X044882Y006024D01*
X044868Y006063D01*
X044859Y006103D01*
X044853Y006145D01*
X044851Y006186D01*
D11*
X049393Y001988D02*
X049393Y001328D01*
X050574Y001328D02*
X050574Y001988D01*
X052837Y001988D02*
X052837Y001328D01*
X054019Y001328D02*
X054019Y001988D01*
X006479Y001988D02*
X006479Y001328D01*
X005298Y001328D02*
X005298Y001988D01*
X003034Y001988D02*
X003034Y001328D01*
X001853Y001328D02*
X001853Y001988D01*
D12*
X001360Y002182D02*
X000577Y002182D01*
X000577Y002024D02*
X001323Y002024D01*
X001323Y002093D02*
X001323Y001223D01*
X001404Y001028D01*
X001553Y000879D01*
X001748Y000798D01*
X001784Y000798D01*
X002049Y000480D01*
X000577Y000480D01*
X000577Y006600D01*
X005836Y006600D01*
X005939Y006643D01*
X006017Y006721D01*
X006060Y006824D01*
X006060Y011891D01*
X049531Y011891D01*
X049531Y006824D01*
X049574Y006721D01*
X049653Y006643D01*
X049756Y006600D01*
X055295Y006600D01*
X055295Y000480D01*
X052703Y000480D01*
X053019Y000796D01*
X053076Y000853D01*
X053138Y000879D01*
X053287Y001028D01*
X053367Y001223D01*
X053367Y002093D01*
X053287Y002288D01*
X053138Y002437D01*
X052943Y002518D01*
X052732Y002518D01*
X052537Y002437D01*
X052388Y002288D01*
X052307Y002093D01*
X052307Y001223D01*
X052376Y001058D01*
X052262Y000944D01*
X050940Y000944D01*
X051023Y001028D01*
X051104Y001223D01*
X051104Y002093D01*
X051023Y002288D01*
X050874Y002437D01*
X050679Y002518D01*
X050468Y002518D01*
X050273Y002437D01*
X050124Y002288D01*
X050044Y002093D01*
X050044Y001223D01*
X050124Y001028D01*
X050208Y000944D01*
X049759Y000944D01*
X049842Y001028D01*
X049923Y001223D01*
X049923Y002093D01*
X049842Y002288D01*
X049693Y002437D01*
X049498Y002518D01*
X049287Y002518D01*
X049092Y002437D01*
X048943Y002288D01*
X048863Y002093D01*
X048863Y001223D01*
X048943Y001028D01*
X049027Y000944D01*
X044160Y000944D01*
X044160Y004288D01*
X044161Y004342D01*
X044160Y004343D01*
X044160Y004345D01*
X044139Y004395D01*
X044119Y004445D01*
X044118Y004446D01*
X044117Y004448D01*
X044079Y004486D01*
X044041Y004525D01*
X044040Y004526D01*
X044039Y004527D01*
X043989Y004547D01*
X043939Y004569D01*
X043937Y004569D01*
X043936Y004569D01*
X043882Y004569D01*
X035677Y004667D01*
X035675Y004668D01*
X035621Y004668D01*
X035567Y004669D01*
X035565Y004668D01*
X035564Y004668D01*
X035514Y004647D01*
X035464Y004627D01*
X035462Y004626D01*
X035461Y004625D01*
X035423Y004587D01*
X035384Y004549D01*
X035383Y004548D01*
X035382Y004546D01*
X035361Y004497D01*
X035340Y004447D01*
X035340Y004445D01*
X035339Y004444D01*
X035339Y004390D01*
X035339Y004336D01*
X035339Y004334D01*
X035339Y000944D01*
X019528Y000944D01*
X019528Y004338D01*
X019529Y004340D01*
X019528Y004388D01*
X019528Y004436D01*
X019528Y004438D01*
X019528Y004440D01*
X019509Y004484D01*
X019490Y004528D01*
X019489Y004529D01*
X019488Y004531D01*
X019454Y004564D01*
X019420Y004598D01*
X019418Y004599D01*
X019417Y004600D01*
X019372Y004618D01*
X019328Y004636D01*
X019326Y004636D01*
X019325Y004637D01*
X019277Y004636D01*
X019229Y004636D01*
X019227Y004636D01*
X012508Y004538D01*
X012460Y004538D01*
X012458Y004537D01*
X012457Y004537D01*
X012413Y004518D01*
X012368Y004500D01*
X012367Y004498D01*
X012365Y004498D01*
X012332Y004463D01*
X012298Y004429D01*
X012297Y004428D01*
X012296Y004426D01*
X012278Y004382D01*
X012260Y004338D01*
X012260Y004336D01*
X012259Y004334D01*
X012260Y004286D01*
X012260Y000944D01*
X006817Y000944D01*
X006868Y000996D01*
X006915Y001061D01*
X006952Y001132D01*
X006977Y001209D01*
X006989Y001288D01*
X006989Y001640D01*
X006498Y001640D01*
X006498Y001676D01*
X006989Y001676D01*
X006989Y002028D01*
X006977Y002107D01*
X006952Y002184D01*
X006915Y002255D01*
X006868Y002320D01*
X006811Y002377D01*
X006747Y002424D01*
X006675Y002461D01*
X006599Y002485D01*
X006519Y002498D01*
X006498Y002498D01*
X006498Y001676D01*
X006461Y001676D01*
X006461Y001640D01*
X005969Y001640D01*
X005969Y001288D01*
X005982Y001209D01*
X006007Y001132D01*
X006043Y001061D01*
X006090Y000996D01*
X006141Y000944D01*
X005664Y000944D01*
X005747Y001028D01*
X005828Y001223D01*
X005828Y002093D01*
X005747Y002288D01*
X005598Y002437D01*
X005404Y002518D01*
X005193Y002518D01*
X004998Y002437D01*
X004849Y002288D01*
X004768Y002093D01*
X004768Y001223D01*
X004849Y001028D01*
X004932Y000944D01*
X003400Y000944D01*
X003484Y001028D01*
X003564Y001223D01*
X003564Y002093D01*
X003484Y002288D01*
X003335Y002437D01*
X003140Y002518D01*
X002929Y002518D01*
X002734Y002437D01*
X002585Y002288D01*
X002504Y002093D01*
X002504Y001223D01*
X002585Y001028D01*
X002668Y000944D01*
X002495Y000944D01*
X002343Y001127D01*
X002383Y001223D01*
X002383Y002093D01*
X002303Y002288D01*
X002153Y002437D01*
X001959Y002518D01*
X001748Y002518D01*
X001553Y002437D01*
X001404Y002288D01*
X001323Y002093D01*
X001323Y001865D02*
X000577Y001865D01*
X000577Y001707D02*
X001323Y001707D01*
X001323Y001548D02*
X000577Y001548D01*
X000577Y001390D02*
X001323Y001390D01*
X001323Y001231D02*
X000577Y001231D01*
X000577Y001073D02*
X001385Y001073D01*
X001518Y000914D02*
X000577Y000914D01*
X000577Y000756D02*
X001820Y000756D01*
X001952Y000597D02*
X000577Y000597D01*
X002389Y001073D02*
X002566Y001073D01*
X002504Y001231D02*
X002383Y001231D01*
X002383Y001390D02*
X002504Y001390D01*
X002504Y001548D02*
X002383Y001548D01*
X002383Y001707D02*
X002504Y001707D01*
X002504Y001865D02*
X002383Y001865D01*
X002383Y002024D02*
X002504Y002024D01*
X002541Y002182D02*
X002347Y002182D01*
X002250Y002341D02*
X002637Y002341D01*
X002883Y002499D02*
X002004Y002499D01*
X001702Y002499D02*
X000577Y002499D01*
X000577Y002341D02*
X001456Y002341D01*
X000577Y002658D02*
X012260Y002658D01*
X012260Y002816D02*
X000577Y002816D01*
X000577Y002975D02*
X012260Y002975D01*
X012260Y003133D02*
X000577Y003133D01*
X000577Y003292D02*
X012260Y003292D01*
X012260Y003450D02*
X000577Y003450D01*
X000577Y003609D02*
X012260Y003609D01*
X012260Y003767D02*
X000577Y003767D01*
X000577Y003926D02*
X012260Y003926D01*
X012260Y004084D02*
X000577Y004084D01*
X000577Y004243D02*
X012260Y004243D01*
X012286Y004401D02*
X000577Y004401D01*
X000577Y004560D02*
X013996Y004560D01*
X017190Y005194D02*
X000577Y005194D01*
X000577Y005352D02*
X017063Y005352D01*
X017106Y005277D02*
X017382Y005002D01*
X017719Y004807D01*
X018095Y004706D01*
X018485Y004706D01*
X018861Y004807D01*
X019199Y005002D01*
X019474Y005277D01*
X019669Y005614D01*
X019770Y005991D01*
X019770Y006380D01*
X019669Y006757D01*
X019474Y007094D01*
X019199Y007369D01*
X018861Y007564D01*
X018485Y007665D01*
X018095Y007665D01*
X017719Y007564D01*
X017382Y007369D01*
X017106Y007094D01*
X016912Y006757D01*
X016811Y006380D01*
X016811Y005991D01*
X016912Y005614D01*
X017106Y005277D01*
X016972Y005511D02*
X000577Y005511D01*
X000577Y005669D02*
X010185Y005669D01*
X010213Y005640D02*
X010033Y005821D01*
X009935Y006058D01*
X009935Y006313D01*
X010033Y006550D01*
X010213Y006731D01*
X010450Y006828D01*
X010706Y006828D01*
X010942Y006731D01*
X011123Y006550D01*
X011221Y006313D01*
X011221Y006058D01*
X011123Y005821D01*
X010942Y005640D01*
X010706Y005543D01*
X010450Y005543D01*
X010213Y005640D01*
X010970Y005669D02*
X016897Y005669D01*
X016854Y005828D02*
X011125Y005828D01*
X011191Y005986D02*
X016812Y005986D01*
X016811Y006145D02*
X011221Y006145D01*
X011221Y006303D02*
X016811Y006303D01*
X016832Y006462D02*
X011159Y006462D01*
X011052Y006620D02*
X016875Y006620D01*
X016924Y006779D02*
X010826Y006779D01*
X010329Y006779D02*
X006041Y006779D01*
X006060Y006937D02*
X017016Y006937D01*
X017108Y007096D02*
X006060Y007096D01*
X005780Y007096D02*
X000557Y007096D01*
X000557Y006937D02*
X005780Y006937D01*
X005780Y006880D02*
X005780Y011911D01*
X000557Y011911D01*
X000557Y006880D01*
X005780Y006880D01*
X005884Y006620D02*
X010103Y006620D01*
X009996Y006462D02*
X000577Y006462D01*
X000577Y006303D02*
X009935Y006303D01*
X009935Y006145D02*
X000577Y006145D01*
X000577Y005986D02*
X009964Y005986D01*
X010030Y005828D02*
X000577Y005828D01*
X000577Y005035D02*
X017348Y005035D01*
X017598Y004877D02*
X000577Y004877D01*
X000577Y004718D02*
X018051Y004718D01*
X018530Y004718D02*
X024705Y004718D01*
X024639Y004877D02*
X018982Y004877D01*
X019232Y005035D02*
X024574Y005035D01*
X024526Y005151D02*
X024793Y004506D01*
X025181Y003925D01*
X025675Y003431D01*
X026256Y003043D01*
X026901Y002775D01*
X027587Y002639D01*
X028285Y002639D01*
X028970Y002775D01*
X029616Y003043D01*
X030197Y003431D01*
X030691Y003925D01*
X031079Y004506D01*
X031346Y005151D01*
X031482Y005836D01*
X031482Y006535D01*
X031346Y007220D01*
X031079Y007865D01*
X030691Y008446D01*
X030197Y008940D01*
X029616Y009328D01*
X028970Y009596D01*
X028285Y009732D01*
X027587Y009732D01*
X026901Y009596D01*
X026256Y009328D01*
X025675Y008940D01*
X025181Y008446D01*
X024793Y007865D01*
X024526Y007220D01*
X024389Y006535D01*
X024389Y005836D01*
X024526Y005151D01*
X024517Y005194D02*
X019391Y005194D01*
X019517Y005352D02*
X024486Y005352D01*
X024454Y005511D02*
X019609Y005511D01*
X019684Y005669D02*
X024423Y005669D01*
X024391Y005828D02*
X019726Y005828D01*
X019768Y005986D02*
X024389Y005986D01*
X024389Y006145D02*
X019770Y006145D01*
X019770Y006303D02*
X024389Y006303D01*
X024389Y006462D02*
X019748Y006462D01*
X019706Y006620D02*
X024406Y006620D01*
X024438Y006779D02*
X019656Y006779D01*
X019565Y006937D02*
X024469Y006937D01*
X024501Y007096D02*
X019473Y007096D01*
X019314Y007254D02*
X024540Y007254D01*
X024605Y007413D02*
X019124Y007413D01*
X018836Y007571D02*
X024671Y007571D01*
X024737Y007730D02*
X006060Y007730D01*
X006060Y007571D02*
X017745Y007571D01*
X017456Y007413D02*
X006060Y007413D01*
X006060Y007254D02*
X017266Y007254D01*
X024808Y007888D02*
X006060Y007888D01*
X006060Y008047D02*
X024914Y008047D01*
X025020Y008205D02*
X006060Y008205D01*
X005780Y008205D02*
X000557Y008205D01*
X000557Y008047D02*
X005780Y008047D01*
X005780Y007888D02*
X000557Y007888D01*
X000557Y007730D02*
X005780Y007730D01*
X005780Y007571D02*
X000557Y007571D01*
X000557Y007413D02*
X005780Y007413D01*
X005780Y007254D02*
X000557Y007254D01*
X000557Y008364D02*
X005780Y008364D01*
X005780Y008522D02*
X000557Y008522D01*
X000557Y008681D02*
X005780Y008681D01*
X006060Y008681D02*
X025415Y008681D01*
X025257Y008522D02*
X006060Y008522D01*
X006060Y008364D02*
X025126Y008364D01*
X025574Y008839D02*
X006060Y008839D01*
X006060Y008998D02*
X025761Y008998D01*
X025998Y009156D02*
X006060Y009156D01*
X006060Y009315D02*
X026235Y009315D01*
X026605Y009473D02*
X006060Y009473D01*
X006060Y009632D02*
X027082Y009632D01*
X028790Y009632D02*
X049531Y009632D01*
X049531Y009790D02*
X006060Y009790D01*
X005780Y009790D02*
X000557Y009790D01*
X000557Y009632D02*
X005780Y009632D01*
X005780Y009473D02*
X000557Y009473D01*
X000557Y009315D02*
X005780Y009315D01*
X005780Y009156D02*
X000557Y009156D01*
X000557Y008998D02*
X005780Y008998D01*
X005780Y008839D02*
X000557Y008839D01*
X000557Y009949D02*
X005780Y009949D01*
X005780Y010107D02*
X000557Y010107D01*
X000557Y010266D02*
X005780Y010266D01*
X005780Y010424D02*
X000557Y010424D01*
X000557Y010583D02*
X005780Y010583D01*
X005780Y010741D02*
X000557Y010741D01*
X000557Y010900D02*
X005780Y010900D01*
X006060Y010900D02*
X049531Y010900D01*
X049531Y010741D02*
X006060Y010741D01*
X006060Y010583D02*
X049531Y010583D01*
X049811Y010583D02*
X055315Y010583D01*
X055315Y010741D02*
X049811Y010741D01*
X049811Y010900D02*
X055315Y010900D01*
X055315Y011058D02*
X049811Y011058D01*
X049811Y011217D02*
X055315Y011217D01*
X055315Y011375D02*
X049811Y011375D01*
X049811Y011534D02*
X055315Y011534D01*
X055315Y011692D02*
X049811Y011692D01*
X049811Y011851D02*
X055315Y011851D01*
X055315Y011911D02*
X055315Y006880D01*
X049811Y006880D01*
X049811Y011911D01*
X055315Y011911D01*
X049531Y011851D02*
X006060Y011851D01*
X006060Y011692D02*
X049531Y011692D01*
X049531Y011534D02*
X006060Y011534D01*
X006060Y011375D02*
X049531Y011375D01*
X049531Y011217D02*
X006060Y011217D01*
X006060Y011058D02*
X049531Y011058D01*
X049531Y010424D02*
X006060Y010424D01*
X006060Y010266D02*
X049531Y010266D01*
X049531Y010107D02*
X006060Y010107D01*
X006060Y009949D02*
X049531Y009949D01*
X049811Y009949D02*
X055315Y009949D01*
X055315Y010107D02*
X049811Y010107D01*
X049811Y010266D02*
X055315Y010266D01*
X055315Y010424D02*
X049811Y010424D01*
X049811Y009790D02*
X055315Y009790D01*
X055315Y009632D02*
X049811Y009632D01*
X049811Y009473D02*
X055315Y009473D01*
X055315Y009315D02*
X049811Y009315D01*
X049811Y009156D02*
X055315Y009156D01*
X055315Y008998D02*
X049811Y008998D01*
X049811Y008839D02*
X055315Y008839D01*
X055315Y008681D02*
X049811Y008681D01*
X049811Y008522D02*
X055315Y008522D01*
X055315Y008364D02*
X049811Y008364D01*
X049531Y008364D02*
X030746Y008364D01*
X030615Y008522D02*
X049531Y008522D01*
X049531Y008681D02*
X030456Y008681D01*
X030298Y008839D02*
X049531Y008839D01*
X049531Y008998D02*
X030111Y008998D01*
X029874Y009156D02*
X049531Y009156D01*
X049531Y009315D02*
X029636Y009315D01*
X029267Y009473D02*
X049531Y009473D01*
X049531Y008205D02*
X030852Y008205D01*
X030958Y008047D02*
X049531Y008047D01*
X049531Y007888D02*
X031064Y007888D01*
X031135Y007730D02*
X049531Y007730D01*
X049531Y007571D02*
X038127Y007571D01*
X038153Y007564D02*
X037776Y007665D01*
X037387Y007665D01*
X037010Y007564D01*
X036673Y007369D01*
X036398Y007094D01*
X036203Y006757D01*
X036102Y006380D01*
X036102Y005991D01*
X036203Y005614D01*
X036398Y005277D01*
X036673Y005002D01*
X037010Y004807D01*
X037387Y004706D01*
X037776Y004706D01*
X038153Y004807D01*
X038490Y005002D01*
X038765Y005277D01*
X038960Y005614D01*
X039061Y005991D01*
X039061Y006380D01*
X038960Y006757D01*
X038765Y007094D01*
X038490Y007369D01*
X038153Y007564D01*
X038415Y007413D02*
X049531Y007413D01*
X049531Y007254D02*
X038605Y007254D01*
X038764Y007096D02*
X049531Y007096D01*
X049531Y006937D02*
X038856Y006937D01*
X038948Y006779D02*
X045046Y006779D01*
X044930Y006731D02*
X045166Y006828D01*
X045422Y006828D01*
X045658Y006731D01*
X045839Y006550D01*
X045937Y006313D01*
X045937Y006058D01*
X045839Y005821D01*
X045658Y005640D01*
X045422Y005543D01*
X045166Y005543D01*
X044930Y005640D01*
X044749Y005821D01*
X044651Y006058D01*
X044651Y006313D01*
X044749Y006550D01*
X044930Y006731D01*
X044819Y006620D02*
X038997Y006620D01*
X039039Y006462D02*
X044713Y006462D01*
X044651Y006303D02*
X039061Y006303D01*
X039061Y006145D02*
X044651Y006145D01*
X044681Y005986D02*
X039060Y005986D01*
X039017Y005828D02*
X044747Y005828D01*
X044901Y005669D02*
X038975Y005669D01*
X038900Y005511D02*
X055295Y005511D01*
X055295Y005352D02*
X038809Y005352D01*
X038682Y005194D02*
X055295Y005194D01*
X055295Y005035D02*
X038523Y005035D01*
X038273Y004877D02*
X055295Y004877D01*
X055295Y004718D02*
X037821Y004718D01*
X037342Y004718D02*
X031167Y004718D01*
X031232Y004877D02*
X036890Y004877D01*
X036640Y005035D02*
X031298Y005035D01*
X031355Y005194D02*
X036481Y005194D01*
X036354Y005352D02*
X031386Y005352D01*
X031418Y005511D02*
X036263Y005511D01*
X036188Y005669D02*
X031449Y005669D01*
X031481Y005828D02*
X036146Y005828D01*
X036103Y005986D02*
X031482Y005986D01*
X031482Y006145D02*
X036102Y006145D01*
X036102Y006303D02*
X031482Y006303D01*
X031482Y006462D02*
X036124Y006462D01*
X036166Y006620D02*
X031465Y006620D01*
X031434Y006779D02*
X036216Y006779D01*
X036307Y006937D02*
X031402Y006937D01*
X031371Y007096D02*
X036399Y007096D01*
X036558Y007254D02*
X031332Y007254D01*
X031266Y007413D02*
X036748Y007413D01*
X037036Y007571D02*
X031201Y007571D01*
X031101Y004560D02*
X035394Y004560D01*
X035339Y004401D02*
X031009Y004401D01*
X030903Y004243D02*
X035339Y004243D01*
X035339Y004084D02*
X030797Y004084D01*
X030691Y003926D02*
X035339Y003926D01*
X035339Y003767D02*
X030533Y003767D01*
X030374Y003609D02*
X035339Y003609D01*
X035339Y003450D02*
X030216Y003450D01*
X029988Y003292D02*
X035339Y003292D01*
X035339Y003133D02*
X029751Y003133D01*
X029451Y002975D02*
X035339Y002975D01*
X035619Y002975D02*
X043880Y002975D01*
X043880Y003133D02*
X035619Y003133D01*
X035619Y003292D02*
X043880Y003292D01*
X044160Y003292D02*
X055295Y003292D01*
X055295Y003133D02*
X044160Y003133D01*
X044160Y002975D02*
X055295Y002975D01*
X055295Y002816D02*
X044160Y002816D01*
X044160Y002658D02*
X055295Y002658D01*
X055295Y002499D02*
X054170Y002499D01*
X054124Y002518D02*
X053913Y002518D01*
X053718Y002437D01*
X053569Y002288D01*
X053489Y002093D01*
X053489Y001223D01*
X053569Y001028D01*
X053718Y000879D01*
X053913Y000798D01*
X054124Y000798D01*
X054319Y000879D01*
X054468Y001028D01*
X054549Y001223D01*
X054549Y002093D01*
X054468Y002288D01*
X054319Y002437D01*
X054124Y002518D01*
X053867Y002499D02*
X052989Y002499D01*
X053234Y002341D02*
X053622Y002341D01*
X052686Y002499D02*
X050725Y002499D01*
X050971Y002341D02*
X052440Y002341D01*
X052344Y002182D02*
X051067Y002182D01*
X051104Y002024D02*
X052307Y002024D01*
X052307Y001865D02*
X051104Y001865D01*
X051104Y001707D02*
X052307Y001707D01*
X052307Y001548D02*
X051104Y001548D01*
X051104Y001390D02*
X052307Y001390D01*
X052307Y001231D02*
X051104Y001231D01*
X051042Y001073D02*
X052370Y001073D01*
X052978Y000756D02*
X055295Y000756D01*
X055295Y000914D02*
X054354Y000914D01*
X054486Y001073D02*
X055295Y001073D01*
X055295Y001231D02*
X054549Y001231D01*
X054549Y001390D02*
X055295Y001390D01*
X055295Y001548D02*
X054549Y001548D01*
X054549Y001707D02*
X055295Y001707D01*
X055295Y001865D02*
X054549Y001865D01*
X054549Y002024D02*
X055295Y002024D01*
X055295Y002182D02*
X054512Y002182D01*
X054416Y002341D02*
X055295Y002341D01*
X053525Y002182D02*
X053331Y002182D01*
X053367Y002024D02*
X053489Y002024D01*
X053489Y001865D02*
X053367Y001865D01*
X053367Y001707D02*
X053489Y001707D01*
X053489Y001548D02*
X053367Y001548D01*
X053367Y001390D02*
X053489Y001390D01*
X053489Y001231D02*
X053367Y001231D01*
X053305Y001073D02*
X053551Y001073D01*
X053683Y000914D02*
X053173Y000914D01*
X052820Y000597D02*
X055295Y000597D01*
X050106Y001073D02*
X049860Y001073D01*
X049923Y001231D02*
X050044Y001231D01*
X050044Y001390D02*
X049923Y001390D01*
X049923Y001548D02*
X050044Y001548D01*
X050044Y001707D02*
X049923Y001707D01*
X049923Y001865D02*
X050044Y001865D01*
X050044Y002024D02*
X049923Y002024D01*
X049886Y002182D02*
X050080Y002182D01*
X050177Y002341D02*
X049790Y002341D01*
X049544Y002499D02*
X050423Y002499D01*
X049241Y002499D02*
X044160Y002499D01*
X044160Y002341D02*
X048996Y002341D01*
X048899Y002182D02*
X044160Y002182D01*
X044160Y002024D02*
X048863Y002024D01*
X048863Y001865D02*
X044160Y001865D01*
X043880Y001865D02*
X035619Y001865D01*
X035619Y002024D02*
X043880Y002024D01*
X043880Y002182D02*
X035619Y002182D01*
X035339Y002182D02*
X019528Y002182D01*
X019528Y002024D02*
X035339Y002024D01*
X035339Y001865D02*
X019528Y001865D01*
X019528Y001707D02*
X035339Y001707D01*
X035339Y001548D02*
X019528Y001548D01*
X019528Y001390D02*
X035339Y001390D01*
X035339Y001231D02*
X019528Y001231D01*
X019528Y001073D02*
X035339Y001073D01*
X035619Y001073D02*
X043880Y001073D01*
X043880Y000944D02*
X035619Y000944D01*
X035619Y004388D01*
X043880Y004289D01*
X043880Y000944D01*
X044160Y001073D02*
X048925Y001073D01*
X048863Y001231D02*
X044160Y001231D01*
X044160Y001390D02*
X048863Y001390D01*
X048863Y001548D02*
X044160Y001548D01*
X044160Y001707D02*
X048863Y001707D01*
X043880Y001707D02*
X035619Y001707D01*
X035619Y001548D02*
X043880Y001548D01*
X043880Y001390D02*
X035619Y001390D01*
X035619Y001231D02*
X043880Y001231D01*
X043880Y002341D02*
X035619Y002341D01*
X035619Y002499D02*
X043880Y002499D01*
X043880Y002658D02*
X035619Y002658D01*
X035619Y002816D02*
X043880Y002816D01*
X043880Y003450D02*
X035619Y003450D01*
X035619Y003609D02*
X043880Y003609D01*
X043880Y003767D02*
X035619Y003767D01*
X035619Y003926D02*
X043880Y003926D01*
X044160Y003926D02*
X055295Y003926D01*
X055295Y003767D02*
X044160Y003767D01*
X044160Y003609D02*
X055295Y003609D01*
X055295Y003450D02*
X044160Y003450D01*
X044160Y004084D02*
X055295Y004084D01*
X055295Y004243D02*
X044160Y004243D01*
X044137Y004401D02*
X055295Y004401D01*
X055295Y004560D02*
X043961Y004560D01*
X043880Y004243D02*
X035619Y004243D01*
X035619Y004084D02*
X043880Y004084D01*
X045687Y005669D02*
X055295Y005669D01*
X055295Y005828D02*
X045842Y005828D01*
X045907Y005986D02*
X055295Y005986D01*
X055295Y006145D02*
X045937Y006145D01*
X045937Y006303D02*
X055295Y006303D01*
X055295Y006462D02*
X045876Y006462D01*
X045769Y006620D02*
X049707Y006620D01*
X049550Y006779D02*
X045543Y006779D01*
X049811Y006937D02*
X055315Y006937D01*
X055315Y007096D02*
X049811Y007096D01*
X049811Y007254D02*
X055315Y007254D01*
X055315Y007413D02*
X049811Y007413D01*
X049811Y007571D02*
X055315Y007571D01*
X055315Y007730D02*
X049811Y007730D01*
X049811Y007888D02*
X055315Y007888D01*
X055315Y008047D02*
X049811Y008047D01*
X049811Y008205D02*
X055315Y008205D01*
X035339Y002816D02*
X029069Y002816D01*
X028378Y002658D02*
X035339Y002658D01*
X035339Y002499D02*
X019528Y002499D01*
X019528Y002341D02*
X035339Y002341D01*
X027494Y002658D02*
X019528Y002658D01*
X019528Y002816D02*
X026803Y002816D01*
X026421Y002975D02*
X019528Y002975D01*
X019528Y003133D02*
X026121Y003133D01*
X025884Y003292D02*
X019528Y003292D01*
X019528Y003450D02*
X025656Y003450D01*
X025497Y003609D02*
X019528Y003609D01*
X019528Y003767D02*
X025339Y003767D01*
X025181Y003926D02*
X019528Y003926D01*
X019528Y004084D02*
X025075Y004084D01*
X024969Y004243D02*
X019528Y004243D01*
X019528Y004401D02*
X024863Y004401D01*
X024771Y004560D02*
X019459Y004560D01*
X012260Y002499D02*
X005449Y002499D01*
X005695Y002341D02*
X006111Y002341D01*
X006090Y002320D02*
X006043Y002255D01*
X006007Y002184D01*
X005982Y002107D01*
X005969Y002028D01*
X005969Y001676D01*
X006461Y001676D01*
X006461Y002498D01*
X006439Y002498D01*
X006360Y002485D01*
X006283Y002461D01*
X006212Y002424D01*
X006147Y002377D01*
X006090Y002320D01*
X006006Y002182D02*
X005791Y002182D01*
X005828Y002024D02*
X005969Y002024D01*
X005969Y001865D02*
X005828Y001865D01*
X006461Y001865D02*
X006498Y001865D01*
X006498Y002024D02*
X006461Y002024D01*
X006461Y002182D02*
X006498Y002182D01*
X006952Y002182D02*
X012260Y002182D01*
X012260Y002024D02*
X006989Y002024D01*
X006989Y001865D02*
X012260Y001865D01*
X012260Y001707D02*
X006989Y001707D01*
X006989Y001548D02*
X012260Y001548D01*
X012260Y001390D02*
X006989Y001390D01*
X006980Y001231D02*
X012260Y001231D01*
X012260Y001073D02*
X006921Y001073D01*
X006037Y001073D02*
X005766Y001073D01*
X005828Y001231D02*
X005978Y001231D01*
X005969Y001390D02*
X005828Y001390D01*
X005828Y001548D02*
X005969Y001548D01*
X005969Y001707D02*
X005828Y001707D01*
X006461Y001707D02*
X006498Y001707D01*
X004768Y001707D02*
X003564Y001707D01*
X003564Y001548D02*
X004768Y001548D01*
X004768Y001390D02*
X003564Y001390D01*
X003564Y001231D02*
X004768Y001231D01*
X004830Y001073D02*
X003502Y001073D01*
X003564Y001865D02*
X004768Y001865D01*
X004768Y002024D02*
X003564Y002024D01*
X003528Y002182D02*
X004805Y002182D01*
X004901Y002341D02*
X003431Y002341D01*
X003185Y002499D02*
X005147Y002499D01*
X006461Y002341D02*
X006498Y002341D01*
X006848Y002341D02*
X012260Y002341D01*
X005780Y011058D02*
X000557Y011058D01*
X000557Y011217D02*
X005780Y011217D01*
X005780Y011375D02*
X000557Y011375D01*
X000557Y011534D02*
X005780Y011534D01*
X005780Y011692D02*
X000557Y011692D01*
X000557Y011851D02*
X005780Y011851D01*
D13*
X008251Y010516D03*
X007380Y009080D03*
X007030Y009080D03*
X007030Y008680D03*
X007380Y008680D03*
X008271Y007794D03*
X009826Y007367D03*
X001086Y006022D03*
X006795Y004743D03*
X005023Y004152D03*
X011716Y003365D03*
X011716Y004939D03*
X020279Y001888D03*
X011815Y001495D03*
X034748Y001593D03*
X044787Y001298D03*
X047838Y003955D03*
X050889Y004939D03*
X047740Y005530D03*
X050594Y006416D03*
X045378Y007991D03*
X046911Y008930D03*
X047261Y008930D03*
X047261Y009380D03*
X046911Y009380D03*
X045378Y009861D03*
X039964Y005924D03*
X041637Y005825D03*
D14*
X019278Y004386D02*
X019278Y000914D01*
X012510Y000914D01*
X012510Y004288D01*
X019278Y004386D01*
X019278Y004319D02*
X014617Y004319D01*
X012510Y004220D02*
X019278Y004220D01*
X019278Y004122D02*
X012510Y004122D01*
X012510Y004023D02*
X019278Y004023D01*
X019278Y003925D02*
X012510Y003925D01*
X012510Y003826D02*
X019278Y003826D01*
X019278Y003728D02*
X012510Y003728D01*
X012510Y003629D02*
X019278Y003629D01*
X019278Y003531D02*
X012510Y003531D01*
X012510Y003432D02*
X019278Y003432D01*
X019278Y003334D02*
X012510Y003334D01*
X012510Y003235D02*
X019278Y003235D01*
X019278Y003137D02*
X012510Y003137D01*
X012510Y003038D02*
X019278Y003038D01*
X019278Y002940D02*
X012510Y002940D01*
X012510Y002841D02*
X019278Y002841D01*
X019278Y002743D02*
X012510Y002743D01*
X012510Y002644D02*
X019278Y002644D01*
X019278Y002546D02*
X012510Y002546D01*
X012510Y002447D02*
X019278Y002447D01*
X019278Y002349D02*
X012510Y002349D01*
X012510Y002250D02*
X019278Y002250D01*
X019278Y002152D02*
X012510Y002152D01*
X012510Y002053D02*
X019278Y002053D01*
X019278Y001955D02*
X012510Y001955D01*
X012510Y001856D02*
X019278Y001856D01*
X019278Y001758D02*
X012510Y001758D01*
X012510Y001659D02*
X019278Y001659D01*
X019278Y001561D02*
X012510Y001561D01*
X012510Y001462D02*
X019278Y001462D01*
X019278Y001364D02*
X012510Y001364D01*
X012510Y001265D02*
X019278Y001265D01*
X019278Y001167D02*
X012510Y001167D01*
X012510Y001068D02*
X019278Y001068D01*
X019278Y000970D02*
X012510Y000970D01*
D15*
X014452Y001264D03*
X015042Y001264D03*
X015042Y001756D03*
X014452Y001756D03*
X014452Y002249D03*
X015042Y002249D03*
X015042Y002741D03*
X014452Y002741D03*
X014452Y003233D03*
X015042Y003233D03*
X004380Y007980D03*
X003880Y007980D03*
X003880Y008480D03*
X004380Y008480D03*
X004380Y008980D03*
X003880Y008980D03*
X003880Y009480D03*
X004380Y009480D03*
X004380Y009980D03*
X003880Y009980D03*
X040780Y003180D03*
X041380Y003180D03*
X041380Y002680D03*
X040780Y002680D03*
X040780Y002180D03*
X041380Y002180D03*
X041380Y001680D03*
X040780Y001680D03*
X040780Y001180D03*
X041380Y001180D03*
X051460Y007957D03*
X052050Y007957D03*
X052050Y008449D03*
X051460Y008449D03*
X051460Y008941D03*
X052050Y008941D03*
X052050Y009532D03*
X051460Y009532D03*
X051460Y010024D03*
X052050Y010024D03*
D16*
X052837Y001658D02*
X052837Y001067D01*
X052395Y000624D01*
X002345Y000624D01*
X001853Y001215D01*
X001853Y001658D01*
M02*
