G75*
G70*
%OFA0B0*%
%FSLAX24Y24*%
%IPPOS*%
%LPD*%
%AMOC8*
5,1,8,0,0,1.08239X$1,22.5*
%
%ADD10C,0.0000*%
%ADD11C,0.0660*%
%ADD12R,0.0709X0.0827*%
%ADD13R,0.0394X0.0433*%
%ADD14R,0.0433X0.0394*%
%ADD15R,0.0669X0.0787*%
%ADD16R,0.0531X0.0177*%
%ADD17R,0.0866X0.0709*%
%ADD18C,0.0120*%
%ADD19R,0.0710X0.0630*%
%ADD20C,0.0400*%
%ADD21C,0.0160*%
%ADD22C,0.0317*%
%ADD23C,0.0320*%
%ADD24C,0.0356*%
%ADD25C,0.0240*%
D10*
X000377Y000280D02*
X055495Y000280D01*
X055495Y012091D01*
X000377Y012091D01*
X000377Y000280D01*
X010135Y006186D02*
X010137Y006227D01*
X010143Y006269D01*
X010152Y006309D01*
X010166Y006348D01*
X010183Y006386D01*
X010203Y006422D01*
X010227Y006456D01*
X010254Y006488D01*
X010284Y006517D01*
X010316Y006543D01*
X010351Y006566D01*
X010387Y006586D01*
X010425Y006602D01*
X010465Y006614D01*
X010506Y006623D01*
X010547Y006628D01*
X010588Y006629D01*
X010630Y006626D01*
X010671Y006619D01*
X010711Y006609D01*
X010750Y006594D01*
X010787Y006576D01*
X010823Y006555D01*
X010857Y006530D01*
X010888Y006503D01*
X010916Y006473D01*
X010941Y006440D01*
X010963Y006404D01*
X010982Y006367D01*
X010997Y006329D01*
X011009Y006289D01*
X011017Y006248D01*
X011021Y006207D01*
X011021Y006165D01*
X011017Y006124D01*
X011009Y006083D01*
X010997Y006043D01*
X010982Y006005D01*
X010963Y005968D01*
X010941Y005932D01*
X010916Y005899D01*
X010888Y005869D01*
X010857Y005842D01*
X010823Y005817D01*
X010787Y005796D01*
X010750Y005778D01*
X010711Y005763D01*
X010671Y005753D01*
X010630Y005746D01*
X010588Y005743D01*
X010547Y005744D01*
X010506Y005749D01*
X010465Y005758D01*
X010425Y005770D01*
X010387Y005786D01*
X010351Y005806D01*
X010316Y005829D01*
X010284Y005855D01*
X010254Y005884D01*
X010227Y005916D01*
X010203Y005950D01*
X010183Y005986D01*
X010166Y006024D01*
X010152Y006063D01*
X010143Y006103D01*
X010137Y006145D01*
X010135Y006186D01*
X017010Y006186D02*
X017012Y006257D01*
X017018Y006328D01*
X017028Y006399D01*
X017042Y006468D01*
X017059Y006537D01*
X017081Y006605D01*
X017106Y006672D01*
X017135Y006737D01*
X017167Y006800D01*
X017203Y006862D01*
X017242Y006921D01*
X017285Y006978D01*
X017330Y007033D01*
X017379Y007085D01*
X017430Y007134D01*
X017484Y007180D01*
X017541Y007224D01*
X017599Y007264D01*
X017660Y007300D01*
X017723Y007334D01*
X017788Y007363D01*
X017854Y007389D01*
X017922Y007412D01*
X017990Y007430D01*
X018060Y007445D01*
X018130Y007456D01*
X018201Y007463D01*
X018272Y007466D01*
X018343Y007465D01*
X018414Y007460D01*
X018485Y007451D01*
X018555Y007438D01*
X018624Y007422D01*
X018692Y007401D01*
X018759Y007377D01*
X018825Y007349D01*
X018888Y007317D01*
X018950Y007282D01*
X019010Y007244D01*
X019068Y007202D01*
X019123Y007158D01*
X019176Y007110D01*
X019226Y007059D01*
X019273Y007006D01*
X019317Y006950D01*
X019358Y006892D01*
X019396Y006831D01*
X019430Y006769D01*
X019460Y006704D01*
X019487Y006639D01*
X019511Y006571D01*
X019530Y006503D01*
X019546Y006434D01*
X019558Y006363D01*
X019566Y006293D01*
X019570Y006222D01*
X019570Y006150D01*
X019566Y006079D01*
X019558Y006009D01*
X019546Y005938D01*
X019530Y005869D01*
X019511Y005801D01*
X019487Y005733D01*
X019460Y005668D01*
X019430Y005603D01*
X019396Y005541D01*
X019358Y005480D01*
X019317Y005422D01*
X019273Y005366D01*
X019226Y005313D01*
X019176Y005262D01*
X019123Y005214D01*
X019068Y005170D01*
X019010Y005128D01*
X018950Y005090D01*
X018888Y005055D01*
X018825Y005023D01*
X018759Y004995D01*
X018692Y004971D01*
X018624Y004950D01*
X018555Y004934D01*
X018485Y004921D01*
X018414Y004912D01*
X018343Y004907D01*
X018272Y004906D01*
X018201Y004909D01*
X018130Y004916D01*
X018060Y004927D01*
X017990Y004942D01*
X017922Y004960D01*
X017854Y004983D01*
X017788Y005009D01*
X017723Y005038D01*
X017660Y005072D01*
X017599Y005108D01*
X017541Y005148D01*
X017484Y005192D01*
X017430Y005238D01*
X017379Y005287D01*
X017330Y005339D01*
X017285Y005394D01*
X017242Y005451D01*
X017203Y005510D01*
X017167Y005572D01*
X017135Y005635D01*
X017106Y005700D01*
X017081Y005767D01*
X017059Y005835D01*
X017042Y005904D01*
X017028Y005973D01*
X017018Y006044D01*
X017012Y006115D01*
X017010Y006186D01*
X024590Y006186D02*
X024594Y006350D01*
X024606Y006514D01*
X024626Y006677D01*
X024654Y006839D01*
X024690Y006999D01*
X024734Y007157D01*
X024786Y007313D01*
X024845Y007466D01*
X024911Y007617D01*
X024985Y007763D01*
X025066Y007906D01*
X025154Y008045D01*
X025248Y008179D01*
X025350Y008309D01*
X025457Y008433D01*
X025570Y008552D01*
X025689Y008665D01*
X025813Y008772D01*
X025943Y008874D01*
X026077Y008968D01*
X026216Y009056D01*
X026359Y009137D01*
X026505Y009211D01*
X026656Y009277D01*
X026809Y009336D01*
X026965Y009388D01*
X027123Y009432D01*
X027283Y009468D01*
X027445Y009496D01*
X027608Y009516D01*
X027772Y009528D01*
X027936Y009532D01*
X028100Y009528D01*
X028264Y009516D01*
X028427Y009496D01*
X028589Y009468D01*
X028749Y009432D01*
X028907Y009388D01*
X029063Y009336D01*
X029216Y009277D01*
X029367Y009211D01*
X029513Y009137D01*
X029656Y009056D01*
X029795Y008968D01*
X029929Y008874D01*
X030059Y008772D01*
X030183Y008665D01*
X030302Y008552D01*
X030415Y008433D01*
X030522Y008309D01*
X030624Y008179D01*
X030718Y008045D01*
X030806Y007906D01*
X030887Y007763D01*
X030961Y007617D01*
X031027Y007466D01*
X031086Y007313D01*
X031138Y007157D01*
X031182Y006999D01*
X031218Y006839D01*
X031246Y006677D01*
X031266Y006514D01*
X031278Y006350D01*
X031282Y006186D01*
X031278Y006022D01*
X031266Y005858D01*
X031246Y005695D01*
X031218Y005533D01*
X031182Y005373D01*
X031138Y005215D01*
X031086Y005059D01*
X031027Y004906D01*
X030961Y004755D01*
X030887Y004609D01*
X030806Y004466D01*
X030718Y004327D01*
X030624Y004193D01*
X030522Y004063D01*
X030415Y003939D01*
X030302Y003820D01*
X030183Y003707D01*
X030059Y003600D01*
X029929Y003498D01*
X029795Y003404D01*
X029656Y003316D01*
X029513Y003235D01*
X029367Y003161D01*
X029216Y003095D01*
X029063Y003036D01*
X028907Y002984D01*
X028749Y002940D01*
X028589Y002904D01*
X028427Y002876D01*
X028264Y002856D01*
X028100Y002844D01*
X027936Y002840D01*
X027772Y002844D01*
X027608Y002856D01*
X027445Y002876D01*
X027283Y002904D01*
X027123Y002940D01*
X026965Y002984D01*
X026809Y003036D01*
X026656Y003095D01*
X026505Y003161D01*
X026359Y003235D01*
X026216Y003316D01*
X026077Y003404D01*
X025943Y003498D01*
X025813Y003600D01*
X025689Y003707D01*
X025570Y003820D01*
X025457Y003939D01*
X025350Y004063D01*
X025248Y004193D01*
X025154Y004327D01*
X025066Y004466D01*
X024985Y004609D01*
X024911Y004755D01*
X024845Y004906D01*
X024786Y005059D01*
X024734Y005215D01*
X024690Y005373D01*
X024654Y005533D01*
X024626Y005695D01*
X024606Y005858D01*
X024594Y006022D01*
X024590Y006186D01*
X036302Y006186D02*
X036304Y006257D01*
X036310Y006328D01*
X036320Y006399D01*
X036334Y006468D01*
X036351Y006537D01*
X036373Y006605D01*
X036398Y006672D01*
X036427Y006737D01*
X036459Y006800D01*
X036495Y006862D01*
X036534Y006921D01*
X036577Y006978D01*
X036622Y007033D01*
X036671Y007085D01*
X036722Y007134D01*
X036776Y007180D01*
X036833Y007224D01*
X036891Y007264D01*
X036952Y007300D01*
X037015Y007334D01*
X037080Y007363D01*
X037146Y007389D01*
X037214Y007412D01*
X037282Y007430D01*
X037352Y007445D01*
X037422Y007456D01*
X037493Y007463D01*
X037564Y007466D01*
X037635Y007465D01*
X037706Y007460D01*
X037777Y007451D01*
X037847Y007438D01*
X037916Y007422D01*
X037984Y007401D01*
X038051Y007377D01*
X038117Y007349D01*
X038180Y007317D01*
X038242Y007282D01*
X038302Y007244D01*
X038360Y007202D01*
X038415Y007158D01*
X038468Y007110D01*
X038518Y007059D01*
X038565Y007006D01*
X038609Y006950D01*
X038650Y006892D01*
X038688Y006831D01*
X038722Y006769D01*
X038752Y006704D01*
X038779Y006639D01*
X038803Y006571D01*
X038822Y006503D01*
X038838Y006434D01*
X038850Y006363D01*
X038858Y006293D01*
X038862Y006222D01*
X038862Y006150D01*
X038858Y006079D01*
X038850Y006009D01*
X038838Y005938D01*
X038822Y005869D01*
X038803Y005801D01*
X038779Y005733D01*
X038752Y005668D01*
X038722Y005603D01*
X038688Y005541D01*
X038650Y005480D01*
X038609Y005422D01*
X038565Y005366D01*
X038518Y005313D01*
X038468Y005262D01*
X038415Y005214D01*
X038360Y005170D01*
X038302Y005128D01*
X038242Y005090D01*
X038180Y005055D01*
X038117Y005023D01*
X038051Y004995D01*
X037984Y004971D01*
X037916Y004950D01*
X037847Y004934D01*
X037777Y004921D01*
X037706Y004912D01*
X037635Y004907D01*
X037564Y004906D01*
X037493Y004909D01*
X037422Y004916D01*
X037352Y004927D01*
X037282Y004942D01*
X037214Y004960D01*
X037146Y004983D01*
X037080Y005009D01*
X037015Y005038D01*
X036952Y005072D01*
X036891Y005108D01*
X036833Y005148D01*
X036776Y005192D01*
X036722Y005238D01*
X036671Y005287D01*
X036622Y005339D01*
X036577Y005394D01*
X036534Y005451D01*
X036495Y005510D01*
X036459Y005572D01*
X036427Y005635D01*
X036398Y005700D01*
X036373Y005767D01*
X036351Y005835D01*
X036334Y005904D01*
X036320Y005973D01*
X036310Y006044D01*
X036304Y006115D01*
X036302Y006186D01*
X044851Y006186D02*
X044853Y006227D01*
X044859Y006269D01*
X044868Y006309D01*
X044882Y006348D01*
X044899Y006386D01*
X044919Y006422D01*
X044943Y006456D01*
X044970Y006488D01*
X045000Y006517D01*
X045032Y006543D01*
X045067Y006566D01*
X045103Y006586D01*
X045141Y006602D01*
X045181Y006614D01*
X045222Y006623D01*
X045263Y006628D01*
X045304Y006629D01*
X045346Y006626D01*
X045387Y006619D01*
X045427Y006609D01*
X045466Y006594D01*
X045503Y006576D01*
X045539Y006555D01*
X045573Y006530D01*
X045604Y006503D01*
X045632Y006473D01*
X045657Y006440D01*
X045679Y006404D01*
X045698Y006367D01*
X045713Y006329D01*
X045725Y006289D01*
X045733Y006248D01*
X045737Y006207D01*
X045737Y006165D01*
X045733Y006124D01*
X045725Y006083D01*
X045713Y006043D01*
X045698Y006005D01*
X045679Y005968D01*
X045657Y005932D01*
X045632Y005899D01*
X045604Y005869D01*
X045573Y005842D01*
X045539Y005817D01*
X045503Y005796D01*
X045466Y005778D01*
X045427Y005763D01*
X045387Y005753D01*
X045346Y005746D01*
X045304Y005743D01*
X045263Y005744D01*
X045222Y005749D01*
X045181Y005758D01*
X045141Y005770D01*
X045103Y005786D01*
X045067Y005806D01*
X045032Y005829D01*
X045000Y005855D01*
X044970Y005884D01*
X044943Y005916D01*
X044919Y005950D01*
X044899Y005986D01*
X044882Y006024D01*
X044868Y006063D01*
X044859Y006103D01*
X044853Y006145D01*
X044851Y006186D01*
D11*
X049393Y001988D02*
X049393Y001328D01*
X050574Y001328D02*
X050574Y001988D01*
X052837Y001988D02*
X052837Y001328D01*
X054019Y001328D02*
X054019Y001988D01*
X006479Y001988D02*
X006479Y001328D01*
X005298Y001328D02*
X005298Y001988D01*
X003034Y001988D02*
X003034Y001328D01*
X001853Y001328D02*
X001853Y001988D01*
D12*
X002763Y003845D03*
X002763Y005577D03*
D13*
X005786Y006218D03*
X006456Y006218D03*
X006843Y010400D03*
X007512Y010400D03*
D14*
X009038Y010457D03*
X009038Y009788D03*
X005062Y009197D03*
X005062Y008686D03*
X003172Y008686D03*
X003172Y009197D03*
X013802Y002504D03*
X013802Y001993D03*
X015692Y001993D03*
X015692Y002504D03*
X040180Y002504D03*
X040180Y001993D03*
X042070Y001993D03*
X042070Y002504D03*
X052997Y003892D03*
X054476Y003560D03*
X054476Y004229D03*
X052997Y004561D03*
X048909Y007184D03*
X048909Y007853D03*
X050810Y008686D03*
X050810Y009197D03*
X049090Y009639D03*
X049090Y010308D03*
X052700Y009197D03*
X052700Y008686D03*
D15*
X047100Y009153D03*
X007200Y008878D03*
D16*
X006422Y008750D03*
X006422Y008495D03*
X007977Y008495D03*
X007977Y008750D03*
X007977Y009006D03*
X007977Y009262D03*
X006422Y009262D03*
X006422Y009006D03*
X046323Y009025D03*
X046323Y008769D03*
X047878Y008769D03*
X047878Y009025D03*
X047878Y009281D03*
X047878Y009537D03*
X046323Y009537D03*
X046323Y009281D03*
D17*
X051755Y008941D03*
X041125Y002249D03*
X014747Y002249D03*
X004117Y008941D03*
D18*
X003617Y008931D02*
X004617Y008931D01*
X004617Y009049D02*
X003617Y009049D01*
X003617Y009168D02*
X004617Y009168D01*
X004617Y009286D02*
X003617Y009286D01*
X003617Y009405D02*
X004617Y009405D01*
X004617Y009523D02*
X003617Y009523D01*
X003617Y009642D02*
X004617Y009642D01*
X004617Y009760D02*
X003617Y009760D01*
X003617Y009879D02*
X004617Y009879D01*
X004617Y009997D02*
X003617Y009997D01*
X003617Y010116D02*
X004617Y010116D01*
X004617Y010191D02*
X004617Y007691D01*
X003617Y007691D01*
X003617Y010191D01*
X004617Y010191D01*
X004617Y008812D02*
X003617Y008812D01*
X003617Y008694D02*
X004617Y008694D01*
X004617Y008575D02*
X003617Y008575D01*
X003617Y008457D02*
X004617Y008457D01*
X004617Y008338D02*
X003617Y008338D01*
X003617Y008220D02*
X004617Y008220D01*
X004617Y008101D02*
X003617Y008101D01*
X003617Y007983D02*
X004617Y007983D01*
X004617Y007864D02*
X003617Y007864D01*
X003617Y007746D02*
X004617Y007746D01*
X014247Y003499D02*
X015247Y003499D01*
X015247Y000999D01*
X014247Y000999D01*
X014247Y003499D01*
X014247Y003480D02*
X015247Y003480D01*
X015247Y003361D02*
X014247Y003361D01*
X014247Y003243D02*
X015247Y003243D01*
X015247Y003124D02*
X014247Y003124D01*
X014247Y003006D02*
X015247Y003006D01*
X015247Y002887D02*
X014247Y002887D01*
X014247Y002769D02*
X015247Y002769D01*
X015247Y002650D02*
X014247Y002650D01*
X014247Y002532D02*
X015247Y002532D01*
X015247Y002413D02*
X014247Y002413D01*
X014247Y002295D02*
X015247Y002295D01*
X015247Y002176D02*
X014247Y002176D01*
X014247Y002058D02*
X015247Y002058D01*
X015247Y001939D02*
X014247Y001939D01*
X014247Y001821D02*
X015247Y001821D01*
X015247Y001702D02*
X014247Y001702D01*
X014247Y001584D02*
X015247Y001584D01*
X015247Y001465D02*
X014247Y001465D01*
X014247Y001347D02*
X015247Y001347D01*
X015247Y001228D02*
X014247Y001228D01*
X014247Y001110D02*
X015247Y001110D01*
X040625Y001110D02*
X041625Y001110D01*
X041625Y000999D02*
X040625Y000999D01*
X040625Y003499D01*
X041625Y003499D01*
X041625Y000999D01*
X041625Y001228D02*
X040625Y001228D01*
X040625Y001347D02*
X041625Y001347D01*
X041625Y001465D02*
X040625Y001465D01*
X040625Y001584D02*
X041625Y001584D01*
X041625Y001702D02*
X040625Y001702D01*
X040625Y001821D02*
X041625Y001821D01*
X041625Y001939D02*
X040625Y001939D01*
X040625Y002058D02*
X041625Y002058D01*
X041625Y002176D02*
X040625Y002176D01*
X040625Y002295D02*
X041625Y002295D01*
X041625Y002413D02*
X040625Y002413D01*
X040625Y002532D02*
X041625Y002532D01*
X041625Y002650D02*
X040625Y002650D01*
X040625Y002769D02*
X041625Y002769D01*
X041625Y002887D02*
X040625Y002887D01*
X040625Y003006D02*
X041625Y003006D01*
X041625Y003124D02*
X040625Y003124D01*
X040625Y003243D02*
X041625Y003243D01*
X041625Y003361D02*
X040625Y003361D01*
X040625Y003480D02*
X041625Y003480D01*
X051255Y007691D02*
X051255Y010191D01*
X052255Y010191D01*
X052255Y007691D01*
X051255Y007691D01*
X051255Y007746D02*
X052255Y007746D01*
X052255Y007864D02*
X051255Y007864D01*
X051255Y007983D02*
X052255Y007983D01*
X052255Y008101D02*
X051255Y008101D01*
X051255Y008220D02*
X052255Y008220D01*
X052255Y008338D02*
X051255Y008338D01*
X051255Y008457D02*
X052255Y008457D01*
X052255Y008575D02*
X051255Y008575D01*
X051255Y008694D02*
X052255Y008694D01*
X052255Y008812D02*
X051255Y008812D01*
X051255Y008931D02*
X052255Y008931D01*
X052255Y009049D02*
X051255Y009049D01*
X051255Y009168D02*
X052255Y009168D01*
X052255Y009286D02*
X051255Y009286D01*
X051255Y009405D02*
X052255Y009405D01*
X052255Y009523D02*
X051255Y009523D01*
X051255Y009642D02*
X052255Y009642D01*
X052255Y009760D02*
X051255Y009760D01*
X051255Y009879D02*
X052255Y009879D01*
X052255Y009997D02*
X051255Y009997D01*
X051255Y010116D02*
X052255Y010116D01*
D19*
X051938Y005088D03*
X051938Y003968D03*
D20*
X044274Y010123D03*
X007660Y006874D03*
D21*
X006882Y006937D02*
X006040Y006937D01*
X006040Y006779D02*
X006882Y006779D01*
X006882Y006709D02*
X007017Y006407D01*
X007263Y006186D01*
X007577Y006083D01*
X007906Y006118D01*
X007906Y006118D01*
X008193Y006283D01*
X008193Y006283D01*
X008193Y006283D01*
X008387Y006551D01*
X008456Y006874D01*
X008387Y007198D01*
X008387Y007198D01*
X008193Y007466D01*
X007906Y007631D01*
X007577Y007666D01*
X007263Y007563D01*
X007263Y007563D01*
X007017Y007342D01*
X006882Y007040D01*
X006882Y006709D01*
X006922Y006620D02*
X006040Y006620D01*
X006040Y006614D02*
X006040Y008072D01*
X006194Y008226D01*
X006762Y008226D01*
X006841Y008305D01*
X006841Y008305D01*
X007120Y008305D01*
X007120Y008798D01*
X007280Y008798D01*
X007280Y008305D01*
X007558Y008305D01*
X007562Y008306D01*
X007567Y008295D01*
X007601Y008262D01*
X007642Y008238D01*
X007688Y008226D01*
X007977Y008226D01*
X007977Y008482D01*
X007977Y008482D01*
X007977Y008226D01*
X008267Y008226D01*
X008312Y008238D01*
X008354Y008262D01*
X008387Y008295D01*
X008411Y008337D01*
X008423Y008382D01*
X008423Y008495D01*
X008423Y008977D01*
X008512Y008940D01*
X008640Y008940D01*
X008640Y005319D01*
X008692Y005194D01*
X009898Y003987D01*
X009994Y003892D01*
X010119Y003840D01*
X015037Y003840D01*
X015138Y003739D01*
X014199Y003739D01*
X014111Y003702D01*
X014043Y003634D01*
X014007Y003546D01*
X014007Y002881D01*
X013511Y002881D01*
X013474Y002844D01*
X007896Y002844D01*
X003520Y007221D01*
X003520Y007472D01*
X003569Y007451D01*
X004665Y007451D01*
X004753Y007488D01*
X004820Y007555D01*
X004857Y007644D01*
X004857Y008309D01*
X005353Y008309D01*
X005458Y008414D01*
X005458Y009002D01*
X005976Y009002D01*
X005976Y008727D01*
X005947Y008715D01*
X005633Y008400D01*
X005560Y008327D01*
X005520Y008232D01*
X005520Y006614D01*
X005515Y006614D01*
X005409Y006509D01*
X005409Y005927D01*
X005515Y005821D01*
X006058Y005821D01*
X006121Y005884D01*
X006148Y005857D01*
X006189Y005834D01*
X006235Y005821D01*
X006437Y005821D01*
X006437Y006199D01*
X006474Y006199D01*
X006474Y005821D01*
X006676Y005821D01*
X006722Y005834D01*
X006763Y005857D01*
X006796Y005891D01*
X006820Y005932D01*
X006832Y005978D01*
X006832Y006199D01*
X006474Y006199D01*
X006474Y006236D01*
X006832Y006236D01*
X006832Y006458D01*
X006820Y006504D01*
X006796Y006545D01*
X006763Y006578D01*
X006722Y006602D01*
X006676Y006614D01*
X006474Y006614D01*
X006474Y006236D01*
X006437Y006236D01*
X006437Y006614D01*
X006235Y006614D01*
X006189Y006602D01*
X006148Y006578D01*
X006121Y006551D01*
X006058Y006614D01*
X006040Y006614D01*
X006437Y006462D02*
X006474Y006462D01*
X006474Y006303D02*
X006437Y006303D01*
X006437Y006145D02*
X006474Y006145D01*
X006832Y006145D02*
X007389Y006145D01*
X007263Y006186D02*
X007263Y006186D01*
X007132Y006303D02*
X006832Y006303D01*
X006832Y006462D02*
X006992Y006462D01*
X007017Y006407D02*
X007017Y006407D01*
X007952Y006145D02*
X008640Y006145D01*
X008640Y006303D02*
X008207Y006303D01*
X008322Y006462D02*
X008640Y006462D01*
X008640Y006620D02*
X008402Y006620D01*
X008387Y006551D02*
X008387Y006551D01*
X009320Y006620D02*
X010131Y006620D01*
X010050Y006538D02*
X010225Y006714D01*
X010454Y006808D01*
X010702Y006808D01*
X010930Y006714D01*
X011106Y006538D01*
X011201Y006309D01*
X011201Y006062D01*
X011106Y005833D01*
X010930Y005657D01*
X010702Y005563D01*
X010454Y005563D01*
X010225Y005657D01*
X010050Y005833D01*
X009955Y006062D01*
X009955Y006309D01*
X010050Y006538D01*
X010018Y006462D02*
X009320Y006462D01*
X009320Y006303D02*
X009955Y006303D01*
X009955Y006145D02*
X009320Y006145D01*
X009320Y005986D02*
X009986Y005986D01*
X010055Y005828D02*
X009320Y005828D01*
X009320Y005669D02*
X010213Y005669D01*
X010942Y005669D02*
X016918Y005669D01*
X016930Y005622D02*
X017122Y005289D01*
X017394Y005018D01*
X017727Y004825D01*
X018098Y004726D01*
X018482Y004726D01*
X018854Y004825D01*
X019186Y005018D01*
X019458Y005289D01*
X019650Y005622D01*
X019750Y005993D01*
X019750Y006378D01*
X019650Y006749D01*
X019458Y007082D01*
X019186Y007353D01*
X018854Y007546D01*
X018482Y007645D01*
X018098Y007645D01*
X017727Y007546D01*
X017394Y007353D01*
X017122Y007082D01*
X016930Y006749D01*
X016831Y006378D01*
X016831Y005993D01*
X016930Y005622D01*
X016995Y005511D02*
X009337Y005511D01*
X009320Y005527D02*
X009320Y009298D01*
X009327Y009336D01*
X009320Y009365D01*
X009320Y009394D01*
X009313Y009411D01*
X009329Y009411D01*
X009435Y009516D01*
X009435Y010059D01*
X009372Y010123D01*
X009435Y010186D01*
X009435Y010729D01*
X009329Y010834D01*
X009299Y010834D01*
X009299Y011136D01*
X009463Y011135D01*
X009531Y011135D01*
X009598Y011135D01*
X049571Y011140D01*
X050470Y010241D01*
X050470Y009525D01*
X050413Y009469D01*
X050413Y008840D01*
X048619Y008840D01*
X048469Y008990D01*
X048374Y009029D01*
X048324Y009029D01*
X048324Y009277D01*
X048784Y009277D01*
X048799Y009262D01*
X049381Y009262D01*
X049487Y009368D01*
X049487Y009910D01*
X049424Y009974D01*
X049451Y010001D01*
X049475Y010042D01*
X049487Y010088D01*
X049487Y010290D01*
X049109Y010290D01*
X049109Y010327D01*
X049487Y010327D01*
X049487Y010529D01*
X049475Y010575D01*
X049451Y010616D01*
X049417Y010649D01*
X049376Y010673D01*
X049330Y010685D01*
X049109Y010685D01*
X049109Y010327D01*
X049072Y010327D01*
X049072Y010685D01*
X048850Y010685D01*
X048804Y010673D01*
X048763Y010649D01*
X048730Y010616D01*
X048706Y010575D01*
X048694Y010529D01*
X048694Y010327D01*
X049072Y010327D01*
X049072Y010290D01*
X048694Y010290D01*
X048694Y010088D01*
X048706Y010042D01*
X048730Y010001D01*
X048757Y009974D01*
X048694Y009910D01*
X048694Y009797D01*
X048227Y009797D01*
X048218Y009806D01*
X047538Y009806D01*
X047459Y009727D01*
X047459Y009727D01*
X047180Y009727D01*
X047180Y009233D01*
X047020Y009233D01*
X046769Y009233D01*
X046769Y009073D01*
X047020Y009073D01*
X047020Y009233D01*
X047020Y009727D01*
X046742Y009727D01*
X046739Y009726D01*
X046733Y009736D01*
X046699Y009770D01*
X046658Y009793D01*
X046612Y009806D01*
X046323Y009806D01*
X046323Y009550D01*
X046323Y009550D01*
X046323Y009806D01*
X046033Y009806D01*
X045988Y009793D01*
X045947Y009770D01*
X045913Y009736D01*
X045889Y009695D01*
X045877Y009649D01*
X045877Y009537D01*
X045877Y009040D01*
X045532Y009040D01*
X045504Y009068D01*
X045379Y009120D01*
X042327Y009120D01*
X042275Y009125D01*
X042260Y009120D01*
X042244Y009120D01*
X042196Y009100D01*
X042146Y009084D01*
X042134Y009074D01*
X042119Y009068D01*
X042082Y009031D01*
X042042Y008998D01*
X042034Y008984D01*
X042023Y008973D01*
X042003Y008924D01*
X039864Y004843D01*
X039851Y004830D01*
X039833Y004784D01*
X039810Y004740D01*
X039808Y004721D01*
X039801Y004704D01*
X039802Y004655D01*
X039797Y004605D01*
X039803Y004587D01*
X039834Y002827D01*
X039783Y002776D01*
X039783Y001721D01*
X039889Y001616D01*
X040385Y001616D01*
X040385Y000951D01*
X040396Y000924D01*
X015476Y000924D01*
X015487Y000951D01*
X015487Y001616D01*
X015983Y001616D01*
X016088Y001721D01*
X016088Y002776D01*
X016022Y002842D01*
X016022Y003743D01*
X015970Y003868D01*
X015875Y003964D01*
X015370Y004468D01*
X015245Y004520D01*
X010327Y004520D01*
X009320Y005527D01*
X008640Y005511D02*
X005230Y005511D01*
X005389Y005352D02*
X008640Y005352D01*
X008692Y005194D02*
X005547Y005194D01*
X005706Y005035D02*
X008850Y005035D01*
X009009Y004877D02*
X005864Y004877D01*
X006023Y004718D02*
X009167Y004718D01*
X009326Y004560D02*
X006181Y004560D01*
X006340Y004401D02*
X009484Y004401D01*
X009643Y004243D02*
X006498Y004243D01*
X006657Y004084D02*
X009801Y004084D01*
X009960Y003926D02*
X006815Y003926D01*
X006974Y003767D02*
X015110Y003767D01*
X015913Y003926D02*
X025209Y003926D01*
X025197Y003938D02*
X025688Y003446D01*
X026266Y003060D01*
X026907Y002795D01*
X027589Y002659D01*
X028283Y002659D01*
X028965Y002795D01*
X029606Y003060D01*
X030184Y003446D01*
X030675Y003938D01*
X031061Y004515D01*
X031327Y005157D01*
X031462Y005838D01*
X031462Y006533D01*
X031327Y007214D01*
X031061Y007856D01*
X030675Y008433D01*
X030184Y008925D01*
X029606Y009311D01*
X028965Y009576D01*
X028283Y009712D01*
X027589Y009712D01*
X026907Y009576D01*
X026266Y009311D01*
X025688Y008925D01*
X025197Y008433D01*
X024811Y007856D01*
X024545Y007214D01*
X024409Y006533D01*
X024409Y005838D01*
X024545Y005157D01*
X024811Y004515D01*
X025197Y003938D01*
X025099Y004084D02*
X015754Y004084D01*
X015596Y004243D02*
X024993Y004243D01*
X024887Y004401D02*
X015437Y004401D01*
X017638Y004877D02*
X009971Y004877D01*
X010129Y004718D02*
X024727Y004718D01*
X024792Y004560D02*
X010288Y004560D01*
X009812Y005035D02*
X017377Y005035D01*
X017218Y005194D02*
X009654Y005194D01*
X009495Y005352D02*
X017086Y005352D01*
X016875Y005828D02*
X011101Y005828D01*
X011169Y005986D02*
X016833Y005986D01*
X016831Y006145D02*
X011201Y006145D01*
X011201Y006303D02*
X016831Y006303D01*
X016853Y006462D02*
X011138Y006462D01*
X011024Y006620D02*
X016896Y006620D01*
X016947Y006779D02*
X010774Y006779D01*
X010382Y006779D02*
X009320Y006779D01*
X009320Y006937D02*
X017039Y006937D01*
X017136Y007096D02*
X009320Y007096D01*
X008640Y007096D02*
X008409Y007096D01*
X008443Y006937D02*
X008640Y006937D01*
X008640Y006779D02*
X008435Y006779D01*
X006907Y007096D02*
X006040Y007096D01*
X005520Y007096D02*
X003645Y007096D01*
X003804Y006937D02*
X005520Y006937D01*
X005520Y006779D02*
X003962Y006779D01*
X004121Y006620D02*
X005520Y006620D01*
X005409Y006462D02*
X004279Y006462D01*
X004438Y006303D02*
X005409Y006303D01*
X005409Y006145D02*
X004596Y006145D01*
X004755Y005986D02*
X005409Y005986D01*
X005509Y005828D02*
X004913Y005828D01*
X005072Y005669D02*
X008640Y005669D01*
X008640Y005828D02*
X006699Y005828D01*
X006832Y005986D02*
X008640Y005986D01*
X007577Y006083D02*
X007577Y006083D01*
X006474Y005986D02*
X006437Y005986D01*
X006437Y005828D02*
X006474Y005828D01*
X006212Y005828D02*
X006064Y005828D01*
X005786Y006218D02*
X005780Y006251D01*
X005780Y008180D01*
X006095Y008495D01*
X006422Y008495D01*
X005913Y008681D02*
X005458Y008681D01*
X005458Y008522D02*
X005754Y008522D01*
X005596Y008364D02*
X005408Y008364D01*
X005520Y008205D02*
X004857Y008205D01*
X004857Y008047D02*
X005520Y008047D01*
X005520Y007888D02*
X004857Y007888D01*
X004857Y007730D02*
X005520Y007730D01*
X005520Y007571D02*
X004827Y007571D01*
X005520Y007413D02*
X003520Y007413D01*
X003520Y007254D02*
X005520Y007254D01*
X006040Y007254D02*
X006977Y007254D01*
X007017Y007342D02*
X007017Y007342D01*
X007095Y007413D02*
X006040Y007413D01*
X006040Y007571D02*
X007286Y007571D01*
X007577Y007666D02*
X007577Y007666D01*
X007906Y007631D02*
X007906Y007631D01*
X008010Y007571D02*
X008640Y007571D01*
X008640Y007413D02*
X008231Y007413D01*
X008193Y007466D02*
X008193Y007466D01*
X008193Y007466D01*
X008346Y007254D02*
X008640Y007254D01*
X009320Y007254D02*
X017295Y007254D01*
X017496Y007413D02*
X009320Y007413D01*
X009320Y007571D02*
X017822Y007571D01*
X018759Y007571D02*
X024693Y007571D01*
X024758Y007730D02*
X009320Y007730D01*
X008640Y007730D02*
X006040Y007730D01*
X006040Y007888D02*
X008640Y007888D01*
X008640Y008047D02*
X006040Y008047D01*
X006173Y008205D02*
X008640Y008205D01*
X009320Y008205D02*
X025044Y008205D01*
X024938Y008047D02*
X009320Y008047D01*
X009320Y007888D02*
X024832Y007888D01*
X024627Y007413D02*
X019084Y007413D01*
X019286Y007254D02*
X024561Y007254D01*
X024521Y007096D02*
X019444Y007096D01*
X019542Y006937D02*
X024490Y006937D01*
X024458Y006779D02*
X019633Y006779D01*
X019685Y006620D02*
X024427Y006620D01*
X024409Y006462D02*
X019727Y006462D01*
X019750Y006303D02*
X024409Y006303D01*
X024409Y006145D02*
X019750Y006145D01*
X019748Y005986D02*
X024409Y005986D01*
X024412Y005828D02*
X019705Y005828D01*
X019663Y005669D02*
X024443Y005669D01*
X024475Y005511D02*
X019586Y005511D01*
X019494Y005352D02*
X024506Y005352D01*
X024538Y005194D02*
X019362Y005194D01*
X019204Y005035D02*
X024595Y005035D01*
X024661Y004877D02*
X018942Y004877D01*
X016012Y003767D02*
X025367Y003767D01*
X025526Y003609D02*
X016022Y003609D01*
X016022Y003450D02*
X025684Y003450D01*
X025920Y003292D02*
X016022Y003292D01*
X016022Y003133D02*
X026157Y003133D01*
X026473Y002975D02*
X016022Y002975D01*
X016048Y002816D02*
X026856Y002816D01*
X029016Y002816D02*
X039824Y002816D01*
X039783Y002658D02*
X016088Y002658D01*
X016088Y002499D02*
X039783Y002499D01*
X039783Y002341D02*
X016088Y002341D01*
X016088Y002182D02*
X039783Y002182D01*
X039783Y002024D02*
X016088Y002024D01*
X016088Y001865D02*
X039783Y001865D01*
X039798Y001707D02*
X016074Y001707D01*
X015487Y001548D02*
X040385Y001548D01*
X040385Y001390D02*
X015487Y001390D01*
X015487Y001231D02*
X040385Y001231D01*
X040385Y001073D02*
X015487Y001073D01*
X014018Y000924D02*
X006792Y000924D01*
X006811Y000939D01*
X006868Y000996D01*
X006915Y001061D01*
X006952Y001132D01*
X006977Y001209D01*
X006989Y001288D01*
X006989Y001640D01*
X006498Y001640D01*
X006498Y001676D01*
X006989Y001676D01*
X006989Y002028D01*
X006977Y002107D01*
X006952Y002184D01*
X006915Y002255D01*
X006868Y002320D01*
X006811Y002377D01*
X006747Y002424D01*
X006675Y002461D01*
X006599Y002485D01*
X006519Y002498D01*
X006498Y002498D01*
X006498Y001676D01*
X006461Y001676D01*
X006461Y001640D01*
X005969Y001640D01*
X005969Y001288D01*
X005982Y001209D01*
X006007Y001132D01*
X006043Y001061D01*
X006090Y000996D01*
X006147Y000939D01*
X006167Y000924D01*
X005616Y000924D01*
X005730Y001039D01*
X005808Y001227D01*
X005808Y002089D01*
X005730Y002277D01*
X005587Y002420D01*
X005400Y002498D01*
X005197Y002498D01*
X005131Y002471D01*
X004715Y003046D01*
X004713Y003053D01*
X004676Y003101D01*
X004641Y003150D01*
X004634Y003154D01*
X003970Y003997D01*
X003961Y004017D01*
X003928Y004050D01*
X003899Y004087D01*
X003881Y004097D01*
X003865Y004112D01*
X003822Y004130D01*
X003781Y004153D01*
X003760Y004155D01*
X003740Y004164D01*
X003693Y004163D01*
X003647Y004169D01*
X003626Y004163D01*
X003297Y004162D01*
X003297Y004333D01*
X003192Y004438D01*
X002334Y004438D01*
X002229Y004333D01*
X002229Y003357D01*
X002334Y003251D01*
X003192Y003251D01*
X003297Y003357D01*
X003297Y003482D01*
X003510Y003483D01*
X004133Y002691D01*
X004788Y001784D01*
X004788Y001227D01*
X004866Y001039D01*
X004980Y000924D01*
X003805Y000924D01*
X003538Y001212D01*
X003544Y001227D01*
X003544Y002089D01*
X003467Y002277D01*
X003323Y002420D01*
X003136Y002498D01*
X002933Y002498D01*
X002745Y002420D01*
X002602Y002277D01*
X002524Y002089D01*
X002524Y001227D01*
X002602Y001039D01*
X002745Y000896D01*
X002933Y000818D01*
X003085Y000818D01*
X003417Y000460D01*
X000557Y000460D01*
X000557Y011911D01*
X055315Y011911D01*
X055315Y000460D01*
X054180Y000460D01*
X054196Y000476D01*
X054281Y000561D01*
X054326Y000671D01*
X054326Y000915D01*
X054451Y001039D01*
X054529Y001227D01*
X054529Y002089D01*
X054451Y002277D01*
X054363Y002365D01*
X054631Y002634D01*
X054716Y002718D01*
X054761Y002829D01*
X054761Y003183D01*
X054767Y003183D01*
X054872Y003289D01*
X054872Y003831D01*
X054809Y003895D01*
X054872Y003958D01*
X054872Y004501D01*
X054767Y004606D01*
X054761Y004606D01*
X054761Y004818D01*
X054716Y004928D01*
X054631Y005013D01*
X054385Y005259D01*
X054275Y005304D01*
X052473Y005304D01*
X052473Y005477D01*
X052368Y005583D01*
X051509Y005583D01*
X051403Y005477D01*
X051403Y004698D01*
X051509Y004593D01*
X052368Y004593D01*
X052473Y004698D01*
X052473Y004704D01*
X052601Y004704D01*
X052601Y004290D01*
X052664Y004226D01*
X052601Y004163D01*
X052601Y003620D01*
X052697Y003524D01*
X052697Y003418D01*
X052516Y003237D01*
X052252Y003237D01*
X052252Y003473D01*
X052368Y003473D01*
X052473Y003579D01*
X052473Y004358D01*
X052368Y004463D01*
X051509Y004463D01*
X051403Y004358D01*
X051403Y003579D01*
X051509Y003473D01*
X051652Y003473D01*
X051652Y003138D01*
X050093Y003131D01*
X050054Y003136D01*
X050034Y003131D01*
X050013Y003131D01*
X049977Y003116D01*
X049939Y003106D01*
X049922Y003093D01*
X049903Y003085D01*
X049875Y003057D01*
X049844Y003033D01*
X049834Y003015D01*
X049819Y003000D01*
X049804Y002964D01*
X049526Y002485D01*
X049494Y002498D01*
X049291Y002498D01*
X049104Y002420D01*
X048960Y002277D01*
X048883Y002089D01*
X048883Y001227D01*
X048960Y001039D01*
X049075Y000924D01*
X041854Y000924D01*
X041865Y000951D01*
X041865Y001616D01*
X042361Y001616D01*
X042398Y001653D01*
X044480Y001653D01*
X044605Y001704D01*
X047270Y004369D01*
X049756Y004369D01*
X049880Y004421D01*
X051207Y005747D01*
X052118Y005747D01*
X052243Y005799D01*
X052932Y006488D01*
X053027Y006583D01*
X053079Y006708D01*
X053079Y008397D01*
X053096Y008414D01*
X053096Y009469D01*
X052991Y009574D01*
X052495Y009574D01*
X052495Y010239D01*
X052458Y010327D01*
X052391Y010395D01*
X052303Y010431D01*
X051207Y010431D01*
X051150Y010408D01*
X051150Y010449D01*
X051098Y010574D01*
X050000Y011673D01*
X049947Y011726D01*
X049904Y011768D01*
X049904Y011768D01*
X049904Y011768D01*
X049837Y011796D01*
X049779Y011820D01*
X049707Y011820D01*
X049644Y011820D01*
X049644Y011820D01*
X009531Y011815D01*
X009107Y011816D01*
X006650Y011821D01*
X006649Y011822D01*
X006582Y011822D01*
X006515Y011822D01*
X006514Y011822D01*
X002852Y011822D01*
X002807Y011840D01*
X002671Y011840D01*
X002546Y011789D01*
X002451Y011693D01*
X001565Y010807D01*
X001513Y010682D01*
X001513Y007201D01*
X001565Y007076D01*
X001661Y006980D01*
X002423Y006218D01*
X002423Y006170D01*
X002334Y006170D01*
X002229Y006065D01*
X002229Y005089D01*
X002334Y004983D01*
X003192Y004983D01*
X003297Y005089D01*
X003297Y006065D01*
X003192Y006170D01*
X003103Y006170D01*
X003103Y006426D01*
X003051Y006551D01*
X002193Y007409D01*
X002193Y010474D01*
X002861Y011142D01*
X004722Y011142D01*
X004722Y010408D01*
X004665Y010431D01*
X003569Y010431D01*
X003481Y010395D01*
X003414Y010327D01*
X003377Y010239D01*
X003377Y009574D01*
X002881Y009574D01*
X002776Y009469D01*
X002776Y008414D01*
X002840Y008350D01*
X002840Y007012D01*
X002892Y006887D01*
X007467Y002312D01*
X007563Y002216D01*
X007688Y002164D01*
X013406Y002164D01*
X013406Y001721D01*
X013511Y001616D01*
X014007Y001616D01*
X014007Y000951D01*
X014018Y000924D01*
X014007Y001073D02*
X006921Y001073D01*
X006980Y001231D02*
X014007Y001231D01*
X014007Y001390D02*
X006989Y001390D01*
X006989Y001548D02*
X014007Y001548D01*
X013420Y001707D02*
X006989Y001707D01*
X006498Y001707D02*
X006461Y001707D01*
X006461Y001676D02*
X006461Y002498D01*
X006439Y002498D01*
X006360Y002485D01*
X006283Y002461D01*
X006212Y002424D01*
X006147Y002377D01*
X006090Y002320D01*
X006043Y002255D01*
X006007Y002184D01*
X005982Y002107D01*
X005969Y002028D01*
X005969Y001676D01*
X006461Y001676D01*
X005969Y001707D02*
X005808Y001707D01*
X005808Y001548D02*
X005969Y001548D01*
X005969Y001390D02*
X005808Y001390D01*
X005808Y001231D02*
X005978Y001231D01*
X006037Y001073D02*
X005744Y001073D01*
X004852Y001073D02*
X003667Y001073D01*
X003544Y001231D02*
X004788Y001231D01*
X004788Y001390D02*
X003544Y001390D01*
X003544Y001548D02*
X004788Y001548D01*
X004788Y001707D02*
X003544Y001707D01*
X003544Y001865D02*
X004729Y001865D01*
X004615Y002024D02*
X003544Y002024D01*
X003506Y002182D02*
X004501Y002182D01*
X004386Y002341D02*
X003403Y002341D01*
X004272Y002499D02*
X000557Y002499D01*
X000557Y002341D02*
X001485Y002341D01*
X001421Y002277D02*
X001564Y002420D01*
X001752Y002498D01*
X001955Y002498D01*
X002142Y002420D01*
X002286Y002277D01*
X002363Y002089D01*
X002363Y001227D01*
X002286Y001039D01*
X002142Y000896D01*
X001955Y000818D01*
X001752Y000818D01*
X001564Y000896D01*
X001421Y001039D01*
X001343Y001227D01*
X001343Y002089D01*
X001421Y002277D01*
X001382Y002182D02*
X000557Y002182D01*
X000557Y002024D02*
X001343Y002024D01*
X001343Y001865D02*
X000557Y001865D01*
X000557Y001707D02*
X001343Y001707D01*
X001343Y001548D02*
X000557Y001548D01*
X000557Y001390D02*
X001343Y001390D01*
X001343Y001231D02*
X000557Y001231D01*
X000557Y001073D02*
X001407Y001073D01*
X001546Y000914D02*
X000557Y000914D01*
X000557Y000756D02*
X003143Y000756D01*
X002727Y000914D02*
X002161Y000914D01*
X002299Y001073D02*
X002588Y001073D01*
X002524Y001231D02*
X002363Y001231D01*
X002363Y001390D02*
X002524Y001390D01*
X002524Y001548D02*
X002363Y001548D01*
X002363Y001707D02*
X002524Y001707D01*
X002524Y001865D02*
X002363Y001865D01*
X002363Y002024D02*
X002524Y002024D01*
X002563Y002182D02*
X002325Y002182D01*
X002222Y002341D02*
X002666Y002341D01*
X004035Y002816D02*
X000557Y002816D01*
X000557Y002658D02*
X004157Y002658D01*
X004882Y002816D02*
X006963Y002816D01*
X007122Y002658D02*
X004996Y002658D01*
X005110Y002499D02*
X007280Y002499D01*
X007439Y002341D02*
X006848Y002341D01*
X006498Y002341D02*
X006461Y002341D01*
X006111Y002341D02*
X005667Y002341D01*
X005770Y002182D02*
X006006Y002182D01*
X005969Y002024D02*
X005808Y002024D01*
X005808Y001865D02*
X005969Y001865D01*
X006461Y001865D02*
X006498Y001865D01*
X006498Y002024D02*
X006461Y002024D01*
X006461Y002182D02*
X006498Y002182D01*
X006952Y002182D02*
X007645Y002182D01*
X006989Y002024D02*
X013406Y002024D01*
X013406Y001865D02*
X006989Y001865D01*
X006805Y002975D02*
X004767Y002975D01*
X004653Y003133D02*
X006646Y003133D01*
X006488Y003292D02*
X004526Y003292D01*
X004401Y003450D02*
X006329Y003450D01*
X006171Y003609D02*
X004276Y003609D01*
X004151Y003767D02*
X006012Y003767D01*
X005854Y003926D02*
X004026Y003926D01*
X003902Y004084D02*
X005695Y004084D01*
X005537Y004243D02*
X003297Y004243D01*
X003229Y004401D02*
X005378Y004401D01*
X005220Y004560D02*
X000557Y004560D01*
X000557Y004718D02*
X005061Y004718D01*
X004903Y004877D02*
X000557Y004877D01*
X000557Y005035D02*
X002283Y005035D01*
X002229Y005194D02*
X000557Y005194D01*
X000557Y005352D02*
X002229Y005352D01*
X002229Y005511D02*
X000557Y005511D01*
X000557Y005669D02*
X002229Y005669D01*
X002229Y005828D02*
X000557Y005828D01*
X000557Y005986D02*
X002229Y005986D01*
X002308Y006145D02*
X000557Y006145D01*
X000557Y006303D02*
X002338Y006303D01*
X002179Y006462D02*
X000557Y006462D01*
X000557Y006620D02*
X002021Y006620D01*
X001862Y006779D02*
X000557Y006779D01*
X000557Y006937D02*
X001704Y006937D01*
X001557Y007096D02*
X000557Y007096D01*
X000557Y007254D02*
X001513Y007254D01*
X001513Y007413D02*
X000557Y007413D01*
X000557Y007571D02*
X001513Y007571D01*
X001513Y007730D02*
X000557Y007730D01*
X000557Y007888D02*
X001513Y007888D01*
X001513Y008047D02*
X000557Y008047D01*
X000557Y008205D02*
X001513Y008205D01*
X002193Y008205D02*
X002840Y008205D01*
X002840Y008047D02*
X002193Y008047D01*
X002193Y007888D02*
X002840Y007888D01*
X002840Y007730D02*
X002193Y007730D01*
X002193Y007571D02*
X002840Y007571D01*
X002840Y007413D02*
X002193Y007413D01*
X002348Y007254D02*
X002840Y007254D01*
X002840Y007096D02*
X002507Y007096D01*
X002665Y006937D02*
X002871Y006937D01*
X002824Y006779D02*
X003001Y006779D01*
X002982Y006620D02*
X003159Y006620D01*
X003088Y006462D02*
X003318Y006462D01*
X003476Y006303D02*
X003103Y006303D01*
X003218Y006145D02*
X003635Y006145D01*
X003793Y005986D02*
X003297Y005986D01*
X003297Y005828D02*
X003952Y005828D01*
X004110Y005669D02*
X003297Y005669D01*
X003297Y005511D02*
X004269Y005511D01*
X004427Y005352D02*
X003297Y005352D01*
X003297Y005194D02*
X004586Y005194D01*
X004744Y005035D02*
X003244Y005035D01*
X002297Y004401D02*
X000557Y004401D01*
X000557Y004243D02*
X002229Y004243D01*
X002229Y004084D02*
X000557Y004084D01*
X000557Y003926D02*
X002229Y003926D01*
X002229Y003767D02*
X000557Y003767D01*
X000557Y003609D02*
X002229Y003609D01*
X002229Y003450D02*
X000557Y003450D01*
X000557Y003292D02*
X002294Y003292D01*
X003232Y003292D02*
X003660Y003292D01*
X003785Y003133D02*
X000557Y003133D01*
X000557Y002975D02*
X003910Y002975D01*
X003535Y003450D02*
X003297Y003450D01*
X007132Y003609D02*
X014033Y003609D01*
X014007Y003450D02*
X007291Y003450D01*
X007449Y003292D02*
X014007Y003292D01*
X014007Y003133D02*
X007608Y003133D01*
X007766Y002975D02*
X014007Y002975D01*
X014452Y002741D02*
X014452Y002544D01*
X014599Y002396D01*
X003290Y000597D02*
X000557Y000597D01*
X029399Y002975D02*
X039832Y002975D01*
X039829Y003133D02*
X029715Y003133D01*
X029952Y003292D02*
X039826Y003292D01*
X039823Y003450D02*
X030188Y003450D01*
X030346Y003609D02*
X039820Y003609D01*
X039818Y003767D02*
X030505Y003767D01*
X030663Y003926D02*
X039815Y003926D01*
X040495Y003926D02*
X045864Y003926D01*
X045706Y003767D02*
X040498Y003767D01*
X040499Y003706D02*
X040484Y004561D01*
X042517Y008440D01*
X045379Y008440D01*
X045504Y008492D01*
X045532Y008520D01*
X045963Y008520D01*
X045983Y008501D01*
X046663Y008501D01*
X046742Y008580D01*
X046742Y008580D01*
X047020Y008580D01*
X047020Y009073D01*
X047180Y009073D01*
X047180Y008580D01*
X047459Y008580D01*
X047538Y008501D01*
X048218Y008501D01*
X048221Y008503D01*
X048291Y008433D01*
X048291Y008433D01*
X048364Y008360D01*
X048460Y008320D01*
X048649Y008320D01*
X048649Y008230D01*
X048618Y008230D01*
X048513Y008124D01*
X048513Y007581D01*
X048576Y007518D01*
X048549Y007491D01*
X048525Y007450D01*
X048513Y007404D01*
X048513Y007202D01*
X048891Y007202D01*
X048891Y007165D01*
X048928Y007165D01*
X048928Y007202D01*
X049306Y007202D01*
X049306Y007404D01*
X049293Y007450D01*
X049270Y007491D01*
X049242Y007518D01*
X049306Y007581D01*
X049306Y008124D01*
X049200Y008230D01*
X049169Y008230D01*
X049169Y008320D01*
X050507Y008320D01*
X050519Y008309D01*
X050697Y008309D01*
X050703Y008306D01*
X050838Y008306D01*
X050844Y008309D01*
X051015Y008309D01*
X051015Y007644D01*
X051051Y007555D01*
X051119Y007488D01*
X051207Y007451D01*
X052303Y007451D01*
X052391Y007488D01*
X052399Y007496D01*
X052399Y006917D01*
X051909Y006427D01*
X050998Y006427D01*
X050873Y006375D01*
X050778Y006280D01*
X049547Y005049D01*
X047061Y005049D01*
X046936Y004997D01*
X046841Y004902D01*
X044271Y002333D01*
X042466Y002333D01*
X042466Y002776D01*
X042361Y002881D01*
X041865Y002881D01*
X041865Y003546D01*
X041828Y003634D01*
X041761Y003702D01*
X041673Y003739D01*
X040577Y003739D01*
X040499Y003706D01*
X041839Y003609D02*
X045547Y003609D01*
X045389Y003450D02*
X041865Y003450D01*
X041865Y003292D02*
X045230Y003292D01*
X045072Y003133D02*
X041865Y003133D01*
X041865Y002975D02*
X044913Y002975D01*
X044755Y002816D02*
X042426Y002816D01*
X042466Y002658D02*
X044596Y002658D01*
X044438Y002499D02*
X042466Y002499D01*
X042466Y002341D02*
X044279Y002341D01*
X045241Y002341D02*
X049024Y002341D01*
X049534Y002499D02*
X045400Y002499D01*
X045558Y002658D02*
X049626Y002658D01*
X049718Y002816D02*
X045717Y002816D01*
X045875Y002975D02*
X049808Y002975D01*
X050041Y003133D02*
X046034Y003133D01*
X046192Y003292D02*
X051652Y003292D01*
X052252Y003292D02*
X052570Y003292D01*
X052697Y003450D02*
X052252Y003450D01*
X052473Y003609D02*
X052613Y003609D01*
X052601Y003767D02*
X052473Y003767D01*
X052473Y003926D02*
X052601Y003926D01*
X052601Y004084D02*
X052473Y004084D01*
X052473Y004243D02*
X052648Y004243D01*
X052601Y004401D02*
X052430Y004401D01*
X051447Y004401D02*
X049832Y004401D01*
X050019Y004560D02*
X052601Y004560D01*
X051403Y004718D02*
X050178Y004718D01*
X050336Y004877D02*
X051403Y004877D01*
X051403Y005035D02*
X050495Y005035D01*
X050653Y005194D02*
X051403Y005194D01*
X051403Y005352D02*
X050812Y005352D01*
X050970Y005511D02*
X051436Y005511D01*
X052440Y005511D02*
X055315Y005511D01*
X055315Y005352D02*
X052473Y005352D01*
X051129Y005669D02*
X055315Y005669D01*
X055315Y005828D02*
X052271Y005828D01*
X052430Y005986D02*
X055315Y005986D01*
X055315Y006145D02*
X052588Y006145D01*
X052747Y006303D02*
X055315Y006303D01*
X055315Y006462D02*
X052905Y006462D01*
X053042Y006620D02*
X055315Y006620D01*
X055315Y006779D02*
X053079Y006779D01*
X053079Y006937D02*
X055315Y006937D01*
X055315Y007096D02*
X053079Y007096D01*
X053079Y007254D02*
X055315Y007254D01*
X055315Y007413D02*
X053079Y007413D01*
X053079Y007571D02*
X055315Y007571D01*
X055315Y007730D02*
X053079Y007730D01*
X053079Y007888D02*
X055315Y007888D01*
X055315Y008047D02*
X053079Y008047D01*
X053079Y008205D02*
X055315Y008205D01*
X055315Y008364D02*
X053079Y008364D01*
X053096Y008522D02*
X055315Y008522D01*
X055315Y008681D02*
X053096Y008681D01*
X053096Y008839D02*
X055315Y008839D01*
X055315Y008998D02*
X053096Y008998D01*
X053096Y009156D02*
X055315Y009156D01*
X055315Y009315D02*
X053096Y009315D01*
X053092Y009473D02*
X055315Y009473D01*
X055315Y009632D02*
X052495Y009632D01*
X052495Y009790D02*
X055315Y009790D01*
X055315Y009949D02*
X052495Y009949D01*
X052495Y010107D02*
X055315Y010107D01*
X055315Y010266D02*
X052484Y010266D01*
X052320Y010424D02*
X055315Y010424D01*
X055315Y010583D02*
X051090Y010583D01*
X050931Y010741D02*
X055315Y010741D01*
X055315Y010900D02*
X050773Y010900D01*
X049970Y010741D02*
X044760Y010741D01*
X044807Y010714D02*
X044520Y010879D01*
X044191Y010914D01*
X043877Y010811D01*
X043631Y010590D01*
X043496Y010288D01*
X043496Y009957D01*
X043631Y009655D01*
X043631Y009655D01*
X043877Y009434D01*
X044191Y009331D01*
X044520Y009366D01*
X044807Y009531D01*
X044807Y009531D01*
X044807Y009531D01*
X045001Y009799D01*
X045070Y010123D01*
X045001Y010446D01*
X044807Y010714D01*
X044807Y010714D01*
X044902Y010583D02*
X048710Y010583D01*
X049072Y010583D02*
X049109Y010583D01*
X049470Y010583D02*
X050128Y010583D01*
X050287Y010424D02*
X049487Y010424D01*
X049487Y010266D02*
X050445Y010266D01*
X050470Y010107D02*
X049487Y010107D01*
X049449Y009949D02*
X050470Y009949D01*
X050470Y009790D02*
X049487Y009790D01*
X049487Y009632D02*
X050470Y009632D01*
X050418Y009473D02*
X049487Y009473D01*
X049210Y009537D02*
X049090Y009639D01*
X049210Y009537D02*
X047878Y009537D01*
X047261Y009380D02*
X047104Y009537D01*
X047111Y009544D01*
X047111Y010080D01*
X047379Y010348D01*
X049090Y010308D01*
X049072Y010424D02*
X049109Y010424D01*
X048694Y010424D02*
X045006Y010424D01*
X045001Y010446D02*
X045001Y010446D01*
X045040Y010266D02*
X048694Y010266D01*
X048694Y010107D02*
X045067Y010107D01*
X045033Y009949D02*
X048732Y009949D01*
X047522Y009790D02*
X046664Y009790D01*
X046323Y009790D02*
X046323Y009790D01*
X046323Y009632D02*
X046323Y009632D01*
X046323Y009537D02*
X045756Y009537D01*
X045751Y009532D01*
X045877Y009537D02*
X045970Y009537D01*
X045970Y009537D01*
X045877Y009537D01*
X045877Y009473D02*
X044706Y009473D01*
X044520Y009366D02*
X044520Y009366D01*
X044191Y009331D02*
X044191Y009331D01*
X043877Y009434D02*
X043877Y009434D01*
X043833Y009473D02*
X029214Y009473D01*
X028688Y009632D02*
X043657Y009632D01*
X043571Y009790D02*
X009435Y009790D01*
X009435Y009632D02*
X027184Y009632D01*
X026658Y009473D02*
X009391Y009473D01*
X008980Y009326D02*
X008980Y009896D01*
X009038Y009788D01*
X008642Y009790D02*
X006050Y009790D01*
X006050Y009632D02*
X008642Y009632D01*
X008642Y009620D02*
X008512Y009620D01*
X008387Y009568D01*
X008341Y009522D01*
X008326Y009522D01*
X008318Y009531D01*
X007637Y009531D01*
X007558Y009452D01*
X007280Y009452D01*
X007280Y008958D01*
X007531Y008958D01*
X007531Y008798D01*
X007280Y008798D01*
X007280Y008958D01*
X007120Y008958D01*
X006868Y008958D01*
X006868Y008798D01*
X007120Y008798D01*
X007120Y008958D01*
X007120Y009452D01*
X006841Y009452D01*
X006762Y009531D01*
X006082Y009531D01*
X006073Y009522D01*
X006050Y009522D01*
X006050Y010015D01*
X006176Y010140D01*
X006466Y010140D01*
X006466Y010109D01*
X006572Y010004D01*
X007114Y010004D01*
X007178Y010067D01*
X007205Y010040D01*
X007246Y010016D01*
X007292Y010004D01*
X007494Y010004D01*
X007494Y010382D01*
X007531Y010382D01*
X007531Y010419D01*
X007889Y010419D01*
X007889Y010641D01*
X007877Y010686D01*
X007853Y010728D01*
X007820Y010761D01*
X007779Y010785D01*
X007733Y010797D01*
X007531Y010797D01*
X007531Y010419D01*
X007494Y010419D01*
X007494Y010797D01*
X007292Y010797D01*
X007246Y010785D01*
X007205Y010761D01*
X007178Y010734D01*
X007114Y010797D01*
X006572Y010797D01*
X006466Y010692D01*
X006466Y010660D01*
X006016Y010660D01*
X005921Y010621D01*
X005643Y010343D01*
X005570Y010270D01*
X005530Y010174D01*
X005530Y009522D01*
X005405Y009522D01*
X005402Y009525D01*
X005402Y011142D01*
X006581Y011142D01*
X008779Y011137D01*
X008779Y010834D01*
X008747Y010834D01*
X008642Y010729D01*
X008642Y010186D01*
X008705Y010123D01*
X008642Y010059D01*
X008642Y009620D01*
X007579Y009473D02*
X006820Y009473D01*
X006841Y009452D02*
X006841Y009452D01*
X007558Y009452D02*
X007558Y009452D01*
X007280Y009315D02*
X007120Y009315D01*
X007120Y009156D02*
X007280Y009156D01*
X007280Y008998D02*
X007120Y008998D01*
X007200Y008910D02*
X007030Y009080D01*
X007200Y008910D02*
X007200Y008878D01*
X007280Y008839D02*
X007531Y008839D01*
X007120Y008839D02*
X006868Y008839D01*
X007030Y008680D02*
X007215Y008495D01*
X007977Y008495D01*
X008402Y008495D01*
X008448Y008449D01*
X008423Y008495D02*
X008330Y008495D01*
X008423Y008495D01*
X008423Y008522D02*
X008640Y008522D01*
X008640Y008364D02*
X008418Y008364D01*
X008330Y008495D02*
X008330Y008495D01*
X008423Y008681D02*
X008640Y008681D01*
X009320Y008681D02*
X025444Y008681D01*
X025285Y008522D02*
X009320Y008522D01*
X009320Y008364D02*
X025150Y008364D01*
X025602Y008839D02*
X009320Y008839D01*
X009320Y008998D02*
X025797Y008998D01*
X026034Y009156D02*
X009320Y009156D01*
X009323Y009315D02*
X026275Y009315D01*
X029597Y009315D02*
X045877Y009315D01*
X045877Y009156D02*
X029838Y009156D01*
X030075Y008998D02*
X042042Y008998D01*
X041959Y008839D02*
X030270Y008839D01*
X030428Y008681D02*
X041875Y008681D01*
X041792Y008522D02*
X030587Y008522D01*
X030722Y008364D02*
X041709Y008364D01*
X041626Y008205D02*
X030828Y008205D01*
X030934Y008047D02*
X041543Y008047D01*
X041460Y007888D02*
X031040Y007888D01*
X031113Y007730D02*
X041377Y007730D01*
X041294Y007571D02*
X038050Y007571D01*
X038145Y007546D02*
X037774Y007645D01*
X037389Y007645D01*
X037018Y007546D01*
X036685Y007353D01*
X036414Y007082D01*
X036222Y006749D01*
X036122Y006378D01*
X036122Y005993D01*
X036222Y005622D01*
X036414Y005289D01*
X036685Y005018D01*
X037018Y004825D01*
X037389Y004726D01*
X037774Y004726D01*
X038145Y004825D01*
X038478Y005018D01*
X038749Y005289D01*
X038942Y005622D01*
X039041Y005993D01*
X039041Y006378D01*
X038942Y006749D01*
X038749Y007082D01*
X038478Y007353D01*
X038145Y007546D01*
X038375Y007413D02*
X041211Y007413D01*
X041128Y007254D02*
X038577Y007254D01*
X038736Y007096D02*
X041044Y007096D01*
X040961Y006937D02*
X038833Y006937D01*
X038925Y006779D02*
X040878Y006779D01*
X041646Y006779D02*
X045098Y006779D01*
X045170Y006808D02*
X044941Y006714D01*
X044766Y006538D01*
X044671Y006309D01*
X044671Y006062D01*
X044766Y005833D01*
X044941Y005657D01*
X045170Y005563D01*
X045418Y005563D01*
X045647Y005657D01*
X045822Y005833D01*
X045917Y006062D01*
X045917Y006309D01*
X045822Y006538D01*
X045647Y006714D01*
X045418Y006808D01*
X045170Y006808D01*
X045490Y006779D02*
X052261Y006779D01*
X052399Y006937D02*
X049299Y006937D01*
X049293Y006917D02*
X049306Y006963D01*
X049306Y007165D01*
X048928Y007165D01*
X048928Y006807D01*
X049149Y006807D01*
X049195Y006819D01*
X049236Y006843D01*
X049270Y006876D01*
X049293Y006917D01*
X049306Y007096D02*
X052399Y007096D01*
X052399Y007254D02*
X049306Y007254D01*
X049303Y007413D02*
X052399Y007413D01*
X051045Y007571D02*
X049295Y007571D01*
X049306Y007730D02*
X051015Y007730D01*
X051015Y007888D02*
X049306Y007888D01*
X049306Y008047D02*
X051015Y008047D01*
X051015Y008205D02*
X049225Y008205D01*
X048593Y008205D02*
X042394Y008205D01*
X042311Y008047D02*
X048513Y008047D01*
X048513Y007888D02*
X042228Y007888D01*
X042145Y007730D02*
X048513Y007730D01*
X048523Y007571D02*
X042062Y007571D01*
X041978Y007413D02*
X048515Y007413D01*
X048513Y007254D02*
X041895Y007254D01*
X041812Y007096D02*
X048513Y007096D01*
X048513Y007165D02*
X048513Y006963D01*
X048525Y006917D01*
X048549Y006876D01*
X048582Y006843D01*
X048623Y006819D01*
X048669Y006807D01*
X048891Y006807D01*
X048891Y007165D01*
X048513Y007165D01*
X048891Y007096D02*
X048928Y007096D01*
X048928Y006937D02*
X048891Y006937D01*
X048520Y006937D02*
X041729Y006937D01*
X041563Y006620D02*
X044848Y006620D01*
X044734Y006462D02*
X041480Y006462D01*
X041397Y006303D02*
X044671Y006303D01*
X044671Y006145D02*
X041314Y006145D01*
X040629Y006303D02*
X039041Y006303D01*
X039041Y006145D02*
X040546Y006145D01*
X040463Y005986D02*
X039039Y005986D01*
X038997Y005828D02*
X040380Y005828D01*
X040297Y005669D02*
X038954Y005669D01*
X038877Y005511D02*
X040214Y005511D01*
X040130Y005352D02*
X038786Y005352D01*
X038654Y005194D02*
X040047Y005194D01*
X039964Y005035D02*
X038495Y005035D01*
X038233Y004877D02*
X039881Y004877D01*
X039807Y004718D02*
X031145Y004718D01*
X031079Y004560D02*
X039804Y004560D01*
X040484Y004560D02*
X046498Y004560D01*
X046657Y004718D02*
X040566Y004718D01*
X040649Y004877D02*
X046815Y004877D01*
X047027Y005035D02*
X040732Y005035D01*
X040815Y005194D02*
X049691Y005194D01*
X049850Y005352D02*
X040898Y005352D01*
X040981Y005511D02*
X050008Y005511D01*
X050167Y005669D02*
X045659Y005669D01*
X045817Y005828D02*
X050325Y005828D01*
X050484Y005986D02*
X045886Y005986D01*
X045917Y006145D02*
X050642Y006145D01*
X050801Y006303D02*
X045917Y006303D01*
X045854Y006462D02*
X051944Y006462D01*
X052102Y006620D02*
X045741Y006620D01*
X044703Y005986D02*
X041231Y005986D01*
X041148Y005828D02*
X044771Y005828D01*
X044930Y005669D02*
X041064Y005669D01*
X040712Y006462D02*
X039019Y006462D01*
X038976Y006620D02*
X040795Y006620D01*
X037113Y007571D02*
X031179Y007571D01*
X031245Y007413D02*
X036788Y007413D01*
X036586Y007254D02*
X031310Y007254D01*
X031350Y007096D02*
X036427Y007096D01*
X036330Y006937D02*
X031382Y006937D01*
X031413Y006779D02*
X036239Y006779D01*
X036187Y006620D02*
X031445Y006620D01*
X031462Y006462D02*
X036145Y006462D01*
X036122Y006303D02*
X031462Y006303D01*
X031462Y006145D02*
X036122Y006145D01*
X036124Y005986D02*
X031462Y005986D01*
X031460Y005828D02*
X036166Y005828D01*
X036209Y005669D02*
X031429Y005669D01*
X031397Y005511D02*
X036286Y005511D01*
X036377Y005352D02*
X031366Y005352D01*
X031334Y005194D02*
X036509Y005194D01*
X036668Y005035D02*
X031276Y005035D01*
X031211Y004877D02*
X036930Y004877D01*
X039806Y004401D02*
X030985Y004401D01*
X030879Y004243D02*
X039809Y004243D01*
X039812Y004084D02*
X030773Y004084D01*
X040489Y004243D02*
X046181Y004243D01*
X046340Y004401D02*
X040487Y004401D01*
X040492Y004084D02*
X046023Y004084D01*
X046826Y003926D02*
X051403Y003926D01*
X051403Y003767D02*
X046668Y003767D01*
X046509Y003609D02*
X051403Y003609D01*
X051652Y003450D02*
X046351Y003450D01*
X046985Y004084D02*
X051403Y004084D01*
X051403Y004243D02*
X047143Y004243D01*
X050080Y003133D02*
X050508Y003133D01*
X054387Y002341D02*
X055315Y002341D01*
X055315Y002499D02*
X054496Y002499D01*
X054655Y002658D02*
X055315Y002658D01*
X055315Y002816D02*
X054756Y002816D01*
X054761Y002975D02*
X055315Y002975D01*
X055315Y003133D02*
X054761Y003133D01*
X054872Y003292D02*
X055315Y003292D01*
X055315Y003450D02*
X054872Y003450D01*
X054872Y003609D02*
X055315Y003609D01*
X055315Y003767D02*
X054872Y003767D01*
X054840Y003926D02*
X055315Y003926D01*
X055315Y004084D02*
X054872Y004084D01*
X054872Y004243D02*
X055315Y004243D01*
X055315Y004401D02*
X054872Y004401D01*
X054813Y004560D02*
X055315Y004560D01*
X055315Y004718D02*
X054761Y004718D01*
X054737Y004877D02*
X055315Y004877D01*
X055315Y005035D02*
X054609Y005035D01*
X054451Y005194D02*
X055315Y005194D01*
X048909Y007853D02*
X048909Y008571D01*
X048900Y008580D01*
X050704Y008580D01*
X050810Y008686D01*
X051460Y008941D02*
X051755Y008941D01*
X050413Y008998D02*
X048451Y008998D01*
X048324Y009156D02*
X050413Y009156D01*
X050413Y009315D02*
X049434Y009315D01*
X048511Y008580D02*
X048322Y008769D01*
X047878Y008769D01*
X047180Y008839D02*
X047020Y008839D01*
X047020Y008998D02*
X047180Y008998D01*
X047180Y009073D02*
X047432Y009073D01*
X047432Y009233D01*
X047180Y009233D01*
X047180Y009073D01*
X047180Y009156D02*
X047432Y009156D01*
X047180Y009315D02*
X047020Y009315D01*
X046911Y009342D02*
X047100Y009153D01*
X047020Y009156D02*
X046769Y009156D01*
X046911Y009342D02*
X046911Y009380D01*
X047020Y009473D02*
X047180Y009473D01*
X047104Y009537D02*
X046323Y009537D01*
X045877Y009632D02*
X044880Y009632D01*
X044995Y009790D02*
X045982Y009790D01*
X045001Y009799D02*
X045001Y009799D01*
X043500Y009949D02*
X009435Y009949D01*
X009387Y010107D02*
X043496Y010107D01*
X043496Y010266D02*
X009435Y010266D01*
X009435Y010424D02*
X043557Y010424D01*
X043496Y010288D02*
X043496Y010288D01*
X043627Y010583D02*
X009435Y010583D01*
X009422Y010741D02*
X043798Y010741D01*
X043877Y010811D02*
X043877Y010811D01*
X044148Y010900D02*
X009299Y010900D01*
X008779Y010900D02*
X005402Y010900D01*
X005402Y010741D02*
X006516Y010741D01*
X005883Y010583D02*
X005402Y010583D01*
X004722Y010583D02*
X002302Y010583D01*
X002460Y010741D02*
X004722Y010741D01*
X004722Y010900D02*
X002619Y010900D01*
X002777Y011058D02*
X004722Y011058D01*
X005402Y011058D02*
X008779Y011058D01*
X009299Y011058D02*
X049653Y011058D01*
X049811Y010900D02*
X044326Y010900D01*
X044191Y010914D02*
X044191Y010914D01*
X044520Y010879D02*
X044520Y010879D01*
X047020Y009632D02*
X047180Y009632D01*
X046312Y008780D02*
X046323Y008769D01*
X046312Y008780D02*
X045311Y008780D01*
X046684Y008522D02*
X047516Y008522D01*
X047459Y008580D02*
X047459Y008580D01*
X047180Y008681D02*
X047020Y008681D01*
X048360Y008364D02*
X042477Y008364D01*
X048511Y008580D02*
X048900Y008580D01*
X051150Y010424D02*
X051189Y010424D01*
X050614Y011058D02*
X055315Y011058D01*
X055315Y011217D02*
X050456Y011217D01*
X050297Y011375D02*
X055315Y011375D01*
X055315Y011534D02*
X050139Y011534D01*
X050000Y011673D02*
X050000Y011673D01*
X049980Y011692D02*
X055315Y011692D01*
X055315Y011851D02*
X000557Y011851D01*
X000557Y011692D02*
X002450Y011692D01*
X002291Y011534D02*
X000557Y011534D01*
X000557Y011375D02*
X002133Y011375D01*
X001974Y011217D02*
X000557Y011217D01*
X000557Y011058D02*
X001816Y011058D01*
X001657Y010900D02*
X000557Y010900D01*
X000557Y010741D02*
X001538Y010741D01*
X001513Y010583D02*
X000557Y010583D01*
X000557Y010424D02*
X001513Y010424D01*
X001513Y010266D02*
X000557Y010266D01*
X000557Y010107D02*
X001513Y010107D01*
X001513Y009949D02*
X000557Y009949D01*
X000557Y009790D02*
X001513Y009790D01*
X001513Y009632D02*
X000557Y009632D01*
X000557Y009473D02*
X001513Y009473D01*
X002193Y009473D02*
X002780Y009473D01*
X002193Y009632D02*
X003377Y009632D01*
X003377Y009790D02*
X002193Y009790D01*
X002193Y009949D02*
X003377Y009949D01*
X003377Y010107D02*
X002193Y010107D01*
X002193Y010266D02*
X003388Y010266D01*
X003551Y010424D02*
X002193Y010424D01*
X004683Y010424D02*
X004722Y010424D01*
X005402Y010424D02*
X005724Y010424D01*
X005568Y010266D02*
X005402Y010266D01*
X005402Y010107D02*
X005530Y010107D01*
X005530Y009949D02*
X005402Y009949D01*
X005790Y010123D02*
X005790Y009361D01*
X005692Y009262D01*
X005127Y009262D01*
X005062Y009197D01*
X005458Y008998D02*
X005976Y008998D01*
X005976Y008839D02*
X005458Y008839D01*
X004380Y008980D02*
X004156Y008980D01*
X004117Y008941D01*
X002776Y008998D02*
X002193Y008998D01*
X002193Y009156D02*
X002776Y009156D01*
X002776Y009315D02*
X002193Y009315D01*
X001513Y009315D02*
X000557Y009315D01*
X000557Y009156D02*
X001513Y009156D01*
X001513Y008998D02*
X000557Y008998D01*
X000557Y008839D02*
X001513Y008839D01*
X002193Y008839D02*
X002776Y008839D01*
X002776Y008681D02*
X002193Y008681D01*
X002193Y008522D02*
X002776Y008522D01*
X002826Y008364D02*
X002193Y008364D01*
X001513Y008364D02*
X000557Y008364D01*
X000557Y008522D02*
X001513Y008522D01*
X001513Y008681D02*
X000557Y008681D01*
X005402Y009632D02*
X005530Y009632D01*
X005530Y009790D02*
X005402Y009790D01*
X006050Y009949D02*
X008642Y009949D01*
X008689Y010107D02*
X007873Y010107D01*
X007877Y010114D02*
X007889Y010160D01*
X007889Y010382D01*
X007531Y010382D01*
X007531Y010004D01*
X007733Y010004D01*
X007779Y010016D01*
X007820Y010040D01*
X007853Y010073D01*
X007877Y010114D01*
X007889Y010266D02*
X008642Y010266D01*
X008642Y010424D02*
X007889Y010424D01*
X007531Y010424D02*
X007494Y010424D01*
X007494Y010266D02*
X007531Y010266D01*
X007531Y010107D02*
X007494Y010107D01*
X006843Y010400D02*
X006068Y010400D01*
X005790Y010123D01*
X006142Y010107D02*
X006469Y010107D01*
X007494Y010583D02*
X007531Y010583D01*
X007531Y010741D02*
X007494Y010741D01*
X007185Y010741D02*
X007170Y010741D01*
X007840Y010741D02*
X008654Y010741D01*
X008642Y010583D02*
X007889Y010583D01*
X009039Y010565D02*
X009038Y010457D01*
X009039Y010565D02*
X009039Y011476D01*
X009432Y011475D02*
X009531Y011475D01*
X009598Y011135D02*
X009598Y011135D01*
X009463Y011135D02*
X009463Y011135D01*
X008580Y009280D02*
X008562Y009262D01*
X007977Y009262D01*
X008423Y008839D02*
X008640Y008839D01*
X007280Y008681D02*
X007120Y008681D01*
X007120Y008522D02*
X007280Y008522D01*
X007280Y008364D02*
X007120Y008364D01*
X007977Y008364D02*
X007977Y008364D01*
X007980Y008492D02*
X007977Y008495D01*
X006422Y009262D02*
X005692Y009262D01*
X041249Y002311D02*
X041380Y002180D01*
X041865Y001548D02*
X048883Y001548D01*
X048883Y001390D02*
X041865Y001390D01*
X041865Y001231D02*
X048883Y001231D01*
X048946Y001073D02*
X041865Y001073D01*
X044607Y001707D02*
X048883Y001707D01*
X048883Y001865D02*
X044766Y001865D01*
X044924Y002024D02*
X048883Y002024D01*
X048921Y002182D02*
X045083Y002182D01*
X054326Y000914D02*
X055315Y000914D01*
X055315Y000756D02*
X054326Y000756D01*
X054296Y000597D02*
X055315Y000597D01*
X055315Y001073D02*
X054465Y001073D01*
X054529Y001231D02*
X055315Y001231D01*
X055315Y001390D02*
X054529Y001390D01*
X054529Y001548D02*
X055315Y001548D01*
X055315Y001707D02*
X054529Y001707D01*
X054529Y001865D02*
X055315Y001865D01*
X055315Y002024D02*
X054529Y002024D01*
X054490Y002182D02*
X055315Y002182D01*
X049779Y011820D02*
X049779Y011820D01*
X049779Y011820D01*
D22*
X045378Y009861D03*
X046911Y009380D03*
X047261Y009380D03*
X047261Y008930D03*
X046911Y008930D03*
X045378Y007991D03*
X050594Y006416D03*
X047740Y005530D03*
X050889Y004939D03*
X047838Y003955D03*
X041637Y005825D03*
X039964Y005924D03*
X020279Y001888D03*
X011815Y001495D03*
X011716Y003365D03*
X006795Y004743D03*
X005023Y004152D03*
X011716Y004939D03*
X001086Y006022D03*
X008271Y007794D03*
X009826Y007367D03*
X007380Y008680D03*
X007030Y008680D03*
X007030Y009080D03*
X007380Y009080D03*
X008251Y010516D03*
X034748Y001593D03*
X044787Y001298D03*
D23*
X044412Y001993D02*
X042070Y001993D01*
X042070Y002504D01*
X041343Y002404D01*
X041249Y002311D01*
X041125Y002249D01*
X040180Y002504D02*
X040180Y001993D01*
X040180Y002504D02*
X040142Y004642D01*
X042311Y008780D01*
X045311Y008780D01*
X050771Y008646D02*
X050810Y008686D01*
X050810Y009197D01*
X051499Y009197D01*
X051755Y008941D01*
X052700Y008686D02*
X052700Y009197D01*
X052700Y008686D02*
X052739Y008646D01*
X052739Y006776D01*
X052050Y006087D01*
X051066Y006087D01*
X049688Y004709D01*
X047129Y004709D01*
X044412Y001993D01*
X015692Y001993D02*
X015692Y002504D01*
X015682Y002514D01*
X015682Y003676D01*
X015178Y004180D01*
X010186Y004180D01*
X008980Y005386D01*
X008980Y009326D01*
X008780Y009280D01*
X008580Y009280D01*
X005062Y009197D02*
X005062Y008686D01*
X004480Y009180D02*
X004241Y008941D01*
X004117Y008941D01*
X004480Y009180D02*
X005045Y009180D01*
X005062Y009197D01*
X005062Y011442D01*
X005101Y011482D01*
X002758Y011482D01*
X002739Y011500D01*
X001853Y010615D01*
X001853Y007268D01*
X002763Y006358D01*
X002763Y005577D01*
X003180Y007080D02*
X007756Y002504D01*
X013802Y002504D01*
X014491Y002504D01*
X014599Y002396D01*
X014747Y002249D01*
X014708Y001993D02*
X013802Y001993D01*
X013802Y002504D01*
X014708Y001993D02*
X014747Y001953D01*
X005298Y001658D02*
X004404Y002896D01*
X003674Y003823D01*
X002788Y003819D01*
X002763Y003845D01*
X003180Y007080D02*
X003180Y008678D01*
X003172Y008686D01*
X003172Y009197D01*
X005101Y011482D02*
X006582Y011482D01*
X009039Y011476D01*
X009531Y011475D01*
X049711Y011480D01*
X050810Y010382D01*
X050810Y009197D01*
D24*
X051460Y008941D03*
X052050Y008941D03*
X052050Y008449D03*
X051460Y008449D03*
X051460Y007957D03*
X052050Y007957D03*
X052050Y009532D03*
X051460Y009532D03*
X051460Y010024D03*
X052050Y010024D03*
X041380Y003180D03*
X040780Y003180D03*
X040780Y002680D03*
X041380Y002680D03*
X041380Y002180D03*
X040780Y002180D03*
X040780Y001680D03*
X041380Y001680D03*
X041380Y001180D03*
X040780Y001180D03*
X015042Y001264D03*
X014452Y001264D03*
X014452Y001756D03*
X015042Y001756D03*
X015042Y002249D03*
X014452Y002249D03*
X014452Y002741D03*
X015042Y002741D03*
X015042Y003233D03*
X014452Y003233D03*
X004380Y007980D03*
X003880Y007980D03*
X003880Y008480D03*
X004380Y008480D03*
X004380Y008980D03*
X003880Y008980D03*
X003880Y009480D03*
X004380Y009480D03*
X004380Y009980D03*
X003880Y009980D03*
D25*
X003034Y001658D02*
X003034Y001313D01*
X003674Y000624D01*
X050574Y000624D01*
X053920Y000624D01*
X054026Y000731D01*
X054026Y001650D01*
X054019Y001658D01*
X054019Y002445D01*
X054461Y002888D01*
X054461Y003546D01*
X054476Y003560D01*
X052997Y003294D02*
X052641Y002937D01*
X051952Y002937D01*
X051952Y003955D01*
X051938Y003968D01*
X052997Y003892D02*
X052997Y003294D01*
X053723Y003036D02*
X053723Y005004D01*
X054215Y005004D01*
X054461Y004758D01*
X054461Y004243D01*
X054476Y004229D01*
X052997Y004561D02*
X052997Y004943D01*
X052936Y005004D01*
X053723Y005004D01*
X052936Y005004D02*
X052022Y005004D01*
X051938Y005088D01*
X053723Y003036D02*
X052837Y002150D01*
X052837Y001658D01*
X050574Y001658D02*
X050582Y000878D01*
X050574Y000624D01*
X049393Y001658D02*
X050074Y002831D01*
X051952Y002839D01*
X051952Y002937D01*
M02*
