%
M48
M72
T01C0.0130
T02C0.0400
%
T01
X505Y760
X505Y1220
X505Y1720
X505Y2220
X505Y2686
X515Y3220
X505Y3720
X505Y4220
X1205Y4200
X1905Y4200
X1745Y3560
X1155Y3460
X1155Y2960
X1155Y2460
X1155Y1960
X1155Y1400
X1715Y1280
X1965Y760
X2645Y760
X2455Y1300
X3155Y1300
X3295Y760
X3865Y760
X4165Y1010
X3945Y1260
X3945Y2096
X3645Y2460
X4065Y2760
X3485Y3100
X3125Y3520
X3345Y4200
X3945Y4200
X3845Y3540
X4645Y4200
X2645Y4200
X2405Y3540
X1205Y760
X6905Y3720
X7265Y4000
X7765Y4020
X7165Y3340
X7225Y2100
X8765Y2480
X8765Y3480
T02
X9120Y2985
X9120Y1985
X9120Y985
X9120Y3985
M30
