G75*
%MOIN*%
%OFA0B0*%
%FSLAX25Y25*%
%IPPOS*%
%LPD*%
%AMOC8*
5,1,8,0,0,1.08239X$1,22.5*
%
%ADD10C,0.00500*%
%ADD11C,0.00400*%
%ADD12C,0.01000*%
%ADD13C,0.00600*%
%ADD14C,0.01000*%
D10*
X0009300Y0009250D02*
X0010651Y0009250D01*
X0011102Y0009700D01*
X0011102Y0011502D01*
X0010651Y0011952D01*
X0009300Y0011952D01*
X0009300Y0009250D01*
X0012247Y0009700D02*
X0012247Y0010601D01*
X0012697Y0011052D01*
X0013598Y0011052D01*
X0014048Y0010601D01*
X0014048Y0010151D01*
X0012247Y0010151D01*
X0012247Y0009700D02*
X0012697Y0009250D01*
X0013598Y0009250D01*
X0015193Y0009250D02*
X0016544Y0009250D01*
X0016995Y0009700D01*
X0016995Y0010601D01*
X0016544Y0011052D01*
X0015193Y0011052D01*
X0015193Y0008349D01*
X0018590Y0009700D02*
X0018590Y0011502D01*
X0018140Y0011052D02*
X0019040Y0011052D01*
X0020104Y0010601D02*
X0020554Y0011052D01*
X0021455Y0011052D01*
X0021905Y0010601D01*
X0021905Y0009250D01*
X0023050Y0010601D02*
X0024852Y0010601D01*
X0023951Y0011502D02*
X0023951Y0009700D01*
X0025997Y0009250D02*
X0026898Y0009250D01*
X0026447Y0009250D02*
X0026447Y0011952D01*
X0025997Y0011952D02*
X0026898Y0011952D01*
X0027961Y0011952D02*
X0028862Y0011052D01*
X0029763Y0011952D01*
X0029763Y0009250D01*
X0030908Y0009700D02*
X0031358Y0009250D01*
X0032259Y0009250D01*
X0032709Y0009700D01*
X0032709Y0011952D01*
X0030908Y0011952D02*
X0030908Y0009700D01*
X0027961Y0009250D02*
X0027961Y0011952D01*
X0028743Y0017907D02*
X0029373Y0017907D01*
X0028743Y0017907D02*
X0015357Y0017907D01*
X0015357Y0031293D01*
X0028743Y0031293D01*
X0028743Y0017907D01*
X0020104Y0011952D02*
X0020104Y0009250D01*
X0019040Y0009250D02*
X0018590Y0009700D01*
X0045131Y0016037D02*
X0045131Y0033163D01*
X0067769Y0033163D01*
X0067769Y0016037D01*
X0045131Y0016037D01*
X0031280Y0037250D02*
X0032181Y0038151D01*
X0032181Y0039952D01*
X0030379Y0039952D02*
X0030379Y0038151D01*
X0031280Y0037250D01*
X0029234Y0037700D02*
X0029234Y0039502D01*
X0028784Y0039952D01*
X0027883Y0039952D01*
X0027433Y0039502D01*
X0027433Y0037700D01*
X0027883Y0037250D01*
X0028784Y0037250D01*
X0029234Y0037700D01*
X0026288Y0037250D02*
X0025387Y0038151D01*
X0025837Y0038151D02*
X0024486Y0038151D01*
X0024486Y0037250D02*
X0024486Y0039952D01*
X0025837Y0039952D01*
X0026288Y0039502D01*
X0026288Y0038601D01*
X0025837Y0038151D01*
X0023341Y0038601D02*
X0023341Y0037250D01*
X0023341Y0038601D02*
X0022891Y0039052D01*
X0021540Y0039052D01*
X0021540Y0037250D01*
X0020395Y0038151D02*
X0018593Y0038151D01*
X0018593Y0038601D02*
X0019043Y0039052D01*
X0019944Y0039052D01*
X0020395Y0038601D01*
X0020395Y0038151D01*
X0019944Y0037250D02*
X0019043Y0037250D01*
X0018593Y0037700D01*
X0018593Y0038601D01*
X0017448Y0038601D02*
X0017448Y0037700D01*
X0016998Y0037250D01*
X0015647Y0037250D01*
X0015647Y0036349D02*
X0015647Y0039052D01*
X0016998Y0039052D01*
X0017448Y0038601D01*
X0014502Y0037700D02*
X0014502Y0039502D01*
X0014051Y0039952D01*
X0013150Y0039952D01*
X0012700Y0039502D01*
X0012700Y0037700D01*
X0013150Y0037250D01*
X0014051Y0037250D01*
X0014502Y0037700D01*
X0083098Y0037001D02*
X0083098Y0036100D01*
X0083548Y0035650D01*
X0084449Y0036551D02*
X0084449Y0037001D01*
X0084899Y0037452D01*
X0085350Y0037452D01*
X0085800Y0037001D01*
X0085800Y0036100D01*
X0085350Y0035650D01*
X0084449Y0037001D02*
X0083998Y0037452D01*
X0083548Y0037452D01*
X0083098Y0037001D01*
X0083098Y0038597D02*
X0084899Y0038597D01*
X0085800Y0039497D01*
X0084899Y0040398D01*
X0083098Y0040398D01*
X0083548Y0041543D02*
X0083098Y0041993D01*
X0083098Y0042894D01*
X0083548Y0043345D01*
X0083998Y0043345D01*
X0084449Y0042894D01*
X0084899Y0043345D01*
X0085350Y0043345D01*
X0085800Y0042894D01*
X0085800Y0041993D01*
X0085350Y0041543D01*
X0084449Y0042444D02*
X0084449Y0042894D01*
X0085350Y0033445D02*
X0083548Y0033445D01*
X0083098Y0032994D01*
X0083098Y0031643D01*
X0085800Y0031643D01*
X0085800Y0032994D01*
X0085350Y0033445D01*
X0085800Y0030498D02*
X0083098Y0030498D01*
X0083098Y0028697D02*
X0085800Y0030498D01*
X0085800Y0028697D02*
X0083098Y0028697D01*
X0083548Y0027552D02*
X0083098Y0027101D01*
X0083098Y0026200D01*
X0083548Y0025750D01*
X0085350Y0025750D01*
X0085800Y0026200D01*
X0085800Y0027101D01*
X0085350Y0027552D01*
X0084449Y0027552D01*
X0084449Y0026651D01*
X0085800Y0023805D02*
X0085800Y0022003D01*
X0083098Y0022003D01*
X0083548Y0020859D02*
X0083098Y0020408D01*
X0083098Y0019507D01*
X0083548Y0019057D01*
X0085350Y0019057D01*
X0085800Y0019507D01*
X0085800Y0020408D01*
X0085350Y0020859D01*
X0085350Y0017912D02*
X0085800Y0017462D01*
X0085800Y0016561D01*
X0085350Y0016110D01*
X0084449Y0016561D02*
X0084449Y0017462D01*
X0084899Y0017912D01*
X0085350Y0017912D01*
X0083548Y0017912D02*
X0083098Y0017462D01*
X0083098Y0016561D01*
X0083548Y0016110D01*
X0083998Y0016110D01*
X0084449Y0016561D01*
X0084449Y0014105D02*
X0084449Y0012303D01*
X0083998Y0012303D02*
X0083098Y0013204D01*
X0083998Y0014105D01*
X0085800Y0014105D01*
X0085800Y0012303D02*
X0083998Y0012303D01*
X0083548Y0011159D02*
X0083098Y0010708D01*
X0083098Y0009357D01*
X0085800Y0009357D01*
X0085800Y0010708D01*
X0085350Y0011159D01*
X0083548Y0011159D01*
X0083548Y0008212D02*
X0083098Y0007762D01*
X0083098Y0006861D01*
X0083548Y0006410D01*
X0083998Y0006410D01*
X0084449Y0006861D01*
X0084449Y0007762D01*
X0084899Y0008212D01*
X0085350Y0008212D01*
X0085800Y0007762D01*
X0085800Y0006861D01*
X0085350Y0006410D01*
D11*
X0081272Y0006400D02*
X0079991Y0006400D01*
X0081272Y0007681D01*
X0081272Y0008001D01*
X0080951Y0008322D01*
X0080311Y0008322D01*
X0079991Y0008001D01*
X0079135Y0008001D02*
X0077854Y0006720D01*
X0078175Y0006400D01*
X0078815Y0006400D01*
X0079135Y0006720D01*
X0079135Y0008001D01*
X0078815Y0008322D01*
X0078175Y0008322D01*
X0077854Y0008001D01*
X0077854Y0006720D01*
X0077106Y0006720D02*
X0077106Y0006400D01*
X0076786Y0006400D01*
X0076786Y0006720D01*
X0077106Y0006720D01*
X0075931Y0007681D02*
X0075291Y0006400D01*
X0074650Y0007681D01*
X0073061Y0010600D02*
X0072393Y0010600D01*
X0072060Y0010934D01*
X0072060Y0011601D02*
X0072727Y0011934D01*
X0073061Y0011934D01*
X0073394Y0011601D01*
X0073394Y0010934D01*
X0073061Y0010600D01*
X0072060Y0011601D02*
X0072060Y0012602D01*
X0073394Y0012602D01*
X0071184Y0012268D02*
X0071184Y0011601D01*
X0070851Y0011267D01*
X0069850Y0011267D01*
X0069850Y0010600D02*
X0069850Y0012602D01*
X0070851Y0012602D01*
X0071184Y0012268D01*
X0070517Y0011267D02*
X0071184Y0010600D01*
X0070794Y0008402D02*
X0070127Y0008068D01*
X0069460Y0007401D01*
X0070461Y0007401D01*
X0070794Y0007067D01*
X0070794Y0006734D01*
X0070461Y0006400D01*
X0069793Y0006400D01*
X0069460Y0006734D01*
X0069460Y0007401D01*
X0068584Y0008068D02*
X0068251Y0008402D01*
X0067584Y0008402D01*
X0067250Y0008068D01*
X0067250Y0006734D01*
X0067584Y0006400D01*
X0068251Y0006400D01*
X0068584Y0006734D01*
X0061034Y0013534D02*
X0060700Y0013200D01*
X0060033Y0013200D01*
X0059699Y0013534D01*
X0059699Y0014201D02*
X0060367Y0014534D01*
X0060700Y0014534D01*
X0061034Y0014201D01*
X0061034Y0013534D01*
X0059699Y0014201D02*
X0059699Y0015202D01*
X0061034Y0015202D01*
X0058824Y0015202D02*
X0057490Y0015202D01*
X0057490Y0014201D01*
X0058157Y0014534D01*
X0058490Y0014534D01*
X0058824Y0014201D01*
X0058824Y0013534D01*
X0058490Y0013200D01*
X0057823Y0013200D01*
X0057490Y0013534D01*
X0056614Y0013534D02*
X0056280Y0013200D01*
X0055613Y0013200D01*
X0055280Y0013534D01*
X0056614Y0014868D01*
X0056614Y0013534D01*
X0056614Y0014868D02*
X0056280Y0015202D01*
X0055613Y0015202D01*
X0055280Y0014868D01*
X0055280Y0013534D01*
X0054404Y0013534D02*
X0054404Y0014868D01*
X0054071Y0015202D01*
X0053403Y0015202D01*
X0053070Y0014868D01*
X0053070Y0013534D01*
X0053403Y0013200D01*
X0054071Y0013200D01*
X0054404Y0013534D01*
X0052194Y0013200D02*
X0052194Y0015202D01*
X0050860Y0015202D02*
X0052194Y0013200D01*
X0050860Y0013200D02*
X0050860Y0015202D01*
X0049984Y0014868D02*
X0049984Y0014534D01*
X0049651Y0014201D01*
X0048650Y0014201D01*
X0048650Y0013200D02*
X0048650Y0015202D01*
X0049651Y0015202D01*
X0049984Y0014868D01*
X0049651Y0014201D02*
X0049984Y0013867D01*
X0049984Y0013534D01*
X0049651Y0013200D01*
X0048650Y0013200D01*
X0047661Y0008402D02*
X0046660Y0007401D01*
X0047994Y0007401D01*
X0047661Y0006400D02*
X0047661Y0008402D01*
X0045784Y0008068D02*
X0045451Y0008402D01*
X0044784Y0008402D01*
X0044450Y0008068D01*
X0044450Y0006734D01*
X0044784Y0006400D01*
X0045451Y0006400D01*
X0045784Y0006734D01*
X0034394Y0018134D02*
X0034061Y0017800D01*
X0033393Y0017800D01*
X0033060Y0018134D01*
X0032184Y0018134D02*
X0031851Y0017800D01*
X0031184Y0017800D01*
X0030850Y0018134D01*
X0030850Y0019468D01*
X0031184Y0019802D01*
X0031851Y0019802D01*
X0032184Y0019468D01*
X0033060Y0019468D02*
X0033393Y0019802D01*
X0034061Y0019802D01*
X0034394Y0019468D01*
X0034394Y0019134D01*
X0034061Y0018801D01*
X0034394Y0018467D01*
X0034394Y0018134D01*
X0034061Y0018801D02*
X0033727Y0018801D01*
X0026899Y0032000D02*
X0026899Y0032334D01*
X0028234Y0033668D01*
X0028234Y0034002D01*
X0026899Y0034002D01*
X0026024Y0033668D02*
X0026024Y0033334D01*
X0025690Y0033001D01*
X0026024Y0032667D01*
X0026024Y0032334D01*
X0025690Y0032000D01*
X0025023Y0032000D01*
X0024690Y0032334D01*
X0023814Y0032334D02*
X0023480Y0032000D01*
X0022813Y0032000D01*
X0022480Y0032334D01*
X0022480Y0032667D01*
X0022813Y0033001D01*
X0023480Y0033001D01*
X0023814Y0032667D01*
X0023814Y0032334D01*
X0023480Y0033001D02*
X0023814Y0033334D01*
X0023814Y0033668D01*
X0023480Y0034002D01*
X0022813Y0034002D01*
X0022480Y0033668D01*
X0022480Y0033334D01*
X0022813Y0033001D01*
X0021604Y0033001D02*
X0021604Y0032334D01*
X0021271Y0032000D01*
X0020603Y0032000D01*
X0020270Y0032334D01*
X0020270Y0033001D02*
X0020937Y0033334D01*
X0021271Y0033334D01*
X0021604Y0033001D01*
X0021604Y0034002D02*
X0020270Y0034002D01*
X0020270Y0033001D01*
X0019394Y0032667D02*
X0019394Y0032334D01*
X0019061Y0032000D01*
X0018393Y0032000D01*
X0018060Y0032334D01*
X0018393Y0033001D02*
X0018060Y0033334D01*
X0018060Y0033668D01*
X0018393Y0034002D01*
X0019061Y0034002D01*
X0019394Y0033668D01*
X0019061Y0033001D02*
X0019394Y0032667D01*
X0019061Y0033001D02*
X0018393Y0033001D01*
X0017184Y0034002D02*
X0017184Y0032000D01*
X0015850Y0032000D02*
X0015850Y0034002D01*
X0016517Y0033334D01*
X0017184Y0034002D01*
X0024690Y0033668D02*
X0025023Y0034002D01*
X0025690Y0034002D01*
X0026024Y0033668D01*
X0025690Y0033001D02*
X0025357Y0033001D01*
X0052650Y0040400D02*
X0052650Y0042402D01*
X0053651Y0042402D01*
X0053984Y0042068D01*
X0053984Y0041401D01*
X0053651Y0041067D01*
X0052650Y0041067D01*
X0053317Y0041067D02*
X0053984Y0040400D01*
X0054860Y0040400D02*
X0056194Y0040400D01*
X0055527Y0040400D02*
X0055527Y0042402D01*
X0054860Y0041734D01*
X0063650Y0042068D02*
X0063650Y0040734D01*
X0063984Y0040400D01*
X0064651Y0040400D01*
X0064984Y0040734D01*
X0065860Y0040400D02*
X0067194Y0040400D01*
X0066527Y0040400D02*
X0066527Y0042402D01*
X0065860Y0041734D01*
X0064984Y0042068D02*
X0064651Y0042402D01*
X0063984Y0042402D01*
X0063650Y0042068D01*
X0070050Y0036668D02*
X0070050Y0035334D01*
X0070384Y0035000D01*
X0071051Y0035000D01*
X0071384Y0035334D01*
X0072260Y0035334D02*
X0072593Y0035000D01*
X0073261Y0035000D01*
X0073594Y0035334D01*
X0073594Y0036001D01*
X0073261Y0036334D01*
X0072927Y0036334D01*
X0072260Y0036001D01*
X0072260Y0037002D01*
X0073594Y0037002D01*
X0071384Y0036668D02*
X0071051Y0037002D01*
X0070384Y0037002D01*
X0070050Y0036668D01*
X0069850Y0031402D02*
X0070851Y0031402D01*
X0071184Y0031068D01*
X0071184Y0030401D01*
X0070851Y0030067D01*
X0069850Y0030067D01*
X0069850Y0029400D02*
X0069850Y0031402D01*
X0070517Y0030067D02*
X0071184Y0029400D01*
X0072060Y0029400D02*
X0073394Y0030734D01*
X0073394Y0031068D01*
X0073061Y0031402D01*
X0072393Y0031402D01*
X0072060Y0031068D01*
X0072060Y0029400D02*
X0073394Y0029400D01*
X0073061Y0025602D02*
X0072393Y0025602D01*
X0072060Y0025268D01*
X0071184Y0025268D02*
X0070851Y0025602D01*
X0070184Y0025602D01*
X0069850Y0025268D01*
X0069850Y0023934D01*
X0070184Y0023600D01*
X0070851Y0023600D01*
X0071184Y0023934D01*
X0072060Y0023600D02*
X0073394Y0024934D01*
X0073394Y0025268D01*
X0073061Y0025602D01*
X0073394Y0023600D02*
X0072060Y0023600D01*
X0072393Y0019202D02*
X0073061Y0019202D01*
X0073394Y0018868D01*
X0073394Y0018534D01*
X0073061Y0018201D01*
X0073394Y0017867D01*
X0073394Y0017534D01*
X0073061Y0017200D01*
X0072393Y0017200D01*
X0072060Y0017534D01*
X0071184Y0017200D02*
X0070517Y0017867D01*
X0070851Y0017867D02*
X0069850Y0017867D01*
X0069850Y0017200D02*
X0069850Y0019202D01*
X0070851Y0019202D01*
X0071184Y0018868D01*
X0071184Y0018201D01*
X0070851Y0017867D01*
X0072060Y0018868D02*
X0072393Y0019202D01*
X0072727Y0018201D02*
X0073061Y0018201D01*
D12*
X0067650Y0015800D02*
X0067652Y0015840D01*
X0067658Y0015879D01*
X0067668Y0015918D01*
X0067681Y0015955D01*
X0067699Y0015991D01*
X0067720Y0016025D01*
X0067744Y0016057D01*
X0067771Y0016086D01*
X0067801Y0016113D01*
X0067833Y0016136D01*
X0067868Y0016156D01*
X0067904Y0016172D01*
X0067942Y0016185D01*
X0067981Y0016194D01*
X0068020Y0016199D01*
X0068060Y0016200D01*
X0068100Y0016197D01*
X0068139Y0016190D01*
X0068177Y0016179D01*
X0068215Y0016165D01*
X0068250Y0016146D01*
X0068283Y0016125D01*
X0068315Y0016100D01*
X0068343Y0016072D01*
X0068369Y0016042D01*
X0068391Y0016009D01*
X0068410Y0015974D01*
X0068426Y0015937D01*
X0068438Y0015899D01*
X0068446Y0015860D01*
X0068450Y0015820D01*
X0068450Y0015780D01*
X0068446Y0015740D01*
X0068438Y0015701D01*
X0068426Y0015663D01*
X0068410Y0015626D01*
X0068391Y0015591D01*
X0068369Y0015558D01*
X0068343Y0015528D01*
X0068315Y0015500D01*
X0068283Y0015475D01*
X0068250Y0015454D01*
X0068215Y0015435D01*
X0068177Y0015421D01*
X0068139Y0015410D01*
X0068100Y0015403D01*
X0068060Y0015400D01*
X0068020Y0015401D01*
X0067981Y0015406D01*
X0067942Y0015415D01*
X0067904Y0015428D01*
X0067868Y0015444D01*
X0067833Y0015464D01*
X0067801Y0015487D01*
X0067771Y0015514D01*
X0067744Y0015543D01*
X0067720Y0015575D01*
X0067699Y0015609D01*
X0067681Y0015645D01*
X0067668Y0015682D01*
X0067658Y0015721D01*
X0067652Y0015760D01*
X0067650Y0015800D01*
X0043650Y0019000D02*
X0043050Y0016400D01*
X0042450Y0019000D01*
X0043650Y0019000D01*
X0043050Y0016400D02*
X0043050Y0033000D01*
X0028650Y0017600D02*
X0028652Y0017640D01*
X0028658Y0017679D01*
X0028668Y0017718D01*
X0028681Y0017755D01*
X0028699Y0017791D01*
X0028720Y0017825D01*
X0028744Y0017857D01*
X0028771Y0017886D01*
X0028801Y0017913D01*
X0028833Y0017936D01*
X0028868Y0017956D01*
X0028904Y0017972D01*
X0028942Y0017985D01*
X0028981Y0017994D01*
X0029020Y0017999D01*
X0029060Y0018000D01*
X0029100Y0017997D01*
X0029139Y0017990D01*
X0029177Y0017979D01*
X0029215Y0017965D01*
X0029250Y0017946D01*
X0029283Y0017925D01*
X0029315Y0017900D01*
X0029343Y0017872D01*
X0029369Y0017842D01*
X0029391Y0017809D01*
X0029410Y0017774D01*
X0029426Y0017737D01*
X0029438Y0017699D01*
X0029446Y0017660D01*
X0029450Y0017620D01*
X0029450Y0017580D01*
X0029446Y0017540D01*
X0029438Y0017501D01*
X0029426Y0017463D01*
X0029410Y0017426D01*
X0029391Y0017391D01*
X0029369Y0017358D01*
X0029343Y0017328D01*
X0029315Y0017300D01*
X0029283Y0017275D01*
X0029250Y0017254D01*
X0029215Y0017235D01*
X0029177Y0017221D01*
X0029139Y0017210D01*
X0029100Y0017203D01*
X0029060Y0017200D01*
X0029020Y0017201D01*
X0028981Y0017206D01*
X0028942Y0017215D01*
X0028904Y0017228D01*
X0028868Y0017244D01*
X0028833Y0017264D01*
X0028801Y0017287D01*
X0028771Y0017314D01*
X0028744Y0017343D01*
X0028720Y0017375D01*
X0028699Y0017409D01*
X0028681Y0017445D01*
X0028668Y0017482D01*
X0028658Y0017521D01*
X0028652Y0017560D01*
X0028650Y0017600D01*
D13*
X0038350Y0018169D02*
X0040619Y0015900D01*
X0038350Y0015900D02*
X0040619Y0018169D01*
D14*
X0067867Y0015939D03*
M02*
