G75*
%MOIN*%
%OFA0B0*%
%FSLAX25Y25*%
%IPPOS*%
%LPD*%
%AMOC8*
5,1,8,0,0,1.08239X$1,22.5*
%
%ADD10C,0.01000*%
%ADD11C,0.00400*%
%ADD12C,0.00500*%
%ADD13R,0.04500X0.00100*%
%ADD14R,0.00900X0.00100*%
%ADD15R,0.04700X0.00100*%
%ADD16R,0.00700X0.00100*%
%ADD17R,0.01100X0.00100*%
%ADD18R,0.01700X0.00100*%
%ADD19R,0.04600X0.00100*%
%ADD20R,0.00800X0.00100*%
%ADD21R,0.05300X0.00100*%
%ADD22R,0.05400X0.00100*%
%ADD23R,0.05800X0.00100*%
%ADD24R,0.01000X0.00100*%
%ADD25R,0.06000X0.00100*%
%ADD26R,0.01200X0.00100*%
%ADD27R,0.06200X0.00100*%
%ADD28R,0.01600X0.00100*%
%ADD29R,0.06300X0.00100*%
%ADD30R,0.01300X0.00100*%
%ADD31R,0.01400X0.00100*%
%ADD32R,0.06400X0.00100*%
%ADD33R,0.01500X0.00100*%
%ADD34R,0.02100X0.00100*%
%ADD35R,0.03800X0.00100*%
%ADD36R,0.06500X0.00100*%
%ADD37R,0.02000X0.00100*%
%ADD38R,0.03700X0.00100*%
%ADD39R,0.01900X0.00100*%
%ADD40R,0.03600X0.00100*%
%ADD41R,0.01800X0.00100*%
%ADD42R,0.02200X0.00100*%
%ADD43R,0.02400X0.00100*%
%ADD44R,0.02300X0.00100*%
%ADD45R,0.02500X0.00100*%
%ADD46R,0.04000X0.00100*%
%ADD47R,0.03400X0.00100*%
%ADD48R,0.03100X0.00100*%
%ADD49R,0.03300X0.00100*%
%ADD50R,0.03200X0.00100*%
%ADD51R,0.04800X0.00100*%
%ADD52R,0.05200X0.00100*%
%ADD53R,0.04900X0.00100*%
%ADD54R,0.05500X0.00100*%
%ADD55R,0.05600X0.00100*%
%ADD56R,0.05700X0.00100*%
%ADD57R,0.05000X0.00100*%
%ADD58R,0.03500X0.00100*%
%ADD59R,0.05100X0.00100*%
D10*
X0017250Y0016600D02*
X0017850Y0019200D01*
X0016650Y0019200D02*
X0017250Y0016800D01*
X0017250Y0017000D02*
X0017250Y0032000D01*
X0032250Y0032000D01*
X0032450Y0032000D02*
X0030250Y0032400D01*
X0030250Y0031400D02*
X0032650Y0032000D01*
X0022625Y0024000D02*
X0022627Y0024057D01*
X0022633Y0024114D01*
X0022643Y0024170D01*
X0022656Y0024225D01*
X0022674Y0024279D01*
X0022695Y0024332D01*
X0022719Y0024383D01*
X0022748Y0024433D01*
X0022779Y0024480D01*
X0022814Y0024525D01*
X0022852Y0024568D01*
X0022892Y0024608D01*
X0022936Y0024645D01*
X0022981Y0024679D01*
X0023029Y0024710D01*
X0023079Y0024737D01*
X0023131Y0024761D01*
X0023184Y0024781D01*
X0023239Y0024797D01*
X0023294Y0024810D01*
X0023351Y0024819D01*
X0023407Y0024824D01*
X0023464Y0024825D01*
X0023521Y0024822D01*
X0023578Y0024815D01*
X0023634Y0024804D01*
X0023689Y0024790D01*
X0023743Y0024771D01*
X0023795Y0024749D01*
X0023846Y0024724D01*
X0023895Y0024695D01*
X0023942Y0024662D01*
X0023986Y0024627D01*
X0024028Y0024588D01*
X0024068Y0024547D01*
X0024104Y0024503D01*
X0024137Y0024457D01*
X0024167Y0024408D01*
X0024193Y0024358D01*
X0024216Y0024306D01*
X0024235Y0024252D01*
X0024251Y0024197D01*
X0024263Y0024142D01*
X0024271Y0024085D01*
X0024275Y0024028D01*
X0024275Y0023972D01*
X0024271Y0023915D01*
X0024263Y0023858D01*
X0024251Y0023803D01*
X0024235Y0023748D01*
X0024216Y0023694D01*
X0024193Y0023642D01*
X0024167Y0023592D01*
X0024137Y0023543D01*
X0024104Y0023497D01*
X0024068Y0023453D01*
X0024028Y0023412D01*
X0023986Y0023373D01*
X0023942Y0023338D01*
X0023895Y0023305D01*
X0023846Y0023276D01*
X0023795Y0023251D01*
X0023743Y0023229D01*
X0023689Y0023210D01*
X0023634Y0023196D01*
X0023578Y0023185D01*
X0023521Y0023178D01*
X0023464Y0023175D01*
X0023407Y0023176D01*
X0023351Y0023181D01*
X0023294Y0023190D01*
X0023239Y0023203D01*
X0023184Y0023219D01*
X0023131Y0023239D01*
X0023079Y0023263D01*
X0023029Y0023290D01*
X0022981Y0023321D01*
X0022936Y0023355D01*
X0022892Y0023392D01*
X0022852Y0023432D01*
X0022814Y0023475D01*
X0022779Y0023520D01*
X0022748Y0023567D01*
X0022719Y0023617D01*
X0022695Y0023668D01*
X0022674Y0023721D01*
X0022656Y0023775D01*
X0022643Y0023830D01*
X0022633Y0023886D01*
X0022627Y0023943D01*
X0022625Y0024000D01*
D11*
X0014850Y0017534D02*
X0013516Y0016200D01*
X0014850Y0016200D02*
X0013516Y0017534D01*
X0025916Y0023400D02*
X0027250Y0023400D01*
X0025916Y0024734D01*
X0027250Y0024734D01*
X0033849Y0033133D02*
X0034183Y0033133D01*
X0033849Y0033133D02*
X0033516Y0033466D01*
X0033516Y0035134D01*
X0034850Y0035134D02*
X0034850Y0034134D01*
X0034516Y0033800D01*
X0033516Y0033800D01*
D12*
X0045240Y0016552D02*
X0045240Y0016102D01*
X0047042Y0014300D01*
X0047042Y0013850D01*
X0048187Y0014300D02*
X0048637Y0013850D01*
X0049538Y0013850D01*
X0049988Y0014300D01*
X0051133Y0014300D02*
X0051584Y0013850D01*
X0052484Y0013850D01*
X0052935Y0014300D01*
X0052935Y0014751D01*
X0052484Y0015201D01*
X0051584Y0015201D01*
X0051133Y0014751D01*
X0051133Y0014300D01*
X0051584Y0015201D02*
X0051133Y0015652D01*
X0051133Y0016102D01*
X0051584Y0016552D01*
X0052484Y0016552D01*
X0052935Y0016102D01*
X0052935Y0015652D01*
X0052484Y0015201D01*
X0054080Y0015201D02*
X0054080Y0014300D01*
X0054530Y0013850D01*
X0055431Y0013850D01*
X0055881Y0014300D01*
X0055881Y0015201D02*
X0054981Y0015652D01*
X0054530Y0015652D01*
X0054080Y0015201D01*
X0054080Y0016552D02*
X0055881Y0016552D01*
X0055881Y0015201D01*
X0057026Y0014751D02*
X0057026Y0014300D01*
X0057477Y0013850D01*
X0058377Y0013850D01*
X0058828Y0014300D01*
X0058377Y0015201D02*
X0057477Y0015201D01*
X0057026Y0014751D01*
X0058377Y0015201D02*
X0058828Y0015652D01*
X0058828Y0016102D01*
X0058377Y0016552D01*
X0057477Y0016552D01*
X0057026Y0016102D01*
X0059973Y0016552D02*
X0059973Y0013850D01*
X0061774Y0013850D02*
X0061774Y0016552D01*
X0060874Y0015652D01*
X0059973Y0016552D01*
X0062919Y0015201D02*
X0064721Y0015201D01*
X0065866Y0015201D02*
X0065866Y0014300D01*
X0066316Y0013850D01*
X0067217Y0013850D01*
X0067667Y0014300D01*
X0067667Y0015201D02*
X0066767Y0015652D01*
X0066316Y0015652D01*
X0065866Y0015201D01*
X0065866Y0016552D02*
X0067667Y0016552D01*
X0067667Y0015201D01*
X0068812Y0015201D02*
X0068812Y0014300D01*
X0069263Y0013850D01*
X0070164Y0013850D01*
X0070614Y0014300D01*
X0070614Y0015201D02*
X0069713Y0015652D01*
X0069263Y0015652D01*
X0068812Y0015201D01*
X0068812Y0016552D02*
X0070614Y0016552D01*
X0070614Y0015201D01*
X0071759Y0014300D02*
X0072209Y0013850D01*
X0073110Y0013850D01*
X0073560Y0014300D01*
X0071759Y0016102D01*
X0071759Y0014300D01*
X0073560Y0014300D02*
X0073560Y0016102D01*
X0073110Y0016552D01*
X0072209Y0016552D01*
X0071759Y0016102D01*
X0074705Y0016102D02*
X0074705Y0014300D01*
X0075156Y0013850D01*
X0076057Y0013850D01*
X0076507Y0014300D01*
X0076507Y0016102D01*
X0076057Y0016552D01*
X0075156Y0016552D01*
X0074705Y0016102D01*
X0077652Y0016552D02*
X0077652Y0013850D01*
X0079453Y0016552D01*
X0079453Y0013850D01*
X0080598Y0014300D02*
X0081049Y0013850D01*
X0082400Y0013850D01*
X0082400Y0016552D01*
X0081049Y0016552D01*
X0080598Y0016102D01*
X0080598Y0015652D01*
X0081049Y0015201D01*
X0082400Y0015201D01*
X0081049Y0015201D02*
X0080598Y0014751D01*
X0080598Y0014300D01*
X0063820Y0014300D02*
X0063820Y0016102D01*
X0049988Y0016102D02*
X0049538Y0016552D01*
X0048637Y0016552D01*
X0048187Y0016102D01*
X0048187Y0015652D01*
X0048637Y0015201D01*
X0048187Y0014751D01*
X0048187Y0014300D01*
X0048637Y0015201D02*
X0049088Y0015201D01*
X0047042Y0016552D02*
X0045240Y0016552D01*
D13*
X0076350Y0029060D03*
X0083450Y0027260D03*
D14*
X0078150Y0027260D03*
X0078150Y0027360D03*
X0078150Y0027460D03*
X0078150Y0027560D03*
X0078150Y0027660D03*
X0078150Y0027760D03*
X0078150Y0027860D03*
X0078150Y0027960D03*
X0078150Y0028060D03*
X0078150Y0028160D03*
X0078150Y0028260D03*
X0078150Y0028360D03*
X0078150Y0028460D03*
X0078150Y0028560D03*
X0078150Y0028660D03*
X0078150Y0028760D03*
X0078150Y0028860D03*
X0078150Y0029760D03*
X0066950Y0029760D03*
X0066950Y0029860D03*
X0066950Y0029960D03*
X0066950Y0030060D03*
X0066950Y0029660D03*
X0066950Y0029560D03*
X0066950Y0029460D03*
X0066950Y0029360D03*
X0066950Y0029260D03*
X0066950Y0029160D03*
X0066950Y0029060D03*
X0066950Y0028960D03*
X0066950Y0028860D03*
X0066950Y0028760D03*
X0066950Y0028660D03*
X0066950Y0028560D03*
X0066950Y0028460D03*
X0066950Y0028360D03*
X0066950Y0028260D03*
X0066950Y0028160D03*
X0066950Y0028060D03*
X0066950Y0027960D03*
X0066950Y0027860D03*
X0066950Y0027760D03*
X0066950Y0027660D03*
X0066950Y0027560D03*
X0066950Y0027460D03*
X0066950Y0027360D03*
X0066950Y0027260D03*
X0062450Y0027460D03*
X0062450Y0028760D03*
X0062450Y0028860D03*
X0062450Y0028960D03*
X0062450Y0029060D03*
X0062450Y0029160D03*
X0062450Y0029260D03*
X0062450Y0029360D03*
X0062450Y0029460D03*
X0062450Y0029560D03*
X0062450Y0029660D03*
X0062450Y0029760D03*
X0062450Y0029860D03*
X0062450Y0029960D03*
X0062450Y0030060D03*
X0062450Y0030160D03*
X0062450Y0030260D03*
X0062450Y0030360D03*
X0062450Y0030460D03*
X0066950Y0031460D03*
X0050650Y0030260D03*
X0043350Y0027360D03*
D15*
X0070550Y0027360D03*
X0070550Y0027460D03*
X0070550Y0027560D03*
X0070550Y0027660D03*
X0070550Y0027760D03*
X0070550Y0027860D03*
X0070550Y0027960D03*
X0070550Y0027260D03*
X0076250Y0029160D03*
X0076250Y0029260D03*
D16*
X0062350Y0027260D03*
D17*
X0062550Y0027560D03*
X0059950Y0027560D03*
X0059950Y0027660D03*
X0059950Y0027760D03*
X0059950Y0027860D03*
X0059950Y0027960D03*
X0059950Y0028060D03*
X0059950Y0028160D03*
X0059950Y0028260D03*
X0059950Y0028360D03*
X0059950Y0028460D03*
X0059950Y0028560D03*
X0059950Y0028660D03*
X0059950Y0028760D03*
X0059950Y0028860D03*
X0059950Y0028960D03*
X0059950Y0029060D03*
X0059950Y0029160D03*
X0059950Y0030160D03*
X0059950Y0030260D03*
X0059950Y0030360D03*
X0059950Y0030460D03*
X0059950Y0030560D03*
X0059950Y0030660D03*
X0059950Y0030760D03*
X0059950Y0030860D03*
X0059950Y0030960D03*
X0059950Y0031060D03*
X0059950Y0031160D03*
X0059950Y0031260D03*
X0059950Y0031360D03*
X0059950Y0031460D03*
X0059950Y0031560D03*
X0059950Y0031660D03*
X0059950Y0027460D03*
X0059950Y0027360D03*
X0059950Y0027260D03*
X0055350Y0030460D03*
X0055350Y0030560D03*
X0055350Y0030660D03*
X0055350Y0030760D03*
X0055350Y0030860D03*
X0055350Y0030960D03*
X0055350Y0031060D03*
X0055350Y0031160D03*
X0055350Y0031260D03*
X0052950Y0031260D03*
X0052950Y0031360D03*
X0052950Y0031160D03*
X0052950Y0031060D03*
X0052950Y0030960D03*
X0052950Y0030860D03*
X0047650Y0031960D03*
X0042450Y0029160D03*
X0042450Y0029060D03*
X0042550Y0028960D03*
X0042550Y0028860D03*
X0042650Y0028760D03*
X0042350Y0029260D03*
X0042250Y0029360D03*
X0042250Y0029460D03*
X0042150Y0029560D03*
X0042150Y0029660D03*
X0042050Y0029760D03*
X0042050Y0029860D03*
X0041950Y0029960D03*
X0041950Y0030060D03*
X0041850Y0030160D03*
X0041750Y0030260D03*
X0041750Y0030360D03*
X0041650Y0030460D03*
X0041650Y0030560D03*
X0041550Y0030660D03*
X0041550Y0030760D03*
X0041450Y0030860D03*
X0041450Y0030960D03*
X0041350Y0031060D03*
X0041350Y0031160D03*
X0041250Y0031260D03*
X0041150Y0031460D03*
X0041050Y0031560D03*
X0041050Y0031660D03*
X0040950Y0031760D03*
X0040950Y0031860D03*
X0040850Y0031960D03*
X0040850Y0032060D03*
X0066850Y0031260D03*
X0072350Y0029860D03*
X0074250Y0029760D03*
X0074250Y0030760D03*
X0078150Y0030760D03*
X0080750Y0028460D03*
X0080750Y0028360D03*
D18*
X0062850Y0028060D03*
X0055450Y0027560D03*
X0055350Y0027460D03*
X0055250Y0027360D03*
X0055150Y0027260D03*
X0052650Y0030260D03*
X0043350Y0028060D03*
D19*
X0050300Y0027260D03*
X0070600Y0030860D03*
X0070600Y0030960D03*
X0070600Y0031060D03*
X0070600Y0031160D03*
X0070600Y0031260D03*
X0070600Y0031360D03*
X0070600Y0031460D03*
X0076400Y0031460D03*
D20*
X0062400Y0027360D03*
X0050500Y0030360D03*
X0043300Y0027260D03*
D21*
X0083450Y0027360D03*
D22*
X0057800Y0029460D03*
X0050300Y0027360D03*
D23*
X0050300Y0027460D03*
X0083400Y0027460D03*
D24*
X0078200Y0029860D03*
X0078200Y0029960D03*
X0078200Y0030060D03*
X0078200Y0030160D03*
X0078200Y0030260D03*
X0078200Y0030360D03*
X0078200Y0030460D03*
X0078200Y0030560D03*
X0078200Y0030660D03*
X0074200Y0030660D03*
X0074200Y0030560D03*
X0074200Y0030460D03*
X0074200Y0030360D03*
X0074200Y0030260D03*
X0074200Y0030160D03*
X0074200Y0030060D03*
X0074200Y0029960D03*
X0074200Y0029860D03*
X0072400Y0029960D03*
X0072400Y0030060D03*
X0072400Y0030160D03*
X0072400Y0030260D03*
X0072400Y0030360D03*
X0072400Y0030460D03*
X0072400Y0030560D03*
X0072400Y0030660D03*
X0072400Y0030760D03*
X0072400Y0029060D03*
X0072400Y0028960D03*
X0072400Y0028860D03*
X0072400Y0028760D03*
X0072400Y0028660D03*
X0072400Y0028560D03*
X0072400Y0028460D03*
X0072400Y0028360D03*
X0072400Y0028260D03*
X0072400Y0028160D03*
X0072400Y0028060D03*
X0066900Y0031360D03*
X0062500Y0031360D03*
X0062500Y0031460D03*
X0062500Y0031260D03*
X0062500Y0031160D03*
X0062500Y0031060D03*
X0062500Y0030960D03*
X0062500Y0030860D03*
X0062500Y0030760D03*
X0062500Y0030660D03*
X0062500Y0030560D03*
X0050300Y0030460D03*
X0047700Y0032060D03*
X0043300Y0027460D03*
D25*
X0050300Y0027560D03*
X0083400Y0027560D03*
X0083400Y0032260D03*
D26*
X0086100Y0031560D03*
X0086100Y0031460D03*
X0086100Y0031360D03*
X0086100Y0031260D03*
X0086100Y0031160D03*
X0086100Y0031060D03*
X0086100Y0030960D03*
X0086100Y0030860D03*
X0086100Y0030760D03*
X0086100Y0030660D03*
X0086100Y0030560D03*
X0086100Y0030460D03*
X0086100Y0030360D03*
X0086100Y0030260D03*
X0086100Y0030160D03*
X0086100Y0030060D03*
X0086100Y0029960D03*
X0086100Y0029860D03*
X0086100Y0029760D03*
X0086100Y0029660D03*
X0086100Y0029560D03*
X0086100Y0029460D03*
X0086100Y0029360D03*
X0086100Y0029260D03*
X0086100Y0029160D03*
X0086100Y0029060D03*
X0086100Y0028960D03*
X0086100Y0028860D03*
X0086100Y0028760D03*
X0086100Y0028660D03*
X0086100Y0028560D03*
X0086100Y0028460D03*
X0086100Y0028360D03*
X0086100Y0028260D03*
X0080800Y0028260D03*
X0080800Y0028560D03*
X0080800Y0028660D03*
X0080800Y0028760D03*
X0080800Y0028860D03*
X0080800Y0028960D03*
X0080800Y0029060D03*
X0080800Y0029160D03*
X0080800Y0029260D03*
X0080800Y0029360D03*
X0080800Y0029460D03*
X0080800Y0029560D03*
X0080800Y0029660D03*
X0080800Y0029760D03*
X0080800Y0029860D03*
X0080800Y0029960D03*
X0080800Y0030060D03*
X0080800Y0030160D03*
X0080800Y0030260D03*
X0080800Y0030360D03*
X0080800Y0030460D03*
X0080800Y0030560D03*
X0080800Y0030660D03*
X0080800Y0030760D03*
X0080800Y0030860D03*
X0080800Y0030960D03*
X0080800Y0031060D03*
X0080800Y0031160D03*
X0080800Y0031260D03*
X0080800Y0031360D03*
X0080800Y0031460D03*
X0080800Y0031560D03*
X0066800Y0031160D03*
X0062600Y0027660D03*
X0059900Y0029260D03*
X0055400Y0030260D03*
X0055400Y0030360D03*
X0055400Y0031360D03*
X0055400Y0031460D03*
X0052900Y0031460D03*
X0052900Y0031560D03*
X0052900Y0030760D03*
X0052900Y0030660D03*
X0050400Y0031960D03*
X0050300Y0031860D03*
X0050200Y0031760D03*
X0050100Y0031660D03*
X0047700Y0031860D03*
X0045800Y0031960D03*
X0045500Y0031460D03*
X0045100Y0030760D03*
X0044000Y0028860D03*
X0043300Y0027660D03*
X0043300Y0027560D03*
X0041200Y0031360D03*
D27*
X0050300Y0027660D03*
X0083400Y0027660D03*
X0083400Y0032160D03*
D28*
X0066600Y0030860D03*
X0064100Y0028960D03*
X0062800Y0027960D03*
X0055800Y0027860D03*
X0055700Y0027760D03*
X0055600Y0027660D03*
X0047800Y0031560D03*
X0043300Y0027960D03*
D29*
X0050250Y0027760D03*
X0083450Y0027760D03*
X0083450Y0032060D03*
D30*
X0062650Y0027760D03*
X0055450Y0031560D03*
X0052850Y0031660D03*
X0052850Y0031760D03*
X0052850Y0030560D03*
X0049950Y0031560D03*
X0047750Y0031760D03*
X0045850Y0032060D03*
X0045750Y0031860D03*
X0045650Y0031760D03*
X0045650Y0031660D03*
X0045550Y0031560D03*
X0045450Y0031360D03*
X0045350Y0031260D03*
X0045350Y0031160D03*
X0045250Y0031060D03*
X0045250Y0030960D03*
X0045150Y0030860D03*
X0045050Y0030660D03*
X0044950Y0030560D03*
X0044950Y0030460D03*
X0044850Y0030360D03*
X0044850Y0030260D03*
X0044750Y0030160D03*
X0044650Y0030060D03*
X0044650Y0029960D03*
X0044550Y0029860D03*
X0044550Y0029760D03*
X0044450Y0029660D03*
X0044450Y0029560D03*
X0044350Y0029460D03*
X0044250Y0029360D03*
X0044250Y0029260D03*
X0044150Y0029160D03*
X0044150Y0029060D03*
X0044050Y0028960D03*
X0043950Y0028760D03*
D31*
X0043300Y0027760D03*
X0047800Y0031660D03*
X0052800Y0030460D03*
X0055500Y0030160D03*
X0057000Y0028860D03*
X0057100Y0028960D03*
X0057200Y0029060D03*
X0057300Y0029160D03*
X0057400Y0029260D03*
X0056500Y0028460D03*
X0066700Y0031060D03*
D32*
X0083400Y0031960D03*
X0083400Y0027860D03*
D33*
X0066650Y0030960D03*
X0065550Y0030060D03*
X0065350Y0029960D03*
X0065250Y0029860D03*
X0065150Y0029760D03*
X0065050Y0029660D03*
X0064850Y0029560D03*
X0064750Y0029460D03*
X0064650Y0029360D03*
X0064450Y0029260D03*
X0064350Y0029160D03*
X0064250Y0029060D03*
X0063950Y0028860D03*
X0063850Y0028760D03*
X0062750Y0027860D03*
X0056850Y0028760D03*
X0056750Y0028660D03*
X0056650Y0028560D03*
X0056350Y0028360D03*
X0056250Y0028260D03*
X0056150Y0028160D03*
X0056050Y0028060D03*
X0055950Y0027960D03*
X0052750Y0030360D03*
X0052750Y0031860D03*
X0052650Y0031960D03*
X0055550Y0031660D03*
X0043350Y0027860D03*
D34*
X0048050Y0029160D03*
X0048050Y0030260D03*
X0052450Y0027860D03*
X0063050Y0028360D03*
X0066350Y0030460D03*
D35*
X0048900Y0028660D03*
X0049000Y0027860D03*
D36*
X0050250Y0028860D03*
X0083450Y0028160D03*
X0083450Y0028060D03*
X0083450Y0027960D03*
X0083450Y0031660D03*
X0083450Y0031760D03*
X0083450Y0031860D03*
D37*
X0066400Y0030560D03*
X0063000Y0028260D03*
X0052500Y0027960D03*
X0052500Y0028660D03*
X0048000Y0029260D03*
X0048000Y0030160D03*
X0043300Y0028360D03*
X0043300Y0028260D03*
D38*
X0048850Y0028360D03*
X0048850Y0028460D03*
X0048850Y0028560D03*
X0048850Y0028160D03*
X0048950Y0027960D03*
X0048850Y0030560D03*
D39*
X0047950Y0030060D03*
X0047950Y0029960D03*
X0047950Y0029860D03*
X0047950Y0029560D03*
X0047950Y0029460D03*
X0047950Y0029360D03*
X0052550Y0028560D03*
X0052550Y0028460D03*
X0052550Y0028360D03*
X0052550Y0028160D03*
X0052550Y0028060D03*
X0066450Y0030660D03*
D40*
X0051700Y0028960D03*
X0048900Y0028060D03*
X0048800Y0028260D03*
X0048800Y0030660D03*
X0048800Y0030760D03*
X0048800Y0031460D03*
X0051600Y0032060D03*
D41*
X0052600Y0028260D03*
X0047900Y0029660D03*
X0047900Y0029760D03*
X0043300Y0028160D03*
X0062900Y0028160D03*
X0066500Y0030760D03*
D42*
X0063100Y0028460D03*
X0052400Y0028760D03*
X0048100Y0029060D03*
X0048100Y0030360D03*
X0043300Y0028460D03*
D43*
X0043300Y0028660D03*
X0048200Y0028960D03*
X0048200Y0030460D03*
X0063200Y0028560D03*
X0066200Y0030260D03*
D44*
X0066250Y0030360D03*
X0043350Y0028560D03*
D45*
X0063250Y0028660D03*
X0066150Y0030160D03*
D46*
X0076600Y0028960D03*
X0049000Y0028760D03*
D47*
X0051800Y0029060D03*
D48*
X0051950Y0029360D03*
X0051950Y0029460D03*
X0051950Y0029560D03*
X0051950Y0029660D03*
X0051950Y0029760D03*
X0051950Y0029860D03*
X0051950Y0029960D03*
X0071350Y0029760D03*
X0071350Y0029660D03*
X0071350Y0029560D03*
X0071350Y0029460D03*
X0071350Y0029360D03*
X0071350Y0029260D03*
X0071350Y0029160D03*
D49*
X0051850Y0029160D03*
D50*
X0051900Y0029260D03*
X0051900Y0030060D03*
X0051900Y0030160D03*
D51*
X0076200Y0029460D03*
X0076200Y0029360D03*
X0076300Y0031360D03*
D52*
X0057900Y0029360D03*
D53*
X0076150Y0029560D03*
X0076150Y0029660D03*
X0076250Y0031060D03*
X0076250Y0031160D03*
X0076250Y0031260D03*
D54*
X0057750Y0029560D03*
D55*
X0057700Y0029660D03*
X0057700Y0029760D03*
X0057700Y0031960D03*
X0057700Y0032060D03*
D56*
X0057650Y0031860D03*
X0057650Y0031760D03*
X0057650Y0030060D03*
X0057650Y0029960D03*
X0057650Y0029860D03*
X0083450Y0032360D03*
D57*
X0076200Y0030960D03*
X0076200Y0030860D03*
D58*
X0048750Y0030860D03*
X0048750Y0030960D03*
X0048750Y0031060D03*
X0048750Y0031160D03*
X0048750Y0031260D03*
X0048750Y0031360D03*
D59*
X0083450Y0032460D03*
M02*
