G75*
G70*
%OFA0B0*%
%FSLAX24Y24*%
%IPPOS*%
%LPD*%
%AMOC8*
5,1,8,0,0,1.08239X$1,22.5*
%
%ADD10C,0.0000*%
%ADD11OC8,0.0591*%
%ADD12C,0.0591*%
%ADD13C,0.1299*%
%ADD14C,0.1142*%
%ADD15C,0.1063*%
%ADD16C,0.1102*%
%ADD17OC8,0.0600*%
%ADD18C,0.2000*%
%ADD19OC8,0.0610*%
%ADD20OC8,0.0787*%
%ADD21C,0.0270*%
%ADD22C,0.0356*%
%ADD23C,0.0100*%
%ADD24C,0.0160*%
%ADD25C,0.0400*%
%ADD26C,0.0240*%
%ADD27C,0.0500*%
%ADD28C,0.0660*%
%ADD29C,0.1000*%
%ADD30C,0.0320*%
D10*
X000180Y000300D02*
X000180Y031800D01*
X057261Y031800D01*
X057261Y000300D01*
X000180Y000300D01*
X000735Y001480D02*
X000737Y001530D01*
X000743Y001579D01*
X000753Y001628D01*
X000766Y001675D01*
X000784Y001722D01*
X000805Y001767D01*
X000829Y001810D01*
X000857Y001851D01*
X000888Y001890D01*
X000922Y001926D01*
X000959Y001960D01*
X000999Y001990D01*
X001040Y002017D01*
X001084Y002041D01*
X001129Y002061D01*
X001176Y002077D01*
X001224Y002090D01*
X001273Y002099D01*
X001323Y002104D01*
X001372Y002105D01*
X001422Y002102D01*
X001471Y002095D01*
X001520Y002084D01*
X001567Y002070D01*
X001613Y002051D01*
X001658Y002029D01*
X001701Y002004D01*
X001741Y001975D01*
X001779Y001943D01*
X001815Y001909D01*
X001848Y001871D01*
X001877Y001831D01*
X001903Y001789D01*
X001926Y001745D01*
X001945Y001699D01*
X001961Y001652D01*
X001973Y001603D01*
X001981Y001554D01*
X001985Y001505D01*
X001985Y001455D01*
X001981Y001406D01*
X001973Y001357D01*
X001961Y001308D01*
X001945Y001261D01*
X001926Y001215D01*
X001903Y001171D01*
X001877Y001129D01*
X001848Y001089D01*
X001815Y001051D01*
X001779Y001017D01*
X001741Y000985D01*
X001701Y000956D01*
X001658Y000931D01*
X001613Y000909D01*
X001567Y000890D01*
X001520Y000876D01*
X001471Y000865D01*
X001422Y000858D01*
X001372Y000855D01*
X001323Y000856D01*
X001273Y000861D01*
X001224Y000870D01*
X001176Y000883D01*
X001129Y000899D01*
X001084Y000919D01*
X001040Y000943D01*
X000999Y000970D01*
X000959Y001000D01*
X000922Y001034D01*
X000888Y001070D01*
X000857Y001109D01*
X000829Y001150D01*
X000805Y001193D01*
X000784Y001238D01*
X000766Y001285D01*
X000753Y001332D01*
X000743Y001381D01*
X000737Y001430D01*
X000735Y001480D01*
X044836Y025400D02*
X044838Y025450D01*
X044844Y025499D01*
X044854Y025548D01*
X044867Y025595D01*
X044885Y025642D01*
X044906Y025687D01*
X044930Y025730D01*
X044958Y025771D01*
X044989Y025810D01*
X045023Y025846D01*
X045060Y025880D01*
X045100Y025910D01*
X045141Y025937D01*
X045185Y025961D01*
X045230Y025981D01*
X045277Y025997D01*
X045325Y026010D01*
X045374Y026019D01*
X045424Y026024D01*
X045473Y026025D01*
X045523Y026022D01*
X045572Y026015D01*
X045621Y026004D01*
X045668Y025990D01*
X045714Y025971D01*
X045759Y025949D01*
X045802Y025924D01*
X045842Y025895D01*
X045880Y025863D01*
X045916Y025829D01*
X045949Y025791D01*
X045978Y025751D01*
X046004Y025709D01*
X046027Y025665D01*
X046046Y025619D01*
X046062Y025572D01*
X046074Y025523D01*
X046082Y025474D01*
X046086Y025425D01*
X046086Y025375D01*
X046082Y025326D01*
X046074Y025277D01*
X046062Y025228D01*
X046046Y025181D01*
X046027Y025135D01*
X046004Y025091D01*
X045978Y025049D01*
X045949Y025009D01*
X045916Y024971D01*
X045880Y024937D01*
X045842Y024905D01*
X045802Y024876D01*
X045759Y024851D01*
X045714Y024829D01*
X045668Y024810D01*
X045621Y024796D01*
X045572Y024785D01*
X045523Y024778D01*
X045473Y024775D01*
X045424Y024776D01*
X045374Y024781D01*
X045325Y024790D01*
X045277Y024803D01*
X045230Y024819D01*
X045185Y024839D01*
X045141Y024863D01*
X045100Y024890D01*
X045060Y024920D01*
X045023Y024954D01*
X044989Y024990D01*
X044958Y025029D01*
X044930Y025070D01*
X044906Y025113D01*
X044885Y025158D01*
X044867Y025205D01*
X044854Y025252D01*
X044844Y025301D01*
X044838Y025350D01*
X044836Y025400D01*
X055456Y030610D02*
X055458Y030660D01*
X055464Y030709D01*
X055474Y030758D01*
X055487Y030805D01*
X055505Y030852D01*
X055526Y030897D01*
X055550Y030940D01*
X055578Y030981D01*
X055609Y031020D01*
X055643Y031056D01*
X055680Y031090D01*
X055720Y031120D01*
X055761Y031147D01*
X055805Y031171D01*
X055850Y031191D01*
X055897Y031207D01*
X055945Y031220D01*
X055994Y031229D01*
X056044Y031234D01*
X056093Y031235D01*
X056143Y031232D01*
X056192Y031225D01*
X056241Y031214D01*
X056288Y031200D01*
X056334Y031181D01*
X056379Y031159D01*
X056422Y031134D01*
X056462Y031105D01*
X056500Y031073D01*
X056536Y031039D01*
X056569Y031001D01*
X056598Y030961D01*
X056624Y030919D01*
X056647Y030875D01*
X056666Y030829D01*
X056682Y030782D01*
X056694Y030733D01*
X056702Y030684D01*
X056706Y030635D01*
X056706Y030585D01*
X056702Y030536D01*
X056694Y030487D01*
X056682Y030438D01*
X056666Y030391D01*
X056647Y030345D01*
X056624Y030301D01*
X056598Y030259D01*
X056569Y030219D01*
X056536Y030181D01*
X056500Y030147D01*
X056462Y030115D01*
X056422Y030086D01*
X056379Y030061D01*
X056334Y030039D01*
X056288Y030020D01*
X056241Y030006D01*
X056192Y029995D01*
X056143Y029988D01*
X056093Y029985D01*
X056044Y029986D01*
X055994Y029991D01*
X055945Y030000D01*
X055897Y030013D01*
X055850Y030029D01*
X055805Y030049D01*
X055761Y030073D01*
X055720Y030100D01*
X055680Y030130D01*
X055643Y030164D01*
X055609Y030200D01*
X055578Y030239D01*
X055550Y030280D01*
X055526Y030323D01*
X055505Y030368D01*
X055487Y030415D01*
X055474Y030462D01*
X055464Y030511D01*
X055458Y030560D01*
X055456Y030610D01*
X008216Y030610D02*
X008218Y030660D01*
X008224Y030709D01*
X008234Y030758D01*
X008247Y030805D01*
X008265Y030852D01*
X008286Y030897D01*
X008310Y030940D01*
X008338Y030981D01*
X008369Y031020D01*
X008403Y031056D01*
X008440Y031090D01*
X008480Y031120D01*
X008521Y031147D01*
X008565Y031171D01*
X008610Y031191D01*
X008657Y031207D01*
X008705Y031220D01*
X008754Y031229D01*
X008804Y031234D01*
X008853Y031235D01*
X008903Y031232D01*
X008952Y031225D01*
X009001Y031214D01*
X009048Y031200D01*
X009094Y031181D01*
X009139Y031159D01*
X009182Y031134D01*
X009222Y031105D01*
X009260Y031073D01*
X009296Y031039D01*
X009329Y031001D01*
X009358Y030961D01*
X009384Y030919D01*
X009407Y030875D01*
X009426Y030829D01*
X009442Y030782D01*
X009454Y030733D01*
X009462Y030684D01*
X009466Y030635D01*
X009466Y030585D01*
X009462Y030536D01*
X009454Y030487D01*
X009442Y030438D01*
X009426Y030391D01*
X009407Y030345D01*
X009384Y030301D01*
X009358Y030259D01*
X009329Y030219D01*
X009296Y030181D01*
X009260Y030147D01*
X009222Y030115D01*
X009182Y030086D01*
X009139Y030061D01*
X009094Y030039D01*
X009048Y030020D01*
X009001Y030006D01*
X008952Y029995D01*
X008903Y029988D01*
X008853Y029985D01*
X008804Y029986D01*
X008754Y029991D01*
X008705Y030000D01*
X008657Y030013D01*
X008610Y030029D01*
X008565Y030049D01*
X008521Y030073D01*
X008480Y030100D01*
X008440Y030130D01*
X008403Y030164D01*
X008369Y030200D01*
X008338Y030239D01*
X008310Y030280D01*
X008286Y030323D01*
X008265Y030368D01*
X008247Y030415D01*
X008234Y030462D01*
X008224Y030511D01*
X008218Y030560D01*
X008216Y030610D01*
X055456Y001480D02*
X055458Y001530D01*
X055464Y001579D01*
X055474Y001628D01*
X055487Y001675D01*
X055505Y001722D01*
X055526Y001767D01*
X055550Y001810D01*
X055578Y001851D01*
X055609Y001890D01*
X055643Y001926D01*
X055680Y001960D01*
X055720Y001990D01*
X055761Y002017D01*
X055805Y002041D01*
X055850Y002061D01*
X055897Y002077D01*
X055945Y002090D01*
X055994Y002099D01*
X056044Y002104D01*
X056093Y002105D01*
X056143Y002102D01*
X056192Y002095D01*
X056241Y002084D01*
X056288Y002070D01*
X056334Y002051D01*
X056379Y002029D01*
X056422Y002004D01*
X056462Y001975D01*
X056500Y001943D01*
X056536Y001909D01*
X056569Y001871D01*
X056598Y001831D01*
X056624Y001789D01*
X056647Y001745D01*
X056666Y001699D01*
X056682Y001652D01*
X056694Y001603D01*
X056702Y001554D01*
X056706Y001505D01*
X056706Y001455D01*
X056702Y001406D01*
X056694Y001357D01*
X056682Y001308D01*
X056666Y001261D01*
X056647Y001215D01*
X056624Y001171D01*
X056598Y001129D01*
X056569Y001089D01*
X056536Y001051D01*
X056500Y001017D01*
X056462Y000985D01*
X056422Y000956D01*
X056379Y000931D01*
X056334Y000909D01*
X056288Y000890D01*
X056241Y000876D01*
X056192Y000865D01*
X056143Y000858D01*
X056093Y000855D01*
X056044Y000856D01*
X055994Y000861D01*
X055945Y000870D01*
X055897Y000883D01*
X055850Y000899D01*
X055805Y000919D01*
X055761Y000943D01*
X055720Y000970D01*
X055680Y001000D01*
X055643Y001034D01*
X055609Y001070D01*
X055578Y001109D01*
X055550Y001150D01*
X055526Y001193D01*
X055505Y001238D01*
X055487Y001285D01*
X055474Y001332D01*
X055464Y001381D01*
X055458Y001430D01*
X055456Y001480D01*
D11*
X043461Y005900D03*
X042461Y005900D03*
X041461Y005900D03*
X040461Y005900D03*
X039461Y005900D03*
X038461Y005900D03*
X037461Y005900D03*
X036461Y005900D03*
X035461Y005900D03*
X034461Y005900D03*
X033461Y005900D03*
X032461Y005900D03*
X031461Y005900D03*
X030461Y005900D03*
X029461Y005900D03*
X028461Y005900D03*
X027461Y005900D03*
X026461Y005900D03*
X025461Y005900D03*
X024461Y005900D03*
X023461Y005900D03*
X022461Y005900D03*
X021461Y005900D03*
X021461Y006900D03*
X022461Y006900D03*
X023461Y006900D03*
X024461Y006900D03*
X025461Y006900D03*
X026461Y006900D03*
X027461Y006900D03*
X028461Y006900D03*
X029461Y006900D03*
X030461Y006900D03*
X031461Y006900D03*
X032461Y006900D03*
X033461Y006900D03*
X034461Y006900D03*
X035461Y006900D03*
X036461Y006900D03*
X037461Y006900D03*
X038461Y006900D03*
X039461Y006900D03*
X040461Y006900D03*
X041461Y006900D03*
X042461Y006900D03*
X043461Y006900D03*
X041111Y009000D03*
X040111Y009000D03*
X040111Y010000D03*
X041111Y010000D03*
X041111Y011000D03*
X040111Y011000D03*
X030211Y016600D03*
X029211Y016600D03*
X028211Y016600D03*
X028211Y017600D03*
X029211Y017600D03*
X030211Y017600D03*
X030211Y028250D03*
X031211Y028250D03*
X032211Y028250D03*
X033211Y028250D03*
X034211Y028250D03*
X035211Y028250D03*
X036211Y028250D03*
X037211Y028250D03*
X037211Y029250D03*
X036211Y029250D03*
X035211Y029250D03*
X034211Y029250D03*
X033211Y029250D03*
X032211Y029250D03*
X031211Y029250D03*
X030211Y029250D03*
X028511Y029250D03*
X027511Y029250D03*
X026511Y029250D03*
X025511Y029250D03*
X024511Y029250D03*
X023511Y029250D03*
X022511Y029250D03*
X021511Y029250D03*
X021511Y028250D03*
X022511Y028250D03*
X023511Y028250D03*
X024511Y028250D03*
X025511Y028250D03*
X026511Y028250D03*
X027511Y028250D03*
X028511Y028250D03*
X038961Y028250D03*
X039961Y028250D03*
X040961Y028250D03*
X041961Y028250D03*
X042961Y028250D03*
X043961Y028250D03*
X044961Y028250D03*
X045961Y028250D03*
X047661Y028250D03*
X048661Y028250D03*
X049661Y028250D03*
X050661Y028250D03*
X051661Y028250D03*
X052661Y028250D03*
X053661Y028250D03*
X054661Y028250D03*
X054661Y029250D03*
X053661Y029250D03*
X052661Y029250D03*
X051661Y029250D03*
X050661Y029250D03*
X049661Y029250D03*
X048661Y029250D03*
X047661Y029250D03*
X045961Y029250D03*
X044961Y029250D03*
X043961Y029250D03*
X042961Y029250D03*
X041961Y029250D03*
X040961Y029250D03*
X039961Y029250D03*
X038961Y029250D03*
X028811Y004250D03*
X027811Y004250D03*
X026811Y004250D03*
X026811Y003250D03*
X027811Y003250D03*
X028811Y003250D03*
X028811Y002250D03*
X027811Y002250D03*
X026811Y002250D03*
X025011Y002250D03*
X024011Y002250D03*
X023011Y002250D03*
X023011Y003250D03*
X024011Y003250D03*
X025011Y003250D03*
X025011Y004250D03*
X024011Y004250D03*
X023011Y004250D03*
D12*
X030116Y003250D02*
X030707Y003250D01*
X030707Y002250D02*
X030116Y002250D01*
X025057Y009480D02*
X024466Y009480D01*
X024466Y010480D02*
X025057Y010480D01*
X025057Y011480D02*
X024466Y011480D01*
X036806Y016660D02*
X037397Y016660D01*
X037397Y017660D02*
X036806Y017660D01*
X036806Y018660D02*
X037397Y018660D01*
X025107Y025250D02*
X024516Y025250D01*
X024516Y026250D02*
X025107Y026250D01*
X015480Y030136D02*
X015480Y030727D01*
X014480Y030727D02*
X014480Y030136D01*
X049911Y006095D02*
X049911Y005505D01*
X050911Y005505D02*
X050911Y006095D01*
D13*
X019637Y007670D02*
X018338Y007670D01*
X018338Y003733D02*
X019637Y003733D01*
X019637Y017133D02*
X018338Y017133D01*
X018338Y020282D02*
X019637Y020282D01*
X019637Y023249D02*
X018338Y023249D01*
X018338Y028367D02*
X019637Y028367D01*
D14*
X007551Y029843D02*
X006409Y029843D01*
X006409Y026300D02*
X007551Y026300D01*
X007551Y022757D02*
X006409Y022757D01*
X006409Y019593D02*
X007551Y019593D01*
X007551Y016050D02*
X006409Y016050D01*
X006409Y012507D02*
X007551Y012507D01*
X007551Y009343D02*
X006409Y009343D01*
X006409Y005800D02*
X007551Y005800D01*
X007551Y002257D02*
X006409Y002257D01*
D15*
X018260Y002650D02*
X019323Y002650D01*
X019323Y006587D02*
X018260Y006587D01*
X018260Y016050D02*
X019323Y016050D01*
X019323Y019200D02*
X018260Y019200D01*
X018260Y024331D02*
X019323Y024331D01*
X019323Y029450D02*
X018260Y029450D01*
D16*
X007531Y030843D02*
X006429Y030843D01*
X006429Y027300D02*
X007531Y027300D01*
X007531Y023757D02*
X006429Y023757D01*
X006429Y020593D02*
X007531Y020593D01*
X007531Y017050D02*
X006429Y017050D01*
X006429Y013507D02*
X007531Y013507D01*
X007531Y008343D02*
X006429Y008343D01*
X006429Y004800D02*
X007531Y004800D01*
X007531Y001257D02*
X006429Y001257D01*
D17*
X003590Y014030D03*
X002470Y014570D03*
X003590Y015120D03*
X002470Y015660D03*
X003590Y016200D03*
X002470Y016750D03*
X003590Y017290D03*
X002470Y017830D03*
X003590Y018380D03*
X002470Y018920D03*
X003590Y019460D03*
X002470Y020010D03*
X003590Y020550D03*
X002470Y021090D03*
X003590Y021640D03*
X002470Y022180D03*
X003590Y022720D03*
X002470Y023270D03*
X003590Y023810D03*
X002470Y024350D03*
X003590Y024900D03*
X002470Y025440D03*
X003590Y025980D03*
X002470Y026530D03*
X003590Y027070D03*
D18*
X003030Y029810D03*
X003030Y011290D03*
D19*
X046061Y007100D03*
X047061Y007100D03*
X048061Y007100D03*
X048061Y006100D03*
X047061Y006100D03*
X046061Y006100D03*
D20*
X051211Y001250D03*
X032030Y001650D03*
X003830Y003400D03*
X003130Y005700D03*
X001330Y005700D03*
X001330Y007150D03*
X003130Y007150D03*
X003130Y008700D03*
X001330Y008700D03*
D21*
X018261Y015000D03*
X019411Y013250D03*
X020711Y011950D03*
X021211Y011800D03*
X022711Y011850D03*
X021211Y010350D03*
X021811Y009000D03*
X020411Y008750D03*
X022511Y007750D03*
X031111Y004350D03*
X031961Y004500D03*
X032561Y004900D03*
X035511Y004300D03*
X037811Y004800D03*
X038311Y004800D03*
X039661Y004800D03*
X040961Y004550D03*
X044411Y005050D03*
X044911Y004500D03*
X046161Y004500D03*
X047111Y003850D03*
X047411Y002350D03*
X051861Y002200D03*
X055411Y007100D03*
X056861Y007800D03*
X053661Y009250D03*
X053261Y009250D03*
X053261Y009650D03*
X053661Y009650D03*
X051361Y008950D03*
X056361Y011250D03*
X049811Y014950D03*
X048561Y015400D03*
X047411Y015250D03*
X048161Y013700D03*
X044511Y015400D03*
X042411Y017200D03*
X042461Y017600D03*
X042061Y018050D03*
X041411Y018050D03*
X041011Y017850D03*
X039561Y017550D03*
X039411Y017900D03*
X039411Y016900D03*
X035911Y018850D03*
X034711Y018300D03*
X034261Y018300D03*
X032061Y019750D03*
X033761Y020750D03*
X033711Y021150D03*
X033811Y022050D03*
X034861Y021500D03*
X035111Y022300D03*
X035761Y021850D03*
X035911Y021500D03*
X037286Y021225D03*
X037311Y021850D03*
X039011Y021000D03*
X039361Y021350D03*
X039961Y020850D03*
X040311Y021000D03*
X040661Y021300D03*
X041211Y021400D03*
X041811Y020850D03*
X041461Y020750D03*
X040961Y020750D03*
X040461Y019450D03*
X039411Y019425D03*
X036161Y020400D03*
X032261Y022600D03*
X031711Y022600D03*
X030811Y023650D03*
X029961Y022000D03*
X030711Y021350D03*
X028261Y020900D03*
X027461Y022300D03*
X026511Y022350D03*
X026461Y025550D03*
X028061Y025700D03*
X032361Y026000D03*
X033011Y026250D03*
X034511Y024800D03*
X035061Y024550D03*
X034661Y024300D03*
X034561Y023800D03*
X034961Y023500D03*
X034511Y023200D03*
X035461Y023850D03*
X037311Y024775D03*
X037411Y024250D03*
X038411Y023850D03*
X038761Y024100D03*
X038561Y025100D03*
X039311Y025100D03*
X039561Y025550D03*
X040111Y025550D03*
X039861Y026900D03*
X039511Y026900D03*
X038111Y027850D03*
X043411Y024900D03*
X043711Y024600D03*
X041961Y023750D03*
X041811Y023400D03*
X042061Y023050D03*
X041911Y022350D03*
X042211Y022025D03*
X043711Y022450D03*
X047661Y023650D03*
X049461Y025050D03*
X048911Y025350D03*
X052786Y022500D03*
X054436Y022450D03*
X056086Y022450D03*
X056336Y020700D03*
X055511Y020700D03*
X054436Y020700D03*
X053711Y020700D03*
X052636Y020650D03*
X051961Y020650D03*
X051086Y020700D03*
X050211Y020700D03*
X050986Y022400D03*
X045211Y020200D03*
X043911Y019600D03*
X043511Y019150D03*
X042811Y019350D03*
X043511Y020350D03*
X035411Y015900D03*
X036611Y013750D03*
X036311Y013400D03*
X037161Y013100D03*
X036411Y010800D03*
X035511Y009500D03*
X035811Y008850D03*
X036261Y008250D03*
X040361Y001900D03*
X036111Y001400D03*
X022711Y013600D03*
X022661Y014950D03*
X021061Y015000D03*
X020861Y016550D03*
X022911Y016550D03*
X026361Y018250D03*
X031111Y017600D03*
D22*
X028911Y019250D03*
X028411Y019250D03*
X027911Y019250D03*
X030861Y019650D03*
X031361Y019650D03*
X020861Y019300D03*
X020861Y018800D03*
X020861Y018300D03*
X015711Y019450D03*
X015711Y016100D03*
X014830Y023250D03*
X013630Y023250D03*
X016011Y023750D03*
X014830Y025450D03*
X013580Y025450D03*
X016530Y027200D03*
X044061Y014850D03*
X044061Y014350D03*
X044061Y013850D03*
X047161Y015950D03*
X047661Y015950D03*
X047661Y017500D03*
X048311Y017900D03*
X049511Y017550D03*
X050461Y016500D03*
X051411Y017550D03*
X053311Y017550D03*
X053311Y018600D03*
X053311Y019650D03*
X051411Y019650D03*
X051411Y018600D03*
X049511Y018600D03*
X049486Y019650D03*
X048711Y020350D03*
X047011Y020350D03*
X047611Y021525D03*
X047611Y021975D03*
X047511Y022425D03*
X047661Y022900D03*
X050136Y024700D03*
X046111Y030000D03*
X055211Y019650D03*
X055211Y018600D03*
X055211Y017550D03*
X056661Y015000D03*
X056661Y014450D03*
X056661Y013950D03*
X056661Y013400D03*
X056661Y012850D03*
X054761Y011600D03*
X053911Y011950D03*
X053911Y012450D03*
X053711Y011500D03*
X052711Y011300D03*
X052261Y011300D03*
X051811Y011300D03*
X050911Y011200D03*
X050911Y011650D03*
X050911Y012100D03*
X049211Y012200D03*
X048711Y012200D03*
X048211Y012200D03*
X050911Y009050D03*
X051811Y009050D03*
X054811Y009550D03*
X054761Y010500D03*
X056861Y010500D03*
X056861Y009550D03*
X051311Y006800D03*
X053161Y006000D03*
X053711Y006000D03*
X055611Y006000D03*
X056111Y006000D03*
X056161Y003600D03*
X055611Y003600D03*
X053761Y003600D03*
X053211Y003600D03*
X047161Y001250D03*
X040311Y001250D03*
X034961Y004600D03*
X047311Y008800D03*
X047761Y008800D03*
X044361Y016700D03*
X044361Y017150D03*
X044361Y018650D03*
X044361Y019125D03*
X016461Y002700D03*
X016011Y002700D03*
X013730Y002700D03*
X013730Y001700D03*
X013730Y006000D03*
D23*
X021211Y010350D02*
X021211Y010600D01*
X021511Y010900D01*
X022611Y010900D01*
X023461Y011700D01*
X023461Y014150D01*
X025211Y015900D01*
X030311Y015900D01*
X035711Y021450D01*
X035911Y021500D01*
X035761Y021850D02*
X035661Y021800D01*
X032511Y018650D01*
X025611Y018650D01*
X020711Y013800D01*
X020711Y011950D01*
X024661Y008750D02*
X025461Y008750D01*
X027161Y010450D01*
X030411Y010450D01*
X035861Y015900D01*
X037761Y015900D01*
X038061Y016200D01*
X038061Y020150D01*
X038611Y020700D01*
X039211Y020700D01*
X039361Y020850D01*
X039961Y020850D01*
X040111Y020500D02*
X040311Y020700D01*
X040311Y021000D01*
X040661Y021300D02*
X040661Y020500D01*
X040461Y020300D01*
X038861Y020300D01*
X038461Y019950D01*
X038461Y015850D01*
X037911Y015300D01*
X035961Y015300D01*
X030561Y009900D01*
X027411Y009900D01*
X025861Y008300D01*
X024961Y007400D01*
X024961Y005100D01*
X025011Y005050D01*
X025011Y004250D01*
X024011Y004250D02*
X024011Y005250D01*
X023961Y005300D01*
X023961Y007550D01*
X024911Y008500D01*
X025611Y008500D01*
X027261Y010150D01*
X030461Y010150D01*
X035961Y015650D01*
X037811Y015650D01*
X038261Y016100D01*
X038261Y020050D01*
X038711Y020500D01*
X040111Y020500D01*
X040861Y020100D02*
X038911Y020100D01*
X038661Y019850D01*
X038661Y015650D01*
X038011Y015000D01*
X036211Y015000D01*
X029261Y008200D01*
X028611Y008200D01*
X027961Y007550D01*
X027961Y005450D01*
X026811Y004300D01*
X026811Y004250D01*
X027811Y004250D02*
X028961Y005400D01*
X028961Y007450D01*
X030711Y009200D01*
X030761Y009200D01*
X036311Y014750D01*
X038411Y014750D01*
X038861Y015200D01*
X038861Y019800D01*
X038961Y019900D01*
X041311Y019900D01*
X041461Y020100D01*
X041461Y020750D01*
X041811Y020850D02*
X041811Y019900D01*
X041611Y019700D01*
X039261Y019700D01*
X039061Y019500D01*
X039061Y015000D01*
X038511Y014450D01*
X036461Y014450D01*
X033061Y011050D01*
X030861Y008900D01*
X029961Y008050D01*
X029961Y005450D01*
X028811Y004250D01*
X031111Y004350D02*
X031361Y004150D01*
X031361Y002900D01*
X031761Y002500D01*
X031761Y002450D01*
X047411Y002350D01*
X047111Y003850D02*
X032711Y003950D01*
X032561Y003950D01*
X031961Y004500D01*
X032961Y005500D02*
X033261Y005200D01*
X036111Y005200D01*
X036861Y004450D01*
X040411Y004450D01*
X040811Y004850D01*
X042761Y004850D01*
X043111Y004500D01*
X044911Y004500D01*
X044411Y005050D02*
X043311Y005050D01*
X042461Y005900D01*
X039661Y004800D02*
X039361Y004800D01*
X038961Y005200D01*
X038961Y011300D01*
X037161Y013100D01*
X036311Y013400D02*
X036311Y011850D01*
X036961Y011200D01*
X036961Y005600D01*
X037761Y004800D01*
X037811Y004800D01*
X038311Y004800D02*
X038311Y005050D01*
X037961Y005350D01*
X037961Y010950D01*
X036611Y012300D01*
X036611Y013750D01*
X041011Y012950D02*
X041861Y012050D01*
X041861Y010650D01*
X044961Y007500D01*
X044961Y005600D01*
X046111Y004500D01*
X046161Y004500D01*
X046311Y005350D02*
X045711Y005350D01*
X045311Y005750D01*
X045311Y007650D01*
X042211Y010750D01*
X042211Y012300D01*
X041411Y013100D01*
X041411Y018050D01*
X041011Y017850D02*
X039911Y017850D01*
X039561Y017550D01*
X041011Y017850D02*
X041011Y012950D01*
X042061Y013000D02*
X042611Y012450D01*
X042611Y010800D01*
X045561Y007800D01*
X045561Y006600D01*
X046061Y006100D01*
X046311Y005350D02*
X047061Y006100D01*
X047561Y006600D02*
X047561Y007350D01*
X043611Y011300D01*
X043611Y012650D01*
X042911Y013350D01*
X042911Y017150D01*
X042461Y017600D01*
X042411Y017200D02*
X042411Y013250D01*
X043111Y012500D01*
X043111Y011050D01*
X047061Y007100D01*
X047561Y006600D02*
X048061Y006100D01*
X056361Y008350D02*
X056861Y007800D01*
X056361Y008350D02*
X056361Y011250D01*
X047411Y015250D02*
X046911Y015250D01*
X045111Y017000D01*
X045111Y019600D01*
X043361Y021350D01*
X042461Y021350D01*
X041511Y022300D01*
X037161Y022300D01*
X036711Y021850D01*
X036711Y020250D01*
X034711Y018300D01*
X035911Y018850D02*
X038411Y021350D01*
X039361Y021350D01*
X040961Y020750D02*
X040961Y020250D01*
X040861Y020100D01*
X041211Y021400D02*
X041711Y021400D01*
X043461Y019650D01*
X043511Y019150D01*
X043911Y019600D02*
X041611Y021850D01*
X037311Y021850D01*
X035511Y022250D02*
X034861Y021500D01*
X034411Y021750D02*
X035111Y022300D01*
X035511Y022250D02*
X035511Y022600D01*
X035161Y022950D01*
X032111Y022950D01*
X028861Y026200D01*
X028211Y026200D01*
X028061Y026350D01*
X027361Y026350D01*
X027111Y026600D01*
X026361Y026600D01*
X026161Y026800D01*
X025611Y026800D01*
X025411Y027000D01*
X024661Y027000D01*
X024411Y027250D01*
X023861Y027250D01*
X023711Y027400D01*
X023011Y027400D01*
X022761Y027650D01*
X022111Y027650D01*
X021511Y028250D01*
X022511Y028250D02*
X023111Y027650D01*
X023761Y027650D01*
X023961Y027450D01*
X024561Y027450D01*
X024761Y027250D01*
X025511Y027250D01*
X025711Y027050D01*
X026261Y027050D01*
X026511Y026800D01*
X027311Y026800D01*
X027511Y026600D01*
X028161Y026600D01*
X028311Y026450D01*
X028961Y026450D01*
X032161Y023250D01*
X034511Y023200D01*
X034961Y023500D02*
X032211Y023500D01*
X029061Y026650D01*
X028411Y026650D01*
X028261Y026800D01*
X027611Y026800D01*
X027411Y027000D01*
X026661Y027000D01*
X026411Y027250D01*
X025861Y027250D01*
X025661Y027450D01*
X024961Y027450D01*
X024761Y027650D01*
X024111Y027650D01*
X023511Y028250D01*
X024511Y028250D02*
X025111Y027650D01*
X025811Y027650D01*
X026011Y027450D01*
X026611Y027450D01*
X026861Y027200D01*
X027561Y027200D01*
X027711Y027050D01*
X028311Y027050D01*
X028511Y026850D01*
X029161Y026850D01*
X032211Y023800D01*
X034561Y023800D01*
X034661Y024300D02*
X032311Y024300D01*
X029361Y027250D01*
X028761Y027250D01*
X028561Y027450D01*
X027911Y027450D01*
X027711Y027650D01*
X027111Y027650D01*
X026511Y028250D01*
X027511Y028250D02*
X028111Y027650D01*
X028711Y027650D01*
X028911Y027450D01*
X029511Y027450D01*
X032411Y024550D01*
X035061Y024550D01*
X035261Y024050D02*
X032261Y024050D01*
X029261Y027050D01*
X028661Y027050D01*
X028461Y027250D01*
X027811Y027250D01*
X027611Y027450D01*
X026961Y027450D01*
X026761Y027650D01*
X026111Y027650D01*
X025511Y028250D01*
X028511Y028250D02*
X029111Y027650D01*
X029761Y027650D01*
X032611Y024800D01*
X034511Y024800D01*
X035261Y024050D02*
X035461Y023850D01*
X036611Y026100D02*
X038061Y024650D01*
X038411Y024250D01*
X038411Y023850D01*
X038761Y024100D02*
X038721Y024441D01*
X038521Y024591D01*
X036761Y026350D01*
X034411Y026350D01*
X033711Y027200D01*
X033711Y028750D01*
X033211Y029250D01*
X032711Y028750D02*
X032211Y029250D01*
X032711Y028750D02*
X032711Y027450D01*
X033711Y026100D01*
X036611Y026100D01*
X037061Y026650D02*
X035461Y026650D01*
X034711Y027500D01*
X034711Y028750D01*
X034211Y029250D01*
X035211Y029250D02*
X035711Y028750D01*
X035711Y027400D01*
X036011Y027100D01*
X037661Y027100D01*
X039311Y025100D01*
X038561Y025100D02*
X038211Y025450D01*
X037061Y026650D01*
X039511Y026900D02*
X039511Y027100D01*
X039861Y027450D01*
X040161Y027450D01*
X040461Y027750D01*
X040461Y028700D01*
X040961Y029250D01*
X041461Y028750D02*
X041961Y029250D01*
X042961Y029250D02*
X043461Y028700D01*
X043461Y027750D01*
X043411Y027650D01*
X043411Y024900D01*
X043711Y024600D02*
X043711Y026800D01*
X044461Y027600D01*
X044461Y028750D01*
X043961Y029250D01*
X041461Y028750D02*
X041461Y027900D01*
X040461Y026900D01*
X039861Y026900D01*
X041961Y023750D02*
X046361Y023750D01*
X046911Y024200D01*
X051811Y024200D01*
X055311Y020700D01*
X055511Y020700D01*
X053711Y020700D02*
X053211Y020700D01*
X049861Y023950D01*
X047111Y023950D01*
X046461Y023400D01*
X041811Y023400D01*
X042061Y023050D02*
X042311Y023050D01*
X042361Y023000D01*
X046761Y023000D01*
X047061Y023300D01*
X049011Y023300D01*
X051661Y020650D01*
X051961Y020650D01*
X050211Y020700D02*
X044711Y020700D01*
X043111Y022350D01*
X041911Y022350D01*
X042061Y018050D02*
X042061Y013000D01*
X035511Y009500D02*
X032761Y009500D01*
X031461Y008100D01*
X031461Y006900D01*
X032461Y006900D02*
X032511Y006900D01*
X032961Y006450D01*
X032961Y005500D01*
X033461Y005900D02*
X033461Y005950D01*
X033911Y006400D01*
X033911Y007350D01*
X034811Y008250D01*
X036261Y008250D01*
X035811Y008850D02*
X034561Y008850D01*
X033461Y007750D01*
X033461Y006900D01*
X024661Y008750D02*
X022961Y007100D01*
X022961Y005300D01*
X023011Y005100D01*
X023011Y004250D01*
X020861Y016550D02*
X023311Y018900D01*
X032261Y018900D01*
X033361Y020000D01*
X033361Y020800D01*
X033711Y021150D01*
X034411Y021750D02*
X032061Y021750D01*
X031461Y021000D01*
X028261Y020900D01*
X030711Y021350D02*
X030711Y022050D01*
X030211Y022550D01*
X029611Y022550D01*
X026911Y025250D01*
X024811Y025250D01*
X030811Y023650D02*
X031561Y022150D01*
X033811Y022050D01*
X030661Y018250D02*
X030961Y017950D01*
X030961Y017650D01*
X031111Y017600D01*
X030661Y018250D02*
X026361Y018250D01*
D24*
X017211Y012550D02*
X017261Y010450D01*
X017861Y009850D01*
X022461Y009850D01*
X024061Y011450D01*
X024731Y011450D01*
X024761Y011480D01*
X024761Y009480D02*
X024731Y009450D01*
X017561Y009450D01*
X016586Y010475D01*
X016586Y012450D01*
X010140Y021490D01*
X005120Y021490D01*
X004705Y021075D01*
X002485Y021075D01*
X002470Y021090D01*
X002470Y022180D02*
X002490Y022200D01*
X005130Y022200D01*
X005400Y021930D01*
X010300Y021930D01*
X017211Y012550D01*
X002470Y016740D02*
X002470Y016750D01*
X002470Y018920D02*
X002450Y018920D01*
X002470Y024350D02*
X002480Y024350D01*
X003030Y024900D01*
X003030Y027350D01*
X003980Y028300D01*
X015580Y028200D01*
X017780Y030400D01*
X047411Y030500D01*
X048661Y029250D01*
X049611Y029250D02*
X047911Y030950D01*
X017730Y031000D01*
X015530Y028800D01*
X003780Y028750D01*
X001630Y026600D01*
X001630Y026400D01*
X002470Y025460D01*
X002470Y025440D01*
X032561Y004900D02*
X034011Y004900D01*
X034961Y004600D01*
X040361Y001900D02*
X048611Y001900D01*
X049061Y002350D01*
X049061Y007350D01*
X048411Y008000D01*
X047461Y008000D01*
X044161Y011300D01*
X044161Y012800D01*
X043361Y013600D01*
X043361Y017100D01*
X044361Y018100D01*
X044361Y018650D01*
X050461Y016500D02*
X051061Y016500D01*
X054761Y012800D01*
X054761Y011600D01*
X049461Y025050D02*
X049461Y025150D01*
X050161Y025850D01*
X050161Y028700D01*
X049661Y029250D01*
X049611Y029250D01*
X049661Y028250D02*
X049661Y026100D01*
X048911Y025350D01*
D25*
X049486Y019650D02*
X051411Y019650D01*
X053311Y019650D01*
X055211Y019650D01*
X055211Y017550D02*
X053311Y017550D01*
X051411Y017550D01*
X049511Y017550D01*
D26*
X049911Y024500D02*
X047811Y024500D01*
X047061Y025250D01*
X047061Y026850D01*
X046811Y027100D01*
X046811Y029750D01*
X046561Y030000D01*
X046111Y030000D01*
X050111Y024700D02*
X049911Y024500D01*
X050111Y024700D02*
X050136Y024700D01*
X004230Y009250D02*
X004230Y006650D01*
X003280Y005700D01*
X003130Y005700D01*
X003130Y007150D02*
X003830Y007950D01*
X003830Y009100D01*
X003530Y009400D01*
X002480Y009400D01*
X001130Y010750D01*
X001130Y015400D01*
X002470Y016740D01*
X000730Y017200D02*
X000730Y010350D01*
X002380Y008700D01*
X003130Y008700D01*
X004230Y009250D02*
X003680Y009800D01*
X002680Y009800D01*
X001530Y010950D01*
X001530Y013850D01*
X002230Y014550D01*
X002450Y014550D01*
X002470Y014570D01*
X000730Y017200D02*
X002450Y018920D01*
D27*
X048211Y012200D02*
X048711Y012200D01*
X049211Y012200D01*
X049211Y015200D01*
X048911Y016700D01*
X048911Y019000D01*
X049486Y019650D01*
X053911Y011950D02*
X053711Y011750D01*
X053711Y011500D01*
D28*
X053911Y011950D02*
X053911Y012450D01*
X051261Y012450D01*
X050911Y012100D01*
X050911Y011650D01*
X050911Y011200D01*
X006980Y010343D02*
X005380Y011943D01*
X005380Y011950D01*
X004630Y015650D01*
X003690Y016140D01*
X003590Y016200D01*
X003590Y014030D02*
X003600Y014030D01*
X004530Y011900D01*
X004580Y010107D01*
X004390Y019460D02*
X003590Y019460D01*
X004390Y019460D02*
X004530Y019600D01*
X004680Y024900D02*
X003590Y024900D01*
X003590Y025980D02*
X004110Y025980D01*
X004380Y026250D01*
D29*
X006930Y026250D01*
X006980Y026300D01*
X005837Y024900D02*
X004680Y024900D01*
X005837Y024900D02*
X006980Y023757D01*
X006973Y019600D02*
X004530Y019600D01*
X006973Y019600D02*
X006980Y019593D01*
X018988Y026974D02*
X021061Y024900D01*
X021061Y019700D01*
X020861Y019700D01*
X020861Y019300D01*
X020861Y018800D01*
X020861Y018300D01*
X006980Y010343D02*
X006980Y009343D01*
X005030Y009550D02*
X005030Y004107D01*
X005130Y004107D01*
X006980Y002257D01*
X005030Y009550D02*
X004580Y010100D01*
X004580Y010107D01*
X018988Y026974D02*
X018988Y028367D01*
D30*
X016530Y027200D02*
X014830Y025500D01*
X014830Y025450D01*
X030211Y017600D02*
X030211Y016600D01*
M02*
