G75*
G70*
%OFA0B0*%
%FSLAX24Y24*%
%IPPOS*%
%LPD*%
%AMOC8*
5,1,8,0,0,1.08239X$1,22.5*
%
%ADD10C,0.0000*%
%ADD11C,0.1290*%
%ADD12R,0.0591X0.0434*%
%ADD13R,0.0473X0.0434*%
%ADD14R,0.0434X0.0473*%
%ADD15R,0.1221X0.0670*%
%ADD16R,0.2481X0.2323*%
%ADD17R,0.0178X0.0394*%
%ADD18R,0.0749X0.0867*%
%ADD19R,0.0906X0.0276*%
%ADD20R,0.0276X0.0434*%
%ADD21R,0.0434X0.0276*%
%ADD22R,0.0638X0.0741*%
%ADD23R,0.0552X0.0631*%
%ADD24R,0.0434X0.0591*%
%ADD25R,0.0240X0.0540*%
%ADD26R,0.1040X0.0940*%
%ADD27R,0.0520X0.0920*%
%ADD28R,0.1457X0.0906*%
%ADD29R,0.0631X0.0552*%
%ADD30OC8,0.0631*%
%ADD31C,0.0631*%
%ADD32R,0.0158X0.0670*%
%ADD33R,0.0827X0.2127*%
%ADD34R,0.0158X0.0631*%
%ADD35R,0.0631X0.0158*%
%ADD36C,0.1339*%
%ADD37C,0.1182*%
%ADD38C,0.1103*%
%ADD39C,0.1142*%
%ADD40R,0.0355X0.0355*%
%ADD41OC8,0.0640*%
%ADD42C,0.2040*%
%ADD43R,0.0670X0.0750*%
%ADD44OC8,0.0650*%
%ADD45R,0.0985X0.0709*%
%ADD46OC8,0.0827*%
%ADD47C,0.0860*%
%ADD48C,0.0440*%
%ADD49R,0.1024X0.1615*%
%ADD50R,0.0276X0.0906*%
%ADD51R,0.0840X0.0840*%
%ADD52R,0.0867X0.0749*%
%ADD53R,0.1556X0.2205*%
%ADD54R,0.0512X0.0257*%
%ADD55R,0.0631X0.0355*%
D10*
X000180Y000300D02*
X000180Y031800D01*
X057261Y031800D01*
X057261Y000300D01*
X000180Y000300D01*
X000735Y001480D02*
X000737Y001530D01*
X000743Y001579D01*
X000753Y001628D01*
X000766Y001675D01*
X000784Y001722D01*
X000805Y001767D01*
X000829Y001810D01*
X000857Y001851D01*
X000888Y001890D01*
X000922Y001926D01*
X000959Y001960D01*
X000999Y001990D01*
X001040Y002017D01*
X001084Y002041D01*
X001129Y002061D01*
X001176Y002077D01*
X001224Y002090D01*
X001273Y002099D01*
X001323Y002104D01*
X001372Y002105D01*
X001422Y002102D01*
X001471Y002095D01*
X001520Y002084D01*
X001567Y002070D01*
X001613Y002051D01*
X001658Y002029D01*
X001701Y002004D01*
X001741Y001975D01*
X001779Y001943D01*
X001815Y001909D01*
X001848Y001871D01*
X001877Y001831D01*
X001903Y001789D01*
X001926Y001745D01*
X001945Y001699D01*
X001961Y001652D01*
X001973Y001603D01*
X001981Y001554D01*
X001985Y001505D01*
X001985Y001455D01*
X001981Y001406D01*
X001973Y001357D01*
X001961Y001308D01*
X001945Y001261D01*
X001926Y001215D01*
X001903Y001171D01*
X001877Y001129D01*
X001848Y001089D01*
X001815Y001051D01*
X001779Y001017D01*
X001741Y000985D01*
X001701Y000956D01*
X001658Y000931D01*
X001613Y000909D01*
X001567Y000890D01*
X001520Y000876D01*
X001471Y000865D01*
X001422Y000858D01*
X001372Y000855D01*
X001323Y000856D01*
X001273Y000861D01*
X001224Y000870D01*
X001176Y000883D01*
X001129Y000899D01*
X001084Y000919D01*
X001040Y000943D01*
X000999Y000970D01*
X000959Y001000D01*
X000922Y001034D01*
X000888Y001070D01*
X000857Y001109D01*
X000829Y001150D01*
X000805Y001193D01*
X000784Y001238D01*
X000766Y001285D01*
X000753Y001332D01*
X000743Y001381D01*
X000737Y001430D01*
X000735Y001480D01*
X044836Y025400D02*
X044838Y025450D01*
X044844Y025499D01*
X044854Y025548D01*
X044867Y025595D01*
X044885Y025642D01*
X044906Y025687D01*
X044930Y025730D01*
X044958Y025771D01*
X044989Y025810D01*
X045023Y025846D01*
X045060Y025880D01*
X045100Y025910D01*
X045141Y025937D01*
X045185Y025961D01*
X045230Y025981D01*
X045277Y025997D01*
X045325Y026010D01*
X045374Y026019D01*
X045424Y026024D01*
X045473Y026025D01*
X045523Y026022D01*
X045572Y026015D01*
X045621Y026004D01*
X045668Y025990D01*
X045714Y025971D01*
X045759Y025949D01*
X045802Y025924D01*
X045842Y025895D01*
X045880Y025863D01*
X045916Y025829D01*
X045949Y025791D01*
X045978Y025751D01*
X046004Y025709D01*
X046027Y025665D01*
X046046Y025619D01*
X046062Y025572D01*
X046074Y025523D01*
X046082Y025474D01*
X046086Y025425D01*
X046086Y025375D01*
X046082Y025326D01*
X046074Y025277D01*
X046062Y025228D01*
X046046Y025181D01*
X046027Y025135D01*
X046004Y025091D01*
X045978Y025049D01*
X045949Y025009D01*
X045916Y024971D01*
X045880Y024937D01*
X045842Y024905D01*
X045802Y024876D01*
X045759Y024851D01*
X045714Y024829D01*
X045668Y024810D01*
X045621Y024796D01*
X045572Y024785D01*
X045523Y024778D01*
X045473Y024775D01*
X045424Y024776D01*
X045374Y024781D01*
X045325Y024790D01*
X045277Y024803D01*
X045230Y024819D01*
X045185Y024839D01*
X045141Y024863D01*
X045100Y024890D01*
X045060Y024920D01*
X045023Y024954D01*
X044989Y024990D01*
X044958Y025029D01*
X044930Y025070D01*
X044906Y025113D01*
X044885Y025158D01*
X044867Y025205D01*
X044854Y025252D01*
X044844Y025301D01*
X044838Y025350D01*
X044836Y025400D01*
X055456Y030610D02*
X055458Y030660D01*
X055464Y030709D01*
X055474Y030758D01*
X055487Y030805D01*
X055505Y030852D01*
X055526Y030897D01*
X055550Y030940D01*
X055578Y030981D01*
X055609Y031020D01*
X055643Y031056D01*
X055680Y031090D01*
X055720Y031120D01*
X055761Y031147D01*
X055805Y031171D01*
X055850Y031191D01*
X055897Y031207D01*
X055945Y031220D01*
X055994Y031229D01*
X056044Y031234D01*
X056093Y031235D01*
X056143Y031232D01*
X056192Y031225D01*
X056241Y031214D01*
X056288Y031200D01*
X056334Y031181D01*
X056379Y031159D01*
X056422Y031134D01*
X056462Y031105D01*
X056500Y031073D01*
X056536Y031039D01*
X056569Y031001D01*
X056598Y030961D01*
X056624Y030919D01*
X056647Y030875D01*
X056666Y030829D01*
X056682Y030782D01*
X056694Y030733D01*
X056702Y030684D01*
X056706Y030635D01*
X056706Y030585D01*
X056702Y030536D01*
X056694Y030487D01*
X056682Y030438D01*
X056666Y030391D01*
X056647Y030345D01*
X056624Y030301D01*
X056598Y030259D01*
X056569Y030219D01*
X056536Y030181D01*
X056500Y030147D01*
X056462Y030115D01*
X056422Y030086D01*
X056379Y030061D01*
X056334Y030039D01*
X056288Y030020D01*
X056241Y030006D01*
X056192Y029995D01*
X056143Y029988D01*
X056093Y029985D01*
X056044Y029986D01*
X055994Y029991D01*
X055945Y030000D01*
X055897Y030013D01*
X055850Y030029D01*
X055805Y030049D01*
X055761Y030073D01*
X055720Y030100D01*
X055680Y030130D01*
X055643Y030164D01*
X055609Y030200D01*
X055578Y030239D01*
X055550Y030280D01*
X055526Y030323D01*
X055505Y030368D01*
X055487Y030415D01*
X055474Y030462D01*
X055464Y030511D01*
X055458Y030560D01*
X055456Y030610D01*
X008216Y030610D02*
X008218Y030660D01*
X008224Y030709D01*
X008234Y030758D01*
X008247Y030805D01*
X008265Y030852D01*
X008286Y030897D01*
X008310Y030940D01*
X008338Y030981D01*
X008369Y031020D01*
X008403Y031056D01*
X008440Y031090D01*
X008480Y031120D01*
X008521Y031147D01*
X008565Y031171D01*
X008610Y031191D01*
X008657Y031207D01*
X008705Y031220D01*
X008754Y031229D01*
X008804Y031234D01*
X008853Y031235D01*
X008903Y031232D01*
X008952Y031225D01*
X009001Y031214D01*
X009048Y031200D01*
X009094Y031181D01*
X009139Y031159D01*
X009182Y031134D01*
X009222Y031105D01*
X009260Y031073D01*
X009296Y031039D01*
X009329Y031001D01*
X009358Y030961D01*
X009384Y030919D01*
X009407Y030875D01*
X009426Y030829D01*
X009442Y030782D01*
X009454Y030733D01*
X009462Y030684D01*
X009466Y030635D01*
X009466Y030585D01*
X009462Y030536D01*
X009454Y030487D01*
X009442Y030438D01*
X009426Y030391D01*
X009407Y030345D01*
X009384Y030301D01*
X009358Y030259D01*
X009329Y030219D01*
X009296Y030181D01*
X009260Y030147D01*
X009222Y030115D01*
X009182Y030086D01*
X009139Y030061D01*
X009094Y030039D01*
X009048Y030020D01*
X009001Y030006D01*
X008952Y029995D01*
X008903Y029988D01*
X008853Y029985D01*
X008804Y029986D01*
X008754Y029991D01*
X008705Y030000D01*
X008657Y030013D01*
X008610Y030029D01*
X008565Y030049D01*
X008521Y030073D01*
X008480Y030100D01*
X008440Y030130D01*
X008403Y030164D01*
X008369Y030200D01*
X008338Y030239D01*
X008310Y030280D01*
X008286Y030323D01*
X008265Y030368D01*
X008247Y030415D01*
X008234Y030462D01*
X008224Y030511D01*
X008218Y030560D01*
X008216Y030610D01*
X055456Y001480D02*
X055458Y001530D01*
X055464Y001579D01*
X055474Y001628D01*
X055487Y001675D01*
X055505Y001722D01*
X055526Y001767D01*
X055550Y001810D01*
X055578Y001851D01*
X055609Y001890D01*
X055643Y001926D01*
X055680Y001960D01*
X055720Y001990D01*
X055761Y002017D01*
X055805Y002041D01*
X055850Y002061D01*
X055897Y002077D01*
X055945Y002090D01*
X055994Y002099D01*
X056044Y002104D01*
X056093Y002105D01*
X056143Y002102D01*
X056192Y002095D01*
X056241Y002084D01*
X056288Y002070D01*
X056334Y002051D01*
X056379Y002029D01*
X056422Y002004D01*
X056462Y001975D01*
X056500Y001943D01*
X056536Y001909D01*
X056569Y001871D01*
X056598Y001831D01*
X056624Y001789D01*
X056647Y001745D01*
X056666Y001699D01*
X056682Y001652D01*
X056694Y001603D01*
X056702Y001554D01*
X056706Y001505D01*
X056706Y001455D01*
X056702Y001406D01*
X056694Y001357D01*
X056682Y001308D01*
X056666Y001261D01*
X056647Y001215D01*
X056624Y001171D01*
X056598Y001129D01*
X056569Y001089D01*
X056536Y001051D01*
X056500Y001017D01*
X056462Y000985D01*
X056422Y000956D01*
X056379Y000931D01*
X056334Y000909D01*
X056288Y000890D01*
X056241Y000876D01*
X056192Y000865D01*
X056143Y000858D01*
X056093Y000855D01*
X056044Y000856D01*
X055994Y000861D01*
X055945Y000870D01*
X055897Y000883D01*
X055850Y000899D01*
X055805Y000919D01*
X055761Y000943D01*
X055720Y000970D01*
X055680Y001000D01*
X055643Y001034D01*
X055609Y001070D01*
X055578Y001109D01*
X055550Y001150D01*
X055526Y001193D01*
X055505Y001238D01*
X055487Y001285D01*
X055474Y001332D01*
X055464Y001381D01*
X055458Y001430D01*
X055456Y001480D01*
D11*
X056081Y001480D03*
X045461Y025400D03*
X056081Y030610D03*
X008841Y030610D03*
X001360Y001480D03*
D12*
X033428Y016800D03*
X034295Y016426D03*
X034295Y017174D03*
X048328Y024050D03*
X049195Y024424D03*
X049195Y023676D03*
X048645Y025976D03*
X047778Y026350D03*
X048645Y026724D03*
D13*
X046961Y023535D03*
X046961Y022865D03*
X046880Y021985D03*
X046880Y021315D03*
X044311Y021115D03*
X044311Y021785D03*
X044311Y022365D03*
X044311Y023035D03*
X050211Y021885D03*
X051061Y021885D03*
X051061Y021215D03*
X050211Y021215D03*
X051961Y021215D03*
X052811Y021215D03*
X052811Y021885D03*
X051961Y021885D03*
X053711Y021885D03*
X054561Y021885D03*
X054561Y021215D03*
X053711Y021215D03*
X055511Y021215D03*
X055511Y021885D03*
X056361Y021885D03*
X056361Y021215D03*
X048311Y017135D03*
X048311Y016465D03*
X049911Y016535D03*
X049911Y015865D03*
X048161Y014885D03*
X048161Y014215D03*
X043980Y015465D03*
X043980Y016135D03*
X039836Y018365D03*
X039836Y019035D03*
X038961Y019035D03*
X038961Y018365D03*
X035761Y018285D03*
X035761Y017615D03*
X035411Y016985D03*
X035411Y016315D03*
X033161Y017915D03*
X032311Y017915D03*
X032311Y018585D03*
X033161Y018585D03*
X034411Y018915D03*
X034411Y019585D03*
X035261Y019265D03*
X035261Y019935D03*
X033911Y022865D03*
X033911Y023535D03*
X033011Y023535D03*
X033011Y022865D03*
X032261Y024615D03*
X032261Y025285D03*
X035011Y025315D03*
X035011Y025985D03*
X028855Y025985D03*
X028855Y025315D03*
X028030Y022685D03*
X028030Y022015D03*
X022661Y016085D03*
X022661Y015415D03*
X020611Y015415D03*
X020611Y016085D03*
X020811Y013235D03*
X020811Y012565D03*
X020011Y012565D03*
X020011Y013235D03*
X022711Y013135D03*
X022711Y012465D03*
X021211Y009885D03*
X020411Y009885D03*
X020411Y009215D03*
X021211Y009215D03*
X027911Y008635D03*
X027911Y007965D03*
X029961Y008215D03*
X029961Y008885D03*
X036630Y011615D03*
X036630Y012285D03*
X046211Y010135D03*
X046211Y009465D03*
X046211Y003885D03*
X046211Y003215D03*
X044961Y003215D03*
X044961Y003885D03*
X043561Y003935D03*
X043561Y003265D03*
X042261Y003265D03*
X042261Y003935D03*
X040961Y003935D03*
X040961Y003265D03*
X039661Y003015D03*
X039661Y003685D03*
X038311Y003685D03*
X038311Y003015D03*
X036961Y003015D03*
X036961Y003685D03*
X032561Y003765D03*
X032561Y004435D03*
X015711Y020065D03*
X015711Y020735D03*
X016011Y024265D03*
X016011Y024935D03*
D14*
X026577Y022800D03*
X027246Y022800D03*
X027595Y021375D03*
X028265Y021375D03*
X031227Y020700D03*
X031896Y020700D03*
X032577Y020600D03*
X033246Y020600D03*
X032927Y019750D03*
X033596Y019750D03*
X034477Y020850D03*
X035146Y020850D03*
X032546Y021800D03*
X031877Y021800D03*
X028865Y024550D03*
X028195Y024550D03*
X027746Y026400D03*
X027077Y026400D03*
X038477Y027350D03*
X039146Y027350D03*
X046977Y024200D03*
X047646Y024200D03*
X048277Y022800D03*
X048946Y022800D03*
X048183Y020350D03*
X047514Y020350D03*
X044796Y020200D03*
X044127Y020200D03*
X039896Y016300D03*
X039227Y016300D03*
X045545Y015600D03*
X046215Y015600D03*
X045446Y010950D03*
X044777Y010950D03*
X042496Y007950D03*
X041827Y007950D03*
X040996Y007950D03*
X040327Y007950D03*
X039596Y007950D03*
X038927Y007950D03*
X038196Y007950D03*
X037527Y007950D03*
X034396Y004600D03*
X033727Y004600D03*
X036277Y004450D03*
X036946Y004450D03*
X035446Y001400D03*
X034777Y001400D03*
X033896Y001400D03*
X033227Y001400D03*
X022546Y008400D03*
X021877Y008400D03*
X033045Y012300D03*
X033715Y012300D03*
X034995Y012300D03*
X035665Y012300D03*
X032646Y016950D03*
X031977Y016950D03*
X019496Y015000D03*
X018827Y015000D03*
X047327Y004900D03*
X047996Y004900D03*
X051302Y007425D03*
X051971Y007425D03*
X052827Y007350D03*
X053496Y007350D03*
X054127Y007350D03*
X054796Y007350D03*
X055427Y007800D03*
X056096Y007800D03*
X056096Y008650D03*
X055427Y008650D03*
X051971Y008325D03*
X051302Y008325D03*
X050146Y025650D03*
X049477Y025650D03*
X049477Y026700D03*
X050146Y026700D03*
D15*
X022121Y023898D03*
X022121Y022102D03*
X022121Y020648D03*
X022121Y018852D03*
D16*
X024948Y019750D03*
X024948Y023000D03*
D17*
X026556Y021944D03*
X026811Y021944D03*
X027067Y021944D03*
X027067Y021156D03*
X026811Y021156D03*
X026556Y021156D03*
X027056Y024756D03*
X027311Y024756D03*
X027567Y024756D03*
X027567Y025544D03*
X027311Y025544D03*
X027056Y025544D03*
X021917Y015994D03*
X021661Y015994D03*
X021406Y015994D03*
X021406Y015206D03*
X021661Y015206D03*
X021917Y015206D03*
X022017Y012994D03*
X021761Y012994D03*
X021506Y012994D03*
X021506Y012206D03*
X021761Y012206D03*
X022017Y012206D03*
X022106Y010044D03*
X022361Y010044D03*
X022617Y010044D03*
X022617Y009256D03*
X022361Y009256D03*
X022106Y009256D03*
X048906Y014006D03*
X049161Y014006D03*
X049417Y014006D03*
X049417Y014794D03*
X049161Y014794D03*
X048906Y014794D03*
D18*
X051561Y025034D03*
X052961Y025034D03*
X054361Y025034D03*
X055761Y025084D03*
X055761Y026816D03*
X054361Y026766D03*
X052961Y026766D03*
X051561Y026766D03*
X029911Y021266D03*
X029911Y019534D03*
D19*
X026085Y017850D03*
X026085Y017350D03*
X026085Y016850D03*
X026085Y016350D03*
X024038Y016350D03*
X024038Y016850D03*
X024038Y017350D03*
X024038Y017850D03*
X044738Y014850D03*
X044738Y014350D03*
X044738Y013850D03*
X044738Y013350D03*
X046785Y013350D03*
X046785Y013850D03*
X046785Y014350D03*
X046785Y014850D03*
X035585Y003750D03*
X035585Y003250D03*
X035585Y002750D03*
X035585Y002250D03*
X033538Y002250D03*
X033538Y002750D03*
X033538Y003250D03*
X033538Y003750D03*
D20*
X031461Y017717D03*
X031461Y018583D03*
D21*
X044778Y011950D03*
X045645Y011950D03*
D22*
X047881Y003850D03*
X047881Y002850D03*
X051841Y002850D03*
X051841Y003850D03*
D23*
X050036Y007350D03*
X049287Y007350D03*
X055487Y009550D03*
X056236Y009550D03*
X056236Y010500D03*
X055487Y010500D03*
X049236Y013050D03*
X048487Y013050D03*
X050037Y017550D03*
X050786Y017550D03*
X051937Y017550D03*
X052686Y017550D03*
X053837Y017550D03*
X054586Y017550D03*
X055737Y017550D03*
X056486Y017550D03*
X056486Y018600D03*
X055737Y018600D03*
X054586Y018600D03*
X053837Y018600D03*
X052686Y018600D03*
X051937Y018600D03*
X050786Y018600D03*
X050037Y018600D03*
X050037Y019650D03*
X050786Y019650D03*
X051937Y019650D03*
X052686Y019650D03*
X053837Y019650D03*
X054586Y019650D03*
X055737Y019650D03*
X056486Y019650D03*
X027136Y009300D03*
X026387Y009300D03*
X015204Y006000D03*
X014456Y006000D03*
X014606Y002700D03*
X015354Y002700D03*
X015354Y001700D03*
X014606Y001700D03*
D24*
X050387Y023067D03*
X051136Y023067D03*
X052037Y023067D03*
X052786Y023067D03*
X053687Y023067D03*
X054436Y023067D03*
X055337Y023067D03*
X056086Y023067D03*
X055711Y023933D03*
X054061Y023933D03*
X052411Y023933D03*
X050761Y023933D03*
X033886Y024617D03*
X033137Y024617D03*
X033511Y025483D03*
D25*
X030961Y022650D03*
X030461Y022650D03*
X029961Y022650D03*
D26*
X030461Y026950D03*
D27*
X045102Y016680D03*
X046011Y016680D03*
X046921Y016680D03*
D28*
X046011Y019120D03*
D29*
X047961Y019224D03*
X047961Y018476D03*
X050911Y010424D03*
X050911Y009676D03*
X051811Y009676D03*
X051811Y010424D03*
X014830Y023976D03*
X013630Y023976D03*
X013630Y024724D03*
X014830Y024724D03*
D30*
X021511Y028250D03*
X022511Y028250D03*
X023511Y028250D03*
X024511Y028250D03*
X025511Y028250D03*
X026511Y028250D03*
X027511Y028250D03*
X028511Y028250D03*
X028511Y029250D03*
X027511Y029250D03*
X026511Y029250D03*
X025511Y029250D03*
X024511Y029250D03*
X023511Y029250D03*
X022511Y029250D03*
X021511Y029250D03*
X030211Y029250D03*
X031211Y029250D03*
X032211Y029250D03*
X033211Y029250D03*
X034211Y029250D03*
X035211Y029250D03*
X036211Y029250D03*
X037211Y029250D03*
X037211Y028250D03*
X036211Y028250D03*
X035211Y028250D03*
X034211Y028250D03*
X033211Y028250D03*
X032211Y028250D03*
X031211Y028250D03*
X030211Y028250D03*
X038961Y028250D03*
X039961Y028250D03*
X040961Y028250D03*
X041961Y028250D03*
X042961Y028250D03*
X043961Y028250D03*
X044961Y028250D03*
X045961Y028250D03*
X047661Y028250D03*
X048661Y028250D03*
X049661Y028250D03*
X050661Y028250D03*
X051661Y028250D03*
X052661Y028250D03*
X053661Y028250D03*
X054661Y028250D03*
X054661Y029250D03*
X053661Y029250D03*
X052661Y029250D03*
X051661Y029250D03*
X050661Y029250D03*
X049661Y029250D03*
X048661Y029250D03*
X047661Y029250D03*
X045961Y029250D03*
X044961Y029250D03*
X043961Y029250D03*
X042961Y029250D03*
X041961Y029250D03*
X040961Y029250D03*
X039961Y029250D03*
X038961Y029250D03*
X030211Y017600D03*
X029211Y017600D03*
X028211Y017600D03*
X028211Y016600D03*
X029211Y016600D03*
X030211Y016600D03*
X040111Y011000D03*
X041111Y011000D03*
X041111Y010000D03*
X040111Y010000D03*
X040111Y009000D03*
X041111Y009000D03*
X041461Y006900D03*
X042461Y006900D03*
X043461Y006900D03*
X043461Y005900D03*
X042461Y005900D03*
X041461Y005900D03*
X040461Y005900D03*
X039461Y005900D03*
X038461Y005900D03*
X037461Y005900D03*
X036461Y005900D03*
X035461Y005900D03*
X034461Y005900D03*
X033461Y005900D03*
X032461Y005900D03*
X031461Y005900D03*
X030461Y005900D03*
X029461Y005900D03*
X028461Y005900D03*
X027461Y005900D03*
X026461Y005900D03*
X025461Y005900D03*
X024461Y005900D03*
X023461Y005900D03*
X022461Y005900D03*
X021461Y005900D03*
X021461Y006900D03*
X022461Y006900D03*
X023461Y006900D03*
X024461Y006900D03*
X025461Y006900D03*
X026461Y006900D03*
X027461Y006900D03*
X028461Y006900D03*
X029461Y006900D03*
X030461Y006900D03*
X031461Y006900D03*
X032461Y006900D03*
X033461Y006900D03*
X034461Y006900D03*
X035461Y006900D03*
X036461Y006900D03*
X037461Y006900D03*
X038461Y006900D03*
X039461Y006900D03*
X040461Y006900D03*
X028811Y004250D03*
X027811Y004250D03*
X026811Y004250D03*
X026811Y003250D03*
X027811Y003250D03*
X028811Y003250D03*
X028811Y002250D03*
X027811Y002250D03*
X026811Y002250D03*
X025011Y002250D03*
X024011Y002250D03*
X023011Y002250D03*
X023011Y003250D03*
X024011Y003250D03*
X025011Y003250D03*
X025011Y004250D03*
X024011Y004250D03*
X023011Y004250D03*
D31*
X030116Y003250D02*
X030707Y003250D01*
X030707Y002250D02*
X030116Y002250D01*
X025057Y009480D02*
X024466Y009480D01*
X024466Y010480D02*
X025057Y010480D01*
X025057Y011480D02*
X024466Y011480D01*
X036806Y016660D02*
X037397Y016660D01*
X037397Y017660D02*
X036806Y017660D01*
X036806Y018660D02*
X037397Y018660D01*
X025107Y025250D02*
X024516Y025250D01*
X024516Y026250D02*
X025107Y026250D01*
X015480Y030136D02*
X015480Y030727D01*
X014480Y030727D02*
X014480Y030136D01*
X049911Y006095D02*
X049911Y005505D01*
X050911Y005505D02*
X050911Y006095D01*
D32*
X042813Y016498D03*
X042557Y016498D03*
X042301Y016498D03*
X042045Y016498D03*
X041789Y016498D03*
X041534Y016498D03*
X041278Y016498D03*
X041022Y016498D03*
X040766Y016498D03*
X040510Y016498D03*
X040510Y018702D03*
X040766Y018702D03*
X041022Y018702D03*
X041278Y018702D03*
X041534Y018702D03*
X041789Y018702D03*
X042045Y018702D03*
X042301Y018702D03*
X042557Y018702D03*
X042813Y018702D03*
D33*
X047212Y010550D03*
X049811Y010550D03*
D34*
X042074Y020050D03*
X041877Y020050D03*
X041680Y020050D03*
X041483Y020050D03*
X041286Y020050D03*
X041089Y020050D03*
X040893Y020050D03*
X040696Y020050D03*
X040499Y020050D03*
X040302Y020050D03*
X040105Y020050D03*
X039908Y020050D03*
X039711Y020050D03*
X039515Y020050D03*
X039318Y020050D03*
X039121Y020050D03*
X038924Y020050D03*
X038727Y020050D03*
X038530Y020050D03*
X038334Y020050D03*
X038137Y020050D03*
X037940Y020050D03*
X037743Y020050D03*
X037546Y020050D03*
X037349Y020050D03*
X037349Y026350D03*
X037546Y026350D03*
X037743Y026350D03*
X037940Y026350D03*
X038137Y026350D03*
X038334Y026350D03*
X038530Y026350D03*
X038727Y026350D03*
X038924Y026350D03*
X039121Y026350D03*
X039318Y026350D03*
X039515Y026350D03*
X039711Y026350D03*
X039908Y026350D03*
X040105Y026350D03*
X040302Y026350D03*
X040499Y026350D03*
X040696Y026350D03*
X040893Y026350D03*
X041089Y026350D03*
X041286Y026350D03*
X041483Y026350D03*
X041680Y026350D03*
X041877Y026350D03*
X042074Y026350D03*
D35*
X042861Y025562D03*
X042861Y025365D03*
X042861Y025169D03*
X042861Y024972D03*
X042861Y024775D03*
X042861Y024578D03*
X042861Y024381D03*
X042861Y024184D03*
X042861Y023987D03*
X042861Y023791D03*
X042861Y023594D03*
X042861Y023397D03*
X042861Y023200D03*
X042861Y023003D03*
X042861Y022806D03*
X042861Y022609D03*
X042861Y022413D03*
X042861Y022216D03*
X042861Y022019D03*
X042861Y021822D03*
X042861Y021625D03*
X042861Y021428D03*
X042861Y021231D03*
X042861Y021035D03*
X042861Y020838D03*
X036562Y020838D03*
X036562Y021035D03*
X036562Y021231D03*
X036562Y021428D03*
X036562Y021625D03*
X036562Y021822D03*
X036562Y022019D03*
X036562Y022216D03*
X036562Y022413D03*
X036562Y022609D03*
X036562Y022806D03*
X036562Y023003D03*
X036562Y023200D03*
X036562Y023397D03*
X036562Y023594D03*
X036562Y023791D03*
X036562Y023987D03*
X036562Y024184D03*
X036562Y024381D03*
X036562Y024578D03*
X036562Y024775D03*
X036562Y024972D03*
X036562Y025169D03*
X036562Y025365D03*
X036562Y025562D03*
D36*
X019637Y023249D02*
X018338Y023249D01*
X018338Y020282D02*
X019637Y020282D01*
X019637Y017133D02*
X018338Y017133D01*
X018338Y007670D02*
X019637Y007670D01*
X019637Y003733D02*
X018338Y003733D01*
X018338Y028367D02*
X019637Y028367D01*
D37*
X007551Y029843D02*
X006409Y029843D01*
X006409Y026300D02*
X007551Y026300D01*
X007551Y022757D02*
X006409Y022757D01*
X006409Y019593D02*
X007551Y019593D01*
X007551Y016050D02*
X006409Y016050D01*
X006409Y012507D02*
X007551Y012507D01*
X007551Y009343D02*
X006409Y009343D01*
X006409Y005800D02*
X007551Y005800D01*
X007551Y002257D02*
X006409Y002257D01*
D38*
X018260Y002650D02*
X019323Y002650D01*
X019323Y006587D02*
X018260Y006587D01*
X018260Y016050D02*
X019323Y016050D01*
X019323Y019200D02*
X018260Y019200D01*
X018260Y024331D02*
X019323Y024331D01*
X019323Y029450D02*
X018260Y029450D01*
D39*
X007531Y030843D02*
X006429Y030843D01*
X006429Y027300D02*
X007531Y027300D01*
X007531Y023757D02*
X006429Y023757D01*
X006429Y020593D02*
X007531Y020593D01*
X007531Y017050D02*
X006429Y017050D01*
X006429Y013507D02*
X007531Y013507D01*
X007531Y008343D02*
X006429Y008343D01*
X006429Y004800D02*
X007531Y004800D01*
X007531Y001257D02*
X006429Y001257D01*
D40*
X036961Y001655D03*
X036961Y002245D03*
X038311Y002245D03*
X038311Y001655D03*
X039661Y001655D03*
X039661Y002245D03*
X040961Y002245D03*
X040961Y001655D03*
X042261Y001655D03*
X042261Y002245D03*
X043561Y002245D03*
X043561Y001655D03*
X044961Y001655D03*
X044961Y002245D03*
X046211Y002245D03*
X046211Y001655D03*
D41*
X003590Y014030D03*
X002470Y014570D03*
X003590Y015120D03*
X002470Y015660D03*
X003590Y016200D03*
X002470Y016750D03*
X003590Y017290D03*
X002470Y017830D03*
X003590Y018380D03*
X002470Y018920D03*
X003590Y019460D03*
X002470Y020010D03*
X003590Y020550D03*
X002470Y021090D03*
X003590Y021640D03*
X002470Y022180D03*
X003590Y022720D03*
X002470Y023270D03*
X003590Y023810D03*
X002470Y024350D03*
X003590Y024900D03*
X002470Y025440D03*
X003590Y025980D03*
X002470Y026530D03*
X003590Y027070D03*
D42*
X003030Y029810D03*
X003030Y011290D03*
D43*
X021252Y017150D03*
X022371Y017150D03*
X022521Y014300D03*
X021402Y014300D03*
X021452Y011050D03*
X022571Y011050D03*
X026802Y020250D03*
X027921Y020250D03*
X027871Y023650D03*
X026752Y023650D03*
D44*
X046061Y007100D03*
X047061Y007100D03*
X048061Y007100D03*
X048061Y006100D03*
X047061Y006100D03*
X046061Y006100D03*
D45*
X045511Y021272D03*
X045511Y022728D03*
D46*
X032030Y001650D03*
X051211Y001250D03*
X003830Y003400D03*
X003130Y005700D03*
X001330Y005700D03*
X001330Y007150D03*
X003130Y007150D03*
X003130Y008700D03*
X001330Y008700D03*
D47*
X001833Y003500D02*
X001835Y003527D01*
X001841Y003554D01*
X001850Y003580D01*
X001863Y003604D01*
X001879Y003627D01*
X001898Y003646D01*
X001920Y003663D01*
X001944Y003677D01*
X001969Y003687D01*
X001996Y003694D01*
X002023Y003697D01*
X002051Y003696D01*
X002078Y003691D01*
X002104Y003683D01*
X002128Y003671D01*
X002151Y003655D01*
X002172Y003637D01*
X002189Y003616D01*
X002204Y003592D01*
X002215Y003567D01*
X002223Y003541D01*
X002227Y003514D01*
X002227Y003486D01*
X002223Y003459D01*
X002215Y003433D01*
X002204Y003408D01*
X002189Y003384D01*
X002172Y003363D01*
X002151Y003345D01*
X002129Y003329D01*
X002104Y003317D01*
X002078Y003309D01*
X002051Y003304D01*
X002023Y003303D01*
X001996Y003306D01*
X001969Y003313D01*
X001944Y003323D01*
X001920Y003337D01*
X001898Y003354D01*
X001879Y003373D01*
X001863Y003396D01*
X001850Y003420D01*
X001841Y003446D01*
X001835Y003473D01*
X001833Y003500D01*
X036814Y014600D02*
X036816Y014627D01*
X036822Y014654D01*
X036831Y014680D01*
X036844Y014704D01*
X036860Y014727D01*
X036879Y014746D01*
X036901Y014763D01*
X036925Y014777D01*
X036950Y014787D01*
X036977Y014794D01*
X037004Y014797D01*
X037032Y014796D01*
X037059Y014791D01*
X037085Y014783D01*
X037109Y014771D01*
X037132Y014755D01*
X037153Y014737D01*
X037170Y014716D01*
X037185Y014692D01*
X037196Y014667D01*
X037204Y014641D01*
X037208Y014614D01*
X037208Y014586D01*
X037204Y014559D01*
X037196Y014533D01*
X037185Y014508D01*
X037170Y014484D01*
X037153Y014463D01*
X037132Y014445D01*
X037110Y014429D01*
X037085Y014417D01*
X037059Y014409D01*
X037032Y014404D01*
X037004Y014403D01*
X036977Y014406D01*
X036950Y014413D01*
X036925Y014423D01*
X036901Y014437D01*
X036879Y014454D01*
X036860Y014473D01*
X036844Y014496D01*
X036831Y014520D01*
X036822Y014546D01*
X036816Y014573D01*
X036814Y014600D01*
X043864Y026000D02*
X043866Y026027D01*
X043872Y026054D01*
X043881Y026080D01*
X043894Y026104D01*
X043910Y026127D01*
X043929Y026146D01*
X043951Y026163D01*
X043975Y026177D01*
X044000Y026187D01*
X044027Y026194D01*
X044054Y026197D01*
X044082Y026196D01*
X044109Y026191D01*
X044135Y026183D01*
X044159Y026171D01*
X044182Y026155D01*
X044203Y026137D01*
X044220Y026116D01*
X044235Y026092D01*
X044246Y026067D01*
X044254Y026041D01*
X044258Y026014D01*
X044258Y025986D01*
X044254Y025959D01*
X044246Y025933D01*
X044235Y025908D01*
X044220Y025884D01*
X044203Y025863D01*
X044182Y025845D01*
X044160Y025829D01*
X044135Y025817D01*
X044109Y025809D01*
X044082Y025804D01*
X044054Y025803D01*
X044027Y025806D01*
X044000Y025813D01*
X043975Y025823D01*
X043951Y025837D01*
X043929Y025854D01*
X043910Y025873D01*
X043894Y025896D01*
X043881Y025920D01*
X043872Y025946D01*
X043866Y025973D01*
X043864Y026000D01*
X021764Y026600D02*
X021766Y026627D01*
X021772Y026654D01*
X021781Y026680D01*
X021794Y026704D01*
X021810Y026727D01*
X021829Y026746D01*
X021851Y026763D01*
X021875Y026777D01*
X021900Y026787D01*
X021927Y026794D01*
X021954Y026797D01*
X021982Y026796D01*
X022009Y026791D01*
X022035Y026783D01*
X022059Y026771D01*
X022082Y026755D01*
X022103Y026737D01*
X022120Y026716D01*
X022135Y026692D01*
X022146Y026667D01*
X022154Y026641D01*
X022158Y026614D01*
X022158Y026586D01*
X022154Y026559D01*
X022146Y026533D01*
X022135Y026508D01*
X022120Y026484D01*
X022103Y026463D01*
X022082Y026445D01*
X022060Y026429D01*
X022035Y026417D01*
X022009Y026409D01*
X021982Y026404D01*
X021954Y026403D01*
X021927Y026406D01*
X021900Y026413D01*
X021875Y026423D01*
X021851Y026437D01*
X021829Y026454D01*
X021810Y026473D01*
X021794Y026496D01*
X021781Y026520D01*
X021772Y026546D01*
X021766Y026573D01*
X021764Y026600D01*
X047964Y001400D02*
X047966Y001427D01*
X047972Y001454D01*
X047981Y001480D01*
X047994Y001504D01*
X048010Y001527D01*
X048029Y001546D01*
X048051Y001563D01*
X048075Y001577D01*
X048100Y001587D01*
X048127Y001594D01*
X048154Y001597D01*
X048182Y001596D01*
X048209Y001591D01*
X048235Y001583D01*
X048259Y001571D01*
X048282Y001555D01*
X048303Y001537D01*
X048320Y001516D01*
X048335Y001492D01*
X048346Y001467D01*
X048354Y001441D01*
X048358Y001414D01*
X048358Y001386D01*
X048354Y001359D01*
X048346Y001333D01*
X048335Y001308D01*
X048320Y001284D01*
X048303Y001263D01*
X048282Y001245D01*
X048260Y001229D01*
X048235Y001217D01*
X048209Y001209D01*
X048182Y001204D01*
X048154Y001203D01*
X048127Y001206D01*
X048100Y001213D01*
X048075Y001223D01*
X048051Y001237D01*
X048029Y001254D01*
X048010Y001273D01*
X047994Y001296D01*
X047981Y001320D01*
X047972Y001346D01*
X047966Y001373D01*
X047964Y001400D01*
D48*
X048161Y001400D03*
X037011Y014600D03*
X044061Y026000D03*
X021961Y026600D03*
X002030Y003500D03*
D49*
X010580Y004225D03*
X010580Y007375D03*
X010580Y014475D03*
X010580Y017625D03*
X010580Y024725D03*
X010580Y027875D03*
X054661Y006001D03*
X054661Y003599D03*
D50*
X054211Y008426D03*
X053711Y008426D03*
X053211Y008426D03*
X052711Y008426D03*
X052711Y010474D03*
X053211Y010474D03*
X053711Y010474D03*
X054211Y010474D03*
D51*
X053461Y009450D03*
D52*
X050178Y008800D03*
X048445Y008800D03*
D53*
X051403Y013950D03*
X055320Y013950D03*
D54*
X049073Y021176D03*
X049073Y021924D03*
X048050Y021924D03*
X048050Y021550D03*
X048050Y021176D03*
D55*
X035570Y011300D03*
X035570Y010800D03*
X033090Y010800D03*
X033090Y011300D03*
M02*
