G75*
G70*
%OFA0B0*%
%FSLAX24Y24*%
%IPPOS*%
%LPD*%
%AMOC8*
5,1,8,0,0,1.08239X$1,22.5*
%
%ADD10C,0.0000*%
%ADD11C,0.0150*%
%ADD12R,1.2900X0.3450*%
%ADD13R,0.0010X0.1870*%
%ADD14R,0.0010X0.0440*%
%ADD15R,0.0010X0.2020*%
%ADD16R,0.0010X0.0410*%
%ADD17R,0.0010X0.0310*%
%ADD18R,0.0010X0.0520*%
%ADD19R,0.0010X0.0740*%
%ADD20R,0.0010X0.1890*%
%ADD21R,0.0010X0.0360*%
%ADD22R,0.0010X0.2100*%
%ADD23R,0.0010X0.0320*%
%ADD24R,0.0010X0.2110*%
%ADD25R,0.0010X0.0380*%
%ADD26R,0.0010X0.2210*%
%ADD27R,0.0010X0.0330*%
%ADD28R,0.0010X0.0390*%
%ADD29R,0.0010X0.2290*%
%ADD30R,0.0010X0.0350*%
%ADD31R,0.0010X0.0750*%
%ADD32R,0.0010X0.2350*%
%ADD33R,0.0010X0.2370*%
%ADD34R,0.0010X0.0370*%
%ADD35R,0.0010X0.0420*%
%ADD36R,0.0010X0.2410*%
%ADD37R,0.0010X0.2420*%
%ADD38R,0.0010X0.0430*%
%ADD39R,0.0010X0.2450*%
%ADD40R,0.0010X0.0400*%
%ADD41R,0.0010X0.0730*%
%ADD42R,0.0010X0.0450*%
%ADD43R,0.0010X0.2490*%
%ADD44R,0.0010X0.2510*%
%ADD45R,0.0010X0.0470*%
%ADD46R,0.0010X0.2540*%
%ADD47R,0.0010X0.2530*%
%ADD48R,0.0010X0.2560*%
%ADD49R,0.0010X0.0490*%
%ADD50R,0.0010X0.2580*%
%ADD51R,0.0010X0.0460*%
%ADD52R,0.0010X0.0500*%
%ADD53R,0.0010X0.2600*%
%ADD54R,0.0010X0.0480*%
%ADD55R,0.0010X0.0510*%
%ADD56R,0.0010X0.2610*%
%ADD57R,0.0010X0.2630*%
%ADD58R,0.0010X0.0720*%
%ADD59R,0.0010X0.0530*%
%ADD60R,0.0010X0.2650*%
%ADD61R,0.0010X0.2640*%
%ADD62R,0.0010X0.0550*%
%ADD63R,0.0010X0.0560*%
%ADD64R,0.0010X0.2670*%
%ADD65R,0.0010X0.0540*%
%ADD66R,0.0010X0.0570*%
%ADD67R,0.0010X0.2680*%
%ADD68R,0.0010X0.0710*%
%ADD69R,0.0010X0.0580*%
%ADD70R,0.0010X0.2690*%
%ADD71R,0.0010X0.0590*%
%ADD72R,0.0010X0.2700*%
%ADD73R,0.0010X0.0610*%
%ADD74R,0.0010X0.2710*%
%ADD75R,0.0010X0.0620*%
%ADD76R,0.0010X0.2720*%
%ADD77R,0.0010X0.0940*%
%ADD78R,0.0010X0.1670*%
%ADD79R,0.0010X0.0630*%
%ADD80R,0.0010X0.2730*%
%ADD81R,0.0010X0.0920*%
%ADD82R,0.0010X0.1650*%
%ADD83R,0.0010X0.0640*%
%ADD84R,0.0010X0.0890*%
%ADD85R,0.0010X0.1620*%
%ADD86R,0.0010X0.0650*%
%ADD87R,0.0010X0.2740*%
%ADD88R,0.0010X0.0880*%
%ADD89R,0.0010X0.1610*%
%ADD90R,0.0010X0.0670*%
%ADD91R,0.0010X0.2750*%
%ADD92R,0.0010X0.0660*%
%ADD93R,0.0010X0.0700*%
%ADD94R,0.0010X0.0690*%
%ADD95R,0.0010X0.0860*%
%ADD96R,0.0010X0.1590*%
%ADD97R,0.0010X0.2760*%
%ADD98R,0.0010X0.1600*%
%ADD99R,0.0010X0.2770*%
%ADD100R,0.0010X0.0850*%
%ADD101R,0.0010X0.1580*%
%ADD102R,0.0010X0.1570*%
%ADD103R,0.0010X0.0840*%
%ADD104R,0.0010X0.2780*%
%ADD105R,0.0010X0.0830*%
%ADD106R,0.0010X0.0760*%
%ADD107R,0.0010X0.0770*%
%ADD108R,0.0010X0.2790*%
%ADD109R,0.0010X0.0820*%
%ADD110R,0.0010X0.1560*%
%ADD111R,0.0010X0.0780*%
%ADD112R,0.0010X0.0790*%
%ADD113R,0.0010X0.0800*%
%ADD114R,0.0010X0.1550*%
%ADD115R,0.0010X0.0680*%
%ADD116R,0.0010X0.0870*%
%ADD117R,0.0010X0.0900*%
%ADD118R,0.0010X0.0930*%
%ADD119R,0.0010X0.0950*%
%ADD120R,0.0010X0.0960*%
%ADD121R,0.0010X0.0980*%
%ADD122R,0.0010X0.0990*%
%ADD123R,0.0010X0.1000*%
%ADD124R,0.0010X0.1020*%
%ADD125R,0.0010X0.1030*%
%ADD126R,0.0010X0.1040*%
%ADD127R,0.0010X0.1050*%
%ADD128R,0.0010X0.1630*%
%ADD129R,0.0010X0.1070*%
%ADD130R,0.0010X0.1640*%
%ADD131R,0.0010X0.1080*%
%ADD132R,0.0010X0.0910*%
%ADD133R,0.0010X0.1060*%
%ADD134R,0.0010X0.1090*%
%ADD135R,0.0010X0.1690*%
%ADD136R,0.0010X0.1720*%
%ADD137R,0.0010X0.2800*%
%ADD138R,0.0010X0.1710*%
%ADD139R,0.0010X0.1100*%
%ADD140R,0.0010X0.1820*%
%ADD141R,0.0010X0.1880*%
%ADD142R,0.0010X0.1010*%
%ADD143R,0.0010X0.1910*%
%ADD144R,0.0010X0.1530*%
%ADD145R,0.0010X0.1940*%
%ADD146R,0.0010X0.1520*%
%ADD147R,0.0010X0.0970*%
%ADD148R,0.0010X0.1950*%
%ADD149R,0.0010X0.1500*%
%ADD150R,0.0010X0.1970*%
%ADD151R,0.0010X0.1490*%
%ADD152R,0.0010X0.1990*%
%ADD153R,0.0010X0.1470*%
%ADD154R,0.0010X0.2000*%
%ADD155R,0.0010X0.1350*%
%ADD156R,0.0010X0.1460*%
%ADD157R,0.0010X0.1440*%
%ADD158R,0.0010X0.2030*%
%ADD159R,0.0010X0.1430*%
%ADD160R,0.0010X0.2040*%
%ADD161R,0.0010X0.2050*%
%ADD162R,0.0010X0.1420*%
%ADD163R,0.0010X0.1410*%
%ADD164R,0.0010X0.2060*%
%ADD165R,0.0010X0.1980*%
%ADD166R,0.0010X0.2120*%
%ADD167R,0.0010X0.1400*%
%ADD168R,0.0010X0.2070*%
%ADD169R,0.0010X0.2180*%
%ADD170R,0.0010X0.1390*%
%ADD171R,0.0010X0.2220*%
%ADD172R,0.0010X0.2080*%
%ADD173R,0.0010X0.2240*%
%ADD174R,0.0010X0.1380*%
%ADD175R,0.0010X0.2270*%
%ADD176R,0.0010X0.1370*%
%ADD177R,0.0010X0.2090*%
%ADD178R,0.0010X0.2310*%
%ADD179R,0.0010X0.1360*%
%ADD180R,0.0010X0.2320*%
%ADD181R,0.0010X0.2330*%
%ADD182R,0.0010X0.0810*%
%ADD183R,0.0010X0.2360*%
%ADD184R,0.0010X0.2380*%
%ADD185R,0.0010X0.2390*%
%ADD186R,0.0010X0.2400*%
%ADD187R,0.0010X0.1340*%
%ADD188R,0.0010X0.2430*%
%ADD189R,0.0010X0.2440*%
%ADD190R,0.0010X0.2460*%
%ADD191R,0.0010X0.0600*%
%ADD192R,0.0010X0.1540*%
%ADD193R,0.0010X0.1510*%
%ADD194R,0.0010X0.1920*%
%ADD195R,0.0010X0.1900*%
%ADD196R,0.0010X0.0340*%
%ADD197R,0.0010X0.1810*%
%ADD198R,0.0010X0.2590*%
%ADD199R,0.0010X0.2570*%
%ADD200R,0.0010X0.2550*%
%ADD201R,0.0010X0.2480*%
%ADD202R,0.0010X0.2150*%
%ADD203R,0.0010X0.9570*%
%ADD204R,0.0010X0.9590*%
%ADD205R,0.0010X0.9600*%
%ADD206R,0.0010X0.6430*%
%ADD207R,0.0010X0.3630*%
%ADD208R,0.0010X0.1300*%
%ADD209R,0.0010X0.0220*%
%ADD210R,0.0010X0.0260*%
%ADD211R,0.0010X0.1320*%
%ADD212R,0.0010X0.0140*%
%ADD213R,0.0010X0.0290*%
%ADD214R,0.0010X0.1280*%
%ADD215R,0.0010X0.0210*%
%ADD216R,0.0010X0.0230*%
%ADD217R,0.0010X0.1270*%
%ADD218R,0.0010X0.0110*%
%ADD219R,0.0010X0.0270*%
%ADD220R,0.0010X0.0300*%
%ADD221R,0.0010X0.1230*%
%ADD222R,0.0010X0.0100*%
%ADD223R,0.0010X0.0280*%
%ADD224R,0.0010X0.0200*%
%ADD225R,0.0010X0.0190*%
%ADD226R,0.0010X0.1210*%
%ADD227R,0.0010X0.0090*%
%ADD228R,0.0010X0.0250*%
%ADD229R,0.0010X0.0180*%
%ADD230R,0.0010X0.1180*%
%ADD231R,0.0010X0.0080*%
%ADD232R,0.0010X0.0170*%
%ADD233R,0.0010X0.1160*%
%ADD234R,0.0010X0.1850*%
%ADD235R,0.0010X0.0150*%
%ADD236R,0.0010X0.1140*%
%ADD237R,0.0010X0.0070*%
%ADD238R,0.0010X0.1480*%
%ADD239R,0.0010X0.1750*%
%ADD240R,0.0010X0.0240*%
%ADD241R,0.0010X0.1120*%
%ADD242R,0.0010X0.0060*%
%ADD243R,0.0010X0.1110*%
%ADD244R,0.0010X0.0130*%
%ADD245R,0.0010X0.1330*%
%ADD246R,0.0010X0.0160*%
%ADD247R,0.0010X0.0120*%
%ADD248R,0.0010X0.1290*%
%ADD249R,0.0010X0.1250*%
%ADD250R,0.0010X0.1220*%
%ADD251R,0.0010X0.1190*%
%ADD252R,0.0010X0.1170*%
%ADD253R,0.0010X0.0010*%
%ADD254R,0.0010X0.0020*%
%ADD255R,0.0010X0.1310*%
%ADD256R,0.0010X0.1660*%
%ADD257R,0.0010X0.0030*%
%ADD258R,0.0010X0.0040*%
%ADD259R,0.0010X0.1260*%
%ADD260R,0.0010X0.1240*%
%ADD261R,0.0010X0.0050*%
%ADD262R,0.0010X0.1200*%
%ADD263R,0.0010X0.1130*%
%ADD264R,0.0010X0.1450*%
%ADD265R,0.0010X0.1150*%
%ADD266R,0.0010X0.3720*%
%ADD267R,0.0010X0.6850*%
%ADD268R,0.0010X0.6840*%
%ADD269R,0.0010X0.6830*%
%ADD270R,0.0010X0.6820*%
%ADD271R,0.0010X0.6810*%
%ADD272R,0.0010X0.6800*%
%ADD273R,0.0010X0.6790*%
%ADD274R,0.0010X0.6780*%
%ADD275R,0.0010X0.6770*%
%ADD276R,0.0010X0.6760*%
%ADD277R,0.0010X0.6750*%
%ADD278R,0.0010X0.6740*%
%ADD279R,0.0010X0.6730*%
%ADD280R,0.0010X0.6720*%
%ADD281R,0.0010X0.6710*%
%ADD282R,0.0010X0.6700*%
%ADD283R,0.0010X0.6690*%
%ADD284R,0.0010X0.6680*%
%ADD285R,0.0010X0.9530*%
%ADD286R,0.0010X0.9520*%
%ADD287R,0.0010X0.9510*%
%ADD288R,0.0010X0.9490*%
%ADD289R,0.0010X0.9460*%
%ADD290R,0.0010X0.9430*%
%ADD291R,0.0010X0.9390*%
%ADD292R,0.0010X0.9350*%
%ADD293R,0.0010X0.9230*%
D10*
X000180Y000300D02*
X000180Y031800D01*
X057261Y031800D01*
X057261Y000300D01*
X000180Y000300D01*
X000735Y001480D02*
X000737Y001530D01*
X000743Y001579D01*
X000753Y001628D01*
X000766Y001675D01*
X000784Y001722D01*
X000805Y001767D01*
X000829Y001810D01*
X000857Y001851D01*
X000888Y001890D01*
X000922Y001926D01*
X000959Y001960D01*
X000999Y001990D01*
X001040Y002017D01*
X001084Y002041D01*
X001129Y002061D01*
X001176Y002077D01*
X001224Y002090D01*
X001273Y002099D01*
X001323Y002104D01*
X001372Y002105D01*
X001422Y002102D01*
X001471Y002095D01*
X001520Y002084D01*
X001567Y002070D01*
X001613Y002051D01*
X001658Y002029D01*
X001701Y002004D01*
X001741Y001975D01*
X001779Y001943D01*
X001815Y001909D01*
X001848Y001871D01*
X001877Y001831D01*
X001903Y001789D01*
X001926Y001745D01*
X001945Y001699D01*
X001961Y001652D01*
X001973Y001603D01*
X001981Y001554D01*
X001985Y001505D01*
X001985Y001455D01*
X001981Y001406D01*
X001973Y001357D01*
X001961Y001308D01*
X001945Y001261D01*
X001926Y001215D01*
X001903Y001171D01*
X001877Y001129D01*
X001848Y001089D01*
X001815Y001051D01*
X001779Y001017D01*
X001741Y000985D01*
X001701Y000956D01*
X001658Y000931D01*
X001613Y000909D01*
X001567Y000890D01*
X001520Y000876D01*
X001471Y000865D01*
X001422Y000858D01*
X001372Y000855D01*
X001323Y000856D01*
X001273Y000861D01*
X001224Y000870D01*
X001176Y000883D01*
X001129Y000899D01*
X001084Y000919D01*
X001040Y000943D01*
X000999Y000970D01*
X000959Y001000D01*
X000922Y001034D01*
X000888Y001070D01*
X000857Y001109D01*
X000829Y001150D01*
X000805Y001193D01*
X000784Y001238D01*
X000766Y001285D01*
X000753Y001332D01*
X000743Y001381D01*
X000737Y001430D01*
X000735Y001480D01*
X044836Y025400D02*
X044838Y025450D01*
X044844Y025499D01*
X044854Y025548D01*
X044867Y025595D01*
X044885Y025642D01*
X044906Y025687D01*
X044930Y025730D01*
X044958Y025771D01*
X044989Y025810D01*
X045023Y025846D01*
X045060Y025880D01*
X045100Y025910D01*
X045141Y025937D01*
X045185Y025961D01*
X045230Y025981D01*
X045277Y025997D01*
X045325Y026010D01*
X045374Y026019D01*
X045424Y026024D01*
X045473Y026025D01*
X045523Y026022D01*
X045572Y026015D01*
X045621Y026004D01*
X045668Y025990D01*
X045714Y025971D01*
X045759Y025949D01*
X045802Y025924D01*
X045842Y025895D01*
X045880Y025863D01*
X045916Y025829D01*
X045949Y025791D01*
X045978Y025751D01*
X046004Y025709D01*
X046027Y025665D01*
X046046Y025619D01*
X046062Y025572D01*
X046074Y025523D01*
X046082Y025474D01*
X046086Y025425D01*
X046086Y025375D01*
X046082Y025326D01*
X046074Y025277D01*
X046062Y025228D01*
X046046Y025181D01*
X046027Y025135D01*
X046004Y025091D01*
X045978Y025049D01*
X045949Y025009D01*
X045916Y024971D01*
X045880Y024937D01*
X045842Y024905D01*
X045802Y024876D01*
X045759Y024851D01*
X045714Y024829D01*
X045668Y024810D01*
X045621Y024796D01*
X045572Y024785D01*
X045523Y024778D01*
X045473Y024775D01*
X045424Y024776D01*
X045374Y024781D01*
X045325Y024790D01*
X045277Y024803D01*
X045230Y024819D01*
X045185Y024839D01*
X045141Y024863D01*
X045100Y024890D01*
X045060Y024920D01*
X045023Y024954D01*
X044989Y024990D01*
X044958Y025029D01*
X044930Y025070D01*
X044906Y025113D01*
X044885Y025158D01*
X044867Y025205D01*
X044854Y025252D01*
X044844Y025301D01*
X044838Y025350D01*
X044836Y025400D01*
X055456Y030610D02*
X055458Y030660D01*
X055464Y030709D01*
X055474Y030758D01*
X055487Y030805D01*
X055505Y030852D01*
X055526Y030897D01*
X055550Y030940D01*
X055578Y030981D01*
X055609Y031020D01*
X055643Y031056D01*
X055680Y031090D01*
X055720Y031120D01*
X055761Y031147D01*
X055805Y031171D01*
X055850Y031191D01*
X055897Y031207D01*
X055945Y031220D01*
X055994Y031229D01*
X056044Y031234D01*
X056093Y031235D01*
X056143Y031232D01*
X056192Y031225D01*
X056241Y031214D01*
X056288Y031200D01*
X056334Y031181D01*
X056379Y031159D01*
X056422Y031134D01*
X056462Y031105D01*
X056500Y031073D01*
X056536Y031039D01*
X056569Y031001D01*
X056598Y030961D01*
X056624Y030919D01*
X056647Y030875D01*
X056666Y030829D01*
X056682Y030782D01*
X056694Y030733D01*
X056702Y030684D01*
X056706Y030635D01*
X056706Y030585D01*
X056702Y030536D01*
X056694Y030487D01*
X056682Y030438D01*
X056666Y030391D01*
X056647Y030345D01*
X056624Y030301D01*
X056598Y030259D01*
X056569Y030219D01*
X056536Y030181D01*
X056500Y030147D01*
X056462Y030115D01*
X056422Y030086D01*
X056379Y030061D01*
X056334Y030039D01*
X056288Y030020D01*
X056241Y030006D01*
X056192Y029995D01*
X056143Y029988D01*
X056093Y029985D01*
X056044Y029986D01*
X055994Y029991D01*
X055945Y030000D01*
X055897Y030013D01*
X055850Y030029D01*
X055805Y030049D01*
X055761Y030073D01*
X055720Y030100D01*
X055680Y030130D01*
X055643Y030164D01*
X055609Y030200D01*
X055578Y030239D01*
X055550Y030280D01*
X055526Y030323D01*
X055505Y030368D01*
X055487Y030415D01*
X055474Y030462D01*
X055464Y030511D01*
X055458Y030560D01*
X055456Y030610D01*
X008216Y030610D02*
X008218Y030660D01*
X008224Y030709D01*
X008234Y030758D01*
X008247Y030805D01*
X008265Y030852D01*
X008286Y030897D01*
X008310Y030940D01*
X008338Y030981D01*
X008369Y031020D01*
X008403Y031056D01*
X008440Y031090D01*
X008480Y031120D01*
X008521Y031147D01*
X008565Y031171D01*
X008610Y031191D01*
X008657Y031207D01*
X008705Y031220D01*
X008754Y031229D01*
X008804Y031234D01*
X008853Y031235D01*
X008903Y031232D01*
X008952Y031225D01*
X009001Y031214D01*
X009048Y031200D01*
X009094Y031181D01*
X009139Y031159D01*
X009182Y031134D01*
X009222Y031105D01*
X009260Y031073D01*
X009296Y031039D01*
X009329Y031001D01*
X009358Y030961D01*
X009384Y030919D01*
X009407Y030875D01*
X009426Y030829D01*
X009442Y030782D01*
X009454Y030733D01*
X009462Y030684D01*
X009466Y030635D01*
X009466Y030585D01*
X009462Y030536D01*
X009454Y030487D01*
X009442Y030438D01*
X009426Y030391D01*
X009407Y030345D01*
X009384Y030301D01*
X009358Y030259D01*
X009329Y030219D01*
X009296Y030181D01*
X009260Y030147D01*
X009222Y030115D01*
X009182Y030086D01*
X009139Y030061D01*
X009094Y030039D01*
X009048Y030020D01*
X009001Y030006D01*
X008952Y029995D01*
X008903Y029988D01*
X008853Y029985D01*
X008804Y029986D01*
X008754Y029991D01*
X008705Y030000D01*
X008657Y030013D01*
X008610Y030029D01*
X008565Y030049D01*
X008521Y030073D01*
X008480Y030100D01*
X008440Y030130D01*
X008403Y030164D01*
X008369Y030200D01*
X008338Y030239D01*
X008310Y030280D01*
X008286Y030323D01*
X008265Y030368D01*
X008247Y030415D01*
X008234Y030462D01*
X008224Y030511D01*
X008218Y030560D01*
X008216Y030610D01*
X055456Y001480D02*
X055458Y001530D01*
X055464Y001579D01*
X055474Y001628D01*
X055487Y001675D01*
X055505Y001722D01*
X055526Y001767D01*
X055550Y001810D01*
X055578Y001851D01*
X055609Y001890D01*
X055643Y001926D01*
X055680Y001960D01*
X055720Y001990D01*
X055761Y002017D01*
X055805Y002041D01*
X055850Y002061D01*
X055897Y002077D01*
X055945Y002090D01*
X055994Y002099D01*
X056044Y002104D01*
X056093Y002105D01*
X056143Y002102D01*
X056192Y002095D01*
X056241Y002084D01*
X056288Y002070D01*
X056334Y002051D01*
X056379Y002029D01*
X056422Y002004D01*
X056462Y001975D01*
X056500Y001943D01*
X056536Y001909D01*
X056569Y001871D01*
X056598Y001831D01*
X056624Y001789D01*
X056647Y001745D01*
X056666Y001699D01*
X056682Y001652D01*
X056694Y001603D01*
X056702Y001554D01*
X056706Y001505D01*
X056706Y001455D01*
X056702Y001406D01*
X056694Y001357D01*
X056682Y001308D01*
X056666Y001261D01*
X056647Y001215D01*
X056624Y001171D01*
X056598Y001129D01*
X056569Y001089D01*
X056536Y001051D01*
X056500Y001017D01*
X056462Y000985D01*
X056422Y000956D01*
X056379Y000931D01*
X056334Y000909D01*
X056288Y000890D01*
X056241Y000876D01*
X056192Y000865D01*
X056143Y000858D01*
X056093Y000855D01*
X056044Y000856D01*
X055994Y000861D01*
X055945Y000870D01*
X055897Y000883D01*
X055850Y000899D01*
X055805Y000919D01*
X055761Y000943D01*
X055720Y000970D01*
X055680Y001000D01*
X055643Y001034D01*
X055609Y001070D01*
X055578Y001109D01*
X055550Y001150D01*
X055526Y001193D01*
X055505Y001238D01*
X055487Y001285D01*
X055474Y001332D01*
X055464Y001381D01*
X055458Y001430D01*
X055456Y001480D01*
D11*
X012806Y011700D02*
X012581Y011475D01*
X011680Y011475D01*
X011455Y011700D01*
X011455Y012151D01*
X011680Y012376D01*
X012581Y012376D02*
X012806Y012151D01*
X012806Y011700D01*
X012131Y012856D02*
X011680Y012856D01*
X011455Y013081D01*
X011455Y013532D01*
X011680Y013757D01*
X012131Y013757D01*
X012356Y013532D01*
X012356Y013081D01*
X012131Y012856D01*
X010806Y013825D02*
X010806Y014501D01*
X010581Y014726D01*
X010131Y014726D01*
X009905Y014501D01*
X009905Y013825D01*
X009455Y013825D02*
X010806Y013825D01*
X011455Y014237D02*
X012356Y014237D01*
X012356Y014913D01*
X012131Y015138D01*
X011455Y015138D01*
X010356Y015431D02*
X010356Y015882D01*
X010131Y016107D01*
X009905Y016107D01*
X009905Y015206D01*
X009680Y015206D02*
X010131Y015206D01*
X010356Y015431D01*
X009680Y015206D02*
X009455Y015431D01*
X009455Y015882D01*
X010356Y016587D02*
X009455Y017038D01*
X010356Y017488D01*
X011455Y017916D02*
X011680Y017690D01*
X012131Y017690D01*
X012356Y017916D01*
X012356Y018366D01*
X012131Y018591D01*
X011680Y018591D01*
X011455Y018366D01*
X011455Y017916D01*
X011031Y018194D02*
X010806Y018194D01*
X010356Y018194D02*
X009455Y018194D01*
X009455Y017969D02*
X009455Y018419D01*
X009455Y018889D02*
X009455Y019565D01*
X009680Y019790D01*
X009905Y019565D01*
X009905Y019115D01*
X010131Y018889D01*
X010356Y019115D01*
X010356Y019790D01*
X011455Y019992D02*
X011455Y020443D01*
X011455Y020217D02*
X012806Y020217D01*
X012806Y019992D01*
X012806Y019297D02*
X011455Y019297D01*
X011455Y019522D02*
X011455Y019071D01*
X012806Y019071D02*
X012806Y019297D01*
X011031Y020496D02*
X010806Y020496D01*
X010356Y020496D02*
X009455Y020496D01*
X009455Y020271D02*
X009455Y020721D01*
X009680Y021191D02*
X009455Y021416D01*
X009455Y021867D01*
X009680Y022092D01*
X010131Y022092D01*
X010356Y021867D01*
X010356Y021416D01*
X010131Y021191D01*
X009680Y021191D01*
X010356Y020496D02*
X010356Y020271D01*
X011455Y021138D02*
X011680Y020913D01*
X012131Y020913D01*
X012356Y021138D01*
X012356Y021589D01*
X012131Y021814D01*
X011905Y021814D01*
X011905Y020913D01*
X011455Y021138D02*
X011455Y021589D01*
X011455Y022294D02*
X012356Y022294D01*
X011905Y022294D02*
X012356Y022745D01*
X012356Y022970D01*
X010356Y023248D02*
X010356Y022572D01*
X009455Y022572D01*
X010356Y023248D02*
X010131Y023473D01*
X009455Y023473D01*
X011455Y024826D02*
X011455Y025502D01*
X011680Y025727D01*
X011905Y025727D01*
X012131Y025502D01*
X012131Y024826D01*
X012806Y024826D02*
X012806Y025502D01*
X012581Y025727D01*
X012356Y025727D01*
X012131Y025502D01*
X012131Y026208D02*
X011680Y026208D01*
X011455Y026433D01*
X011455Y026883D01*
X011680Y027108D01*
X012131Y027108D01*
X012356Y026883D01*
X012356Y026433D01*
X012131Y026208D01*
X010806Y026010D02*
X010806Y025560D01*
X010581Y025335D01*
X010806Y026010D02*
X010581Y026236D01*
X010356Y026236D01*
X009455Y025335D01*
X009455Y026236D01*
X009455Y026716D02*
X009455Y026941D01*
X009680Y026941D01*
X009680Y026716D01*
X009455Y026716D01*
X009680Y027407D02*
X009905Y027407D01*
X010131Y027632D01*
X010131Y028082D01*
X009905Y028307D01*
X009680Y028307D01*
X009455Y028082D01*
X009455Y027632D01*
X009680Y027407D01*
X010131Y027632D02*
X010356Y027407D01*
X010581Y027407D01*
X010806Y027632D01*
X010806Y028082D01*
X010581Y028307D01*
X010356Y028307D01*
X010131Y028082D01*
X011455Y027814D02*
X011680Y027589D01*
X011905Y027814D01*
X011905Y028490D01*
X012131Y028490D02*
X011455Y028490D01*
X011455Y027814D01*
X012356Y027814D02*
X012356Y028264D01*
X012131Y028490D01*
X012356Y028970D02*
X011455Y028970D01*
X011905Y028970D02*
X012356Y029420D01*
X012356Y029646D01*
X012131Y030121D02*
X011680Y030121D01*
X011455Y030346D01*
X011455Y031022D01*
X012806Y031022D01*
X012356Y031022D02*
X012356Y030346D01*
X012131Y030121D01*
X011455Y024826D02*
X012806Y024826D01*
X010356Y018194D02*
X010356Y017969D01*
X011905Y016539D02*
X012356Y016990D01*
X012356Y017215D01*
X012356Y016539D02*
X011455Y016539D01*
X011455Y016069D02*
X011680Y015844D01*
X012581Y015844D01*
X012356Y015619D02*
X012356Y016069D01*
X009905Y014275D02*
X009455Y014726D01*
D12*
X032680Y009975D03*
D13*
X016151Y010000D03*
X014311Y007040D03*
D14*
X011950Y007305D03*
X011210Y007265D03*
X011310Y007945D03*
X010680Y009365D03*
X014311Y009285D03*
X014321Y009285D03*
X014331Y009285D03*
X014341Y009285D03*
X014351Y009285D03*
X014361Y009285D03*
X014371Y009285D03*
X014381Y009285D03*
X014391Y009285D03*
X014401Y009285D03*
X014411Y009285D03*
X014421Y009285D03*
X014431Y009285D03*
X014441Y009285D03*
X014451Y009285D03*
X014461Y009285D03*
X014471Y009285D03*
X014481Y009285D03*
X014491Y009285D03*
X014501Y009285D03*
X014511Y009285D03*
X014521Y009285D03*
X014531Y009285D03*
X014541Y009285D03*
X014551Y009285D03*
X014561Y009285D03*
X014571Y009285D03*
X014581Y009285D03*
X014591Y009285D03*
X014601Y009285D03*
X014611Y009285D03*
X014621Y009285D03*
X014631Y009285D03*
X014641Y009285D03*
X014651Y009285D03*
X015411Y010955D03*
X015781Y010955D03*
X015101Y011725D03*
X015091Y011725D03*
X015081Y011725D03*
X015071Y011725D03*
X015061Y011725D03*
X015051Y011725D03*
X015041Y011725D03*
X015031Y011725D03*
X015021Y011725D03*
X015011Y011725D03*
X015001Y011725D03*
X014991Y011725D03*
X014981Y011725D03*
X014971Y011725D03*
X014961Y011725D03*
X014951Y011725D03*
X014941Y011725D03*
X014931Y011725D03*
X014921Y011725D03*
X014911Y011725D03*
X014901Y011725D03*
X014891Y011725D03*
X014881Y011725D03*
X014871Y011725D03*
X014861Y011725D03*
X014851Y011725D03*
X014841Y011725D03*
X014831Y011725D03*
X014821Y011725D03*
X014811Y011725D03*
X014801Y011725D03*
X014791Y011725D03*
X014781Y011725D03*
X014771Y011725D03*
X014761Y011725D03*
X014751Y011725D03*
X014741Y011725D03*
X014731Y011725D03*
X014721Y011725D03*
X014711Y011725D03*
X014701Y011725D03*
X014691Y011725D03*
X014681Y011725D03*
X014671Y011725D03*
X016071Y014075D03*
X015681Y021135D03*
X016391Y022245D03*
X016401Y022245D03*
X011860Y005195D03*
X012330Y004865D03*
X010830Y004865D03*
X010260Y003315D03*
X011540Y003105D03*
X011540Y002385D03*
X010410Y001265D03*
X010400Y001265D03*
D15*
X015121Y010075D03*
X016081Y010075D03*
X014651Y012515D03*
X014641Y012515D03*
X014631Y012515D03*
X014621Y012515D03*
X014611Y012515D03*
X014601Y012515D03*
X014591Y012515D03*
X014581Y012515D03*
X014571Y012515D03*
X014561Y012515D03*
X014551Y012515D03*
X014541Y012515D03*
X014531Y012515D03*
X014521Y012515D03*
X014511Y012515D03*
X014501Y012515D03*
X014491Y012515D03*
X014481Y012515D03*
X014471Y012515D03*
X014461Y012515D03*
X014451Y012515D03*
X014441Y012515D03*
X014431Y012515D03*
X014421Y012515D03*
X014411Y012515D03*
X014401Y012515D03*
X014391Y012515D03*
X014381Y012515D03*
X014371Y012515D03*
X014361Y012515D03*
X014351Y012515D03*
X014341Y012515D03*
X014331Y012515D03*
X014321Y012515D03*
X014311Y012515D03*
D16*
X014311Y014060D03*
X014321Y014060D03*
X014331Y014060D03*
X014341Y014060D03*
X014351Y014060D03*
X014361Y014060D03*
X014371Y014060D03*
X014381Y014060D03*
X014391Y014060D03*
X014401Y014060D03*
X014411Y014060D03*
X014421Y014060D03*
X014431Y014060D03*
X014441Y014060D03*
X014451Y014060D03*
X014461Y014060D03*
X014471Y014060D03*
X014481Y014060D03*
X014491Y014060D03*
X014501Y014060D03*
X014511Y014060D03*
X014521Y014060D03*
X014531Y014060D03*
X014541Y014060D03*
X014551Y014060D03*
X014561Y014060D03*
X014571Y014060D03*
X014581Y014060D03*
X014591Y014060D03*
X014601Y014060D03*
X014611Y014060D03*
X014621Y014060D03*
X014631Y014060D03*
X014641Y014060D03*
X014651Y014060D03*
X014661Y014060D03*
X014671Y014060D03*
X014681Y014060D03*
X014691Y014060D03*
X014701Y014060D03*
X014711Y014060D03*
X014721Y014060D03*
X014731Y014060D03*
X014741Y014060D03*
X014751Y014060D03*
X014761Y014060D03*
X014771Y014060D03*
X014781Y014060D03*
X014791Y014060D03*
X014801Y014060D03*
X014811Y014060D03*
X014821Y014060D03*
X014831Y014060D03*
X014841Y014060D03*
X014851Y014060D03*
X014861Y014060D03*
X014871Y014060D03*
X014881Y014060D03*
X014891Y014060D03*
X014901Y014060D03*
X014911Y014060D03*
X014921Y014060D03*
X014931Y014060D03*
X014941Y014060D03*
X014951Y014060D03*
X014961Y014060D03*
X014971Y014060D03*
X014981Y014060D03*
X014991Y014060D03*
X015001Y014060D03*
X015011Y014060D03*
X015021Y014060D03*
X015031Y014060D03*
X015041Y014060D03*
X015051Y014060D03*
X015061Y014060D03*
X015071Y014060D03*
X015081Y014060D03*
X015091Y014060D03*
X015101Y014060D03*
X015111Y014060D03*
X015121Y014060D03*
X015131Y014060D03*
X015141Y014060D03*
X015151Y014060D03*
X015161Y014060D03*
X015171Y014060D03*
X015181Y014060D03*
X015191Y014060D03*
X015201Y014060D03*
X015211Y014060D03*
X015221Y014060D03*
X015231Y014060D03*
X015241Y014060D03*
X015251Y014060D03*
X015261Y014060D03*
X015271Y014060D03*
X015281Y014060D03*
X015291Y014060D03*
X015301Y014060D03*
X015311Y014060D03*
X015321Y014060D03*
X015331Y014060D03*
X015341Y014060D03*
X015351Y014060D03*
X015361Y014060D03*
X015371Y014060D03*
X015381Y014060D03*
X015391Y014060D03*
X015401Y014060D03*
X015411Y014060D03*
X015421Y014060D03*
X015431Y014060D03*
X015441Y014060D03*
X015451Y014060D03*
X015461Y014060D03*
X015471Y014060D03*
X015481Y014060D03*
X015491Y014060D03*
X015501Y014060D03*
X015511Y014060D03*
X015521Y014060D03*
X015531Y014060D03*
X015541Y014060D03*
X015551Y014060D03*
X016091Y014060D03*
X016091Y015950D03*
X016081Y015950D03*
X016071Y015950D03*
X016061Y015950D03*
X016051Y015950D03*
X016041Y015950D03*
X016031Y015950D03*
X016021Y015950D03*
X016011Y015950D03*
X016001Y015950D03*
X015991Y015950D03*
X015981Y015950D03*
X015971Y015950D03*
X015961Y015950D03*
X015951Y015950D03*
X015941Y015950D03*
X015931Y015950D03*
X015921Y015950D03*
X015911Y015950D03*
X015901Y015950D03*
X015891Y015950D03*
X015881Y015950D03*
X015871Y015950D03*
X015861Y015950D03*
X015851Y015950D03*
X015841Y015950D03*
X015831Y015950D03*
X015821Y015950D03*
X015811Y015950D03*
X015801Y015950D03*
X015791Y015950D03*
X015781Y015950D03*
X015771Y015950D03*
X015761Y015950D03*
X015751Y015950D03*
X015741Y015950D03*
X015731Y015950D03*
X015721Y015950D03*
X015711Y015950D03*
X015701Y015950D03*
X015691Y015950D03*
X015681Y015950D03*
X015671Y015950D03*
X015661Y015950D03*
X015651Y015950D03*
X015641Y015950D03*
X015631Y015950D03*
X015621Y015950D03*
X015611Y015950D03*
X015601Y015950D03*
X015591Y015950D03*
X015581Y015950D03*
X015571Y015950D03*
X015561Y015950D03*
X015551Y015950D03*
X015541Y015950D03*
X015531Y015950D03*
X015521Y015950D03*
X015511Y015950D03*
X015501Y015950D03*
X015491Y015950D03*
X015481Y015950D03*
X015471Y015950D03*
X015461Y015950D03*
X015451Y015950D03*
X015441Y015950D03*
X015431Y015950D03*
X015421Y015950D03*
X015411Y015950D03*
X015401Y015950D03*
X015391Y015950D03*
X015381Y015950D03*
X015371Y015950D03*
X015361Y015950D03*
X015351Y015950D03*
X015341Y015950D03*
X015331Y015950D03*
X015321Y015950D03*
X015311Y015950D03*
X015301Y015950D03*
X015291Y015950D03*
X015281Y015950D03*
X015271Y015950D03*
X015261Y015950D03*
X015251Y015950D03*
X015241Y015950D03*
X015231Y015950D03*
X015221Y015950D03*
X015211Y015950D03*
X015201Y015950D03*
X015191Y015950D03*
X015181Y015950D03*
X015171Y015950D03*
X015161Y015950D03*
X015151Y015950D03*
X015141Y015950D03*
X015131Y015950D03*
X015121Y015950D03*
X015111Y015950D03*
X015101Y015950D03*
X015091Y015950D03*
X015081Y015950D03*
X015071Y015950D03*
X015061Y015950D03*
X015051Y015950D03*
X015041Y015950D03*
X015031Y015950D03*
X015021Y015950D03*
X015011Y015950D03*
X015001Y015950D03*
X014991Y015950D03*
X014981Y015950D03*
X014971Y015950D03*
X014961Y015950D03*
X014951Y015950D03*
X014941Y015950D03*
X014391Y015950D03*
X016101Y015950D03*
X016111Y015950D03*
X016121Y015950D03*
X016131Y015950D03*
X016141Y015950D03*
X016151Y015950D03*
X016161Y015950D03*
X015601Y020990D03*
X014351Y024110D03*
X014341Y024110D03*
X009970Y009190D03*
X011200Y007270D03*
X011960Y007300D03*
X012160Y003340D03*
X012450Y002720D03*
X012160Y002110D03*
X010880Y002380D03*
X010280Y002100D03*
X010880Y003100D03*
X010280Y003350D03*
D17*
X010440Y003550D03*
X010450Y003560D03*
X010460Y003570D03*
X010470Y003580D03*
X011960Y003580D03*
X011970Y003570D03*
X011980Y003560D03*
X011990Y003550D03*
X012280Y004740D03*
X012280Y005650D03*
X010890Y005660D03*
X010880Y004740D03*
X010880Y006830D03*
X010880Y007730D03*
X010880Y008920D03*
X011680Y009060D03*
X012280Y008910D03*
X012280Y009820D03*
X010890Y009830D03*
X012280Y007740D03*
X012280Y006820D03*
X011990Y001900D03*
X011980Y001890D03*
X011970Y001880D03*
X011960Y001870D03*
X014311Y016000D03*
D18*
X014481Y015895D03*
X014481Y017035D03*
X014471Y017035D03*
X014461Y017035D03*
X014451Y017035D03*
X014441Y017035D03*
X014431Y017035D03*
X014421Y017035D03*
X014411Y017035D03*
X014401Y017035D03*
X014391Y017035D03*
X014381Y017035D03*
X014371Y017035D03*
X014361Y017035D03*
X014351Y017035D03*
X014341Y017035D03*
X014331Y017035D03*
X014321Y017035D03*
X014311Y017035D03*
X014491Y017035D03*
X014501Y017035D03*
X014511Y017035D03*
X014521Y017035D03*
X014531Y017035D03*
X014541Y017035D03*
X014551Y017035D03*
X014561Y017035D03*
X014571Y017035D03*
X014581Y017035D03*
X014591Y017035D03*
X014601Y017035D03*
X014611Y017035D03*
X014621Y017035D03*
X014631Y017035D03*
X014641Y017035D03*
X014651Y017035D03*
X014661Y017035D03*
X014671Y017035D03*
X014681Y017035D03*
X014691Y017035D03*
X014701Y017035D03*
X014711Y017035D03*
X014721Y017035D03*
X014731Y017035D03*
X014741Y017035D03*
X014751Y017035D03*
X014761Y017035D03*
X014771Y017035D03*
X014781Y017035D03*
X014791Y017035D03*
X014801Y017035D03*
X014811Y017035D03*
X014821Y017035D03*
X014831Y017035D03*
X014841Y017035D03*
X014851Y017035D03*
X014861Y017035D03*
X014871Y017035D03*
X014881Y017035D03*
X014891Y017035D03*
X014901Y017035D03*
X014911Y017035D03*
X014921Y017035D03*
X014931Y017035D03*
X014941Y017035D03*
X014951Y017035D03*
X014961Y017035D03*
X014971Y017035D03*
X014981Y017035D03*
X014991Y017035D03*
X015001Y017035D03*
X015011Y017035D03*
X015021Y017035D03*
X015031Y017035D03*
X015041Y017035D03*
X015051Y017035D03*
X015061Y017035D03*
X015071Y017035D03*
X015081Y017035D03*
X015091Y017035D03*
X015101Y017035D03*
X015111Y017035D03*
X015121Y017035D03*
X015131Y017035D03*
X015141Y017035D03*
X015151Y017035D03*
X015161Y017035D03*
X015551Y017035D03*
X015561Y017035D03*
X015571Y017035D03*
X015581Y017035D03*
X015591Y017035D03*
X015601Y017035D03*
X015611Y017035D03*
X015621Y017035D03*
X015631Y017035D03*
X015641Y017035D03*
X015651Y017035D03*
X015661Y017035D03*
X015671Y017035D03*
X015681Y017035D03*
X015691Y017035D03*
X015701Y017035D03*
X015711Y017035D03*
X015721Y017035D03*
X015731Y017035D03*
X015741Y017035D03*
X015751Y017035D03*
X015761Y017035D03*
X015771Y017035D03*
X015781Y017035D03*
X015791Y017035D03*
X015801Y017035D03*
X015811Y017035D03*
X015821Y017035D03*
X015831Y017035D03*
X015841Y017035D03*
X015851Y017035D03*
X015861Y017035D03*
X015871Y017035D03*
X015881Y017035D03*
X015891Y017035D03*
X015901Y017035D03*
X015911Y017035D03*
X015921Y017035D03*
X015931Y017035D03*
X015941Y017035D03*
X015951Y017035D03*
X015961Y017035D03*
X015971Y017035D03*
X015981Y017035D03*
X015991Y017035D03*
X016001Y017035D03*
X016011Y017035D03*
X016021Y017035D03*
X016031Y017035D03*
X016041Y017035D03*
X016051Y017035D03*
X016061Y017035D03*
X016071Y017035D03*
X016081Y017035D03*
X016091Y017035D03*
X016101Y017035D03*
X016111Y017035D03*
X016121Y017035D03*
X016131Y017035D03*
X016141Y017035D03*
X016151Y017035D03*
X016161Y017035D03*
X016171Y017035D03*
X016181Y017035D03*
X016191Y017035D03*
X016091Y018975D03*
X016081Y018975D03*
X016071Y018975D03*
X016061Y018975D03*
X016051Y018975D03*
X015711Y018975D03*
X015701Y018975D03*
X015691Y018975D03*
X015681Y018975D03*
X015671Y018975D03*
X015661Y018975D03*
X015861Y020005D03*
X015871Y020005D03*
X015881Y020005D03*
X015891Y020005D03*
X016041Y020005D03*
X016051Y020005D03*
X016061Y020005D03*
X016071Y020005D03*
X016081Y020005D03*
X016301Y022245D03*
X016311Y022245D03*
X014451Y024115D03*
X016231Y025095D03*
X016001Y014115D03*
X015831Y010915D03*
X011990Y009375D03*
X011150Y009365D03*
X010690Y009365D03*
X011420Y007665D03*
X011860Y007265D03*
X011870Y007275D03*
X011920Y007305D03*
X011870Y006655D03*
X014721Y005905D03*
X014731Y005905D03*
X014741Y005905D03*
X014751Y005905D03*
X016151Y005905D03*
X016161Y005905D03*
X016161Y008175D03*
X016151Y008175D03*
X016141Y008175D03*
X016131Y008175D03*
X016121Y008175D03*
X016111Y008175D03*
X016101Y008175D03*
X016091Y008175D03*
X016081Y008175D03*
X016071Y008175D03*
X016061Y008175D03*
X016051Y008175D03*
X016041Y008175D03*
X016031Y008175D03*
X016021Y008175D03*
X016011Y008175D03*
X016001Y008175D03*
X015991Y008175D03*
X015981Y008175D03*
X015971Y008175D03*
X015961Y008175D03*
X015951Y008175D03*
X015941Y008175D03*
X015931Y008175D03*
X015921Y008175D03*
X015911Y008175D03*
X015901Y008175D03*
X015891Y008175D03*
X015881Y008175D03*
X015871Y008175D03*
X015861Y008175D03*
X015851Y008175D03*
X015841Y008175D03*
X015831Y008175D03*
X015821Y008175D03*
X015811Y008175D03*
X015801Y008175D03*
X015791Y008175D03*
X015781Y008175D03*
X015771Y008175D03*
X015761Y008175D03*
X015751Y008175D03*
X015741Y008175D03*
X015731Y008175D03*
X015721Y008175D03*
X015711Y008175D03*
X015701Y008175D03*
X015691Y008175D03*
X015681Y008175D03*
X015671Y008175D03*
X015661Y008175D03*
X015651Y008175D03*
X015641Y008175D03*
X015631Y008175D03*
X015621Y008175D03*
X015611Y008175D03*
X015601Y008175D03*
X015591Y008175D03*
X015581Y008175D03*
X015571Y008175D03*
X015561Y008175D03*
X015551Y008175D03*
X015541Y008175D03*
X015531Y008175D03*
X015521Y008175D03*
X015511Y008175D03*
X015501Y008175D03*
X015491Y008175D03*
X015481Y008175D03*
X015471Y008175D03*
X015461Y008175D03*
X015451Y008175D03*
X015441Y008175D03*
X015431Y008175D03*
X015421Y008175D03*
X015411Y008175D03*
X015401Y008175D03*
X015391Y008175D03*
X015381Y008175D03*
X015371Y008175D03*
X015361Y008175D03*
X015351Y008175D03*
X015341Y008175D03*
X015331Y008175D03*
X015321Y008175D03*
X015311Y008175D03*
X015301Y008175D03*
X015291Y008175D03*
X015281Y008175D03*
X015271Y008175D03*
X015261Y008175D03*
X015251Y008175D03*
X015241Y008175D03*
X015231Y008175D03*
X015221Y008175D03*
X015211Y008175D03*
X015201Y008175D03*
X015191Y008175D03*
X015181Y008175D03*
X015171Y008175D03*
X015161Y008175D03*
X015151Y008175D03*
X015141Y008175D03*
X015131Y008175D03*
X015121Y008175D03*
X015111Y008175D03*
X015101Y008175D03*
X015091Y008175D03*
X015081Y008175D03*
X015071Y008175D03*
X015061Y008175D03*
X015051Y008175D03*
X015041Y008175D03*
X015031Y008175D03*
X015021Y008175D03*
X015011Y008175D03*
X015001Y008175D03*
X014991Y008175D03*
X014981Y008175D03*
X014971Y008175D03*
X014961Y008175D03*
X014951Y008175D03*
X014941Y008175D03*
X014931Y008175D03*
X014921Y008175D03*
X014911Y008175D03*
X014901Y008175D03*
X014891Y008175D03*
X014881Y008175D03*
X014871Y008175D03*
X014861Y008175D03*
X014851Y008175D03*
X014841Y008175D03*
X014831Y008175D03*
X014821Y008175D03*
X014811Y008175D03*
X014801Y008175D03*
X014791Y008175D03*
X014781Y008175D03*
X014771Y008175D03*
X014761Y008175D03*
X014751Y008175D03*
X014741Y008175D03*
X014731Y008175D03*
X014721Y008175D03*
X010220Y003225D03*
X010280Y001305D03*
D19*
X010040Y001415D03*
X010730Y009365D03*
X015831Y014225D03*
X014651Y015785D03*
X014391Y018995D03*
X014371Y019025D03*
X014361Y019035D03*
X014331Y019065D03*
X014321Y019075D03*
X014311Y019085D03*
X015611Y020115D03*
X016341Y020155D03*
X014641Y024105D03*
D20*
X014311Y021140D03*
D21*
X014311Y024115D03*
X014351Y015975D03*
X012310Y009765D03*
X012310Y008965D03*
X011280Y007975D03*
X011190Y007275D03*
X010850Y005585D03*
X010850Y004805D03*
X012310Y005585D03*
X012090Y003445D03*
X010340Y003435D03*
X010340Y002015D03*
X012090Y002015D03*
X010160Y009285D03*
X010670Y009365D03*
D22*
X014321Y007035D03*
X015251Y010115D03*
X015261Y010115D03*
X015271Y010115D03*
X015281Y010115D03*
X015931Y010115D03*
X015941Y010115D03*
X015951Y010115D03*
D23*
X012290Y009805D03*
X011270Y009585D03*
X011270Y009155D03*
X010880Y009815D03*
X010150Y009295D03*
X012290Y008925D03*
X012290Y007715D03*
X011980Y007295D03*
X011950Y006585D03*
X010880Y005645D03*
X012290Y004755D03*
X012000Y003545D03*
X012010Y003535D03*
X012020Y003525D03*
X010430Y003545D03*
X011570Y002385D03*
X012000Y001915D03*
X010450Y001895D03*
X010440Y001905D03*
X010430Y001915D03*
X010420Y001925D03*
X010410Y001935D03*
X011260Y007995D03*
X016161Y014015D03*
X014321Y015995D03*
D24*
X014321Y021140D03*
X015291Y010120D03*
X015301Y010120D03*
X015311Y010120D03*
X015321Y010120D03*
X015331Y010120D03*
X015341Y010120D03*
X015351Y010120D03*
X015841Y010120D03*
X015851Y010120D03*
X015861Y010120D03*
X015871Y010120D03*
X015881Y010120D03*
X015891Y010120D03*
X015901Y010120D03*
X015911Y010120D03*
X015921Y010120D03*
D25*
X012320Y009735D03*
X012320Y008995D03*
X011110Y009365D03*
X012320Y006905D03*
X011870Y005195D03*
X012120Y003405D03*
X012130Y003385D03*
X012130Y002065D03*
X010310Y002055D03*
X010310Y003395D03*
X014371Y015965D03*
X014321Y024115D03*
D26*
X014331Y021140D03*
X014331Y007040D03*
D27*
X012300Y006860D03*
X012290Y006840D03*
X012300Y007700D03*
X010870Y007710D03*
X010870Y006850D03*
X010870Y005630D03*
X009640Y005170D03*
X010870Y004760D03*
X010420Y003530D03*
X010410Y003520D03*
X010400Y003510D03*
X010860Y003100D03*
X011570Y003110D03*
X012030Y003510D03*
X012040Y003500D03*
X012050Y003490D03*
X010860Y002380D03*
X010400Y001940D03*
X012010Y001920D03*
X012020Y001930D03*
X012030Y001940D03*
X012040Y001950D03*
X012290Y005630D03*
X010870Y008940D03*
X009950Y009220D03*
X011100Y009360D03*
X011690Y009060D03*
X012040Y009370D03*
X011870Y009580D03*
X014331Y015990D03*
D28*
X016111Y014050D03*
X012490Y009360D03*
X012030Y009370D03*
X010840Y009010D03*
X011290Y007970D03*
X012320Y007650D03*
X012490Y007280D03*
X011920Y006610D03*
X012320Y005560D03*
X012320Y004830D03*
X010840Y004830D03*
X010670Y005190D03*
X010840Y005560D03*
X010300Y003380D03*
X010300Y002070D03*
X012140Y002080D03*
X012140Y003370D03*
X015621Y021020D03*
X015641Y021050D03*
X015651Y021070D03*
X014331Y024110D03*
D29*
X014341Y021140D03*
X015231Y017920D03*
X014341Y007040D03*
D30*
X012310Y006880D03*
X012310Y007680D03*
X010860Y007690D03*
X010860Y006870D03*
X010860Y008960D03*
X011700Y009060D03*
X011710Y009060D03*
X012310Y004800D03*
X010860Y004780D03*
X010360Y003460D03*
X010350Y003450D03*
X012080Y003450D03*
X012080Y002000D03*
X010360Y001990D03*
X010350Y002000D03*
X016131Y014030D03*
X016141Y014030D03*
X014341Y015980D03*
D31*
X014661Y015780D03*
X014351Y019040D03*
X014341Y019050D03*
X016161Y022160D03*
X014651Y024110D03*
X010730Y007280D03*
X010730Y005190D03*
X012430Y005190D03*
X010030Y001420D03*
D32*
X014351Y007040D03*
X015271Y017950D03*
X014351Y021140D03*
D33*
X014361Y021140D03*
X015291Y017960D03*
X014361Y007040D03*
X016531Y007040D03*
D34*
X012490Y005190D03*
X011930Y006600D03*
X011970Y007300D03*
X010850Y007660D03*
X010670Y007280D03*
X010850Y006900D03*
X009630Y005150D03*
X010330Y003420D03*
X010320Y003410D03*
X010870Y003100D03*
X011560Y003110D03*
X012100Y003430D03*
X012110Y003420D03*
X011560Y002390D03*
X012110Y002040D03*
X012120Y002050D03*
X012100Y002020D03*
X010870Y002380D03*
X010330Y002030D03*
X010320Y002040D03*
X010850Y008980D03*
X009960Y009200D03*
X010850Y009750D03*
X016121Y014040D03*
X014361Y015970D03*
D35*
X014401Y015945D03*
X016081Y014065D03*
X015741Y010965D03*
X015731Y010965D03*
X015721Y010965D03*
X015711Y010965D03*
X015701Y010965D03*
X015691Y010965D03*
X015681Y010965D03*
X015671Y010965D03*
X015661Y010965D03*
X015651Y010965D03*
X015641Y010965D03*
X015631Y010965D03*
X015621Y010965D03*
X015611Y010965D03*
X015601Y010965D03*
X015591Y010965D03*
X015581Y010965D03*
X015571Y010965D03*
X015561Y010965D03*
X015551Y010965D03*
X015541Y010965D03*
X015531Y010965D03*
X015521Y010965D03*
X015511Y010965D03*
X015501Y010965D03*
X015491Y010965D03*
X015481Y010965D03*
X015471Y010965D03*
X015461Y010965D03*
X015451Y010965D03*
X012330Y009705D03*
X011120Y009365D03*
X011300Y007955D03*
X012330Y007615D03*
X010270Y003335D03*
X010270Y002115D03*
X015671Y021105D03*
X014361Y024115D03*
D36*
X015351Y017980D03*
X015361Y017980D03*
X016371Y017980D03*
X016381Y017980D03*
X016521Y007040D03*
X014371Y007040D03*
D37*
X015371Y017985D03*
X016361Y017985D03*
X014371Y021145D03*
D38*
X015591Y020970D03*
X014371Y024110D03*
X014411Y015940D03*
X015421Y010960D03*
X015431Y010960D03*
X015441Y010960D03*
X015751Y010960D03*
X015761Y010960D03*
X015771Y010960D03*
X012330Y009030D03*
X012020Y009370D03*
X009980Y009180D03*
X012330Y006940D03*
X011910Y006620D03*
X012330Y005520D03*
X010830Y005520D03*
X012170Y003320D03*
X010890Y003100D03*
X009980Y002720D03*
X010890Y002380D03*
X010260Y002140D03*
X010420Y001260D03*
X012170Y002130D03*
D39*
X014381Y007040D03*
X016511Y007040D03*
X016301Y018000D03*
X016291Y018000D03*
X016281Y018000D03*
X016271Y018000D03*
X016261Y018000D03*
X015471Y018000D03*
X015461Y018000D03*
X015451Y018000D03*
X015441Y018000D03*
X015431Y018000D03*
X014381Y021140D03*
D40*
X015611Y021005D03*
X015631Y021035D03*
X015661Y021085D03*
X014381Y015955D03*
X016101Y014055D03*
X010840Y009725D03*
X010840Y007635D03*
X010840Y006925D03*
X010290Y003365D03*
X011550Y003105D03*
X012150Y003355D03*
X011550Y002385D03*
X012150Y002095D03*
X010290Y002085D03*
D41*
X010050Y001410D03*
X011260Y009370D03*
X011880Y009380D03*
X015841Y014220D03*
X014451Y018930D03*
X014441Y018940D03*
X014431Y018950D03*
X014421Y018960D03*
X014411Y018970D03*
X014401Y018980D03*
X014381Y019010D03*
X014631Y024110D03*
D42*
X014391Y024110D03*
X014381Y024110D03*
X016381Y022250D03*
X014421Y015930D03*
X016061Y014080D03*
X015831Y011730D03*
X015821Y011730D03*
X015811Y011730D03*
X015801Y011730D03*
X015791Y011730D03*
X015781Y011730D03*
X015771Y011730D03*
X015761Y011730D03*
X015751Y011730D03*
X015741Y011730D03*
X015731Y011730D03*
X015721Y011730D03*
X015711Y011730D03*
X015701Y011730D03*
X015691Y011730D03*
X015681Y011730D03*
X015671Y011730D03*
X015661Y011730D03*
X015651Y011730D03*
X015641Y011730D03*
X015631Y011730D03*
X015621Y011730D03*
X015611Y011730D03*
X015601Y011730D03*
X015591Y011730D03*
X015581Y011730D03*
X015571Y011730D03*
X015561Y011730D03*
X015551Y011730D03*
X015541Y011730D03*
X015531Y011730D03*
X015521Y011730D03*
X015511Y011730D03*
X015501Y011730D03*
X015491Y011730D03*
X015481Y011730D03*
X015471Y011730D03*
X015461Y011730D03*
X015451Y011730D03*
X015441Y011730D03*
X014661Y011730D03*
X015401Y010950D03*
X015791Y010950D03*
X015791Y009290D03*
X015781Y009290D03*
X015771Y009290D03*
X015761Y009290D03*
X015751Y009290D03*
X015741Y009290D03*
X015731Y009290D03*
X015721Y009290D03*
X015711Y009290D03*
X015701Y009290D03*
X015691Y009290D03*
X015681Y009290D03*
X015671Y009290D03*
X015661Y009290D03*
X015651Y009290D03*
X015641Y009290D03*
X015631Y009290D03*
X015621Y009290D03*
X015611Y009290D03*
X015601Y009290D03*
X015591Y009290D03*
X015581Y009290D03*
X015571Y009290D03*
X015561Y009290D03*
X015551Y009290D03*
X015541Y009290D03*
X015531Y009290D03*
X015521Y009290D03*
X015511Y009290D03*
X015501Y009290D03*
X015491Y009290D03*
X015481Y009290D03*
X015471Y009290D03*
X015461Y009290D03*
X015451Y009290D03*
X015441Y009290D03*
X015431Y009290D03*
X015421Y009290D03*
X015411Y009290D03*
X015401Y009290D03*
X015391Y009290D03*
X015381Y009290D03*
X015371Y009290D03*
X015361Y009290D03*
X015021Y009290D03*
X015011Y009290D03*
X015001Y009290D03*
X014991Y009290D03*
X014981Y009290D03*
X014971Y009290D03*
X014961Y009290D03*
X014951Y009290D03*
X014941Y009290D03*
X014931Y009290D03*
X014921Y009290D03*
X014911Y009290D03*
X014901Y009290D03*
X014891Y009290D03*
X014881Y009290D03*
X014871Y009290D03*
X014861Y009290D03*
X014851Y009290D03*
X014841Y009290D03*
X014831Y009290D03*
X014821Y009290D03*
X014811Y009290D03*
X014801Y009290D03*
X014791Y009290D03*
X014781Y009290D03*
X014771Y009290D03*
X014761Y009290D03*
X014751Y009290D03*
X014741Y009290D03*
X014731Y009290D03*
X014721Y009290D03*
X014711Y009290D03*
X014701Y009290D03*
X014691Y009290D03*
X014681Y009290D03*
X014671Y009290D03*
X014661Y009290D03*
X015801Y009290D03*
X015811Y009290D03*
X015821Y009290D03*
X015831Y009290D03*
X011580Y007350D03*
X011570Y007370D03*
X011560Y007390D03*
X011550Y007410D03*
X011540Y007440D03*
X011530Y007460D03*
X011520Y007480D03*
X011510Y007500D03*
X011490Y007550D03*
X011480Y007570D03*
X011470Y007590D03*
X011460Y007610D03*
X011600Y007300D03*
X011610Y007280D03*
X011620Y007260D03*
X011640Y007210D03*
X011650Y007190D03*
X011660Y007170D03*
X011680Y007120D03*
X011690Y007100D03*
X011700Y007080D03*
X011720Y007030D03*
X011730Y007010D03*
X011740Y006990D03*
X011900Y006630D03*
X010680Y007280D03*
X010830Y009050D03*
X009990Y009170D03*
X010830Y009680D03*
X012480Y005190D03*
X012180Y003300D03*
X012180Y002150D03*
X010390Y001270D03*
X010250Y002160D03*
X010250Y003290D03*
D43*
X014391Y007040D03*
X014391Y021140D03*
D44*
X014401Y021140D03*
X014401Y007040D03*
X016491Y007040D03*
D45*
X012480Y007280D03*
X011940Y007300D03*
X011760Y006950D03*
X011890Y006640D03*
X011320Y007940D03*
X011850Y005190D03*
X010680Y005190D03*
X010240Y003270D03*
X010900Y002380D03*
X012200Y003260D03*
X010360Y001280D03*
X010350Y001280D03*
X015391Y010940D03*
X015811Y010940D03*
X016041Y014090D03*
X015581Y020940D03*
X016361Y022250D03*
X016371Y022250D03*
X014411Y024110D03*
X014401Y024110D03*
D46*
X014411Y007045D03*
D47*
X016481Y007040D03*
X014411Y021140D03*
D48*
X014421Y021135D03*
X014421Y007045D03*
D49*
X011770Y006940D03*
X011440Y007640D03*
X011330Y007930D03*
X012000Y009370D03*
X015821Y010930D03*
X016031Y014100D03*
X016341Y022250D03*
X014421Y024110D03*
X014951Y024400D03*
X014971Y024410D03*
X014991Y024420D03*
X015011Y024430D03*
X015031Y024440D03*
X015041Y024450D03*
X015081Y024470D03*
X015191Y024530D03*
X015211Y024540D03*
X011830Y005190D03*
X011820Y005190D03*
X011430Y005190D03*
X010230Y003250D03*
X010910Y002380D03*
X010230Y002200D03*
X010320Y001290D03*
X010330Y001290D03*
X011520Y003110D03*
D50*
X014431Y007045D03*
X014431Y021135D03*
D51*
X014431Y015925D03*
X016051Y014085D03*
X015801Y010945D03*
X012010Y009375D03*
X011130Y009365D03*
X010830Y007595D03*
X010830Y006965D03*
X011590Y007325D03*
X011630Y007235D03*
X011670Y007145D03*
X011710Y007055D03*
X011750Y006965D03*
X011500Y007525D03*
X012190Y003285D03*
X011530Y003105D03*
X010900Y003105D03*
X011530Y002385D03*
X012190Y002165D03*
X010380Y001275D03*
X010370Y001275D03*
X010240Y002175D03*
D52*
X010310Y001295D03*
X011510Y002385D03*
X012210Y003235D03*
X011810Y005195D03*
X011800Y005195D03*
X011790Y005195D03*
X011780Y005195D03*
X011770Y005195D03*
X011760Y005195D03*
X011750Y005195D03*
X011740Y005195D03*
X011730Y005195D03*
X011720Y005195D03*
X011710Y005195D03*
X011700Y005195D03*
X011690Y005195D03*
X011680Y005195D03*
X011670Y005195D03*
X011660Y005195D03*
X011650Y005195D03*
X011640Y005195D03*
X011630Y005195D03*
X011620Y005195D03*
X011610Y005195D03*
X011600Y005195D03*
X011590Y005195D03*
X011580Y005195D03*
X011570Y005195D03*
X011560Y005195D03*
X011550Y005195D03*
X011540Y005195D03*
X011530Y005195D03*
X011520Y005195D03*
X011510Y005195D03*
X011500Y005195D03*
X011490Y005195D03*
X011480Y005195D03*
X011470Y005195D03*
X011460Y005195D03*
X011450Y005195D03*
X011440Y005195D03*
X011880Y006645D03*
X011930Y007305D03*
X011230Y007265D03*
X011140Y009365D03*
X015371Y010925D03*
X016021Y014105D03*
X014461Y015905D03*
X016331Y022245D03*
X014431Y024115D03*
X014941Y024395D03*
X014961Y024405D03*
X014981Y024415D03*
X015001Y024425D03*
X015021Y024435D03*
X015051Y024455D03*
X015061Y024465D03*
X015071Y024465D03*
X015091Y024475D03*
X015101Y024485D03*
X015111Y024485D03*
X015121Y024495D03*
X015131Y024495D03*
X015141Y024505D03*
X015151Y024505D03*
X015161Y024515D03*
X015171Y024515D03*
X015181Y024525D03*
X015201Y024535D03*
X015221Y024545D03*
X015231Y024555D03*
X015241Y024555D03*
X015251Y024565D03*
X015261Y024565D03*
X015271Y024575D03*
X015281Y024575D03*
X015291Y024585D03*
X015311Y024595D03*
X015331Y024605D03*
X015351Y024615D03*
X015361Y024625D03*
X015381Y024635D03*
X015401Y024645D03*
X015411Y024655D03*
X015421Y024655D03*
X015441Y024665D03*
X015461Y024675D03*
X015481Y024685D03*
X015491Y024695D03*
X015501Y024695D03*
X015511Y024705D03*
X015521Y024705D03*
X015531Y024715D03*
X015551Y024725D03*
X015561Y024735D03*
X015581Y024745D03*
X015601Y024755D03*
X015641Y024775D03*
X015661Y024785D03*
X015671Y024795D03*
X015681Y024795D03*
X015691Y024805D03*
X015711Y024815D03*
X015731Y024825D03*
X015751Y024835D03*
X015771Y024845D03*
X015791Y024855D03*
X015811Y024865D03*
X015831Y024875D03*
X015841Y024885D03*
X015851Y024885D03*
X015861Y024895D03*
X015901Y024915D03*
X016121Y025035D03*
X016191Y025075D03*
X016211Y025085D03*
X016251Y025105D03*
X016271Y025115D03*
X016321Y025145D03*
X016331Y025145D03*
D53*
X014441Y021145D03*
X014441Y007035D03*
D54*
X011840Y005195D03*
X011220Y007265D03*
X011450Y007625D03*
X012480Y009365D03*
X015381Y010935D03*
X014451Y015915D03*
X014441Y015915D03*
X016351Y022245D03*
X010910Y003105D03*
X011520Y002385D03*
X012200Y002185D03*
X010340Y001285D03*
D55*
X010300Y001300D03*
X010290Y001300D03*
X010220Y002230D03*
X010920Y002380D03*
X010920Y003100D03*
X011510Y003110D03*
X012210Y002220D03*
X011780Y006930D03*
X011850Y007260D03*
X011430Y007650D03*
X011340Y007920D03*
X016011Y014110D03*
X014471Y015900D03*
X015721Y018980D03*
X015731Y018980D03*
X015741Y018980D03*
X015751Y018980D03*
X015761Y018980D03*
X015771Y018980D03*
X015781Y018980D03*
X015791Y018980D03*
X015801Y018980D03*
X015811Y018980D03*
X015821Y018980D03*
X015831Y018980D03*
X015841Y018980D03*
X015851Y018980D03*
X015861Y018980D03*
X015871Y018980D03*
X015881Y018980D03*
X015891Y018980D03*
X015901Y018980D03*
X015911Y018980D03*
X015921Y018980D03*
X015931Y018980D03*
X015941Y018980D03*
X015951Y018980D03*
X015961Y018980D03*
X015971Y018980D03*
X015981Y018980D03*
X015991Y018980D03*
X016001Y018980D03*
X016011Y018980D03*
X016021Y018980D03*
X016031Y018980D03*
X016041Y018980D03*
X016031Y020000D03*
X016021Y020000D03*
X016011Y020000D03*
X016001Y020000D03*
X015991Y020000D03*
X015981Y020000D03*
X015971Y020000D03*
X015961Y020000D03*
X015951Y020000D03*
X015941Y020000D03*
X015931Y020000D03*
X015921Y020000D03*
X015911Y020000D03*
X015901Y020000D03*
X016321Y022250D03*
X014441Y024110D03*
X015301Y024590D03*
X015321Y024600D03*
X015341Y024610D03*
X015371Y024630D03*
X015391Y024640D03*
X015431Y024660D03*
X015451Y024670D03*
X015471Y024680D03*
X015541Y024720D03*
X015571Y024740D03*
X015591Y024750D03*
X015611Y024760D03*
X015621Y024760D03*
X015631Y024770D03*
X015651Y024780D03*
X015701Y024810D03*
X015721Y024820D03*
X015741Y024830D03*
X015761Y024840D03*
X015781Y024850D03*
X015801Y024860D03*
X015821Y024870D03*
X015871Y024900D03*
X015881Y024910D03*
X015891Y024910D03*
X015911Y024920D03*
X015921Y024930D03*
X015931Y024930D03*
X015941Y024940D03*
X015951Y024940D03*
X015961Y024950D03*
X015971Y024950D03*
X015981Y024960D03*
X015991Y024960D03*
X016001Y024970D03*
X016011Y024980D03*
X016021Y024980D03*
X016031Y024990D03*
X016041Y024990D03*
X016051Y025000D03*
X016061Y025000D03*
X016071Y025010D03*
X016081Y025010D03*
X016091Y025020D03*
X016101Y025020D03*
X016111Y025030D03*
X016131Y025040D03*
X016141Y025040D03*
X016151Y025050D03*
X016161Y025050D03*
X016171Y025060D03*
X016181Y025070D03*
X016201Y025080D03*
X016221Y025090D03*
X016241Y025100D03*
X016261Y025110D03*
X016281Y025120D03*
X016291Y025130D03*
X016301Y025130D03*
X016311Y025140D03*
X016341Y025160D03*
X016351Y025160D03*
X016361Y025170D03*
X016371Y025170D03*
X016381Y025180D03*
X016391Y025180D03*
X016401Y025190D03*
D56*
X014451Y021140D03*
X014451Y007040D03*
X016441Y007040D03*
D57*
X016431Y007040D03*
X014461Y007040D03*
X014461Y021140D03*
D58*
X016171Y022175D03*
X014621Y024105D03*
X015621Y020105D03*
X014461Y018915D03*
X014471Y018905D03*
X014481Y018895D03*
X014491Y018885D03*
X014511Y018855D03*
X014521Y018845D03*
X014531Y018835D03*
X014641Y015795D03*
X012440Y009365D03*
X011890Y009375D03*
X011250Y009375D03*
X012440Y007275D03*
X010060Y001405D03*
D59*
X010270Y001310D03*
X010930Y002380D03*
X011500Y002390D03*
X012440Y002720D03*
X011500Y003110D03*
X010930Y003100D03*
X012470Y005190D03*
X014761Y005900D03*
X014771Y005900D03*
X014781Y005900D03*
X014791Y005900D03*
X014801Y005900D03*
X014811Y005900D03*
X014821Y005900D03*
X014831Y005900D03*
X014841Y005900D03*
X014851Y005900D03*
X014861Y005900D03*
X014871Y005900D03*
X014881Y005900D03*
X014891Y005900D03*
X014901Y005900D03*
X014911Y005900D03*
X014921Y005900D03*
X014931Y005900D03*
X014941Y005900D03*
X014951Y005900D03*
X014961Y005900D03*
X014971Y005900D03*
X014981Y005900D03*
X014991Y005900D03*
X015001Y005900D03*
X015011Y005900D03*
X015021Y005900D03*
X015031Y005900D03*
X015041Y005900D03*
X015051Y005900D03*
X015061Y005900D03*
X015071Y005900D03*
X015081Y005900D03*
X015091Y005900D03*
X015101Y005900D03*
X015111Y005900D03*
X015121Y005900D03*
X015131Y005900D03*
X015141Y005900D03*
X015151Y005900D03*
X015161Y005900D03*
X015171Y005900D03*
X015181Y005900D03*
X015191Y005900D03*
X015201Y005900D03*
X015211Y005900D03*
X015221Y005900D03*
X015231Y005900D03*
X015241Y005900D03*
X015251Y005900D03*
X015261Y005900D03*
X015271Y005900D03*
X015281Y005900D03*
X015291Y005900D03*
X015301Y005900D03*
X015311Y005900D03*
X015321Y005900D03*
X015331Y005900D03*
X015341Y005900D03*
X015351Y005900D03*
X015361Y005900D03*
X015371Y005900D03*
X015381Y005900D03*
X015391Y005900D03*
X015401Y005900D03*
X015411Y005900D03*
X015421Y005900D03*
X015431Y005900D03*
X015441Y005900D03*
X015451Y005900D03*
X015461Y005900D03*
X015471Y005900D03*
X015481Y005900D03*
X015491Y005900D03*
X015501Y005900D03*
X015511Y005900D03*
X015521Y005900D03*
X015531Y005900D03*
X015541Y005900D03*
X015551Y005900D03*
X015561Y005900D03*
X015571Y005900D03*
X015581Y005900D03*
X015591Y005900D03*
X015601Y005900D03*
X015611Y005900D03*
X015621Y005900D03*
X015631Y005900D03*
X015641Y005900D03*
X015651Y005900D03*
X015661Y005900D03*
X015671Y005900D03*
X015681Y005900D03*
X015691Y005900D03*
X015701Y005900D03*
X015711Y005900D03*
X015721Y005900D03*
X015731Y005900D03*
X015741Y005900D03*
X015751Y005900D03*
X015761Y005900D03*
X015771Y005900D03*
X015781Y005900D03*
X015791Y005900D03*
X015801Y005900D03*
X015811Y005900D03*
X015821Y005900D03*
X015831Y005900D03*
X015841Y005900D03*
X015851Y005900D03*
X015861Y005900D03*
X015871Y005900D03*
X015881Y005900D03*
X015891Y005900D03*
X015901Y005900D03*
X015911Y005900D03*
X015921Y005900D03*
X015931Y005900D03*
X015941Y005900D03*
X015951Y005900D03*
X015961Y005900D03*
X015971Y005900D03*
X015981Y005900D03*
X015991Y005900D03*
X016001Y005900D03*
X016011Y005900D03*
X016021Y005900D03*
X016031Y005900D03*
X016041Y005900D03*
X016051Y005900D03*
X016061Y005900D03*
X016071Y005900D03*
X016081Y005900D03*
X016091Y005900D03*
X016101Y005900D03*
X016111Y005900D03*
X016121Y005900D03*
X016131Y005900D03*
X016141Y005900D03*
X011900Y007300D03*
X011890Y007290D03*
X011880Y007280D03*
X011790Y006920D03*
X011240Y007260D03*
X010690Y007280D03*
X015631Y018970D03*
X015641Y018970D03*
X015651Y018970D03*
X016101Y018970D03*
X016111Y018970D03*
X016111Y020010D03*
X016101Y020010D03*
X016091Y020010D03*
X015851Y020010D03*
X015841Y020010D03*
X015831Y020010D03*
X016281Y021150D03*
X016271Y021160D03*
X016261Y021170D03*
X016251Y021180D03*
X016241Y021190D03*
X016231Y021200D03*
X016291Y022240D03*
X014461Y024110D03*
D60*
X014481Y021140D03*
X014481Y007040D03*
X014471Y007040D03*
X016411Y007040D03*
X016421Y007040D03*
D61*
X014471Y021145D03*
D62*
X016291Y021140D03*
X016281Y022240D03*
X014471Y024110D03*
X015781Y020020D03*
X015791Y020020D03*
X015801Y020020D03*
X016141Y020020D03*
X016151Y020020D03*
X015611Y018960D03*
X014501Y015880D03*
X015981Y014130D03*
X015361Y010900D03*
X011980Y009370D03*
X011160Y009370D03*
X011410Y007680D03*
X011250Y007260D03*
X011860Y006670D03*
X012470Y007280D03*
X010690Y005190D03*
X010210Y003190D03*
X010940Y003100D03*
X011490Y003110D03*
X010940Y002380D03*
X010240Y001320D03*
D63*
X010230Y001325D03*
X011480Y002385D03*
X011480Y003105D03*
X010950Y003105D03*
X012470Y009365D03*
X015971Y014135D03*
X014511Y015875D03*
X016141Y018955D03*
X016151Y018955D03*
X016161Y020025D03*
X016171Y020025D03*
X016181Y020035D03*
X016191Y020035D03*
X015771Y020025D03*
X015761Y020025D03*
X016301Y021125D03*
X016191Y021245D03*
X016271Y022235D03*
X015021Y023805D03*
X014481Y024105D03*
D64*
X014491Y021140D03*
X014501Y021140D03*
X014491Y007040D03*
X016391Y007040D03*
X016401Y007040D03*
D65*
X011910Y007305D03*
X011350Y007905D03*
X012220Y003205D03*
X012220Y002245D03*
X011490Y002385D03*
X010210Y002255D03*
X009990Y002725D03*
X010250Y001315D03*
X010260Y001315D03*
X015991Y014125D03*
X014491Y015885D03*
X015621Y018965D03*
X016121Y018965D03*
X016131Y018965D03*
X016131Y020015D03*
X016121Y020015D03*
X015821Y020015D03*
X015811Y020015D03*
X016221Y021205D03*
X016211Y021215D03*
X016201Y021235D03*
D66*
X016181Y021260D03*
X016311Y021110D03*
X016201Y020040D03*
X015751Y020030D03*
X015601Y018960D03*
X016161Y018950D03*
X015821Y023350D03*
X015801Y023360D03*
X015661Y023440D03*
X015641Y023450D03*
X015521Y023520D03*
X015501Y023530D03*
X015481Y023540D03*
X015451Y023560D03*
X015411Y023580D03*
X015361Y023610D03*
X015351Y023620D03*
X015341Y023620D03*
X015311Y023640D03*
X015291Y023650D03*
X015261Y023670D03*
X015231Y023680D03*
X015221Y023690D03*
X015211Y023700D03*
X015201Y023700D03*
X015191Y023710D03*
X015181Y023710D03*
X015171Y023720D03*
X015151Y023730D03*
X015131Y023740D03*
X015121Y023750D03*
X015111Y023750D03*
X015101Y023760D03*
X015081Y023770D03*
X015061Y023780D03*
X015051Y023790D03*
X015041Y023790D03*
X015031Y023800D03*
X015011Y023810D03*
X015001Y023820D03*
X014991Y023820D03*
X014981Y023830D03*
X014971Y023830D03*
X014961Y023840D03*
X014951Y023840D03*
X014941Y023850D03*
X014491Y024110D03*
X015961Y014140D03*
X011970Y009370D03*
X011360Y007900D03*
X011400Y007690D03*
X011260Y007260D03*
X011800Y006910D03*
X010950Y002380D03*
X010220Y001330D03*
D67*
X014501Y007045D03*
D68*
X012440Y005190D03*
X010720Y005190D03*
X010070Y001400D03*
X011240Y009370D03*
X015851Y014210D03*
X014631Y015800D03*
X014581Y018780D03*
X014571Y018790D03*
X014561Y018800D03*
X014551Y018810D03*
X014541Y018830D03*
X014501Y018870D03*
X014611Y024110D03*
D69*
X014501Y024105D03*
X015071Y023775D03*
X015091Y023765D03*
X015141Y023735D03*
X015161Y023725D03*
X015241Y023675D03*
X015251Y023675D03*
X015271Y023665D03*
X015281Y023655D03*
X015301Y023645D03*
X015321Y023635D03*
X015331Y023625D03*
X015371Y023605D03*
X015381Y023595D03*
X015391Y023595D03*
X015401Y023585D03*
X015421Y023575D03*
X015431Y023575D03*
X015441Y023565D03*
X015461Y023555D03*
X015471Y023545D03*
X015491Y023535D03*
X015511Y023525D03*
X015531Y023515D03*
X015541Y023505D03*
X015551Y023505D03*
X015561Y023495D03*
X015581Y023485D03*
X015591Y023475D03*
X015601Y023475D03*
X015611Y023465D03*
X015621Y023465D03*
X015631Y023455D03*
X015651Y023445D03*
X015671Y023435D03*
X015681Y023425D03*
X015701Y023415D03*
X015711Y023415D03*
X015721Y023405D03*
X015741Y023395D03*
X015751Y023385D03*
X015761Y023385D03*
X015771Y023375D03*
X015781Y023375D03*
X015791Y023365D03*
X015811Y023355D03*
X015831Y023345D03*
X015841Y023335D03*
X015861Y023325D03*
X015871Y023315D03*
X015881Y023315D03*
X015901Y023305D03*
X015911Y023295D03*
X015921Y023295D03*
X015931Y023285D03*
X015951Y023275D03*
X015961Y023265D03*
X015971Y023265D03*
X015981Y023255D03*
X016001Y023245D03*
X016021Y023235D03*
X016031Y023225D03*
X016041Y023225D03*
X016061Y023215D03*
X016071Y023205D03*
X016091Y023195D03*
X016101Y023185D03*
X016111Y023185D03*
X016121Y023175D03*
X016131Y023175D03*
X016141Y023165D03*
X016161Y023155D03*
X016181Y023145D03*
X016191Y023135D03*
X016211Y023125D03*
X016231Y023115D03*
X016251Y023105D03*
X016261Y023095D03*
X016271Y023095D03*
X016281Y023085D03*
X016301Y023075D03*
X016311Y023065D03*
X016341Y023055D03*
X016351Y023045D03*
X016371Y023035D03*
X016391Y023025D03*
X016401Y023015D03*
X016261Y022235D03*
X016251Y022235D03*
X016171Y021275D03*
X016321Y021105D03*
X016211Y020045D03*
X015741Y020035D03*
X015731Y020035D03*
X015591Y018955D03*
X014521Y015865D03*
X011170Y009365D03*
X010700Y009365D03*
X011850Y006675D03*
X012230Y003165D03*
X011470Y003105D03*
X010960Y003105D03*
X010960Y002375D03*
X011470Y002385D03*
X010210Y001335D03*
X010200Y001335D03*
D70*
X014511Y007040D03*
X016371Y007040D03*
X016381Y007040D03*
X014521Y021140D03*
X014511Y021140D03*
D71*
X016331Y021090D03*
X016221Y020050D03*
X016171Y018940D03*
X015581Y018950D03*
X014541Y015860D03*
X014531Y015860D03*
X015951Y014150D03*
X011390Y007700D03*
X011310Y007280D03*
X011300Y007280D03*
X011290Y007270D03*
X010700Y007280D03*
X011810Y006900D03*
X012460Y005190D03*
X012230Y002280D03*
X010970Y002380D03*
X010190Y001340D03*
X016241Y022230D03*
X016381Y023030D03*
X016361Y023040D03*
X016331Y023060D03*
X016321Y023060D03*
X016291Y023080D03*
X016241Y023110D03*
X016221Y023120D03*
X016201Y023130D03*
X016171Y023150D03*
X016151Y023160D03*
X016081Y023200D03*
X016051Y023220D03*
X016011Y023240D03*
X015991Y023250D03*
X015941Y023280D03*
X015891Y023310D03*
X015851Y023330D03*
X015731Y023400D03*
X015691Y023420D03*
X015571Y023490D03*
X014511Y024110D03*
D72*
X014521Y007045D03*
D73*
X012460Y007280D03*
X012460Y009360D03*
X015931Y014160D03*
X014551Y015850D03*
X015571Y018940D03*
X016181Y018930D03*
X016241Y020060D03*
X016251Y020070D03*
X015711Y020050D03*
X015701Y020050D03*
X016341Y021070D03*
X016161Y021290D03*
X016231Y022220D03*
X014531Y024110D03*
X014521Y024110D03*
X011450Y003110D03*
X010980Y003100D03*
X010980Y002380D03*
X011450Y002380D03*
X012430Y002720D03*
X010200Y003150D03*
X010170Y001350D03*
D74*
X014531Y007040D03*
X014541Y007040D03*
X016351Y007040D03*
X016361Y007040D03*
X014541Y021140D03*
X014531Y021140D03*
D75*
X016221Y022215D03*
X014541Y024105D03*
X015691Y020055D03*
X016261Y020075D03*
X015101Y018185D03*
X015131Y018145D03*
X015141Y018135D03*
X015151Y018125D03*
X015161Y018115D03*
X014561Y015845D03*
X011950Y009375D03*
X011190Y009365D03*
X011820Y006895D03*
X011440Y003105D03*
X010990Y003105D03*
X011440Y002385D03*
X010000Y002725D03*
X010160Y001355D03*
D76*
X014551Y007045D03*
X016341Y007045D03*
D77*
X012380Y005195D03*
X010780Y005195D03*
X010110Y004205D03*
X012380Y002725D03*
X009890Y001515D03*
X010780Y009365D03*
X009840Y010175D03*
X009830Y010175D03*
X009820Y010175D03*
X015671Y014325D03*
X014811Y015685D03*
X014551Y020255D03*
X015091Y022075D03*
X015631Y022075D03*
X014821Y024105D03*
D78*
X014931Y021710D03*
X014551Y021660D03*
D79*
X016211Y022210D03*
X014551Y024110D03*
X015681Y020060D03*
X016271Y020080D03*
X015561Y018920D03*
X015031Y018260D03*
X015041Y018250D03*
X015051Y018240D03*
X015061Y018230D03*
X015071Y018220D03*
X015081Y018210D03*
X015091Y018200D03*
X015111Y018170D03*
X015121Y018160D03*
X015921Y014170D03*
X010990Y002380D03*
X010150Y001360D03*
D80*
X014561Y007040D03*
X014571Y007040D03*
X016311Y007040D03*
X016321Y007040D03*
X016331Y007040D03*
D81*
X012390Y007275D03*
X012390Y009365D03*
X009780Y010185D03*
X009770Y010185D03*
X015691Y014315D03*
X014791Y015695D03*
X014561Y020235D03*
X015611Y022085D03*
X014811Y024105D03*
X014801Y024105D03*
X014791Y024105D03*
X010130Y004215D03*
D82*
X014561Y021680D03*
X014921Y021720D03*
D83*
X015671Y020065D03*
X016281Y020085D03*
X016291Y020095D03*
X014991Y018315D03*
X015011Y018285D03*
X015021Y018275D03*
X014571Y015835D03*
X015911Y014175D03*
X011940Y009375D03*
X011200Y009365D03*
X010710Y009365D03*
X010710Y007275D03*
X010140Y001365D03*
X014561Y024105D03*
D84*
X015131Y022100D03*
X014901Y020190D03*
X014571Y020220D03*
X014771Y015710D03*
X009700Y010200D03*
X009690Y010200D03*
X012400Y007280D03*
D85*
X014571Y021695D03*
X014891Y021735D03*
X015691Y021735D03*
X015701Y021735D03*
D86*
X016201Y022210D03*
X016351Y021050D03*
X015661Y020070D03*
X016191Y018910D03*
X015001Y018300D03*
X014981Y018320D03*
X014971Y018330D03*
X014961Y018340D03*
X014951Y018350D03*
X014941Y018370D03*
X014931Y018380D03*
X014921Y018390D03*
X014911Y018400D03*
X014881Y018430D03*
X014581Y015830D03*
X014571Y024110D03*
X012450Y005190D03*
X010130Y001370D03*
D87*
X014581Y007045D03*
D88*
X012400Y005195D03*
X010760Y005195D03*
X012390Y002725D03*
X009930Y001485D03*
X012400Y009365D03*
X009680Y010205D03*
X009670Y010205D03*
X009660Y010205D03*
X015721Y014295D03*
X014891Y020185D03*
X014591Y020205D03*
X014581Y020215D03*
X015141Y022105D03*
X015581Y022105D03*
X014771Y024105D03*
D89*
X014881Y021740D03*
X014591Y021710D03*
X014581Y021700D03*
X015711Y021740D03*
D90*
X016191Y022200D03*
X014581Y024110D03*
X015651Y020080D03*
X014771Y018560D03*
X014781Y018550D03*
X014811Y018520D03*
X014841Y018480D03*
X014851Y018470D03*
X014601Y015820D03*
X014941Y015390D03*
X014961Y015360D03*
X014971Y015350D03*
X014991Y015330D03*
X015021Y015290D03*
X015041Y015260D03*
X015101Y015190D03*
X015111Y015180D03*
X015121Y015160D03*
X015171Y015100D03*
X015181Y015090D03*
X015201Y015060D03*
X015211Y015050D03*
X015231Y015020D03*
X015241Y015010D03*
X015281Y014960D03*
X015291Y014950D03*
X015301Y014930D03*
X015311Y014920D03*
X015321Y014910D03*
X015331Y014890D03*
X015361Y014860D03*
X015371Y014850D03*
X015381Y014830D03*
X015391Y014820D03*
X015411Y014790D03*
X015421Y014780D03*
X015431Y014770D03*
X015441Y014760D03*
X015451Y014750D03*
X015461Y014730D03*
X015471Y014720D03*
X015491Y014690D03*
X015501Y014680D03*
X015541Y014630D03*
X015551Y014620D03*
X015891Y014190D03*
X011220Y009370D03*
X012450Y007280D03*
X010110Y001380D03*
D91*
X014591Y007040D03*
X014601Y007040D03*
X016291Y007040D03*
X016301Y007040D03*
D92*
X012450Y009365D03*
X011930Y009375D03*
X011210Y009365D03*
X010710Y005195D03*
X010120Y001375D03*
X015901Y014185D03*
X015531Y014645D03*
X015521Y014655D03*
X015511Y014665D03*
X014591Y015825D03*
X014901Y018415D03*
X014891Y018425D03*
X014871Y018445D03*
X014861Y018455D03*
X014831Y018495D03*
X014821Y018505D03*
X016301Y020105D03*
X016151Y021325D03*
D93*
X016331Y020135D03*
X016321Y020125D03*
X015631Y020095D03*
X014591Y018765D03*
X014601Y018755D03*
X014611Y018745D03*
X014621Y018735D03*
X014631Y018725D03*
X014641Y018715D03*
X014621Y015805D03*
X015861Y014205D03*
X011900Y009375D03*
X010720Y009365D03*
X010720Y007275D03*
X010010Y002725D03*
X010080Y001395D03*
X012420Y002725D03*
D94*
X010090Y001390D03*
X011230Y009370D03*
X011910Y009380D03*
X015871Y014200D03*
X014611Y015810D03*
X014731Y018610D03*
X014721Y018620D03*
X014711Y018630D03*
X014701Y018640D03*
X014691Y018650D03*
X014681Y018660D03*
X014671Y018670D03*
X014661Y018690D03*
X014651Y018700D03*
X015551Y018890D03*
X016181Y022190D03*
X014601Y024110D03*
X014591Y024110D03*
D95*
X014751Y024105D03*
X015161Y022115D03*
X015171Y022115D03*
X015551Y022115D03*
X014611Y020195D03*
X014601Y020195D03*
X014861Y020175D03*
X014871Y020175D03*
X014751Y015725D03*
X015741Y014285D03*
X010760Y009365D03*
D96*
X010170Y009850D03*
X015041Y020540D03*
X014851Y021750D03*
X014621Y021730D03*
X014601Y021720D03*
X015731Y021750D03*
D97*
X016281Y007035D03*
X014611Y007035D03*
D98*
X009860Y008185D03*
X009730Y003875D03*
X014611Y021725D03*
X014861Y021745D03*
X014871Y021745D03*
X015721Y021745D03*
D99*
X016241Y007040D03*
X016251Y007040D03*
X016261Y007040D03*
X016271Y007040D03*
X014651Y007040D03*
X014641Y007040D03*
X014631Y007040D03*
X014621Y007040D03*
D100*
X012410Y007280D03*
X009950Y001470D03*
X014741Y015730D03*
X014851Y020170D03*
X014641Y020180D03*
X014631Y020180D03*
X014621Y020190D03*
X015181Y022120D03*
X015191Y022120D03*
X015531Y022120D03*
X015541Y022120D03*
X014741Y024110D03*
D101*
X014831Y021755D03*
X014841Y021755D03*
X014631Y021735D03*
X015741Y021755D03*
X016361Y020585D03*
D102*
X016371Y020580D03*
X015761Y021760D03*
X015751Y021760D03*
X014821Y021760D03*
X014811Y021760D03*
X014801Y021760D03*
X014791Y021760D03*
X014671Y021750D03*
X014661Y021750D03*
X014651Y021740D03*
X014641Y021740D03*
X009690Y001830D03*
D103*
X009960Y001465D03*
X010750Y005195D03*
X012410Y005195D03*
X011830Y006805D03*
X012410Y009365D03*
X015751Y014275D03*
X014731Y015735D03*
X014831Y020165D03*
X014841Y020165D03*
X014651Y020175D03*
X015201Y022125D03*
X015511Y022125D03*
X015521Y022125D03*
X014731Y024105D03*
D104*
X014671Y007035D03*
X014661Y007035D03*
X016221Y007035D03*
X016231Y007035D03*
D105*
X010750Y007280D03*
X009970Y001460D03*
X015761Y014270D03*
X015581Y020160D03*
X014821Y020160D03*
X014811Y020160D03*
X014801Y020160D03*
X014791Y020160D03*
X014701Y020160D03*
X014691Y020160D03*
X014671Y020170D03*
X014661Y020170D03*
X015211Y022130D03*
X015221Y022130D03*
X015231Y022130D03*
X015491Y022130D03*
X015501Y022130D03*
D106*
X014661Y024105D03*
X015601Y020125D03*
X014671Y015775D03*
X015821Y014235D03*
X012430Y009365D03*
X010020Y002725D03*
X010020Y001425D03*
D107*
X010010Y001430D03*
X012410Y002720D03*
X012430Y007280D03*
X015811Y014240D03*
X014681Y015770D03*
X016351Y020170D03*
X014671Y024110D03*
D108*
X014681Y007040D03*
X014691Y007040D03*
X014701Y007040D03*
X014711Y007040D03*
X016171Y007040D03*
X016181Y007040D03*
X016191Y007040D03*
X016201Y007040D03*
X016211Y007040D03*
D109*
X010750Y009365D03*
X015771Y014265D03*
X014721Y015745D03*
X014711Y015745D03*
X014711Y020155D03*
X014721Y020155D03*
X014731Y020155D03*
X014741Y020155D03*
X014751Y020155D03*
X014761Y020155D03*
X014771Y020155D03*
X014781Y020155D03*
X014681Y020165D03*
X015241Y022135D03*
X015251Y022135D03*
X015261Y022135D03*
X015461Y022135D03*
X015471Y022135D03*
X015481Y022135D03*
X014721Y024105D03*
X014711Y024105D03*
X012400Y002725D03*
X010030Y002725D03*
D110*
X009740Y003895D03*
X009870Y008165D03*
X009620Y009865D03*
X016381Y020585D03*
X015781Y021765D03*
X015771Y021765D03*
X014781Y021765D03*
X014771Y021765D03*
X014761Y021765D03*
X014701Y021755D03*
X014691Y021755D03*
X014681Y021755D03*
D111*
X014681Y024105D03*
X015801Y014245D03*
X010740Y009365D03*
D112*
X011370Y007790D03*
X011380Y007790D03*
X010740Y007280D03*
X010000Y001440D03*
X015791Y014250D03*
X014691Y015760D03*
X015591Y020140D03*
D113*
X015411Y022145D03*
X015401Y022145D03*
X015391Y022145D03*
X015381Y022145D03*
X015371Y022145D03*
X015361Y022145D03*
X015351Y022145D03*
X015341Y022145D03*
X015331Y022145D03*
X015321Y022145D03*
X015311Y022145D03*
X015301Y022145D03*
X014701Y024105D03*
X014691Y024105D03*
X014701Y015755D03*
X015781Y014255D03*
X012420Y009365D03*
X012420Y005195D03*
X010740Y005195D03*
X009990Y001445D03*
D114*
X015051Y020520D03*
X016391Y020590D03*
X015801Y021770D03*
X015791Y021770D03*
X014751Y021760D03*
X014741Y021760D03*
X014731Y021760D03*
X014721Y021760D03*
X014711Y021760D03*
D115*
X015641Y020085D03*
X016311Y020115D03*
X014751Y018585D03*
X014741Y018595D03*
X014761Y018575D03*
X014791Y018535D03*
X014801Y018525D03*
X014951Y015375D03*
X014981Y015335D03*
X015001Y015315D03*
X015011Y015305D03*
X015031Y015275D03*
X015051Y015245D03*
X015061Y015235D03*
X015071Y015225D03*
X015081Y015215D03*
X015091Y015205D03*
X015131Y015145D03*
X015141Y015135D03*
X015151Y015125D03*
X015161Y015115D03*
X015191Y015075D03*
X015221Y015035D03*
X015251Y014995D03*
X015261Y014985D03*
X015271Y014975D03*
X015341Y014885D03*
X015351Y014875D03*
X015401Y014805D03*
X015481Y014705D03*
X015881Y014195D03*
X011920Y009375D03*
X010100Y001385D03*
D116*
X009940Y001480D03*
X010040Y002720D03*
X010760Y007280D03*
X009650Y010210D03*
X009640Y010210D03*
X009630Y010210D03*
X015731Y014290D03*
X014761Y015720D03*
X014881Y020180D03*
X015151Y022110D03*
X015561Y022110D03*
X015571Y022110D03*
X014761Y024110D03*
D117*
X014781Y024105D03*
X015121Y022095D03*
X015591Y022095D03*
X014911Y020195D03*
X014781Y015705D03*
X015711Y014305D03*
X009730Y010195D03*
X009720Y010195D03*
X009710Y010195D03*
X010770Y009365D03*
X010160Y004225D03*
X009920Y001495D03*
D118*
X009900Y001510D03*
X010050Y002720D03*
X010120Y004210D03*
X010780Y007280D03*
X009810Y010180D03*
X009800Y010180D03*
X009790Y010180D03*
X015681Y014320D03*
X014801Y015690D03*
X014931Y020210D03*
X015101Y022080D03*
X015621Y022080D03*
D119*
X015641Y022070D03*
X015081Y022070D03*
X014941Y020220D03*
X014821Y015680D03*
X009860Y010170D03*
X009850Y010170D03*
X012380Y007280D03*
X010100Y004200D03*
D120*
X010090Y004195D03*
X009880Y001525D03*
X010790Y009365D03*
X009890Y010165D03*
X009880Y010165D03*
X009870Y010165D03*
X012380Y009365D03*
X015661Y014335D03*
X014831Y015675D03*
X014831Y024105D03*
X014841Y024105D03*
D121*
X014851Y024105D03*
X014861Y024105D03*
X015061Y022055D03*
X014951Y020235D03*
X014841Y015665D03*
X009940Y010155D03*
X009930Y010155D03*
X012370Y009365D03*
X012370Y005195D03*
X010790Y005195D03*
X010070Y004185D03*
X010060Y002725D03*
X009870Y001535D03*
X012370Y002725D03*
D122*
X010060Y004180D03*
X010800Y007280D03*
X012370Y007280D03*
X009970Y010150D03*
X009960Y010150D03*
X009950Y010150D03*
X015641Y014350D03*
X014851Y015660D03*
D123*
X014861Y015655D03*
X015631Y014355D03*
X010000Y010145D03*
X009990Y010145D03*
X009980Y010145D03*
X010800Y009365D03*
X010050Y004175D03*
X009860Y001545D03*
X015661Y022045D03*
X014881Y024105D03*
X014871Y024105D03*
D124*
X014891Y024105D03*
X015671Y022035D03*
X014871Y015645D03*
X015611Y014365D03*
X010050Y010135D03*
X010040Y010135D03*
X012360Y009365D03*
X012360Y007275D03*
X010040Y004165D03*
X010070Y002725D03*
D125*
X009840Y001560D03*
X012360Y002720D03*
X010030Y004160D03*
X010810Y007280D03*
X010810Y009370D03*
X010080Y010130D03*
X010070Y010130D03*
X010060Y010130D03*
X015601Y014370D03*
X014881Y015640D03*
X014901Y024110D03*
D126*
X014911Y024105D03*
X015041Y022025D03*
X014891Y015635D03*
X015591Y014375D03*
X010110Y010125D03*
X010100Y010125D03*
X010090Y010125D03*
X012350Y009365D03*
X012350Y005195D03*
X010810Y005195D03*
X010020Y004155D03*
D127*
X010010Y004150D03*
X009830Y001570D03*
X010820Y007280D03*
X009800Y008280D03*
X009790Y008280D03*
X012350Y007280D03*
X010130Y010120D03*
X010120Y010120D03*
X014901Y015630D03*
D128*
X014901Y021730D03*
X009850Y008200D03*
D129*
X009990Y008290D03*
X010000Y008290D03*
X012340Y007280D03*
X012340Y005190D03*
X012350Y002720D03*
X010160Y010110D03*
X015571Y014390D03*
X014911Y015620D03*
D130*
X015031Y020565D03*
X014911Y021725D03*
X009720Y003855D03*
D131*
X009990Y004135D03*
X009820Y001585D03*
X009750Y008275D03*
X009740Y008275D03*
X009980Y008285D03*
X010010Y008285D03*
X010020Y008285D03*
X010030Y008285D03*
X012340Y009365D03*
X014921Y015615D03*
D132*
X015701Y014310D03*
X009760Y010190D03*
X009750Y010190D03*
X009740Y010190D03*
X010770Y007280D03*
X010770Y005190D03*
X010150Y004220D03*
X010140Y004220D03*
X012390Y005190D03*
X009910Y001500D03*
X014921Y020200D03*
X015111Y022090D03*
X015601Y022090D03*
D133*
X015681Y022015D03*
X014931Y024105D03*
X014921Y024105D03*
X015581Y014385D03*
X010150Y010115D03*
X010140Y010115D03*
X010820Y009365D03*
X009780Y008275D03*
X009770Y008275D03*
X009760Y008275D03*
X010820Y005195D03*
X010000Y004145D03*
X010080Y002725D03*
D134*
X009980Y004130D03*
X010150Y006190D03*
X010050Y008280D03*
X010040Y008280D03*
X009730Y008270D03*
X015561Y014400D03*
X014931Y015610D03*
D135*
X014941Y021700D03*
X009710Y003830D03*
D136*
X014951Y021685D03*
D137*
X014961Y021145D03*
X014971Y021145D03*
X014981Y021145D03*
X014991Y021145D03*
X015001Y021145D03*
X015011Y021145D03*
X015021Y021145D03*
D138*
X015031Y009920D03*
D139*
X010060Y008285D03*
X009720Y008275D03*
X010160Y006195D03*
X010140Y006185D03*
X009970Y004125D03*
X010090Y002725D03*
X009810Y001595D03*
X015031Y021995D03*
D140*
X015041Y009975D03*
D141*
X015051Y010005D03*
D142*
X010030Y010140D03*
X010020Y010140D03*
X010010Y010140D03*
X015621Y014360D03*
X015051Y022040D03*
X012360Y005190D03*
X010800Y005190D03*
X009850Y001550D03*
D143*
X015061Y010020D03*
D144*
X009880Y008150D03*
X009750Y003910D03*
X015061Y020510D03*
X016401Y020590D03*
X016121Y021770D03*
X016111Y021770D03*
X015861Y021780D03*
X015851Y021780D03*
X015841Y021780D03*
D145*
X015071Y010035D03*
D146*
X015071Y020505D03*
X016081Y021775D03*
X016091Y021775D03*
X016101Y021775D03*
X015911Y021785D03*
X015901Y021785D03*
X015891Y021785D03*
X015881Y021785D03*
X015871Y021785D03*
D147*
X015651Y022060D03*
X015071Y022060D03*
X015651Y014340D03*
X009920Y010160D03*
X009910Y010160D03*
X009900Y010160D03*
X010790Y007280D03*
X010080Y004190D03*
D148*
X015081Y010040D03*
X016121Y010040D03*
D149*
X009900Y008135D03*
X009760Y003925D03*
X015081Y020495D03*
X016001Y021785D03*
X016011Y021785D03*
D150*
X016111Y010050D03*
X015091Y010050D03*
X016571Y007040D03*
D151*
X015091Y020490D03*
D152*
X015101Y010060D03*
X016101Y010060D03*
D153*
X009920Y008120D03*
X009770Y003940D03*
X015101Y020480D03*
D154*
X015841Y012505D03*
X015851Y012505D03*
X015861Y012505D03*
X015871Y012505D03*
X015881Y012505D03*
X015891Y012505D03*
X015901Y012505D03*
X015911Y012505D03*
X015921Y012505D03*
X015931Y012505D03*
X015941Y012505D03*
X015951Y012505D03*
X015961Y012505D03*
X015971Y012505D03*
X015981Y012505D03*
X015991Y012505D03*
X016001Y012505D03*
X016011Y012505D03*
X016021Y012505D03*
X016031Y012505D03*
X016041Y012505D03*
X016051Y012505D03*
X016061Y012505D03*
X016071Y012505D03*
X016081Y012505D03*
X016091Y012505D03*
X016101Y012505D03*
X016111Y012505D03*
X016121Y012505D03*
X016131Y012505D03*
X016141Y012505D03*
X016151Y012505D03*
X016161Y012505D03*
X016091Y010065D03*
X015111Y010065D03*
D155*
X015111Y012180D03*
X015121Y012180D03*
X015131Y012180D03*
X015141Y012180D03*
X015151Y012180D03*
X015161Y012180D03*
X015171Y012180D03*
X015181Y012180D03*
X015191Y012180D03*
X015201Y012180D03*
X015211Y012180D03*
X015221Y012180D03*
X015231Y012180D03*
X015241Y012180D03*
X015251Y012180D03*
X015261Y012180D03*
X015271Y012180D03*
X015281Y012180D03*
X015291Y012180D03*
X015301Y012180D03*
X015311Y012180D03*
X015321Y012180D03*
X015331Y012180D03*
X015341Y012180D03*
X015351Y012180D03*
X015361Y012180D03*
X015371Y012180D03*
X015381Y012180D03*
X015391Y012180D03*
X015401Y012180D03*
X015411Y012180D03*
X015421Y012180D03*
X015431Y012180D03*
X009820Y008430D03*
X010160Y008270D03*
X009820Y004000D03*
X015281Y020420D03*
X015291Y020420D03*
X015301Y020420D03*
X015311Y020420D03*
X015321Y020420D03*
X015401Y020420D03*
X015411Y020420D03*
X015421Y020420D03*
X015431Y020420D03*
X015441Y020420D03*
D156*
X015111Y020475D03*
X009940Y008115D03*
X009930Y008115D03*
D157*
X009960Y008115D03*
X010170Y008265D03*
X009780Y003955D03*
X010190Y002725D03*
X012240Y002725D03*
X015121Y020465D03*
D158*
X015131Y010080D03*
X016071Y010080D03*
D159*
X009970Y008110D03*
X015131Y020460D03*
X015141Y020460D03*
D160*
X015141Y010085D03*
X016061Y010085D03*
D161*
X016051Y010090D03*
X016041Y010090D03*
X015161Y010090D03*
X015151Y010090D03*
D162*
X009790Y003965D03*
X012250Y002725D03*
X009710Y001755D03*
X015151Y020455D03*
X015571Y020455D03*
D163*
X015561Y020450D03*
X015551Y020450D03*
X015171Y020450D03*
X015161Y020450D03*
D164*
X015171Y010095D03*
X015181Y010095D03*
X016031Y010095D03*
D165*
X015171Y017765D03*
D166*
X015181Y017835D03*
D167*
X015181Y020445D03*
X015541Y020445D03*
X009620Y008275D03*
X010180Y002725D03*
D168*
X015191Y010100D03*
X015201Y010100D03*
X016011Y010100D03*
X016021Y010100D03*
D169*
X015191Y017865D03*
D170*
X015191Y020440D03*
X015201Y020440D03*
X015521Y020440D03*
X015531Y020440D03*
X009800Y003980D03*
X012260Y002720D03*
D171*
X015201Y017885D03*
D172*
X015211Y010105D03*
X015221Y010105D03*
X015991Y010105D03*
X016001Y010105D03*
D173*
X016551Y007035D03*
X015211Y017895D03*
D174*
X015211Y020435D03*
X015511Y020435D03*
X010170Y002725D03*
D175*
X015221Y017910D03*
D176*
X015221Y020430D03*
X015231Y020430D03*
X015481Y020430D03*
X015491Y020430D03*
X015501Y020430D03*
X009810Y008440D03*
X009810Y003990D03*
X009720Y001730D03*
D177*
X015231Y010110D03*
X015241Y010110D03*
X015961Y010110D03*
X015971Y010110D03*
X015981Y010110D03*
D178*
X016541Y007040D03*
X015241Y017930D03*
D179*
X015241Y020425D03*
X015251Y020425D03*
X015261Y020425D03*
X015271Y020425D03*
X015451Y020425D03*
X015461Y020425D03*
X015471Y020425D03*
X012270Y002725D03*
D180*
X015251Y017935D03*
D181*
X015261Y017940D03*
D182*
X015271Y022140D03*
X015281Y022140D03*
X015291Y022140D03*
X015421Y022140D03*
X015431Y022140D03*
X015441Y022140D03*
X015451Y022140D03*
X016151Y022130D03*
X012420Y007280D03*
X009980Y001450D03*
D183*
X015281Y017955D03*
D184*
X015301Y017965D03*
X015311Y017965D03*
D185*
X015321Y017970D03*
D186*
X015331Y017975D03*
X015341Y017975D03*
X016391Y017975D03*
X016401Y017975D03*
D187*
X015391Y020415D03*
X015381Y020415D03*
X015371Y020415D03*
X015361Y020415D03*
X015351Y020415D03*
X015341Y020415D03*
X015331Y020415D03*
X010160Y002725D03*
D188*
X015381Y017990D03*
X015391Y017990D03*
X016341Y017990D03*
X016351Y017990D03*
D189*
X016331Y017995D03*
X016321Y017995D03*
X016311Y017995D03*
X015421Y017995D03*
X015411Y017995D03*
X015401Y017995D03*
D190*
X015481Y018005D03*
X015491Y018005D03*
X015501Y018005D03*
X015511Y018005D03*
X015521Y018005D03*
X015531Y018005D03*
X015541Y018005D03*
X016201Y018005D03*
X016211Y018005D03*
X016221Y018005D03*
X016231Y018005D03*
X016241Y018005D03*
X016251Y018005D03*
D191*
X016231Y020055D03*
X015721Y020045D03*
X015941Y014155D03*
X011960Y009375D03*
X011180Y009365D03*
X011280Y007265D03*
X011270Y007255D03*
X011840Y006685D03*
X010700Y005195D03*
X010970Y003105D03*
X011460Y003105D03*
X011460Y002385D03*
X010200Y002295D03*
X010180Y001345D03*
D192*
X015811Y021775D03*
X015821Y021775D03*
X015831Y021775D03*
X016131Y021765D03*
X016141Y021765D03*
D193*
X016071Y021780D03*
X016061Y021780D03*
X016051Y021780D03*
X016041Y021780D03*
X016031Y021780D03*
X016021Y021780D03*
X015991Y021790D03*
X015981Y021790D03*
X015971Y021790D03*
X015961Y021790D03*
X015951Y021790D03*
X015941Y021790D03*
X015931Y021790D03*
X015921Y021790D03*
X009890Y008140D03*
D194*
X016131Y010025D03*
D195*
X016141Y010015D03*
D196*
X012300Y009785D03*
X011870Y009175D03*
X012300Y008945D03*
X011270Y007985D03*
X011940Y006595D03*
X012300Y005605D03*
X012300Y004775D03*
X010860Y005605D03*
X010390Y003495D03*
X010380Y003485D03*
X010370Y003475D03*
X012060Y003475D03*
X012070Y003465D03*
X012070Y001985D03*
X012060Y001975D03*
X012050Y001965D03*
X010390Y001955D03*
X010380Y001965D03*
X010370Y001975D03*
X010860Y009775D03*
X010870Y009795D03*
X016151Y014025D03*
D197*
X016161Y009970D03*
D198*
X016451Y007040D03*
D199*
X016461Y007040D03*
D200*
X016471Y007040D03*
D201*
X016501Y007035D03*
D202*
X016561Y007040D03*
D203*
X009430Y005850D03*
D204*
X009440Y005850D03*
X009450Y005850D03*
X009460Y005850D03*
D205*
X009470Y005845D03*
X009480Y005845D03*
X009490Y005845D03*
X009500Y005845D03*
X009510Y005845D03*
X009520Y005845D03*
X009530Y005845D03*
X009540Y005845D03*
X009550Y005845D03*
X009560Y005845D03*
X009570Y005845D03*
X009580Y005845D03*
X009590Y005845D03*
X009600Y005845D03*
X009610Y005845D03*
D206*
X009620Y004260D03*
D207*
X009630Y002860D03*
X009640Y002860D03*
X009650Y002860D03*
X009660Y002860D03*
X009670Y002860D03*
X009680Y002860D03*
D208*
X012290Y002725D03*
X009630Y006095D03*
D209*
X009630Y006955D03*
X010150Y006965D03*
X011060Y006625D03*
X011070Y006615D03*
X011080Y006605D03*
X011070Y005865D03*
X011060Y005855D03*
X011050Y005845D03*
X010140Y005395D03*
X010130Y005395D03*
X009940Y005165D03*
X009880Y005195D03*
X009870Y005205D03*
X009860Y005205D03*
X009850Y005215D03*
X009830Y005225D03*
X009820Y005225D03*
X009810Y005225D03*
X009800Y005225D03*
X009790Y005225D03*
X009780Y005225D03*
X009770Y005225D03*
X009760Y005225D03*
X009750Y005225D03*
X009740Y005225D03*
X009780Y004895D03*
X009790Y004895D03*
X010160Y005035D03*
X011050Y004545D03*
X011060Y004535D03*
X011070Y004525D03*
X011090Y003855D03*
X011100Y003855D03*
X011110Y003855D03*
X011120Y003855D03*
X011130Y003855D03*
X011140Y003855D03*
X011150Y003855D03*
X011160Y003855D03*
X011270Y003855D03*
X011280Y003855D03*
X011290Y003855D03*
X011300Y003855D03*
X011310Y003855D03*
X011320Y003855D03*
X011330Y003855D03*
X011340Y003855D03*
X011390Y003845D03*
X011400Y003845D03*
X011410Y003845D03*
X011030Y003845D03*
X011020Y003845D03*
X011020Y003325D03*
X010840Y003105D03*
X011080Y002865D03*
X011090Y002865D03*
X011110Y002855D03*
X011120Y002855D03*
X011130Y002855D03*
X011140Y002855D03*
X011160Y002845D03*
X011170Y002845D03*
X011180Y002845D03*
X011190Y002845D03*
X011200Y002845D03*
X011210Y002845D03*
X011220Y002845D03*
X011230Y002845D03*
X011240Y002845D03*
X011250Y002845D03*
X011260Y002845D03*
X011270Y002845D03*
X011280Y002855D03*
X011290Y002855D03*
X011300Y002855D03*
X011310Y002855D03*
X011320Y002855D03*
X011340Y002865D03*
X011350Y002865D03*
X011590Y002385D03*
X011350Y002145D03*
X011320Y002135D03*
X011310Y002135D03*
X011270Y002125D03*
X011260Y002125D03*
X011250Y002125D03*
X011240Y002125D03*
X011230Y002125D03*
X011220Y002125D03*
X011210Y002125D03*
X011200Y002125D03*
X011190Y002125D03*
X011180Y002125D03*
X011170Y002125D03*
X011160Y002125D03*
X011120Y002135D03*
X011110Y002135D03*
X010840Y002385D03*
X011070Y001595D03*
X011180Y001585D03*
X011190Y001585D03*
X011200Y001585D03*
X011210Y001585D03*
X011220Y001585D03*
X011230Y001585D03*
X011240Y001585D03*
X011250Y001585D03*
X011360Y001595D03*
X012090Y004525D03*
X012100Y004535D03*
X012110Y004545D03*
X012120Y005835D03*
X012110Y005845D03*
X012100Y005855D03*
X012090Y005865D03*
X012070Y006595D03*
X012080Y006605D03*
X012100Y006615D03*
X012110Y006625D03*
X012120Y006635D03*
X012130Y006645D03*
X011340Y007475D03*
X011060Y007935D03*
X011070Y007945D03*
X011080Y007955D03*
X012100Y007945D03*
X012110Y007935D03*
X012120Y007925D03*
X012130Y007915D03*
X012090Y008695D03*
X012100Y008705D03*
X012110Y008715D03*
X011750Y009075D03*
X011090Y008685D03*
X011080Y008695D03*
X011060Y008705D03*
X011050Y008715D03*
X011040Y008725D03*
X011030Y008735D03*
X010660Y009365D03*
X010080Y009325D03*
X009920Y009265D03*
X009790Y009025D03*
X009780Y009025D03*
X011050Y010015D03*
X011060Y010025D03*
X011070Y010035D03*
X012080Y010045D03*
X012090Y010035D03*
X012100Y010025D03*
D210*
X012220Y009905D03*
X011840Y009635D03*
X011830Y009645D03*
X011820Y009655D03*
X011330Y009655D03*
X011320Y009645D03*
X010960Y009925D03*
X010950Y009915D03*
X011300Y009115D03*
X011310Y009105D03*
X011840Y009125D03*
X012220Y008825D03*
X012230Y008835D03*
X012500Y009365D03*
X011240Y008015D03*
X010950Y007825D03*
X010940Y007815D03*
X011840Y007125D03*
X012220Y006735D03*
X012210Y006725D03*
X011970Y006565D03*
X010950Y006735D03*
X010940Y006745D03*
X009830Y007515D03*
X009630Y007305D03*
X010960Y005755D03*
X010950Y005745D03*
X010940Y005735D03*
X010660Y005195D03*
X010160Y005395D03*
X009920Y005155D03*
X009680Y005205D03*
X010940Y004655D03*
X010950Y004645D03*
X012220Y004655D03*
X012230Y004665D03*
X011760Y003725D03*
X011750Y003725D03*
X011740Y003735D03*
X011720Y003745D03*
X011700Y003755D03*
X011770Y003715D03*
X011780Y003715D03*
X011790Y003705D03*
X011430Y003295D03*
X011420Y002915D03*
X011430Y002575D03*
X011010Y002915D03*
X011000Y003295D03*
X010690Y003735D03*
X010670Y003725D03*
X010660Y003715D03*
X010650Y003715D03*
X010640Y003705D03*
X010620Y003695D03*
X011420Y002195D03*
X011730Y001715D03*
X011740Y001715D03*
X011750Y001725D03*
X011760Y001725D03*
X011770Y001735D03*
X011790Y001745D03*
X011720Y001705D03*
X011700Y001695D03*
X010730Y001695D03*
X010710Y001705D03*
X010700Y001715D03*
X010690Y001715D03*
X010680Y001725D03*
X010670Y001725D03*
X010660Y001735D03*
X010640Y001745D03*
X012220Y005735D03*
X012210Y005745D03*
X012220Y007825D03*
X012210Y007835D03*
X010120Y009315D03*
D211*
X009630Y008275D03*
X010150Y002725D03*
X012280Y002725D03*
D212*
X010150Y005075D03*
X010010Y005155D03*
X010070Y005395D03*
X009760Y006915D03*
X010020Y007005D03*
X010030Y007005D03*
X010070Y007255D03*
X010080Y007255D03*
X009710Y007255D03*
X009720Y009035D03*
X009630Y009195D03*
X009880Y009285D03*
X010060Y009025D03*
D213*
X010130Y009310D03*
X009630Y009520D03*
X010910Y009860D03*
X011290Y009620D03*
X011860Y009610D03*
X011860Y009150D03*
X011670Y009060D03*
X011280Y009140D03*
X010900Y008890D03*
X010900Y007760D03*
X011320Y007440D03*
X010900Y006800D03*
X012260Y006790D03*
X012260Y007770D03*
X012260Y008880D03*
X012260Y005680D03*
X011420Y005190D03*
X011410Y005190D03*
X011400Y005190D03*
X011390Y005190D03*
X011380Y005190D03*
X011370Y005190D03*
X011360Y005190D03*
X011350Y005190D03*
X011340Y005190D03*
X011330Y005190D03*
X011320Y005190D03*
X011310Y005190D03*
X011300Y005190D03*
X011290Y005190D03*
X011280Y005190D03*
X011270Y005190D03*
X011260Y005190D03*
X011250Y005190D03*
X011240Y005190D03*
X011230Y005190D03*
X011220Y005190D03*
X011210Y005190D03*
X011200Y005190D03*
X011190Y005190D03*
X011180Y005190D03*
X011170Y005190D03*
X011160Y005190D03*
X011150Y005190D03*
X011140Y005190D03*
X011130Y005190D03*
X011120Y005190D03*
X011110Y005190D03*
X011100Y005190D03*
X011090Y005190D03*
X011080Y005190D03*
X011070Y005190D03*
X011060Y005190D03*
X011050Y005190D03*
X011040Y005190D03*
X011030Y005190D03*
X011020Y005190D03*
X011010Y005190D03*
X011000Y005190D03*
X010990Y005190D03*
X010900Y005680D03*
X010900Y004710D03*
X010540Y003640D03*
X010530Y003630D03*
X010520Y003620D03*
X011000Y002930D03*
X010850Y002380D03*
X011000Y002210D03*
X010560Y001800D03*
X010550Y001810D03*
X010540Y001820D03*
X010530Y001820D03*
X010520Y001830D03*
X010510Y001840D03*
X011870Y001800D03*
X011880Y001810D03*
X011900Y001820D03*
X011910Y001830D03*
X009970Y002720D03*
X011890Y003640D03*
X011900Y003630D03*
X011910Y003620D03*
X012260Y004710D03*
D214*
X009840Y006095D03*
X009830Y006095D03*
X009820Y006095D03*
X009810Y006095D03*
X009800Y006095D03*
X009790Y006095D03*
X009780Y006095D03*
X009770Y006095D03*
X009760Y006095D03*
X009750Y006095D03*
X009740Y006095D03*
X009730Y006095D03*
X009720Y006095D03*
X009710Y006095D03*
X009700Y006095D03*
X009690Y006095D03*
X009680Y006095D03*
X009670Y006095D03*
X009660Y006095D03*
X009650Y006095D03*
X009640Y006095D03*
X010140Y002725D03*
D215*
X011020Y002600D03*
X011590Y003110D03*
X011410Y003310D03*
X011120Y004490D03*
X011100Y004500D03*
X011090Y004510D03*
X011080Y004520D03*
X012040Y004490D03*
X012060Y004500D03*
X012070Y004510D03*
X012080Y004520D03*
X012120Y005190D03*
X011970Y005190D03*
X012080Y005870D03*
X012070Y005880D03*
X012050Y005890D03*
X012040Y005900D03*
X011120Y005900D03*
X011100Y005890D03*
X011090Y005880D03*
X011080Y005870D03*
X011130Y006570D03*
X011100Y006590D03*
X011090Y006600D03*
X011990Y006550D03*
X012020Y006560D03*
X012050Y006580D03*
X012060Y006590D03*
X012090Y006610D03*
X011360Y007490D03*
X011350Y007490D03*
X011090Y007960D03*
X011100Y007970D03*
X011110Y007980D03*
X011220Y008030D03*
X012020Y008000D03*
X012050Y007980D03*
X012060Y007970D03*
X012070Y007970D03*
X012080Y007960D03*
X012090Y007950D03*
X012040Y008660D03*
X012050Y008670D03*
X012060Y008670D03*
X012070Y008680D03*
X012080Y008690D03*
X011630Y009060D03*
X011140Y008650D03*
X011110Y008670D03*
X011100Y008680D03*
X011070Y008700D03*
X010070Y009320D03*
X009740Y009520D03*
X009730Y009520D03*
X009720Y009520D03*
X009760Y009030D03*
X009770Y009030D03*
X009800Y009020D03*
X011080Y010040D03*
X011090Y010050D03*
X011100Y010060D03*
X011120Y010070D03*
X012030Y010080D03*
X012060Y010060D03*
X012070Y010050D03*
X010020Y007520D03*
X010010Y007520D03*
X009770Y007520D03*
X009650Y007290D03*
X009650Y006950D03*
X009640Y006950D03*
X010140Y006970D03*
X010140Y007290D03*
X009830Y004890D03*
X009820Y004890D03*
X009810Y004890D03*
X009800Y004890D03*
X009770Y004890D03*
X009760Y004890D03*
D216*
X009890Y005190D03*
X009840Y005220D03*
X009730Y005220D03*
X009720Y005220D03*
X011000Y005800D03*
X011010Y005810D03*
X011020Y005820D03*
X011030Y005830D03*
X011040Y005840D03*
X011050Y006630D03*
X011040Y006640D03*
X011030Y006650D03*
X011020Y006660D03*
X011010Y006670D03*
X010660Y007280D03*
X010150Y007300D03*
X010000Y007520D03*
X009790Y007520D03*
X009780Y007520D03*
X009640Y007300D03*
X010160Y006960D03*
X011020Y007900D03*
X011030Y007910D03*
X011040Y007920D03*
X011050Y007930D03*
X012140Y007910D03*
X012150Y007900D03*
X012160Y007890D03*
X012120Y008720D03*
X012130Y008730D03*
X012140Y008740D03*
X012150Y008750D03*
X012160Y008760D03*
X011790Y009090D03*
X011770Y009080D03*
X011760Y009080D03*
X011740Y009070D03*
X011730Y009070D03*
X011720Y009070D03*
X011640Y009060D03*
X011430Y009060D03*
X011410Y009070D03*
X011400Y009070D03*
X011390Y009070D03*
X011380Y009070D03*
X011360Y009080D03*
X011350Y009080D03*
X011480Y009710D03*
X011660Y009710D03*
X011670Y009710D03*
X011680Y009710D03*
X011710Y009700D03*
X011720Y009700D03*
X011750Y009690D03*
X012110Y010020D03*
X012120Y010010D03*
X012130Y010000D03*
X012140Y009990D03*
X011040Y010010D03*
X011030Y010000D03*
X011020Y009990D03*
X011010Y009980D03*
X010100Y009320D03*
X010090Y009320D03*
X009710Y009520D03*
X009700Y009520D03*
X009690Y009520D03*
X012160Y006670D03*
X012150Y006660D03*
X012140Y006650D03*
X012130Y005830D03*
X012140Y005820D03*
X012150Y005810D03*
X012160Y005800D03*
X012110Y005190D03*
X012100Y005190D03*
X012000Y005190D03*
X011990Y005190D03*
X011980Y005190D03*
X012500Y005190D03*
X012150Y004580D03*
X012140Y004570D03*
X012130Y004560D03*
X012120Y004550D03*
X011380Y003850D03*
X011370Y003850D03*
X011360Y003850D03*
X011350Y003850D03*
X011420Y003840D03*
X011430Y003840D03*
X011440Y003840D03*
X011450Y003840D03*
X011470Y003830D03*
X011480Y003830D03*
X011490Y003830D03*
X011510Y003820D03*
X011520Y003820D03*
X011530Y003820D03*
X011550Y003810D03*
X011560Y003810D03*
X011260Y003860D03*
X011250Y003860D03*
X011240Y003860D03*
X011230Y003860D03*
X011220Y003860D03*
X011210Y003860D03*
X011200Y003860D03*
X011190Y003860D03*
X011180Y003860D03*
X011170Y003860D03*
X011080Y003850D03*
X011070Y003850D03*
X011060Y003850D03*
X011050Y003850D03*
X011040Y003850D03*
X011010Y003840D03*
X011000Y003840D03*
X010990Y003840D03*
X010980Y003840D03*
X010970Y003840D03*
X010960Y003830D03*
X010950Y003830D03*
X010940Y003830D03*
X010930Y003830D03*
X010910Y003820D03*
X010900Y003820D03*
X010870Y003810D03*
X011010Y003310D03*
X011050Y002880D03*
X011070Y002870D03*
X011100Y002860D03*
X011150Y002850D03*
X011330Y002860D03*
X011360Y002870D03*
X011380Y002880D03*
X011010Y002590D03*
X011070Y002150D03*
X011080Y002150D03*
X011090Y002140D03*
X011100Y002140D03*
X011130Y002130D03*
X011140Y002130D03*
X011150Y002130D03*
X011280Y002130D03*
X011290Y002130D03*
X011300Y002130D03*
X011330Y002140D03*
X011340Y002140D03*
X011360Y002150D03*
X011380Y002160D03*
X011530Y001630D03*
X011500Y001620D03*
X011490Y001620D03*
X011460Y001610D03*
X011450Y001610D03*
X011440Y001610D03*
X011430Y001610D03*
X011420Y001600D03*
X011410Y001600D03*
X011400Y001600D03*
X011390Y001600D03*
X011380Y001600D03*
X011370Y001600D03*
X011350Y001590D03*
X011340Y001590D03*
X011330Y001590D03*
X011320Y001590D03*
X011310Y001590D03*
X011300Y001590D03*
X011290Y001590D03*
X011280Y001590D03*
X011270Y001590D03*
X011260Y001590D03*
X011170Y001590D03*
X011160Y001590D03*
X011150Y001590D03*
X011140Y001590D03*
X011130Y001590D03*
X011120Y001590D03*
X011110Y001590D03*
X011100Y001590D03*
X011090Y001590D03*
X011080Y001590D03*
X011060Y001600D03*
X011050Y001600D03*
X011040Y001600D03*
X011030Y001600D03*
X011020Y001600D03*
X011010Y001600D03*
X011000Y001610D03*
X010990Y001610D03*
X010980Y001610D03*
X010970Y001610D03*
X010940Y001620D03*
X010930Y001620D03*
X010900Y001630D03*
X011040Y004550D03*
X011030Y004560D03*
X011020Y004570D03*
X011010Y004580D03*
X011000Y004590D03*
D217*
X009860Y004040D03*
X009860Y006100D03*
X009850Y006100D03*
X009640Y008270D03*
D218*
X010060Y007520D03*
X010030Y007240D03*
X010020Y007240D03*
X009980Y007020D03*
X009970Y007020D03*
X009810Y006900D03*
X009760Y007240D03*
X009750Y007240D03*
X011030Y007290D03*
X011040Y007290D03*
X011050Y007290D03*
X011060Y007290D03*
X011070Y007290D03*
X011080Y007290D03*
X011090Y007290D03*
X011100Y007290D03*
X011110Y007290D03*
X011120Y007290D03*
X011130Y007290D03*
X011140Y007290D03*
X011150Y007290D03*
X011160Y007290D03*
X012010Y007290D03*
X012020Y007290D03*
X012030Y007290D03*
X012040Y007290D03*
X012050Y007290D03*
X012060Y007290D03*
X012070Y007290D03*
X012080Y007290D03*
X012090Y007290D03*
X012100Y007290D03*
X012110Y007290D03*
X012120Y007290D03*
X012130Y007290D03*
X012140Y007290D03*
X011580Y009060D03*
X010070Y009020D03*
X009850Y009290D03*
X009840Y009290D03*
X009640Y009210D03*
X009870Y009520D03*
X009880Y009520D03*
X010050Y005150D03*
X010060Y005140D03*
X010070Y005140D03*
X010090Y005130D03*
X010120Y005110D03*
X010130Y005100D03*
X011930Y005190D03*
D219*
X012240Y005710D03*
X012230Y005720D03*
X010930Y005720D03*
X010980Y005190D03*
X010920Y004680D03*
X010930Y004670D03*
X012240Y004680D03*
X011800Y003700D03*
X011810Y003690D03*
X011820Y003690D03*
X011830Y003680D03*
X011860Y003660D03*
X010630Y003700D03*
X010610Y003690D03*
X010600Y003680D03*
X010580Y003670D03*
X010570Y003660D03*
X012460Y002720D03*
X011010Y002190D03*
X010650Y001740D03*
X010630Y001750D03*
X010620Y001760D03*
X010600Y001770D03*
X010590Y001780D03*
X011780Y001740D03*
X011800Y001750D03*
X011810Y001760D03*
X009670Y005200D03*
X010930Y006760D03*
X010920Y006770D03*
X010160Y007310D03*
X012230Y007810D03*
X012500Y007280D03*
X012240Y006760D03*
X012230Y006750D03*
X012240Y008850D03*
X011660Y009060D03*
X011290Y009120D03*
X011090Y009360D03*
X011300Y009630D03*
X011310Y009640D03*
X010940Y009900D03*
X010930Y009890D03*
X012050Y009370D03*
X012230Y009900D03*
X010940Y008830D03*
X010930Y008840D03*
X009650Y009520D03*
X009640Y009520D03*
D220*
X010140Y009305D03*
X010900Y009845D03*
X011280Y009605D03*
X010890Y008905D03*
X010890Y007745D03*
X011180Y007275D03*
X010890Y006815D03*
X012270Y006805D03*
X012270Y007755D03*
X012270Y008895D03*
X012270Y009835D03*
X012270Y005665D03*
X012270Y004725D03*
X011920Y003615D03*
X011930Y003605D03*
X011940Y003595D03*
X011950Y003585D03*
X010510Y003615D03*
X010500Y003605D03*
X010490Y003595D03*
X010480Y003585D03*
X010890Y004725D03*
X009650Y005185D03*
X010460Y001885D03*
X010470Y001875D03*
X010480Y001865D03*
X010490Y001855D03*
X010500Y001845D03*
X011890Y001815D03*
X011920Y001835D03*
X011930Y001845D03*
X011940Y001855D03*
X011950Y001865D03*
D221*
X012310Y002720D03*
X009930Y006120D03*
X009920Y006120D03*
X009650Y008270D03*
D222*
X009650Y009225D03*
X009770Y007235D03*
X009780Y007235D03*
X009790Y007235D03*
X010000Y007235D03*
X010010Y007235D03*
X009960Y007025D03*
X009830Y006895D03*
X009820Y006895D03*
X011020Y007285D03*
X011360Y007085D03*
X010040Y005395D03*
X010030Y005395D03*
X010080Y005135D03*
X010100Y005125D03*
X010110Y005115D03*
X011060Y003305D03*
X011060Y002585D03*
X012670Y001115D03*
X012680Y001125D03*
X012680Y010575D03*
X012670Y010585D03*
D223*
X012240Y009885D03*
X012250Y009865D03*
X012260Y009855D03*
X011850Y009625D03*
X010920Y009875D03*
X009940Y009235D03*
X010910Y008875D03*
X010920Y008855D03*
X011850Y009135D03*
X012250Y008865D03*
X012240Y007795D03*
X012250Y007785D03*
X011250Y008005D03*
X010930Y007805D03*
X010920Y007785D03*
X010910Y007775D03*
X011320Y007135D03*
X010910Y006785D03*
X011960Y006575D03*
X012250Y006775D03*
X012250Y005695D03*
X010920Y005705D03*
X010910Y005695D03*
X009660Y005195D03*
X010910Y004695D03*
X010590Y003675D03*
X010560Y003655D03*
X010550Y003645D03*
X010850Y003105D03*
X011430Y002925D03*
X011580Y003105D03*
X011880Y003645D03*
X011870Y003655D03*
X011850Y003665D03*
X011840Y003675D03*
X012250Y004695D03*
X011580Y002385D03*
X011430Y002205D03*
X011830Y001775D03*
X011840Y001775D03*
X011850Y001785D03*
X011860Y001795D03*
X011820Y001765D03*
X010610Y001765D03*
X010580Y001785D03*
X010570Y001795D03*
D224*
X011410Y002585D03*
X011190Y004445D03*
X011170Y004455D03*
X011160Y004465D03*
X011150Y004465D03*
X011140Y004475D03*
X011130Y004485D03*
X011110Y004495D03*
X011970Y004445D03*
X011990Y004455D03*
X012000Y004465D03*
X012010Y004465D03*
X012020Y004475D03*
X012030Y004485D03*
X012050Y004495D03*
X012130Y005195D03*
X012060Y005885D03*
X012030Y005905D03*
X012020Y005915D03*
X012010Y005915D03*
X012000Y005925D03*
X011980Y005935D03*
X011160Y005925D03*
X011140Y005915D03*
X011130Y005905D03*
X011110Y005895D03*
X011190Y006535D03*
X011170Y006545D03*
X011150Y006555D03*
X011140Y006565D03*
X011120Y006575D03*
X011110Y006585D03*
X012000Y006545D03*
X012010Y006555D03*
X012030Y006565D03*
X012040Y006575D03*
X011330Y007105D03*
X011120Y007985D03*
X011130Y007995D03*
X011140Y007995D03*
X011150Y008005D03*
X011170Y008015D03*
X011200Y008615D03*
X011180Y008625D03*
X011160Y008635D03*
X011150Y008645D03*
X011130Y008655D03*
X011120Y008665D03*
X012000Y008635D03*
X012020Y008645D03*
X012030Y008655D03*
X012000Y008015D03*
X012010Y008005D03*
X012030Y007995D03*
X012040Y007985D03*
X010130Y007285D03*
X010130Y006975D03*
X010120Y006975D03*
X009670Y006945D03*
X009660Y006945D03*
X010120Y005395D03*
X009950Y005165D03*
X009840Y004885D03*
X009750Y004885D03*
X009740Y004885D03*
X009750Y009035D03*
X010050Y009325D03*
X010060Y009325D03*
X011110Y010065D03*
X011130Y010075D03*
X011140Y010085D03*
X011150Y010095D03*
X011160Y010095D03*
X011170Y010105D03*
X011970Y010115D03*
X011990Y010105D03*
X012010Y010095D03*
X012020Y010085D03*
X012040Y010075D03*
X012050Y010065D03*
D225*
X012000Y010100D03*
X011980Y010110D03*
X011960Y010120D03*
X011950Y010130D03*
X011940Y010130D03*
X011920Y010140D03*
X011240Y010140D03*
X011220Y010130D03*
X011210Y010120D03*
X011200Y010120D03*
X011190Y010110D03*
X011180Y010110D03*
X011080Y009360D03*
X011620Y009060D03*
X012060Y009370D03*
X012010Y008640D03*
X011990Y008630D03*
X011980Y008620D03*
X011970Y008620D03*
X011960Y008610D03*
X011950Y008610D03*
X011940Y008600D03*
X011920Y008590D03*
X011890Y008580D03*
X011900Y008060D03*
X011930Y008050D03*
X011950Y008040D03*
X011960Y008030D03*
X011970Y008030D03*
X011980Y008020D03*
X011990Y008020D03*
X011210Y008040D03*
X011200Y008030D03*
X011190Y008030D03*
X011180Y008020D03*
X011160Y008010D03*
X011270Y008580D03*
X011250Y008590D03*
X011230Y008600D03*
X011220Y008600D03*
X011210Y008610D03*
X011190Y008620D03*
X011170Y008630D03*
X010000Y009030D03*
X009910Y009270D03*
X010030Y009320D03*
X010040Y009320D03*
X010030Y007520D03*
X009760Y007520D03*
X009660Y007280D03*
X009680Y006940D03*
X010100Y006980D03*
X010110Y006980D03*
X011160Y006550D03*
X011180Y006540D03*
X011200Y006530D03*
X011210Y006520D03*
X011220Y006520D03*
X011230Y006510D03*
X011240Y006510D03*
X011260Y006500D03*
X011280Y006490D03*
X011270Y005980D03*
X011250Y005970D03*
X011220Y005960D03*
X011210Y005950D03*
X011200Y005950D03*
X011190Y005940D03*
X011180Y005940D03*
X011170Y005930D03*
X011150Y005920D03*
X011910Y005970D03*
X011930Y005960D03*
X011940Y005960D03*
X011950Y005950D03*
X011960Y005950D03*
X011970Y005940D03*
X011990Y005930D03*
X011960Y005190D03*
X012140Y005190D03*
X011980Y004450D03*
X011960Y004440D03*
X011950Y004440D03*
X011940Y004430D03*
X011920Y004420D03*
X011260Y004410D03*
X011240Y004420D03*
X011220Y004430D03*
X011210Y004430D03*
X011200Y004440D03*
X011180Y004450D03*
X010040Y004880D03*
X010030Y004880D03*
X010020Y004880D03*
X010010Y004880D03*
X010000Y004880D03*
X009990Y004880D03*
X009980Y004880D03*
X009850Y004880D03*
X011030Y003320D03*
X011030Y002600D03*
D226*
X009960Y006130D03*
X009950Y006130D03*
X009660Y008270D03*
D227*
X009660Y009230D03*
X009810Y009290D03*
X009820Y009290D03*
X009830Y009290D03*
X009890Y009520D03*
X009900Y009520D03*
X009910Y009520D03*
X011570Y009060D03*
X011820Y007440D03*
X009990Y007230D03*
X009980Y007230D03*
X009970Y007230D03*
X009960Y007230D03*
X009830Y007230D03*
X009820Y007230D03*
X009810Y007230D03*
X009800Y007230D03*
X009940Y007030D03*
X009950Y007030D03*
X009850Y006890D03*
X009840Y006890D03*
X012170Y005190D03*
X011370Y003290D03*
X011370Y002570D03*
X011370Y001090D03*
X011380Y001090D03*
X011390Y001090D03*
X011400Y001090D03*
X011410Y001090D03*
X011420Y001090D03*
X011430Y001090D03*
X011440Y001090D03*
X011450Y001090D03*
X011460Y001090D03*
X011470Y001090D03*
X011480Y001090D03*
X011490Y001090D03*
X011500Y001090D03*
X011510Y001090D03*
X011520Y001090D03*
X011530Y001090D03*
X011540Y001090D03*
X011550Y001090D03*
X011560Y001090D03*
X011570Y001090D03*
X011580Y001090D03*
X011590Y001090D03*
X011600Y001090D03*
X011610Y001090D03*
X011620Y001090D03*
X011630Y001090D03*
X011640Y001090D03*
X011650Y001090D03*
X011660Y001090D03*
X011670Y001090D03*
X011680Y001090D03*
X011690Y001090D03*
X011700Y001090D03*
X011710Y001090D03*
X011720Y001090D03*
X011730Y001090D03*
X011740Y001090D03*
X011750Y001090D03*
X011760Y001090D03*
X011770Y001090D03*
X011780Y001090D03*
X011790Y001090D03*
X011800Y001090D03*
X011810Y001090D03*
X011820Y001090D03*
X011830Y001090D03*
X011840Y001090D03*
X011850Y001090D03*
X011860Y001090D03*
X011870Y001090D03*
X011880Y001090D03*
X011890Y001090D03*
X011900Y001090D03*
X011910Y001090D03*
X011920Y001090D03*
X011930Y001090D03*
X011940Y001090D03*
X011950Y001090D03*
X011960Y001090D03*
X011970Y001090D03*
X011980Y001090D03*
X011990Y001090D03*
X012000Y001090D03*
X012010Y001090D03*
X012020Y001090D03*
X012030Y001090D03*
X012040Y001090D03*
X012050Y001090D03*
X012060Y001090D03*
X012070Y001090D03*
X012080Y001090D03*
X012090Y001090D03*
X012100Y001090D03*
X012110Y001090D03*
X012120Y001090D03*
X012130Y001090D03*
X012140Y001090D03*
X012150Y001090D03*
X012160Y001090D03*
X012170Y001090D03*
X012180Y001090D03*
X012190Y001090D03*
X012200Y001090D03*
X012210Y001090D03*
X012220Y001090D03*
X012230Y001090D03*
X012240Y001090D03*
X012250Y001090D03*
X012260Y001090D03*
X012270Y001090D03*
X012280Y001090D03*
X012290Y001090D03*
X012300Y001090D03*
X012310Y001090D03*
X012320Y001090D03*
X012330Y001090D03*
X012340Y001090D03*
X012350Y001090D03*
X012360Y001090D03*
X012370Y001090D03*
X012380Y001090D03*
X012390Y001090D03*
X012400Y001090D03*
X012410Y001090D03*
X012420Y001090D03*
X012430Y001090D03*
X012440Y001090D03*
X012450Y001090D03*
X012460Y001090D03*
X012470Y001090D03*
X012480Y001090D03*
X012490Y001090D03*
X012500Y001090D03*
X012510Y001090D03*
X012520Y001090D03*
X012530Y001090D03*
X012540Y001090D03*
X012550Y001090D03*
X012560Y001090D03*
X012570Y001090D03*
X012580Y001090D03*
X012590Y001090D03*
X012640Y001100D03*
X012650Y001100D03*
X012660Y001110D03*
X011360Y001090D03*
X011350Y001090D03*
X011340Y001090D03*
X011330Y001090D03*
X011320Y001090D03*
X011310Y001090D03*
X011300Y001090D03*
X011290Y001090D03*
X011280Y001090D03*
X011270Y001090D03*
X011260Y001090D03*
X011250Y001090D03*
X011240Y001090D03*
X011230Y001090D03*
X011220Y001090D03*
X011210Y001090D03*
X011200Y001090D03*
X011190Y001090D03*
X011180Y001090D03*
X011170Y001090D03*
X011160Y001090D03*
X011150Y001090D03*
X011140Y001090D03*
X011130Y001090D03*
X011120Y001090D03*
X011110Y001090D03*
X011100Y001090D03*
X011090Y001090D03*
X011080Y001090D03*
X011070Y001090D03*
X011060Y001090D03*
X011050Y001090D03*
X011040Y001090D03*
X011030Y001090D03*
X011020Y001090D03*
X011010Y001090D03*
X011000Y001090D03*
X010990Y001090D03*
X010980Y001090D03*
X010970Y001090D03*
X010960Y001090D03*
X010950Y001090D03*
X010940Y001090D03*
X010930Y001090D03*
X010920Y001090D03*
X010910Y001090D03*
X010900Y001090D03*
X010890Y001090D03*
X010880Y001090D03*
X010870Y001090D03*
X010860Y001090D03*
X010850Y001090D03*
X010840Y001090D03*
X010830Y001090D03*
X010820Y001090D03*
X010810Y001090D03*
X010800Y001090D03*
X010790Y001090D03*
X010780Y001090D03*
X010770Y001090D03*
X010760Y001090D03*
X010750Y001090D03*
X010740Y001090D03*
X010730Y001090D03*
X010720Y001090D03*
X010710Y001090D03*
X010700Y001090D03*
X010690Y001090D03*
X010680Y001090D03*
X010670Y001090D03*
X010660Y001090D03*
X010650Y001090D03*
X010640Y001090D03*
X010630Y001090D03*
X010620Y001090D03*
X010610Y001090D03*
X010600Y001090D03*
X010590Y001090D03*
X010580Y001090D03*
X010570Y001090D03*
X010560Y001090D03*
X010550Y001090D03*
X010540Y001090D03*
X010530Y001090D03*
X010520Y001090D03*
X010510Y001090D03*
X010500Y001090D03*
X010490Y001090D03*
X010480Y001090D03*
X010470Y001090D03*
X010460Y001090D03*
X010450Y001090D03*
X010440Y001090D03*
X010430Y001090D03*
X012660Y010590D03*
X012650Y010600D03*
D228*
X012200Y009930D03*
X012210Y009920D03*
X011810Y009660D03*
X011400Y009690D03*
X011380Y009680D03*
X011370Y009680D03*
X011360Y009670D03*
X011350Y009670D03*
X011340Y009660D03*
X010990Y009960D03*
X010980Y009950D03*
X010970Y009940D03*
X010110Y009320D03*
X009930Y009250D03*
X009680Y009520D03*
X009670Y009520D03*
X009660Y009520D03*
X010950Y008820D03*
X010960Y008810D03*
X010970Y008800D03*
X011320Y009100D03*
X011650Y009060D03*
X011830Y009110D03*
X012190Y008790D03*
X012200Y008800D03*
X012210Y008810D03*
X012190Y007860D03*
X012200Y007850D03*
X010980Y007860D03*
X010970Y007850D03*
X010960Y007840D03*
X009980Y007520D03*
X009820Y007520D03*
X010960Y006720D03*
X010970Y006710D03*
X010980Y006700D03*
X010990Y005790D03*
X010980Y005780D03*
X010970Y005770D03*
X012010Y005190D03*
X012020Y005190D03*
X012030Y005190D03*
X012040Y005190D03*
X012050Y005190D03*
X012060Y005190D03*
X012070Y005190D03*
X012080Y005190D03*
X012090Y005190D03*
X012200Y005760D03*
X012190Y005770D03*
X012180Y005780D03*
X012200Y006710D03*
X009910Y005160D03*
X009690Y005210D03*
X010960Y004630D03*
X010970Y004620D03*
X010980Y004610D03*
X012190Y004620D03*
X012200Y004630D03*
X012210Y004640D03*
X011730Y003740D03*
X011710Y003750D03*
X011690Y003760D03*
X011680Y003760D03*
X011670Y003770D03*
X011660Y003770D03*
X011640Y003780D03*
X010760Y003770D03*
X010740Y003760D03*
X010730Y003760D03*
X010720Y003750D03*
X010710Y003750D03*
X010700Y003740D03*
X010680Y003730D03*
X011020Y002900D03*
X011000Y002570D03*
X011410Y002900D03*
X011410Y002180D03*
X011030Y002170D03*
X011020Y002180D03*
X010770Y001680D03*
X010760Y001680D03*
X010750Y001690D03*
X010740Y001690D03*
X010720Y001700D03*
X010780Y001670D03*
X010790Y001670D03*
X010810Y001660D03*
X011620Y001660D03*
X011640Y001670D03*
X011650Y001670D03*
X011660Y001680D03*
X011670Y001680D03*
X011680Y001690D03*
X011690Y001690D03*
X011710Y001700D03*
D229*
X011400Y003305D03*
X011410Y004365D03*
X011370Y004375D03*
X011360Y004375D03*
X011340Y004385D03*
X011330Y004385D03*
X011320Y004385D03*
X011310Y004395D03*
X011300Y004395D03*
X011290Y004395D03*
X011280Y004405D03*
X011270Y004405D03*
X011250Y004415D03*
X011230Y004425D03*
X011750Y004365D03*
X011790Y004375D03*
X011800Y004375D03*
X011820Y004385D03*
X011830Y004385D03*
X011840Y004385D03*
X011850Y004395D03*
X011860Y004395D03*
X011870Y004395D03*
X011880Y004405D03*
X011890Y004405D03*
X011900Y004415D03*
X011910Y004415D03*
X011930Y004425D03*
X010050Y004875D03*
X009970Y004875D03*
X009730Y004875D03*
X009960Y005165D03*
X009970Y005165D03*
X010100Y005395D03*
X010110Y005395D03*
X011230Y005965D03*
X011240Y005965D03*
X011260Y005975D03*
X011280Y005985D03*
X011290Y005985D03*
X011300Y005995D03*
X011310Y005995D03*
X011320Y005995D03*
X011340Y006005D03*
X011350Y006005D03*
X011390Y006015D03*
X011770Y006015D03*
X011810Y006005D03*
X011820Y006005D03*
X011840Y005995D03*
X011850Y005995D03*
X011860Y005995D03*
X011870Y005985D03*
X011880Y005985D03*
X011890Y005975D03*
X011900Y005975D03*
X011920Y005965D03*
X011810Y006465D03*
X011800Y006465D03*
X011770Y006455D03*
X011400Y006455D03*
X011390Y006455D03*
X011360Y006465D03*
X011350Y006465D03*
X011330Y006475D03*
X011320Y006475D03*
X011310Y006475D03*
X011300Y006485D03*
X011290Y006485D03*
X011270Y006495D03*
X011250Y006505D03*
X010090Y006985D03*
X010120Y007275D03*
X009750Y007525D03*
X009670Y007275D03*
X009690Y006935D03*
X009700Y006935D03*
X011840Y007415D03*
X011940Y008045D03*
X011920Y008055D03*
X011910Y008055D03*
X011890Y008065D03*
X011880Y008065D03*
X011870Y008075D03*
X011860Y008075D03*
X011840Y008085D03*
X011830Y008085D03*
X011800Y008095D03*
X011750Y008105D03*
X011780Y008545D03*
X011790Y008545D03*
X011820Y008555D03*
X011830Y008555D03*
X011850Y008565D03*
X011860Y008565D03*
X011870Y008575D03*
X011880Y008575D03*
X011900Y008585D03*
X011910Y008585D03*
X011930Y008595D03*
X011380Y008545D03*
X011350Y008555D03*
X011340Y008555D03*
X011330Y008555D03*
X011320Y008565D03*
X011310Y008565D03*
X011300Y008565D03*
X011290Y008575D03*
X011280Y008575D03*
X011260Y008585D03*
X011240Y008595D03*
X010030Y009025D03*
X010020Y009025D03*
X010010Y009025D03*
X009740Y009035D03*
X010000Y009315D03*
X011230Y010135D03*
X011250Y010145D03*
X011260Y010145D03*
X011270Y010155D03*
X011280Y010155D03*
X011290Y010155D03*
X011300Y010165D03*
X011310Y010165D03*
X011330Y010175D03*
X011340Y010175D03*
X011380Y010185D03*
X011780Y010185D03*
X011820Y010175D03*
X011830Y010175D03*
X011850Y010165D03*
X011860Y010165D03*
X011870Y010155D03*
X011880Y010155D03*
X011890Y010155D03*
X011900Y010145D03*
X011910Y010145D03*
X011930Y010135D03*
D230*
X010110Y008275D03*
X009670Y008275D03*
X010000Y006145D03*
X010010Y006145D03*
X010110Y002725D03*
D231*
X012600Y001095D03*
X012610Y001095D03*
X012620Y001095D03*
X012630Y001095D03*
X010020Y005395D03*
X009860Y006885D03*
X009930Y007035D03*
X009930Y007225D03*
X009940Y007225D03*
X009950Y007225D03*
X009920Y007225D03*
X009910Y007225D03*
X009900Y007225D03*
X009890Y007225D03*
X009880Y007225D03*
X009870Y007225D03*
X009860Y007225D03*
X009850Y007225D03*
X009840Y007225D03*
X009720Y007525D03*
X011370Y007085D03*
X009800Y009285D03*
X009680Y009245D03*
X009670Y009235D03*
X010430Y010605D03*
X010440Y010605D03*
X010450Y010605D03*
X010460Y010605D03*
X010470Y010605D03*
X010480Y010605D03*
X010490Y010605D03*
X010500Y010605D03*
X010510Y010605D03*
X010520Y010605D03*
X010530Y010605D03*
X010540Y010605D03*
X010550Y010605D03*
X010560Y010605D03*
X010570Y010605D03*
X010580Y010605D03*
X010590Y010605D03*
X010600Y010605D03*
X010610Y010605D03*
X010620Y010605D03*
X010630Y010605D03*
X010640Y010605D03*
X010650Y010605D03*
X010660Y010605D03*
X010670Y010605D03*
X010680Y010605D03*
X010690Y010605D03*
X010700Y010605D03*
X010710Y010605D03*
X010720Y010605D03*
X010730Y010605D03*
X010740Y010605D03*
X010750Y010605D03*
X010760Y010605D03*
X010770Y010605D03*
X010780Y010605D03*
X010790Y010605D03*
X010800Y010605D03*
X010810Y010605D03*
X010820Y010605D03*
X010830Y010605D03*
X010840Y010605D03*
X010850Y010605D03*
X010860Y010605D03*
X010870Y010605D03*
X010880Y010605D03*
X010890Y010605D03*
X010900Y010605D03*
X010910Y010605D03*
X010920Y010605D03*
X010930Y010605D03*
X010940Y010605D03*
X010950Y010605D03*
X010960Y010605D03*
X010970Y010605D03*
X010980Y010605D03*
X010990Y010605D03*
X011000Y010605D03*
X011010Y010605D03*
X011020Y010605D03*
X011030Y010605D03*
X011040Y010605D03*
X011050Y010605D03*
X011060Y010605D03*
X011070Y010605D03*
X011080Y010605D03*
X011090Y010605D03*
X011100Y010605D03*
X011110Y010605D03*
X011120Y010605D03*
X011130Y010605D03*
X011140Y010605D03*
X011150Y010605D03*
X011160Y010605D03*
X011170Y010605D03*
X011180Y010605D03*
X011190Y010605D03*
X011200Y010605D03*
X011210Y010605D03*
X011220Y010605D03*
X011230Y010605D03*
X011240Y010605D03*
X011250Y010605D03*
X011260Y010605D03*
X011270Y010605D03*
X011280Y010605D03*
X011290Y010605D03*
X011300Y010605D03*
X011310Y010605D03*
X011320Y010605D03*
X011330Y010605D03*
X011340Y010605D03*
X011350Y010605D03*
X011360Y010605D03*
X011370Y010605D03*
X011380Y010605D03*
X011390Y010605D03*
X011400Y010605D03*
X011410Y010605D03*
X011420Y010605D03*
X011430Y010605D03*
X011440Y010605D03*
X011450Y010605D03*
X011460Y010605D03*
X011470Y010605D03*
X011480Y010605D03*
X011490Y010605D03*
X011500Y010605D03*
X011510Y010605D03*
X011520Y010605D03*
X011530Y010605D03*
X011540Y010605D03*
X011550Y010605D03*
X011560Y010605D03*
X011570Y010605D03*
X011580Y010605D03*
X011590Y010605D03*
X011600Y010605D03*
X011610Y010605D03*
X011620Y010605D03*
X011630Y010605D03*
X011640Y010605D03*
X011650Y010605D03*
X011660Y010605D03*
X011670Y010605D03*
X011680Y010605D03*
X011690Y010605D03*
X011700Y010605D03*
X011710Y010605D03*
X011720Y010605D03*
X011730Y010605D03*
X011740Y010605D03*
X011750Y010605D03*
X011760Y010605D03*
X011770Y010605D03*
X011780Y010605D03*
X011790Y010605D03*
X011800Y010605D03*
X011810Y010605D03*
X011820Y010605D03*
X011830Y010605D03*
X011840Y010605D03*
X011850Y010605D03*
X011860Y010605D03*
X011870Y010605D03*
X011880Y010605D03*
X011890Y010605D03*
X011900Y010605D03*
X011910Y010605D03*
X011920Y010605D03*
X011930Y010605D03*
X011940Y010605D03*
X011950Y010605D03*
X011960Y010605D03*
X011970Y010605D03*
X011980Y010605D03*
X011990Y010605D03*
X012000Y010605D03*
X012010Y010605D03*
X012020Y010605D03*
X012030Y010605D03*
X012040Y010605D03*
X012050Y010605D03*
X012060Y010605D03*
X012070Y010605D03*
X012080Y010605D03*
X012090Y010605D03*
X012100Y010605D03*
X012110Y010605D03*
X012120Y010605D03*
X012130Y010605D03*
X012140Y010605D03*
X012150Y010605D03*
X012160Y010605D03*
X012170Y010605D03*
X012180Y010605D03*
X012190Y010605D03*
X012200Y010605D03*
X012210Y010605D03*
X012220Y010605D03*
X012230Y010605D03*
X012240Y010605D03*
X012250Y010605D03*
X012260Y010605D03*
X012270Y010605D03*
X012280Y010605D03*
X012290Y010605D03*
X012300Y010605D03*
X012310Y010605D03*
X012320Y010605D03*
X012330Y010605D03*
X012340Y010605D03*
X012350Y010605D03*
X012360Y010605D03*
X012370Y010605D03*
X012380Y010605D03*
X012390Y010605D03*
X012400Y010605D03*
X012410Y010605D03*
X012420Y010605D03*
X012430Y010605D03*
X012440Y010605D03*
X012450Y010605D03*
X012460Y010605D03*
X012470Y010605D03*
X012480Y010605D03*
X012490Y010605D03*
X012500Y010605D03*
X012510Y010605D03*
X012520Y010605D03*
X012530Y010605D03*
X012540Y010605D03*
X012550Y010605D03*
X012560Y010605D03*
X012570Y010605D03*
X012580Y010605D03*
X012590Y010605D03*
X012600Y010605D03*
X012610Y010605D03*
X012620Y010605D03*
X012630Y010605D03*
X012640Y010605D03*
D232*
X011840Y010170D03*
X011810Y010180D03*
X011800Y010180D03*
X011790Y010180D03*
X011770Y010190D03*
X011760Y010190D03*
X011750Y010190D03*
X011740Y010190D03*
X011730Y010200D03*
X011720Y010200D03*
X011710Y010200D03*
X011700Y010200D03*
X011690Y010200D03*
X011680Y010200D03*
X011670Y010200D03*
X011630Y010210D03*
X011620Y010210D03*
X011610Y010210D03*
X011600Y010210D03*
X011590Y010210D03*
X011580Y010210D03*
X011570Y010210D03*
X011560Y010210D03*
X011550Y010210D03*
X011540Y010210D03*
X011490Y010200D03*
X011480Y010200D03*
X011470Y010200D03*
X011460Y010200D03*
X011450Y010200D03*
X011440Y010200D03*
X011420Y010190D03*
X011410Y010190D03*
X011400Y010190D03*
X011390Y010190D03*
X011370Y010180D03*
X011360Y010180D03*
X011350Y010180D03*
X011320Y010170D03*
X010020Y009320D03*
X010010Y009320D03*
X009900Y009280D03*
X010040Y009020D03*
X011360Y008550D03*
X011370Y008550D03*
X011390Y008540D03*
X011400Y008540D03*
X011410Y008540D03*
X011420Y008540D03*
X011430Y008530D03*
X011440Y008530D03*
X011450Y008530D03*
X011460Y008530D03*
X011470Y008530D03*
X011480Y008530D03*
X011490Y008530D03*
X011510Y008520D03*
X011520Y008520D03*
X011530Y008520D03*
X011540Y008520D03*
X011550Y008520D03*
X011560Y008520D03*
X011570Y008520D03*
X011580Y008520D03*
X011590Y008520D03*
X011600Y008520D03*
X011610Y008520D03*
X011620Y008520D03*
X011630Y008520D03*
X011640Y008520D03*
X011650Y008520D03*
X011670Y008530D03*
X011680Y008530D03*
X011690Y008530D03*
X011700Y008530D03*
X011710Y008530D03*
X011720Y008530D03*
X011730Y008530D03*
X011740Y008540D03*
X011750Y008540D03*
X011760Y008540D03*
X011770Y008540D03*
X011800Y008550D03*
X011810Y008550D03*
X011840Y008560D03*
X011740Y008110D03*
X011730Y008110D03*
X011720Y008110D03*
X011710Y008110D03*
X011700Y008110D03*
X011690Y008110D03*
X011680Y008120D03*
X011670Y008120D03*
X011660Y008120D03*
X011650Y008120D03*
X011640Y008120D03*
X011630Y008120D03*
X011620Y008120D03*
X011610Y008120D03*
X011600Y008120D03*
X011590Y008120D03*
X011580Y008120D03*
X011570Y008120D03*
X011560Y008120D03*
X011550Y008120D03*
X011540Y008120D03*
X011530Y008120D03*
X011520Y008120D03*
X011510Y008120D03*
X011500Y008120D03*
X011490Y008120D03*
X011480Y008120D03*
X011460Y008110D03*
X011450Y008110D03*
X011440Y008110D03*
X011430Y008110D03*
X011420Y008110D03*
X011410Y008110D03*
X011400Y008100D03*
X011390Y008100D03*
X011760Y008100D03*
X011770Y008100D03*
X011780Y008100D03*
X011790Y008100D03*
X011810Y008090D03*
X011820Y008090D03*
X011850Y008080D03*
X011610Y009060D03*
X010040Y007520D03*
X010110Y007270D03*
X010080Y006990D03*
X010070Y006990D03*
X009720Y006930D03*
X009710Y006930D03*
X009680Y007270D03*
X011340Y006470D03*
X011370Y006460D03*
X011380Y006460D03*
X011410Y006450D03*
X011420Y006450D03*
X011430Y006450D03*
X011440Y006450D03*
X011460Y006440D03*
X011470Y006440D03*
X011480Y006440D03*
X011490Y006440D03*
X011500Y006440D03*
X011510Y006440D03*
X011520Y006440D03*
X011530Y006440D03*
X011540Y006440D03*
X011550Y006440D03*
X011620Y006440D03*
X011630Y006440D03*
X011640Y006440D03*
X011650Y006440D03*
X011660Y006440D03*
X011670Y006440D03*
X011680Y006440D03*
X011690Y006440D03*
X011700Y006440D03*
X011710Y006440D03*
X011720Y006450D03*
X011730Y006450D03*
X011740Y006450D03*
X011750Y006450D03*
X011760Y006450D03*
X011780Y006460D03*
X011790Y006460D03*
X011820Y006470D03*
X011710Y006030D03*
X011700Y006030D03*
X011690Y006030D03*
X011680Y006030D03*
X011670Y006030D03*
X011660Y006030D03*
X011650Y006030D03*
X011640Y006030D03*
X011630Y006030D03*
X011620Y006030D03*
X011610Y006030D03*
X011600Y006030D03*
X011550Y006030D03*
X011540Y006030D03*
X011530Y006030D03*
X011520Y006030D03*
X011510Y006030D03*
X011500Y006030D03*
X011490Y006030D03*
X011480Y006030D03*
X011470Y006030D03*
X011460Y006030D03*
X011450Y006030D03*
X011440Y006020D03*
X011430Y006020D03*
X011420Y006020D03*
X011410Y006020D03*
X011400Y006020D03*
X011380Y006010D03*
X011370Y006010D03*
X011360Y006010D03*
X011330Y006000D03*
X011720Y006020D03*
X011730Y006020D03*
X011740Y006020D03*
X011750Y006020D03*
X011760Y006020D03*
X011780Y006010D03*
X011790Y006010D03*
X011800Y006010D03*
X011830Y006000D03*
X011950Y005190D03*
X011810Y004380D03*
X011780Y004370D03*
X011770Y004370D03*
X011760Y004370D03*
X011740Y004360D03*
X011730Y004360D03*
X011720Y004360D03*
X011710Y004360D03*
X011700Y004360D03*
X011690Y004360D03*
X011680Y004350D03*
X011670Y004350D03*
X011660Y004350D03*
X011650Y004350D03*
X011640Y004350D03*
X011630Y004350D03*
X011620Y004350D03*
X011610Y004350D03*
X011600Y004350D03*
X011590Y004350D03*
X011580Y004350D03*
X011570Y004350D03*
X011560Y004350D03*
X011550Y004350D03*
X011540Y004350D03*
X011530Y004350D03*
X011520Y004350D03*
X011510Y004350D03*
X011500Y004350D03*
X011490Y004350D03*
X011480Y004350D03*
X011470Y004360D03*
X011460Y004360D03*
X011450Y004360D03*
X011440Y004360D03*
X011430Y004360D03*
X011420Y004360D03*
X011400Y004370D03*
X011390Y004370D03*
X011380Y004370D03*
X011350Y004380D03*
X009960Y004870D03*
X011400Y002580D03*
D233*
X012330Y002725D03*
X009930Y004095D03*
X010040Y006155D03*
X010100Y008275D03*
X009680Y008275D03*
D234*
X009690Y003750D03*
D235*
X011390Y003300D03*
X011390Y002580D03*
X009950Y004860D03*
X010000Y005160D03*
X011940Y005190D03*
X012150Y005190D03*
X010050Y007000D03*
X010040Y007000D03*
X010090Y007260D03*
X010050Y007520D03*
X009700Y007260D03*
X009690Y007260D03*
X009740Y006920D03*
X009750Y006920D03*
X011600Y009060D03*
D236*
X010090Y008275D03*
X009690Y008275D03*
X010070Y006165D03*
X010080Y006165D03*
X009940Y004105D03*
X010100Y002725D03*
X009790Y001615D03*
D237*
X011360Y002560D03*
X011070Y002580D03*
X011070Y003300D03*
X011360Y003280D03*
X010010Y005390D03*
X009880Y006880D03*
X009870Y006880D03*
X009910Y007040D03*
X009920Y007040D03*
X009710Y009040D03*
X009690Y009250D03*
X009760Y009280D03*
X009770Y009280D03*
X009790Y009290D03*
X009920Y009520D03*
X009930Y009520D03*
X009940Y009520D03*
X011560Y009060D03*
D238*
X009910Y008125D03*
X009700Y001785D03*
D239*
X009700Y003800D03*
D240*
X010750Y003765D03*
X010770Y003775D03*
X010780Y003775D03*
X010790Y003785D03*
X010800Y003785D03*
X010810Y003795D03*
X010820Y003795D03*
X010830Y003795D03*
X010840Y003805D03*
X010850Y003805D03*
X010860Y003805D03*
X010880Y003815D03*
X010890Y003815D03*
X010920Y003825D03*
X011460Y003835D03*
X011500Y003825D03*
X011540Y003815D03*
X011570Y003805D03*
X011580Y003805D03*
X011590Y003795D03*
X011600Y003795D03*
X011610Y003795D03*
X011620Y003785D03*
X011630Y003785D03*
X011650Y003775D03*
X011420Y003305D03*
X011400Y002895D03*
X011390Y002885D03*
X011370Y002875D03*
X011420Y002585D03*
X011060Y002875D03*
X011040Y002885D03*
X011030Y002895D03*
X011040Y002165D03*
X011050Y002155D03*
X011060Y002155D03*
X011370Y002155D03*
X011390Y002165D03*
X011400Y002175D03*
X011570Y001645D03*
X011580Y001645D03*
X011590Y001645D03*
X011600Y001655D03*
X011610Y001655D03*
X011630Y001665D03*
X011560Y001635D03*
X011550Y001635D03*
X011540Y001635D03*
X011520Y001625D03*
X011510Y001625D03*
X011480Y001615D03*
X011470Y001615D03*
X010960Y001615D03*
X010950Y001615D03*
X010920Y001625D03*
X010910Y001625D03*
X010890Y001635D03*
X010880Y001635D03*
X010870Y001635D03*
X010860Y001645D03*
X010850Y001645D03*
X010840Y001645D03*
X010830Y001655D03*
X010820Y001655D03*
X010800Y001665D03*
X010990Y004595D03*
X010150Y005395D03*
X009930Y005155D03*
X009900Y005175D03*
X009710Y005215D03*
X009700Y005215D03*
X011000Y006675D03*
X010990Y006685D03*
X011980Y006555D03*
X012170Y006685D03*
X012180Y006695D03*
X012190Y006705D03*
X011990Y007295D03*
X011330Y007465D03*
X011170Y007275D03*
X010990Y007875D03*
X011000Y007885D03*
X011010Y007895D03*
X011230Y008025D03*
X011020Y008745D03*
X011010Y008755D03*
X011000Y008765D03*
X010990Y008775D03*
X010980Y008785D03*
X011330Y009095D03*
X011340Y009085D03*
X011370Y009075D03*
X011420Y009065D03*
X011780Y009085D03*
X011800Y009095D03*
X011810Y009095D03*
X011820Y009105D03*
X012170Y008765D03*
X012180Y008775D03*
X012170Y007875D03*
X012180Y007865D03*
X009990Y007515D03*
X009810Y007515D03*
X009800Y007515D03*
X012170Y005795D03*
X012180Y004605D03*
X012170Y004595D03*
X012160Y004585D03*
X011800Y009665D03*
X011790Y009675D03*
X011780Y009675D03*
X011770Y009685D03*
X011760Y009685D03*
X011740Y009695D03*
X011730Y009695D03*
X011700Y009705D03*
X011690Y009705D03*
X011650Y009715D03*
X011640Y009715D03*
X011630Y009715D03*
X011620Y009715D03*
X011610Y009715D03*
X011600Y009715D03*
X011590Y009715D03*
X011580Y009715D03*
X011570Y009715D03*
X011560Y009715D03*
X011550Y009715D03*
X011540Y009715D03*
X011530Y009715D03*
X011520Y009715D03*
X011510Y009715D03*
X011500Y009715D03*
X011490Y009715D03*
X011470Y009705D03*
X011460Y009705D03*
X011450Y009705D03*
X011440Y009705D03*
X011430Y009695D03*
X011420Y009695D03*
X011410Y009695D03*
X011390Y009685D03*
X011000Y009975D03*
X012150Y009985D03*
X012160Y009975D03*
X012170Y009965D03*
X012180Y009955D03*
X012190Y009945D03*
D241*
X009700Y008275D03*
X010100Y006175D03*
X010110Y006175D03*
X009960Y004115D03*
X012340Y002725D03*
X009800Y001605D03*
D242*
X010000Y005395D03*
X009890Y006875D03*
X009890Y007045D03*
X009900Y007045D03*
X011810Y007445D03*
X009780Y009285D03*
X009750Y009275D03*
X009740Y009275D03*
X009730Y009275D03*
X009720Y009265D03*
X009710Y009265D03*
X009700Y009255D03*
D243*
X009710Y008270D03*
X010070Y008280D03*
X010120Y006180D03*
X010130Y006180D03*
D244*
X009780Y006910D03*
X009770Y006910D03*
X010010Y007010D03*
X010060Y007250D03*
X009720Y007250D03*
X009730Y007520D03*
X011350Y007090D03*
X012000Y007290D03*
X011590Y009060D03*
X009870Y009290D03*
X009860Y009520D03*
X009850Y009520D03*
X009840Y009520D03*
X010060Y005390D03*
X010020Y005160D03*
X010140Y005090D03*
X012160Y005190D03*
X011050Y003310D03*
X011050Y002590D03*
D245*
X009730Y001710D03*
X009830Y004010D03*
X009830Y008420D03*
D246*
X009730Y009035D03*
X009890Y009285D03*
X010050Y009025D03*
X011500Y008525D03*
X011660Y008525D03*
X011470Y008115D03*
X011340Y007095D03*
X011450Y006445D03*
X011560Y006435D03*
X011570Y006435D03*
X011580Y006435D03*
X011590Y006435D03*
X011600Y006435D03*
X011610Y006435D03*
X011590Y006035D03*
X011580Y006035D03*
X011570Y006035D03*
X011560Y006035D03*
X010090Y005395D03*
X010080Y005395D03*
X009990Y005165D03*
X009980Y005165D03*
X010060Y004865D03*
X009860Y004865D03*
X011040Y003315D03*
X011040Y002595D03*
X010060Y006995D03*
X010100Y007265D03*
X009740Y007525D03*
X009730Y006925D03*
X011430Y010195D03*
X011500Y010205D03*
X011510Y010205D03*
X011520Y010205D03*
X011530Y010205D03*
X011640Y010205D03*
X011650Y010205D03*
X011660Y010205D03*
D247*
X012690Y010565D03*
X009860Y009285D03*
X011830Y007435D03*
X010050Y007245D03*
X010040Y007245D03*
X010000Y007015D03*
X009990Y007015D03*
X009800Y006905D03*
X009790Y006905D03*
X009740Y007245D03*
X009730Y007245D03*
X010050Y005395D03*
X010040Y005155D03*
X010030Y005155D03*
X011380Y003295D03*
X011600Y003105D03*
X011380Y002575D03*
X011600Y002385D03*
X010830Y002385D03*
X010830Y003105D03*
X012690Y001135D03*
D248*
X009740Y001690D03*
X009850Y004030D03*
X010150Y008270D03*
D249*
X010140Y008270D03*
X009890Y006110D03*
X009870Y004050D03*
X009750Y001670D03*
D250*
X009760Y001655D03*
X010120Y002725D03*
X009890Y004065D03*
X009940Y006125D03*
X010130Y008275D03*
D251*
X009990Y006140D03*
X009910Y004080D03*
X009770Y001640D03*
D252*
X009780Y001630D03*
X009920Y004090D03*
X010020Y006150D03*
X010030Y006150D03*
D253*
X009980Y006850D03*
X009970Y006850D03*
X009820Y007070D03*
X009960Y005390D03*
X011340Y003270D03*
X011340Y002550D03*
X011070Y009360D03*
X010020Y009520D03*
X010010Y009520D03*
D254*
X010000Y009525D03*
X009840Y007065D03*
X009830Y007065D03*
X009950Y006855D03*
X009960Y006855D03*
X009970Y005395D03*
X011090Y003285D03*
X011090Y002565D03*
D255*
X009840Y004020D03*
D256*
X009840Y008215D03*
D257*
X009850Y007060D03*
X009940Y006860D03*
X011390Y007080D03*
X011800Y007450D03*
X011540Y009060D03*
X009990Y009520D03*
X009980Y009520D03*
X011920Y005190D03*
D258*
X009990Y005395D03*
X009980Y005395D03*
X009930Y006865D03*
X009920Y006865D03*
X009870Y007055D03*
X009860Y007055D03*
X010070Y007525D03*
X011350Y003275D03*
X011350Y002555D03*
D259*
X012300Y002725D03*
X009880Y006105D03*
X009870Y006105D03*
D260*
X009900Y006115D03*
X009910Y006115D03*
X009880Y004055D03*
X010130Y002725D03*
D261*
X011080Y002570D03*
X011080Y003290D03*
X009910Y006870D03*
X009900Y006870D03*
X009880Y007050D03*
X011380Y007080D03*
X011550Y009060D03*
X009970Y009520D03*
X009960Y009520D03*
X009950Y009520D03*
D262*
X010120Y008275D03*
X009980Y006135D03*
X009970Y006135D03*
X009900Y004075D03*
X012320Y002725D03*
D263*
X009950Y004110D03*
X010090Y006170D03*
X010080Y008280D03*
D264*
X009950Y008110D03*
D265*
X010050Y006160D03*
X010060Y006160D03*
D266*
X010170Y005645D03*
D267*
X010180Y007220D03*
D268*
X010190Y007225D03*
D269*
X010200Y007230D03*
D270*
X010210Y007235D03*
X010220Y007235D03*
D271*
X010230Y007240D03*
D272*
X010240Y007245D03*
D273*
X010250Y007250D03*
D274*
X010260Y007255D03*
X010270Y007255D03*
D275*
X010280Y007260D03*
D276*
X010290Y007265D03*
X010300Y007265D03*
D277*
X010310Y007270D03*
D278*
X010320Y007275D03*
D279*
X010330Y007280D03*
X010340Y007280D03*
D280*
X010350Y007285D03*
X010360Y007285D03*
D281*
X010370Y007290D03*
D282*
X010380Y007295D03*
X010390Y007295D03*
D283*
X010400Y007300D03*
X010410Y007300D03*
D284*
X010420Y007305D03*
D285*
X012700Y005850D03*
D286*
X012710Y005855D03*
D287*
X012720Y005850D03*
D288*
X012730Y005850D03*
D289*
X012740Y005855D03*
D290*
X012750Y005850D03*
D291*
X012760Y005850D03*
D292*
X012770Y005850D03*
D293*
X012780Y005850D03*
M02*
