G75*
G70*
%OFA0B0*%
%FSLAX24Y24*%
%IPPOS*%
%LPD*%
%AMOC8*
5,1,8,0,0,1.08239X$1,22.5*
%
%ADD10C,0.0000*%
%ADD11R,0.0551X0.0394*%
%ADD12R,0.0433X0.0394*%
%ADD13R,0.0394X0.0433*%
%ADD14R,0.1181X0.0630*%
%ADD15R,0.2441X0.2283*%
%ADD16R,0.0138X0.0354*%
%ADD17R,0.0709X0.0827*%
%ADD18R,0.0866X0.0236*%
%ADD19R,0.0236X0.0394*%
%ADD20R,0.0394X0.0236*%
%ADD21R,0.0598X0.0701*%
%ADD22R,0.0512X0.0591*%
%ADD23R,0.0394X0.0551*%
%ADD24R,0.0200X0.0500*%
%ADD25R,0.1000X0.0900*%
%ADD26R,0.0480X0.0880*%
%ADD27R,0.1417X0.0866*%
%ADD28R,0.0591X0.0512*%
%ADD29OC8,0.0591*%
%ADD30C,0.0591*%
%ADD31R,0.0118X0.0630*%
%ADD32R,0.0787X0.2087*%
%ADD33R,0.0118X0.0591*%
%ADD34R,0.0591X0.0118*%
%ADD35C,0.1299*%
%ADD36C,0.1142*%
%ADD37C,0.1063*%
%ADD38C,0.1102*%
%ADD39R,0.0315X0.0315*%
%ADD40OC8,0.0600*%
%ADD41C,0.2000*%
%ADD42R,0.0630X0.0710*%
%ADD43OC8,0.0610*%
%ADD44R,0.0945X0.0669*%
%ADD45OC8,0.0787*%
%ADD46C,0.0400*%
%ADD47R,0.0984X0.1575*%
%ADD48R,0.0236X0.0866*%
%ADD49R,0.0800X0.0800*%
%ADD50R,0.0827X0.0709*%
%ADD51R,0.1516X0.2165*%
%ADD52R,0.0472X0.0217*%
%ADD53R,0.0591X0.0315*%
%ADD54C,0.0270*%
%ADD55C,0.0100*%
%ADD56C,0.0356*%
%ADD57C,0.0160*%
%ADD58C,0.0360*%
%ADD59C,0.0120*%
%ADD60C,0.0400*%
%ADD61C,0.0200*%
%ADD62C,0.0240*%
%ADD63C,0.0660*%
%ADD64C,0.0320*%
%ADD65C,0.0500*%
%ADD66C,0.0760*%
%ADD67C,0.1000*%
%ADD68C,0.1200*%
%ADD69C,0.0860*%
D10*
X000180Y000300D02*
X000180Y031800D01*
X057261Y031800D01*
X057261Y000300D01*
X000180Y000300D01*
X000735Y001480D02*
X000737Y001530D01*
X000743Y001579D01*
X000753Y001628D01*
X000766Y001675D01*
X000784Y001722D01*
X000805Y001767D01*
X000829Y001810D01*
X000857Y001851D01*
X000888Y001890D01*
X000922Y001926D01*
X000959Y001960D01*
X000999Y001990D01*
X001040Y002017D01*
X001084Y002041D01*
X001129Y002061D01*
X001176Y002077D01*
X001224Y002090D01*
X001273Y002099D01*
X001323Y002104D01*
X001372Y002105D01*
X001422Y002102D01*
X001471Y002095D01*
X001520Y002084D01*
X001567Y002070D01*
X001613Y002051D01*
X001658Y002029D01*
X001701Y002004D01*
X001741Y001975D01*
X001779Y001943D01*
X001815Y001909D01*
X001848Y001871D01*
X001877Y001831D01*
X001903Y001789D01*
X001926Y001745D01*
X001945Y001699D01*
X001961Y001652D01*
X001973Y001603D01*
X001981Y001554D01*
X001985Y001505D01*
X001985Y001455D01*
X001981Y001406D01*
X001973Y001357D01*
X001961Y001308D01*
X001945Y001261D01*
X001926Y001215D01*
X001903Y001171D01*
X001877Y001129D01*
X001848Y001089D01*
X001815Y001051D01*
X001779Y001017D01*
X001741Y000985D01*
X001701Y000956D01*
X001658Y000931D01*
X001613Y000909D01*
X001567Y000890D01*
X001520Y000876D01*
X001471Y000865D01*
X001422Y000858D01*
X001372Y000855D01*
X001323Y000856D01*
X001273Y000861D01*
X001224Y000870D01*
X001176Y000883D01*
X001129Y000899D01*
X001084Y000919D01*
X001040Y000943D01*
X000999Y000970D01*
X000959Y001000D01*
X000922Y001034D01*
X000888Y001070D01*
X000857Y001109D01*
X000829Y001150D01*
X000805Y001193D01*
X000784Y001238D01*
X000766Y001285D01*
X000753Y001332D01*
X000743Y001381D01*
X000737Y001430D01*
X000735Y001480D01*
X044836Y025400D02*
X044838Y025450D01*
X044844Y025499D01*
X044854Y025548D01*
X044867Y025595D01*
X044885Y025642D01*
X044906Y025687D01*
X044930Y025730D01*
X044958Y025771D01*
X044989Y025810D01*
X045023Y025846D01*
X045060Y025880D01*
X045100Y025910D01*
X045141Y025937D01*
X045185Y025961D01*
X045230Y025981D01*
X045277Y025997D01*
X045325Y026010D01*
X045374Y026019D01*
X045424Y026024D01*
X045473Y026025D01*
X045523Y026022D01*
X045572Y026015D01*
X045621Y026004D01*
X045668Y025990D01*
X045714Y025971D01*
X045759Y025949D01*
X045802Y025924D01*
X045842Y025895D01*
X045880Y025863D01*
X045916Y025829D01*
X045949Y025791D01*
X045978Y025751D01*
X046004Y025709D01*
X046027Y025665D01*
X046046Y025619D01*
X046062Y025572D01*
X046074Y025523D01*
X046082Y025474D01*
X046086Y025425D01*
X046086Y025375D01*
X046082Y025326D01*
X046074Y025277D01*
X046062Y025228D01*
X046046Y025181D01*
X046027Y025135D01*
X046004Y025091D01*
X045978Y025049D01*
X045949Y025009D01*
X045916Y024971D01*
X045880Y024937D01*
X045842Y024905D01*
X045802Y024876D01*
X045759Y024851D01*
X045714Y024829D01*
X045668Y024810D01*
X045621Y024796D01*
X045572Y024785D01*
X045523Y024778D01*
X045473Y024775D01*
X045424Y024776D01*
X045374Y024781D01*
X045325Y024790D01*
X045277Y024803D01*
X045230Y024819D01*
X045185Y024839D01*
X045141Y024863D01*
X045100Y024890D01*
X045060Y024920D01*
X045023Y024954D01*
X044989Y024990D01*
X044958Y025029D01*
X044930Y025070D01*
X044906Y025113D01*
X044885Y025158D01*
X044867Y025205D01*
X044854Y025252D01*
X044844Y025301D01*
X044838Y025350D01*
X044836Y025400D01*
X055456Y030610D02*
X055458Y030660D01*
X055464Y030709D01*
X055474Y030758D01*
X055487Y030805D01*
X055505Y030852D01*
X055526Y030897D01*
X055550Y030940D01*
X055578Y030981D01*
X055609Y031020D01*
X055643Y031056D01*
X055680Y031090D01*
X055720Y031120D01*
X055761Y031147D01*
X055805Y031171D01*
X055850Y031191D01*
X055897Y031207D01*
X055945Y031220D01*
X055994Y031229D01*
X056044Y031234D01*
X056093Y031235D01*
X056143Y031232D01*
X056192Y031225D01*
X056241Y031214D01*
X056288Y031200D01*
X056334Y031181D01*
X056379Y031159D01*
X056422Y031134D01*
X056462Y031105D01*
X056500Y031073D01*
X056536Y031039D01*
X056569Y031001D01*
X056598Y030961D01*
X056624Y030919D01*
X056647Y030875D01*
X056666Y030829D01*
X056682Y030782D01*
X056694Y030733D01*
X056702Y030684D01*
X056706Y030635D01*
X056706Y030585D01*
X056702Y030536D01*
X056694Y030487D01*
X056682Y030438D01*
X056666Y030391D01*
X056647Y030345D01*
X056624Y030301D01*
X056598Y030259D01*
X056569Y030219D01*
X056536Y030181D01*
X056500Y030147D01*
X056462Y030115D01*
X056422Y030086D01*
X056379Y030061D01*
X056334Y030039D01*
X056288Y030020D01*
X056241Y030006D01*
X056192Y029995D01*
X056143Y029988D01*
X056093Y029985D01*
X056044Y029986D01*
X055994Y029991D01*
X055945Y030000D01*
X055897Y030013D01*
X055850Y030029D01*
X055805Y030049D01*
X055761Y030073D01*
X055720Y030100D01*
X055680Y030130D01*
X055643Y030164D01*
X055609Y030200D01*
X055578Y030239D01*
X055550Y030280D01*
X055526Y030323D01*
X055505Y030368D01*
X055487Y030415D01*
X055474Y030462D01*
X055464Y030511D01*
X055458Y030560D01*
X055456Y030610D01*
X008216Y030610D02*
X008218Y030660D01*
X008224Y030709D01*
X008234Y030758D01*
X008247Y030805D01*
X008265Y030852D01*
X008286Y030897D01*
X008310Y030940D01*
X008338Y030981D01*
X008369Y031020D01*
X008403Y031056D01*
X008440Y031090D01*
X008480Y031120D01*
X008521Y031147D01*
X008565Y031171D01*
X008610Y031191D01*
X008657Y031207D01*
X008705Y031220D01*
X008754Y031229D01*
X008804Y031234D01*
X008853Y031235D01*
X008903Y031232D01*
X008952Y031225D01*
X009001Y031214D01*
X009048Y031200D01*
X009094Y031181D01*
X009139Y031159D01*
X009182Y031134D01*
X009222Y031105D01*
X009260Y031073D01*
X009296Y031039D01*
X009329Y031001D01*
X009358Y030961D01*
X009384Y030919D01*
X009407Y030875D01*
X009426Y030829D01*
X009442Y030782D01*
X009454Y030733D01*
X009462Y030684D01*
X009466Y030635D01*
X009466Y030585D01*
X009462Y030536D01*
X009454Y030487D01*
X009442Y030438D01*
X009426Y030391D01*
X009407Y030345D01*
X009384Y030301D01*
X009358Y030259D01*
X009329Y030219D01*
X009296Y030181D01*
X009260Y030147D01*
X009222Y030115D01*
X009182Y030086D01*
X009139Y030061D01*
X009094Y030039D01*
X009048Y030020D01*
X009001Y030006D01*
X008952Y029995D01*
X008903Y029988D01*
X008853Y029985D01*
X008804Y029986D01*
X008754Y029991D01*
X008705Y030000D01*
X008657Y030013D01*
X008610Y030029D01*
X008565Y030049D01*
X008521Y030073D01*
X008480Y030100D01*
X008440Y030130D01*
X008403Y030164D01*
X008369Y030200D01*
X008338Y030239D01*
X008310Y030280D01*
X008286Y030323D01*
X008265Y030368D01*
X008247Y030415D01*
X008234Y030462D01*
X008224Y030511D01*
X008218Y030560D01*
X008216Y030610D01*
X055456Y001480D02*
X055458Y001530D01*
X055464Y001579D01*
X055474Y001628D01*
X055487Y001675D01*
X055505Y001722D01*
X055526Y001767D01*
X055550Y001810D01*
X055578Y001851D01*
X055609Y001890D01*
X055643Y001926D01*
X055680Y001960D01*
X055720Y001990D01*
X055761Y002017D01*
X055805Y002041D01*
X055850Y002061D01*
X055897Y002077D01*
X055945Y002090D01*
X055994Y002099D01*
X056044Y002104D01*
X056093Y002105D01*
X056143Y002102D01*
X056192Y002095D01*
X056241Y002084D01*
X056288Y002070D01*
X056334Y002051D01*
X056379Y002029D01*
X056422Y002004D01*
X056462Y001975D01*
X056500Y001943D01*
X056536Y001909D01*
X056569Y001871D01*
X056598Y001831D01*
X056624Y001789D01*
X056647Y001745D01*
X056666Y001699D01*
X056682Y001652D01*
X056694Y001603D01*
X056702Y001554D01*
X056706Y001505D01*
X056706Y001455D01*
X056702Y001406D01*
X056694Y001357D01*
X056682Y001308D01*
X056666Y001261D01*
X056647Y001215D01*
X056624Y001171D01*
X056598Y001129D01*
X056569Y001089D01*
X056536Y001051D01*
X056500Y001017D01*
X056462Y000985D01*
X056422Y000956D01*
X056379Y000931D01*
X056334Y000909D01*
X056288Y000890D01*
X056241Y000876D01*
X056192Y000865D01*
X056143Y000858D01*
X056093Y000855D01*
X056044Y000856D01*
X055994Y000861D01*
X055945Y000870D01*
X055897Y000883D01*
X055850Y000899D01*
X055805Y000919D01*
X055761Y000943D01*
X055720Y000970D01*
X055680Y001000D01*
X055643Y001034D01*
X055609Y001070D01*
X055578Y001109D01*
X055550Y001150D01*
X055526Y001193D01*
X055505Y001238D01*
X055487Y001285D01*
X055474Y001332D01*
X055464Y001381D01*
X055458Y001430D01*
X055456Y001480D01*
D11*
X034295Y016426D03*
X033428Y016800D03*
X034295Y017174D03*
X048328Y024050D03*
X049195Y024424D03*
X049195Y023676D03*
X048645Y025976D03*
X047778Y026350D03*
X048645Y026724D03*
D12*
X046961Y023535D03*
X046961Y022865D03*
X046880Y021985D03*
X046880Y021315D03*
X044311Y021115D03*
X044311Y021785D03*
X044311Y022365D03*
X044311Y023035D03*
X050211Y021885D03*
X051061Y021885D03*
X051061Y021215D03*
X050211Y021215D03*
X051961Y021215D03*
X052811Y021215D03*
X052811Y021885D03*
X051961Y021885D03*
X053711Y021885D03*
X054561Y021885D03*
X054561Y021215D03*
X053711Y021215D03*
X055511Y021215D03*
X055511Y021885D03*
X056361Y021885D03*
X056361Y021215D03*
X048311Y017135D03*
X048311Y016465D03*
X049911Y016535D03*
X049911Y015865D03*
X048161Y014885D03*
X048161Y014215D03*
X043980Y015465D03*
X043980Y016135D03*
X039836Y018365D03*
X039836Y019035D03*
X038961Y019035D03*
X038961Y018365D03*
X035761Y018285D03*
X035761Y017615D03*
X035411Y016985D03*
X035411Y016315D03*
X033161Y017915D03*
X032311Y017915D03*
X032311Y018585D03*
X033161Y018585D03*
X034411Y018915D03*
X034411Y019585D03*
X035261Y019265D03*
X035261Y019935D03*
X033911Y022865D03*
X033911Y023535D03*
X033011Y023535D03*
X033011Y022865D03*
X032261Y024615D03*
X032261Y025285D03*
X035011Y025315D03*
X035011Y025985D03*
X028855Y025985D03*
X028855Y025315D03*
X028030Y022685D03*
X028030Y022015D03*
X022661Y016085D03*
X022661Y015415D03*
X020611Y015415D03*
X020611Y016085D03*
X020811Y013235D03*
X020811Y012565D03*
X020011Y012565D03*
X020011Y013235D03*
X022711Y013135D03*
X022711Y012465D03*
X021211Y009885D03*
X020411Y009885D03*
X020411Y009215D03*
X021211Y009215D03*
X027911Y008635D03*
X027911Y007965D03*
X029961Y008215D03*
X029961Y008885D03*
X036630Y011615D03*
X036630Y012285D03*
X046211Y010135D03*
X046211Y009465D03*
X046211Y003885D03*
X046211Y003215D03*
X044961Y003215D03*
X044961Y003885D03*
X043561Y003935D03*
X043561Y003265D03*
X042261Y003265D03*
X042261Y003935D03*
X040961Y003935D03*
X040961Y003265D03*
X039661Y003015D03*
X039661Y003685D03*
X038311Y003685D03*
X038311Y003015D03*
X036961Y003015D03*
X036961Y003685D03*
X032561Y003765D03*
X032561Y004435D03*
X015711Y020065D03*
X015711Y020735D03*
X016011Y024265D03*
X016011Y024935D03*
D13*
X026577Y022800D03*
X027246Y022800D03*
X027595Y021375D03*
X028265Y021375D03*
X031227Y020700D03*
X031896Y020700D03*
X032577Y020600D03*
X033246Y020600D03*
X032927Y019750D03*
X033596Y019750D03*
X034477Y020850D03*
X035146Y020850D03*
X032546Y021800D03*
X031877Y021800D03*
X028865Y024550D03*
X028195Y024550D03*
X027746Y026400D03*
X027077Y026400D03*
X038477Y027350D03*
X039146Y027350D03*
X046977Y024200D03*
X047646Y024200D03*
X048277Y022800D03*
X048946Y022800D03*
X048183Y020350D03*
X047514Y020350D03*
X044796Y020200D03*
X044127Y020200D03*
X039896Y016300D03*
X039227Y016300D03*
X045545Y015600D03*
X046215Y015600D03*
X045446Y010950D03*
X044777Y010950D03*
X042496Y007950D03*
X041827Y007950D03*
X040996Y007950D03*
X040327Y007950D03*
X039596Y007950D03*
X038927Y007950D03*
X038196Y007950D03*
X037527Y007950D03*
X034396Y004600D03*
X033727Y004600D03*
X036277Y004450D03*
X036946Y004450D03*
X035446Y001400D03*
X034777Y001400D03*
X033896Y001400D03*
X033227Y001400D03*
X022546Y008400D03*
X021877Y008400D03*
X033045Y012300D03*
X033715Y012300D03*
X034995Y012300D03*
X035665Y012300D03*
X032646Y016950D03*
X031977Y016950D03*
X019496Y015000D03*
X018827Y015000D03*
X047327Y004900D03*
X047996Y004900D03*
X051302Y007425D03*
X051971Y007425D03*
X052827Y007350D03*
X053496Y007350D03*
X054127Y007350D03*
X054796Y007350D03*
X055427Y007800D03*
X056096Y007800D03*
X056096Y008650D03*
X055427Y008650D03*
X051971Y008325D03*
X051302Y008325D03*
X050146Y025650D03*
X049477Y025650D03*
X049477Y026700D03*
X050146Y026700D03*
D14*
X022121Y023898D03*
X022121Y022102D03*
X022121Y020648D03*
X022121Y018852D03*
D15*
X024948Y019750D03*
X024948Y023000D03*
D16*
X026556Y021944D03*
X026811Y021944D03*
X027067Y021944D03*
X027067Y021156D03*
X026811Y021156D03*
X026556Y021156D03*
X027056Y024756D03*
X027311Y024756D03*
X027567Y024756D03*
X027567Y025544D03*
X027311Y025544D03*
X027056Y025544D03*
X021917Y015994D03*
X021661Y015994D03*
X021406Y015994D03*
X021406Y015206D03*
X021661Y015206D03*
X021917Y015206D03*
X022017Y012994D03*
X021761Y012994D03*
X021506Y012994D03*
X021506Y012206D03*
X021761Y012206D03*
X022017Y012206D03*
X022106Y010044D03*
X022361Y010044D03*
X022617Y010044D03*
X022617Y009256D03*
X022361Y009256D03*
X022106Y009256D03*
X048906Y014006D03*
X049161Y014006D03*
X049417Y014006D03*
X049417Y014794D03*
X049161Y014794D03*
X048906Y014794D03*
D17*
X051561Y025034D03*
X052961Y025034D03*
X054361Y025034D03*
X055761Y025084D03*
X055761Y026816D03*
X054361Y026766D03*
X052961Y026766D03*
X051561Y026766D03*
X029911Y021266D03*
X029911Y019534D03*
D18*
X026085Y017850D03*
X026085Y017350D03*
X026085Y016850D03*
X026085Y016350D03*
X024038Y016350D03*
X024038Y016850D03*
X024038Y017350D03*
X024038Y017850D03*
X044738Y014850D03*
X044738Y014350D03*
X044738Y013850D03*
X044738Y013350D03*
X046785Y013350D03*
X046785Y013850D03*
X046785Y014350D03*
X046785Y014850D03*
X035585Y003750D03*
X035585Y003250D03*
X035585Y002750D03*
X035585Y002250D03*
X033538Y002250D03*
X033538Y002750D03*
X033538Y003250D03*
X033538Y003750D03*
D19*
X031461Y017717D03*
X031461Y018583D03*
D20*
X044778Y011950D03*
X045645Y011950D03*
D21*
X047881Y003850D03*
X047881Y002850D03*
X051841Y002850D03*
X051841Y003850D03*
D22*
X050036Y007350D03*
X049287Y007350D03*
X055487Y009550D03*
X056236Y009550D03*
X056236Y010500D03*
X055487Y010500D03*
X049236Y013050D03*
X048487Y013050D03*
X050037Y017550D03*
X050786Y017550D03*
X051937Y017550D03*
X052686Y017550D03*
X053837Y017550D03*
X054586Y017550D03*
X055737Y017550D03*
X056486Y017550D03*
X056486Y018600D03*
X055737Y018600D03*
X054586Y018600D03*
X053837Y018600D03*
X052686Y018600D03*
X051937Y018600D03*
X050786Y018600D03*
X050037Y018600D03*
X050037Y019650D03*
X050786Y019650D03*
X051937Y019650D03*
X052686Y019650D03*
X053837Y019650D03*
X054586Y019650D03*
X055737Y019650D03*
X056486Y019650D03*
X027136Y009300D03*
X026387Y009300D03*
X015204Y006000D03*
X014456Y006000D03*
X014606Y002700D03*
X015354Y002700D03*
X015354Y001700D03*
X014606Y001700D03*
D23*
X050387Y023067D03*
X051136Y023067D03*
X052037Y023067D03*
X052786Y023067D03*
X053687Y023067D03*
X054436Y023067D03*
X055337Y023067D03*
X056086Y023067D03*
X055711Y023933D03*
X054061Y023933D03*
X052411Y023933D03*
X050761Y023933D03*
X033886Y024617D03*
X033137Y024617D03*
X033511Y025483D03*
D24*
X030961Y022650D03*
X030461Y022650D03*
X029961Y022650D03*
D25*
X030461Y026950D03*
D26*
X045102Y016680D03*
X046011Y016680D03*
X046921Y016680D03*
D27*
X046011Y019120D03*
D28*
X047961Y019224D03*
X047961Y018476D03*
X050911Y010424D03*
X050911Y009676D03*
X051811Y009676D03*
X051811Y010424D03*
X014830Y023976D03*
X013630Y023976D03*
X013630Y024724D03*
X014830Y024724D03*
D29*
X021511Y028250D03*
X022511Y028250D03*
X023511Y028250D03*
X024511Y028250D03*
X025511Y028250D03*
X026511Y028250D03*
X027511Y028250D03*
X028511Y028250D03*
X028511Y029250D03*
X027511Y029250D03*
X026511Y029250D03*
X025511Y029250D03*
X024511Y029250D03*
X023511Y029250D03*
X022511Y029250D03*
X021511Y029250D03*
X030211Y029250D03*
X031211Y029250D03*
X032211Y029250D03*
X033211Y029250D03*
X034211Y029250D03*
X035211Y029250D03*
X036211Y029250D03*
X037211Y029250D03*
X037211Y028250D03*
X036211Y028250D03*
X035211Y028250D03*
X034211Y028250D03*
X033211Y028250D03*
X032211Y028250D03*
X031211Y028250D03*
X030211Y028250D03*
X038961Y028250D03*
X039961Y028250D03*
X040961Y028250D03*
X041961Y028250D03*
X042961Y028250D03*
X043961Y028250D03*
X044961Y028250D03*
X045961Y028250D03*
X047661Y028250D03*
X048661Y028250D03*
X049661Y028250D03*
X050661Y028250D03*
X051661Y028250D03*
X052661Y028250D03*
X053661Y028250D03*
X054661Y028250D03*
X054661Y029250D03*
X053661Y029250D03*
X052661Y029250D03*
X051661Y029250D03*
X050661Y029250D03*
X049661Y029250D03*
X048661Y029250D03*
X047661Y029250D03*
X045961Y029250D03*
X044961Y029250D03*
X043961Y029250D03*
X042961Y029250D03*
X041961Y029250D03*
X040961Y029250D03*
X039961Y029250D03*
X038961Y029250D03*
X030211Y017600D03*
X029211Y017600D03*
X028211Y017600D03*
X028211Y016600D03*
X029211Y016600D03*
X030211Y016600D03*
X040111Y011000D03*
X041111Y011000D03*
X041111Y010000D03*
X040111Y010000D03*
X040111Y009000D03*
X041111Y009000D03*
X041461Y006900D03*
X042461Y006900D03*
X043461Y006900D03*
X043461Y005900D03*
X042461Y005900D03*
X041461Y005900D03*
X040461Y005900D03*
X039461Y005900D03*
X038461Y005900D03*
X037461Y005900D03*
X036461Y005900D03*
X035461Y005900D03*
X034461Y005900D03*
X033461Y005900D03*
X032461Y005900D03*
X031461Y005900D03*
X030461Y005900D03*
X029461Y005900D03*
X028461Y005900D03*
X027461Y005900D03*
X026461Y005900D03*
X025461Y005900D03*
X024461Y005900D03*
X023461Y005900D03*
X022461Y005900D03*
X021461Y005900D03*
X021461Y006900D03*
X022461Y006900D03*
X023461Y006900D03*
X024461Y006900D03*
X025461Y006900D03*
X026461Y006900D03*
X027461Y006900D03*
X028461Y006900D03*
X029461Y006900D03*
X030461Y006900D03*
X031461Y006900D03*
X032461Y006900D03*
X033461Y006900D03*
X034461Y006900D03*
X035461Y006900D03*
X036461Y006900D03*
X037461Y006900D03*
X038461Y006900D03*
X039461Y006900D03*
X040461Y006900D03*
X028811Y004250D03*
X027811Y004250D03*
X026811Y004250D03*
X026811Y003250D03*
X027811Y003250D03*
X028811Y003250D03*
X028811Y002250D03*
X027811Y002250D03*
X026811Y002250D03*
X025011Y002250D03*
X024011Y002250D03*
X023011Y002250D03*
X023011Y003250D03*
X024011Y003250D03*
X025011Y003250D03*
X025011Y004250D03*
X024011Y004250D03*
X023011Y004250D03*
D30*
X030116Y003250D02*
X030707Y003250D01*
X030707Y002250D02*
X030116Y002250D01*
X025057Y009480D02*
X024466Y009480D01*
X024466Y010480D02*
X025057Y010480D01*
X025057Y011480D02*
X024466Y011480D01*
X036806Y016660D02*
X037397Y016660D01*
X037397Y017660D02*
X036806Y017660D01*
X036806Y018660D02*
X037397Y018660D01*
X025107Y025250D02*
X024516Y025250D01*
X024516Y026250D02*
X025107Y026250D01*
X015480Y030136D02*
X015480Y030727D01*
X014480Y030727D02*
X014480Y030136D01*
X049911Y006095D02*
X049911Y005505D01*
X050911Y005505D02*
X050911Y006095D01*
D31*
X042813Y016498D03*
X042557Y016498D03*
X042301Y016498D03*
X042045Y016498D03*
X041789Y016498D03*
X041534Y016498D03*
X041278Y016498D03*
X041022Y016498D03*
X040766Y016498D03*
X040510Y016498D03*
X040510Y018702D03*
X040766Y018702D03*
X041022Y018702D03*
X041278Y018702D03*
X041534Y018702D03*
X041789Y018702D03*
X042045Y018702D03*
X042301Y018702D03*
X042557Y018702D03*
X042813Y018702D03*
D32*
X047212Y010550D03*
X049811Y010550D03*
D33*
X042074Y020050D03*
X041877Y020050D03*
X041680Y020050D03*
X041483Y020050D03*
X041286Y020050D03*
X041089Y020050D03*
X040893Y020050D03*
X040696Y020050D03*
X040499Y020050D03*
X040302Y020050D03*
X040105Y020050D03*
X039908Y020050D03*
X039711Y020050D03*
X039515Y020050D03*
X039318Y020050D03*
X039121Y020050D03*
X038924Y020050D03*
X038727Y020050D03*
X038530Y020050D03*
X038334Y020050D03*
X038137Y020050D03*
X037940Y020050D03*
X037743Y020050D03*
X037546Y020050D03*
X037349Y020050D03*
X037349Y026350D03*
X037546Y026350D03*
X037743Y026350D03*
X037940Y026350D03*
X038137Y026350D03*
X038334Y026350D03*
X038530Y026350D03*
X038727Y026350D03*
X038924Y026350D03*
X039121Y026350D03*
X039318Y026350D03*
X039515Y026350D03*
X039711Y026350D03*
X039908Y026350D03*
X040105Y026350D03*
X040302Y026350D03*
X040499Y026350D03*
X040696Y026350D03*
X040893Y026350D03*
X041089Y026350D03*
X041286Y026350D03*
X041483Y026350D03*
X041680Y026350D03*
X041877Y026350D03*
X042074Y026350D03*
D34*
X042861Y025562D03*
X042861Y025365D03*
X042861Y025169D03*
X042861Y024972D03*
X042861Y024775D03*
X042861Y024578D03*
X042861Y024381D03*
X042861Y024184D03*
X042861Y023987D03*
X042861Y023791D03*
X042861Y023594D03*
X042861Y023397D03*
X042861Y023200D03*
X042861Y023003D03*
X042861Y022806D03*
X042861Y022609D03*
X042861Y022413D03*
X042861Y022216D03*
X042861Y022019D03*
X042861Y021822D03*
X042861Y021625D03*
X042861Y021428D03*
X042861Y021231D03*
X042861Y021035D03*
X042861Y020838D03*
X036562Y020838D03*
X036562Y021035D03*
X036562Y021231D03*
X036562Y021428D03*
X036562Y021625D03*
X036562Y021822D03*
X036562Y022019D03*
X036562Y022216D03*
X036562Y022413D03*
X036562Y022609D03*
X036562Y022806D03*
X036562Y023003D03*
X036562Y023200D03*
X036562Y023397D03*
X036562Y023594D03*
X036562Y023791D03*
X036562Y023987D03*
X036562Y024184D03*
X036562Y024381D03*
X036562Y024578D03*
X036562Y024775D03*
X036562Y024972D03*
X036562Y025169D03*
X036562Y025365D03*
X036562Y025562D03*
D35*
X019637Y023249D02*
X018338Y023249D01*
X018338Y020282D02*
X019637Y020282D01*
X019637Y017133D02*
X018338Y017133D01*
X018338Y007670D02*
X019637Y007670D01*
X019637Y003733D02*
X018338Y003733D01*
X018338Y028367D02*
X019637Y028367D01*
D36*
X007551Y029843D02*
X006409Y029843D01*
X006409Y026300D02*
X007551Y026300D01*
X007551Y022757D02*
X006409Y022757D01*
X006409Y019593D02*
X007551Y019593D01*
X007551Y016050D02*
X006409Y016050D01*
X006409Y012507D02*
X007551Y012507D01*
X007551Y009343D02*
X006409Y009343D01*
X006409Y005800D02*
X007551Y005800D01*
X007551Y002257D02*
X006409Y002257D01*
D37*
X018260Y002650D02*
X019323Y002650D01*
X019323Y006587D02*
X018260Y006587D01*
X018260Y016050D02*
X019323Y016050D01*
X019323Y019200D02*
X018260Y019200D01*
X018260Y024331D02*
X019323Y024331D01*
X019323Y029450D02*
X018260Y029450D01*
D38*
X007531Y030843D02*
X006429Y030843D01*
X006429Y027300D02*
X007531Y027300D01*
X007531Y023757D02*
X006429Y023757D01*
X006429Y020593D02*
X007531Y020593D01*
X007531Y017050D02*
X006429Y017050D01*
X006429Y013507D02*
X007531Y013507D01*
X007531Y008343D02*
X006429Y008343D01*
X006429Y004800D02*
X007531Y004800D01*
X007531Y001257D02*
X006429Y001257D01*
D39*
X036961Y001655D03*
X036961Y002245D03*
X038311Y002245D03*
X038311Y001655D03*
X039661Y001655D03*
X039661Y002245D03*
X040961Y002245D03*
X040961Y001655D03*
X042261Y001655D03*
X042261Y002245D03*
X043561Y002245D03*
X043561Y001655D03*
X044961Y001655D03*
X044961Y002245D03*
X046211Y002245D03*
X046211Y001655D03*
D40*
X003590Y014030D03*
X002470Y014570D03*
X003590Y015120D03*
X002470Y015660D03*
X003590Y016200D03*
X002470Y016750D03*
X003590Y017290D03*
X002470Y017830D03*
X003590Y018380D03*
X002470Y018920D03*
X003590Y019460D03*
X002470Y020010D03*
X003590Y020550D03*
X002470Y021090D03*
X003590Y021640D03*
X002470Y022180D03*
X003590Y022720D03*
X002470Y023270D03*
X003590Y023810D03*
X002470Y024350D03*
X003590Y024900D03*
X002470Y025440D03*
X003590Y025980D03*
X002470Y026530D03*
X003590Y027070D03*
D41*
X003030Y029810D03*
X003030Y011290D03*
D42*
X021252Y017150D03*
X022371Y017150D03*
X022521Y014300D03*
X021402Y014300D03*
X021452Y011050D03*
X022571Y011050D03*
X026802Y020250D03*
X027921Y020250D03*
X027871Y023650D03*
X026752Y023650D03*
D43*
X046061Y007100D03*
X047061Y007100D03*
X048061Y007100D03*
X048061Y006100D03*
X047061Y006100D03*
X046061Y006100D03*
D44*
X045511Y021272D03*
X045511Y022728D03*
D45*
X032030Y001650D03*
X051211Y001250D03*
X003830Y003400D03*
X003130Y005700D03*
X001330Y005700D03*
X001330Y007150D03*
X003130Y007150D03*
X003130Y008700D03*
X001330Y008700D03*
D46*
X002030Y003500D03*
X037011Y014600D03*
X044061Y026000D03*
X021961Y026600D03*
X048161Y001400D03*
D47*
X054661Y003599D03*
X054661Y006001D03*
X010580Y007375D03*
X010580Y004225D03*
X010580Y014475D03*
X010580Y017625D03*
X010580Y024725D03*
X010580Y027875D03*
D48*
X052711Y010474D03*
X053211Y010474D03*
X053711Y010474D03*
X054211Y010474D03*
X054211Y008426D03*
X053711Y008426D03*
X053211Y008426D03*
X052711Y008426D03*
D49*
X053461Y009450D03*
D50*
X050178Y008800D03*
X048445Y008800D03*
D51*
X051403Y013950D03*
X055320Y013950D03*
D52*
X049073Y021176D03*
X049073Y021924D03*
X048050Y021924D03*
X048050Y021550D03*
X048050Y021176D03*
D53*
X035570Y011300D03*
X035570Y010800D03*
X033090Y010800D03*
X033090Y011300D03*
D54*
X035511Y009500D03*
X035811Y008850D03*
X036261Y008250D03*
X036411Y010800D03*
X037161Y013100D03*
X036311Y013400D03*
X036611Y013750D03*
X035411Y015900D03*
X039411Y016900D03*
X039561Y017550D03*
X039411Y017900D03*
X041011Y017850D03*
X041411Y018050D03*
X042061Y018050D03*
X042461Y017600D03*
X042411Y017200D03*
X044511Y015400D03*
X047411Y015250D03*
X048561Y015400D03*
X049811Y014950D03*
X048161Y013700D03*
X053261Y009650D03*
X053661Y009650D03*
X053661Y009250D03*
X053261Y009250D03*
X051361Y008950D03*
X055411Y007100D03*
X056861Y007800D03*
X056361Y011250D03*
X046161Y004500D03*
X047111Y003850D03*
X044911Y004500D03*
X044411Y005050D03*
X040961Y004550D03*
X039661Y004800D03*
X038311Y004800D03*
X037811Y004800D03*
X035511Y004300D03*
X032561Y004900D03*
X031961Y004500D03*
X031111Y004350D03*
X036111Y001400D03*
X040361Y001900D03*
X047411Y002350D03*
X051861Y002200D03*
X031111Y017600D03*
X034261Y018300D03*
X034711Y018300D03*
X035911Y018850D03*
X036161Y020400D03*
X037286Y021225D03*
X037311Y021850D03*
X035911Y021500D03*
X035761Y021850D03*
X035111Y022300D03*
X034861Y021500D03*
X033811Y022050D03*
X033711Y021150D03*
X033761Y020750D03*
X032061Y019750D03*
X030711Y021350D03*
X029961Y022000D03*
X031711Y022600D03*
X032261Y022600D03*
X030811Y023650D03*
X027461Y022300D03*
X026511Y022350D03*
X028261Y020900D03*
X026361Y018250D03*
X022911Y016550D03*
X020861Y016550D03*
X021061Y015000D03*
X022661Y014950D03*
X022711Y013600D03*
X020711Y011950D03*
X021211Y011800D03*
X022711Y011850D03*
X021211Y010350D03*
X021811Y009000D03*
X020411Y008750D03*
X022511Y007750D03*
X019411Y013250D03*
X018261Y015000D03*
X034511Y023200D03*
X034961Y023500D03*
X034561Y023800D03*
X034661Y024300D03*
X035061Y024550D03*
X034511Y024800D03*
X035461Y023850D03*
X037311Y024775D03*
X037411Y024250D03*
X038411Y023850D03*
X038761Y024100D03*
X038561Y025100D03*
X039311Y025100D03*
X039561Y025550D03*
X040111Y025550D03*
X039861Y026900D03*
X039511Y026900D03*
X038111Y027850D03*
X033011Y026250D03*
X032361Y026000D03*
X028061Y025700D03*
X026461Y025550D03*
X039011Y021000D03*
X039361Y021350D03*
X039961Y020850D03*
X040311Y021000D03*
X040661Y021300D03*
X041211Y021400D03*
X041811Y020850D03*
X041461Y020750D03*
X040961Y020750D03*
X040461Y019450D03*
X039411Y019425D03*
X042811Y019350D03*
X043511Y019150D03*
X043911Y019600D03*
X043511Y020350D03*
X045211Y020200D03*
X042211Y022025D03*
X041911Y022350D03*
X042061Y023050D03*
X041811Y023400D03*
X041961Y023750D03*
X043411Y024900D03*
X043711Y024600D03*
X043711Y022450D03*
X047661Y023650D03*
X049461Y025050D03*
X048911Y025350D03*
X052786Y022500D03*
X054436Y022450D03*
X056086Y022450D03*
X056336Y020700D03*
X055511Y020700D03*
X054436Y020700D03*
X053711Y020700D03*
X052636Y020650D03*
X051961Y020650D03*
X051086Y020700D03*
X050211Y020700D03*
X050986Y022400D03*
D55*
X051011Y022400D01*
X051161Y022550D01*
X051161Y023041D01*
X051136Y023067D01*
X052037Y023067D02*
X052037Y022626D01*
X051961Y022550D01*
X051961Y021885D01*
X052811Y021885D01*
X052786Y022500D02*
X052786Y023066D01*
X052786Y023067D01*
X053687Y023067D02*
X053687Y021909D01*
X053711Y021885D01*
X054561Y021885D01*
X054436Y022450D02*
X054436Y023066D01*
X054436Y023067D01*
X055337Y023067D02*
X055337Y022624D01*
X055511Y022200D01*
X055511Y021885D01*
X056361Y021885D01*
X056086Y022450D02*
X056086Y023066D01*
X056086Y023067D01*
X056361Y021215D02*
X056361Y020750D01*
X056336Y020725D01*
X056336Y020700D01*
X055511Y020700D02*
X055511Y021215D01*
X054561Y021215D02*
X054561Y020900D01*
X054436Y020775D01*
X054436Y020700D01*
X053711Y020700D02*
X053711Y021215D01*
X052811Y021215D02*
X052811Y020850D01*
X052636Y020675D01*
X052636Y020650D01*
X051961Y020650D02*
X051961Y021215D01*
X051086Y021190D02*
X051086Y020700D01*
X050211Y020700D02*
X050211Y021215D01*
X051061Y021215D02*
X051086Y021190D01*
X051061Y021885D02*
X050211Y021885D01*
X050211Y022250D01*
X050387Y022676D01*
X050387Y023067D01*
X049787Y023676D02*
X049811Y023700D01*
X049787Y023676D02*
X049195Y023676D01*
X048328Y023717D02*
X047911Y023300D01*
X047480Y023300D01*
X047245Y023535D01*
X046961Y023535D01*
X046846Y023550D01*
X046630Y023550D01*
X046480Y023700D01*
X044661Y023700D01*
X044311Y024050D01*
X043461Y024050D01*
X043327Y024184D01*
X042861Y024184D01*
X042861Y024381D02*
X043430Y024381D01*
X043511Y024300D01*
X044361Y024300D01*
X044711Y023950D01*
X046311Y023950D01*
X046561Y024200D01*
X046977Y024200D01*
X046977Y026015D01*
X047311Y026350D01*
X047778Y026350D01*
X047778Y027367D01*
X048661Y028250D01*
X049161Y028750D02*
X049161Y027450D01*
X048661Y026950D01*
X048661Y026741D01*
X048645Y026724D01*
X049453Y026724D01*
X049477Y026700D01*
X049211Y026200D02*
X050096Y026200D01*
X050146Y026250D01*
X049477Y025650D02*
X049477Y025065D01*
X049461Y025050D01*
X048987Y025976D02*
X048645Y025976D01*
X048987Y025976D02*
X049211Y026200D01*
X048328Y024050D02*
X048328Y023717D01*
X047661Y023650D02*
X047646Y024200D01*
X046380Y023300D02*
X046230Y023450D01*
X043880Y023450D01*
X043236Y022806D01*
X042861Y022806D01*
X042861Y022609D02*
X041671Y022609D01*
X041211Y022150D01*
X041211Y021400D01*
X040661Y021300D02*
X040661Y020850D01*
X040499Y020687D01*
X040499Y020050D01*
X040696Y020050D02*
X040696Y020484D01*
X040961Y020750D01*
X041461Y020750D02*
X041680Y020569D01*
X041680Y020050D01*
X041877Y020050D02*
X041877Y020665D01*
X041811Y020850D01*
X042074Y021238D02*
X041911Y021400D01*
X041911Y022350D01*
X042211Y022025D02*
X042855Y022025D01*
X042861Y022019D01*
X042861Y022216D02*
X043096Y022216D01*
X043411Y022200D01*
X043761Y021850D01*
X043761Y021350D01*
X044011Y021100D01*
X044296Y021100D01*
X044311Y021115D01*
X044777Y021115D01*
X044911Y021250D01*
X045490Y021250D01*
X045511Y021272D01*
X046380Y021500D02*
X046555Y021325D01*
X046870Y021325D01*
X046880Y021315D01*
X047165Y021315D01*
X047280Y021200D01*
X048026Y021200D01*
X048050Y021176D01*
X047611Y021975D02*
X047602Y021985D01*
X046880Y021985D01*
X046380Y021500D02*
X046380Y023300D01*
X046961Y022865D02*
X046961Y022569D01*
X047105Y022425D01*
X047511Y022425D01*
X045511Y022728D02*
X045483Y022700D01*
X044961Y022700D01*
X044627Y023035D01*
X044311Y023035D01*
X044296Y023050D01*
X043861Y023050D01*
X043224Y022413D01*
X042861Y022413D01*
X042861Y021822D02*
X042883Y021800D01*
X043311Y021800D01*
X043511Y021600D01*
X043511Y020350D01*
X043711Y020200D01*
X044127Y020200D01*
X044796Y020200D02*
X045211Y020200D01*
X043911Y019600D02*
X043911Y016203D01*
X043980Y016135D01*
X044345Y016135D01*
X044630Y015850D01*
X044880Y015850D01*
X045130Y015600D01*
X045545Y015600D01*
X046215Y015600D02*
X048080Y015600D01*
X048130Y015650D01*
X048880Y015650D01*
X049180Y015350D01*
X049980Y015350D01*
X050130Y015200D01*
X050130Y014350D01*
X049786Y014006D01*
X049417Y014006D01*
X049161Y014006D02*
X049161Y013650D01*
X049236Y013576D01*
X049236Y013050D01*
X048511Y013074D02*
X048511Y013400D01*
X048906Y013794D01*
X048906Y014006D01*
X048161Y014215D02*
X048161Y013700D01*
X048461Y013076D02*
X048487Y013050D01*
X048511Y013074D01*
X045611Y012500D02*
X045611Y011983D01*
X045645Y011950D01*
X045645Y011148D01*
X045446Y010950D01*
X045861Y010950D01*
X046211Y010600D01*
X046211Y010135D01*
X046211Y009465D02*
X046211Y009200D01*
X047361Y008050D01*
X049761Y008050D01*
X050011Y007800D01*
X050011Y007374D01*
X050036Y007350D01*
X050061Y007324D01*
X050061Y006850D01*
X050161Y006750D01*
X050661Y006750D01*
X050911Y006500D01*
X050911Y005800D01*
X051311Y005800D01*
X051841Y005270D01*
X051841Y003850D01*
X049911Y005800D02*
X049911Y006550D01*
X049711Y006750D01*
X049411Y006750D01*
X049311Y006850D01*
X049311Y007326D01*
X049287Y007350D01*
X048061Y006100D02*
X047996Y006035D01*
X047996Y004900D01*
X047327Y004900D02*
X046861Y004900D01*
X046561Y005200D01*
X046561Y006600D01*
X046061Y007100D01*
X044261Y005550D02*
X044261Y009800D01*
X043511Y010550D01*
X043511Y019150D01*
X042813Y019348D02*
X042813Y018702D01*
X042311Y018713D02*
X042301Y018702D01*
X042301Y018260D01*
X042461Y018100D01*
X042461Y017600D01*
X042411Y017200D02*
X041789Y017778D01*
X041789Y018702D01*
X041789Y019122D01*
X041286Y019625D01*
X041286Y020050D01*
X041089Y020050D02*
X041089Y019522D01*
X041534Y019078D01*
X041534Y018702D01*
X041534Y018172D01*
X041411Y018050D01*
X041022Y017860D02*
X041011Y017850D01*
X041022Y017860D02*
X041022Y018702D01*
X041261Y018719D02*
X041261Y019050D01*
X040893Y019419D01*
X040893Y020050D01*
X041483Y020050D02*
X041483Y019728D01*
X042061Y019150D01*
X042061Y018719D01*
X042045Y018702D01*
X042045Y018066D01*
X042061Y018050D01*
X042311Y018713D02*
X042311Y021550D01*
X042387Y021625D01*
X042861Y021625D01*
X042074Y021238D02*
X042074Y020050D01*
X042811Y019350D02*
X042813Y019348D01*
X041278Y018702D02*
X041261Y018719D01*
X040766Y018702D02*
X040766Y019146D01*
X040461Y019450D01*
X040411Y019500D01*
X040011Y019500D01*
X039911Y019400D01*
X039886Y019425D01*
X039411Y019425D01*
X039255Y019425D01*
X039121Y019559D01*
X038961Y019400D01*
X038961Y019035D01*
X038261Y018900D02*
X038261Y017850D01*
X038561Y017550D01*
X039561Y017550D01*
X039411Y017900D02*
X039711Y017900D01*
X039861Y018050D01*
X039861Y018340D01*
X039836Y018365D01*
X040510Y018702D02*
X040510Y017852D01*
X040511Y017450D01*
X039961Y017200D01*
X038611Y017200D01*
X038011Y017800D01*
X038011Y018800D01*
X037546Y019265D01*
X037546Y020050D01*
X037349Y020050D02*
X037349Y020488D01*
X037861Y021000D01*
X037861Y024450D01*
X038561Y025100D01*
X039011Y025100D02*
X039311Y025100D01*
X039011Y025100D02*
X038136Y024225D01*
X038137Y020675D01*
X038137Y020050D01*
X038334Y020050D02*
X038334Y021228D01*
X038411Y021300D01*
X038411Y023850D01*
X038761Y024100D02*
X038761Y021200D01*
X038530Y020969D01*
X038530Y020050D01*
X039121Y020050D02*
X039121Y019559D01*
X039318Y020050D02*
X039318Y020694D01*
X039011Y021000D01*
X039361Y021350D02*
X039711Y020700D01*
X039711Y020050D01*
X040105Y020050D02*
X040105Y020606D01*
X039961Y020850D01*
X040302Y020991D02*
X040311Y021000D01*
X040302Y020991D02*
X040302Y020050D01*
X039911Y019400D02*
X039861Y019350D01*
X039836Y019035D01*
X038961Y018365D02*
X038961Y018100D01*
X039161Y017900D01*
X039411Y017900D01*
X040261Y017050D02*
X039911Y016700D01*
X039911Y016315D01*
X039896Y016300D01*
X040511Y016496D02*
X040510Y016498D01*
X040511Y016496D02*
X040511Y015950D01*
X037480Y012919D01*
X037480Y011250D01*
X036480Y010250D01*
X034630Y010250D01*
X032480Y007900D01*
X032461Y007900D01*
X032461Y006900D01*
X031980Y006350D02*
X031980Y008000D01*
X034430Y010450D01*
X034430Y011100D01*
X034630Y011300D01*
X035570Y011300D01*
X035570Y011490D01*
X035680Y011600D01*
X035680Y012285D01*
X036630Y012285D01*
X035680Y012285D02*
X035665Y012300D01*
X034995Y012300D02*
X034995Y012215D01*
X033730Y010950D01*
X033730Y010550D01*
X030980Y007850D01*
X030980Y005400D01*
X031280Y005100D01*
X032361Y005100D01*
X032561Y004900D01*
X033211Y005200D02*
X033211Y003826D01*
X033538Y003750D01*
X033273Y003765D01*
X032561Y003765D01*
X033538Y003250D02*
X034111Y003250D01*
X034261Y003400D01*
X034261Y003850D01*
X034061Y004050D01*
X033811Y004050D01*
X033761Y004100D01*
X033761Y004565D01*
X033727Y004600D01*
X033727Y005085D01*
X033711Y005100D01*
X033711Y005150D01*
X034461Y005900D01*
X033961Y006050D02*
X033961Y005700D01*
X033661Y005400D01*
X033411Y005400D01*
X033211Y005200D01*
X032461Y005900D02*
X032430Y005900D01*
X031980Y006350D01*
X030530Y004750D02*
X029961Y005269D01*
X029961Y008215D01*
X029199Y008550D02*
X030830Y008550D01*
X033080Y010800D01*
X033090Y010800D01*
X033090Y011300D02*
X033330Y011300D01*
X033680Y011650D01*
X033680Y012265D01*
X033715Y012300D01*
X033045Y012300D02*
X032630Y012300D01*
X029980Y009650D01*
X029980Y009300D01*
X029980Y008753D01*
X029961Y008885D01*
X029980Y009300D02*
X027911Y009300D01*
X029199Y008550D02*
X028615Y007965D01*
X028980Y007600D01*
X028980Y005050D01*
X029130Y004900D01*
X029330Y004900D01*
X029880Y004350D01*
X031111Y004350D01*
X030530Y004750D02*
X031730Y004750D01*
X031961Y004500D01*
X034396Y004600D02*
X034961Y004600D01*
X036277Y004450D02*
X036277Y003265D01*
X036261Y003250D01*
X035585Y003250D01*
X036961Y003015D02*
X036961Y002245D01*
X036961Y001655D02*
X036961Y001250D01*
X036111Y001400D02*
X035446Y001400D01*
X034777Y001400D02*
X033896Y001400D01*
X033227Y001400D02*
X033217Y001390D01*
X032686Y001390D01*
X032686Y001650D01*
X032030Y001650D01*
X032686Y001650D02*
X032686Y002750D01*
X033538Y002750D01*
X036961Y003685D02*
X037396Y003685D01*
X037811Y004100D01*
X037811Y004800D01*
X037461Y004700D02*
X037461Y005127D01*
X037515Y005180D01*
X038110Y005168D01*
X038960Y005175D01*
X038960Y007883D01*
X038927Y007950D01*
X038196Y007950D01*
X037530Y007965D02*
X037530Y008500D01*
X039380Y010350D01*
X039380Y011569D01*
X042301Y014490D01*
X042301Y016498D01*
X042061Y016481D02*
X042045Y016498D01*
X042061Y016481D02*
X042061Y014700D01*
X039080Y011719D01*
X039080Y010450D01*
X036780Y008250D01*
X036261Y008250D01*
X035830Y008550D02*
X036730Y008550D01*
X038830Y010650D01*
X038830Y011969D01*
X041739Y014878D01*
X041789Y016498D01*
X041534Y016498D02*
X041511Y015150D01*
X038580Y012219D01*
X038580Y010800D01*
X036630Y008850D01*
X035811Y008850D01*
X035830Y008550D02*
X035780Y008500D01*
X035461Y008100D01*
X035461Y006900D01*
X034961Y006400D02*
X034961Y008950D01*
X034980Y008950D01*
X035230Y009200D01*
X036530Y009200D01*
X038330Y010900D01*
X038330Y012369D01*
X041286Y015325D01*
X041286Y016489D01*
X041278Y016498D01*
X041022Y016498D02*
X041011Y016487D01*
X041011Y015450D01*
X038080Y012519D01*
X038080Y011050D01*
X036480Y009450D01*
X036080Y009450D01*
X035930Y009500D01*
X035511Y009500D01*
X035570Y010800D02*
X036411Y010800D01*
X036411Y010831D01*
X036630Y011050D01*
X036630Y011615D01*
X037161Y013100D02*
X033461Y013100D01*
X031261Y015300D01*
X029311Y015300D01*
X028711Y015900D01*
X028711Y017100D01*
X028211Y017600D01*
X029211Y017600D02*
X029761Y017050D01*
X030461Y017050D01*
X033761Y013750D01*
X036611Y013750D01*
X036311Y013400D02*
X033661Y013400D01*
X031411Y015650D01*
X030161Y015650D01*
X029211Y016600D01*
X031111Y017600D02*
X031361Y017600D01*
X031461Y017500D01*
X031461Y017717D01*
X031461Y017500D02*
X031461Y017200D01*
X031711Y016950D01*
X031977Y016950D01*
X031961Y016965D01*
X031961Y017300D01*
X032311Y017650D01*
X032311Y017915D01*
X033161Y017915D01*
X033411Y017400D02*
X033411Y016817D01*
X033428Y016800D01*
X032646Y016950D01*
X032646Y017135D01*
X033411Y017400D02*
X033711Y017700D01*
X033711Y018800D01*
X033511Y019000D01*
X032011Y019000D01*
X031761Y019250D01*
X031761Y019950D01*
X031561Y020150D01*
X030911Y020150D01*
X030711Y020350D01*
X030711Y021350D01*
X031211Y021375D02*
X031227Y020700D01*
X031896Y020700D02*
X032577Y020600D01*
X032577Y020865D01*
X032861Y021150D01*
X033111Y021150D01*
X033311Y021350D01*
X033311Y022050D01*
X033711Y022450D01*
X034511Y022450D01*
X034861Y022800D01*
X036556Y022800D01*
X036562Y022806D01*
X036559Y023000D02*
X036562Y023003D01*
X036559Y023000D02*
X034711Y023000D01*
X034577Y022865D01*
X033911Y022865D01*
X033011Y022865D01*
X032611Y023500D02*
X032261Y023150D01*
X032261Y022600D01*
X032261Y022550D01*
X032511Y022300D01*
X032511Y021835D01*
X032546Y021800D01*
X033711Y021550D02*
X033711Y021150D01*
X033711Y021550D02*
X033911Y021750D01*
X034511Y021750D01*
X034761Y022000D01*
X035261Y022000D01*
X035411Y022150D01*
X035961Y022150D01*
X036093Y022019D01*
X036562Y022019D01*
X036578Y022200D02*
X036562Y022216D01*
X036578Y022200D02*
X037411Y022200D01*
X037661Y021950D01*
X037661Y021150D01*
X036446Y019935D01*
X035261Y019935D01*
X035246Y019950D01*
X034511Y019950D01*
X034411Y019850D01*
X034411Y019585D01*
X033596Y019750D01*
X032927Y019750D02*
X032061Y019750D01*
X032311Y018585D02*
X031463Y018585D01*
X031461Y018583D01*
X031445Y018600D01*
X029661Y018600D01*
X029011Y019250D01*
X028961Y019200D02*
X028911Y019250D01*
X027930Y020259D02*
X027921Y020250D01*
X027930Y020259D02*
X027930Y020450D01*
X027580Y020800D01*
X026930Y020800D01*
X026830Y020900D01*
X026830Y021138D01*
X026811Y021156D01*
X026556Y021156D02*
X026556Y020274D01*
X026580Y020250D01*
X026802Y020250D02*
X026806Y020254D01*
X027067Y021156D02*
X027402Y021156D01*
X027595Y021375D01*
X028055Y021800D02*
X028265Y021590D01*
X028265Y021375D01*
X028265Y020903D01*
X028261Y020900D01*
X028055Y021800D02*
X028055Y021990D01*
X028030Y022015D01*
X027461Y022300D02*
X027461Y022477D01*
X027317Y022621D01*
X027246Y022800D01*
X027461Y022306D02*
X027830Y022675D01*
X028020Y022675D01*
X028030Y022685D01*
X027461Y022306D02*
X027461Y022300D01*
X027130Y022300D01*
X027080Y022250D01*
X027080Y021956D01*
X027067Y021944D01*
X026811Y021944D01*
X026556Y021944D02*
X026568Y022194D01*
X026511Y022350D01*
X026527Y022365D01*
X026577Y022800D01*
X026752Y023650D02*
X026752Y024190D01*
X027061Y024500D01*
X027061Y024750D01*
X027056Y024756D01*
X027311Y024756D02*
X027311Y024600D01*
X027861Y024050D01*
X027861Y023660D01*
X027871Y023650D01*
X027730Y024550D02*
X028195Y024550D01*
X027730Y024550D02*
X027567Y024713D01*
X027567Y024756D01*
X027567Y025544D02*
X027311Y025544D01*
X027077Y025544D02*
X027077Y026400D01*
X027746Y026400D02*
X027746Y026015D01*
X028061Y025700D01*
X028346Y025985D01*
X028855Y025985D01*
X028855Y025315D02*
X028865Y025306D01*
X028865Y024550D01*
X029330Y024550D01*
X030230Y023650D01*
X030811Y023650D01*
X030461Y022650D02*
X030461Y022150D01*
X031211Y021375D01*
X029961Y022000D02*
X029961Y022650D01*
X032611Y023500D02*
X032977Y023500D01*
X033011Y023535D01*
X033886Y023711D02*
X033911Y023535D01*
X033886Y023711D02*
X033886Y024617D01*
X033137Y024617D02*
X033136Y024615D01*
X032261Y024615D01*
X032261Y025285D02*
X032261Y025650D01*
X031961Y025950D01*
X031961Y026200D01*
X032111Y026350D01*
X032911Y026350D01*
X033011Y026250D01*
X034161Y026250D01*
X034427Y025985D01*
X035011Y025985D01*
X035011Y025315D02*
X035396Y025315D01*
X035936Y024775D01*
X036512Y024775D01*
X036562Y024775D01*
X036562Y025169D02*
X036043Y025169D01*
X035611Y025600D01*
X035611Y026750D01*
X034961Y026750D01*
X034761Y026950D01*
X034111Y026950D01*
X033911Y027150D01*
X033361Y027150D01*
X033111Y027400D01*
X032211Y027400D01*
X032011Y027600D01*
X031511Y027600D01*
X031311Y027800D01*
X030611Y027800D01*
X030611Y027850D01*
X030211Y028250D01*
X031211Y028250D02*
X031661Y027800D01*
X032311Y027800D01*
X032511Y027600D01*
X033261Y027600D01*
X033511Y027350D01*
X034011Y027350D01*
X034211Y027150D01*
X034911Y027150D01*
X035111Y026950D01*
X035761Y026950D01*
X035861Y026850D01*
X035861Y025650D01*
X036146Y025365D01*
X036562Y025365D01*
X036562Y025562D02*
X036249Y025562D01*
X036111Y025700D01*
X036111Y027000D01*
X035961Y027150D01*
X035261Y027150D01*
X035061Y027350D01*
X034311Y027350D01*
X034111Y027550D01*
X033661Y027550D01*
X033411Y027800D01*
X032661Y027800D01*
X032211Y028250D01*
X033211Y028250D02*
X033711Y027750D01*
X034211Y027750D01*
X034411Y027550D01*
X035161Y027550D01*
X035361Y027350D01*
X036161Y027350D01*
X036511Y027000D01*
X037111Y027000D01*
X037349Y026762D01*
X037349Y026350D01*
X037546Y026350D02*
X037546Y026865D01*
X037011Y027400D01*
X036411Y027400D01*
X036261Y027550D01*
X035511Y027550D01*
X035311Y027750D01*
X034711Y027750D01*
X034211Y028250D01*
X035211Y028250D02*
X035711Y027750D01*
X036361Y027750D01*
X036511Y027600D01*
X037111Y027600D01*
X037743Y026969D01*
X037743Y026350D01*
X037940Y026350D02*
X037940Y027072D01*
X037161Y027800D01*
X036611Y027800D01*
X036211Y028250D01*
X037211Y028250D02*
X038137Y027325D01*
X038137Y026350D01*
X039515Y026350D02*
X039515Y026897D01*
X039511Y026900D01*
X039711Y026700D02*
X039711Y026350D01*
X039908Y026350D02*
X039908Y025897D01*
X039561Y025550D01*
X040105Y025556D02*
X040111Y025550D01*
X040105Y025556D02*
X040111Y027100D01*
X040105Y026350D01*
X040302Y026350D02*
X040302Y027209D01*
X039261Y028250D01*
X038961Y028250D01*
X038477Y027485D02*
X038111Y027850D01*
X038477Y027485D02*
X038477Y027350D01*
X039146Y027350D02*
X039811Y027350D01*
X040105Y027106D01*
X039861Y026900D02*
X039711Y026700D01*
X040499Y026350D02*
X040499Y027313D01*
X039961Y027850D01*
X039961Y028250D01*
X040961Y028250D02*
X040961Y027700D01*
X040696Y027434D01*
X040696Y026350D01*
X040893Y026350D02*
X040893Y027081D01*
X041511Y027700D01*
X041811Y027700D01*
X041961Y027850D01*
X041961Y028250D01*
X042511Y027450D02*
X042961Y027900D01*
X042961Y028250D01*
X043961Y028250D02*
X043961Y027550D01*
X043611Y027250D01*
X041661Y027250D01*
X041286Y026825D01*
X041286Y026350D01*
X041089Y026350D02*
X041089Y026978D01*
X041561Y027450D01*
X042511Y027450D01*
X041761Y027050D02*
X041483Y026772D01*
X041483Y026350D01*
X041680Y026350D02*
X041680Y026719D01*
X041811Y026850D01*
X044761Y026850D01*
X045911Y028050D01*
X045911Y028200D01*
X045961Y028250D01*
X044961Y028250D02*
X044961Y027700D01*
X044311Y027050D01*
X041761Y027050D01*
X042861Y024775D02*
X043336Y024775D01*
X043411Y024900D01*
X043439Y024578D02*
X042861Y024578D01*
X043439Y024578D02*
X043711Y024600D01*
X042861Y023594D02*
X042118Y023594D01*
X041961Y023750D01*
X042065Y023397D02*
X041811Y023400D01*
X042065Y023397D02*
X042861Y023397D01*
X042861Y023200D02*
X042211Y023200D01*
X042061Y023050D01*
X043711Y022450D02*
X043796Y022365D01*
X044311Y022365D01*
X044311Y021785D01*
X042899Y020800D02*
X042861Y020838D01*
X042899Y020800D02*
X043161Y020800D01*
X043211Y020750D01*
X043211Y007650D01*
X043011Y007450D01*
X043011Y005200D01*
X042261Y004450D01*
X042261Y003935D01*
X042261Y003265D02*
X042261Y002245D01*
X044411Y001850D02*
X044411Y005050D01*
X044911Y004500D02*
X044911Y003885D01*
X044961Y003885D01*
X044961Y003215D02*
X044961Y002245D01*
X044961Y001655D02*
X044616Y001655D01*
X044611Y001650D01*
X044411Y001850D01*
X046211Y002245D02*
X046211Y003215D01*
X046211Y003885D02*
X046161Y003885D01*
X046161Y004500D01*
X047111Y003850D02*
X047881Y003850D01*
X047881Y002850D02*
X047411Y002350D01*
X043561Y003935D02*
X043561Y004850D01*
X044261Y005550D01*
X042111Y005200D02*
X038960Y005175D01*
X038311Y004800D02*
X038311Y003685D01*
X038311Y003015D02*
X038311Y002245D01*
X038311Y001655D02*
X038311Y001250D01*
X039661Y002245D02*
X039661Y003015D01*
X039661Y003685D02*
X039661Y004800D01*
X040961Y004550D02*
X040961Y003935D01*
X040461Y005900D02*
X040461Y006900D01*
X040311Y007700D02*
X039511Y006900D01*
X039461Y006900D01*
X038461Y005950D02*
X037961Y006450D01*
X037961Y007150D01*
X037511Y007600D01*
X037511Y007935D01*
X037527Y007950D01*
X037511Y007965D01*
X037530Y007965D01*
X039596Y007950D02*
X039596Y008485D01*
X039611Y008500D01*
X039611Y009250D01*
X039861Y009500D01*
X041711Y009500D01*
X042561Y010350D01*
X042561Y012446D01*
X042557Y012450D01*
X042557Y016498D01*
X042813Y016498D02*
X042813Y010700D01*
X042811Y010698D01*
X042811Y009650D01*
X041827Y008665D01*
X041827Y007950D01*
X040996Y007950D01*
X040327Y007950D02*
X040311Y007935D01*
X040311Y007700D01*
X042461Y007500D02*
X042461Y006900D01*
X042461Y007500D02*
X042511Y007550D01*
X042511Y007935D01*
X042496Y007950D01*
X038461Y005950D02*
X038461Y005900D01*
X037515Y005180D02*
X036511Y005200D01*
X037211Y004450D02*
X037461Y004700D01*
X037211Y004450D02*
X036946Y004450D01*
X035461Y005900D02*
X034961Y006400D01*
X034461Y006550D02*
X033961Y006050D01*
X034461Y006550D02*
X034461Y006900D01*
X028615Y007965D02*
X027911Y007965D01*
X026061Y005000D02*
X026811Y004250D01*
X026061Y005000D02*
X017680Y005000D01*
X016680Y006000D01*
X015204Y006000D01*
X020411Y008750D02*
X020411Y009215D01*
X021211Y009215D02*
X021527Y009215D01*
X021661Y009350D01*
X021661Y009900D01*
X021811Y010050D01*
X022099Y010050D01*
X022106Y010044D01*
X022361Y010044D02*
X022361Y010350D01*
X022261Y010450D01*
X021561Y010450D01*
X021461Y010550D01*
X021461Y011040D01*
X021452Y011050D01*
X021211Y010350D02*
X021211Y009885D01*
X020411Y009885D01*
X021761Y009000D02*
X021811Y009000D01*
X021811Y008465D01*
X021877Y008400D01*
X022546Y008400D02*
X022561Y008385D01*
X022561Y007850D01*
X022511Y007800D01*
X022511Y007750D01*
X022546Y008400D02*
X022617Y008479D01*
X022617Y009256D01*
X022361Y009256D02*
X022106Y009256D01*
X021943Y009231D01*
X021811Y009000D01*
X022617Y010044D02*
X022617Y010306D01*
X022611Y010650D01*
X022611Y011010D01*
X022571Y011050D01*
X021211Y011800D02*
X021211Y012200D01*
X021506Y012206D01*
X021761Y012206D01*
X020811Y012050D02*
X020811Y012565D01*
X020011Y012565D01*
X020011Y013235D02*
X019996Y013250D01*
X019411Y013250D01*
X020811Y013235D02*
X021265Y013235D01*
X021506Y012994D01*
X021761Y012994D02*
X021461Y014240D01*
X021402Y014300D01*
X021411Y015000D02*
X021061Y015000D01*
X021406Y015006D02*
X021406Y015206D01*
X021406Y015006D02*
X021411Y015000D01*
X021661Y015000D01*
X021661Y015206D01*
X021061Y015600D02*
X021061Y015900D01*
X021161Y016000D01*
X021399Y016000D01*
X021406Y015994D01*
X021661Y015994D02*
X021661Y016150D01*
X021261Y016550D01*
X021261Y017140D01*
X021252Y017150D01*
X020861Y016550D02*
X020611Y016300D01*
X020611Y016085D01*
X020596Y016100D01*
X020211Y016100D01*
X020111Y016000D01*
X020111Y015350D01*
X019761Y015000D01*
X019496Y015000D01*
X018827Y015000D02*
X018261Y015000D01*
X020611Y015415D02*
X020877Y015415D01*
X021061Y015600D01*
X021911Y016000D02*
X021911Y016200D01*
X022361Y016650D01*
X022361Y017140D01*
X022371Y017150D01*
X021911Y016000D02*
X021917Y015994D01*
X022521Y014300D02*
X022561Y014260D01*
X022561Y014000D01*
X022017Y013306D01*
X022017Y012994D01*
X022711Y013135D02*
X022711Y013600D01*
X022711Y012465D02*
X022452Y012206D01*
X020811Y012050D02*
X020711Y011950D01*
X026085Y017850D02*
X026111Y017850D01*
X026361Y018250D01*
X032311Y018585D02*
X033161Y018585D01*
X034261Y018300D02*
X034261Y018000D01*
X034295Y017467D01*
X034295Y017174D01*
X034319Y016450D02*
X034295Y016426D01*
X034319Y016450D02*
X034711Y016450D01*
X035096Y016985D01*
X035411Y016985D01*
X035411Y017050D01*
X035761Y017400D01*
X035761Y017615D01*
X035761Y018285D02*
X035761Y018700D01*
X035911Y018850D01*
X036496Y019265D02*
X035261Y019265D01*
X034411Y018915D02*
X034711Y018300D01*
X036496Y019265D02*
X037101Y018660D01*
X037743Y019419D02*
X038261Y018900D01*
X037743Y019419D02*
X037743Y020050D01*
X037090Y021428D02*
X036562Y021428D01*
X036562Y021231D02*
X035993Y021231D01*
X035611Y020850D01*
X035146Y020850D01*
X035146Y021215D01*
X034861Y021500D01*
X034411Y022050D02*
X033811Y022050D01*
X034411Y022050D02*
X034971Y022609D01*
X036562Y022609D01*
X036562Y022413D02*
X035174Y022413D01*
X035111Y022300D01*
X035761Y021850D02*
X035834Y021822D01*
X036562Y021822D01*
X036562Y021625D02*
X036087Y021625D01*
X035911Y021500D01*
X037090Y021428D02*
X037311Y021650D01*
X037311Y021850D01*
X036562Y023200D02*
X034511Y023200D01*
X034961Y023500D02*
X035065Y023397D01*
X036562Y023397D01*
X036562Y023594D02*
X035318Y023594D01*
X035111Y023800D01*
X034561Y023800D01*
X034661Y024300D02*
X035411Y024300D01*
X035724Y023987D01*
X036562Y023987D01*
X036562Y023791D02*
X035521Y023791D01*
X035461Y023850D01*
X035877Y024184D02*
X035511Y024550D01*
X035061Y024550D01*
X035561Y024800D02*
X034511Y024800D01*
X035561Y024800D02*
X035980Y024381D01*
X036562Y024381D01*
X036562Y024184D02*
X035877Y024184D01*
X033511Y025483D02*
X033511Y025800D01*
X033061Y026250D01*
X033011Y026250D01*
X028061Y025700D02*
X027724Y025700D01*
X027567Y025544D01*
X027077Y025544D02*
X027056Y025544D01*
X026461Y025544D01*
X026461Y025550D01*
X034061Y020750D02*
X034161Y020850D01*
X034477Y020850D01*
X034061Y020750D02*
X033761Y020750D01*
X033611Y020600D01*
X033246Y020600D01*
X039211Y016700D02*
X039211Y016315D01*
X039227Y016300D01*
X039211Y016700D02*
X039411Y016900D01*
X040261Y017050D02*
X040661Y017050D01*
X040766Y016946D01*
X040766Y016498D01*
X040766Y015754D01*
X043980Y015465D02*
X044045Y015400D01*
X044511Y015400D01*
X044061Y013850D02*
X044061Y012900D01*
X044778Y012183D01*
X044778Y011950D01*
X044777Y011948D01*
X044777Y010950D01*
X045611Y012500D02*
X045311Y012800D01*
X044911Y012800D01*
X044761Y012950D01*
X044761Y013326D01*
X044738Y013350D01*
X047411Y014850D02*
X047411Y015250D01*
X048161Y015200D02*
X048161Y014885D01*
X048161Y015200D02*
X048361Y015400D01*
X048561Y015400D01*
X048906Y015056D01*
X048906Y014794D01*
X049161Y014794D02*
X049417Y014794D01*
X049655Y014794D01*
X049811Y014950D01*
X053911Y011950D02*
X055811Y011950D01*
X056361Y011250D01*
X055487Y009550D02*
X055511Y009526D01*
X055511Y009100D01*
X055561Y009050D01*
X056011Y009050D01*
X056096Y008965D01*
X056096Y008650D01*
X055427Y008650D02*
X054811Y008650D01*
X054588Y008426D01*
X054211Y008426D01*
X053711Y008426D02*
X053711Y007950D01*
X053861Y007800D01*
X055427Y007800D01*
X056096Y007800D02*
X056861Y007800D01*
X055411Y007100D02*
X055111Y007350D01*
X054796Y007350D01*
X054127Y007350D02*
X053496Y007350D01*
X052836Y007360D02*
X052827Y007350D01*
X052836Y007360D02*
X052836Y007600D01*
X053211Y008025D01*
X053211Y008426D01*
X052711Y008426D02*
X052685Y008400D01*
X052461Y008400D01*
X052386Y008325D01*
X051971Y008325D01*
X051971Y007425D01*
X051302Y008325D02*
X051311Y008335D01*
X051311Y008650D01*
X051361Y008700D01*
X051361Y008950D01*
X053261Y009250D02*
X053461Y009450D01*
X035411Y015900D02*
X035411Y016315D01*
X048661Y029250D02*
X049161Y028750D01*
D56*
X046111Y030000D03*
X050136Y024700D03*
X047661Y022900D03*
X047511Y022425D03*
X047611Y021975D03*
X047611Y021525D03*
X047011Y020350D03*
X048711Y020350D03*
X049486Y019650D03*
X049511Y018600D03*
X048311Y017900D03*
X047661Y017500D03*
X049511Y017550D03*
X050461Y016500D03*
X051411Y017550D03*
X053311Y017550D03*
X053311Y018600D03*
X053311Y019650D03*
X051411Y019650D03*
X051411Y018600D03*
X055211Y018600D03*
X055211Y019650D03*
X055211Y017550D03*
X056661Y015000D03*
X056661Y014450D03*
X056661Y013950D03*
X056661Y013400D03*
X056661Y012850D03*
X054761Y011600D03*
X053911Y011950D03*
X053911Y012450D03*
X053711Y011500D03*
X052711Y011300D03*
X052261Y011300D03*
X051811Y011300D03*
X050911Y011200D03*
X050911Y011650D03*
X050911Y012100D03*
X049211Y012200D03*
X048711Y012200D03*
X048211Y012200D03*
X044061Y013850D03*
X044061Y014350D03*
X044061Y014850D03*
X044361Y016700D03*
X044361Y017150D03*
X044361Y018650D03*
X044361Y019125D03*
X047161Y015950D03*
X047661Y015950D03*
X054761Y010500D03*
X054811Y009550D03*
X056861Y009550D03*
X056861Y010500D03*
X051811Y009050D03*
X050911Y009050D03*
X047761Y008800D03*
X047311Y008800D03*
X051311Y006800D03*
X053161Y006000D03*
X053711Y006000D03*
X055611Y006000D03*
X056111Y006000D03*
X056161Y003600D03*
X055611Y003600D03*
X053761Y003600D03*
X053211Y003600D03*
X047161Y001250D03*
X040311Y001250D03*
X034961Y004600D03*
X016461Y002700D03*
X016011Y002700D03*
X013730Y002700D03*
X013730Y001700D03*
X013730Y006000D03*
X015711Y016100D03*
X020861Y018300D03*
X020861Y018800D03*
X020861Y019300D03*
X015711Y019450D03*
X014830Y023250D03*
X013630Y023250D03*
X016011Y023750D03*
X014830Y025450D03*
X013580Y025450D03*
X016530Y027200D03*
X027911Y019250D03*
X028411Y019250D03*
X028911Y019250D03*
X030861Y019650D03*
X031361Y019650D03*
D57*
X037780Y012769D02*
X040766Y015754D01*
X037780Y012769D02*
X037780Y011150D01*
X036480Y009850D01*
X034880Y009850D01*
X032980Y007950D01*
X032961Y007950D01*
X032961Y005700D01*
X032561Y005250D01*
X032561Y004900D01*
X034661Y003950D02*
X034661Y002250D01*
X033538Y002250D01*
X034661Y002250D02*
X034661Y001515D01*
X034777Y001400D01*
X036961Y001250D02*
X038311Y001250D01*
X040311Y001250D01*
X040961Y001250D01*
X040961Y001655D01*
X040361Y001900D02*
X040111Y001650D01*
X039666Y001650D01*
X039661Y001655D01*
X040961Y001250D02*
X042261Y001250D01*
X042261Y001655D01*
X042261Y001250D02*
X043561Y001250D01*
X043561Y001655D01*
X046211Y001655D02*
X046211Y001250D01*
X047161Y001250D01*
X051861Y002200D02*
X051861Y002830D01*
X051841Y002850D01*
X052961Y002836D02*
X056461Y002836D01*
X056461Y002800D02*
X052961Y002800D01*
X052961Y004300D01*
X056461Y004300D01*
X056461Y002800D01*
X056461Y002995D02*
X052961Y002995D01*
X052961Y003153D02*
X056461Y003153D01*
X056461Y003312D02*
X052961Y003312D01*
X052961Y003470D02*
X056461Y003470D01*
X056461Y003629D02*
X052961Y003629D01*
X052961Y003787D02*
X056461Y003787D01*
X056461Y003946D02*
X052961Y003946D01*
X052961Y004104D02*
X056461Y004104D01*
X056461Y004263D02*
X052961Y004263D01*
X052961Y005300D02*
X056461Y005300D01*
X056461Y006675D01*
X052961Y006675D01*
X052961Y005300D01*
X052961Y005372D02*
X056461Y005372D01*
X056461Y005531D02*
X052961Y005531D01*
X052961Y005689D02*
X056461Y005689D01*
X056461Y005848D02*
X052961Y005848D01*
X052961Y006006D02*
X056461Y006006D01*
X056461Y006165D02*
X052961Y006165D01*
X052961Y006323D02*
X056461Y006323D01*
X056461Y006482D02*
X052961Y006482D01*
X052961Y006640D02*
X056461Y006640D01*
X051311Y006800D02*
X051302Y006810D01*
X051302Y007425D01*
X054211Y010474D02*
X054211Y011000D01*
X054761Y011550D01*
X054761Y011600D01*
X054461Y012425D02*
X054461Y015425D01*
X056836Y015425D01*
X056836Y012425D01*
X054461Y012425D01*
X054461Y012505D02*
X056836Y012505D01*
X056836Y012663D02*
X054461Y012663D01*
X054461Y012822D02*
X056836Y012822D01*
X056836Y012980D02*
X054461Y012980D01*
X054461Y013139D02*
X056836Y013139D01*
X056836Y013297D02*
X054461Y013297D01*
X054461Y013456D02*
X056836Y013456D01*
X056836Y013614D02*
X054461Y013614D01*
X054461Y013773D02*
X056836Y013773D01*
X056836Y013931D02*
X054461Y013931D01*
X054461Y014090D02*
X056836Y014090D01*
X056836Y014248D02*
X054461Y014248D01*
X054461Y014407D02*
X056836Y014407D01*
X056836Y014565D02*
X054461Y014565D01*
X054461Y014724D02*
X056836Y014724D01*
X056836Y014882D02*
X054461Y014882D01*
X054461Y015041D02*
X056836Y015041D01*
X056836Y015199D02*
X054461Y015199D01*
X054461Y015358D02*
X056836Y015358D01*
X052336Y015358D02*
X050461Y015358D01*
X050461Y015425D02*
X052336Y015425D01*
X052336Y012550D01*
X050461Y012550D01*
X050461Y015425D01*
X050461Y015199D02*
X052336Y015199D01*
X052336Y015041D02*
X050461Y015041D01*
X050461Y014882D02*
X052336Y014882D01*
X052336Y014724D02*
X050461Y014724D01*
X050461Y014565D02*
X052336Y014565D01*
X052336Y014407D02*
X050461Y014407D01*
X050461Y014248D02*
X052336Y014248D01*
X052336Y014090D02*
X050461Y014090D01*
X050461Y013931D02*
X052336Y013931D01*
X052336Y013773D02*
X050461Y013773D01*
X050461Y013614D02*
X052336Y013614D01*
X052336Y013456D02*
X050461Y013456D01*
X050461Y013297D02*
X052336Y013297D01*
X052336Y013139D02*
X050461Y013139D01*
X050461Y012980D02*
X052336Y012980D01*
X052336Y012822D02*
X050461Y012822D01*
X050461Y012663D02*
X052336Y012663D01*
X051403Y013950D02*
X051403Y015259D01*
X050811Y015850D01*
X049927Y015850D01*
X049911Y015865D01*
X049911Y016535D02*
X050427Y016535D01*
X050461Y016500D01*
X056486Y019650D02*
X056661Y019550D01*
X048711Y020350D02*
X048711Y020619D01*
X048630Y020700D01*
X048630Y021300D01*
X048380Y021550D01*
X048080Y021550D01*
X048328Y024050D02*
X048328Y024767D01*
X048911Y025350D01*
X049461Y025050D02*
X049195Y024783D01*
X049195Y024424D01*
X050761Y025000D02*
X050795Y025034D01*
X052961Y025034D02*
X053028Y024850D01*
X054245Y025050D02*
X054361Y025034D01*
X055645Y025100D02*
X055761Y025084D01*
X055711Y025034D01*
X053011Y026200D02*
X052961Y026200D01*
X051611Y026816D02*
X051561Y026766D01*
X039146Y027350D02*
X039096Y027515D01*
X038461Y028050D01*
X038461Y028750D01*
X038961Y029250D01*
X012780Y028600D02*
X012780Y027200D01*
X009330Y027200D01*
X009330Y027850D01*
X010080Y028600D01*
X012780Y028600D01*
X012780Y028513D02*
X009993Y028513D01*
X009835Y028355D02*
X012780Y028355D01*
X012780Y028196D02*
X009676Y028196D01*
X009518Y028038D02*
X012780Y028038D01*
X012780Y027879D02*
X009359Y027879D01*
X009330Y027721D02*
X012780Y027721D01*
X012780Y027562D02*
X009330Y027562D01*
X009330Y027404D02*
X012780Y027404D01*
X012780Y027245D02*
X009330Y027245D01*
X009880Y025300D02*
X012780Y025300D01*
X012780Y022750D01*
X009280Y022800D01*
X009280Y024600D01*
X009880Y025300D01*
X009781Y025185D02*
X012780Y025185D01*
X012780Y025026D02*
X009645Y025026D01*
X009509Y024868D02*
X012780Y024868D01*
X012780Y024709D02*
X009373Y024709D01*
X009280Y024551D02*
X012780Y024551D01*
X012780Y024392D02*
X009280Y024392D01*
X009280Y024234D02*
X012780Y024234D01*
X012780Y024075D02*
X009280Y024075D01*
X009280Y023917D02*
X012780Y023917D01*
X012780Y023758D02*
X009280Y023758D01*
X009280Y023600D02*
X012780Y023600D01*
X012780Y023441D02*
X009280Y023441D01*
X009280Y023283D02*
X012780Y023283D01*
X012780Y023124D02*
X009280Y023124D01*
X009280Y022966D02*
X012780Y022966D01*
X012780Y022807D02*
X009280Y022807D01*
X008530Y019300D02*
X008530Y016550D01*
X012630Y016550D01*
X012630Y019300D01*
X008530Y019300D01*
X008530Y019162D02*
X012630Y019162D01*
X012630Y019003D02*
X008530Y019003D01*
X008530Y018845D02*
X012630Y018845D01*
X012630Y018686D02*
X008530Y018686D01*
X008530Y018528D02*
X012630Y018528D01*
X012630Y018369D02*
X008530Y018369D01*
X008530Y018211D02*
X012630Y018211D01*
X012630Y018052D02*
X008530Y018052D01*
X008530Y017894D02*
X012630Y017894D01*
X012630Y017735D02*
X008530Y017735D01*
X008530Y017577D02*
X012630Y017577D01*
X012630Y017418D02*
X008530Y017418D01*
X008530Y017260D02*
X012630Y017260D01*
X012630Y017101D02*
X008530Y017101D01*
X008530Y016943D02*
X012630Y016943D01*
X012630Y016784D02*
X008530Y016784D01*
X008530Y016626D02*
X012630Y016626D01*
X012680Y015550D02*
X008530Y015500D01*
X008530Y012750D01*
X012680Y012800D01*
X012680Y015550D01*
X012680Y015516D02*
X009860Y015516D01*
X008530Y015358D02*
X012680Y015358D01*
X012680Y015199D02*
X008530Y015199D01*
X008530Y015041D02*
X012680Y015041D01*
X012680Y014882D02*
X008530Y014882D01*
X008530Y014724D02*
X012680Y014724D01*
X012680Y014565D02*
X008530Y014565D01*
X008530Y014407D02*
X012680Y014407D01*
X012680Y014248D02*
X008530Y014248D01*
X008530Y014090D02*
X012680Y014090D01*
X012680Y013931D02*
X008530Y013931D01*
X008530Y013773D02*
X012680Y013773D01*
X012680Y013614D02*
X008530Y013614D01*
X008530Y013456D02*
X012680Y013456D01*
X012680Y013297D02*
X008530Y013297D01*
X008530Y013139D02*
X012680Y013139D01*
X012680Y012980D02*
X008530Y012980D01*
X008530Y012822D02*
X012680Y012822D01*
X012680Y009050D02*
X008580Y009050D01*
X008580Y006300D01*
X012680Y006300D01*
X012680Y009050D01*
X012680Y009018D02*
X008580Y009018D01*
X008580Y008859D02*
X012680Y008859D01*
X012680Y008701D02*
X008580Y008701D01*
X008580Y008542D02*
X012680Y008542D01*
X012680Y008384D02*
X008580Y008384D01*
X008580Y008225D02*
X012680Y008225D01*
X012680Y008067D02*
X008580Y008067D01*
X008580Y007908D02*
X012680Y007908D01*
X012680Y007750D02*
X008580Y007750D01*
X008580Y007591D02*
X012680Y007591D01*
X012680Y007433D02*
X008580Y007433D01*
X008580Y007274D02*
X012680Y007274D01*
X012680Y007116D02*
X008580Y007116D01*
X008580Y006957D02*
X012680Y006957D01*
X012680Y006799D02*
X008580Y006799D01*
X008580Y006640D02*
X012680Y006640D01*
X012680Y006482D02*
X008580Y006482D01*
X008580Y006323D02*
X012680Y006323D01*
X012680Y005300D02*
X008480Y005300D01*
X008480Y002800D01*
X012680Y002800D01*
X012680Y005300D01*
X012680Y005214D02*
X008480Y005214D01*
X008480Y005055D02*
X012680Y005055D01*
X012680Y004897D02*
X008480Y004897D01*
X008480Y004738D02*
X012680Y004738D01*
X012680Y004580D02*
X008480Y004580D01*
X008480Y004421D02*
X012680Y004421D01*
X012680Y004263D02*
X008480Y004263D01*
X008480Y004104D02*
X012680Y004104D01*
X012680Y003946D02*
X008480Y003946D01*
X008480Y003787D02*
X012680Y003787D01*
X012680Y003629D02*
X008480Y003629D01*
X008480Y003470D02*
X012680Y003470D01*
X012680Y003312D02*
X008480Y003312D01*
X008480Y003153D02*
X012680Y003153D01*
X012680Y002995D02*
X008480Y002995D01*
X008480Y002836D02*
X012680Y002836D01*
X002470Y014570D02*
X002450Y014570D01*
X002470Y015640D02*
X002470Y015660D01*
X002470Y017830D02*
X002460Y017830D01*
X002470Y019990D02*
X002470Y020010D01*
X002470Y023270D02*
X002500Y023270D01*
X034961Y004600D02*
X034961Y004250D01*
X034661Y003950D01*
X035511Y003824D02*
X035511Y004300D01*
D58*
X048311Y017135D02*
X047936Y017500D01*
X047661Y017500D01*
X048311Y017900D02*
X047961Y018250D01*
D59*
X047080Y018194D02*
X045062Y018194D01*
X045061Y018150D02*
X045080Y019750D01*
X045580Y019750D01*
X045580Y020650D01*
X046580Y020650D01*
X046580Y019750D01*
X047080Y019750D01*
X047080Y018150D01*
X045061Y018150D01*
X045063Y018312D02*
X047080Y018312D01*
X047080Y018431D02*
X045065Y018431D01*
X045066Y018549D02*
X047080Y018549D01*
X047080Y018668D02*
X045067Y018668D01*
X045069Y018786D02*
X047080Y018786D01*
X047080Y018905D02*
X045070Y018905D01*
X045072Y019023D02*
X047080Y019023D01*
X047080Y019142D02*
X045073Y019142D01*
X045074Y019260D02*
X047080Y019260D01*
X047080Y019379D02*
X045076Y019379D01*
X045077Y019497D02*
X047080Y019497D01*
X047080Y019616D02*
X045078Y019616D01*
X045080Y019734D02*
X047080Y019734D01*
X046580Y019853D02*
X045580Y019853D01*
X045580Y019971D02*
X046580Y019971D01*
X046580Y020090D02*
X045580Y020090D01*
X045580Y020208D02*
X046580Y020208D01*
X046580Y020327D02*
X045580Y020327D01*
X045580Y020445D02*
X046580Y020445D01*
X046580Y020564D02*
X045580Y020564D01*
X037411Y024250D02*
X037084Y024578D01*
X036562Y024578D01*
X036562Y024775D02*
X037311Y024775D01*
X037311Y024775D01*
X033136Y024876D02*
X033136Y024615D01*
X033136Y024876D02*
X032861Y025150D01*
X032861Y025700D01*
X032561Y026000D01*
X032361Y026000D01*
X032261Y024615D02*
X032211Y024565D01*
X032211Y024300D01*
X031711Y023800D01*
X031711Y022600D01*
X031711Y021965D01*
X031877Y021800D01*
X031827Y021750D01*
X030961Y022650D01*
X036161Y020750D02*
X036161Y020400D01*
X036161Y020750D02*
X036249Y020838D01*
X036562Y020838D01*
X036562Y021035D02*
X037046Y021035D01*
X037286Y021225D01*
X022911Y016550D02*
X022661Y016300D01*
X022661Y016085D01*
X022611Y015465D02*
X022661Y015415D01*
X022661Y014950D01*
X022611Y014900D01*
X022011Y014900D01*
X021917Y014994D01*
X021917Y015206D01*
X022017Y012206D02*
X022452Y012206D01*
X022711Y011947D01*
X022711Y011850D01*
X024761Y011480D02*
X025331Y011480D01*
X026361Y010300D01*
X026387Y009300D01*
X027136Y009300D02*
X027911Y009300D01*
X027911Y008635D01*
X027911Y007965D02*
X025396Y007965D01*
X024761Y008600D01*
X024761Y009480D01*
X032561Y004900D02*
X032561Y004435D01*
X035511Y003824D02*
X035585Y003750D01*
X035585Y002750D02*
X036111Y002750D01*
X036111Y002250D01*
X035585Y002250D01*
X036111Y002250D02*
X036111Y001400D01*
X034777Y001400D02*
X034761Y001385D01*
X040961Y002245D02*
X040961Y003265D01*
X043561Y003265D02*
X043561Y002245D01*
X036511Y005169D02*
X036496Y005185D01*
D60*
X047311Y008800D02*
X047761Y008800D01*
X048445Y008800D01*
X052711Y010474D02*
X052711Y011300D01*
X052261Y011300D01*
X051811Y011300D01*
X053711Y011500D02*
X053711Y010474D01*
X053711Y011500D02*
X053911Y011700D01*
X053911Y011950D01*
X053911Y012450D01*
X049236Y012176D02*
X049211Y012200D01*
X048487Y013050D02*
X048463Y013074D01*
X047411Y013074D02*
X047411Y013350D01*
X047411Y013850D01*
X047411Y014350D01*
X047411Y014850D01*
X045102Y016680D02*
X045082Y016700D01*
X044361Y016700D01*
X044361Y017150D01*
X044061Y014850D02*
X044061Y014400D01*
X044061Y014300D01*
X044111Y014350D01*
X044061Y014300D02*
X044061Y013850D01*
X031361Y019650D02*
X030861Y019650D01*
X027111Y017350D02*
X027111Y017300D01*
X027111Y017350D02*
X026085Y017350D01*
X026085Y016850D02*
X027111Y016850D01*
X027111Y016800D01*
X027111Y016350D02*
X026085Y016350D01*
X016611Y017700D02*
X011780Y017700D01*
X010580Y017625D01*
X011780Y017700D01*
X014261Y016050D02*
X015661Y016050D01*
X015711Y016100D01*
X014261Y016050D02*
X013480Y014450D01*
X011730Y014450D01*
X010580Y014475D01*
X010580Y007375D02*
X018693Y007375D01*
X018791Y007473D01*
X018791Y006587D01*
X018791Y007473D02*
X018988Y007670D01*
X015261Y003700D02*
X014736Y004225D01*
X010580Y004225D01*
X011680Y004201D01*
X011680Y003650D01*
X015261Y003700D02*
X018955Y003700D01*
X018988Y003733D01*
X018389Y022650D02*
X011280Y022650D01*
X010580Y023350D01*
X010580Y024725D01*
X010580Y024400D01*
X012130Y022850D01*
X011680Y023650D02*
X011704Y023674D01*
X018389Y022650D02*
X018988Y023249D01*
X018521Y027900D02*
X011730Y027900D01*
X010580Y027875D01*
X018521Y027900D02*
X018988Y028367D01*
X018972Y029450D02*
X018791Y029450D01*
D61*
X003030Y027400D02*
X003030Y023800D01*
X002500Y023270D01*
D62*
X006980Y020593D02*
X006980Y019593D01*
X002470Y019990D02*
X000580Y018400D01*
X000580Y009450D01*
X001330Y008700D01*
X002030Y009050D02*
X002030Y007950D01*
X001330Y007150D01*
X002430Y006750D02*
X001330Y005700D01*
X002430Y006750D02*
X002430Y009350D01*
X001480Y010300D01*
X001480Y014900D01*
X002470Y015640D01*
X001030Y016550D02*
X001030Y010050D01*
X002030Y009050D01*
X013730Y006000D02*
X014456Y006000D01*
X014606Y002700D02*
X013730Y002700D01*
X013730Y001700D02*
X014606Y001700D01*
X015354Y001700D02*
X016980Y001700D01*
X017280Y001400D01*
X021630Y001400D01*
X021930Y001700D01*
X021930Y002900D01*
X022280Y003250D01*
X023011Y003250D01*
X016530Y002700D02*
X016011Y002700D01*
X015354Y002700D01*
X034961Y004600D02*
X035361Y005200D01*
X036511Y005200D01*
X036496Y005185D01*
X036511Y005200D02*
X042111Y005200D01*
X042211Y005200D01*
X042461Y005450D01*
X042461Y005900D01*
X042461Y006900D01*
X044011Y013850D02*
X044061Y013850D01*
X044061Y014350D02*
X044738Y014350D01*
X047161Y015950D02*
X047161Y016450D01*
X049511Y017550D02*
X050037Y017550D01*
X050786Y017550D02*
X050786Y018600D01*
X050786Y019650D01*
X051511Y020515D01*
X051511Y022250D01*
X051611Y022550D01*
X051611Y024000D01*
X052261Y024650D01*
X052261Y025600D01*
X051561Y026300D01*
X051561Y026766D01*
X051611Y026816D02*
X051611Y027250D01*
X052161Y027800D01*
X052161Y028750D01*
X051661Y029250D01*
X050661Y029250D02*
X050161Y028750D01*
X050161Y026715D01*
X050146Y026700D01*
X050146Y026250D01*
X050146Y025650D01*
X050795Y025034D02*
X051561Y025034D01*
X050761Y025000D02*
X050761Y027350D01*
X051661Y028250D01*
X052661Y028250D02*
X052661Y027700D01*
X052311Y027350D01*
X052311Y026300D01*
X053028Y025584D01*
X053028Y024850D01*
X052411Y024234D01*
X052411Y023933D01*
X053261Y024100D02*
X053261Y020226D01*
X052686Y019650D01*
X052686Y018600D01*
X052686Y017550D01*
X053311Y017550D02*
X053837Y017550D01*
X054586Y017550D02*
X054586Y018600D01*
X054586Y019650D01*
X054711Y019900D01*
X055011Y020250D01*
X055011Y022250D01*
X054861Y022650D01*
X054861Y023950D01*
X055061Y024150D01*
X055061Y025550D01*
X054361Y026250D01*
X054361Y026766D01*
X054161Y027700D01*
X054161Y028750D01*
X053661Y029250D01*
X053161Y028750D02*
X052661Y029250D01*
X053161Y028750D02*
X053161Y027450D01*
X052961Y027200D01*
X052961Y026766D01*
X052961Y026200D01*
X053011Y026200D02*
X053711Y025500D01*
X053711Y024600D01*
X053261Y024100D01*
X054061Y023933D02*
X054061Y024300D01*
X054361Y024600D01*
X054361Y025034D01*
X054245Y025050D02*
X054245Y025766D01*
X053711Y026300D01*
X053711Y027600D01*
X053661Y028250D01*
X054661Y028250D02*
X055061Y027850D01*
X055061Y026250D01*
X055645Y025666D01*
X055645Y025100D01*
X055711Y025034D02*
X055711Y023933D01*
X050761Y023933D02*
X050761Y025000D01*
X049811Y024450D02*
X049811Y023700D01*
X049811Y023150D01*
X049561Y022800D02*
X048946Y022800D01*
X049561Y022800D02*
X049611Y022750D01*
X048277Y022800D02*
X047811Y022800D01*
X047711Y022900D01*
X047661Y022900D01*
X047611Y021975D02*
X047562Y021924D01*
X048050Y021924D01*
X048050Y021550D02*
X047611Y021550D01*
X047611Y021525D01*
X047561Y021925D02*
X047611Y021975D01*
X047514Y020350D02*
X047011Y020350D01*
X048183Y020350D02*
X048711Y020350D01*
X049486Y019650D02*
X050037Y019650D01*
X048911Y019200D02*
X048887Y019224D01*
X049511Y018600D02*
X050037Y018600D01*
X051411Y018600D02*
X051937Y018600D01*
X053311Y018600D02*
X053837Y018600D01*
X053837Y019650D02*
X053311Y019650D01*
X051937Y019650D02*
X051411Y019650D01*
X051411Y017550D02*
X051937Y017550D01*
X055211Y017550D02*
X055737Y017550D01*
X056486Y017550D02*
X056486Y018600D01*
X056486Y019650D01*
X056661Y019550D02*
X056811Y019700D01*
X056811Y026600D01*
X056595Y026816D01*
X055761Y026816D01*
X055761Y028150D01*
X054661Y029250D01*
X050661Y029250D02*
X048661Y031250D01*
X018030Y031300D01*
X016130Y029400D01*
X009680Y029400D01*
X009130Y028850D01*
X004080Y028850D01*
X003430Y028200D01*
X003080Y028200D01*
X002480Y027600D01*
X002480Y026540D01*
X002470Y026530D01*
X003030Y027400D02*
X003280Y027650D01*
X003630Y027650D01*
X004230Y028250D01*
X009180Y028250D01*
X009930Y029000D01*
X016480Y029050D01*
X018180Y030750D01*
X046161Y030750D01*
X047661Y029250D01*
X046111Y030000D02*
X023261Y030000D01*
X022511Y029250D01*
X018988Y029253D02*
X018988Y028367D01*
X018988Y029253D02*
X018791Y029450D01*
X016111Y026300D02*
X016011Y026200D01*
X016011Y024935D01*
X016011Y024265D02*
X016011Y023750D01*
X015811Y021675D02*
X015711Y021575D01*
X015711Y020735D01*
X015711Y020065D02*
X015711Y019450D01*
X024011Y017824D02*
X024011Y017550D01*
X024011Y017824D02*
X024038Y017850D01*
X002460Y017830D02*
X001030Y016550D01*
X055211Y018600D02*
X055737Y018600D01*
X055737Y019650D02*
X055211Y019650D01*
D63*
X046011Y019120D02*
X046011Y016680D01*
X049811Y011150D02*
X049811Y011149D01*
X049811Y010550D01*
X049811Y011150D02*
X050861Y011150D01*
X050911Y011200D01*
X030861Y019650D02*
X030745Y019534D01*
X029911Y019534D01*
X029011Y019250D02*
X028961Y019200D01*
X028911Y020250D01*
X027921Y020250D01*
X026802Y020250D02*
X026580Y020250D01*
X026241Y020250D01*
X025554Y019564D01*
X028961Y021250D02*
X028978Y021266D01*
X029911Y021266D01*
X028011Y023650D02*
X027871Y023650D01*
X026752Y023650D02*
X025598Y023650D01*
X020861Y019250D02*
X020861Y018300D01*
X020861Y017600D01*
X021252Y017210D01*
X021252Y017150D01*
X022371Y017150D02*
X024038Y017150D01*
X024061Y014300D02*
X022521Y014300D01*
X021402Y014300D02*
X020430Y014300D01*
X019761Y011050D02*
X021452Y011050D01*
X022571Y011050D02*
X023211Y011050D01*
X006980Y012507D02*
X006980Y013507D01*
X006080Y014650D02*
X004880Y015850D01*
X004880Y016350D01*
X003940Y017290D01*
X003590Y017290D01*
X003590Y018380D02*
X004310Y018380D01*
X004330Y018400D01*
X006980Y017050D02*
X006980Y016050D01*
X005030Y014200D02*
X004110Y015120D01*
X003590Y015120D01*
X005030Y014200D02*
X005030Y013150D01*
X006980Y009343D02*
X006980Y008343D01*
X006980Y005800D02*
X006980Y005750D01*
X006980Y004800D01*
X006930Y005750D02*
X006980Y005800D01*
X006980Y002257D02*
X006980Y001257D01*
X005020Y021640D02*
X003590Y021640D01*
X005020Y021640D02*
X005080Y021675D01*
X008880Y021675D01*
X006980Y022757D02*
X006980Y023757D01*
X004880Y023450D02*
X004150Y022720D01*
X003590Y022720D01*
X006980Y026300D02*
X006980Y027300D01*
X006980Y029843D02*
X006980Y030843D01*
D64*
X013580Y025450D02*
X013580Y024774D01*
X013630Y024724D01*
X014830Y024724D02*
X014830Y025450D01*
X014830Y023976D02*
X014830Y023250D01*
X013630Y023250D02*
X013630Y023976D01*
X030211Y017600D02*
X030461Y017600D01*
X032611Y015450D01*
X035761Y015450D01*
X036161Y015850D01*
X036161Y017060D01*
X036761Y017660D01*
X037101Y017660D01*
X044061Y014850D02*
X044738Y014850D01*
X044738Y014350D02*
X044111Y014350D01*
X044061Y014400D01*
X044061Y013850D02*
X044738Y013850D01*
X044161Y013850D02*
X044061Y013850D01*
X046785Y013850D02*
X047411Y013850D01*
X047411Y014350D02*
X046785Y014350D01*
X046785Y014850D02*
X047411Y014850D01*
X047661Y015950D02*
X047661Y016450D01*
X048337Y016450D01*
X048311Y016465D01*
X047661Y016450D02*
X047211Y016450D01*
X046982Y016680D01*
X046921Y016680D01*
X047961Y018250D02*
X047961Y018476D01*
X048911Y018150D02*
X048911Y019200D01*
X048911Y019850D01*
X049611Y020550D01*
X049611Y021950D01*
X049586Y021924D01*
X049073Y021924D01*
X049611Y021950D02*
X049611Y022750D01*
X049611Y022950D01*
X049811Y023150D01*
X049811Y024450D02*
X050061Y024700D01*
X050136Y024700D01*
X050146Y024710D01*
X050146Y025650D01*
X047511Y022400D02*
X047611Y021975D01*
X048911Y018150D02*
X049511Y017550D01*
X051403Y013950D02*
X051453Y013850D01*
X053211Y011800D02*
X053211Y010474D01*
X051811Y010424D02*
X050911Y010424D01*
X050911Y009676D02*
X050911Y009050D01*
X050261Y009200D02*
X050261Y008800D01*
X050178Y008800D01*
X050261Y009200D02*
X049811Y009650D01*
X049811Y010549D01*
X049811Y010550D01*
X049837Y010524D01*
X051811Y009676D02*
X051811Y009050D01*
X047411Y013350D02*
X046785Y013350D01*
X046761Y013350D01*
X030411Y003250D02*
X028811Y003250D01*
X027811Y003250D01*
X026811Y003250D01*
X025011Y003250D01*
X024011Y003250D01*
X023011Y003250D01*
D65*
X047212Y010550D02*
X047212Y011950D01*
X047211Y011950D01*
X047461Y012200D01*
X048211Y012200D01*
X048711Y012200D01*
X049211Y012200D01*
X049236Y012176D02*
X049236Y013050D01*
X048463Y013074D02*
X047411Y013074D01*
X050911Y012100D02*
X050911Y011650D01*
X050911Y011200D01*
X050911Y010424D01*
X053211Y011800D02*
X053211Y013100D01*
X052361Y013950D01*
X051403Y013950D01*
X056661Y013950D02*
X056661Y013400D01*
X056661Y012850D01*
X056661Y013950D02*
X056661Y014450D01*
X056661Y015000D01*
X056861Y010500D02*
X056236Y010500D01*
X055487Y010500D02*
X054761Y010500D01*
X054811Y009550D02*
X055487Y009550D01*
X056236Y009550D02*
X056861Y009550D01*
X056111Y006000D02*
X055611Y006000D01*
X054662Y006000D01*
X054661Y006001D01*
X054661Y006000D02*
X054711Y005950D01*
X054661Y006000D02*
X053711Y006000D01*
X053161Y006000D01*
X053211Y003600D02*
X053761Y003600D01*
X054662Y003600D01*
X054661Y003599D01*
X054662Y003600D02*
X055611Y003600D01*
X056161Y003600D01*
X044361Y018650D02*
X044361Y019125D01*
X046007Y019125D01*
X046011Y019120D01*
X047132Y019120D01*
X047211Y019200D01*
X047937Y019200D01*
X047961Y019224D01*
X025761Y019500D02*
X025554Y019564D01*
X024948Y019750D01*
X024948Y023000D02*
X025598Y023650D01*
D66*
X028011Y023650D02*
X028961Y023150D01*
X028961Y021250D01*
X028961Y019200D01*
X027911Y019200D02*
X027911Y019250D01*
X018988Y020282D02*
X018791Y020085D01*
X018791Y019200D01*
X018791Y019200D01*
X017161Y019200D01*
X016611Y018650D01*
X016611Y017700D01*
X016611Y015250D01*
X017561Y014300D01*
X020430Y014300D01*
X023561Y012150D02*
X024061Y012650D01*
X023561Y012150D02*
X023561Y011350D01*
X023211Y011050D01*
X019761Y011050D02*
X018988Y010276D01*
X018988Y007670D01*
X055320Y013950D02*
X056661Y013950D01*
D67*
X024061Y014300D02*
X024061Y012650D01*
X024061Y014300D02*
X024036Y016351D01*
X024038Y016350D01*
X024038Y016850D01*
X024038Y017150D01*
X024038Y017350D01*
X024038Y017524D01*
X024011Y017550D01*
X022121Y018852D02*
X022119Y018855D01*
X022121Y020648D02*
X021314Y020648D01*
X020286Y021675D01*
X015811Y021675D01*
X008880Y021675D01*
X004880Y023450D02*
X004880Y024300D01*
X005480Y025000D01*
X008330Y025000D01*
X009580Y026300D01*
X016111Y026300D01*
X019719Y026300D01*
X022121Y023898D01*
X022119Y020650D02*
X022121Y020648D01*
X006980Y016050D02*
X004630Y018400D01*
X004330Y018400D01*
X006080Y014650D02*
X007230Y013500D01*
X006987Y013500D01*
X006980Y013507D01*
X005030Y013150D02*
X005030Y007150D01*
X006980Y005750D01*
D68*
X022119Y018855D02*
X022119Y020650D01*
X022121Y022102D02*
X022121Y023898D01*
D69*
X027911Y019250D02*
X028411Y019250D01*
X028911Y019250D01*
X027911Y019200D02*
X027111Y018450D01*
X027111Y017300D01*
X027111Y016800D01*
X027111Y016350D01*
M02*
