%
M48
M72
T01C0.0150
T02C0.0236
T03C0.0374
T04C0.0394
T05C0.0400
T06C0.0591
T07C0.0748
T08C0.0866
T09C0.1220
T10C0.1250
%
T01
X26461Y25550
X28061Y25700
X30811Y23650
X31711Y22600
X32261Y22600
X33811Y22050
X33711Y21150
X33761Y20750
X34861Y21500
X35111Y22300
X35761Y21850
X35911Y21500
X37286Y21225
X37311Y21850
X39011Y21000
X39361Y21350
X39961Y20850
X40311Y21000
X40661Y21300
X41211Y21400
X41811Y20850
X41461Y20750
X40961Y20750
X40461Y19450
X39411Y19425
X41411Y18050
X41011Y17850
X42061Y18050
X42461Y17600
X42411Y17200
X44511Y15400
X47411Y15250
X48561Y15400
X49811Y14950
X48161Y13700
X53261Y9650
X53661Y9650
X53661Y9250
X53261Y9250
X51361Y8950
X55411Y7100
X56861Y7800
X56361Y11250
X46161Y4500
X47111Y3850
X44911Y4500
X44411Y5050
X40961Y4550
X39661Y4800
X38311Y4800
X37811Y4800
X35511Y4300
X32561Y4900
X31961Y4500
X31111Y4350
X36111Y1400
X40361Y1900
X47411Y2350
X51861Y2200
X36261Y8250
X35811Y8850
X35511Y9500
X36411Y10800
X37161Y13100
X36311Y13400
X36611Y13750
X35411Y15900
X39411Y16900
X39561Y17550
X39411Y17900
X35911Y18850
X34711Y18300
X34261Y18300
X32061Y19750
X30711Y21350
X29961Y22000
X28261Y20900
X27461Y22300
X26511Y22350
X32361Y26000
X33011Y26250
X34511Y24800
X35061Y24550
X34661Y24300
X34561Y23800
X34961Y23500
X34511Y23200
X35461Y23850
X37311Y24775
X37411Y24250
X38411Y23850
X38761Y24100
X38561Y25100
X39311Y25100
X39561Y25550
X40111Y25550
X39861Y26900
X39511Y26900
X38111Y27850
X43411Y24900
X43711Y24600
X41961Y23750
X41811Y23400
X42061Y23050
X41911Y22350
X42211Y22025
X43711Y22450
X47661Y23650
X49461Y25050
X48911Y25350
X52786Y22500
X54436Y22450
X56086Y22450
X56336Y20700
X55511Y20700
X54436Y20700
X53711Y20700
X52636Y20650
X51961Y20650
X51086Y20700
X50211Y20700
X50986Y22400
X45211Y20200
X43911Y19600
X43511Y19150
X42811Y19350
X43511Y20350
X36161Y20400
X31111Y17600
X26361Y18250
X22911Y16550
X20861Y16550
X21061Y15000
X22661Y14950
X22711Y13600
X20711Y11950
X21211Y11800
X22711Y11850
X21211Y10350
X21811Y9000
X20411Y8750
X22511Y7750
X19411Y13250
X18261Y15000
T02
X16530Y27200
X14830Y25450
X13580Y25450
X16011Y23750
X14830Y23250
X13630Y23250
X15711Y19450
X20861Y19300
X20861Y18800
X20861Y18300
X15711Y16100
X27911Y19250
X28411Y19250
X28911Y19250
X30861Y19650
X31361Y19650
X44061Y14850
X44061Y14350
X44061Y13850
X47161Y15950
X47661Y15950
X47661Y17500
X48311Y17900
X49511Y17550
X50461Y16500
X51411Y17550
X53311Y17550
X53311Y18600
X53311Y19650
X51411Y19650
X51411Y18600
X49511Y18600
X49486Y19650
X48711Y20350
X47011Y20350
X47611Y21525
X47611Y21975
X47511Y22425
X47661Y22900
X50136Y24700
X46111Y30000
X55211Y19650
X55211Y18600
X55211Y17550
X56661Y15000
X56661Y14450
X56661Y13950
X56661Y13400
X56661Y12850
X54761Y11600
X53911Y11950
X53911Y12450
X53711Y11500
X52711Y11300
X52261Y11300
X51811Y11300
X50911Y11200
X50911Y11650
X50911Y12100
X49211Y12200
X48711Y12200
X48211Y12200
X50911Y9050
X51811Y9050
X54811Y9550
X54761Y10500
X56861Y10500
X56861Y9550
X51311Y6800
X53161Y6000
X53711Y6000
X55611Y6000
X56111Y6000
X56161Y3600
X55611Y3600
X53761Y3600
X53211Y3600
X47161Y1250
X40311Y1250
X34961Y4600
X47311Y8800
X47761Y8800
X44361Y16700
X44361Y17150
X44361Y18650
X44361Y19125
X16461Y2700
X16011Y2700
X13730Y2700
X13730Y1700
X13730Y6000
T03
X48061Y7100
X47061Y7100
X46061Y7100
X46061Y6100
X47061Y6100
X48061Y6100
T04
X14480Y30431
X15480Y30431
X21511Y29250
X22511Y29250
X23511Y29250
X24511Y29250
X25511Y29250
X26511Y29250
X27511Y29250
X28511Y29250
X28511Y28250
X27511Y28250
X26511Y28250
X25511Y28250
X24511Y28250
X23511Y28250
X22511Y28250
X21511Y28250
X24811Y26250
X24811Y25250
X30211Y28250
X31211Y28250
X32211Y28250
X33211Y28250
X34211Y28250
X35211Y28250
X36211Y28250
X37211Y28250
X37211Y29250
X36211Y29250
X35211Y29250
X34211Y29250
X33211Y29250
X32211Y29250
X31211Y29250
X30211Y29250
X38961Y29250
X39961Y29250
X40961Y29250
X41961Y29250
X42961Y29250
X43961Y29250
X44961Y29250
X45961Y29250
X47661Y29250
X48661Y29250
X49661Y29250
X50661Y29250
X51661Y29250
X52661Y29250
X53661Y29250
X54661Y29250
X54661Y28250
X53661Y28250
X52661Y28250
X51661Y28250
X50661Y28250
X49661Y28250
X48661Y28250
X47661Y28250
X45961Y28250
X44961Y28250
X43961Y28250
X42961Y28250
X41961Y28250
X40961Y28250
X39961Y28250
X38961Y28250
X37101Y18660
X37101Y17660
X37101Y16660
X30211Y16600
X29211Y16600
X28211Y16600
X28211Y17600
X29211Y17600
X30211Y17600
X24761Y11480
X24761Y10480
X24761Y9480
X24461Y6900
X23461Y6900
X22461Y6900
X21461Y6900
X21461Y5900
X22461Y5900
X23461Y5900
X24461Y5900
X25461Y5900
X26461Y5900
X27461Y5900
X28461Y5900
X29461Y5900
X30461Y5900
X31461Y5900
X32461Y5900
X33461Y5900
X34461Y5900
X35461Y5900
X36461Y5900
X37461Y5900
X38461Y5900
X39461Y5900
X40461Y5900
X41461Y5900
X42461Y5900
X43461Y5900
X43461Y6900
X42461Y6900
X41461Y6900
X40461Y6900
X39461Y6900
X38461Y6900
X37461Y6900
X36461Y6900
X35461Y6900
X34461Y6900
X33461Y6900
X32461Y6900
X31461Y6900
X30461Y6900
X29461Y6900
X28461Y6900
X27461Y6900
X26461Y6900
X25461Y6900
X25011Y4250
X24011Y4250
X23011Y4250
X23011Y3250
X24011Y3250
X25011Y3250
X25011Y2250
X24011Y2250
X23011Y2250
X26811Y2250
X27811Y2250
X28811Y2250
X30411Y2250
X30411Y3250
X28811Y3250
X27811Y3250
X26811Y3250
X26811Y4250
X27811Y4250
X28811Y4250
X32030Y1650
X40111Y9000
X41111Y9000
X41111Y10000
X40111Y10000
X40111Y11000
X41111Y11000
X49911Y5800
X50911Y5800
X51211Y1250
X3830Y3400
X1330Y5700
X3130Y5700
X3130Y7150
X1330Y7150
X1330Y8700
X3130Y8700
T05
X3590Y14030
X2470Y14570
X3590Y15120
X2470Y15660
X3590Y16200
X2470Y16750
X3590Y17290
X2470Y17830
X3590Y18380
X2470Y18920
X3590Y19460
X2470Y20010
X3590Y20550
X2470Y21090
X3590Y21640
X2470Y22180
X3590Y22720
X2470Y23270
X3590Y23810
X2470Y24350
X3590Y24900
X2470Y25440
X3590Y25980
X2470Y26530
X3590Y27070
T06
X6980Y1257
X6980Y4800
X6980Y8343
X6980Y13507
X6980Y17050
X6980Y20593
X6980Y23757
X6980Y27300
X6980Y30843
X18791Y29450
X18791Y24331
X18791Y19200
X18791Y16050
X18791Y6587
X18791Y2650
T07
X6980Y29843
X6980Y26300
X6980Y22757
X6980Y19593
X6980Y16050
X6980Y12507
X6980Y9343
X6980Y5800
X6980Y2257
T08
X18988Y3733
X18988Y7670
X18988Y17133
X18988Y20282
X18988Y23249
X18988Y28367
T09
X3030Y11290
X3030Y29810
T10
X1360Y1480
X45461Y25400
X56081Y30610
X8841Y30610
X56081Y1480
M30
