G75*
G70*
%OFA0B0*%
%FSLAX24Y24*%
%IPPOS*%
%LPD*%
%AMOC8*
5,1,8,0,0,1.08239X$1,22.5*
%
%ADD10C,0.0000*%
%ADD11C,0.1290*%
%ADD12OC8,0.0631*%
%ADD13C,0.0631*%
%ADD14C,0.1339*%
%ADD15C,0.1182*%
%ADD16C,0.1103*%
%ADD17C,0.1142*%
%ADD18OC8,0.0640*%
%ADD19C,0.2040*%
%ADD20OC8,0.0650*%
%ADD21OC8,0.0827*%
D10*
X000180Y000300D02*
X000180Y031800D01*
X057261Y031800D01*
X057261Y000300D01*
X000180Y000300D01*
X000735Y001480D02*
X000737Y001530D01*
X000743Y001579D01*
X000753Y001628D01*
X000766Y001675D01*
X000784Y001722D01*
X000805Y001767D01*
X000829Y001810D01*
X000857Y001851D01*
X000888Y001890D01*
X000922Y001926D01*
X000959Y001960D01*
X000999Y001990D01*
X001040Y002017D01*
X001084Y002041D01*
X001129Y002061D01*
X001176Y002077D01*
X001224Y002090D01*
X001273Y002099D01*
X001323Y002104D01*
X001372Y002105D01*
X001422Y002102D01*
X001471Y002095D01*
X001520Y002084D01*
X001567Y002070D01*
X001613Y002051D01*
X001658Y002029D01*
X001701Y002004D01*
X001741Y001975D01*
X001779Y001943D01*
X001815Y001909D01*
X001848Y001871D01*
X001877Y001831D01*
X001903Y001789D01*
X001926Y001745D01*
X001945Y001699D01*
X001961Y001652D01*
X001973Y001603D01*
X001981Y001554D01*
X001985Y001505D01*
X001985Y001455D01*
X001981Y001406D01*
X001973Y001357D01*
X001961Y001308D01*
X001945Y001261D01*
X001926Y001215D01*
X001903Y001171D01*
X001877Y001129D01*
X001848Y001089D01*
X001815Y001051D01*
X001779Y001017D01*
X001741Y000985D01*
X001701Y000956D01*
X001658Y000931D01*
X001613Y000909D01*
X001567Y000890D01*
X001520Y000876D01*
X001471Y000865D01*
X001422Y000858D01*
X001372Y000855D01*
X001323Y000856D01*
X001273Y000861D01*
X001224Y000870D01*
X001176Y000883D01*
X001129Y000899D01*
X001084Y000919D01*
X001040Y000943D01*
X000999Y000970D01*
X000959Y001000D01*
X000922Y001034D01*
X000888Y001070D01*
X000857Y001109D01*
X000829Y001150D01*
X000805Y001193D01*
X000784Y001238D01*
X000766Y001285D01*
X000753Y001332D01*
X000743Y001381D01*
X000737Y001430D01*
X000735Y001480D01*
X044836Y025400D02*
X044838Y025450D01*
X044844Y025499D01*
X044854Y025548D01*
X044867Y025595D01*
X044885Y025642D01*
X044906Y025687D01*
X044930Y025730D01*
X044958Y025771D01*
X044989Y025810D01*
X045023Y025846D01*
X045060Y025880D01*
X045100Y025910D01*
X045141Y025937D01*
X045185Y025961D01*
X045230Y025981D01*
X045277Y025997D01*
X045325Y026010D01*
X045374Y026019D01*
X045424Y026024D01*
X045473Y026025D01*
X045523Y026022D01*
X045572Y026015D01*
X045621Y026004D01*
X045668Y025990D01*
X045714Y025971D01*
X045759Y025949D01*
X045802Y025924D01*
X045842Y025895D01*
X045880Y025863D01*
X045916Y025829D01*
X045949Y025791D01*
X045978Y025751D01*
X046004Y025709D01*
X046027Y025665D01*
X046046Y025619D01*
X046062Y025572D01*
X046074Y025523D01*
X046082Y025474D01*
X046086Y025425D01*
X046086Y025375D01*
X046082Y025326D01*
X046074Y025277D01*
X046062Y025228D01*
X046046Y025181D01*
X046027Y025135D01*
X046004Y025091D01*
X045978Y025049D01*
X045949Y025009D01*
X045916Y024971D01*
X045880Y024937D01*
X045842Y024905D01*
X045802Y024876D01*
X045759Y024851D01*
X045714Y024829D01*
X045668Y024810D01*
X045621Y024796D01*
X045572Y024785D01*
X045523Y024778D01*
X045473Y024775D01*
X045424Y024776D01*
X045374Y024781D01*
X045325Y024790D01*
X045277Y024803D01*
X045230Y024819D01*
X045185Y024839D01*
X045141Y024863D01*
X045100Y024890D01*
X045060Y024920D01*
X045023Y024954D01*
X044989Y024990D01*
X044958Y025029D01*
X044930Y025070D01*
X044906Y025113D01*
X044885Y025158D01*
X044867Y025205D01*
X044854Y025252D01*
X044844Y025301D01*
X044838Y025350D01*
X044836Y025400D01*
X055456Y030610D02*
X055458Y030660D01*
X055464Y030709D01*
X055474Y030758D01*
X055487Y030805D01*
X055505Y030852D01*
X055526Y030897D01*
X055550Y030940D01*
X055578Y030981D01*
X055609Y031020D01*
X055643Y031056D01*
X055680Y031090D01*
X055720Y031120D01*
X055761Y031147D01*
X055805Y031171D01*
X055850Y031191D01*
X055897Y031207D01*
X055945Y031220D01*
X055994Y031229D01*
X056044Y031234D01*
X056093Y031235D01*
X056143Y031232D01*
X056192Y031225D01*
X056241Y031214D01*
X056288Y031200D01*
X056334Y031181D01*
X056379Y031159D01*
X056422Y031134D01*
X056462Y031105D01*
X056500Y031073D01*
X056536Y031039D01*
X056569Y031001D01*
X056598Y030961D01*
X056624Y030919D01*
X056647Y030875D01*
X056666Y030829D01*
X056682Y030782D01*
X056694Y030733D01*
X056702Y030684D01*
X056706Y030635D01*
X056706Y030585D01*
X056702Y030536D01*
X056694Y030487D01*
X056682Y030438D01*
X056666Y030391D01*
X056647Y030345D01*
X056624Y030301D01*
X056598Y030259D01*
X056569Y030219D01*
X056536Y030181D01*
X056500Y030147D01*
X056462Y030115D01*
X056422Y030086D01*
X056379Y030061D01*
X056334Y030039D01*
X056288Y030020D01*
X056241Y030006D01*
X056192Y029995D01*
X056143Y029988D01*
X056093Y029985D01*
X056044Y029986D01*
X055994Y029991D01*
X055945Y030000D01*
X055897Y030013D01*
X055850Y030029D01*
X055805Y030049D01*
X055761Y030073D01*
X055720Y030100D01*
X055680Y030130D01*
X055643Y030164D01*
X055609Y030200D01*
X055578Y030239D01*
X055550Y030280D01*
X055526Y030323D01*
X055505Y030368D01*
X055487Y030415D01*
X055474Y030462D01*
X055464Y030511D01*
X055458Y030560D01*
X055456Y030610D01*
X008216Y030610D02*
X008218Y030660D01*
X008224Y030709D01*
X008234Y030758D01*
X008247Y030805D01*
X008265Y030852D01*
X008286Y030897D01*
X008310Y030940D01*
X008338Y030981D01*
X008369Y031020D01*
X008403Y031056D01*
X008440Y031090D01*
X008480Y031120D01*
X008521Y031147D01*
X008565Y031171D01*
X008610Y031191D01*
X008657Y031207D01*
X008705Y031220D01*
X008754Y031229D01*
X008804Y031234D01*
X008853Y031235D01*
X008903Y031232D01*
X008952Y031225D01*
X009001Y031214D01*
X009048Y031200D01*
X009094Y031181D01*
X009139Y031159D01*
X009182Y031134D01*
X009222Y031105D01*
X009260Y031073D01*
X009296Y031039D01*
X009329Y031001D01*
X009358Y030961D01*
X009384Y030919D01*
X009407Y030875D01*
X009426Y030829D01*
X009442Y030782D01*
X009454Y030733D01*
X009462Y030684D01*
X009466Y030635D01*
X009466Y030585D01*
X009462Y030536D01*
X009454Y030487D01*
X009442Y030438D01*
X009426Y030391D01*
X009407Y030345D01*
X009384Y030301D01*
X009358Y030259D01*
X009329Y030219D01*
X009296Y030181D01*
X009260Y030147D01*
X009222Y030115D01*
X009182Y030086D01*
X009139Y030061D01*
X009094Y030039D01*
X009048Y030020D01*
X009001Y030006D01*
X008952Y029995D01*
X008903Y029988D01*
X008853Y029985D01*
X008804Y029986D01*
X008754Y029991D01*
X008705Y030000D01*
X008657Y030013D01*
X008610Y030029D01*
X008565Y030049D01*
X008521Y030073D01*
X008480Y030100D01*
X008440Y030130D01*
X008403Y030164D01*
X008369Y030200D01*
X008338Y030239D01*
X008310Y030280D01*
X008286Y030323D01*
X008265Y030368D01*
X008247Y030415D01*
X008234Y030462D01*
X008224Y030511D01*
X008218Y030560D01*
X008216Y030610D01*
X055456Y001480D02*
X055458Y001530D01*
X055464Y001579D01*
X055474Y001628D01*
X055487Y001675D01*
X055505Y001722D01*
X055526Y001767D01*
X055550Y001810D01*
X055578Y001851D01*
X055609Y001890D01*
X055643Y001926D01*
X055680Y001960D01*
X055720Y001990D01*
X055761Y002017D01*
X055805Y002041D01*
X055850Y002061D01*
X055897Y002077D01*
X055945Y002090D01*
X055994Y002099D01*
X056044Y002104D01*
X056093Y002105D01*
X056143Y002102D01*
X056192Y002095D01*
X056241Y002084D01*
X056288Y002070D01*
X056334Y002051D01*
X056379Y002029D01*
X056422Y002004D01*
X056462Y001975D01*
X056500Y001943D01*
X056536Y001909D01*
X056569Y001871D01*
X056598Y001831D01*
X056624Y001789D01*
X056647Y001745D01*
X056666Y001699D01*
X056682Y001652D01*
X056694Y001603D01*
X056702Y001554D01*
X056706Y001505D01*
X056706Y001455D01*
X056702Y001406D01*
X056694Y001357D01*
X056682Y001308D01*
X056666Y001261D01*
X056647Y001215D01*
X056624Y001171D01*
X056598Y001129D01*
X056569Y001089D01*
X056536Y001051D01*
X056500Y001017D01*
X056462Y000985D01*
X056422Y000956D01*
X056379Y000931D01*
X056334Y000909D01*
X056288Y000890D01*
X056241Y000876D01*
X056192Y000865D01*
X056143Y000858D01*
X056093Y000855D01*
X056044Y000856D01*
X055994Y000861D01*
X055945Y000870D01*
X055897Y000883D01*
X055850Y000899D01*
X055805Y000919D01*
X055761Y000943D01*
X055720Y000970D01*
X055680Y001000D01*
X055643Y001034D01*
X055609Y001070D01*
X055578Y001109D01*
X055550Y001150D01*
X055526Y001193D01*
X055505Y001238D01*
X055487Y001285D01*
X055474Y001332D01*
X055464Y001381D01*
X055458Y001430D01*
X055456Y001480D01*
D11*
X056081Y001480D03*
X045461Y025400D03*
X056081Y030610D03*
X008841Y030610D03*
X001360Y001480D03*
D12*
X021461Y005900D03*
X022461Y005900D03*
X023461Y005900D03*
X024461Y005900D03*
X025461Y005900D03*
X026461Y005900D03*
X027461Y005900D03*
X028461Y005900D03*
X029461Y005900D03*
X030461Y005900D03*
X031461Y005900D03*
X032461Y005900D03*
X033461Y005900D03*
X034461Y005900D03*
X035461Y005900D03*
X036461Y005900D03*
X037461Y005900D03*
X038461Y005900D03*
X039461Y005900D03*
X040461Y005900D03*
X041461Y005900D03*
X042461Y005900D03*
X043461Y005900D03*
X043461Y006900D03*
X042461Y006900D03*
X041461Y006900D03*
X040461Y006900D03*
X039461Y006900D03*
X038461Y006900D03*
X037461Y006900D03*
X036461Y006900D03*
X035461Y006900D03*
X034461Y006900D03*
X033461Y006900D03*
X032461Y006900D03*
X031461Y006900D03*
X030461Y006900D03*
X029461Y006900D03*
X028461Y006900D03*
X027461Y006900D03*
X026461Y006900D03*
X025461Y006900D03*
X024461Y006900D03*
X023461Y006900D03*
X022461Y006900D03*
X021461Y006900D03*
X023011Y004250D03*
X024011Y004250D03*
X025011Y004250D03*
X025011Y003250D03*
X024011Y003250D03*
X023011Y003250D03*
X023011Y002250D03*
X024011Y002250D03*
X025011Y002250D03*
X026811Y002250D03*
X027811Y002250D03*
X028811Y002250D03*
X028811Y003250D03*
X027811Y003250D03*
X026811Y003250D03*
X026811Y004250D03*
X027811Y004250D03*
X028811Y004250D03*
X040111Y009000D03*
X041111Y009000D03*
X041111Y010000D03*
X040111Y010000D03*
X040111Y011000D03*
X041111Y011000D03*
X030211Y016600D03*
X029211Y016600D03*
X028211Y016600D03*
X028211Y017600D03*
X029211Y017600D03*
X030211Y017600D03*
X030211Y028250D03*
X031211Y028250D03*
X032211Y028250D03*
X033211Y028250D03*
X034211Y028250D03*
X035211Y028250D03*
X036211Y028250D03*
X037211Y028250D03*
X037211Y029250D03*
X036211Y029250D03*
X035211Y029250D03*
X034211Y029250D03*
X033211Y029250D03*
X032211Y029250D03*
X031211Y029250D03*
X030211Y029250D03*
X028511Y029250D03*
X027511Y029250D03*
X026511Y029250D03*
X025511Y029250D03*
X024511Y029250D03*
X023511Y029250D03*
X022511Y029250D03*
X021511Y029250D03*
X021511Y028250D03*
X022511Y028250D03*
X023511Y028250D03*
X024511Y028250D03*
X025511Y028250D03*
X026511Y028250D03*
X027511Y028250D03*
X028511Y028250D03*
X038961Y028250D03*
X039961Y028250D03*
X040961Y028250D03*
X041961Y028250D03*
X042961Y028250D03*
X043961Y028250D03*
X044961Y028250D03*
X045961Y028250D03*
X047661Y028250D03*
X048661Y028250D03*
X049661Y028250D03*
X050661Y028250D03*
X051661Y028250D03*
X052661Y028250D03*
X053661Y028250D03*
X054661Y028250D03*
X054661Y029250D03*
X053661Y029250D03*
X052661Y029250D03*
X051661Y029250D03*
X050661Y029250D03*
X049661Y029250D03*
X048661Y029250D03*
X047661Y029250D03*
X045961Y029250D03*
X044961Y029250D03*
X043961Y029250D03*
X042961Y029250D03*
X041961Y029250D03*
X040961Y029250D03*
X039961Y029250D03*
X038961Y029250D03*
D13*
X025107Y026250D02*
X024516Y026250D01*
X024516Y025250D02*
X025107Y025250D01*
X015480Y030136D02*
X015480Y030727D01*
X014480Y030727D02*
X014480Y030136D01*
X036806Y018660D02*
X037397Y018660D01*
X037397Y017660D02*
X036806Y017660D01*
X036806Y016660D02*
X037397Y016660D01*
X025057Y011480D02*
X024466Y011480D01*
X024466Y010480D02*
X025057Y010480D01*
X025057Y009480D02*
X024466Y009480D01*
X030116Y003250D02*
X030707Y003250D01*
X030707Y002250D02*
X030116Y002250D01*
X049911Y005505D02*
X049911Y006095D01*
X050911Y006095D02*
X050911Y005505D01*
D14*
X019637Y003733D02*
X018338Y003733D01*
X018338Y007670D02*
X019637Y007670D01*
X019637Y017133D02*
X018338Y017133D01*
X018338Y020282D02*
X019637Y020282D01*
X019637Y023249D02*
X018338Y023249D01*
X018338Y028367D02*
X019637Y028367D01*
D15*
X007551Y029843D02*
X006409Y029843D01*
X006409Y026300D02*
X007551Y026300D01*
X007551Y022757D02*
X006409Y022757D01*
X006409Y019593D02*
X007551Y019593D01*
X007551Y016050D02*
X006409Y016050D01*
X006409Y012507D02*
X007551Y012507D01*
X007551Y009343D02*
X006409Y009343D01*
X006409Y005800D02*
X007551Y005800D01*
X007551Y002257D02*
X006409Y002257D01*
D16*
X018260Y002650D02*
X019323Y002650D01*
X019323Y006587D02*
X018260Y006587D01*
X018260Y016050D02*
X019323Y016050D01*
X019323Y019200D02*
X018260Y019200D01*
X018260Y024331D02*
X019323Y024331D01*
X019323Y029450D02*
X018260Y029450D01*
D17*
X007531Y030843D02*
X006429Y030843D01*
X006429Y027300D02*
X007531Y027300D01*
X007531Y023757D02*
X006429Y023757D01*
X006429Y020593D02*
X007531Y020593D01*
X007531Y017050D02*
X006429Y017050D01*
X006429Y013507D02*
X007531Y013507D01*
X007531Y008343D02*
X006429Y008343D01*
X006429Y004800D02*
X007531Y004800D01*
X007531Y001257D02*
X006429Y001257D01*
D18*
X003590Y014030D03*
X002470Y014570D03*
X003590Y015120D03*
X002470Y015660D03*
X003590Y016200D03*
X002470Y016750D03*
X003590Y017290D03*
X002470Y017830D03*
X003590Y018380D03*
X002470Y018920D03*
X003590Y019460D03*
X002470Y020010D03*
X003590Y020550D03*
X002470Y021090D03*
X003590Y021640D03*
X002470Y022180D03*
X003590Y022720D03*
X002470Y023270D03*
X003590Y023810D03*
X002470Y024350D03*
X003590Y024900D03*
X002470Y025440D03*
X003590Y025980D03*
X002470Y026530D03*
X003590Y027070D03*
D19*
X003030Y029810D03*
X003030Y011290D03*
D20*
X046061Y007100D03*
X047061Y007100D03*
X048061Y007100D03*
X048061Y006100D03*
X047061Y006100D03*
X046061Y006100D03*
D21*
X051211Y001250D03*
X032030Y001650D03*
X003830Y003400D03*
X003130Y005700D03*
X001330Y005700D03*
X001330Y007150D03*
X003130Y007150D03*
X003130Y008700D03*
X001330Y008700D03*
M02*
