G75*
G70*
%OFA0B0*%
%FSLAX24Y24*%
%IPPOS*%
%LPD*%
%AMOC8*
5,1,8,0,0,1.08239X$1,22.5*
%
%ADD10C,0.0000*%
%ADD11C,0.0100*%
%ADD12R,0.1930X0.0292*%
%ADD13R,0.1930X0.1197*%
D10*
X001331Y000210D02*
X004481Y000210D01*
X004547Y000212D01*
X004613Y000217D01*
X004679Y000227D01*
X004744Y000240D01*
X004808Y000256D01*
X004871Y000276D01*
X004933Y000300D01*
X004993Y000327D01*
X005052Y000357D01*
X005109Y000391D01*
X005164Y000428D01*
X005217Y000468D01*
X005268Y000510D01*
X005316Y000556D01*
X005362Y000604D01*
X005404Y000655D01*
X005444Y000708D01*
X005481Y000763D01*
X005515Y000820D01*
X005545Y000879D01*
X005572Y000939D01*
X005596Y001001D01*
X005616Y001064D01*
X005632Y001128D01*
X005645Y001193D01*
X005655Y001259D01*
X005660Y001325D01*
X005662Y001391D01*
X005662Y004540D01*
X005660Y004606D01*
X005655Y004672D01*
X005645Y004738D01*
X005632Y004803D01*
X005616Y004867D01*
X005596Y004930D01*
X005572Y004992D01*
X005545Y005052D01*
X005515Y005111D01*
X005481Y005168D01*
X005444Y005223D01*
X005404Y005276D01*
X005362Y005327D01*
X005316Y005375D01*
X005268Y005421D01*
X005217Y005463D01*
X005164Y005503D01*
X005109Y005540D01*
X005052Y005574D01*
X004993Y005604D01*
X004933Y005631D01*
X004871Y005655D01*
X004808Y005675D01*
X004744Y005691D01*
X004679Y005704D01*
X004613Y005714D01*
X004547Y005719D01*
X004481Y005721D01*
X004481Y005722D02*
X001331Y005722D01*
X001331Y005721D02*
X001265Y005719D01*
X001199Y005714D01*
X001133Y005704D01*
X001068Y005691D01*
X001004Y005675D01*
X000941Y005655D01*
X000879Y005631D01*
X000819Y005604D01*
X000760Y005574D01*
X000703Y005540D01*
X000648Y005503D01*
X000595Y005463D01*
X000544Y005421D01*
X000496Y005375D01*
X000450Y005327D01*
X000408Y005276D01*
X000368Y005223D01*
X000331Y005168D01*
X000297Y005111D01*
X000267Y005052D01*
X000240Y004992D01*
X000216Y004930D01*
X000196Y004867D01*
X000180Y004803D01*
X000167Y004738D01*
X000157Y004672D01*
X000152Y004606D01*
X000150Y004540D01*
X000150Y001391D01*
X000152Y001325D01*
X000157Y001259D01*
X000167Y001193D01*
X000180Y001128D01*
X000196Y001064D01*
X000216Y001001D01*
X000240Y000939D01*
X000267Y000879D01*
X000297Y000820D01*
X000331Y000763D01*
X000368Y000708D01*
X000408Y000655D01*
X000450Y000604D01*
X000496Y000556D01*
X000544Y000510D01*
X000595Y000468D01*
X000648Y000428D01*
X000703Y000391D01*
X000760Y000357D01*
X000819Y000327D01*
X000879Y000300D01*
X000941Y000276D01*
X001004Y000256D01*
X001068Y000240D01*
X001133Y000227D01*
X001199Y000217D01*
X001265Y000212D01*
X001331Y000210D01*
D11*
X001725Y002277D02*
X000445Y002277D01*
X000445Y004540D01*
X001331Y005426D01*
X003004Y005426D01*
X003004Y004540D01*
X001725Y004540D01*
X001725Y002277D01*
X001725Y002278D02*
X000445Y002278D01*
X000445Y002377D02*
X001725Y002377D01*
X001725Y002475D02*
X000445Y002475D01*
X000445Y002574D02*
X001725Y002574D01*
X001725Y002672D02*
X000445Y002672D01*
X000445Y002771D02*
X001725Y002771D01*
X001725Y002869D02*
X000445Y002869D01*
X000445Y002968D02*
X001725Y002968D01*
X001725Y003066D02*
X000445Y003066D01*
X000445Y003165D02*
X001725Y003165D01*
X001725Y003263D02*
X000445Y003263D01*
X000445Y003362D02*
X001725Y003362D01*
X001725Y003460D02*
X000445Y003460D01*
X000445Y003559D02*
X001725Y003559D01*
X001725Y003657D02*
X000445Y003657D01*
X000445Y003756D02*
X001725Y003756D01*
X001725Y003854D02*
X000445Y003854D01*
X000445Y003953D02*
X001725Y003953D01*
X001725Y004051D02*
X000445Y004051D01*
X000445Y004150D02*
X001725Y004150D01*
X001725Y004248D02*
X000445Y004248D01*
X000445Y004347D02*
X001725Y004347D01*
X001725Y004445D02*
X000445Y004445D01*
X000449Y004544D02*
X003004Y004544D01*
X003004Y004642D02*
X000547Y004642D01*
X000646Y004741D02*
X003004Y004741D01*
X003004Y004839D02*
X000744Y004839D01*
X000843Y004938D02*
X003004Y004938D01*
X003004Y005036D02*
X000941Y005036D01*
X001040Y005135D02*
X003004Y005135D01*
X003004Y005233D02*
X001138Y005233D01*
X001237Y005332D02*
X003004Y005332D01*
X004284Y003162D02*
X004973Y003162D01*
X005022Y001489D01*
X004481Y000899D01*
X004284Y000899D01*
X004481Y000899D01*
X004571Y000998D02*
X004284Y000998D01*
X004284Y000899D02*
X004284Y003162D01*
X004284Y003066D02*
X004976Y003066D01*
X004979Y002968D02*
X004284Y002968D01*
X004284Y002869D02*
X004981Y002869D01*
X004984Y002771D02*
X004284Y002771D01*
X004284Y002672D02*
X004987Y002672D01*
X004990Y002574D02*
X004284Y002574D01*
X004284Y002475D02*
X004993Y002475D01*
X004996Y002377D02*
X004284Y002377D01*
X004284Y002278D02*
X004999Y002278D01*
X005002Y002180D02*
X004284Y002180D01*
X004284Y002081D02*
X005005Y002081D01*
X005008Y001983D02*
X004284Y001983D01*
X004284Y001884D02*
X005010Y001884D01*
X005013Y001786D02*
X004284Y001786D01*
X004284Y001687D02*
X005016Y001687D01*
X005019Y001589D02*
X004284Y001589D01*
X004284Y001490D02*
X005022Y001490D01*
X004933Y001392D02*
X004284Y001392D01*
X004284Y001293D02*
X004842Y001293D01*
X004752Y001195D02*
X004284Y001195D01*
X004284Y001096D02*
X004662Y001096D01*
D12*
X003079Y002076D03*
X003079Y003769D03*
D13*
X003079Y002922D03*
M02*
