G75*
G70*
%OFA0B0*%
%FSLAX24Y24*%
%IPPOS*%
%LPD*%
%AMOC8*
5,1,8,0,0,1.08239X$1,22.5*
%
%ADD10C,0.0000*%
%ADD11C,0.0020*%
%ADD12C,0.0050*%
%ADD13C,0.0080*%
%ADD14C,0.0118*%
%ADD15C,0.0030*%
D10*
X001331Y000210D02*
X004481Y000210D01*
X004547Y000212D01*
X004613Y000217D01*
X004679Y000227D01*
X004744Y000240D01*
X004808Y000256D01*
X004871Y000276D01*
X004933Y000300D01*
X004993Y000327D01*
X005052Y000357D01*
X005109Y000391D01*
X005164Y000428D01*
X005217Y000468D01*
X005268Y000510D01*
X005316Y000556D01*
X005362Y000604D01*
X005404Y000655D01*
X005444Y000708D01*
X005481Y000763D01*
X005515Y000820D01*
X005545Y000879D01*
X005572Y000939D01*
X005596Y001001D01*
X005616Y001064D01*
X005632Y001128D01*
X005645Y001193D01*
X005655Y001259D01*
X005660Y001325D01*
X005662Y001391D01*
X005662Y004540D01*
X005660Y004606D01*
X005655Y004672D01*
X005645Y004738D01*
X005632Y004803D01*
X005616Y004867D01*
X005596Y004930D01*
X005572Y004992D01*
X005545Y005052D01*
X005515Y005111D01*
X005481Y005168D01*
X005444Y005223D01*
X005404Y005276D01*
X005362Y005327D01*
X005316Y005375D01*
X005268Y005421D01*
X005217Y005463D01*
X005164Y005503D01*
X005109Y005540D01*
X005052Y005574D01*
X004993Y005604D01*
X004933Y005631D01*
X004871Y005655D01*
X004808Y005675D01*
X004744Y005691D01*
X004679Y005704D01*
X004613Y005714D01*
X004547Y005719D01*
X004481Y005721D01*
X004481Y005722D02*
X001331Y005722D01*
X001331Y005721D02*
X001265Y005719D01*
X001199Y005714D01*
X001133Y005704D01*
X001068Y005691D01*
X001004Y005675D01*
X000941Y005655D01*
X000879Y005631D01*
X000819Y005604D01*
X000760Y005574D01*
X000703Y005540D01*
X000648Y005503D01*
X000595Y005463D01*
X000544Y005421D01*
X000496Y005375D01*
X000450Y005327D01*
X000408Y005276D01*
X000368Y005223D01*
X000331Y005168D01*
X000297Y005111D01*
X000267Y005052D01*
X000240Y004992D01*
X000216Y004930D01*
X000196Y004867D01*
X000180Y004803D01*
X000167Y004738D01*
X000157Y004672D01*
X000152Y004606D01*
X000150Y004540D01*
X000150Y001391D01*
X000152Y001325D01*
X000157Y001259D01*
X000167Y001193D01*
X000180Y001128D01*
X000196Y001064D01*
X000216Y001001D01*
X000240Y000939D01*
X000267Y000879D01*
X000297Y000820D01*
X000331Y000763D01*
X000368Y000708D01*
X000408Y000655D01*
X000450Y000604D01*
X000496Y000556D01*
X000544Y000510D01*
X000595Y000468D01*
X000648Y000428D01*
X000703Y000391D01*
X000760Y000357D01*
X000819Y000327D01*
X000879Y000300D01*
X000941Y000276D01*
X001004Y000256D01*
X001068Y000240D01*
X001133Y000227D01*
X001199Y000217D01*
X001265Y000212D01*
X001331Y000210D01*
D11*
X000909Y000359D02*
X000873Y000396D01*
X000873Y000543D01*
X000909Y000580D01*
X000983Y000580D01*
X001019Y000543D01*
X001019Y000396D01*
X000983Y000359D01*
X000909Y000359D01*
X000946Y000433D02*
X001019Y000359D01*
X001094Y000359D02*
X001240Y000359D01*
X001167Y000359D02*
X001167Y000580D01*
X001094Y000506D01*
X000431Y002234D02*
X000211Y002234D01*
X000211Y002344D01*
X000248Y002380D01*
X000321Y002380D01*
X000358Y002344D01*
X000358Y002234D01*
X000358Y002307D02*
X000431Y002380D01*
X000395Y002454D02*
X000431Y002491D01*
X000431Y002565D01*
X000395Y002601D01*
X000321Y002601D01*
X000285Y002565D01*
X000285Y002528D01*
X000321Y002454D01*
X000211Y002454D01*
X000211Y002601D01*
X001379Y002550D02*
X001379Y002330D01*
X001525Y002330D01*
X001599Y002330D02*
X001746Y002330D01*
X001673Y002330D02*
X001673Y002550D01*
X001599Y002477D01*
X002866Y002831D02*
X002902Y002795D01*
X002976Y002795D01*
X003012Y002831D01*
X003012Y003015D01*
X003087Y002941D02*
X003160Y003015D01*
X003160Y002795D01*
X003087Y002795D02*
X003233Y002795D01*
X003413Y002781D02*
X003413Y003001D01*
X003523Y003001D01*
X003560Y002964D01*
X003560Y002891D01*
X003523Y002854D01*
X003413Y002854D01*
X003486Y002854D02*
X003560Y002781D01*
X003634Y002818D02*
X003671Y002781D01*
X003744Y002781D01*
X003781Y002818D01*
X003781Y002854D01*
X003744Y002891D01*
X003707Y002891D01*
X003744Y002891D02*
X003781Y002928D01*
X003781Y002964D01*
X003744Y003001D01*
X003671Y003001D01*
X003634Y002964D01*
X004038Y002932D02*
X004038Y003152D01*
X004148Y003152D01*
X004185Y003115D01*
X004185Y003042D01*
X004148Y003005D01*
X004038Y003005D01*
X004112Y003005D02*
X004185Y002932D01*
X004259Y002932D02*
X004406Y003079D01*
X004406Y003115D01*
X004369Y003152D01*
X004296Y003152D01*
X004259Y003115D01*
X004259Y002932D02*
X004406Y002932D01*
X005037Y003175D02*
X005037Y003395D01*
X005147Y003395D01*
X005184Y003358D01*
X005184Y003285D01*
X005147Y003248D01*
X005037Y003248D01*
X005110Y003248D02*
X005184Y003175D01*
X005258Y003175D02*
X005405Y003175D01*
X005331Y003175D02*
X005331Y003395D01*
X005258Y003321D01*
X005364Y003861D02*
X005364Y003972D01*
X005401Y004008D01*
X005548Y004008D01*
X005584Y003972D01*
X005584Y003861D01*
X005364Y003861D01*
X005401Y004082D02*
X005364Y004119D01*
X005364Y004193D01*
X005401Y004229D01*
X005438Y004229D01*
X005474Y004193D01*
X005511Y004229D01*
X005548Y004229D01*
X005584Y004193D01*
X005584Y004119D01*
X005548Y004082D01*
X005474Y004156D02*
X005474Y004193D01*
X005233Y004487D02*
X005233Y004708D01*
X005123Y004598D01*
X005270Y004598D01*
X005049Y004598D02*
X005012Y004561D01*
X004902Y004561D01*
X004976Y004561D02*
X005049Y004487D01*
X005049Y004598D02*
X005049Y004671D01*
X005012Y004708D01*
X004902Y004708D01*
X004902Y004487D01*
X003824Y005424D02*
X003677Y005424D01*
X003751Y005424D02*
X003751Y005644D01*
X003677Y005571D01*
X003603Y005608D02*
X003566Y005644D01*
X003456Y005644D01*
X003456Y005424D01*
X003566Y005424D01*
X003603Y005461D01*
X003603Y005608D01*
X002600Y005420D02*
X002453Y005420D01*
X002526Y005420D02*
X002526Y005640D01*
X002453Y005567D01*
X002379Y005567D02*
X002342Y005530D01*
X002232Y005530D01*
X002342Y005530D02*
X002379Y005494D01*
X002379Y005457D01*
X002342Y005420D01*
X002232Y005420D01*
X002232Y005640D01*
X002342Y005640D01*
X002379Y005604D01*
X002379Y005567D01*
X002158Y005640D02*
X002011Y005640D01*
X002011Y005420D01*
X002011Y005530D02*
X002084Y005530D01*
X001582Y005552D02*
X001435Y005552D01*
X001361Y005516D02*
X001361Y005663D01*
X001361Y005516D02*
X001287Y005442D01*
X001214Y005516D01*
X001214Y005663D01*
X001508Y005626D02*
X001508Y005479D01*
X001580Y004249D02*
X001543Y004212D01*
X001543Y004066D01*
X001580Y004029D01*
X001653Y004029D01*
X001690Y004066D01*
X001764Y004029D02*
X001911Y004029D01*
X001837Y004029D02*
X001837Y004249D01*
X001764Y004176D01*
X001690Y004212D02*
X001653Y004249D01*
X001580Y004249D01*
X001139Y004159D02*
X001139Y004012D01*
X001102Y003976D01*
X000992Y003976D01*
X000992Y004196D01*
X001102Y004196D01*
X001139Y004159D01*
X000918Y004196D02*
X000918Y003976D01*
X000771Y004196D01*
X000771Y003976D01*
X000697Y004012D02*
X000697Y004086D01*
X000624Y004086D01*
X000697Y004159D02*
X000660Y004196D01*
X000587Y004196D01*
X000550Y004159D01*
X000550Y004012D01*
X000587Y003976D01*
X000660Y003976D01*
X000697Y004012D01*
X002866Y003015D02*
X002866Y002831D01*
X005076Y001100D02*
X005076Y000953D01*
X005112Y000916D01*
X005186Y000916D01*
X005223Y000953D01*
X005297Y000916D02*
X005444Y001063D01*
X005444Y001100D01*
X005407Y001136D01*
X005333Y001136D01*
X005297Y001100D01*
X005223Y001100D02*
X005186Y001136D01*
X005112Y001136D01*
X005076Y001100D01*
X005297Y000916D02*
X005444Y000916D01*
D12*
X004349Y000292D02*
X004349Y002733D01*
X001750Y002733D01*
X001750Y000292D01*
X004349Y000292D01*
X003951Y003767D02*
X003951Y004239D01*
X004595Y004161D02*
X004595Y003806D01*
X004634Y003964D02*
X004792Y003806D01*
X004792Y004161D01*
X004634Y004003D01*
X004763Y004891D02*
X004763Y005363D01*
X004119Y005324D02*
X004119Y004970D01*
X004079Y005127D02*
X003922Y004970D01*
X003922Y005324D01*
X004079Y005166D01*
D13*
X002855Y003635D02*
X001713Y003635D01*
X001713Y003084D01*
X002855Y003084D01*
X002855Y003635D01*
X002619Y003497D02*
X002621Y003509D01*
X002626Y003520D01*
X002635Y003529D01*
X002646Y003534D01*
X002658Y003536D01*
X002670Y003534D01*
X002681Y003529D01*
X002690Y003520D01*
X002695Y003509D01*
X002697Y003497D01*
X002695Y003485D01*
X002690Y003474D01*
X002681Y003465D01*
X002670Y003460D01*
X002658Y003458D01*
X002646Y003460D01*
X002635Y003465D01*
X002626Y003474D01*
X002621Y003485D01*
X002619Y003497D01*
X004491Y002611D02*
X004491Y002139D01*
X005357Y002139D02*
X005357Y002611D01*
D14*
X005416Y002729D03*
D15*
X005465Y002053D02*
X005465Y001859D01*
X005271Y002053D01*
X005223Y002053D01*
X005175Y002004D01*
X005175Y001908D01*
X005223Y001859D01*
X005223Y001758D02*
X005175Y001710D01*
X005175Y001565D01*
X005465Y001565D01*
X005465Y001710D01*
X005416Y001758D01*
X005223Y001758D01*
M02*
