G75*
G70*
%OFA0B0*%
%FSLAX24Y24*%
%IPPOS*%
%LPD*%
%AMOC8*
5,1,8,0,0,1.08239X$1,22.5*
%
%ADD10C,0.0000*%
%ADD11C,0.0100*%
%ADD12R,0.0434X0.0473*%
%ADD13R,0.0552X0.0631*%
%ADD14R,0.0473X0.0434*%
%ADD15R,0.0434X0.0276*%
%ADD16R,0.0709X0.2284*%
%ADD17R,0.0434X0.0591*%
%ADD18R,0.0237X0.0237*%
%ADD19R,0.0827X0.0827*%
%ADD20R,0.1221X0.1221*%
%ADD21R,0.0316X0.0394*%
%ADD22R,0.0394X0.0316*%
%ADD23R,0.0217X0.0473*%
D10*
X001331Y000210D02*
X004481Y000210D01*
X004547Y000212D01*
X004613Y000217D01*
X004679Y000227D01*
X004744Y000240D01*
X004808Y000256D01*
X004871Y000276D01*
X004933Y000300D01*
X004993Y000327D01*
X005052Y000357D01*
X005109Y000391D01*
X005164Y000428D01*
X005217Y000468D01*
X005268Y000510D01*
X005316Y000556D01*
X005362Y000604D01*
X005404Y000655D01*
X005444Y000708D01*
X005481Y000763D01*
X005515Y000820D01*
X005545Y000879D01*
X005572Y000939D01*
X005596Y001001D01*
X005616Y001064D01*
X005632Y001128D01*
X005645Y001193D01*
X005655Y001259D01*
X005660Y001325D01*
X005662Y001391D01*
X005662Y004540D01*
X005660Y004606D01*
X005655Y004672D01*
X005645Y004738D01*
X005632Y004803D01*
X005616Y004867D01*
X005596Y004930D01*
X005572Y004992D01*
X005545Y005052D01*
X005515Y005111D01*
X005481Y005168D01*
X005444Y005223D01*
X005404Y005276D01*
X005362Y005327D01*
X005316Y005375D01*
X005268Y005421D01*
X005217Y005463D01*
X005164Y005503D01*
X005109Y005540D01*
X005052Y005574D01*
X004993Y005604D01*
X004933Y005631D01*
X004871Y005655D01*
X004808Y005675D01*
X004744Y005691D01*
X004679Y005704D01*
X004613Y005714D01*
X004547Y005719D01*
X004481Y005721D01*
X004481Y005722D02*
X001331Y005722D01*
X001331Y005721D02*
X001265Y005719D01*
X001199Y005714D01*
X001133Y005704D01*
X001068Y005691D01*
X001004Y005675D01*
X000941Y005655D01*
X000879Y005631D01*
X000819Y005604D01*
X000760Y005574D01*
X000703Y005540D01*
X000648Y005503D01*
X000595Y005463D01*
X000544Y005421D01*
X000496Y005375D01*
X000450Y005327D01*
X000408Y005276D01*
X000368Y005223D01*
X000331Y005168D01*
X000297Y005111D01*
X000267Y005052D01*
X000240Y004992D01*
X000216Y004930D01*
X000196Y004867D01*
X000180Y004803D01*
X000167Y004738D01*
X000157Y004672D01*
X000152Y004606D01*
X000150Y004540D01*
X000150Y001391D01*
X000152Y001325D01*
X000157Y001259D01*
X000167Y001193D01*
X000180Y001128D01*
X000196Y001064D01*
X000216Y001001D01*
X000240Y000939D01*
X000267Y000879D01*
X000297Y000820D01*
X000331Y000763D01*
X000368Y000708D01*
X000408Y000655D01*
X000450Y000604D01*
X000496Y000556D01*
X000544Y000510D01*
X000595Y000468D01*
X000648Y000428D01*
X000703Y000391D01*
X000760Y000357D01*
X000819Y000327D01*
X000879Y000300D01*
X000941Y000276D01*
X001004Y000256D01*
X001068Y000240D01*
X001133Y000227D01*
X001199Y000217D01*
X001265Y000212D01*
X001331Y000210D01*
D11*
X001626Y004344D02*
X000445Y004344D01*
X000445Y004836D01*
X000839Y005229D01*
X000937Y005328D01*
X001626Y005328D01*
X001626Y004344D01*
X001626Y004347D02*
X000445Y004347D01*
X000445Y004445D02*
X001626Y004445D01*
X001626Y004544D02*
X000445Y004544D01*
X000445Y004642D02*
X001626Y004642D01*
X001626Y004741D02*
X000445Y004741D01*
X000449Y004839D02*
X001626Y004839D01*
X001626Y004938D02*
X000547Y004938D01*
X000646Y005036D02*
X001626Y005036D01*
X001626Y005135D02*
X000744Y005135D01*
X000843Y005233D02*
X001626Y005233D01*
D12*
X002217Y005060D03*
X002886Y005060D03*
X003922Y004568D03*
X004591Y004568D03*
D13*
X002981Y004365D03*
X002233Y004365D03*
D14*
X003693Y003989D03*
X003693Y003320D03*
X004729Y001426D03*
X004729Y000757D03*
D15*
X005107Y004003D03*
X004241Y004003D03*
X004473Y005127D03*
X003607Y005127D03*
D16*
X003935Y001513D03*
X002164Y001513D03*
D17*
X001020Y000991D03*
X000646Y001857D03*
X001394Y001857D03*
D18*
X001910Y002887D03*
X002284Y002887D03*
X002658Y002887D03*
X002658Y003832D03*
X002284Y003832D03*
X001910Y003832D03*
D19*
X001187Y004718D03*
D20*
X000902Y003340D03*
D21*
X000681Y002424D03*
X001193Y002424D03*
X004274Y003458D03*
X004786Y003458D03*
D22*
X003152Y003714D03*
X003152Y003202D03*
D23*
X004668Y002788D03*
X005180Y002788D03*
X004924Y001962D03*
M02*
