M48
;Layer_Color=9474304
;FILE_FORMAT=2:5
INCH
;TYPE=PLATED
T1F00S00C0.00800
T2F00S00C0.01000
T3F00S00C0.03200
T4F00S00C0.03500
T5F00S00C0.03543
T6F00S00C0.04000
T7F00S00C0.06500
T8F00S00C0.12500
%
T01
X0407031Y0370031
X0410968
Y0373969
X0407031
T02
X0469000Y0239000
X0473500Y0242500
X0477000Y0241000
X0473500Y0249000
X0473000Y0252000
X0472000Y0255000
X0480000Y0251850
X0483500Y0251000
X0490500Y0250500
X0493500Y0244000
X0492570Y0236540
X0493000Y0230500
X0495400Y0259000
X0488000Y0257500
X0483009Y0260244
X0481000Y0270500
X0477500
Y0278000
X0481000
X0485500
Y0270500
X0490516Y0269500
X0494000Y0267000
X0498500Y0270724
X0500500Y0279500
X0497000Y0281000
X0494500
Y0284500
X0480109Y0282606
X0488500Y0296000
X0488000Y0299000
X0490500Y0303000
X0493000
X0488500Y0307500
X0491400Y0311500
X0498000Y0308000
X0472000
Y0310500
X0509000Y0281000
X0508000Y0261000
X0513500Y0251000
X0519000Y0267500
X0540500Y0260500
X0546000Y0259000
X0540500Y0253000
X0543000Y0245500
X0540000Y0242500
X0541000Y0274500
X0544000Y0277500
X0541000Y0284500
Y0293000
X0547000Y0291000
X0541000Y0306500
X0544000Y0309500
X0459000
X0461000Y0294000
X0465500
X0462500Y0290500
X0461000Y0285000
X0459000
X0456300
X0453000
X0450500
X0450661Y0290339
X0453220Y0290280
X0448339Y0292839
X0435500Y0292000
Y0294500
X0433000
X0430500
X0431000Y0303500
Y0306000
Y0310500
X0414000Y0308000
X0410000
X0403500Y0307500
X0400000Y0306000
X0401500Y0295000
X0398500Y0293000
Y0290500
X0395500Y0283500
X0400000Y0273500
Y0271000
X0396000Y0268000
X0387500Y0264000
X0387000Y0254500
X0381000Y0258000
X0378000Y0258500
X0373000Y0265000
X0369500
X0368500Y0261000
X0370500Y0272000
Y0275000
X0379000Y0278000
X0364000Y0282000
X0362000Y0290500
X0357000Y0289500
X0355000
X0354500Y0298000
Y0300800
X0354000Y0305500
X0356000Y0308000
X0354000Y0311000
X0360000Y0305500
X0362500Y0301000
Y0298000
X0364500Y0309000
X0375500Y0308500
X0377000Y0311000
X0375500Y0300500
Y0295500
X0372000Y0291000
X0386500Y0295500
X0393000Y0297000
Y0300000
X0407000Y0278000
X0416430Y0280100
X0419000Y0276000
X0439500Y0280500
X0441500
X0446069Y0279431
X0446500Y0275500
Y0273000
X0456054Y0277000
X0465000Y0284988
X0464000Y0267000
X0465000Y0265000
X0461000Y0263500
X0461500Y0258500
X0452500Y0256000
X0450500
X0446000Y0253500
X0449500Y0248500
X0450000Y0245500
X0448000
X0442500Y0246000
X0436500
X0432000Y0244000
X0429000
X0426000
X0423000
X0428500Y0253000
X0442000Y0238000
X0462000Y0239000
Y0241500
Y0244500
X0468000Y0246000
X0400500Y0244000
X0397500Y0241000
X0400500Y0251500
X0394000Y0224500
X0370500Y0220500
X0368000
X0361000
X0358500
X0341000Y0224000
X0339500Y0235000
X0330500Y0247500
X0333000Y0252500
X0339500Y0271500
X0351500Y0272000
Y0270000
X0348500Y0267500
X0349000Y0283000
X0339900Y0285121
X0331000Y0283000
X0342000Y0301000
X0335500Y0308000
X0335000Y0311500
X0317500Y0240000
X0318500Y0231000
X0373500Y0236500
X0375500Y0239500
X0371000Y0242000
X0308500Y0253500
X0306000
X0283000Y0250000
Y0247000
X0276500Y0248500
Y0245500
X0267500Y0235500
X0266500Y0223000
X0255500Y0223500
X0256000Y0209500
X0258500
X0261000
X0245000Y0214500
Y0217000
X0244000Y0233500
X0243000Y0247000
X0254500Y0248000
Y0253500
X0248000Y0265500
X0291500Y0234500
X0292500Y0220500
X0295500Y0219000
X0298000
X0311000Y0221000
X0286500Y0224500
X0289000Y0353500
Y0356000
Y0359000
X0298500Y0357500
Y0355000
X0311500Y0369000
X0294000Y0380500
X0292500Y0386000
X0282500Y0377500
X0282402Y0375000
X0282500Y0372500
X0281000Y0369500
Y0366500
X0275500
X0263500Y0384500
X0260500
X0257779Y0384279
X0259000Y0386500
X0262000
X0311500Y0334756
X0339500Y0335000
X0341500Y0342000
X0334862Y0340138
X0348500Y0334000
X0346500Y0327500
X0344000
X0350500
X0353000
X0362000Y0327000
X0363900Y0324639
X0364000Y0319000
Y0316000
X0370500Y0318298
X0377000Y0318500
Y0315500
X0376500Y0324000
X0378000Y0326500
X0375500Y0332500
X0366500Y0332000
X0365500Y0345500
X0371000Y0346000
X0377927Y0345573
X0386500Y0337000
X0395500Y0333000
X0394500Y0328000
X0397000
X0401000Y0342000
X0402500Y0348500
X0405000
X0408000
X0403500Y0354000
Y0365862
X0403000Y0378000
X0398000Y0378500
X0411106Y0377606
X0421500Y0379500
X0423000Y0385000
X0433500Y0385500
X0436000Y0382000
X0438500
X0441500Y0379500
Y0377000
X0442500Y0365500
Y0363000
Y0360500
X0452373Y0359373
X0454500Y0357500
X0452000Y0346500
X0453000Y0343000
X0458000Y0340000
Y0332000
X0455000
X0435000Y0331500
Y0336500
Y0343000
X0423500
X0424500Y0338000
X0428000
X0421500Y0337000
Y0348000
Y0354500
X0418000Y0366000
X0426000Y0365000
X0428500
X0431500Y0369500
Y0372500
X0460000Y0375000
X0462500
X0463000Y0384500
X0465500
X0450300Y0398200
X0447500
X0413500Y0388500
X0409138Y0388862
X0407138
X0387500Y0384000
X0384500
X0379500
X0377000
X0370000
X0367500
X0363000
X0360500
X0361000Y0367000
X0364000Y0361500
X0364500Y0356500
X0368500Y0359000
X0357000Y0360000
X0353500Y0364000
X0349500
X0345000Y0363500
X0343000Y0373500
X0340000
X0339000Y0386500
X0336500
X0340500Y0398500
X0319000Y0376000
X0335500Y0318500
X0343000Y0320500
X0355000Y0317500
X0420500Y0318000
Y0323500
X0438500Y0322500
X0443000Y0347500
Y0350000
X0446500Y0348000
X0466500Y0314000
X0391000Y0354500
X0388500Y0368000
X0385500
X0471000Y0357750
X0470500Y0351500
X0473000Y0346500
X0474000Y0334500
X0473000Y0330000
X0470500
X0478000Y0317500
Y0315500
X0480000
X0491000Y0322500
Y0325000
X0489000Y0328000
X0495000Y0331500
Y0322000
X0501000Y0316500
X0516500Y0314500
X0519500Y0321000
X0516000Y0337000
X0540500Y0339000
X0543500Y0342000
Y0354500
X0546500Y0355500
X0541000Y0357500
X0555500Y0359000
X0557500Y0341500
X0560000
X0562500
X0547000Y0323000
X0540500Y0325000
X0541500Y0315500
X0491000Y0343500
X0494000Y0347000
X0493500Y0362000
X0495500Y0372000
X0487000Y0386500
X0483500
X0478500
X0475500Y0384000
X0473000
T03
X0382000Y0233000
Y0243000
Y0253000
Y0263000
Y0273000
Y0283000
Y0293000
Y0303000
X0412000
Y0293000
Y0283000
Y0273000
Y0263000
Y0253000
Y0243000
Y0233000
Y0313000
Y0323000
Y0333000
Y0343000
Y0353000
Y0363000
X0382000
Y0353000
Y0343000
Y0333000
Y0323000
Y0313000
T04
X0255500Y0271000
T05
X0255500Y0261000
X0265500
X0275500
X0285500
X0295500
Y0271000
X0285500
X0275500
X0265500
X0521500Y0371500
Y0381500
T06
X0475500Y0203500
X0485500
X0495500
X0505500
X0515500
X0525500
Y0213500
X0515500
X0505500
X0495500
X0485500
X0475500
X0511500Y0225500
Y0235500
Y0245500
Y0255500
Y0265500
Y0275500
Y0285500
Y0295500
Y0311500
X0529500Y0310000
Y0297500
Y0287500
Y0277500
X0530000Y0266000
Y0256000
Y0246000
X0465500Y0213500
Y0203500
X0455500
X0445500
X0435500
Y0213500
X0445500
X0455500
X0425500
X0415500
X0405500
Y0203500
X0395500
X0385500
X0375500
Y0213500
X0365500
X0355500
Y0203500
X0365500
X0345500
X0335500
X0325500
X0315500
Y0213500
X0325500
X0335500
X0345500
X0321500Y0225500
Y0235500
Y0245500
Y0255500
Y0265500
Y0275500
Y0295500
Y0305500
X0350500Y0250500
X0360500
X0370500
X0385500Y0213500
X0395500
X0415500Y0203500
X0425500
X0305500
Y0213500
X0299500Y0251000
X0290500
X0303500Y0361000
X0311000
X0305500Y0393500
Y0403500
X0315500
Y0393500
X0325500
X0335500
X0345500
X0355500
Y0403500
X0365500
X0375500
Y0393500
X0385500
X0395500
X0405500
Y0403500
X0395500
X0385500
X0365500Y0393500
X0345500Y0403500
X0335500
X0325500
X0321500Y0345500
Y0335500
Y0325500
Y0315500
X0426500Y0323000
X0425500Y0393500
X0435500
Y0403500
X0445500
Y0393500
X0455500
X0465500
Y0403500
X0455500
X0425500
X0415500
Y0393500
X0475500
X0485500
X0495500
X0505500
X0515500
X0525500
Y0403500
X0515500
X0505500
X0495500
X0485500
X0475500
X0483000Y0363000
Y0353000
X0511500Y0351500
Y0361500
Y0371500
Y0381500
X0529266Y0362266
Y0352266
Y0342266
X0529500Y0330000
Y0320000
X0511500Y0321500
Y0331500
Y0341500
T07
X0236500Y0225500
Y0241000
Y0254500
Y0270000
X0261000Y0359000
Y0374500
T08
X0545500Y0221000
X0285500Y0208500
Y0398500
X0545500Y0386000
M30
