%FSAX24Y24*%
%MOIN*%
G70*
G01*
G75*
%ADD10C,0.0060*%
%ADD11C,0.0394*%
%ADD12R,0.0374X0.0394*%
%ADD13R,0.0394X0.0374*%
%ADD14R,0.0630X0.0500*%
%ADD15R,0.0500X0.0630*%
%ADD16R,0.0787X0.0787*%
%ADD17R,0.0850X0.1080*%
%ADD18R,0.0512X0.0728*%
%ADD19R,0.0276X0.0276*%
%ADD20R,0.0276X0.0276*%
%ADD21R,0.0236X0.0315*%
%ADD22R,0.0315X0.0236*%
%ADD23R,0.0728X0.0512*%
%ADD24R,0.0600X0.1000*%
%ADD25R,0.0591X0.1102*%
%ADD26R,0.0550X0.0450*%
%ADD27O,0.0669X0.0118*%
%ADD28R,0.0681X0.0748*%
%ADD29R,0.1654X0.1181*%
%ADD30O,0.0138X0.0669*%
%ADD31R,0.0500X0.1200*%
%ADD32R,0.0787X0.0787*%
%ADD33R,0.0220X0.0200*%
%ADD34R,0.0866X0.0236*%
%ADD35R,0.0866X0.0236*%
%ADD36R,0.0272X0.0390*%
%ADD37R,0.0965X0.0748*%
%ADD38R,0.0160X0.0250*%
%ADD39R,0.0197X0.0161*%
%ADD40R,0.0630X0.0118*%
%ADD41O,0.0630X0.0118*%
%ADD42C,0.0200*%
%ADD43C,0.0070*%
%ADD44C,0.0080*%
%ADD45C,0.0120*%
%ADD46C,0.0250*%
%ADD47C,0.0100*%
%ADD48C,0.0500*%
%ADD49C,0.0030*%
%ADD50C,0.0040*%
%ADD51C,0.0600*%
%ADD52C,0.1750*%
%ADD53R,0.0600X0.0600*%
%ADD54R,0.0600X0.0600*%
%ADD55C,0.0750*%
%ADD56R,0.0750X0.0750*%
%ADD57C,0.0800*%
%ADD58R,0.0800X0.0800*%
%ADD59C,0.0591*%
%ADD60R,0.0591X0.0591*%
%ADD61R,0.0550X0.0550*%
%ADD62C,0.0550*%
%ADD63R,0.0550X0.0550*%
%ADD64R,0.0591X0.0591*%
%ADD65C,0.0200*%
%ADD66C,0.0160*%
%ADD67C,0.0400*%
%ADD68C,0.0850*%
%ADD69C,0.0520*%
%ADD70C,0.0554*%
%ADD71C,0.0300*%
%ADD72R,0.1575X0.0630*%
%ADD73R,0.0200X0.0220*%
%ADD74R,0.0236X0.0591*%
%ADD75R,0.0591X0.0236*%
%ADD76R,0.1142X0.2126*%
%ADD77R,0.0701X0.1402*%
%ADD78R,0.0902X0.0673*%
%ADD79R,0.0134X0.0256*%
%ADD80R,0.0134X0.0315*%
%ADD81R,0.1260X0.0630*%
%ADD82R,0.1100X0.1500*%
%ADD83C,0.0050*%
G54D11*
X026800Y020350D02*
D03*
G54D12*
X034500Y033085D02*
D03*
Y033715D02*
D03*
X044900Y023535D02*
D03*
Y024165D02*
D03*
X040300Y026585D02*
D03*
Y027215D02*
D03*
X035200Y033715D02*
D03*
Y033085D02*
D03*
X039600Y031885D02*
D03*
Y032515D02*
D03*
X037400Y028165D02*
D03*
Y027535D02*
D03*
X036100Y027715D02*
D03*
Y027085D02*
D03*
X035450Y027715D02*
D03*
Y027085D02*
D03*
X049450Y027765D02*
D03*
Y027135D02*
D03*
X045050Y025985D02*
D03*
Y026615D02*
D03*
X049200Y029320D02*
D03*
Y029950D02*
D03*
X030750Y024385D02*
D03*
Y025015D02*
D03*
G54D13*
X036265Y028650D02*
D03*
X035635D02*
D03*
X043385Y027700D02*
D03*
X044015D02*
D03*
X039785Y034550D02*
D03*
X040415D02*
D03*
X047635Y025650D02*
D03*
X048265D02*
D03*
X035415Y037600D02*
D03*
X034785D02*
D03*
X046435Y023450D02*
D03*
X047065D02*
D03*
X038885Y029150D02*
D03*
X039515D02*
D03*
G54D14*
X036900Y023300D02*
D03*
Y022500D02*
D03*
X035950Y023300D02*
D03*
Y022500D02*
D03*
X029400Y036450D02*
D03*
Y035650D02*
D03*
X036150Y037200D02*
D03*
Y038000D02*
D03*
X036950D02*
D03*
Y037200D02*
D03*
X037750D02*
D03*
Y038000D02*
D03*
X038550Y037200D02*
D03*
Y038000D02*
D03*
X042650Y037750D02*
D03*
Y036950D02*
D03*
X046400Y037200D02*
D03*
Y038000D02*
D03*
X047400D02*
D03*
Y037200D02*
D03*
X046750Y030150D02*
D03*
Y030950D02*
D03*
X045200Y027300D02*
D03*
Y028100D02*
D03*
X046050Y027300D02*
D03*
Y028100D02*
D03*
X047200Y031800D02*
D03*
Y032600D02*
D03*
X048650Y032350D02*
D03*
Y031550D02*
D03*
X052300Y022500D02*
D03*
Y023300D02*
D03*
G54D15*
X047600Y029750D02*
D03*
X048400D02*
D03*
X048700Y024650D02*
D03*
X047900D02*
D03*
X043100Y034900D02*
D03*
X043900D02*
D03*
G54D16*
X043663Y037650D02*
D03*
X045237D02*
D03*
G54D17*
X044070Y030700D02*
D03*
X042330D02*
D03*
X044070Y029000D02*
D03*
X042330D02*
D03*
G54D18*
X028421Y035900D02*
D03*
X027279D02*
D03*
X025929Y039350D02*
D03*
X027071D02*
D03*
G54D19*
X031400Y030624D02*
D03*
Y031176D02*
D03*
Y032924D02*
D03*
Y033476D02*
D03*
G54D20*
X036626Y024300D02*
D03*
X036074D02*
D03*
G54D21*
X039000Y033464D02*
D03*
Y033936D02*
D03*
X048350Y038286D02*
D03*
Y037814D02*
D03*
X049300Y022686D02*
D03*
Y022214D02*
D03*
X031200Y037686D02*
D03*
Y037214D02*
D03*
X039450Y038286D02*
D03*
Y037814D02*
D03*
X039300Y036764D02*
D03*
Y037236D02*
D03*
X031400Y034128D02*
D03*
Y034600D02*
D03*
X051950Y034064D02*
D03*
Y034536D02*
D03*
X035800Y033636D02*
D03*
Y033164D02*
D03*
X039700Y035164D02*
D03*
Y035636D02*
D03*
X038950Y027114D02*
D03*
Y027586D02*
D03*
X039050Y032336D02*
D03*
Y031864D02*
D03*
X040150D02*
D03*
Y032336D02*
D03*
X046900Y025064D02*
D03*
Y025536D02*
D03*
X046500Y025064D02*
D03*
Y025536D02*
D03*
X045600Y026636D02*
D03*
Y026164D02*
D03*
X046100Y025536D02*
D03*
Y025064D02*
D03*
X049400Y024964D02*
D03*
Y025436D02*
D03*
X030750Y023114D02*
D03*
Y023586D02*
D03*
X031300Y023114D02*
D03*
Y023586D02*
D03*
X027100Y023736D02*
D03*
Y023264D02*
D03*
Y024786D02*
D03*
Y024314D02*
D03*
X031300D02*
D03*
Y024786D02*
D03*
G54D22*
X035336Y036100D02*
D03*
X034864D02*
D03*
X036814Y031550D02*
D03*
X037286D02*
D03*
X035336Y036700D02*
D03*
X034864D02*
D03*
X041464Y038600D02*
D03*
X041936D02*
D03*
X041100Y038100D02*
D03*
X040628D02*
D03*
X040836Y038600D02*
D03*
X040364D02*
D03*
X031364Y028700D02*
D03*
X031836D02*
D03*
X039714Y033850D02*
D03*
X040186D02*
D03*
X040164Y031300D02*
D03*
X040636D02*
D03*
X034464Y028800D02*
D03*
X034936D02*
D03*
X033836D02*
D03*
X033364D02*
D03*
X046064Y035800D02*
D03*
X046536D02*
D03*
X046064Y036300D02*
D03*
X046536D02*
D03*
X035064Y024300D02*
D03*
X035536D02*
D03*
X037336Y036250D02*
D03*
X036864D02*
D03*
X035336Y035550D02*
D03*
X034864D02*
D03*
X037386Y033650D02*
D03*
X036914D02*
D03*
X039164Y031300D02*
D03*
X039636D02*
D03*
X036914Y034300D02*
D03*
X037386D02*
D03*
X036800Y032650D02*
D03*
X037272D02*
D03*
X037286Y032100D02*
D03*
X036814D02*
D03*
X039064Y024450D02*
D03*
X039536D02*
D03*
X039064Y025150D02*
D03*
X039536D02*
D03*
X039064Y025850D02*
D03*
X039536D02*
D03*
X042164Y033400D02*
D03*
X042636D02*
D03*
X039186Y034900D02*
D03*
X038714D02*
D03*
X037386Y035200D02*
D03*
X036914D02*
D03*
X050236Y030400D02*
D03*
X049764D02*
D03*
X027586Y021750D02*
D03*
X027114D02*
D03*
X039864Y036250D02*
D03*
X040336D02*
D03*
G54D23*
X032650Y036729D02*
D03*
Y037871D02*
D03*
X034750Y022429D02*
D03*
Y023571D02*
D03*
G54D24*
X027400Y037700D02*
D03*
X028750D02*
D03*
G54D25*
X044710Y036200D02*
D03*
X043490D02*
D03*
G54D26*
X043450Y026850D02*
D03*
X042550D02*
D03*
Y026150D02*
D03*
X043450D02*
D03*
G54D27*
X041707Y036806D02*
D03*
Y037003D02*
D03*
Y037200D02*
D03*
Y037397D02*
D03*
Y037594D02*
D03*
X040093Y036806D02*
D03*
Y037003D02*
D03*
Y037200D02*
D03*
Y037397D02*
D03*
Y037594D02*
D03*
G54D28*
X040900Y037200D02*
D03*
G54D29*
X047900Y027500D02*
D03*
G54D30*
X046748Y026378D02*
D03*
X047004D02*
D03*
X047260D02*
D03*
X047516D02*
D03*
X047772D02*
D03*
X048028D02*
D03*
X048284D02*
D03*
X048540D02*
D03*
X048796D02*
D03*
X049052D02*
D03*
X046748Y028622D02*
D03*
X047004D02*
D03*
X047260D02*
D03*
X047516D02*
D03*
X047772D02*
D03*
X048028D02*
D03*
X048284D02*
D03*
X048540D02*
D03*
X048796D02*
D03*
X049052D02*
D03*
G54D31*
X025950Y021450D02*
D03*
X024950Y024750D02*
D03*
Y021450D02*
D03*
X025950Y024750D02*
D03*
G54D32*
X033800Y036500D02*
D03*
Y038075D02*
D03*
G54D33*
X036850Y028250D02*
D03*
Y027833D02*
D03*
G54D34*
X027876Y023950D02*
D03*
G54D35*
X029924Y022450D02*
D03*
Y022950D02*
D03*
Y023450D02*
D03*
Y023950D02*
D03*
X027876Y022450D02*
D03*
Y022950D02*
D03*
Y023450D02*
D03*
G54D36*
X030600Y037250D02*
D03*
X029848Y038270D02*
D03*
Y037250D02*
D03*
X030600Y038270D02*
D03*
X030225D02*
D03*
G54D37*
X045450Y030032D02*
D03*
G54D38*
X045066Y029313D02*
D03*
X045322D02*
D03*
X045578D02*
D03*
X045834D02*
D03*
G54D39*
Y030487D02*
D03*
X045578D02*
D03*
X045322D02*
D03*
X045066D02*
D03*
G54D40*
X037000Y029300D02*
D03*
G54D41*
Y029556D02*
D03*
Y029812D02*
D03*
Y030068D02*
D03*
Y030324D02*
D03*
Y030580D02*
D03*
Y030835D02*
D03*
Y031091D02*
D03*
X034795Y029300D02*
D03*
Y029556D02*
D03*
Y029812D02*
D03*
Y030068D02*
D03*
Y030324D02*
D03*
Y030580D02*
D03*
Y030835D02*
D03*
Y031091D02*
D03*
G54D51*
X042650Y032300D02*
D03*
X031100Y036100D02*
D03*
X030350D02*
D03*
X043550Y021350D02*
D03*
Y020350D02*
D03*
X044550D02*
D03*
Y021350D02*
D03*
X046550Y020350D02*
D03*
X052550D02*
D03*
X049550D02*
D03*
X051550Y021350D02*
D03*
X046550D02*
D03*
X030550D02*
D03*
X052550D02*
D03*
X051550Y020350D02*
D03*
X050550D02*
D03*
Y021350D02*
D03*
X048550Y020350D02*
D03*
X049550Y021350D02*
D03*
X045550Y020350D02*
D03*
X048550Y021350D02*
D03*
X047550Y020350D02*
D03*
X045550Y021350D02*
D03*
X047550D02*
D03*
X038550Y020350D02*
D03*
X037550Y021350D02*
D03*
Y020350D02*
D03*
X035550D02*
D03*
X036550Y021350D02*
D03*
X035550D02*
D03*
X039550Y020350D02*
D03*
X036550D02*
D03*
X038550Y021350D02*
D03*
X042550D02*
D03*
X040550Y020350D02*
D03*
X039550Y021350D02*
D03*
X034550Y020350D02*
D03*
X033550D02*
D03*
X032550D02*
D03*
X041550Y021350D02*
D03*
X040550D02*
D03*
X031550Y020350D02*
D03*
X032550Y021350D02*
D03*
X041550Y020350D02*
D03*
X031550Y021350D02*
D03*
X042550Y020350D02*
D03*
X033550Y021350D02*
D03*
X034550D02*
D03*
X032150Y022550D02*
D03*
Y023550D02*
D03*
Y024550D02*
D03*
Y025550D02*
D03*
Y026550D02*
D03*
X051150Y023550D02*
D03*
Y024550D02*
D03*
Y025550D02*
D03*
Y026550D02*
D03*
Y027550D02*
D03*
Y028550D02*
D03*
Y029550D02*
D03*
X038200Y023300D02*
D03*
Y024300D02*
D03*
Y025300D02*
D03*
Y026300D02*
D03*
Y027300D02*
D03*
Y028300D02*
D03*
Y029300D02*
D03*
Y030300D02*
D03*
Y031300D02*
D03*
Y032300D02*
D03*
Y033300D02*
D03*
Y034300D02*
D03*
Y035300D02*
D03*
Y036300D02*
D03*
X041200Y023300D02*
D03*
Y024300D02*
D03*
Y025300D02*
D03*
Y026300D02*
D03*
Y027300D02*
D03*
Y028300D02*
D03*
Y029300D02*
D03*
Y030300D02*
D03*
Y031300D02*
D03*
Y032300D02*
D03*
Y033300D02*
D03*
Y034300D02*
D03*
Y035300D02*
D03*
X025550Y027100D02*
D03*
X043550Y040350D02*
D03*
Y039350D02*
D03*
X044550D02*
D03*
Y040350D02*
D03*
X046550Y039350D02*
D03*
X052550D02*
D03*
X049550D02*
D03*
X051550Y040350D02*
D03*
X046550D02*
D03*
X030550D02*
D03*
X052550D02*
D03*
X051550Y039350D02*
D03*
X050550D02*
D03*
Y040350D02*
D03*
X048550Y039350D02*
D03*
X049550Y040350D02*
D03*
X045550Y039350D02*
D03*
X048550Y040350D02*
D03*
X047550Y039350D02*
D03*
X045550Y040350D02*
D03*
X047550D02*
D03*
X038550Y039350D02*
D03*
X037550Y040350D02*
D03*
Y039350D02*
D03*
X035550D02*
D03*
X036550Y040350D02*
D03*
X035550D02*
D03*
X039550Y039350D02*
D03*
X036550D02*
D03*
X038550Y040350D02*
D03*
X042550D02*
D03*
X040550Y039350D02*
D03*
X039550Y040350D02*
D03*
X034550Y039350D02*
D03*
X033550D02*
D03*
X032550D02*
D03*
X041550Y040350D02*
D03*
X040550D02*
D03*
X031550Y039350D02*
D03*
X032550Y040350D02*
D03*
X041550Y039350D02*
D03*
X031550Y040350D02*
D03*
X042550Y039350D02*
D03*
X033550Y040350D02*
D03*
X034550D02*
D03*
X051150Y038150D02*
D03*
Y037150D02*
D03*
Y036150D02*
D03*
Y035150D02*
D03*
Y034150D02*
D03*
Y033150D02*
D03*
Y032150D02*
D03*
X029050Y025100D02*
D03*
X029950D02*
D03*
X032150Y033550D02*
D03*
Y032550D02*
D03*
Y031550D02*
D03*
Y030550D02*
D03*
Y029550D02*
D03*
G54D52*
X028550Y039850D02*
D03*
X054550Y038600D02*
D03*
Y022100D02*
D03*
X028550Y020850D02*
D03*
G54D53*
X030550Y020350D02*
D03*
X051150Y022550D02*
D03*
X041200Y036300D02*
D03*
X030550Y039350D02*
D03*
X051150Y031150D02*
D03*
G54D54*
X032150Y027550D02*
D03*
Y034550D02*
D03*
G54D55*
X052950Y027750D02*
D03*
Y028750D02*
D03*
Y032000D02*
D03*
Y031000D02*
D03*
X052927Y034227D02*
D03*
Y035227D02*
D03*
X053000Y025600D02*
D03*
Y024600D02*
D03*
G54D56*
X052950Y029750D02*
D03*
Y033000D02*
D03*
X052927Y036227D02*
D03*
X053000Y026600D02*
D03*
G54D57*
X023650Y027000D02*
D03*
Y024100D02*
D03*
X026100Y037450D02*
D03*
G54D58*
X023650Y025450D02*
D03*
Y022550D02*
D03*
X026100Y035900D02*
D03*
G54D59*
X052150Y037150D02*
D03*
X029550Y027100D02*
D03*
Y026100D02*
D03*
X028550Y027100D02*
D03*
Y026100D02*
D03*
X027550Y027100D02*
D03*
Y026100D02*
D03*
X026550Y027100D02*
D03*
Y026100D02*
D03*
G54D60*
X052150Y038150D02*
D03*
G54D61*
X048300Y036300D02*
D03*
G54D62*
Y035300D02*
D03*
X037050Y025050D02*
D03*
X036050D02*
D03*
G54D63*
X035050D02*
D03*
G54D64*
X025550Y026100D02*
D03*
M02*
