%FSAX24Y24*%
%MOIN*%
G70*
G01*
G75*
G04 Layer_Color=16711935*
%ADD10C,0.0060*%
%ADD11C,0.0394*%
%ADD12R,0.0374X0.0394*%
%ADD13R,0.0394X0.0374*%
%ADD14R,0.0630X0.0500*%
%ADD15R,0.0500X0.0630*%
%ADD16R,0.0787X0.0787*%
%ADD17R,0.0850X0.1080*%
%ADD18R,0.0512X0.0728*%
%ADD19R,0.0276X0.0276*%
%ADD20R,0.0276X0.0276*%
%ADD21R,0.0236X0.0315*%
%ADD22R,0.0315X0.0236*%
%ADD23R,0.0728X0.0512*%
%ADD24R,0.0600X0.1000*%
%ADD25R,0.0591X0.1102*%
%ADD26R,0.0550X0.0450*%
%ADD27O,0.0669X0.0118*%
%ADD28R,0.0681X0.0748*%
%ADD29R,0.1654X0.1181*%
%ADD30O,0.0138X0.0669*%
%ADD31R,0.0500X0.1200*%
%ADD32R,0.0787X0.0787*%
%ADD33R,0.0220X0.0200*%
%ADD34R,0.0866X0.0236*%
%ADD35R,0.0866X0.0236*%
%ADD36R,0.0272X0.0390*%
%ADD37R,0.0965X0.0748*%
%ADD38R,0.0160X0.0250*%
%ADD39R,0.0197X0.0161*%
%ADD40R,0.0630X0.0118*%
%ADD41O,0.0630X0.0118*%
%ADD42C,0.0200*%
%ADD43C,0.0070*%
%ADD44C,0.0080*%
%ADD45C,0.0120*%
%ADD46C,0.0250*%
%ADD47C,0.0100*%
%ADD48C,0.0500*%
%ADD49C,0.0030*%
%ADD50C,0.0040*%
%ADD51C,0.0600*%
%ADD52C,0.1750*%
%ADD53R,0.0600X0.0600*%
%ADD54R,0.0600X0.0600*%
%ADD55C,0.0750*%
%ADD56R,0.0750X0.0750*%
%ADD57C,0.0800*%
%ADD58R,0.0800X0.0800*%
%ADD59C,0.0591*%
%ADD60R,0.0591X0.0591*%
%ADD61R,0.0550X0.0550*%
%ADD62C,0.0550*%
%ADD63R,0.0550X0.0550*%
%ADD64R,0.0591X0.0591*%
%ADD65C,0.0200*%
%ADD66C,0.0160*%
%ADD67C,0.0400*%
%ADD68C,0.0850*%
%ADD69C,0.0520*%
%ADD70C,0.0554*%
%ADD71C,0.0300*%
%ADD72R,0.1575X0.0630*%
%ADD73R,0.0200X0.0220*%
%ADD74R,0.0236X0.0591*%
%ADD75R,0.0591X0.0236*%
%ADD76R,0.1142X0.2126*%
%ADD77R,0.0701X0.1402*%
%ADD78R,0.0902X0.0673*%
%ADD79R,0.0134X0.0256*%
%ADD80R,0.0134X0.0315*%
%ADD81R,0.1260X0.0630*%
%ADD82R,0.1100X0.1500*%
%ADD83C,0.0050*%
%ADD84C,0.0098*%
%ADD85C,0.0079*%
%ADD86R,0.0200X0.1240*%
%ADD87R,0.0200X0.1640*%
%ADD88R,0.1240X0.0200*%
%ADD89C,0.0000*%
%ADD90R,0.0925X0.0709*%
%ADD91C,0.0787*%
%ADD92R,0.0454X0.0474*%
%ADD93R,0.0474X0.0454*%
%ADD94R,0.0710X0.0580*%
%ADD95R,0.0580X0.0710*%
%ADD96R,0.0867X0.0867*%
%ADD97R,0.0930X0.1160*%
%ADD98R,0.0592X0.0808*%
%ADD99R,0.0356X0.0356*%
%ADD100R,0.0356X0.0356*%
%ADD101R,0.0316X0.0395*%
%ADD102R,0.0395X0.0316*%
%ADD103R,0.0808X0.0592*%
%ADD104R,0.0680X0.1080*%
%ADD105R,0.0671X0.1182*%
%ADD106R,0.0630X0.0530*%
%ADD107O,0.0749X0.0198*%
%ADD108R,0.0761X0.0828*%
%ADD109R,0.1734X0.1261*%
%ADD110O,0.0218X0.0749*%
%ADD111R,0.0580X0.1280*%
%ADD112R,0.0867X0.0867*%
%ADD113R,0.0300X0.0280*%
%ADD114R,0.0946X0.0316*%
%ADD115R,0.0946X0.0316*%
%ADD116R,0.0352X0.0470*%
%ADD117R,0.1025X0.0808*%
%ADD118R,0.0200X0.0290*%
%ADD119R,0.0257X0.0221*%
%ADD120R,0.0710X0.0198*%
%ADD121O,0.0710X0.0198*%
%ADD122C,0.0680*%
%ADD123C,0.1830*%
%ADD124R,0.0680X0.0680*%
%ADD125C,0.0830*%
%ADD126R,0.0830X0.0830*%
%ADD127C,0.0880*%
%ADD128R,0.0880X0.0880*%
%ADD129C,0.0671*%
%ADD130R,0.0671X0.0671*%
%ADD131R,0.0630X0.0630*%
%ADD132C,0.0630*%
%ADD133R,0.0630X0.0630*%
%ADD134R,0.0671X0.0671*%
%ADD135R,0.1655X0.0710*%
%ADD136R,0.0280X0.0300*%
%ADD137R,0.0316X0.0671*%
%ADD138R,0.0671X0.0316*%
%ADD139R,0.1222X0.2206*%
%ADD140R,0.0781X0.1482*%
%ADD141R,0.0982X0.0753*%
%ADD142R,0.0214X0.0336*%
%ADD143R,0.0214X0.0395*%
%ADD144R,0.1340X0.0710*%
%ADD145R,0.1180X0.1580*%
%ADD146C,0.0280*%
%ADD147C,0.0010*%
%ADD148C,0.0020*%
%ADD149C,0.0036*%
%ADD150R,0.0132X0.0182*%
%ADD151R,0.0200X0.2470*%
%ADD152C,0.0039*%
G54D43*
X035258Y038388D02*
G03*
X035258Y035412I000542J-001488D01*
G01*
X037473Y036900D02*
G03*
X037473Y036900I-001673J000000D01*
G01*
X043117Y034290D02*
G03*
X043117Y031910I000433J-001190D01*
G01*
X044889Y033100D02*
G03*
X044889Y033100I-001339J000000D01*
G01*
X043488Y025388D02*
G03*
X043488Y022412I000542J-001488D01*
G01*
X045703Y023900D02*
G03*
X045703Y023900I-001673J000000D01*
G01*
X035258Y035412D02*
Y038388D01*
X055200Y031273D02*
Y031706D01*
X054915Y031273D02*
X055200D01*
X054915Y032139D02*
X055200D01*
Y031706D02*
Y032139D01*
X054630Y031706D02*
Y032139D01*
X054915D01*
X054630Y031273D02*
X054915D01*
X054630D02*
Y031706D01*
X055200Y028023D02*
Y028456D01*
X054915Y028023D02*
X055200D01*
X054915Y028889D02*
X055200D01*
Y028456D02*
Y028889D01*
X054630Y028456D02*
Y028889D01*
X054915D01*
X054630Y028023D02*
X054915D01*
X054630D02*
Y028456D01*
X055185Y024767D02*
Y025200D01*
X054900Y024767D02*
X055185D01*
X054900Y025633D02*
X055185D01*
Y025200D02*
Y025633D01*
X054615Y025200D02*
Y025633D01*
X054900D01*
X054615Y024767D02*
X054900D01*
X054615D02*
Y025200D01*
X025000Y025085D02*
X025433D01*
Y024800D02*
Y025085D01*
X024567Y024800D02*
Y025085D01*
X025000D01*
X024567Y024515D02*
X025000D01*
X024567D02*
Y024800D01*
X025433Y024515D02*
Y024800D01*
X025000Y024515D02*
X025433D01*
X025350Y021935D02*
X025783D01*
Y021650D02*
Y021935D01*
X024917Y021650D02*
Y021935D01*
X025350D01*
X024917Y021365D02*
X025350D01*
X024917D02*
Y021650D01*
X025783Y021365D02*
Y021650D01*
X025350Y021365D02*
X025783D01*
X043117Y031910D02*
Y034290D01*
X043488Y022412D02*
Y025388D01*
X055150Y034423D02*
Y034856D01*
X054865Y034423D02*
X055150D01*
X054865Y035289D02*
X055150D01*
Y034856D02*
Y035289D01*
X054580Y034856D02*
Y035289D01*
X054865D01*
X054580Y034423D02*
X054865D01*
X054580D02*
Y034856D01*
G54D152*
X040841Y037456D02*
G03*
X040841Y037456I-000197J000000D01*
G01*
X047152Y026969D02*
G03*
X047152Y026969I-000197J000000D01*
G01*
X034313Y033056D02*
X034687D01*
X034313Y033617D02*
X034687D01*
X034313Y033056D02*
Y033744D01*
X034687Y033056D02*
Y033744D01*
X034313D02*
X034687D01*
X034313Y033183D02*
X034687D01*
X036294Y028463D02*
Y028837D01*
X035733Y028463D02*
Y028837D01*
X035606Y028463D02*
X036294D01*
X035606Y028837D02*
X036294D01*
X035606Y028463D02*
Y028837D01*
X036167Y028463D02*
Y028837D01*
X036615Y022467D02*
Y023333D01*
X037185Y022467D02*
Y023333D01*
X036615Y022644D02*
X037185D01*
X036615Y023333D02*
X037185D01*
X036615Y022467D02*
X037185D01*
X036615Y023156D02*
X037185D01*
X035665Y022467D02*
Y023333D01*
X036235Y022467D02*
Y023333D01*
X035665Y022644D02*
X036235D01*
X035665Y023333D02*
X036235D01*
X035665Y022467D02*
X036235D01*
X035665Y023156D02*
X036235D01*
X044713Y023506D02*
X045087D01*
X044713Y024067D02*
X045087D01*
X044713Y023506D02*
Y024194D01*
X045087Y023506D02*
Y024194D01*
X044713D02*
X045087D01*
X044713Y023633D02*
X045087D01*
X029115Y035617D02*
Y036483D01*
X029685Y035617D02*
Y036483D01*
X029115Y035794D02*
X029685D01*
X029115Y036483D02*
X029685D01*
X029115Y035617D02*
X029685D01*
X029115Y036306D02*
X029685D01*
X036435Y037167D02*
Y038033D01*
X035865Y037167D02*
Y038033D01*
Y037856D02*
X036435D01*
X035865Y037167D02*
X036435D01*
X035865Y038033D02*
X036435D01*
X035865Y037344D02*
X036435D01*
X036665Y037167D02*
Y038033D01*
X037235Y037167D02*
Y038033D01*
X036665Y037344D02*
X037235D01*
X036665Y038033D02*
X037235D01*
X036665Y037167D02*
X037235D01*
X036665Y037856D02*
X037235D01*
X038035Y037167D02*
Y038033D01*
X037465Y037167D02*
Y038033D01*
Y037856D02*
X038035D01*
X037465Y037167D02*
X038035D01*
X037465Y038033D02*
X038035D01*
X037465Y037344D02*
X038035D01*
X038835Y037167D02*
Y038033D01*
X038265Y037167D02*
Y038033D01*
Y037856D02*
X038835D01*
X038265Y037167D02*
X038835D01*
X038265Y038033D02*
X038835D01*
X038265Y037344D02*
X038835D01*
X042365Y036917D02*
Y037783D01*
X042935Y036917D02*
Y037783D01*
X042365Y037094D02*
X042935D01*
X042365Y037783D02*
X042935D01*
X042365Y036917D02*
X042935D01*
X042365Y037606D02*
X042935D01*
X046685Y037167D02*
Y038033D01*
X046115Y037167D02*
Y038033D01*
Y037856D02*
X046685D01*
X046115Y037167D02*
X046685D01*
X046115Y038033D02*
X046685D01*
X046115Y037344D02*
X046685D01*
X047115Y037167D02*
Y038033D01*
X047685Y037167D02*
Y038033D01*
X047115Y037344D02*
X047685D01*
X047115Y038033D02*
X047685D01*
X047115Y037167D02*
X047685D01*
X047115Y037856D02*
X047685D01*
X043356Y027513D02*
Y027887D01*
X043917Y027513D02*
Y027887D01*
X043356D02*
X044044D01*
X043356Y027513D02*
X044044D01*
Y027887D01*
X043483Y027513D02*
Y027887D01*
X040113Y026556D02*
X040487D01*
X040113Y027117D02*
X040487D01*
X040113Y026556D02*
Y027244D01*
X040487Y026556D02*
Y027244D01*
X040113D02*
X040487D01*
X040113Y026683D02*
X040487D01*
X035013Y033744D02*
X035387D01*
X035013Y033183D02*
X035387D01*
Y033056D02*
Y033744D01*
X035013Y033056D02*
Y033744D01*
Y033056D02*
X035387D01*
X035013Y033617D02*
X035387D01*
X039413Y031856D02*
X039787D01*
X039413Y032417D02*
X039787D01*
X039413Y031856D02*
Y032544D01*
X039787Y031856D02*
Y032544D01*
X039413D02*
X039787D01*
X039413Y031983D02*
X039787D01*
X037213Y028194D02*
X037587D01*
X037213Y027633D02*
X037587D01*
Y027506D02*
Y028194D01*
X037213Y027506D02*
Y028194D01*
Y027506D02*
X037587D01*
X037213Y028067D02*
X037587D01*
X035913Y027744D02*
X036287D01*
X035913Y027183D02*
X036287D01*
Y027056D02*
Y027744D01*
X035913Y027056D02*
Y027744D01*
Y027056D02*
X036287D01*
X035913Y027617D02*
X036287D01*
X035263Y027744D02*
X035637D01*
X035263Y027183D02*
X035637D01*
Y027056D02*
Y027744D01*
X035263Y027056D02*
Y027744D01*
Y027056D02*
X035637D01*
X035263Y027617D02*
X035637D01*
X039756Y034363D02*
Y034737D01*
X040317Y034363D02*
Y034737D01*
X039756D02*
X040444D01*
X039756Y034363D02*
X040444D01*
Y034737D01*
X039883Y034363D02*
Y034737D01*
X049263Y027794D02*
X049637D01*
X049263Y027233D02*
X049637D01*
Y027106D02*
Y027794D01*
X049263Y027106D02*
Y027794D01*
Y027106D02*
X049637D01*
X049263Y027667D02*
X049637D01*
X047606Y025463D02*
Y025837D01*
X048167Y025463D02*
Y025837D01*
X047606D02*
X048294D01*
X047606Y025463D02*
X048294D01*
Y025837D01*
X047733Y025463D02*
Y025837D01*
X044863Y025956D02*
X045237D01*
X044863Y026517D02*
X045237D01*
X044863Y025956D02*
Y026644D01*
X045237Y025956D02*
Y026644D01*
X044863D02*
X045237D01*
X044863Y026083D02*
X045237D01*
X047035Y030117D02*
Y030983D01*
X046465Y030117D02*
Y030983D01*
Y030806D02*
X047035D01*
X046465Y030117D02*
X047035D01*
X046465Y030983D02*
X047035D01*
X046465Y030294D02*
X047035D01*
X047567Y029465D02*
X048433D01*
X047567Y030035D02*
X048433D01*
X048256Y029465D02*
Y030035D01*
X047567Y029465D02*
Y030035D01*
X048433Y029465D02*
Y030035D01*
X047744Y029465D02*
Y030035D01*
X047867Y024935D02*
X048733D01*
X047867Y024365D02*
X048733D01*
X048044D02*
Y024935D01*
X048733Y024365D02*
Y024935D01*
X047867Y024365D02*
Y024935D01*
X048556Y024365D02*
Y024935D01*
X045485Y027267D02*
Y028133D01*
X044915Y027267D02*
Y028133D01*
Y027956D02*
X045485D01*
X044915Y027267D02*
X045485D01*
X044915Y028133D02*
X045485D01*
X044915Y027444D02*
X045485D01*
X046335Y027267D02*
Y028133D01*
X045765Y027267D02*
Y028133D01*
Y027956D02*
X046335D01*
X045765Y027267D02*
X046335D01*
X045765Y028133D02*
X046335D01*
X045765Y027444D02*
X046335D01*
X047485Y031767D02*
Y032633D01*
X046915Y031767D02*
Y032633D01*
Y032456D02*
X047485D01*
X046915Y031767D02*
X047485D01*
X046915Y032633D02*
X047485D01*
X046915Y031944D02*
X047485D01*
X048013Y023856D02*
X048387D01*
X048013Y024417D02*
X048387D01*
Y023856D02*
Y024544D01*
X048013Y023856D02*
Y024544D01*
X048387D01*
X048013Y023983D02*
X048387D01*
X048713Y023856D02*
X049087D01*
X048713Y024417D02*
X049087D01*
Y023856D02*
Y024544D01*
X048713Y023856D02*
Y024544D01*
X049087D01*
X048713Y023983D02*
X049087D01*
X049013Y029291D02*
X049387D01*
X049013Y029852D02*
X049387D01*
X049013Y029291D02*
Y029980D01*
X049387Y029291D02*
Y029980D01*
X049013D02*
X049387D01*
X049013Y029418D02*
X049387D01*
X043067Y034615D02*
X043933D01*
X043067Y035185D02*
X043933D01*
X043756Y034615D02*
Y035185D01*
X043067Y034615D02*
Y035185D01*
X043933Y034615D02*
Y035185D01*
X043244Y034615D02*
Y035185D01*
X030563Y024356D02*
X030937D01*
X030563Y024917D02*
X030937D01*
X030563Y024356D02*
Y025044D01*
X030937Y024356D02*
Y025044D01*
X030563D02*
X030937D01*
X030563Y024483D02*
X030937D01*
X028322Y035546D02*
Y036254D01*
X027181Y035546D02*
Y036254D01*
X028519Y035546D02*
Y036254D01*
X027378Y035546D02*
Y036254D01*
X027181Y035546D02*
X028519D01*
X027181Y036254D02*
X028519D01*
X038882Y033483D02*
X039118D01*
X038882Y033838D02*
X039118D01*
X038882Y033483D02*
Y033917D01*
X039118Y033483D02*
Y033917D01*
X038882D02*
X039118D01*
X038882Y033562D02*
X039118D01*
X035317Y035982D02*
Y036218D01*
X034962Y035982D02*
Y036218D01*
X034883Y035982D02*
X035317D01*
X034883Y036218D02*
X035317D01*
X034883Y035982D02*
Y036218D01*
X035238Y035982D02*
Y036218D01*
X048232Y038267D02*
X048468D01*
X048232Y037912D02*
X048468D01*
Y037833D02*
Y038267D01*
X048232Y037833D02*
Y038267D01*
Y037833D02*
X048468D01*
X048232Y038188D02*
X048468D01*
X036833Y031432D02*
Y031668D01*
X037188Y031432D02*
Y031668D01*
X036833D02*
X037267D01*
X036833Y031432D02*
X037267D01*
Y031668D01*
X036912Y031432D02*
Y031668D01*
X035317Y036582D02*
Y036818D01*
X034962Y036582D02*
Y036818D01*
X034883Y036582D02*
X035317D01*
X034883Y036818D02*
X035317D01*
X034883Y036582D02*
Y036818D01*
X035238Y036582D02*
Y036818D01*
X041483Y038482D02*
Y038718D01*
X041838Y038482D02*
Y038718D01*
X041483D02*
X041917D01*
X041483Y038482D02*
X041917D01*
Y038718D01*
X041562Y038482D02*
Y038718D01*
X049182Y022667D02*
X049418D01*
X049182Y022312D02*
X049418D01*
Y022233D02*
Y022667D01*
X049182Y022233D02*
Y022667D01*
Y022233D02*
X049418D01*
X049182Y022588D02*
X049418D01*
X026028Y038996D02*
Y039704D01*
X027169Y038996D02*
Y039704D01*
X025831Y038996D02*
Y039704D01*
X026972Y038996D02*
Y039704D01*
X025831D02*
X027169D01*
X025831Y038996D02*
X027169D01*
X032296Y036828D02*
X033004D01*
X032296Y037969D02*
X033004D01*
X032296Y036631D02*
X033004D01*
X032296Y037772D02*
X033004D01*
X032296Y036631D02*
Y037969D01*
X033004Y036631D02*
Y037969D01*
X031082Y037667D02*
X031318D01*
X031082Y037312D02*
X031318D01*
Y037233D02*
Y037667D01*
X031082Y037233D02*
Y037667D01*
Y037233D02*
X031318D01*
X031082Y037588D02*
X031318D01*
X035444Y037413D02*
Y037787D01*
X034883Y037413D02*
Y037787D01*
X034756Y037413D02*
X035444D01*
X034756Y037787D02*
X035444D01*
X034756Y037413D02*
Y037787D01*
X035317Y037413D02*
Y037787D01*
X039332Y038267D02*
X039568D01*
X039332Y037912D02*
X039568D01*
Y037833D02*
Y038267D01*
X039332Y037833D02*
Y038267D01*
Y037833D02*
X039568D01*
X039332Y038188D02*
X039568D01*
X039182Y036783D02*
X039418D01*
X039182Y037138D02*
X039418D01*
X039182Y036783D02*
Y037217D01*
X039418Y036783D02*
Y037217D01*
X039182D02*
X039418D01*
X039182Y036862D02*
X039418D01*
X041080Y037982D02*
Y038218D01*
X040726Y037982D02*
Y038218D01*
X040647Y037982D02*
X041080D01*
X040647Y038218D02*
X041080D01*
X040647Y037982D02*
Y038218D01*
X041002Y037982D02*
Y038218D01*
X040817Y038482D02*
Y038718D01*
X040462Y038482D02*
Y038718D01*
X040383Y038482D02*
X040817D01*
X040383Y038718D02*
X040817D01*
X040383Y038482D02*
Y038718D01*
X040738Y038482D02*
Y038718D01*
X031282Y034147D02*
X031518D01*
X031282Y034502D02*
X031518D01*
X031282Y034147D02*
Y034580D01*
X031518Y034147D02*
Y034580D01*
X031282D02*
X031518D01*
X031282Y034226D02*
X031518D01*
X031383Y028582D02*
Y028818D01*
X031738Y028582D02*
Y028818D01*
X031383D02*
X031817D01*
X031383Y028582D02*
X031817D01*
Y028818D01*
X031462Y028582D02*
Y028818D01*
X039733Y033732D02*
Y033968D01*
X040088Y033732D02*
Y033968D01*
X039733D02*
X040167D01*
X039733Y033732D02*
X040167D01*
Y033968D01*
X039812Y033732D02*
Y033968D01*
X040183Y031182D02*
Y031418D01*
X040538Y031182D02*
Y031418D01*
X040183D02*
X040617D01*
X040183Y031182D02*
X040617D01*
Y031418D01*
X040262Y031182D02*
Y031418D01*
X034483Y028682D02*
Y028918D01*
X034838Y028682D02*
Y028918D01*
X034483D02*
X034917D01*
X034483Y028682D02*
X034917D01*
Y028918D01*
X034562Y028682D02*
Y028918D01*
X033033Y034332D02*
Y034568D01*
X033388Y034332D02*
Y034568D01*
X033033Y034332D02*
X033467D01*
X033033Y034568D02*
X033467D01*
Y034332D02*
Y034568D01*
X033112Y034332D02*
Y034568D01*
X033083Y033382D02*
Y033618D01*
X033438Y033382D02*
Y033618D01*
X033083Y033382D02*
X033517D01*
X033083Y033618D02*
X033517D01*
Y033382D02*
Y033618D01*
X033162Y033382D02*
Y033618D01*
X033083Y032482D02*
Y032718D01*
X033438Y032482D02*
Y032718D01*
X033083Y032482D02*
X033517D01*
X033083Y032718D02*
X033517D01*
Y032482D02*
Y032718D01*
X033162Y032482D02*
Y032718D01*
X033083Y031432D02*
Y031668D01*
X033438Y031432D02*
Y031668D01*
X033083Y031432D02*
X033517D01*
X033083Y031668D02*
X033517D01*
Y031432D02*
Y031668D01*
X033162Y031432D02*
Y031668D01*
X033083Y030432D02*
Y030668D01*
X033438Y030432D02*
Y030668D01*
X033083Y030432D02*
X033517D01*
X033083Y030668D02*
X033517D01*
Y030432D02*
Y030668D01*
X033162Y030432D02*
Y030668D01*
X033033Y029432D02*
Y029668D01*
X033388Y029432D02*
Y029668D01*
X033033Y029432D02*
X033467D01*
X033033Y029668D02*
X033467D01*
Y029432D02*
Y029668D01*
X033112Y029432D02*
Y029668D01*
X033083Y027282D02*
Y027518D01*
X033438Y027282D02*
Y027518D01*
X033083Y027282D02*
X033517D01*
X033083Y027518D02*
X033517D01*
Y027282D02*
Y027518D01*
X033162Y027282D02*
Y027518D01*
X033083Y026282D02*
Y026518D01*
X033438Y026282D02*
Y026518D01*
X033083Y026282D02*
X033517D01*
X033083Y026518D02*
X033517D01*
Y026282D02*
Y026518D01*
X033162Y026282D02*
Y026518D01*
X033083Y025482D02*
Y025718D01*
X033438Y025482D02*
Y025718D01*
X033083Y025482D02*
X033517D01*
X033083Y025718D02*
X033517D01*
Y025482D02*
Y025718D01*
X033162Y025482D02*
Y025718D01*
X033083Y024282D02*
Y024518D01*
X033438Y024282D02*
Y024518D01*
X033083Y024282D02*
X033517D01*
X033083Y024518D02*
X033517D01*
Y024282D02*
Y024518D01*
X033162Y024282D02*
Y024518D01*
X033083Y023382D02*
Y023618D01*
X033438Y023382D02*
Y023618D01*
X033083Y023382D02*
X033517D01*
X033083Y023618D02*
X033517D01*
Y023382D02*
Y023618D01*
X033162Y023382D02*
Y023618D01*
X033083Y022282D02*
Y022518D01*
X033438Y022282D02*
Y022518D01*
X033083Y022282D02*
X033517D01*
X033083Y022518D02*
X033517D01*
Y022282D02*
Y022518D01*
X033162Y022282D02*
Y022518D01*
X033817Y028682D02*
Y028918D01*
X033462Y028682D02*
Y028918D01*
X033383Y028682D02*
X033817D01*
X033383Y028918D02*
X033817D01*
X033383Y028682D02*
Y028918D01*
X033738Y028682D02*
Y028918D01*
X033483Y034832D02*
Y035068D01*
X033838Y034832D02*
Y035068D01*
X033483Y034832D02*
X033917D01*
X033483Y035068D02*
X033917D01*
Y034832D02*
Y035068D01*
X033562Y034832D02*
Y035068D01*
X046083Y035682D02*
Y035918D01*
X046438Y035682D02*
Y035918D01*
X046083D02*
X046517D01*
X046083Y035682D02*
X046517D01*
Y035918D01*
X046162Y035682D02*
Y035918D01*
X049833Y038082D02*
Y038318D01*
X050188Y038082D02*
Y038318D01*
X049833Y038082D02*
X050267D01*
X049833Y038318D02*
X050267D01*
Y038082D02*
Y038318D01*
X049912Y038082D02*
Y038318D01*
X049833Y037082D02*
Y037318D01*
X050188Y037082D02*
Y037318D01*
X049833Y037082D02*
X050267D01*
X049833Y037318D02*
X050267D01*
Y037082D02*
Y037318D01*
X049912Y037082D02*
Y037318D01*
X049833Y036082D02*
Y036318D01*
X050188Y036082D02*
Y036318D01*
X049833Y036082D02*
X050267D01*
X049833Y036318D02*
X050267D01*
Y036082D02*
Y036318D01*
X049912Y036082D02*
Y036318D01*
X049833Y035082D02*
Y035318D01*
X050188Y035082D02*
Y035318D01*
X049833Y035082D02*
X050267D01*
X049833Y035318D02*
X050267D01*
Y035082D02*
Y035318D01*
X049912Y035082D02*
Y035318D01*
X051832Y034083D02*
X052068D01*
X051832Y034438D02*
X052068D01*
X051832Y034083D02*
Y034517D01*
X052068Y034083D02*
Y034517D01*
X051832D02*
X052068D01*
X051832Y034162D02*
X052068D01*
X049833Y033032D02*
Y033268D01*
X050188Y033032D02*
Y033268D01*
X049833Y033032D02*
X050267D01*
X049833Y033268D02*
X050267D01*
Y033032D02*
Y033268D01*
X049912Y033032D02*
Y033268D01*
X049833Y032082D02*
Y032318D01*
X050188Y032082D02*
Y032318D01*
X049833Y032082D02*
X050267D01*
X049833Y032318D02*
X050267D01*
Y032082D02*
Y032318D01*
X049912Y032082D02*
Y032318D01*
X049833Y031082D02*
Y031318D01*
X050188Y031082D02*
Y031318D01*
X049833Y031082D02*
X050267D01*
X049833Y031318D02*
X050267D01*
Y031082D02*
Y031318D01*
X049912Y031082D02*
Y031318D01*
X049833Y029482D02*
Y029718D01*
X050188Y029482D02*
Y029718D01*
X049833Y029482D02*
X050267D01*
X049833Y029718D02*
X050267D01*
Y029482D02*
Y029718D01*
X049912Y029482D02*
Y029718D01*
X049833Y028482D02*
Y028718D01*
X050188Y028482D02*
Y028718D01*
X049833Y028482D02*
X050267D01*
X049833Y028718D02*
X050267D01*
Y028482D02*
Y028718D01*
X049912Y028482D02*
Y028718D01*
X049883Y027482D02*
Y027718D01*
X050238Y027482D02*
Y027718D01*
X049883Y027482D02*
X050317D01*
X049883Y027718D02*
X050317D01*
Y027482D02*
Y027718D01*
X049962Y027482D02*
Y027718D01*
X049833Y026432D02*
Y026668D01*
X050188Y026432D02*
Y026668D01*
X049833Y026432D02*
X050267D01*
X049833Y026668D02*
X050267D01*
Y026432D02*
Y026668D01*
X049912Y026432D02*
Y026668D01*
X049833Y025482D02*
Y025718D01*
X050188Y025482D02*
Y025718D01*
X049833Y025482D02*
X050267D01*
X049833Y025718D02*
X050267D01*
Y025482D02*
Y025718D01*
X049912Y025482D02*
Y025718D01*
X049833Y024432D02*
Y024668D01*
X050188Y024432D02*
Y024668D01*
X049833Y024432D02*
X050267D01*
X049833Y024668D02*
X050267D01*
Y024432D02*
Y024668D01*
X049912Y024432D02*
Y024668D01*
X049833Y023432D02*
Y023668D01*
X050188Y023432D02*
Y023668D01*
X049833Y023432D02*
X050267D01*
X049833Y023668D02*
X050267D01*
Y023432D02*
Y023668D01*
X049912Y023432D02*
Y023668D01*
X049833Y022432D02*
Y022668D01*
X050188Y022432D02*
Y022668D01*
X049833Y022432D02*
X050267D01*
X049833Y022668D02*
X050267D01*
Y022432D02*
Y022668D01*
X049912Y022432D02*
Y022668D01*
X046083Y036182D02*
Y036418D01*
X046438Y036182D02*
Y036418D01*
X046083D02*
X046517D01*
X046083Y036182D02*
X046517D01*
Y036418D01*
X046162Y036182D02*
Y036418D01*
X035083Y024182D02*
Y024418D01*
X035438Y024182D02*
Y024418D01*
X035083D02*
X035517D01*
X035083Y024182D02*
X035517D01*
Y024418D01*
X035162Y024182D02*
Y024418D01*
X035682Y033617D02*
X035918D01*
X035682Y033262D02*
X035918D01*
Y033183D02*
Y033617D01*
X035682Y033183D02*
Y033617D01*
Y033183D02*
X035918D01*
X035682Y033538D02*
X035918D01*
X037317Y036132D02*
Y036368D01*
X036962Y036132D02*
Y036368D01*
X036883Y036132D02*
X037317D01*
X036883Y036368D02*
X037317D01*
X036883Y036132D02*
Y036368D01*
X037238Y036132D02*
Y036368D01*
X039582Y035183D02*
X039818D01*
X039582Y035538D02*
X039818D01*
X039582Y035183D02*
Y035617D01*
X039818Y035183D02*
Y035617D01*
X039582D02*
X039818D01*
X039582Y035262D02*
X039818D01*
X035317Y035432D02*
Y035668D01*
X034962Y035432D02*
Y035668D01*
X034883Y035432D02*
X035317D01*
X034883Y035668D02*
X035317D01*
X034883Y035432D02*
Y035668D01*
X035238Y035432D02*
Y035668D01*
X037367Y033532D02*
Y033768D01*
X037012Y033532D02*
Y033768D01*
X036933Y033532D02*
X037367D01*
X036933Y033768D02*
X037367D01*
X036933Y033532D02*
Y033768D01*
X037288Y033532D02*
Y033768D01*
X039183Y031182D02*
Y031418D01*
X039538Y031182D02*
Y031418D01*
X039183D02*
X039617D01*
X039183Y031182D02*
X039617D01*
Y031418D01*
X039262Y031182D02*
Y031418D01*
X036933Y034182D02*
Y034418D01*
X037288Y034182D02*
Y034418D01*
X036933D02*
X037367D01*
X036933Y034182D02*
X037367D01*
Y034418D01*
X037012Y034182D02*
Y034418D01*
X038832Y027133D02*
X039068D01*
X038832Y027488D02*
X039068D01*
X038832Y027133D02*
Y027567D01*
X039068Y027133D02*
Y027567D01*
X038832D02*
X039068D01*
X038832Y027212D02*
X039068D01*
X036820Y032532D02*
Y032768D01*
X037174Y032532D02*
Y032768D01*
X036820D02*
X037253D01*
X036820Y032532D02*
X037253D01*
Y032768D01*
X036898Y032532D02*
Y032768D01*
X037267Y031982D02*
Y032218D01*
X036912Y031982D02*
Y032218D01*
X036833Y031982D02*
X037267D01*
X036833Y032218D02*
X037267D01*
X036833Y031982D02*
Y032218D01*
X037188Y031982D02*
Y032218D01*
X039083Y024332D02*
Y024568D01*
X039438Y024332D02*
Y024568D01*
X039083D02*
X039517D01*
X039083Y024332D02*
X039517D01*
Y024568D01*
X039162Y024332D02*
Y024568D01*
X039083Y025032D02*
Y025268D01*
X039438Y025032D02*
Y025268D01*
X039083D02*
X039517D01*
X039083Y025032D02*
X039517D01*
Y025268D01*
X039162Y025032D02*
Y025268D01*
X039083Y025732D02*
Y025968D01*
X039438Y025732D02*
Y025968D01*
X039083D02*
X039517D01*
X039083Y025732D02*
X039517D01*
Y025968D01*
X039162Y025732D02*
Y025968D01*
X042183Y033282D02*
Y033518D01*
X042538Y033282D02*
Y033518D01*
X042183D02*
X042617D01*
X042183Y033282D02*
X042617D01*
Y033518D01*
X042262Y033282D02*
Y033518D01*
X038932Y032317D02*
X039168D01*
X038932Y031962D02*
X039168D01*
Y031883D02*
Y032317D01*
X038932Y031883D02*
Y032317D01*
Y031883D02*
X039168D01*
X038932Y032238D02*
X039168D01*
X040032Y031883D02*
X040268D01*
X040032Y032238D02*
X040268D01*
X040032Y031883D02*
Y032317D01*
X040268Y031883D02*
Y032317D01*
X040032D02*
X040268D01*
X040032Y031962D02*
X040268D01*
X039167Y034782D02*
Y035018D01*
X038812Y034782D02*
Y035018D01*
X038733Y034782D02*
X039167D01*
X038733Y035018D02*
X039167D01*
X038733Y034782D02*
Y035018D01*
X039088Y034782D02*
Y035018D01*
X037367Y035082D02*
Y035318D01*
X037012Y035082D02*
Y035318D01*
X036933Y035082D02*
X037367D01*
X036933Y035318D02*
X037367D01*
X036933Y035082D02*
Y035318D01*
X037288Y035082D02*
Y035318D01*
X046782Y025083D02*
X047018D01*
X046782Y025438D02*
X047018D01*
X046782Y025083D02*
Y025517D01*
X047018Y025083D02*
Y025517D01*
X046782D02*
X047018D01*
X046782Y025162D02*
X047018D01*
X046382Y025083D02*
X046618D01*
X046382Y025438D02*
X046618D01*
X046382Y025083D02*
Y025517D01*
X046618Y025083D02*
Y025517D01*
X046382D02*
X046618D01*
X046382Y025162D02*
X046618D01*
X045482Y026617D02*
X045718D01*
X045482Y026262D02*
X045718D01*
Y026183D02*
Y026617D01*
X045482Y026183D02*
Y026617D01*
Y026183D02*
X045718D01*
X045482Y026538D02*
X045718D01*
X045982Y025517D02*
X046218D01*
X045982Y025162D02*
X046218D01*
Y025083D02*
Y025517D01*
X045982Y025083D02*
Y025517D01*
Y025083D02*
X046218D01*
X045982Y025438D02*
X046218D01*
X046406Y023263D02*
Y023637D01*
X046967Y023263D02*
Y023637D01*
X046406D02*
X047094D01*
X046406Y023263D02*
X047094D01*
Y023637D01*
X046533Y023263D02*
Y023637D01*
X048383Y023182D02*
Y023418D01*
X048738Y023182D02*
Y023418D01*
X048383Y023182D02*
X048817D01*
X048383Y023418D02*
X048817D01*
Y023182D02*
Y023418D01*
X048462Y023182D02*
Y023418D01*
X050217Y030282D02*
Y030518D01*
X049862Y030282D02*
Y030518D01*
X049783Y030282D02*
X050217D01*
X049783Y030518D02*
X050217D01*
X049783Y030282D02*
Y030518D01*
X050138Y030282D02*
Y030518D01*
X045246Y032722D02*
X045954D01*
X045246Y031581D02*
X045954D01*
X045246Y032919D02*
X045954D01*
X045246Y031778D02*
X045954D01*
X045246Y031581D02*
Y032919D01*
X045954Y031581D02*
Y032919D01*
X049282Y024983D02*
X049518D01*
X049282Y025338D02*
X049518D01*
X049282Y024983D02*
Y025417D01*
X049518Y024983D02*
Y025417D01*
X049282D02*
X049518D01*
X049282Y025062D02*
X049518D01*
X048394Y025363D02*
Y025737D01*
X047833Y025363D02*
Y025737D01*
X047706D02*
X048394D01*
X047706Y025363D02*
X048394D01*
X047706D02*
Y025737D01*
X048267Y025363D02*
Y025737D01*
X026022Y023396D02*
Y024104D01*
X024881Y023396D02*
Y024104D01*
X026219Y023396D02*
Y024104D01*
X025078Y023396D02*
Y024104D01*
X024881D02*
X026219D01*
X024881Y023396D02*
X026219D01*
X030632Y023133D02*
X030868D01*
X030632Y023488D02*
X030868D01*
X030632Y023133D02*
Y023567D01*
X030868Y023133D02*
Y023567D01*
X030632D02*
X030868D01*
X030632Y023212D02*
X030868D01*
X026022Y022396D02*
Y023104D01*
X024881Y022396D02*
Y023104D01*
X026219Y022396D02*
Y023104D01*
X025078Y022396D02*
Y023104D01*
X024881D02*
X026219D01*
X024881Y022396D02*
X026219D01*
X030706Y023813D02*
Y024187D01*
X031267Y023813D02*
Y024187D01*
X030706Y023813D02*
X031394D01*
X030706Y024187D02*
X031394D01*
Y023813D02*
Y024187D01*
X030833Y023813D02*
Y024187D01*
X030706Y022863D02*
Y023237D01*
X031267Y022863D02*
Y023237D01*
X030706Y022863D02*
X031394D01*
X030706Y023237D02*
X031394D01*
Y022863D02*
Y023237D01*
X030833Y022863D02*
Y023237D01*
X031182Y023133D02*
X031418D01*
X031182Y023488D02*
X031418D01*
X031182Y023133D02*
Y023567D01*
X031418Y023133D02*
Y023567D01*
X031182D02*
X031418D01*
X031182Y023212D02*
X031418D01*
X027567Y021632D02*
Y021868D01*
X027212Y021632D02*
Y021868D01*
X027133Y021632D02*
X027567D01*
X027133Y021868D02*
X027567D01*
X027133Y021632D02*
Y021868D01*
X027488Y021632D02*
Y021868D01*
X026982Y023717D02*
X027218D01*
X026982Y023362D02*
X027218D01*
Y023283D02*
Y023717D01*
X026982Y023283D02*
Y023717D01*
Y023283D02*
X027218D01*
X026982Y023638D02*
X027218D01*
X028532Y023683D02*
X028768D01*
X028532Y024038D02*
X028768D01*
Y023683D02*
Y024117D01*
X028532Y023683D02*
Y024117D01*
X028768D01*
X028532Y023762D02*
X028768D01*
X027932Y025317D02*
X028168D01*
X027932Y024962D02*
X028168D01*
X027932Y024883D02*
Y025317D01*
X028168Y024883D02*
Y025317D01*
X027932Y024883D02*
X028168D01*
X027932Y025238D02*
X028168D01*
X026783Y020882D02*
Y021118D01*
X027138Y020882D02*
Y021118D01*
X026783Y020882D02*
X027217D01*
X026783Y021118D02*
X027217D01*
Y020882D02*
Y021118D01*
X026862Y020882D02*
Y021118D01*
X029532Y022767D02*
X029768D01*
X029532Y022412D02*
X029768D01*
X029532Y022333D02*
Y022767D01*
X029768Y022333D02*
Y022767D01*
X029532Y022333D02*
X029768D01*
X029532Y022688D02*
X029768D01*
X026982Y024767D02*
X027218D01*
X026982Y024412D02*
X027218D01*
Y024333D02*
Y024767D01*
X026982Y024333D02*
Y024767D01*
Y024333D02*
X027218D01*
X026982Y024688D02*
X027218D01*
X031182Y024333D02*
X031418D01*
X031182Y024688D02*
X031418D01*
X031182Y024333D02*
Y024767D01*
X031418Y024333D02*
Y024767D01*
X031182D02*
X031418D01*
X031182Y024412D02*
X031418D01*
X048365Y031517D02*
Y032383D01*
X048935Y031517D02*
Y032383D01*
X048365Y031694D02*
X048935D01*
X048365Y032383D02*
X048935D01*
X048365Y031517D02*
X048935D01*
X048365Y032206D02*
X048935D01*
X034396Y022528D02*
X035104D01*
X034396Y023669D02*
X035104D01*
X034396Y022331D02*
X035104D01*
X034396Y023472D02*
X035104D01*
X034396Y022331D02*
Y023669D01*
X035104Y022331D02*
Y023669D01*
X052015Y023156D02*
X052585D01*
X052015Y022467D02*
X052585D01*
X052015Y023333D02*
X052585D01*
X052015Y022644D02*
X052585D01*
Y022467D02*
Y023333D01*
X052015Y022467D02*
Y023333D01*
X055715Y035356D02*
X056285D01*
X055715Y034667D02*
X056285D01*
X055715Y035533D02*
X056285D01*
X055715Y034844D02*
X056285D01*
X055715Y034667D02*
Y035533D01*
X056285Y034667D02*
Y035533D01*
X039883Y036132D02*
Y036368D01*
X040238Y036132D02*
Y036368D01*
X039883D02*
X040317D01*
X039883Y036132D02*
X040317D01*
Y036368D01*
X039962Y036132D02*
Y036368D01*
X038856Y028963D02*
Y029337D01*
X039417Y028963D02*
Y029337D01*
X038856D02*
X039544D01*
X038856Y028963D02*
X039544D01*
Y029337D01*
X038983Y028963D02*
Y029337D01*
X048067Y028915D02*
X048933D01*
X048067Y029485D02*
X048933D01*
X048244Y028915D02*
Y029485D01*
X048933Y028915D02*
Y029485D01*
X048067Y028915D02*
Y029485D01*
X048756Y028915D02*
Y029485D01*
X028322Y035546D02*
Y036254D01*
X027181Y035546D02*
Y036254D01*
X028519Y035546D02*
Y036254D01*
X027378Y035546D02*
Y036254D01*
X027181D02*
X028519D01*
X027181Y035546D02*
X028519D01*
X044572Y035668D02*
Y036732D01*
X043431Y035668D02*
Y036732D01*
X044769D01*
X043431Y035668D02*
X044769D01*
X043628D02*
Y036732D01*
X044769Y035668D02*
Y036732D01*
X041510Y036590D02*
Y037810D01*
X040290D02*
X041510D01*
X040290Y036590D02*
Y037810D01*
Y036590D02*
X041510D01*
X046601Y026614D02*
X049199D01*
X046601Y028386D02*
X049199D01*
X046601Y026614D02*
Y028386D01*
X049199Y026614D02*
Y028386D01*
M02*
