G04 Generated by CADint PCB *
%FSLAX44Y44*%
%MOMM*%
%IPPOS*%
%ADD14C,0.112500*%
%ADD15C,0.150000*%
%ADD11C,0.152400*%
%ADD12C,0.200000*%
%ADD22C,0.203200*%
%ADD16C,0.225000*%
%ADD10C,0.250000*%
%ADD13C,0.254000*%
%ADD17C,0.262500*%
%ADD18C,1.905000*%
%ADD19C,2.727200*%
%ADD20C,2.997200*%
%ADD21R,1.023000X1.673000*%
%ADD24R,1.270000X1.270000*%
%ADD23R,1.273800X0.723800*%
%ADD25R,1.651000X0.381000*%
%LNSolderMask_Top*%
%LPD*%
D23*
X259000Y182000D03*
D22*
X252631Y178381D02*
X265369D01*
Y185619D01*
X252631D01*
Y178381D01*
D23*
X259000Y198000D03*
D22*
X252631Y194381D02*
X265369D01*
Y201619D01*
X252631D01*
Y194381D01*
D23*
X279000Y182000D03*
D22*
X272631Y178381D02*
X285369D01*
Y185619D01*
X272631D01*
Y178381D01*
D23*
X279000Y198000D03*
D22*
X272631Y194381D02*
X285369D01*
Y201619D01*
X272631D01*
Y194381D01*
D21*
X88000Y189000D03*
D13*
X82885Y180635D02*
X93115D01*
Y197365D01*
X82885D01*
Y180635D01*
D21*
X59000Y189000D03*
D13*
X53885Y180635D02*
X64115D01*
Y197365D01*
X53885D01*
Y180635D01*
D21*
X151000Y189000D03*
D13*
X145885Y180635D02*
X156115D01*
Y197365D01*
X145885D01*
Y180635D01*
D21*
X122000Y189000D03*
D13*
X116885Y180635D02*
X127115D01*
Y197365D01*
X116885D01*
Y180635D01*
D24*
X72000Y218000D03*
D13*
X65650Y211650D02*
X78350D01*
Y224350D01*
X65650D01*
Y211650D01*
D24*
X106290Y218000D03*
D13*
X99940Y211650D02*
X112640D01*
Y224350D01*
X99940D01*
Y211650D01*
D20*
X623800Y20000D03*
X655600D03*
X687400D03*
X719200D03*
X592000D03*
X343550D03*
X375350D03*
X407150D03*
X438950D03*
X311750D03*
X63300D03*
X95100D03*
X126900D03*
X158700D03*
X31500D03*
D18*
X220000Y160200D03*
Y135200D03*
Y109800D03*
Y84400D03*
Y59000D03*
D19*
X626000Y340000D03*
X591000D03*
D20*
X85000Y360000D03*
X543000Y345000D03*
X501000D03*
X459000D03*
X417000D03*
X375000D03*
X333000D03*
X291000D03*
X249000D03*
X207000D03*
X127000Y360000D03*
D24*
X140000Y242710D03*
D13*
X133650Y236360D02*
X146350D01*
Y249060D01*
X133650D01*
Y236360D01*
D24*
X140000Y277000D03*
D13*
X133650Y270650D02*
X146350D01*
Y283350D01*
X133650D01*
Y270650D01*
D24*
X175000Y242710D03*
D13*
X168650Y236360D02*
X181350D01*
Y249060D01*
X168650D01*
Y236360D01*
D24*
X175000Y277000D03*
D13*
X168650Y270650D02*
X181350D01*
Y283350D01*
X168650D01*
Y270650D01*
D25*
X35000Y280000D03*
D13*
X26745Y278095D02*
X43255D01*
Y281905D01*
X26745D01*
Y278095D01*
D25*
X35000Y267300D03*
D13*
X26745Y265395D02*
X43255D01*
Y269205D01*
X26745D01*
Y265395D01*
D25*
X35000Y254600D03*
D13*
X26745Y252695D02*
X43255D01*
Y256505D01*
X26745D01*
Y252695D01*
D25*
X35000Y241900D03*
D13*
X26745Y239995D02*
X43255D01*
Y243805D01*
X26745D01*
Y239995D01*
D25*
X86816Y241900D03*
D13*
X78561Y239995D02*
X95071D01*
Y243805D01*
X78561D01*
Y239995D01*
D25*
X86816Y254600D03*
D13*
X78561Y252695D02*
X95071D01*
Y256505D01*
X78561D01*
Y252695D01*
D25*
X86816Y267300D03*
D13*
X78561Y265395D02*
X95071D01*
Y269205D01*
X78561D01*
Y265395D01*
D25*
X86816Y280000D03*
D13*
X78561Y278095D02*
X95071D01*
Y281905D01*
X78561D01*
Y278095D01*
M02*
