G04 Generated by CADint PCB *
%FSLAX44Y44*%
%MOMM*%
%IPPOS*%
%ADD14C,0.112500*%
%ADD15C,0.150000*%
%ADD11C,0.152400*%
%ADD12C,0.200000*%
%ADD16C,0.225000*%
%ADD10C,0.250000*%
%ADD13C,0.254000*%
%ADD17C,0.262500*%
%LNSilkScreen_Top*%
%LPD*%
D10*
X205000Y45000D02*
X179600D01*
Y172000D01*
X205000D01*
Y45000D01*
D16*
X30000Y355000D02*
Y370000D01*
X37500D01*
X40000Y367500D01*
Y365000D01*
X37500Y362500D01*
X30000D01*
X47500Y355000D02*
X52500D01*
X50000D02*
Y370000D01*
X47500Y367500D01*
D12*
X265500Y190000D02*
X252500D01*
D14*
X252750Y205250D02*
Y212750D01*
X256500D01*
X257750Y211500D01*
Y210250D01*
X256500Y209000D01*
X252750D01*
X254000D02*
X257750Y205250D01*
X265250Y207750D02*
X260250D01*
Y209000D01*
X264000Y212750D01*
Y205250D01*
D12*
X285500Y190000D02*
X272500D01*
D14*
X272750Y205250D02*
Y212750D01*
X276500D01*
X277750Y211500D01*
Y210250D01*
X276500Y209000D01*
X272750D01*
X274000D02*
X277750Y205250D01*
X280250Y211500D02*
X281500Y212750D01*
X284000D01*
X285250Y211500D01*
Y210250D01*
X284000Y209000D01*
X282750D01*
X284000D02*
X285250Y207750D01*
Y206500D01*
X284000Y205250D01*
X281500D01*
X280250Y206500D01*
D15*
X461667Y136000D02*
X465000D01*
X463334D02*
Y146000D01*
X461667Y144333D01*
X471667Y136000D02*
Y139333D01*
X476668Y144333D01*
Y146000D01*
X470001D01*
Y144333D01*
X481668Y136000D02*
Y137667D01*
X483335D01*
Y136000D01*
X481668D01*
X490002Y137667D02*
Y144333D01*
X491668Y146000D01*
X495002D01*
X496669Y144333D01*
Y137667D01*
X495002Y136000D01*
X491668D01*
X490002Y137667D01*
X496669Y144333D01*
X500002D02*
X501669Y146000D01*
X505002D01*
X506669Y144333D01*
Y142667D01*
X505002Y141000D01*
X503336D01*
X505002D02*
X506669Y139333D01*
Y137667D01*
X505002Y136000D01*
X501669D01*
X500002Y137667D01*
X511669Y136000D02*
Y137667D01*
X513336D01*
Y136000D01*
X511669D01*
X520003Y144333D02*
X521670Y146000D01*
X525003D01*
X526670Y144333D01*
Y142667D01*
X525003Y141000D01*
X521670D01*
X520003Y139333D01*
Y136000D01*
X526670D01*
X530004Y137667D02*
Y144333D01*
X531670Y146000D01*
X535004D01*
X536671Y144333D01*
Y137667D01*
X535004Y136000D01*
X531670D01*
X530004Y137667D01*
X536671Y144333D01*
X541671Y136000D02*
X545004D01*
X543338D02*
Y146000D01*
X541671Y144333D01*
X550005D02*
X551671Y146000D01*
X555005D01*
X556672Y144333D01*
Y142667D01*
X555005Y141000D01*
X553338D01*
X555005D02*
X556672Y139333D01*
Y137667D01*
X555005Y136000D01*
X551671D01*
X550005Y137667D01*
X573339Y136000D02*
Y146000D01*
X570006D02*
X576673D01*
X580006Y137667D02*
X581673Y136000D01*
X585006D01*
X586673Y137667D01*
Y139333D01*
X585006Y141000D01*
X581673D01*
X580006Y142667D01*
Y144333D01*
X581673Y146000D01*
X585006D01*
X586673Y144333D01*
X460000Y157667D02*
Y164333D01*
X461667Y166000D01*
X465000D01*
X466667Y164333D01*
Y157667D01*
X465000Y156000D01*
X461667D01*
X460000Y157667D01*
X470001Y152667D02*
Y162667D01*
Y161000D02*
X471667Y162667D01*
X475001D01*
X476668Y161000D01*
Y157667D01*
X475001Y156000D01*
X473334D01*
X470001Y159333D01*
X480001D02*
X486668D01*
Y161000D01*
X485001Y162667D01*
X481668D01*
X480001Y161000D01*
Y157667D01*
X481668Y156000D01*
X485001D01*
X490002D02*
Y162667D01*
Y159333D02*
X493335Y162667D01*
X495002D01*
X496669Y161000D01*
Y156000D01*
X500002D02*
Y166000D01*
X505002D01*
X506669Y164333D01*
Y162667D01*
X505002Y161000D01*
X500002D01*
X501669D02*
X506669Y156000D01*
X510003Y157667D02*
Y164333D01*
X511669Y166000D01*
X515003D01*
X516670Y164333D01*
Y157667D01*
X515003Y156000D01*
X511669D01*
X510003Y157667D01*
X520003Y166000D02*
Y161000D01*
X523337Y157667D01*
Y156000D01*
Y157667D02*
X526670Y161000D01*
Y166000D01*
X540004Y156000D02*
Y166000D01*
X545004D01*
X546671Y164333D01*
Y162667D01*
X545004Y161000D01*
X540004D01*
X550005Y157667D02*
Y161000D01*
X551671Y162667D01*
X555005D01*
X556672Y161000D01*
Y157667D01*
X555005Y156000D01*
X551671D01*
X550005Y157667D01*
X560005Y162667D02*
Y157667D01*
X561672Y156000D01*
X563339Y157667D01*
Y159333D01*
Y157667D02*
X565005Y156000D01*
X566672Y157667D01*
Y162667D01*
X570006Y159333D02*
X576673D01*
Y161000D01*
X575006Y162667D01*
X571672D01*
X570006Y161000D01*
Y157667D01*
X571672Y156000D01*
X575006D01*
X580006D02*
Y162667D01*
Y159333D02*
X583340Y162667D01*
X585006D01*
X586673Y161000D01*
X600007Y156000D02*
X605007D01*
X606674Y157667D01*
Y159333D01*
X605007Y161000D01*
X601674D01*
X605007D02*
X606674Y162667D01*
Y164333D01*
X605007Y166000D01*
X600007D01*
X601674D02*
Y156000D01*
X610008Y157667D02*
Y161000D01*
X611674Y162667D01*
X615008D01*
X616675Y161000D01*
Y157667D01*
X615008Y156000D01*
X611674D01*
X610008Y157667D01*
X621675Y162667D02*
X625008D01*
X626675Y161000D01*
Y156000D01*
Y157667D02*
X625008Y156000D01*
X621675D01*
X620008Y157667D01*
X621675Y159333D01*
X626675D01*
X630009Y156000D02*
Y162667D01*
Y159333D02*
X633342Y162667D01*
X635009D01*
X636676Y161000D01*
X646676Y159333D02*
X643343Y156000D01*
X641676D01*
X640009Y157667D01*
Y161000D01*
X641676Y162667D01*
X645009D01*
X646676Y161000D01*
X645009Y166000D02*
X646676D01*
Y156000D01*
X660010D02*
Y166000D01*
X665010D01*
X666677Y164333D01*
Y162667D01*
X665010Y161000D01*
X660010D01*
X661677D02*
X666677Y156000D01*
X670011Y159333D02*
X676678D01*
Y161000D01*
X675011Y162667D01*
X671677D01*
X670011Y161000D01*
Y157667D01*
X671677Y156000D01*
X675011D01*
X680011Y162667D02*
Y159333D01*
X683345Y156000D01*
X686678Y159333D01*
Y162667D01*
X691678Y156000D02*
Y157667D01*
X693345D01*
Y156000D01*
X691678D01*
X701679D02*
X705012D01*
X703346D02*
Y166000D01*
X701679Y164333D01*
D16*
X580000Y255500D02*
X577500Y253000D01*
X572500D01*
X570000Y255500D01*
Y265500D01*
X572500Y268000D01*
X577500D01*
X580000Y265500D01*
X585000Y253000D02*
Y263000D01*
X590000Y268000D01*
X595000Y263000D01*
Y253000D01*
Y258000D02*
X585000D01*
X600000Y253000D02*
Y268000D01*
X607500D01*
X610000Y265500D01*
Y263000D01*
X607500Y260500D01*
X600000D01*
X625000Y253000D02*
X615000D01*
Y268000D01*
X625000D01*
X615000Y260500D02*
X622500D01*
X630000D02*
X640000D01*
X645000Y253000D02*
Y268000D01*
X652500D01*
X655000Y265500D01*
Y263000D01*
X652500Y260500D01*
X645000D01*
X660000Y268000D02*
Y253000D01*
X665000Y258000D01*
Y260500D01*
Y258000D02*
X670000Y253000D01*
Y268000D01*
X675000Y253000D02*
Y268000D01*
X682500D01*
X685000Y265500D01*
Y263000D01*
X682500Y260500D01*
X675000D01*
X677500D02*
X685000Y253000D01*
X622000Y284500D02*
X632000D01*
X587000D02*
X597000D01*
X592000Y289500D02*
Y279500D01*
X235000Y67000D02*
Y59500D01*
X240000Y54500D01*
Y52000D01*
Y54500D02*
X245000Y59500D01*
Y67000D01*
X250000Y59500D02*
X260000D01*
X275000Y64500D02*
X272500Y67000D01*
X267500D01*
X265000Y64500D01*
Y54500D01*
X267500Y52000D01*
X275000D01*
Y57000D01*
X272500D01*
X280000Y52000D02*
Y67000D01*
X290000Y57000D01*
Y67000D02*
Y52000D01*
X295000D02*
X302500D01*
X305000Y54500D01*
Y64500D01*
X302500Y67000D01*
X295000D01*
X297500D02*
Y52000D01*
X235000Y93000D02*
Y85500D01*
X240000Y80500D01*
Y78000D01*
Y80500D02*
X245000Y85500D01*
Y93000D01*
X250000Y85500D02*
X260000D01*
X265000Y78000D02*
X272500D01*
X275000Y80500D01*
X272500Y83000D01*
X267500D01*
X265000Y85500D01*
X267500Y88000D01*
X275000D01*
X280000Y83000D02*
X290000D01*
Y85500D01*
X287500Y88000D01*
X282500D01*
X280000Y85500D01*
Y80500D01*
X282500Y78000D01*
X287500D01*
X295000D02*
Y88000D01*
Y83000D02*
X300000Y88000D01*
X302500D01*
X305000Y85500D01*
Y78000D01*
X310000D02*
X317500D01*
X320000Y80500D01*
X317500Y83000D01*
X312500D01*
X310000Y85500D01*
X312500Y88000D01*
X320000D01*
X325000Y83000D02*
X335000D01*
Y85500D01*
X332500Y88000D01*
X327500D01*
X325000Y85500D01*
Y80500D01*
X327500Y78000D01*
X332500D01*
X235000Y110500D02*
X245000D01*
X240000Y115500D02*
Y105500D01*
X250000D02*
X252500Y103000D01*
X257500D01*
X260000Y105500D01*
Y110500D01*
X257500Y113000D01*
X250000D01*
Y118000D01*
X260000D01*
X265000D02*
Y110500D01*
X270000Y105500D01*
Y103000D01*
Y105500D02*
X275000Y110500D01*
Y118000D01*
X237500Y128000D02*
X242500D01*
X240000D02*
Y143000D01*
X237500D02*
X242500D01*
X250000Y135500D02*
X260000D01*
X265000Y128000D02*
X272500D01*
X275000Y130500D01*
X272500Y133000D01*
X267500D01*
X265000Y135500D01*
X267500Y138000D01*
X275000D01*
X280000Y133000D02*
X290000D01*
Y135500D01*
X287500Y138000D01*
X282500D01*
X280000Y135500D01*
Y130500D01*
X282500Y128000D01*
X287500D01*
X295000D02*
Y138000D01*
Y133000D02*
X300000Y138000D01*
X302500D01*
X305000Y135500D01*
Y128000D01*
X310000D02*
X317500D01*
X320000Y130500D01*
X317500Y133000D01*
X312500D01*
X310000Y135500D01*
X312500Y138000D01*
X320000D01*
X325000Y133000D02*
X335000D01*
Y135500D01*
X332500Y138000D01*
X327500D01*
X325000Y135500D01*
Y130500D01*
X327500Y128000D01*
X332500D01*
X237500Y153000D02*
X242500D01*
X240000D02*
Y168000D01*
X237500D02*
X242500D01*
X250000Y160500D02*
X260000D01*
X275000Y165500D02*
X272500Y168000D01*
X267500D01*
X265000Y165500D01*
Y155500D01*
X267500Y153000D01*
X275000D01*
Y158000D01*
X272500D01*
X280000Y153000D02*
Y168000D01*
X290000Y158000D01*
Y168000D02*
Y153000D01*
X295000D02*
X302500D01*
X305000Y155500D01*
Y165500D01*
X302500Y168000D01*
X295000D01*
X297500D02*
Y153000D01*
D12*
X68500Y198000D02*
X78500D01*
Y180000D02*
X68500D01*
D14*
X36750Y177250D02*
Y184750D01*
X40500D01*
X41750Y183500D01*
Y182250D01*
X40500Y181000D01*
X36750D01*
X38000D02*
X41750Y177250D01*
X45500D02*
X48000D01*
X46750D02*
Y184750D01*
X45500Y183500D01*
D12*
X131500Y198000D02*
X141500D01*
Y180000D02*
X131500D01*
D14*
X99750Y177250D02*
Y184750D01*
X103500D01*
X104750Y183500D01*
Y182250D01*
X103500Y181000D01*
X99750D01*
X101000D02*
X104750Y177250D01*
X107250Y183500D02*
X108500Y184750D01*
X111000D01*
X112250Y183500D01*
Y182250D01*
X111000Y181000D01*
X108500D01*
X107250Y179750D01*
Y177250D01*
X112250D01*
D13*
X98670Y230700D02*
X119117D01*
X59173Y205300D02*
X79620D01*
X119117Y230700D02*
Y205300D01*
X59173Y230700D02*
Y205300D01*
X119117D02*
X98670D01*
X79620Y230700D02*
X59173D01*
D15*
X44666Y215667D02*
X43000Y214000D01*
X39667D01*
X38000Y215667D01*
Y222333D01*
X39667Y224000D01*
X43000D01*
X44666Y222333D01*
X47999Y217333D02*
X49666Y219000D01*
X52999D01*
X54665Y217333D01*
Y215667D01*
X52999Y214000D01*
X49666D01*
X47999Y215667D01*
Y220667D01*
X51332Y224000D01*
X52999D01*
D16*
X590200Y48800D02*
X600200D01*
X595200Y53800D02*
Y43800D01*
X620200Y41300D02*
Y51300D01*
X625200Y56300D01*
X630200Y51300D01*
Y41300D01*
Y46300D02*
X620200D01*
X650200Y41300D02*
X657700D01*
X660200Y43800D01*
Y46300D01*
X657700Y48800D01*
X652700D01*
X657700D02*
X660200Y51300D01*
Y53800D01*
X657700Y56300D01*
X650200D01*
X652700D02*
Y41300D01*
X690200Y43800D02*
X687700Y41300D01*
X682700D01*
X680200Y43800D01*
Y53800D01*
X682700Y56300D01*
X687700D01*
X690200Y53800D01*
X710200Y48800D02*
X720200D01*
X637000Y64000D02*
X627000D01*
Y79000D01*
X637000D01*
X627000Y71500D02*
X634500D01*
X642000Y66500D02*
X644500Y64000D01*
X649500D01*
X652000Y66500D01*
Y69000D01*
X649500Y71500D01*
X644500D01*
X642000Y74000D01*
Y76500D01*
X644500Y79000D01*
X649500D01*
X652000Y76500D01*
X667000Y66500D02*
X664500Y64000D01*
X659500D01*
X657000Y66500D01*
Y76500D01*
X659500Y79000D01*
X664500D01*
X667000Y76500D01*
X672000D02*
X674500Y79000D01*
X679500D01*
X682000Y76500D01*
Y74000D01*
X679500Y71500D01*
X677000D01*
X679500D02*
X682000Y69000D01*
Y66500D01*
X679500Y64000D01*
X674500D01*
X672000Y66500D01*
X309950Y48800D02*
X319950D01*
X314950Y53800D02*
Y43800D01*
X339950Y41300D02*
Y51300D01*
X344950Y56300D01*
X349950Y51300D01*
Y41300D01*
Y46300D02*
X339950D01*
X369950Y41300D02*
X377450D01*
X379950Y43800D01*
Y46300D01*
X377450Y48800D01*
X372450D01*
X377450D02*
X379950Y51300D01*
Y53800D01*
X377450Y56300D01*
X369950D01*
X372450D02*
Y41300D01*
X409950Y43800D02*
X407450Y41300D01*
X402450D01*
X399950Y43800D01*
Y53800D01*
X402450Y56300D01*
X407450D01*
X409950Y53800D01*
X429950Y48800D02*
X439950D01*
X358000Y64000D02*
X348000D01*
Y79000D01*
X358000D01*
X348000Y71500D02*
X355500D01*
X363000Y66500D02*
X365500Y64000D01*
X370500D01*
X373000Y66500D01*
Y69000D01*
X370500Y71500D01*
X365500D01*
X363000Y74000D01*
Y76500D01*
X365500Y79000D01*
X370500D01*
X373000Y76500D01*
X388000Y66500D02*
X385500Y64000D01*
X380500D01*
X378000Y66500D01*
Y76500D01*
X380500Y79000D01*
X385500D01*
X388000Y76500D01*
X393000D02*
X395500Y79000D01*
X400500D01*
X403000Y76500D01*
Y74000D01*
X400500Y71500D01*
X395500D01*
X393000Y69000D01*
Y64000D01*
X403000D01*
X29700Y48800D02*
X39700D01*
X34700Y53800D02*
Y43800D01*
X59700Y41300D02*
Y51300D01*
X64700Y56300D01*
X69700Y51300D01*
Y41300D01*
Y46300D02*
X59700D01*
X89700Y41300D02*
X97200D01*
X99700Y43800D01*
Y46300D01*
X97200Y48800D01*
X92200D01*
X97200D02*
X99700Y51300D01*
Y53800D01*
X97200Y56300D01*
X89700D01*
X92200D02*
Y41300D01*
X129700Y43800D02*
X127200Y41300D01*
X122200D01*
X119700Y43800D01*
Y53800D01*
X122200Y56300D01*
X127200D01*
X129700Y53800D01*
X149700Y48800D02*
X159700D01*
X76000Y65000D02*
X66000D01*
Y80000D01*
X76000D01*
X66000Y72500D02*
X73500D01*
X81000Y67500D02*
X83500Y65000D01*
X88500D01*
X91000Y67500D01*
Y70000D01*
X88500Y72500D01*
X83500D01*
X81000Y75000D01*
Y77500D01*
X83500Y80000D01*
X88500D01*
X91000Y77500D01*
X106000Y67500D02*
X103500Y65000D01*
X98500D01*
X96000Y67500D01*
Y77500D01*
X98500Y80000D01*
X103500D01*
X106000Y77500D01*
X113500Y65000D02*
X118500D01*
X116000D02*
Y80000D01*
X113500Y77500D01*
D10*
X230000Y45200D02*
X209600D01*
Y172200D01*
X230000D01*
Y45200D01*
D17*
X207418Y21000D02*
Y38500D01*
X216168D01*
X219084Y35583D01*
Y32667D01*
X216168Y29750D01*
X207418D01*
X224917Y35583D02*
X227834Y38500D01*
X233667D01*
X236583Y35583D01*
Y32667D01*
X233667Y29750D01*
X230750D01*
X233667D02*
X236583Y26833D01*
Y23917D01*
X233667Y21000D01*
X227834D01*
X224917Y23917D01*
D11*
X633500Y302500D02*
X646000Y315000D01*
X571000Y377500D02*
X646000D01*
X571000Y302500D02*
Y377500D01*
X646000Y302500D02*
X571000D01*
X646000Y377500D02*
Y302500D01*
D15*
X650500Y361500D02*
Y376500D01*
X658000D01*
X660500Y374000D01*
Y371500D01*
X658000Y369000D01*
X650500D01*
X665500Y374000D02*
X668000Y376500D01*
X673000D01*
X675500Y374000D01*
Y371500D01*
X673000Y369000D01*
X668000D01*
X665500Y366500D01*
Y361500D01*
X675500D01*
D16*
X64000Y304000D02*
Y319000D01*
X71500D01*
X74000Y316500D01*
Y314000D01*
X71500Y311500D01*
X64000D01*
X79000Y319000D02*
Y304000D01*
X84000Y309000D01*
Y311500D01*
Y309000D02*
X89000Y304000D01*
Y319000D01*
X94000Y304000D02*
Y319000D01*
X101500D01*
X104000Y316500D01*
Y314000D01*
X101500Y311500D01*
X94000D01*
X96500D02*
X104000Y304000D01*
X109000Y311500D02*
X119000D01*
X126500Y304000D02*
X131500D01*
X129000D02*
Y314000D01*
X126500D01*
X129000Y319000D02*
Y321500D01*
X139000Y304000D02*
Y314000D01*
Y309000D02*
X144000Y314000D01*
X146500D01*
X149000Y311500D01*
Y304000D01*
X80000Y332500D02*
X90000D01*
X85000Y337500D02*
Y327500D01*
X531000Y318500D02*
X533500Y321000D01*
X538500D01*
X541000Y318500D01*
Y316000D01*
X538500Y313500D01*
X536000D01*
X538500D02*
X541000Y311000D01*
Y308500D01*
X538500Y306000D01*
X533500D01*
X531000Y308500D01*
X556000D02*
X553500Y306000D01*
X548500D01*
X546000Y308500D01*
Y318500D01*
X548500Y321000D01*
X553500D01*
X556000Y318500D01*
X489000D02*
X491500Y321000D01*
X496500D01*
X499000Y318500D01*
Y316000D01*
X496500Y313500D01*
X494000D01*
X496500D02*
X499000Y311000D01*
Y308500D01*
X496500Y306000D01*
X491500D01*
X489000Y308500D01*
X504000Y306000D02*
X511500D01*
X514000Y308500D01*
Y311000D01*
X511500Y313500D01*
X506500D01*
X511500D02*
X514000Y316000D01*
Y318500D01*
X511500Y321000D01*
X504000D01*
X506500D02*
Y306000D01*
X475000Y287500D02*
X477500Y285000D01*
X482500D01*
X485000Y287500D01*
Y290000D01*
X482500Y292500D01*
X477500D01*
X475000Y295000D01*
Y297500D01*
X477500Y300000D01*
X482500D01*
X485000Y297500D01*
X495000Y285000D02*
Y300000D01*
X490000D02*
X500000D01*
X505000Y285000D02*
Y295000D01*
X510000Y300000D01*
X515000Y295000D01*
Y285000D01*
Y290000D02*
X505000D01*
X520000Y285000D02*
Y300000D01*
X527500D01*
X530000Y297500D01*
Y295000D01*
X527500Y292500D01*
X520000D01*
X522500D02*
X530000Y285000D01*
X447000Y317500D02*
X449500Y320000D01*
X454500D01*
X457000Y317500D01*
Y315000D01*
X454500Y312500D01*
X452000D01*
X454500D02*
X457000Y310000D01*
Y307500D01*
X454500Y305000D01*
X449500D01*
X447000Y307500D01*
X462000Y305000D02*
Y315000D01*
X467000Y320000D01*
X472000Y315000D01*
Y305000D01*
Y310000D02*
X462000D01*
X405000Y317500D02*
X407500Y320000D01*
X412500D01*
X415000Y317500D01*
Y315000D01*
X412500Y312500D01*
X407500D01*
X405000Y310000D01*
Y305000D01*
X415000D01*
X430000Y307500D02*
X427500Y305000D01*
X422500D01*
X420000Y307500D01*
Y317500D01*
X422500Y320000D01*
X427500D01*
X430000Y317500D01*
X363000D02*
X365500Y320000D01*
X370500D01*
X373000Y317500D01*
Y315000D01*
X370500Y312500D01*
X365500D01*
X363000Y310000D01*
Y305000D01*
X373000D01*
X378000D02*
X385500D01*
X388000Y307500D01*
Y310000D01*
X385500Y312500D01*
X380500D01*
X385500D02*
X388000Y315000D01*
Y317500D01*
X385500Y320000D01*
X378000D01*
X380500D02*
Y305000D01*
X351000Y300000D02*
Y292500D01*
X356000Y287500D01*
Y285000D01*
Y287500D02*
X361000Y292500D01*
Y300000D01*
X376000Y285000D02*
X366000D01*
Y300000D01*
X376000D01*
X366000Y292500D02*
X373500D01*
X381000Y285000D02*
Y300000D01*
X388500D01*
X391000Y297500D01*
Y295000D01*
X388500Y292500D01*
X381000D01*
X383500D02*
X391000Y285000D01*
X401000D02*
Y300000D01*
X396000D02*
X406000D01*
X321000Y317500D02*
X323500Y320000D01*
X328500D01*
X331000Y317500D01*
Y315000D01*
X328500Y312500D01*
X323500D01*
X321000Y310000D01*
Y305000D01*
X331000D01*
X336000D02*
Y315000D01*
X341000Y320000D01*
X346000Y315000D01*
Y305000D01*
Y310000D02*
X336000D01*
X281500Y305000D02*
X286500D01*
X284000D02*
Y320000D01*
X281500Y317500D01*
X304000Y307500D02*
X301500Y305000D01*
X296500D01*
X294000Y307500D01*
Y317500D01*
X296500Y320000D01*
X301500D01*
X304000Y317500D01*
X239500Y305000D02*
X244500D01*
X242000D02*
Y320000D01*
X239500Y317500D01*
X252000Y305000D02*
X259500D01*
X262000Y307500D01*
Y310000D01*
X259500Y312500D01*
X254500D01*
X259500D02*
X262000Y315000D01*
Y317500D01*
X259500Y320000D01*
X252000D01*
X254500D02*
Y305000D01*
X223000Y285000D02*
Y300000D01*
X230500D01*
X233000Y297500D01*
Y295000D01*
X230500Y292500D01*
X223000D01*
X238000Y287500D02*
Y297500D01*
X240500Y300000D01*
X245500D01*
X248000Y297500D01*
Y287500D01*
X245500Y285000D01*
X240500D01*
X238000Y287500D01*
X253000Y285000D02*
Y300000D01*
X260500D01*
X263000Y297500D01*
Y295000D01*
X260500Y292500D01*
X253000D01*
X255500D02*
X263000Y285000D01*
X273000D02*
Y300000D01*
X268000D02*
X278000D01*
X197500Y305000D02*
X202500D01*
X200000D02*
Y320000D01*
X197500Y317500D01*
X210000Y305000D02*
Y315000D01*
X215000Y320000D01*
X220000Y315000D01*
Y305000D01*
Y310000D02*
X210000D01*
X122000Y332500D02*
X132000D01*
D13*
X127300Y269380D02*
Y289827D01*
X152700Y229883D02*
Y250330D01*
X127300Y289827D02*
X152700D01*
X127300Y229883D02*
X152700D01*
Y289827D02*
Y269380D01*
X127300Y250330D02*
Y229883D01*
D15*
X139666Y216667D02*
X138000Y215000D01*
X134667D01*
X133000Y216667D01*
Y223333D01*
X134667Y225000D01*
X138000D01*
X139666Y223333D01*
X144666Y215000D02*
X147999D01*
X146332D02*
Y225000D01*
X144666Y223333D01*
D13*
X162300Y269380D02*
Y289827D01*
X187700Y229883D02*
Y250330D01*
X162300Y289827D02*
X187700D01*
X162300Y229883D02*
X187700D01*
Y289827D02*
Y269380D01*
X162300Y250330D02*
Y229883D01*
D15*
X174666Y216667D02*
X173000Y215000D01*
X169667D01*
X168000Y216667D01*
Y223333D01*
X169667Y225000D01*
X173000D01*
X174666Y223333D01*
X177999Y216667D02*
X179666Y215000D01*
X182999D01*
X184665Y216667D01*
Y220000D01*
X182999Y221667D01*
X177999D01*
Y225000D01*
X184665D01*
D13*
X48208Y286350D02*
Y235550D01*
X48208Y235550D02*
X73608D01*
X54558Y286350D02*
Y235550D01*
X73608D02*
Y286350D01*
D10*
X36778Y287620D02*
X36681Y288106D01*
X36406Y288518D01*
X35994Y288793D01*
X35508Y288890D01*
X35022Y288793D01*
X34610Y288518D01*
X34335Y288106D01*
X34238Y287620D01*
X34335Y287134D01*
X34610Y286722D01*
X35022Y286447D01*
X35508Y286350D01*
X35994Y286447D01*
X36406Y286722D01*
X36681Y287134D01*
X36778Y287620D01*
D13*
X73608Y286350D02*
X48208D01*
D15*
X5667Y291000D02*
X9000D01*
X7333D02*
Y301000D01*
X5667D02*
X9000D01*
X20665Y292667D02*
X18999Y291000D01*
X15666D01*
X13999Y292667D01*
Y299333D01*
X15666Y301000D01*
X18999D01*
X20665Y299333D01*
X25665Y291000D02*
X28998D01*
X27331D02*
Y301000D01*
X25665Y299333D01*
M02*
