G75*
G70*
%OFA0B0*%
%FSLAX24Y24*%
%IPPOS*%
%LPD*%
%AMOC8*
5,1,8,0,0,1.08239X$1,22.5*
%
%ADD10C,0.0000*%
%ADD11C,0.0040*%
%ADD12R,0.1750X0.4000*%
%ADD13C,0.0030*%
%ADD14C,0.0050*%
%ADD15C,0.0060*%
%ADD16C,0.0100*%
%ADD17C,0.0080*%
%ADD18R,0.0500X0.0700*%
%ADD19R,0.0492X0.2441*%
%ADD20C,0.0217*%
%ADD21R,0.0827X0.0118*%
D10*
X000550Y000550D02*
X000550Y030546D01*
X033170Y030546D01*
X033170Y000550D01*
X000550Y000550D01*
X001170Y001800D02*
X001172Y001850D01*
X001178Y001900D01*
X001188Y001949D01*
X001202Y001997D01*
X001219Y002044D01*
X001240Y002089D01*
X001265Y002133D01*
X001293Y002174D01*
X001325Y002213D01*
X001359Y002250D01*
X001396Y002284D01*
X001436Y002314D01*
X001478Y002341D01*
X001522Y002365D01*
X001568Y002386D01*
X001615Y002402D01*
X001663Y002415D01*
X001713Y002424D01*
X001762Y002429D01*
X001813Y002430D01*
X001863Y002427D01*
X001912Y002420D01*
X001961Y002409D01*
X002009Y002394D01*
X002055Y002376D01*
X002100Y002354D01*
X002143Y002328D01*
X002184Y002299D01*
X002223Y002267D01*
X002259Y002232D01*
X002291Y002194D01*
X002321Y002154D01*
X002348Y002111D01*
X002371Y002067D01*
X002390Y002021D01*
X002406Y001973D01*
X002418Y001924D01*
X002426Y001875D01*
X002430Y001825D01*
X002430Y001775D01*
X002426Y001725D01*
X002418Y001676D01*
X002406Y001627D01*
X002390Y001579D01*
X002371Y001533D01*
X002348Y001489D01*
X002321Y001446D01*
X002291Y001406D01*
X002259Y001368D01*
X002223Y001333D01*
X002184Y001301D01*
X002143Y001272D01*
X002100Y001246D01*
X002055Y001224D01*
X002009Y001206D01*
X001961Y001191D01*
X001912Y001180D01*
X001863Y001173D01*
X001813Y001170D01*
X001762Y001171D01*
X001713Y001176D01*
X001663Y001185D01*
X001615Y001198D01*
X001568Y001214D01*
X001522Y001235D01*
X001478Y001259D01*
X001436Y001286D01*
X001396Y001316D01*
X001359Y001350D01*
X001325Y001387D01*
X001293Y001426D01*
X001265Y001467D01*
X001240Y001511D01*
X001219Y001556D01*
X001202Y001603D01*
X001188Y001651D01*
X001178Y001700D01*
X001172Y001750D01*
X001170Y001800D01*
X008580Y010200D02*
X008582Y010248D01*
X008588Y010296D01*
X008598Y010343D01*
X008611Y010389D01*
X008628Y010434D01*
X008649Y010477D01*
X008674Y010519D01*
X008701Y010558D01*
X008732Y010595D01*
X008766Y010630D01*
X008802Y010661D01*
X008841Y010690D01*
X008882Y010715D01*
X008925Y010737D01*
X008969Y010755D01*
X009015Y010769D01*
X009062Y010780D01*
X009110Y010787D01*
X009158Y010790D01*
X009206Y010789D01*
X009254Y010784D01*
X009301Y010775D01*
X009348Y010763D01*
X009393Y010746D01*
X009437Y010726D01*
X009479Y010703D01*
X009519Y010676D01*
X009556Y010646D01*
X009591Y010613D01*
X009624Y010577D01*
X009653Y010539D01*
X009679Y010498D01*
X009702Y010456D01*
X009721Y010412D01*
X009736Y010366D01*
X009748Y010320D01*
X009756Y010272D01*
X009760Y010224D01*
X009760Y010176D01*
X009756Y010128D01*
X009748Y010080D01*
X009736Y010034D01*
X009721Y009988D01*
X009702Y009944D01*
X009679Y009902D01*
X009653Y009861D01*
X009624Y009823D01*
X009591Y009787D01*
X009556Y009754D01*
X009519Y009724D01*
X009479Y009697D01*
X009437Y009674D01*
X009393Y009654D01*
X009348Y009637D01*
X009301Y009625D01*
X009254Y009616D01*
X009206Y009611D01*
X009158Y009610D01*
X009110Y009613D01*
X009062Y009620D01*
X009015Y009631D01*
X008969Y009645D01*
X008925Y009663D01*
X008882Y009685D01*
X008841Y009710D01*
X008802Y009739D01*
X008766Y009770D01*
X008732Y009805D01*
X008701Y009842D01*
X008674Y009881D01*
X008649Y009923D01*
X008628Y009966D01*
X008611Y010011D01*
X008598Y010057D01*
X008588Y010104D01*
X008582Y010152D01*
X008580Y010200D01*
X008580Y023400D02*
X008582Y023448D01*
X008588Y023496D01*
X008598Y023543D01*
X008611Y023589D01*
X008628Y023634D01*
X008649Y023677D01*
X008674Y023719D01*
X008701Y023758D01*
X008732Y023795D01*
X008766Y023830D01*
X008802Y023861D01*
X008841Y023890D01*
X008882Y023915D01*
X008925Y023937D01*
X008969Y023955D01*
X009015Y023969D01*
X009062Y023980D01*
X009110Y023987D01*
X009158Y023990D01*
X009206Y023989D01*
X009254Y023984D01*
X009301Y023975D01*
X009348Y023963D01*
X009393Y023946D01*
X009437Y023926D01*
X009479Y023903D01*
X009519Y023876D01*
X009556Y023846D01*
X009591Y023813D01*
X009624Y023777D01*
X009653Y023739D01*
X009679Y023698D01*
X009702Y023656D01*
X009721Y023612D01*
X009736Y023566D01*
X009748Y023520D01*
X009756Y023472D01*
X009760Y023424D01*
X009760Y023376D01*
X009756Y023328D01*
X009748Y023280D01*
X009736Y023234D01*
X009721Y023188D01*
X009702Y023144D01*
X009679Y023102D01*
X009653Y023061D01*
X009624Y023023D01*
X009591Y022987D01*
X009556Y022954D01*
X009519Y022924D01*
X009479Y022897D01*
X009437Y022874D01*
X009393Y022854D01*
X009348Y022837D01*
X009301Y022825D01*
X009254Y022816D01*
X009206Y022811D01*
X009158Y022810D01*
X009110Y022813D01*
X009062Y022820D01*
X009015Y022831D01*
X008969Y022845D01*
X008925Y022863D01*
X008882Y022885D01*
X008841Y022910D01*
X008802Y022939D01*
X008766Y022970D01*
X008732Y023005D01*
X008701Y023042D01*
X008674Y023081D01*
X008649Y023123D01*
X008628Y023166D01*
X008611Y023211D01*
X008598Y023257D01*
X008588Y023304D01*
X008582Y023352D01*
X008580Y023400D01*
X001170Y029300D02*
X001172Y029350D01*
X001178Y029400D01*
X001188Y029449D01*
X001202Y029497D01*
X001219Y029544D01*
X001240Y029589D01*
X001265Y029633D01*
X001293Y029674D01*
X001325Y029713D01*
X001359Y029750D01*
X001396Y029784D01*
X001436Y029814D01*
X001478Y029841D01*
X001522Y029865D01*
X001568Y029886D01*
X001615Y029902D01*
X001663Y029915D01*
X001713Y029924D01*
X001762Y029929D01*
X001813Y029930D01*
X001863Y029927D01*
X001912Y029920D01*
X001961Y029909D01*
X002009Y029894D01*
X002055Y029876D01*
X002100Y029854D01*
X002143Y029828D01*
X002184Y029799D01*
X002223Y029767D01*
X002259Y029732D01*
X002291Y029694D01*
X002321Y029654D01*
X002348Y029611D01*
X002371Y029567D01*
X002390Y029521D01*
X002406Y029473D01*
X002418Y029424D01*
X002426Y029375D01*
X002430Y029325D01*
X002430Y029275D01*
X002426Y029225D01*
X002418Y029176D01*
X002406Y029127D01*
X002390Y029079D01*
X002371Y029033D01*
X002348Y028989D01*
X002321Y028946D01*
X002291Y028906D01*
X002259Y028868D01*
X002223Y028833D01*
X002184Y028801D01*
X002143Y028772D01*
X002100Y028746D01*
X002055Y028724D01*
X002009Y028706D01*
X001961Y028691D01*
X001912Y028680D01*
X001863Y028673D01*
X001813Y028670D01*
X001762Y028671D01*
X001713Y028676D01*
X001663Y028685D01*
X001615Y028698D01*
X001568Y028714D01*
X001522Y028735D01*
X001478Y028759D01*
X001436Y028786D01*
X001396Y028816D01*
X001359Y028850D01*
X001325Y028887D01*
X001293Y028926D01*
X001265Y028967D01*
X001240Y029011D01*
X001219Y029056D01*
X001202Y029103D01*
X001188Y029151D01*
X001178Y029200D01*
X001172Y029250D01*
X001170Y029300D01*
X031170Y029300D02*
X031172Y029350D01*
X031178Y029400D01*
X031188Y029449D01*
X031202Y029497D01*
X031219Y029544D01*
X031240Y029589D01*
X031265Y029633D01*
X031293Y029674D01*
X031325Y029713D01*
X031359Y029750D01*
X031396Y029784D01*
X031436Y029814D01*
X031478Y029841D01*
X031522Y029865D01*
X031568Y029886D01*
X031615Y029902D01*
X031663Y029915D01*
X031713Y029924D01*
X031762Y029929D01*
X031813Y029930D01*
X031863Y029927D01*
X031912Y029920D01*
X031961Y029909D01*
X032009Y029894D01*
X032055Y029876D01*
X032100Y029854D01*
X032143Y029828D01*
X032184Y029799D01*
X032223Y029767D01*
X032259Y029732D01*
X032291Y029694D01*
X032321Y029654D01*
X032348Y029611D01*
X032371Y029567D01*
X032390Y029521D01*
X032406Y029473D01*
X032418Y029424D01*
X032426Y029375D01*
X032430Y029325D01*
X032430Y029275D01*
X032426Y029225D01*
X032418Y029176D01*
X032406Y029127D01*
X032390Y029079D01*
X032371Y029033D01*
X032348Y028989D01*
X032321Y028946D01*
X032291Y028906D01*
X032259Y028868D01*
X032223Y028833D01*
X032184Y028801D01*
X032143Y028772D01*
X032100Y028746D01*
X032055Y028724D01*
X032009Y028706D01*
X031961Y028691D01*
X031912Y028680D01*
X031863Y028673D01*
X031813Y028670D01*
X031762Y028671D01*
X031713Y028676D01*
X031663Y028685D01*
X031615Y028698D01*
X031568Y028714D01*
X031522Y028735D01*
X031478Y028759D01*
X031436Y028786D01*
X031396Y028816D01*
X031359Y028850D01*
X031325Y028887D01*
X031293Y028926D01*
X031265Y028967D01*
X031240Y029011D01*
X031219Y029056D01*
X031202Y029103D01*
X031188Y029151D01*
X031178Y029200D01*
X031172Y029250D01*
X031170Y029300D01*
X031170Y001800D02*
X031172Y001850D01*
X031178Y001900D01*
X031188Y001949D01*
X031202Y001997D01*
X031219Y002044D01*
X031240Y002089D01*
X031265Y002133D01*
X031293Y002174D01*
X031325Y002213D01*
X031359Y002250D01*
X031396Y002284D01*
X031436Y002314D01*
X031478Y002341D01*
X031522Y002365D01*
X031568Y002386D01*
X031615Y002402D01*
X031663Y002415D01*
X031713Y002424D01*
X031762Y002429D01*
X031813Y002430D01*
X031863Y002427D01*
X031912Y002420D01*
X031961Y002409D01*
X032009Y002394D01*
X032055Y002376D01*
X032100Y002354D01*
X032143Y002328D01*
X032184Y002299D01*
X032223Y002267D01*
X032259Y002232D01*
X032291Y002194D01*
X032321Y002154D01*
X032348Y002111D01*
X032371Y002067D01*
X032390Y002021D01*
X032406Y001973D01*
X032418Y001924D01*
X032426Y001875D01*
X032430Y001825D01*
X032430Y001775D01*
X032426Y001725D01*
X032418Y001676D01*
X032406Y001627D01*
X032390Y001579D01*
X032371Y001533D01*
X032348Y001489D01*
X032321Y001446D01*
X032291Y001406D01*
X032259Y001368D01*
X032223Y001333D01*
X032184Y001301D01*
X032143Y001272D01*
X032100Y001246D01*
X032055Y001224D01*
X032009Y001206D01*
X031961Y001191D01*
X031912Y001180D01*
X031863Y001173D01*
X031813Y001170D01*
X031762Y001171D01*
X031713Y001176D01*
X031663Y001185D01*
X031615Y001198D01*
X031568Y001214D01*
X031522Y001235D01*
X031478Y001259D01*
X031436Y001286D01*
X031396Y001316D01*
X031359Y001350D01*
X031325Y001387D01*
X031293Y001426D01*
X031265Y001467D01*
X031240Y001511D01*
X031219Y001556D01*
X031202Y001603D01*
X031188Y001651D01*
X031178Y001700D01*
X031172Y001750D01*
X031170Y001800D01*
D11*
X031221Y003422D02*
X031068Y003422D01*
X030991Y003499D01*
X031298Y003806D01*
X031298Y003499D01*
X031221Y003422D01*
X030991Y003499D02*
X030991Y003806D01*
X031068Y003883D01*
X031221Y003883D01*
X031298Y003806D01*
X030837Y003422D02*
X030530Y003422D01*
X030684Y003422D02*
X030684Y003883D01*
X030530Y003729D01*
X030377Y003883D02*
X030223Y003883D01*
X030300Y003883D02*
X030300Y003499D01*
X030223Y003422D01*
X030147Y003422D01*
X030070Y003499D01*
X027167Y004397D02*
X027090Y004320D01*
X026936Y004320D01*
X026860Y004397D01*
X026706Y004320D02*
X026553Y004473D01*
X026629Y004473D02*
X026399Y004473D01*
X026399Y004320D02*
X026399Y004780D01*
X026629Y004780D01*
X026706Y004704D01*
X026706Y004550D01*
X026629Y004473D01*
X026860Y004704D02*
X026936Y004780D01*
X027090Y004780D01*
X027167Y004704D01*
X027167Y004627D01*
X027090Y004550D01*
X027167Y004473D01*
X027167Y004397D01*
X027090Y004550D02*
X027013Y004550D01*
X026280Y006149D02*
X025820Y006149D01*
X025820Y006379D01*
X025896Y006456D01*
X026050Y006456D01*
X026127Y006379D01*
X026127Y006149D01*
X026127Y006303D02*
X026280Y006456D01*
X026280Y006610D02*
X025973Y006917D01*
X025896Y006917D01*
X025820Y006840D01*
X025820Y006686D01*
X025896Y006610D01*
X026280Y006610D02*
X026280Y006917D01*
X026122Y007695D02*
X026122Y008155D01*
X026352Y008155D01*
X026429Y008079D01*
X026429Y007925D01*
X026352Y007848D01*
X026122Y007848D01*
X026582Y007772D02*
X026659Y007695D01*
X026813Y007695D01*
X026889Y007772D01*
X026889Y008079D01*
X026813Y008155D01*
X026659Y008155D01*
X026582Y008079D01*
X026582Y007772D01*
X027043Y007695D02*
X027196Y007848D01*
X027350Y007695D01*
X027350Y008155D01*
X027503Y008155D02*
X027503Y007695D01*
X027810Y007695D01*
X027964Y007695D02*
X027964Y008155D01*
X028194Y008155D01*
X028270Y008079D01*
X028270Y007925D01*
X028194Y007848D01*
X027964Y007848D01*
X028117Y007848D02*
X028270Y007695D01*
X027810Y008155D02*
X027503Y008155D01*
X027503Y007925D02*
X027657Y007925D01*
X027043Y008155D02*
X027043Y007695D01*
X025508Y007695D02*
X025201Y007695D01*
X025201Y008155D01*
X025508Y008155D01*
X025355Y007925D02*
X025201Y007925D01*
X025048Y007925D02*
X025048Y008079D01*
X024971Y008155D01*
X024741Y008155D01*
X024741Y007695D01*
X024741Y007848D02*
X024971Y007848D01*
X025048Y007925D01*
X024587Y007925D02*
X024280Y007925D01*
X024280Y008002D02*
X024434Y008155D01*
X024587Y008002D01*
X024587Y007695D01*
X024280Y007695D02*
X024280Y008002D01*
X024127Y008079D02*
X024050Y008155D01*
X023897Y008155D01*
X023820Y008079D01*
X023820Y007772D01*
X023897Y007695D01*
X024050Y007695D01*
X024127Y007772D01*
X023287Y007487D02*
X022980Y007487D01*
X022980Y007256D01*
X023134Y007333D01*
X023211Y007333D01*
X023287Y007256D01*
X023287Y007103D01*
X023211Y007026D01*
X023057Y007026D01*
X022980Y007103D01*
X022827Y007103D02*
X022827Y007410D01*
X022750Y007487D01*
X022520Y007487D01*
X022520Y007026D01*
X022750Y007026D01*
X022827Y007103D01*
X019167Y006945D02*
X018860Y006945D01*
X019013Y006945D02*
X019013Y007405D01*
X018860Y007252D01*
X018706Y007329D02*
X018706Y007175D01*
X018629Y007098D01*
X018399Y007098D01*
X018399Y006945D02*
X018399Y007405D01*
X018629Y007405D01*
X018706Y007329D01*
X018553Y007098D02*
X018706Y006945D01*
X016202Y007022D02*
X013398Y007022D01*
X013491Y007248D02*
X013261Y007248D01*
X013261Y007708D01*
X013491Y007708D01*
X013568Y007631D01*
X013568Y007324D01*
X013491Y007248D01*
X013721Y007324D02*
X013798Y007248D01*
X013952Y007248D01*
X014028Y007324D01*
X014028Y007401D01*
X013952Y007478D01*
X013875Y007478D01*
X013952Y007478D02*
X014028Y007554D01*
X014028Y007631D01*
X013952Y007708D01*
X013798Y007708D01*
X013721Y007631D01*
X013780Y009320D02*
X013320Y009320D01*
X013320Y009550D01*
X013396Y009627D01*
X013550Y009627D01*
X013627Y009550D01*
X013627Y009320D01*
X013627Y009473D02*
X013780Y009627D01*
X013703Y009780D02*
X013780Y009857D01*
X013780Y010011D01*
X013627Y010087D02*
X013627Y009780D01*
X013703Y009780D02*
X013550Y009780D01*
X013473Y009857D01*
X013473Y010011D01*
X013550Y010087D01*
X013627Y010087D01*
X013780Y010241D02*
X013780Y010394D01*
X013780Y010318D02*
X013320Y010318D01*
X013320Y010241D01*
X013550Y010548D02*
X013473Y010624D01*
X013473Y010778D01*
X013550Y010855D01*
X013627Y010855D01*
X013627Y010548D01*
X013703Y010548D02*
X013550Y010548D01*
X013703Y010548D02*
X013780Y010624D01*
X013780Y010778D01*
X013993Y010855D02*
X014070Y010855D01*
X014223Y010855D02*
X014530Y010855D01*
X014530Y010931D02*
X014530Y010778D01*
X014530Y011085D02*
X014070Y011085D01*
X014223Y011085D02*
X014223Y011315D01*
X014300Y011392D01*
X014453Y011392D01*
X014530Y011315D01*
X014530Y011085D01*
X014820Y011238D02*
X015203Y011238D01*
X015280Y011162D01*
X015280Y011008D01*
X015203Y010931D01*
X014820Y010931D01*
X014973Y011392D02*
X014973Y011622D01*
X015050Y011699D01*
X015280Y011699D01*
X015280Y011852D02*
X015280Y012082D01*
X015203Y012159D01*
X015050Y012159D01*
X014973Y012082D01*
X014973Y011852D01*
X015433Y011852D01*
X015203Y012313D02*
X015280Y012389D01*
X015280Y012543D01*
X015203Y012619D01*
X015050Y012619D01*
X014973Y012543D01*
X014973Y012389D01*
X015050Y012313D01*
X015203Y012313D01*
X015127Y012773D02*
X014973Y012926D01*
X014973Y013003D01*
X014973Y013157D02*
X014973Y013310D01*
X014896Y013233D02*
X015203Y013233D01*
X015280Y013310D01*
X015203Y013464D02*
X015050Y013464D01*
X014973Y013540D01*
X014973Y013694D01*
X015050Y013770D01*
X015127Y013770D01*
X015127Y013464D01*
X015203Y013464D02*
X015280Y013540D01*
X015280Y013694D01*
X015203Y013924D02*
X015050Y013924D01*
X014973Y014001D01*
X014973Y014231D01*
X014820Y014231D02*
X015280Y014231D01*
X015280Y014001D01*
X015203Y013924D01*
X014530Y014001D02*
X014070Y014001D01*
X014530Y014308D01*
X014070Y014308D01*
X014223Y014538D02*
X014300Y014461D01*
X014453Y014461D01*
X014530Y014538D01*
X014530Y014691D01*
X014453Y014768D01*
X014300Y014768D01*
X014223Y014691D01*
X014223Y014538D01*
X013780Y014538D02*
X013780Y014308D01*
X013703Y014231D01*
X013550Y014231D01*
X013473Y014308D01*
X013473Y014538D01*
X013320Y014538D02*
X013780Y014538D01*
X013703Y014691D02*
X013550Y014691D01*
X013473Y014768D01*
X013473Y014921D01*
X013550Y014998D01*
X013627Y014998D01*
X013627Y014691D01*
X013703Y014691D02*
X013780Y014768D01*
X013780Y014921D01*
X013780Y015152D02*
X013473Y015152D01*
X013473Y015305D02*
X013627Y015152D01*
X013473Y015305D02*
X013473Y015382D01*
X014070Y015459D02*
X014146Y015382D01*
X014453Y015382D01*
X014530Y015459D01*
X014530Y015612D01*
X014453Y015689D01*
X014453Y015842D02*
X014300Y015842D01*
X014223Y015919D01*
X014223Y016072D01*
X014300Y016149D01*
X014453Y016149D01*
X014530Y016072D01*
X014530Y015919D01*
X014453Y015842D01*
X014146Y015689D02*
X014070Y015612D01*
X014070Y015459D01*
X014300Y015228D02*
X014530Y015228D01*
X014300Y015228D02*
X014223Y015152D01*
X014223Y014921D01*
X014530Y014921D01*
X014820Y014845D02*
X015280Y014845D01*
X015280Y015152D01*
X015280Y015305D02*
X015280Y015459D01*
X015280Y015382D02*
X014973Y015382D01*
X014973Y015305D01*
X014820Y015382D02*
X014743Y015382D01*
X014973Y015689D02*
X015050Y015612D01*
X015203Y015612D01*
X015280Y015689D01*
X015280Y015919D01*
X015203Y016072D02*
X015050Y016072D01*
X014973Y016149D01*
X014973Y016303D01*
X015050Y016379D01*
X015127Y016379D01*
X015127Y016072D01*
X015203Y016072D02*
X015280Y016149D01*
X015280Y016303D01*
X015280Y016533D02*
X014973Y016533D01*
X014973Y016763D01*
X015050Y016840D01*
X015280Y016840D01*
X015280Y016993D02*
X015280Y017223D01*
X015203Y017300D01*
X015127Y017223D01*
X015127Y017070D01*
X015050Y016993D01*
X014973Y017070D01*
X014973Y017300D01*
X015050Y017454D02*
X014973Y017530D01*
X014973Y017684D01*
X015050Y017761D01*
X015127Y017761D01*
X015127Y017454D01*
X015203Y017454D02*
X015050Y017454D01*
X015203Y017454D02*
X015280Y017530D01*
X015280Y017684D01*
X014530Y017684D02*
X014223Y017684D01*
X014223Y017837D02*
X014223Y017914D01*
X014223Y017837D02*
X014377Y017684D01*
X014377Y017530D02*
X014377Y017223D01*
X014453Y017223D02*
X014300Y017223D01*
X014223Y017300D01*
X014223Y017454D01*
X014300Y017530D01*
X014377Y017530D01*
X014530Y017454D02*
X014530Y017300D01*
X014453Y017223D01*
X014530Y017070D02*
X014300Y017070D01*
X014223Y016993D01*
X014300Y016916D01*
X014530Y016916D01*
X014530Y016763D02*
X014223Y016763D01*
X014223Y016840D01*
X014300Y016916D01*
X014300Y016610D02*
X014530Y016610D01*
X014530Y016456D02*
X014300Y016456D01*
X014223Y016533D01*
X014300Y016610D01*
X014300Y016456D02*
X014223Y016379D01*
X014223Y016303D01*
X014530Y016303D01*
X014973Y015919D02*
X014973Y015689D01*
X013780Y016149D02*
X013703Y016072D01*
X013396Y016072D01*
X013473Y015996D02*
X013473Y016149D01*
X013550Y016303D02*
X013473Y016379D01*
X013473Y016533D01*
X013550Y016610D01*
X013780Y016610D01*
X013703Y016763D02*
X013550Y016763D01*
X013473Y016840D01*
X013473Y016993D01*
X013550Y017070D01*
X013627Y017070D01*
X013627Y016763D01*
X013703Y016763D02*
X013780Y016840D01*
X013780Y016993D01*
X013780Y016303D02*
X013320Y016303D01*
X013396Y017684D02*
X013320Y017761D01*
X013320Y017914D01*
X013396Y017991D01*
X013473Y018144D02*
X013780Y018144D01*
X013627Y018144D02*
X013473Y018298D01*
X013473Y018374D01*
X013550Y018528D02*
X013473Y018605D01*
X013473Y018758D01*
X013550Y018835D01*
X013627Y018835D01*
X013627Y018528D01*
X013703Y018528D02*
X013550Y018528D01*
X013703Y018528D02*
X013780Y018605D01*
X013780Y018758D01*
X013703Y018988D02*
X013627Y019065D01*
X013627Y019295D01*
X013550Y019295D02*
X013780Y019295D01*
X013780Y019065D01*
X013703Y018988D01*
X013473Y019065D02*
X013473Y019218D01*
X013550Y019295D01*
X013473Y019449D02*
X013473Y019602D01*
X013396Y019525D02*
X013703Y019525D01*
X013780Y019602D01*
X013780Y019756D02*
X013780Y019909D01*
X013780Y019832D02*
X013473Y019832D01*
X013473Y019756D01*
X013320Y019832D02*
X013243Y019832D01*
X013473Y020062D02*
X013780Y020216D01*
X013473Y020369D01*
X013550Y020523D02*
X013473Y020600D01*
X013473Y020753D01*
X013550Y020830D01*
X013627Y020830D01*
X013627Y020523D01*
X013703Y020523D02*
X013550Y020523D01*
X013703Y020523D02*
X013780Y020600D01*
X013780Y020753D01*
X014070Y020523D02*
X014530Y020523D01*
X014453Y020369D02*
X014377Y020369D01*
X014300Y020293D01*
X014300Y020139D01*
X014223Y020062D01*
X014146Y020062D01*
X014070Y020139D01*
X014070Y020293D01*
X014146Y020369D01*
X014300Y020523D02*
X014223Y020600D01*
X014223Y020753D01*
X014300Y020830D01*
X014530Y020830D01*
X014453Y020983D02*
X014377Y021060D01*
X014377Y021290D01*
X014300Y021290D02*
X014530Y021290D01*
X014530Y021060D01*
X014453Y020983D01*
X014223Y021060D02*
X014223Y021213D01*
X014300Y021290D01*
X014377Y021444D02*
X014223Y021597D01*
X014223Y021674D01*
X014300Y021827D02*
X014223Y021904D01*
X014223Y022058D01*
X014300Y022134D01*
X014377Y022134D01*
X014377Y021827D01*
X014453Y021827D02*
X014300Y021827D01*
X014453Y021827D02*
X014530Y021904D01*
X014530Y022058D01*
X014530Y022288D02*
X014223Y022288D01*
X014070Y022441D01*
X014223Y022595D01*
X014530Y022595D01*
X014530Y022748D02*
X014530Y022902D01*
X014530Y022825D02*
X014070Y022825D01*
X014070Y022748D01*
X014300Y022595D02*
X014300Y022288D01*
X013780Y022364D02*
X013473Y022364D01*
X013473Y022441D01*
X013550Y022518D01*
X013473Y022595D01*
X013550Y022671D01*
X013780Y022671D01*
X013780Y022518D02*
X013550Y022518D01*
X013550Y022211D02*
X013473Y022134D01*
X013473Y021981D01*
X013550Y021904D01*
X013703Y021904D01*
X013780Y021981D01*
X013780Y022134D01*
X013703Y022211D01*
X013550Y022211D01*
X013703Y021751D02*
X013780Y021674D01*
X013780Y021520D01*
X013703Y021444D01*
X013396Y021444D01*
X013320Y021520D01*
X013320Y021674D01*
X013396Y021751D01*
X014223Y021444D02*
X014530Y021444D01*
X014453Y020369D02*
X014530Y020293D01*
X014530Y020139D01*
X014453Y020062D01*
X014300Y019909D02*
X014300Y019602D01*
X014530Y019449D02*
X014530Y019295D01*
X014530Y019372D02*
X014070Y019372D01*
X014070Y019295D01*
X014300Y019142D02*
X014530Y019142D01*
X014530Y018912D01*
X014453Y018835D01*
X014377Y018912D01*
X014377Y019142D01*
X014300Y019142D02*
X014223Y019065D01*
X014223Y018912D01*
X014223Y018605D02*
X014530Y018605D01*
X014530Y018681D02*
X014530Y018528D01*
X014530Y018374D02*
X014530Y018144D01*
X014453Y018067D01*
X014300Y018067D01*
X014223Y018144D01*
X014223Y018374D01*
X014223Y018528D02*
X014223Y018605D01*
X014070Y018605D02*
X013993Y018605D01*
X013703Y017991D02*
X013780Y017914D01*
X013780Y017761D01*
X013703Y017684D01*
X013396Y017684D01*
X013550Y014077D02*
X013780Y014077D01*
X013550Y014077D02*
X013473Y014001D01*
X013473Y013770D01*
X013780Y013770D01*
X013780Y013617D02*
X013473Y013617D01*
X013473Y013310D02*
X013703Y013310D01*
X013780Y013387D01*
X013780Y013617D01*
X014300Y013540D02*
X014300Y013847D01*
X014300Y013387D02*
X014530Y013387D01*
X014300Y013387D02*
X014223Y013310D01*
X014223Y013080D01*
X014530Y013080D01*
X014453Y012926D02*
X014300Y012926D01*
X014223Y012850D01*
X014223Y012696D01*
X014300Y012619D01*
X014453Y012619D01*
X014530Y012696D01*
X014530Y012850D01*
X014453Y012926D01*
X014530Y012466D02*
X014530Y012313D01*
X014530Y012389D02*
X014223Y012389D01*
X014223Y012313D01*
X014223Y012159D02*
X014223Y012006D01*
X014146Y012082D02*
X014453Y012082D01*
X014530Y012159D01*
X014530Y011852D02*
X014223Y011852D01*
X014223Y011545D02*
X014453Y011545D01*
X014530Y011622D01*
X014530Y011852D01*
X014070Y012389D02*
X013993Y012389D01*
X013780Y012466D02*
X013703Y012389D01*
X013550Y012389D01*
X013473Y012466D01*
X013473Y012696D01*
X013320Y012696D02*
X013780Y012696D01*
X013780Y012466D01*
X013627Y012236D02*
X013627Y011929D01*
X013703Y011929D02*
X013550Y011929D01*
X013473Y012006D01*
X013473Y012159D01*
X013550Y012236D01*
X013627Y012236D01*
X013780Y012159D02*
X013780Y012006D01*
X013703Y011929D01*
X013703Y011775D02*
X013627Y011699D01*
X013627Y011545D01*
X013550Y011468D01*
X013473Y011545D01*
X013473Y011775D01*
X013703Y011775D02*
X013780Y011699D01*
X013780Y011468D01*
X013780Y011315D02*
X013550Y011315D01*
X013473Y011238D01*
X013473Y011085D01*
X013627Y011085D02*
X013627Y011315D01*
X013780Y011315D02*
X013780Y011085D01*
X013703Y011008D01*
X013627Y011085D01*
X014223Y010855D02*
X014223Y010778D01*
X014223Y010624D02*
X014223Y010548D01*
X014377Y010394D01*
X014530Y010394D02*
X014223Y010394D01*
X014223Y010241D02*
X014223Y010087D01*
X014146Y010164D02*
X014453Y010164D01*
X014530Y010241D01*
X014820Y010241D02*
X014820Y010087D01*
X014896Y010011D01*
X015203Y010011D01*
X014896Y010318D01*
X015203Y010318D01*
X015280Y010241D01*
X015280Y010087D01*
X015203Y010011D01*
X015203Y009857D02*
X015280Y009857D01*
X015280Y009780D01*
X015203Y009780D01*
X015203Y009857D01*
X015203Y009627D02*
X015280Y009550D01*
X015280Y009397D01*
X015203Y009320D01*
X015050Y009473D02*
X015050Y009550D01*
X015127Y009627D01*
X015203Y009627D01*
X015050Y009550D02*
X014973Y009627D01*
X014896Y009627D01*
X014820Y009550D01*
X014820Y009397D01*
X014896Y009320D01*
X014530Y009320D02*
X014223Y009320D01*
X014070Y009473D01*
X014223Y009627D01*
X014530Y009627D01*
X014300Y009627D02*
X014300Y009320D01*
X014223Y009780D02*
X014223Y009934D01*
X014146Y009857D02*
X014453Y009857D01*
X014530Y009934D01*
X014820Y010241D02*
X014896Y010318D01*
X014973Y011392D02*
X015280Y011392D01*
X015280Y012773D02*
X014973Y012773D01*
X020570Y011204D02*
X020570Y010897D01*
X020647Y010820D01*
X020800Y010820D01*
X020877Y010897D01*
X020877Y011204D01*
X020800Y011280D01*
X020647Y011280D01*
X020570Y011204D01*
X020723Y010973D02*
X020877Y010820D01*
X021030Y010820D02*
X021337Y010820D01*
X021184Y010820D02*
X021184Y011280D01*
X021030Y011127D01*
X024070Y010911D02*
X024147Y010834D01*
X024223Y010834D01*
X024300Y010911D01*
X024300Y011294D01*
X024223Y011294D02*
X024377Y011294D01*
X024530Y011294D02*
X024837Y011294D01*
X024837Y011217D01*
X024530Y010911D01*
X024530Y010834D01*
X024820Y015195D02*
X024820Y015655D01*
X025050Y015655D01*
X025127Y015579D01*
X025127Y015425D01*
X025050Y015348D01*
X024820Y015348D01*
X024973Y015348D02*
X025127Y015195D01*
X025280Y015272D02*
X025357Y015195D01*
X025511Y015195D01*
X025587Y015272D01*
X025587Y015348D01*
X025511Y015425D01*
X025280Y015425D01*
X025280Y015272D01*
X025280Y015425D02*
X025434Y015579D01*
X025587Y015655D01*
X027820Y016249D02*
X027897Y016172D01*
X027973Y016172D01*
X028050Y016249D01*
X028050Y016633D01*
X027973Y016633D02*
X028127Y016633D01*
X028280Y016556D02*
X028280Y016479D01*
X028357Y016403D01*
X028587Y016403D01*
X028587Y016556D02*
X028587Y016249D01*
X028511Y016172D01*
X028357Y016172D01*
X028280Y016249D01*
X028280Y016556D02*
X028357Y016633D01*
X028511Y016633D01*
X028587Y016556D01*
X025450Y019526D02*
X025450Y019679D01*
X025373Y019756D01*
X024990Y019756D01*
X025066Y019910D02*
X024990Y019986D01*
X024990Y020140D01*
X025066Y020217D01*
X025143Y020217D01*
X025450Y019910D01*
X025450Y020217D01*
X026070Y020649D02*
X026070Y020879D01*
X026146Y020956D01*
X026300Y020956D01*
X026377Y020879D01*
X026377Y020649D01*
X026530Y020649D02*
X026070Y020649D01*
X026377Y020803D02*
X026530Y020956D01*
X026300Y021110D02*
X026300Y021417D01*
X026530Y021340D02*
X026070Y021340D01*
X026300Y021110D01*
X025847Y022792D02*
X025540Y022792D01*
X025463Y022869D01*
X025463Y023022D01*
X025540Y023099D01*
X025540Y023252D02*
X025617Y023252D01*
X025694Y023329D01*
X025694Y023559D01*
X025847Y023559D02*
X025540Y023559D01*
X025463Y023483D01*
X025463Y023329D01*
X025540Y023252D01*
X025847Y023252D02*
X025924Y023329D01*
X025924Y023483D01*
X025847Y023559D01*
X025847Y023099D02*
X025924Y023022D01*
X025924Y022869D01*
X025847Y022792D01*
X024034Y023914D02*
X023727Y023914D01*
X023881Y023914D02*
X023881Y024374D01*
X023727Y024221D01*
X023574Y024374D02*
X023574Y023991D01*
X023497Y023914D01*
X023344Y023914D01*
X023267Y023991D01*
X023267Y024374D01*
X021280Y024340D02*
X021203Y024417D01*
X020896Y024417D01*
X020820Y024340D01*
X020820Y024186D01*
X020896Y024110D01*
X020973Y024110D01*
X021050Y024186D01*
X021050Y024417D01*
X021280Y024340D02*
X021280Y024186D01*
X021203Y024110D01*
X021280Y023956D02*
X021127Y023803D01*
X021127Y023879D02*
X021127Y023649D01*
X021280Y023649D02*
X020820Y023649D01*
X020820Y023879D01*
X020896Y023956D01*
X021050Y023956D01*
X021127Y023879D01*
X022369Y021387D02*
X022292Y021310D01*
X022292Y021003D01*
X022369Y020926D01*
X022522Y020926D01*
X022599Y021003D01*
X022752Y021003D02*
X022752Y020926D01*
X022752Y021003D02*
X023059Y021310D01*
X023059Y021387D01*
X022752Y021387D01*
X022599Y021310D02*
X022522Y021387D01*
X022369Y021387D01*
X024990Y019449D02*
X025373Y019449D01*
X025450Y019526D01*
X027149Y024820D02*
X027149Y025280D01*
X027379Y025280D01*
X027456Y025204D01*
X027456Y025050D01*
X027379Y024973D01*
X027149Y024973D01*
X027303Y024973D02*
X027456Y024820D01*
X027610Y024897D02*
X027686Y024820D01*
X027840Y024820D01*
X027917Y024897D01*
X027917Y025050D01*
X027840Y025127D01*
X027763Y025127D01*
X027610Y025050D01*
X027610Y025280D01*
X027917Y025280D01*
X029647Y028172D02*
X029723Y028172D01*
X029800Y028249D01*
X029800Y028633D01*
X029723Y028633D02*
X029877Y028633D01*
X030030Y028556D02*
X030030Y028479D01*
X030107Y028403D01*
X030261Y028403D01*
X030337Y028326D01*
X030337Y028249D01*
X030261Y028172D01*
X030107Y028172D01*
X030030Y028249D01*
X030030Y028326D01*
X030107Y028403D01*
X030261Y028403D02*
X030337Y028479D01*
X030337Y028556D01*
X030261Y028633D01*
X030107Y028633D01*
X030030Y028556D01*
X029647Y028172D02*
X029570Y028249D01*
X029368Y029570D02*
X029248Y029570D01*
X029188Y029630D01*
X029188Y029750D02*
X029308Y029810D01*
X029368Y029810D01*
X029429Y029750D01*
X029429Y029630D01*
X029368Y029570D01*
X029188Y029750D02*
X029188Y029930D01*
X029429Y029930D01*
X029060Y029930D02*
X028940Y029930D01*
X029000Y029930D02*
X029000Y029630D01*
X028940Y029570D01*
X028880Y029570D01*
X028820Y029630D01*
X018030Y024590D02*
X018030Y024436D01*
X017953Y024360D01*
X018030Y024206D02*
X018030Y023899D01*
X018030Y023746D02*
X017877Y023592D01*
X017877Y023669D02*
X017877Y023439D01*
X018030Y023439D02*
X017570Y023439D01*
X017570Y023669D01*
X017646Y023746D01*
X017800Y023746D01*
X017877Y023669D01*
X017723Y023899D02*
X017570Y024053D01*
X018030Y024053D01*
X017646Y024360D02*
X017570Y024436D01*
X017570Y024590D01*
X017646Y024667D01*
X017723Y024667D01*
X017800Y024590D01*
X017877Y024667D01*
X017953Y024667D01*
X018030Y024590D01*
X017800Y024590D02*
X017800Y024513D01*
X015405Y027070D02*
X014945Y027070D01*
X014945Y027300D01*
X015021Y027377D01*
X015175Y027377D01*
X015252Y027300D01*
X015252Y027070D01*
X015252Y027223D02*
X015405Y027377D01*
X015405Y027530D02*
X015328Y027530D01*
X015021Y027837D01*
X014945Y027837D01*
X014945Y027530D01*
X013997Y026585D02*
X013997Y026345D01*
X013997Y026525D02*
X013757Y026525D01*
X013757Y026585D02*
X013877Y026705D01*
X013997Y026585D01*
X013757Y026585D02*
X013757Y026345D01*
X013629Y026405D02*
X013629Y026645D01*
X013568Y026705D01*
X013388Y026705D01*
X013388Y026345D01*
X013568Y026345D01*
X013629Y026405D01*
X013260Y026405D02*
X013200Y026345D01*
X013080Y026345D01*
X013020Y026405D01*
X013080Y026525D02*
X013020Y026585D01*
X013020Y026645D01*
X013080Y026705D01*
X013200Y026705D01*
X013260Y026645D01*
X013200Y026525D02*
X013260Y026465D01*
X013260Y026405D01*
X013200Y026525D02*
X013080Y026525D01*
X012622Y026345D02*
X012382Y026345D01*
X012382Y026705D01*
X012254Y026645D02*
X012193Y026705D01*
X012073Y026705D01*
X012013Y026645D01*
X012013Y026405D01*
X012073Y026345D01*
X012193Y026345D01*
X012254Y026405D01*
X011885Y026405D02*
X011825Y026345D01*
X011705Y026345D01*
X011645Y026405D01*
X011705Y026525D02*
X011825Y026525D01*
X011885Y026465D01*
X011885Y026405D01*
X011705Y026525D02*
X011645Y026585D01*
X011645Y026645D01*
X011705Y026705D01*
X011825Y026705D01*
X011885Y026645D01*
X011247Y026145D02*
X011187Y026205D01*
X011007Y026205D01*
X011007Y025845D01*
X011187Y025845D01*
X011247Y025905D01*
X011247Y026145D01*
X010879Y026205D02*
X010879Y025845D01*
X010638Y026205D01*
X010638Y025845D01*
X010510Y025905D02*
X010510Y026025D01*
X010390Y026025D01*
X010270Y025905D02*
X010330Y025845D01*
X010450Y025845D01*
X010510Y025905D01*
X010270Y025905D02*
X010270Y026145D01*
X010330Y026205D01*
X010450Y026205D01*
X010510Y026145D01*
X013473Y024513D02*
X013473Y024283D01*
X013550Y024206D01*
X013627Y024283D01*
X013627Y024436D01*
X013703Y024513D01*
X013780Y024436D01*
X013780Y024206D01*
X013780Y024053D02*
X013550Y024053D01*
X013473Y023976D01*
X013473Y023746D01*
X013780Y023746D01*
X013703Y023592D02*
X013780Y023515D01*
X013780Y023362D01*
X013703Y023285D01*
X013550Y023285D01*
X013473Y023362D01*
X013473Y023515D01*
X013550Y023592D01*
X013703Y023592D01*
X014070Y023362D02*
X014530Y023362D01*
X014377Y023362D02*
X014223Y023592D01*
X014300Y023746D02*
X014223Y023822D01*
X014223Y023976D01*
X014300Y024053D01*
X014377Y024053D01*
X014377Y023746D01*
X014453Y023746D02*
X014300Y023746D01*
X014453Y023746D02*
X014530Y023822D01*
X014530Y023976D01*
X014530Y023592D02*
X014377Y023362D01*
X014530Y023209D02*
X014530Y023055D01*
X014530Y023132D02*
X014223Y023132D01*
X014223Y023055D01*
X014070Y023132D02*
X013993Y023132D01*
X013780Y023132D02*
X013550Y023132D01*
X013473Y023055D01*
X013550Y022978D01*
X013780Y022978D01*
X013780Y022825D02*
X013473Y022825D01*
X013473Y022902D01*
X013550Y022978D01*
X007870Y029333D02*
X007930Y029393D01*
X007930Y029453D01*
X007870Y029514D01*
X007570Y029514D01*
X007570Y029574D02*
X007570Y029453D01*
X007750Y029702D02*
X007630Y029822D01*
X007570Y029942D01*
X007750Y029882D02*
X007750Y029702D01*
X007870Y029702D01*
X007930Y029762D01*
X007930Y029882D01*
X007870Y029942D01*
X007810Y029942D01*
X007750Y029882D01*
X008820Y030030D02*
X008973Y030030D01*
X008897Y030030D02*
X008897Y029570D01*
X008973Y029570D02*
X008820Y029570D01*
X009127Y029647D02*
X009204Y029570D01*
X009357Y029570D01*
X009434Y029647D01*
X009434Y029723D01*
X009357Y029800D01*
X009204Y029800D01*
X009127Y029877D01*
X009127Y029954D01*
X009204Y030030D01*
X009357Y030030D01*
X009434Y029954D01*
X009587Y029954D02*
X009587Y029647D01*
X009664Y029570D01*
X009818Y029570D01*
X009894Y029647D01*
X009894Y029954D01*
X009818Y030030D01*
X009664Y030030D01*
X009587Y029954D01*
X010048Y029877D02*
X010201Y030030D01*
X010201Y029570D01*
X010048Y029570D02*
X010355Y029570D01*
X001780Y023667D02*
X001780Y023360D01*
X001780Y023513D02*
X001320Y023513D01*
X001473Y023360D01*
X001703Y023206D02*
X001780Y023206D01*
X001780Y023129D01*
X001703Y023129D01*
X001703Y023206D01*
X001780Y022976D02*
X001780Y022669D01*
X001473Y022976D01*
X001396Y022976D01*
X001320Y022899D01*
X001320Y022746D01*
X001396Y022669D01*
X001320Y022055D02*
X001780Y022055D01*
X001780Y021825D01*
X001703Y021748D01*
X001550Y021748D01*
X001473Y021825D01*
X001473Y022055D01*
X001473Y021595D02*
X001473Y021518D01*
X001627Y021365D01*
X001780Y021365D02*
X001473Y021365D01*
X001550Y021211D02*
X001780Y021211D01*
X001780Y020981D01*
X001703Y020904D01*
X001627Y020981D01*
X001627Y021211D01*
X001550Y021211D02*
X001473Y021134D01*
X001473Y020981D01*
X001550Y020751D02*
X001473Y020674D01*
X001473Y020520D01*
X001550Y020444D01*
X001703Y020444D01*
X001780Y020520D01*
X001780Y020674D01*
X001703Y020751D01*
X001550Y020751D01*
X001627Y020290D02*
X001703Y020290D01*
X001780Y020214D01*
X001780Y019983D01*
X001320Y019983D01*
X001320Y020214D01*
X001396Y020290D01*
X001473Y020290D01*
X001550Y020214D01*
X001550Y019983D01*
X001550Y020214D02*
X001627Y020290D01*
X001473Y019370D02*
X001473Y019293D01*
X001627Y019139D01*
X001780Y019139D02*
X001473Y019139D01*
X001550Y018986D02*
X001627Y018986D01*
X001627Y018679D01*
X001703Y018679D02*
X001550Y018679D01*
X001473Y018756D01*
X001473Y018909D01*
X001550Y018986D01*
X001780Y018909D02*
X001780Y018756D01*
X001703Y018679D01*
X001780Y018525D02*
X001780Y018372D01*
X001780Y018449D02*
X001320Y018449D01*
X001320Y018372D01*
X001320Y018142D02*
X001780Y018142D01*
X001780Y018065D02*
X001780Y018219D01*
X001703Y017912D02*
X001550Y017912D01*
X001473Y017835D01*
X001473Y017681D01*
X001550Y017605D01*
X001703Y017605D01*
X001780Y017681D01*
X001780Y017835D01*
X001703Y017912D01*
X001473Y017451D02*
X001473Y017374D01*
X001627Y017221D01*
X001780Y017221D02*
X001473Y017221D01*
X001473Y017068D02*
X001473Y016914D01*
X001396Y016991D02*
X001703Y016991D01*
X001780Y017068D01*
X001780Y016761D02*
X001550Y016761D01*
X001473Y016684D01*
X001473Y016454D01*
X001780Y016454D01*
X001703Y016300D02*
X001550Y016300D01*
X001473Y016223D01*
X001473Y016070D01*
X001550Y015993D01*
X001703Y015993D01*
X001780Y016070D01*
X001780Y016223D01*
X001703Y016300D01*
X001703Y015840D02*
X001780Y015763D01*
X001780Y015610D01*
X001703Y015533D01*
X001396Y015533D01*
X001320Y015610D01*
X001320Y015763D01*
X001396Y015840D01*
X001473Y014919D02*
X001473Y014842D01*
X001627Y014689D01*
X001780Y014689D02*
X001473Y014689D01*
X001550Y014535D02*
X001627Y014535D01*
X001627Y014228D01*
X001703Y014228D02*
X001550Y014228D01*
X001473Y014305D01*
X001473Y014459D01*
X001550Y014535D01*
X001780Y014459D02*
X001780Y014305D01*
X001703Y014228D01*
X001703Y014075D02*
X001473Y014075D01*
X001703Y014075D02*
X001780Y013998D01*
X001703Y013922D01*
X001780Y013845D01*
X001703Y013768D01*
X001473Y013768D01*
X001550Y013615D02*
X001473Y013538D01*
X001473Y013384D01*
X001550Y013308D01*
X001703Y013308D01*
X001780Y013384D01*
X001780Y013538D01*
X001703Y013615D01*
X001550Y013615D01*
X001550Y013154D02*
X001627Y013077D01*
X001627Y012847D01*
X001780Y012847D02*
X001320Y012847D01*
X001320Y013077D01*
X001396Y013154D01*
X001550Y013154D01*
X001627Y012233D02*
X001320Y012233D01*
X001320Y011926D02*
X001627Y011926D01*
X001780Y012080D01*
X001627Y012233D01*
X001703Y011773D02*
X001396Y011773D01*
X001320Y011696D01*
X001320Y011543D01*
X001396Y011466D01*
X001703Y011466D01*
X001780Y011543D01*
X001780Y011696D01*
X001703Y011773D01*
X001780Y011313D02*
X001627Y011159D01*
X001627Y011236D02*
X001627Y011006D01*
X001780Y011006D02*
X001320Y011006D01*
X001320Y011236D01*
X001396Y011313D01*
X001550Y011313D01*
X001627Y011236D01*
X001550Y010852D02*
X001780Y010852D01*
X001550Y010852D02*
X001473Y010776D01*
X001473Y010545D01*
X001780Y010545D01*
X001627Y010392D02*
X001627Y010085D01*
X001703Y010085D02*
X001550Y010085D01*
X001473Y010162D01*
X001473Y010315D01*
X001550Y010392D01*
X001627Y010392D01*
X001780Y010315D02*
X001780Y010162D01*
X001703Y010085D01*
X001703Y009931D02*
X001780Y009855D01*
X001780Y009625D01*
X001933Y009625D02*
X001473Y009625D01*
X001473Y009855D01*
X001550Y009931D01*
X001703Y009931D01*
X001703Y009471D02*
X001396Y009471D01*
X001320Y009394D01*
X001320Y009241D01*
X001396Y009164D01*
X001703Y009164D01*
X001780Y009241D01*
X001780Y009394D01*
X001703Y009471D01*
X003903Y008530D02*
X004056Y008530D01*
X003979Y008530D02*
X003979Y008147D01*
X003903Y008070D01*
X003826Y008070D01*
X003749Y008147D01*
X004210Y008070D02*
X004517Y008377D01*
X004517Y008454D01*
X004440Y008530D01*
X004286Y008530D01*
X004210Y008454D01*
X004210Y008070D02*
X004517Y008070D01*
X004820Y006530D02*
X005127Y006530D01*
X005280Y006530D02*
X005511Y006530D01*
X005587Y006454D01*
X005587Y006377D01*
X005511Y006300D01*
X005280Y006300D01*
X005280Y006070D02*
X005511Y006070D01*
X005587Y006147D01*
X005587Y006223D01*
X005511Y006300D01*
X005741Y006377D02*
X005894Y006530D01*
X005894Y006070D01*
X005741Y006070D02*
X006048Y006070D01*
X005280Y006070D02*
X005280Y006530D01*
X004973Y006300D02*
X004820Y006300D01*
X004820Y006070D02*
X004820Y006530D01*
X007648Y007022D02*
X010452Y007022D01*
X009028Y007248D02*
X008721Y007248D01*
X008875Y007248D02*
X008875Y007708D01*
X008721Y007554D01*
X008568Y007631D02*
X008568Y007324D01*
X008491Y007248D01*
X008261Y007248D01*
X008261Y007708D01*
X008491Y007708D01*
X008568Y007631D01*
X007648Y004578D02*
X010452Y004578D01*
X010452Y004272D02*
X007648Y004272D01*
X005971Y002280D02*
X005818Y002280D01*
X005741Y002204D01*
X005587Y002204D02*
X005587Y002127D01*
X005511Y002050D01*
X005280Y002050D01*
X005280Y001820D02*
X005511Y001820D01*
X005587Y001897D01*
X005587Y001973D01*
X005511Y002050D01*
X005587Y002204D02*
X005511Y002280D01*
X005280Y002280D01*
X005280Y001820D01*
X004973Y002050D02*
X004820Y002050D01*
X004820Y001820D02*
X004820Y002280D01*
X005127Y002280D01*
X005741Y001820D02*
X006048Y002127D01*
X006048Y002204D01*
X005971Y002280D01*
X006048Y001820D02*
X005741Y001820D01*
X007648Y001828D02*
X010452Y001828D01*
X008778Y001381D02*
X008702Y001458D01*
X008548Y001458D01*
X008471Y001381D01*
X008318Y001381D02*
X008318Y001074D01*
X008241Y000998D01*
X008011Y000998D01*
X008011Y001458D01*
X008241Y001458D01*
X008318Y001381D01*
X008471Y000998D02*
X008778Y001304D01*
X008778Y001381D01*
X008778Y000998D02*
X008471Y000998D01*
X013398Y001828D02*
X016202Y001828D01*
X016649Y001383D02*
X016726Y001306D01*
X016803Y001306D01*
X016879Y001383D01*
X016879Y001767D01*
X016803Y001767D02*
X016956Y001767D01*
X017110Y001690D02*
X017186Y001767D01*
X017340Y001767D01*
X017417Y001690D01*
X017417Y001613D01*
X017340Y001536D01*
X017417Y001460D01*
X017417Y001383D01*
X017340Y001306D01*
X017186Y001306D01*
X017110Y001383D01*
X017263Y001536D02*
X017340Y001536D01*
X015278Y001228D02*
X014971Y001228D01*
X015202Y001458D01*
X015202Y000998D01*
X014818Y001074D02*
X014818Y001381D01*
X014741Y001458D01*
X014511Y001458D01*
X014511Y000998D01*
X014741Y000998D01*
X014818Y001074D01*
X016202Y004272D02*
X013398Y004272D01*
X013398Y004578D02*
X016202Y004578D01*
X026070Y001130D02*
X026130Y001070D01*
X026190Y001070D01*
X026250Y001130D01*
X026250Y001430D01*
X026190Y001430D02*
X026310Y001430D01*
X026438Y001250D02*
X026679Y001250D01*
X026618Y001070D02*
X026618Y001430D01*
X026438Y001250D01*
X002929Y002820D02*
X002688Y002820D01*
X002808Y002820D02*
X002808Y003180D01*
X002688Y003060D01*
X002560Y003180D02*
X002440Y003180D01*
X002500Y003180D02*
X002500Y002880D01*
X002440Y002820D01*
X002380Y002820D01*
X002320Y002880D01*
X002455Y017895D02*
X002515Y017895D01*
X002575Y017955D01*
X002575Y018075D01*
X002635Y018135D01*
X002695Y018135D01*
X002755Y018075D01*
X002755Y017955D01*
X002695Y017895D01*
X002455Y017895D02*
X002395Y017955D01*
X002395Y018075D01*
X002455Y018135D01*
X002395Y018263D02*
X002395Y018443D01*
X002455Y018504D01*
X002575Y018504D01*
X002635Y018443D01*
X002635Y018263D01*
X002755Y018263D02*
X002395Y018263D01*
X002515Y018632D02*
X002395Y018752D01*
X002515Y018872D01*
X002755Y018872D01*
X002755Y019000D02*
X002395Y019000D01*
X002395Y019180D01*
X002455Y019240D01*
X002575Y019240D01*
X002635Y019180D01*
X002635Y019000D01*
X002635Y019120D02*
X002755Y019240D01*
X002755Y019368D02*
X002755Y019608D01*
X002575Y019488D02*
X002575Y019368D01*
X002395Y019368D02*
X002755Y019368D01*
X002395Y019368D02*
X002395Y019608D01*
X002575Y018872D02*
X002575Y018632D01*
X002515Y018632D02*
X002755Y018632D01*
X001320Y018142D02*
X001320Y018065D01*
D12*
X001925Y026300D03*
D13*
X002971Y028104D02*
X003218Y028104D01*
X003279Y028165D01*
X003279Y028289D01*
X003218Y028351D01*
X003279Y028472D02*
X003279Y028719D01*
X003279Y028596D02*
X002909Y028596D01*
X003033Y028472D01*
X002971Y028351D02*
X002909Y028289D01*
X002909Y028165D01*
X002971Y028104D01*
X002971Y028840D02*
X002909Y028902D01*
X002909Y029026D01*
X002971Y029087D01*
X003218Y028840D01*
X003279Y028902D01*
X003279Y029026D01*
X003218Y029087D01*
X002971Y029087D01*
X002971Y028840D02*
X003218Y028840D01*
X004245Y028858D02*
X004342Y028762D01*
X004535Y028762D01*
X004487Y028660D02*
X004293Y028660D01*
X004245Y028612D01*
X004245Y028467D01*
X004535Y028467D01*
X004535Y028612D01*
X004487Y028660D01*
X004390Y028762D02*
X004390Y028955D01*
X004342Y028955D02*
X004535Y028955D01*
X004342Y028955D02*
X004245Y028858D01*
X004245Y029351D02*
X004438Y029351D01*
X004535Y029448D01*
X004438Y029544D01*
X004245Y029544D01*
X004293Y029645D02*
X004487Y029645D01*
X004535Y029694D01*
X004535Y029791D01*
X004487Y029839D01*
X004487Y029940D02*
X004535Y029988D01*
X004535Y030085D01*
X004487Y030134D01*
X004293Y030134D02*
X004245Y030085D01*
X004245Y029988D01*
X004293Y029940D01*
X004487Y029940D01*
X004293Y029839D02*
X004245Y029791D01*
X004245Y029694D01*
X004293Y029645D01*
X004293Y028366D02*
X004245Y028317D01*
X004245Y028221D01*
X004293Y028172D01*
X004342Y028172D01*
X004390Y028221D01*
X004390Y028317D01*
X004438Y028366D01*
X004487Y028366D01*
X004535Y028317D01*
X004535Y028221D01*
X004487Y028172D01*
X004535Y027776D02*
X004535Y027583D01*
X004245Y027583D01*
X004293Y027482D02*
X004245Y027433D01*
X004245Y027337D01*
X004293Y027288D01*
X004487Y027288D01*
X004535Y027337D01*
X004535Y027433D01*
X004487Y027482D01*
X004487Y027187D02*
X004535Y027139D01*
X004535Y027042D01*
X004487Y026994D01*
X004390Y027042D02*
X004390Y027139D01*
X004438Y027187D01*
X004487Y027187D01*
X004390Y027042D02*
X004342Y026994D01*
X004293Y026994D01*
X004245Y027042D01*
X004245Y027139D01*
X004293Y027187D01*
X004293Y026598D02*
X004245Y026549D01*
X004245Y026404D01*
X004535Y026404D01*
X004535Y026549D01*
X004487Y026598D01*
X004293Y026598D01*
X004245Y026303D02*
X004535Y026303D01*
X004245Y026110D01*
X004535Y026110D01*
X004487Y026008D02*
X004390Y026008D01*
X004390Y025912D01*
X004487Y026008D02*
X004535Y025960D01*
X004535Y025863D01*
X004487Y025815D01*
X004293Y025815D01*
X004245Y025863D01*
X004245Y025960D01*
X004293Y026008D01*
X007665Y026377D02*
X007726Y026315D01*
X007973Y026315D01*
X008035Y026377D01*
X008035Y026500D01*
X007973Y026562D01*
X007973Y026683D02*
X007912Y026745D01*
X007912Y026930D01*
X007850Y026930D02*
X008035Y026930D01*
X008035Y026745D01*
X007973Y026683D01*
X007788Y026745D02*
X007788Y026868D01*
X007850Y026930D01*
X007788Y027052D02*
X007788Y027237D01*
X007850Y027299D01*
X007973Y027299D01*
X008035Y027237D01*
X008035Y027052D01*
X008158Y027052D02*
X007788Y027052D01*
X007850Y027420D02*
X007788Y027482D01*
X007788Y027605D01*
X007850Y027667D01*
X007912Y027667D01*
X007912Y027420D01*
X007973Y027420D02*
X007850Y027420D01*
X007973Y027420D02*
X008035Y027482D01*
X008035Y027605D01*
X008035Y028157D02*
X008035Y028280D01*
X008035Y028218D02*
X007665Y028218D01*
X007665Y028157D02*
X007665Y028280D01*
X007726Y028402D02*
X007665Y028464D01*
X007665Y028587D01*
X007726Y028649D01*
X007788Y028649D01*
X008035Y028402D01*
X008035Y028649D01*
X007973Y028770D02*
X008035Y028832D01*
X008035Y028956D01*
X007973Y029017D01*
X007973Y028770D02*
X007726Y028770D01*
X007665Y028832D01*
X007665Y028956D01*
X007726Y029017D01*
X007726Y026562D02*
X007665Y026500D01*
X007665Y026377D01*
X011070Y029358D02*
X011132Y029296D01*
X011379Y029296D01*
X011441Y029358D01*
X011441Y029481D01*
X011379Y029543D01*
X011379Y029665D02*
X011317Y029665D01*
X011255Y029726D01*
X011255Y029850D01*
X011317Y029911D01*
X011379Y029911D01*
X011441Y029850D01*
X011441Y029726D01*
X011379Y029665D01*
X011255Y029726D02*
X011194Y029665D01*
X011132Y029665D01*
X011070Y029726D01*
X011070Y029850D01*
X011132Y029911D01*
X011194Y029911D01*
X011255Y029850D01*
X011132Y029543D02*
X011070Y029481D01*
X011070Y029358D01*
X012765Y029207D02*
X012765Y029158D01*
X012813Y029110D01*
X012910Y029110D01*
X012958Y029062D01*
X012958Y029013D01*
X012910Y028965D01*
X012813Y028965D01*
X012765Y029013D01*
X012765Y029207D02*
X012813Y029255D01*
X012910Y029255D01*
X012958Y029207D01*
X013060Y029255D02*
X013060Y028965D01*
X013253Y028965D01*
X013354Y028965D02*
X013354Y029255D01*
X013548Y028965D01*
X013548Y029255D01*
X013649Y029207D02*
X013649Y029158D01*
X013697Y029110D01*
X013794Y029110D01*
X013842Y029062D01*
X013842Y029013D01*
X013794Y028965D01*
X013697Y028965D01*
X013649Y029013D01*
X013649Y029207D02*
X013697Y029255D01*
X013794Y029255D01*
X013842Y029207D01*
X013944Y029207D02*
X013944Y029013D01*
X013992Y028965D01*
X014089Y028965D01*
X014137Y029013D01*
X014137Y029207D01*
X014089Y029255D01*
X013992Y029255D01*
X013944Y029207D01*
X014238Y029255D02*
X014238Y028965D01*
X014238Y029062D02*
X014383Y029062D01*
X014432Y029110D01*
X014432Y029207D01*
X014383Y029255D01*
X014238Y029255D01*
X014335Y029062D02*
X014432Y028965D01*
X014533Y028917D02*
X014726Y028917D01*
X014828Y029062D02*
X014828Y029255D01*
X015021Y029255D02*
X015021Y029062D01*
X014924Y028965D01*
X014828Y029062D01*
X015122Y029013D02*
X015122Y029207D01*
X015171Y029255D01*
X015267Y029255D01*
X015316Y029207D01*
X015417Y029207D02*
X015417Y029013D01*
X015465Y028965D01*
X015562Y028965D01*
X015610Y029013D01*
X015610Y029207D02*
X015562Y029255D01*
X015465Y029255D01*
X015417Y029207D01*
X015316Y029013D02*
X015267Y028965D01*
X015171Y028965D01*
X015122Y029013D01*
X016565Y029133D02*
X016626Y029072D01*
X016688Y029072D01*
X016750Y029133D01*
X016750Y029257D01*
X016812Y029319D01*
X016873Y029319D01*
X016935Y029257D01*
X016935Y029133D01*
X016873Y029072D01*
X016812Y029072D01*
X016750Y029133D01*
X016750Y029257D02*
X016688Y029319D01*
X016626Y029319D01*
X016565Y029257D01*
X016565Y029133D01*
X016626Y028950D02*
X016750Y028950D01*
X016812Y028889D01*
X016812Y028703D01*
X016935Y028703D02*
X016565Y028703D01*
X016565Y028889D01*
X016626Y028950D01*
X016812Y028827D02*
X016935Y028950D01*
X017915Y029000D02*
X017976Y029062D01*
X018100Y029062D01*
X018162Y029000D01*
X018162Y028815D01*
X018285Y028815D02*
X017915Y028815D01*
X017915Y029000D01*
X018038Y029183D02*
X017915Y029307D01*
X018285Y029307D01*
X018285Y029430D02*
X018285Y029183D01*
X018285Y029062D02*
X018162Y028938D01*
X018690Y028895D02*
X018690Y028710D01*
X019060Y028710D01*
X018937Y028710D02*
X018937Y028895D01*
X018875Y028957D01*
X018751Y028957D01*
X018690Y028895D01*
X018813Y029078D02*
X018690Y029202D01*
X019060Y029202D01*
X019060Y029325D02*
X019060Y029078D01*
X019060Y028957D02*
X018937Y028833D01*
X019060Y029447D02*
X019060Y029694D01*
X019060Y029570D02*
X018690Y029570D01*
X018813Y029447D01*
X018285Y029613D02*
X018223Y029552D01*
X017976Y029799D01*
X018223Y029799D01*
X018285Y029737D01*
X018285Y029613D01*
X018223Y029552D02*
X017976Y029552D01*
X017915Y029613D01*
X017915Y029737D01*
X017976Y029799D01*
X020915Y029737D02*
X020915Y029613D01*
X020976Y029552D01*
X020915Y029737D02*
X020976Y029799D01*
X021038Y029799D01*
X021285Y029552D01*
X021285Y029799D01*
X021690Y029624D02*
X021690Y029377D01*
X021752Y029315D01*
X021875Y029315D01*
X021937Y029377D01*
X021937Y029500D01*
X021813Y029500D01*
X021690Y029624D02*
X021752Y029685D01*
X021875Y029685D01*
X021937Y029624D01*
X022058Y029685D02*
X022305Y029315D01*
X022305Y029685D01*
X022427Y029685D02*
X022612Y029685D01*
X022674Y029624D01*
X022674Y029377D01*
X022612Y029315D01*
X022427Y029315D01*
X022427Y029685D01*
X022058Y029685D02*
X022058Y029315D01*
X021285Y029307D02*
X020915Y029307D01*
X021038Y029183D01*
X020976Y029062D02*
X021100Y029062D01*
X021162Y029000D01*
X021162Y028815D01*
X021285Y028815D02*
X020915Y028815D01*
X020915Y029000D01*
X020976Y029062D01*
X021162Y028938D02*
X021285Y029062D01*
X021285Y029183D02*
X021285Y029430D01*
X023163Y029377D02*
X023163Y029315D01*
X023163Y029377D02*
X023410Y029624D01*
X023410Y029685D01*
X023163Y029685D01*
X023900Y029500D02*
X023900Y029377D01*
X023962Y029315D01*
X024085Y029315D01*
X024147Y029377D01*
X024147Y029438D01*
X024085Y029500D01*
X023900Y029500D01*
X024023Y029624D01*
X024147Y029685D01*
X025005Y029685D02*
X025005Y029500D01*
X025128Y029562D01*
X025190Y029562D01*
X025252Y029500D01*
X025252Y029377D01*
X025190Y029315D01*
X025067Y029315D01*
X025005Y029377D01*
X025005Y029685D02*
X025252Y029685D01*
X025741Y029500D02*
X025988Y029500D01*
X025927Y029315D02*
X025927Y029685D01*
X025741Y029500D01*
X026846Y029377D02*
X026908Y029315D01*
X027032Y029315D01*
X027093Y029377D01*
X027093Y029438D01*
X027032Y029500D01*
X026970Y029500D01*
X027032Y029500D02*
X027093Y029562D01*
X027093Y029624D01*
X027032Y029685D01*
X026908Y029685D01*
X026846Y029624D01*
X027951Y029624D02*
X028013Y029685D01*
X028137Y029685D01*
X028198Y029624D01*
X028198Y029562D01*
X027951Y029315D01*
X028198Y029315D01*
X028851Y027674D02*
X028790Y027612D01*
X028790Y027427D01*
X029160Y027427D01*
X029160Y027305D02*
X028790Y027305D01*
X028790Y027058D02*
X029160Y027058D01*
X029037Y027182D01*
X029160Y027305D01*
X029037Y027427D02*
X029037Y027612D01*
X028975Y027674D01*
X028851Y027674D01*
X029037Y027550D02*
X029160Y027674D01*
X028975Y026937D02*
X029037Y026875D01*
X029037Y026690D01*
X029160Y026690D02*
X028790Y026690D01*
X028790Y026875D01*
X028851Y026937D01*
X028975Y026937D01*
X028258Y026974D02*
X028258Y026727D01*
X028197Y026665D01*
X028012Y026665D01*
X028012Y027035D01*
X028197Y027035D01*
X028258Y026974D01*
X027890Y027035D02*
X027643Y026665D01*
X027522Y026665D02*
X027522Y026912D01*
X027398Y027035D01*
X027275Y026912D01*
X027275Y026665D01*
X027275Y026850D02*
X027522Y026850D01*
X027705Y026435D02*
X027643Y026374D01*
X027643Y026312D01*
X027705Y026250D01*
X027828Y026250D01*
X027890Y026188D01*
X027890Y026127D01*
X027828Y026065D01*
X027705Y026065D01*
X027643Y026127D01*
X027522Y026065D02*
X027275Y026065D01*
X027275Y026435D01*
X027153Y026435D02*
X026907Y026435D01*
X026907Y026065D01*
X027153Y026065D01*
X027030Y026250D02*
X026907Y026250D01*
X026785Y026065D02*
X026785Y026435D01*
X026785Y026665D02*
X026538Y026665D01*
X026538Y027035D01*
X026785Y027035D01*
X026662Y026850D02*
X026538Y026850D01*
X026417Y026850D02*
X026417Y026974D01*
X026355Y027035D01*
X026170Y027035D01*
X026170Y026665D01*
X026049Y026665D02*
X026049Y026912D01*
X025925Y027035D01*
X025802Y026912D01*
X025802Y026665D01*
X025802Y026850D02*
X026049Y026850D01*
X026170Y026788D02*
X026355Y026788D01*
X026417Y026850D01*
X026293Y026788D02*
X026417Y026665D01*
X026417Y026435D02*
X026417Y026065D01*
X026170Y026435D01*
X026170Y026065D01*
X026049Y026065D02*
X026049Y026312D01*
X025925Y026435D01*
X025802Y026312D01*
X025802Y026065D01*
X025680Y026065D02*
X025680Y026435D01*
X025680Y026250D02*
X025433Y026250D01*
X025312Y026127D02*
X025250Y026065D01*
X025127Y026065D01*
X025065Y026127D01*
X025065Y026374D01*
X025127Y026435D01*
X025250Y026435D01*
X025312Y026374D01*
X025433Y026435D02*
X025433Y026065D01*
X025802Y026250D02*
X026049Y026250D01*
X026538Y026065D02*
X026538Y026435D01*
X026785Y026065D01*
X027705Y026435D02*
X027828Y026435D01*
X027890Y026374D01*
X028790Y025563D02*
X028913Y025687D01*
X029160Y025687D01*
X028975Y025687D02*
X028975Y025440D01*
X028913Y025440D02*
X028790Y025563D01*
X028913Y025440D02*
X029160Y025440D01*
X029098Y024187D02*
X029160Y024125D01*
X029160Y023940D01*
X028790Y023940D01*
X028790Y024125D01*
X028851Y024187D01*
X028913Y024187D01*
X028975Y024125D01*
X028975Y023940D01*
X028975Y024125D02*
X029037Y024187D01*
X029098Y024187D01*
X029098Y022562D02*
X029160Y022500D01*
X029160Y022377D01*
X029098Y022315D01*
X028851Y022315D01*
X028790Y022377D01*
X028790Y022500D01*
X028851Y022562D01*
X028191Y022161D02*
X028191Y021915D01*
X027944Y022161D01*
X027882Y022161D01*
X027820Y022100D01*
X027820Y021976D01*
X027882Y021915D01*
X027882Y021793D02*
X027820Y021731D01*
X027820Y021608D01*
X027882Y021546D01*
X028129Y021546D01*
X028191Y021608D01*
X028191Y021731D01*
X028129Y021793D01*
X028915Y021362D02*
X028915Y021177D01*
X029285Y021177D01*
X029285Y021362D01*
X029223Y021424D01*
X028976Y021424D01*
X028915Y021362D01*
X028915Y021055D02*
X029285Y021055D01*
X028915Y020808D01*
X029285Y020808D01*
X029223Y020687D02*
X029100Y020687D01*
X029100Y020563D01*
X029223Y020440D02*
X028976Y020440D01*
X028915Y020502D01*
X028915Y020625D01*
X028976Y020687D01*
X029223Y020687D02*
X029285Y020625D01*
X029285Y020502D01*
X029223Y020440D01*
X029160Y019674D02*
X029037Y019550D01*
X029037Y019612D02*
X029037Y019427D01*
X029160Y019427D02*
X028790Y019427D01*
X028790Y019612D01*
X028851Y019674D01*
X028975Y019674D01*
X029037Y019612D01*
X029160Y019305D02*
X028790Y019305D01*
X028790Y019058D02*
X029160Y019058D01*
X029037Y019182D01*
X029160Y019305D01*
X028975Y018937D02*
X029037Y018875D01*
X029037Y018690D01*
X029160Y018690D02*
X028790Y018690D01*
X028790Y018875D01*
X028851Y018937D01*
X028975Y018937D01*
X028975Y017687D02*
X028975Y017440D01*
X028913Y017440D02*
X028790Y017563D01*
X028913Y017687D01*
X029160Y017687D01*
X029160Y017440D02*
X028913Y017440D01*
X028913Y016187D02*
X028975Y016125D01*
X028975Y015940D01*
X029160Y015940D02*
X029160Y016125D01*
X029098Y016187D01*
X029037Y016187D01*
X028975Y016125D01*
X028913Y016187D02*
X028851Y016187D01*
X028790Y016125D01*
X028790Y015940D01*
X029160Y015940D01*
X029098Y014562D02*
X029160Y014500D01*
X029160Y014377D01*
X029098Y014315D01*
X028851Y014315D01*
X028790Y014377D01*
X028790Y014500D01*
X028851Y014562D01*
X028976Y013424D02*
X028915Y013362D01*
X028915Y013177D01*
X029285Y013177D01*
X029285Y013362D01*
X029223Y013424D01*
X028976Y013424D01*
X028915Y013055D02*
X029285Y013055D01*
X028915Y012808D01*
X029285Y012808D01*
X029223Y012687D02*
X029100Y012687D01*
X029100Y012563D01*
X029223Y012440D02*
X028976Y012440D01*
X028915Y012502D01*
X028915Y012625D01*
X028976Y012687D01*
X029223Y012687D02*
X029285Y012625D01*
X029285Y012502D01*
X029223Y012440D01*
X029160Y011674D02*
X029037Y011550D01*
X029037Y011612D02*
X029037Y011427D01*
X029160Y011427D02*
X028790Y011427D01*
X028790Y011612D01*
X028851Y011674D01*
X028975Y011674D01*
X029037Y011612D01*
X029160Y011305D02*
X028790Y011305D01*
X028790Y011058D02*
X029160Y011058D01*
X029037Y011182D01*
X029160Y011305D01*
X028975Y010937D02*
X029037Y010875D01*
X029037Y010690D01*
X029160Y010690D02*
X028790Y010690D01*
X028790Y010875D01*
X028851Y010937D01*
X028975Y010937D01*
X028975Y009812D02*
X028975Y009565D01*
X028913Y009565D02*
X028790Y009688D01*
X028913Y009812D01*
X029160Y009812D01*
X029160Y009565D02*
X028913Y009565D01*
X028913Y008312D02*
X028975Y008250D01*
X028975Y008065D01*
X029160Y008065D02*
X028790Y008065D01*
X028790Y008250D01*
X028851Y008312D01*
X028913Y008312D01*
X028975Y008250D02*
X029037Y008312D01*
X029098Y008312D01*
X029160Y008250D01*
X029160Y008065D01*
X029098Y006562D02*
X029160Y006500D01*
X029160Y006377D01*
X029098Y006315D01*
X028851Y006315D01*
X028790Y006377D01*
X028790Y006500D01*
X028851Y006562D01*
X028976Y005424D02*
X028915Y005362D01*
X028915Y005177D01*
X029285Y005177D01*
X029285Y005362D01*
X029223Y005424D01*
X028976Y005424D01*
X028915Y005055D02*
X029285Y005055D01*
X028915Y004808D01*
X029285Y004808D01*
X029223Y004687D02*
X029100Y004687D01*
X029100Y004563D01*
X029223Y004440D02*
X028976Y004440D01*
X028915Y004502D01*
X028915Y004625D01*
X028976Y004687D01*
X029223Y004687D02*
X029285Y004625D01*
X029285Y004502D01*
X029223Y004440D01*
X029258Y003065D02*
X029065Y003065D01*
X029065Y002775D01*
X029258Y002775D01*
X029360Y002775D02*
X029553Y003065D01*
X029654Y003065D02*
X029848Y003065D01*
X029751Y003065D02*
X029751Y002775D01*
X029799Y002585D02*
X029654Y002585D01*
X029654Y002295D01*
X029654Y002392D02*
X029799Y002392D01*
X029848Y002440D01*
X029848Y002537D01*
X029799Y002585D01*
X029751Y002392D02*
X029848Y002295D01*
X029851Y002105D02*
X030044Y002105D01*
X029947Y002105D02*
X029947Y001815D01*
X029751Y001815D02*
X029654Y001815D01*
X029703Y001815D02*
X029703Y002105D01*
X029751Y002105D02*
X029654Y002105D01*
X029553Y002105D02*
X029553Y001815D01*
X029456Y001912D01*
X029360Y001815D01*
X029360Y002105D01*
X029258Y002057D02*
X029210Y002105D01*
X029113Y002105D01*
X029065Y002057D01*
X029065Y002008D01*
X029113Y001960D01*
X029210Y001960D01*
X029258Y001912D01*
X029258Y001863D01*
X029210Y001815D01*
X029113Y001815D01*
X029065Y001863D01*
X029065Y002295D02*
X029065Y002585D01*
X029210Y002585D01*
X029258Y002537D01*
X029258Y002440D01*
X029210Y002392D01*
X029065Y002392D01*
X029360Y002295D02*
X029360Y002585D01*
X029553Y002585D02*
X029553Y002295D01*
X029456Y002392D01*
X029360Y002295D01*
X029553Y002775D02*
X029360Y003065D01*
X029162Y002920D02*
X029065Y002920D01*
X030145Y002057D02*
X030145Y001863D01*
X030194Y001815D01*
X030291Y001815D01*
X030339Y001863D01*
X030440Y001815D02*
X030440Y002105D01*
X030339Y002057D02*
X030291Y002105D01*
X030194Y002105D01*
X030145Y002057D01*
X030440Y001960D02*
X030634Y001960D01*
X030634Y002105D02*
X030634Y001815D01*
X021488Y005440D02*
X021365Y005563D01*
X021427Y005563D02*
X021241Y005563D01*
X021241Y005440D02*
X021241Y005810D01*
X021427Y005810D01*
X021488Y005749D01*
X021488Y005625D01*
X021427Y005563D01*
X021120Y005440D02*
X020873Y005440D01*
X020873Y005810D01*
X021120Y005810D01*
X020997Y005625D02*
X020873Y005625D01*
X020752Y005440D02*
X020752Y005810D01*
X020505Y005810D02*
X020505Y005440D01*
X020628Y005563D01*
X020752Y005440D01*
X020383Y005502D02*
X020383Y005749D01*
X020322Y005810D01*
X020198Y005810D01*
X020137Y005749D01*
X020137Y005502D01*
X020198Y005440D01*
X020322Y005440D01*
X020383Y005502D01*
X020015Y005625D02*
X019953Y005563D01*
X019768Y005563D01*
X019768Y005440D02*
X019768Y005810D01*
X019953Y005810D01*
X020015Y005749D01*
X020015Y005625D01*
X019278Y005625D02*
X019217Y005563D01*
X019032Y005563D01*
X019032Y005440D02*
X019032Y005810D01*
X019217Y005810D01*
X019278Y005749D01*
X019278Y005625D01*
X019155Y005563D02*
X019278Y005440D01*
X018910Y005440D02*
X018663Y005440D01*
X018663Y005810D01*
X018910Y005810D01*
X018787Y005625D02*
X018663Y005625D01*
X018542Y005625D02*
X018295Y005625D01*
X018295Y005440D02*
X018295Y005810D01*
X018174Y005810D02*
X017927Y005810D01*
X017805Y005810D02*
X017558Y005810D01*
X017558Y005440D01*
X017805Y005440D01*
X017682Y005625D02*
X017558Y005625D01*
X017437Y005810D02*
X017190Y005810D01*
X017313Y005810D02*
X017313Y005440D01*
X018050Y005440D02*
X018050Y005810D01*
X018542Y005810D02*
X018542Y005440D01*
X021132Y016171D02*
X021070Y016233D01*
X021070Y016356D01*
X021132Y016418D01*
X021070Y016540D02*
X021255Y016540D01*
X021194Y016663D01*
X021194Y016725D01*
X021255Y016786D01*
X021379Y016786D01*
X021441Y016725D01*
X021441Y016601D01*
X021379Y016540D01*
X021379Y016418D02*
X021441Y016356D01*
X021441Y016233D01*
X021379Y016171D01*
X021132Y016171D01*
X021070Y016540D02*
X021070Y016786D01*
X025347Y018257D02*
X025409Y018196D01*
X025532Y018196D01*
X025594Y018257D01*
X025715Y018257D02*
X025777Y018196D01*
X025901Y018196D01*
X025962Y018257D01*
X025962Y018319D01*
X025901Y018381D01*
X025839Y018381D01*
X025901Y018381D02*
X025962Y018442D01*
X025962Y018504D01*
X025901Y018566D01*
X025777Y018566D01*
X025715Y018504D01*
X025594Y018504D02*
X025532Y018566D01*
X025409Y018566D01*
X025347Y018504D01*
X025347Y018257D01*
X023850Y022784D02*
X023726Y022784D01*
X023665Y022846D01*
X023665Y022970D01*
X023850Y022970D01*
X023911Y022908D01*
X023911Y022846D01*
X023850Y022784D01*
X023665Y022970D02*
X023788Y023093D01*
X023911Y023155D01*
X023543Y023093D02*
X023481Y023155D01*
X023358Y023155D01*
X023296Y023093D01*
X023296Y022846D01*
X023358Y022784D01*
X023481Y022784D01*
X023543Y022846D01*
X021372Y022877D02*
X021311Y022815D01*
X021187Y022815D01*
X021125Y022877D01*
X021187Y023000D02*
X021311Y023000D01*
X021372Y022938D01*
X021372Y022877D01*
X021187Y023000D02*
X021125Y023062D01*
X021125Y023124D01*
X021187Y023185D01*
X021311Y023185D01*
X021372Y023124D01*
X021004Y023124D02*
X021004Y023000D01*
X020942Y022938D01*
X020757Y022938D01*
X020757Y022815D02*
X020757Y023185D01*
X020942Y023185D01*
X021004Y023124D01*
X020636Y023185D02*
X020636Y022877D01*
X020574Y022815D01*
X020450Y022815D01*
X020389Y022877D01*
X020389Y023185D01*
X020020Y023185D02*
X020020Y022815D01*
X020267Y022815D01*
X019899Y022815D02*
X019652Y022815D01*
X019652Y023185D01*
X019531Y023185D02*
X019531Y022877D01*
X019469Y022815D01*
X019346Y022815D01*
X019284Y022877D01*
X019284Y023185D01*
X019162Y023124D02*
X019162Y023000D01*
X019101Y022938D01*
X018915Y022938D01*
X018915Y022815D02*
X018915Y023185D01*
X019101Y023185D01*
X019162Y023124D01*
X018426Y023124D02*
X018364Y023185D01*
X018241Y023185D01*
X018179Y023124D01*
X018179Y022877D01*
X018241Y022815D01*
X018364Y022815D01*
X018426Y022877D01*
X018057Y022815D02*
X017811Y022815D01*
X018057Y023062D01*
X018057Y023124D01*
X017996Y023185D01*
X017872Y023185D01*
X017811Y023124D01*
X017688Y023185D02*
X017565Y023185D01*
X017627Y023185D02*
X017627Y022815D01*
X017688Y022815D02*
X017565Y022815D01*
X017569Y025440D02*
X017507Y025502D01*
X017569Y025440D02*
X017692Y025440D01*
X017754Y025502D01*
X017754Y025563D01*
X017692Y025625D01*
X017569Y025625D01*
X017507Y025687D01*
X017507Y025749D01*
X017569Y025810D01*
X017692Y025810D01*
X017754Y025749D01*
X017875Y025749D02*
X017875Y025687D01*
X017937Y025625D01*
X018061Y025625D01*
X018122Y025563D01*
X018122Y025502D01*
X018061Y025440D01*
X017937Y025440D01*
X017875Y025502D01*
X017875Y025749D02*
X017937Y025810D01*
X018061Y025810D01*
X018122Y025749D01*
X018275Y026065D02*
X018275Y026312D01*
X018398Y026435D01*
X018522Y026312D01*
X018522Y026065D01*
X018643Y026127D02*
X018890Y026374D01*
X018890Y026127D01*
X018828Y026065D01*
X018705Y026065D01*
X018643Y026127D01*
X018643Y026374D01*
X018705Y026435D01*
X018828Y026435D01*
X018890Y026374D01*
X019123Y026627D02*
X019370Y026874D01*
X019370Y026627D01*
X019308Y026565D01*
X019185Y026565D01*
X019123Y026627D01*
X019123Y026874D01*
X019185Y026935D01*
X019308Y026935D01*
X019370Y026874D01*
X018522Y026250D02*
X018275Y026250D01*
X018265Y026565D02*
X018018Y026565D01*
X018142Y026565D02*
X018142Y026935D01*
X018018Y026812D01*
X017160Y026874D02*
X017160Y026627D01*
X017098Y026565D01*
X016975Y026565D01*
X016913Y026627D01*
X017160Y026874D01*
X017098Y026935D01*
X016975Y026935D01*
X016913Y026874D01*
X016913Y026627D01*
X016557Y026435D02*
X016557Y026065D01*
X016680Y026065D02*
X016433Y026065D01*
X016312Y026065D02*
X016312Y026312D01*
X016188Y026435D01*
X016065Y026312D01*
X016065Y026065D01*
X016065Y026250D02*
X016312Y026250D01*
X016433Y026312D02*
X016557Y026435D01*
X016055Y026565D02*
X015808Y026565D01*
X015932Y026565D02*
X015932Y026935D01*
X015808Y026812D01*
X015789Y025810D02*
X015912Y025687D01*
X015912Y025440D01*
X016034Y025440D02*
X016219Y025440D01*
X016281Y025502D01*
X016281Y025749D01*
X016219Y025810D01*
X016034Y025810D01*
X016034Y025440D01*
X015912Y025625D02*
X015665Y025625D01*
X015665Y025687D02*
X015789Y025810D01*
X015665Y025687D02*
X015665Y025440D01*
X015176Y025502D02*
X015114Y025440D01*
X014991Y025440D01*
X014929Y025502D01*
X014929Y025749D01*
X014991Y025810D01*
X015114Y025810D01*
X015176Y025749D01*
X014807Y025749D02*
X014807Y025687D01*
X014561Y025440D01*
X014807Y025440D01*
X014807Y025749D02*
X014746Y025810D01*
X014622Y025810D01*
X014561Y025749D01*
X014438Y025810D02*
X014315Y025810D01*
X014377Y025810D02*
X014377Y025440D01*
X014438Y025440D02*
X014315Y025440D01*
X016402Y025440D02*
X016587Y025440D01*
X016649Y025502D01*
X016649Y025749D01*
X016587Y025810D01*
X016402Y025810D01*
X016402Y025440D01*
X016770Y025440D02*
X016770Y025810D01*
X016956Y025810D01*
X017017Y025749D01*
X017017Y025625D01*
X016956Y025563D01*
X016770Y025563D01*
X016894Y025563D02*
X017017Y025440D01*
X017139Y025440D02*
X017139Y025810D01*
X017386Y025810D01*
X017262Y025625D02*
X017139Y025625D01*
X017139Y025440D02*
X017386Y025440D01*
X018612Y025502D02*
X018674Y025440D01*
X018797Y025440D01*
X018859Y025502D01*
X018859Y025563D01*
X018797Y025625D01*
X018674Y025625D01*
X018612Y025687D01*
X018612Y025749D01*
X018674Y025810D01*
X018797Y025810D01*
X018859Y025749D01*
X018980Y025810D02*
X018980Y025440D01*
X019227Y025440D01*
X019349Y025440D02*
X019596Y025440D01*
X019717Y025440D02*
X019964Y025440D01*
X020085Y025502D02*
X020147Y025440D01*
X020270Y025440D01*
X020332Y025502D01*
X020332Y025749D02*
X020270Y025810D01*
X020147Y025810D01*
X020085Y025749D01*
X020085Y025502D01*
X019840Y025625D02*
X019717Y025625D01*
X019717Y025810D02*
X019717Y025440D01*
X019349Y025440D02*
X019349Y025810D01*
X019227Y025810D02*
X018980Y025810D01*
X018980Y025625D02*
X019104Y025625D01*
X019717Y025810D02*
X019964Y025810D01*
X020454Y025810D02*
X020700Y025810D01*
X020822Y025810D02*
X020945Y025810D01*
X020884Y025810D02*
X020884Y025440D01*
X020945Y025440D02*
X020822Y025440D01*
X020577Y025440D02*
X020577Y025810D01*
X021067Y025749D02*
X021067Y025502D01*
X021129Y025440D01*
X021253Y025440D01*
X021314Y025502D01*
X021314Y025749D01*
X021253Y025810D01*
X021129Y025810D01*
X021067Y025749D01*
X021436Y025810D02*
X021683Y025440D01*
X021683Y025810D01*
X021436Y025810D02*
X021436Y025440D01*
X021407Y026821D02*
X021469Y026882D01*
X021407Y026821D02*
X021284Y026821D01*
X021222Y026882D01*
X021222Y027129D01*
X021284Y027191D01*
X021407Y027191D01*
X021469Y027129D01*
X021590Y027006D02*
X021837Y027006D01*
X021776Y027191D02*
X021590Y027006D01*
X021776Y026821D02*
X021776Y027191D01*
X025065Y026974D02*
X025065Y026912D01*
X025127Y026850D01*
X025250Y026850D01*
X025312Y026788D01*
X025312Y026727D01*
X025250Y026665D01*
X025127Y026665D01*
X025065Y026727D01*
X025065Y026974D02*
X025127Y027035D01*
X025250Y027035D01*
X025312Y026974D01*
X025433Y027035D02*
X025618Y027035D01*
X025680Y026974D01*
X025680Y026850D01*
X025618Y026788D01*
X025433Y026788D01*
X025433Y026665D02*
X025433Y027035D01*
X013253Y029255D02*
X013060Y029255D01*
X013060Y029110D02*
X013156Y029110D01*
X003771Y006974D02*
X003771Y006727D01*
X003832Y006665D01*
X003832Y006912D02*
X003709Y006912D01*
X003588Y006850D02*
X003588Y006788D01*
X003341Y006788D01*
X003341Y006727D02*
X003341Y006850D01*
X003402Y006912D01*
X003526Y006912D01*
X003588Y006850D01*
X003526Y006665D02*
X003402Y006665D01*
X003341Y006727D01*
X003219Y006665D02*
X003219Y006850D01*
X003158Y006912D01*
X002972Y006912D01*
X002972Y006665D01*
X002851Y006912D02*
X002789Y006912D01*
X002665Y006788D01*
X002544Y006788D02*
X002297Y006788D01*
X002297Y006727D02*
X002297Y006850D01*
X002359Y006912D01*
X002482Y006912D01*
X002544Y006850D01*
X002544Y006788D01*
X002482Y006665D02*
X002359Y006665D01*
X002297Y006727D01*
X002176Y006665D02*
X002176Y006850D01*
X002114Y006912D01*
X001991Y006912D01*
X001929Y006850D01*
X001807Y006912D02*
X001683Y006912D01*
X001745Y006974D02*
X001745Y006727D01*
X001807Y006665D01*
X001929Y006665D02*
X001929Y007035D01*
X001562Y007035D02*
X001315Y007035D01*
X001315Y006665D01*
X001562Y006665D01*
X001438Y006850D02*
X001315Y006850D01*
X001438Y006435D02*
X001315Y006312D01*
X001315Y006065D01*
X001315Y006250D02*
X001562Y006250D01*
X001562Y006312D02*
X001562Y006065D01*
X001683Y006127D02*
X001683Y006250D01*
X001745Y006312D01*
X001930Y006312D01*
X001930Y006435D02*
X001930Y006065D01*
X001745Y006065D01*
X001683Y006127D01*
X001562Y006312D02*
X001438Y006435D01*
X002113Y006312D02*
X002237Y006312D01*
X002299Y006250D01*
X002299Y006065D01*
X002113Y006065D01*
X002052Y006127D01*
X002113Y006188D01*
X002299Y006188D01*
X002420Y006065D02*
X002605Y006065D01*
X002667Y006127D01*
X002667Y006250D01*
X002605Y006312D01*
X002420Y006312D01*
X002420Y005942D01*
X002850Y006127D02*
X002850Y006374D01*
X002788Y006312D02*
X002912Y006312D01*
X003034Y006250D02*
X003034Y006127D01*
X003096Y006065D01*
X003219Y006065D01*
X003281Y006188D02*
X003034Y006188D01*
X003034Y006250D02*
X003096Y006312D01*
X003219Y006312D01*
X003281Y006250D01*
X003281Y006188D01*
X003402Y006188D02*
X003526Y006312D01*
X003587Y006312D01*
X003402Y006312D02*
X003402Y006065D01*
X002912Y006065D02*
X002850Y006127D01*
X002665Y006665D02*
X002665Y006912D01*
X004279Y004337D02*
X004279Y004090D01*
X004279Y004214D02*
X003909Y004214D01*
X004033Y004090D01*
X003971Y003969D02*
X003909Y003907D01*
X003909Y003784D01*
X003971Y003722D01*
X004218Y003722D01*
X004279Y003784D01*
X004279Y003907D01*
X004218Y003969D01*
D14*
X006536Y004532D02*
X006836Y004532D01*
X006686Y004532D02*
X006686Y004081D01*
X006996Y004231D02*
X006996Y004532D01*
X007296Y004532D02*
X007296Y004231D01*
X007146Y004081D01*
X006996Y004231D01*
X007456Y004156D02*
X007531Y004081D01*
X007682Y004081D01*
X007757Y004156D01*
X007757Y004231D01*
X007682Y004306D01*
X007531Y004306D01*
X007456Y004382D01*
X007456Y004457D01*
X007531Y004532D01*
X007682Y004532D01*
X007757Y004457D01*
X007917Y004382D02*
X008067Y004532D01*
X008067Y004081D01*
X007917Y004081D02*
X008217Y004081D01*
X007300Y008800D02*
X007300Y024800D01*
X011800Y024800D01*
X016300Y024800D01*
X016300Y008800D01*
X011800Y008800D01*
X011800Y024800D01*
X010050Y027300D02*
X009175Y027300D01*
X009175Y029300D01*
X010050Y029300D01*
X010050Y027300D01*
X009175Y027300D02*
X009050Y027300D01*
X009050Y029300D01*
X009175Y029300D01*
X020800Y022050D02*
X021050Y022050D01*
X021050Y022300D01*
X021050Y022050D02*
X021050Y021800D01*
X021050Y022050D02*
X021300Y022050D01*
X024550Y021050D02*
X024800Y021050D01*
X024800Y020800D01*
X024800Y021050D02*
X025050Y021050D01*
X024800Y021050D02*
X024800Y021300D01*
X021700Y013476D02*
X021775Y013401D01*
X021775Y013250D01*
X021700Y013175D01*
X021700Y013015D02*
X021325Y013015D01*
X021400Y013175D02*
X021325Y013250D01*
X021325Y013401D01*
X021400Y013476D01*
X021475Y013476D01*
X021550Y013401D01*
X021625Y013476D01*
X021700Y013476D01*
X021550Y013401D02*
X021550Y013326D01*
X021700Y013015D02*
X021775Y012940D01*
X021775Y012790D01*
X021700Y012715D01*
X021325Y012715D01*
X020925Y010550D02*
X020925Y008550D01*
X020800Y008550D01*
X020800Y010550D01*
X020925Y010550D01*
X021800Y010550D01*
X021800Y008550D01*
X020925Y008550D01*
X021900Y005525D02*
X021825Y005450D01*
X021825Y005150D01*
X021900Y005075D01*
X022050Y005075D01*
X022125Y005150D01*
X022125Y005450D01*
X022050Y005525D01*
X021900Y005525D01*
X022285Y005450D02*
X022285Y005150D01*
X022360Y005075D01*
X022511Y005075D01*
X022586Y005150D01*
X022746Y005075D02*
X023046Y005075D01*
X022896Y005075D02*
X022896Y005525D01*
X022746Y005375D01*
X022586Y005450D02*
X022511Y005525D01*
X022360Y005525D01*
X022285Y005450D01*
X025052Y008450D02*
X025255Y008450D01*
X025357Y008552D01*
X025357Y008755D01*
X025154Y008755D01*
X025357Y008959D02*
X025255Y009061D01*
X025052Y009061D01*
X024950Y008959D01*
X024950Y008552D01*
X025052Y008450D01*
X025558Y008450D02*
X025558Y009061D01*
X025965Y008450D01*
X025965Y009061D01*
X026165Y009061D02*
X026471Y009061D01*
X026572Y008959D01*
X026572Y008552D01*
X026471Y008450D01*
X026165Y008450D01*
X026165Y009061D01*
X027381Y008755D02*
X027788Y008755D01*
X027584Y008552D02*
X027584Y008959D01*
X011800Y008800D02*
X007300Y008800D01*
D15*
X002850Y017000D02*
X002850Y017100D01*
X002850Y017000D02*
X002750Y017000D01*
X002350Y017000D02*
X002250Y017000D01*
X002250Y017100D01*
X002250Y017500D02*
X002250Y017600D01*
X002350Y017600D01*
X002750Y017600D02*
X002850Y017600D01*
X002850Y017500D01*
X010500Y026375D02*
X010600Y026375D01*
X010500Y026375D02*
X010500Y026475D01*
X010500Y026875D02*
X010500Y026975D01*
X010600Y026975D01*
X011000Y026975D02*
X011100Y026975D01*
X011100Y026875D01*
X011100Y026475D02*
X011100Y026375D01*
X011000Y026375D01*
X011750Y027000D02*
X011850Y027000D01*
X011750Y027000D02*
X011750Y027100D01*
X011750Y027500D02*
X011750Y027600D01*
X011850Y027600D01*
X012250Y027600D02*
X012350Y027600D01*
X012350Y027500D01*
X012350Y027100D02*
X012350Y027000D01*
X012250Y027000D01*
X012750Y027000D02*
X012850Y027000D01*
X012750Y027000D02*
X012750Y027100D01*
X012750Y027500D02*
X012750Y027600D01*
X012850Y027600D01*
X012850Y028000D02*
X012750Y028000D01*
X012750Y028100D01*
X012750Y028500D02*
X012750Y028600D01*
X012850Y028600D01*
X013250Y028600D02*
X013350Y028600D01*
X013350Y028500D01*
X013350Y028100D02*
X013350Y028000D01*
X013250Y028000D01*
X013250Y027600D02*
X013350Y027600D01*
X013350Y027500D01*
X013350Y027100D02*
X013350Y027000D01*
X013250Y027000D01*
X022090Y014550D02*
X022090Y014170D01*
X022090Y013930D01*
X022090Y013550D01*
X022090Y013930D02*
X022111Y013932D01*
X022131Y013937D01*
X022150Y013946D01*
X022167Y013958D01*
X022182Y013973D01*
X022194Y013990D01*
X022203Y014009D01*
X022208Y014029D01*
X022210Y014050D01*
X022208Y014071D01*
X022203Y014091D01*
X022194Y014110D01*
X022182Y014127D01*
X022167Y014142D01*
X022150Y014154D01*
X022131Y014163D01*
X022111Y014168D01*
X022090Y014170D01*
X024010Y014550D02*
X024010Y013550D01*
X025052Y004776D02*
X022548Y004776D01*
X022548Y001333D01*
X022751Y001333D01*
X022751Y004737D01*
X025052Y004776D02*
X025052Y001333D01*
X022751Y001333D01*
X017507Y004400D02*
X017080Y004400D01*
X017294Y004187D02*
X017294Y004614D01*
D16*
X026800Y003800D02*
X026800Y003050D01*
X028800Y003050D01*
X028800Y001300D01*
X026800Y001300D01*
X026800Y003050D01*
X026800Y003800D02*
X028800Y003800D01*
X028800Y003050D01*
X006345Y003452D02*
X005774Y003452D01*
X006050Y003865D01*
X006345Y003452D01*
X003550Y003550D02*
X002800Y003550D01*
X002800Y005550D01*
X003550Y005550D01*
X003550Y003550D01*
X002800Y003550D02*
X001050Y003550D01*
X001050Y005550D01*
X002800Y005550D01*
X004800Y026050D02*
X004800Y030050D01*
X006550Y030050D01*
X006550Y026050D01*
X004800Y026050D01*
X006550Y026050D02*
X007300Y026050D01*
X007300Y030050D01*
X006550Y030050D01*
X021550Y029800D02*
X021550Y029050D01*
X028550Y029050D01*
X028550Y027300D01*
X021550Y027300D01*
X021550Y029050D01*
X021550Y029800D02*
X028550Y029800D01*
X028550Y029050D01*
D17*
X028650Y027879D02*
X028650Y020211D01*
X032499Y020211D01*
X032499Y020920D01*
X031544Y020920D01*
X031544Y027170D01*
X032499Y027170D01*
X032499Y027879D01*
X028650Y027879D01*
X032499Y027170D02*
X032499Y020920D01*
X032499Y019879D02*
X028650Y019879D01*
X028650Y012211D01*
X032499Y012211D01*
X032499Y012920D01*
X031544Y012920D01*
X031544Y019170D01*
X032499Y019170D01*
X032499Y019879D01*
X032499Y019170D02*
X032499Y012920D01*
X032499Y011879D02*
X028650Y011879D01*
X028650Y004211D01*
X032499Y004211D01*
X032499Y004920D01*
X031544Y004920D01*
X031544Y011170D01*
X032499Y011170D01*
X032499Y011879D01*
X032499Y011170D02*
X032499Y004920D01*
X028040Y009351D02*
X028040Y013200D01*
X025050Y013200D01*
X025050Y009351D01*
X025759Y009351D01*
X025759Y010306D01*
X027331Y010306D01*
X027331Y009351D01*
X028040Y009351D01*
X027331Y009351D02*
X025759Y009351D01*
X023601Y006753D02*
X023326Y006753D01*
X023601Y006753D02*
X023601Y006221D01*
X023168Y005847D02*
X022932Y005847D01*
X022499Y006221D02*
X022499Y006753D01*
X022774Y006753D01*
X020800Y005249D02*
X020800Y001400D01*
X017810Y001400D01*
X017810Y005249D01*
X018519Y005249D01*
X018519Y004294D01*
X020091Y004294D01*
X020091Y005249D01*
X018519Y005249D01*
X020091Y005249D02*
X020800Y005249D01*
X015127Y005800D02*
X014586Y006194D01*
X014586Y005406D01*
X015127Y005800D01*
X014586Y003444D02*
X014586Y002656D01*
X015127Y003050D01*
X014586Y003444D01*
X009377Y003050D02*
X008836Y003444D01*
X008836Y002656D01*
X009377Y003050D01*
X008836Y005406D02*
X008836Y006194D01*
X009377Y005800D01*
X008836Y005406D01*
X022260Y018350D02*
X024840Y018350D01*
X024840Y019750D01*
X022260Y019750D01*
X022260Y018350D01*
X022456Y024539D02*
X024144Y024539D01*
X024144Y026561D01*
X022456Y026561D01*
X022456Y024539D01*
X023735Y024808D02*
X023737Y024832D01*
X023743Y024856D01*
X023752Y024878D01*
X023764Y024899D01*
X023780Y024917D01*
X023798Y024933D01*
X023819Y024945D01*
X023841Y024954D01*
X023865Y024960D01*
X023889Y024962D01*
X023913Y024960D01*
X023937Y024954D01*
X023959Y024945D01*
X023980Y024933D01*
X023998Y024917D01*
X024014Y024899D01*
X024026Y024878D01*
X024035Y024856D01*
X024041Y024832D01*
X024043Y024808D01*
X024041Y024784D01*
X024035Y024760D01*
X024026Y024738D01*
X024014Y024717D01*
X023998Y024699D01*
X023980Y024683D01*
X023959Y024671D01*
X023937Y024662D01*
X023913Y024656D01*
X023889Y024654D01*
X023865Y024656D01*
X023841Y024662D01*
X023819Y024671D01*
X023798Y024683D01*
X023780Y024699D01*
X023764Y024717D01*
X023752Y024738D01*
X023743Y024760D01*
X023737Y024784D01*
X023735Y024808D01*
D18*
X032300Y027550D03*
X032300Y019550D03*
X032300Y011550D03*
D19*
X015381Y005800D03*
X015381Y003050D03*
X009631Y003050D03*
X009631Y005800D03*
D20*
X023013Y004428D03*
D21*
X006050Y003885D03*
M02*
