%
M48
M72
T01C0.0236
T02C0.0276
T03C0.0360
T04C0.0394
T05C0.0400
T06C0.0591
T07C0.0669
T08C0.0710
T09C0.1180
T10C0.1260
%
T01
X13800Y23300
X13050Y24550
X16300Y23300
X19300Y24550
X25550Y19300
T02
X26300Y18550
X23800Y21300
X17425Y29050
T03
X13050Y28300
X13050Y27300
X12050Y27300
X10800Y26675
X2550Y17300
T04
X2550Y16050
X11050Y23425
X14550Y27300
X15050Y29675
X22050Y28550
X23050Y28550
X24050Y28550
X25050Y28550
X26050Y28550
X27050Y28550
X28050Y28550
X29800Y29550
X23550Y19050
X18050Y18800
X12550Y18800
X6050Y26550
X6050Y27550
X6050Y28550
X6050Y29550
X3300Y29800
X12800Y8050
X12050Y1550
X2300Y4050
X2300Y5050
X27300Y2550
X28300Y2550
T05
X3550Y3150
T06
X17450Y7650
T07
X18520Y3300
X20080Y3300
X25770Y11300
X27330Y11300
T08
X30550Y11168
X30550Y9609
X30550Y8050
X30550Y6491
X30550Y4932
X30550Y12932
X30550Y14491
X30550Y16050
X30550Y17609
X30550Y19168
X30550Y20932
X30550Y22491
X30550Y24050
X30550Y25609
X30550Y27168
X6300Y23400
X6300Y21750
X6300Y20100
X6300Y18450
X6300Y16800
X6300Y15150
X6300Y13500
X6300Y11850
X6300Y10200
X4130Y10200
X4130Y11850
X4130Y13500
X4130Y15150
X4130Y16800
X4130Y18450
X4130Y20100
X4130Y21750
X4130Y23400
T09
X9170Y23400
X9170Y10200
T10
X1800Y1800
X1800Y29300
X31800Y29300
X31800Y1800
M30
