G75*
G70*
%OFA0B0*%
%FSLAX24Y24*%
%IPPOS*%
%LPD*%
%AMOC8*
5,1,8,0,0,1.08239X$1,22.5*
%
%ADD10C,0.1340*%
%ADD11C,0.0674*%
%ADD12C,0.1145*%
%ADD13C,0.1084*%
%ADD14R,0.0592X0.0671*%
%ADD15R,0.0671X0.0592*%
%ADD16R,0.0592X0.0710*%
%ADD17R,0.1182X0.1576*%
%ADD18R,0.0678X0.0781*%
%ADD19R,0.0946X0.0316*%
%ADD20R,0.0474X0.0552*%
%ADD21R,0.0710X0.0790*%
%ADD22R,0.0749X0.0789*%
%ADD23C,0.1145*%
%ADD24C,0.1260*%
%ADD25R,0.0710X0.0592*%
%ADD26R,0.0552X0.0237*%
%ADD27R,0.0560X0.0960*%
%ADD28R,0.1497X0.0946*%
%ADD29R,0.0848X0.0671*%
%ADD30R,0.0671X0.0848*%
%ADD31OC8,0.0710*%
%ADD32R,0.0300X0.0860*%
%ADD33C,0.0516*%
%ADD34C,0.0671*%
%ADD35C,0.0476*%
%ADD36C,0.0680*%
%ADD37C,0.0966*%
D10*
X001800Y001800D03*
X001800Y029300D03*
X031800Y029300D03*
X031800Y001800D03*
D11*
X028300Y002253D02*
X028300Y002847D01*
X027300Y002847D02*
X027300Y002253D01*
X002597Y004050D02*
X002003Y004050D01*
X002003Y005050D02*
X002597Y005050D01*
X005753Y026550D02*
X006347Y026550D01*
X006347Y027550D02*
X005753Y027550D01*
X005753Y028550D02*
X006347Y028550D01*
X006347Y029550D02*
X005753Y029550D01*
X022050Y028847D02*
X022050Y028253D01*
X023050Y028253D02*
X023050Y028847D01*
X024050Y028847D02*
X024050Y028253D01*
X025050Y028253D02*
X025050Y028847D01*
X026050Y028847D02*
X026050Y028253D01*
X027050Y028253D02*
X027050Y028847D01*
X028050Y028847D02*
X028050Y028253D01*
D12*
X030018Y027168D02*
X031083Y027168D01*
X031083Y025609D02*
X030018Y025609D01*
X030018Y024050D02*
X031083Y024050D01*
X031083Y022491D02*
X030018Y022491D01*
X030018Y020932D02*
X031083Y020932D01*
X031083Y019168D02*
X030018Y019168D01*
X030018Y017609D02*
X031083Y017609D01*
X031083Y016050D02*
X030018Y016050D01*
X030018Y014491D02*
X031083Y014491D01*
X031083Y012932D02*
X030018Y012932D01*
X030018Y011168D02*
X031083Y011168D01*
X031083Y009609D02*
X030018Y009609D01*
X030018Y008050D02*
X031083Y008050D01*
X031083Y006491D02*
X030018Y006491D01*
X030018Y004932D02*
X031083Y004932D01*
D13*
X027330Y010798D02*
X027330Y011802D01*
X025770Y011802D02*
X025770Y010798D01*
X020080Y003802D02*
X020080Y002798D01*
X018520Y002798D02*
X018520Y003802D01*
D14*
X018676Y006425D03*
X019424Y006425D03*
X026676Y005300D03*
X027424Y005300D03*
X024924Y016300D03*
X024176Y016300D03*
X026676Y024300D03*
X027424Y024300D03*
X020424Y029425D03*
X019676Y029425D03*
D15*
X019175Y028174D03*
X019175Y027426D03*
X018300Y027426D03*
X018300Y028174D03*
X016925Y028174D03*
X016925Y027426D03*
X015925Y027426D03*
X015925Y028174D03*
X018550Y024924D03*
X018550Y024176D03*
X020300Y023926D03*
X020300Y024674D03*
X027050Y021424D03*
X027050Y020676D03*
X025300Y006674D03*
X025300Y005926D03*
D16*
X022694Y016550D03*
X021906Y016550D03*
X025656Y017550D03*
X026444Y017550D03*
X026906Y022800D03*
X027694Y022800D03*
X022944Y023550D03*
X022156Y023550D03*
D17*
X016257Y005800D03*
X016257Y003050D03*
X013343Y003050D03*
X010507Y003050D03*
X010507Y005800D03*
X013343Y005800D03*
X007593Y005800D03*
X007593Y003050D03*
D18*
X021971Y003050D03*
X021971Y002050D03*
X021971Y004050D03*
X025629Y004050D03*
X025629Y003050D03*
X025629Y002050D03*
D19*
X022324Y008800D03*
X022324Y009300D03*
X022324Y009800D03*
X022324Y010300D03*
X020276Y010300D03*
X020276Y009800D03*
X020276Y009300D03*
X020276Y008800D03*
X010574Y027550D03*
X010574Y028050D03*
X010574Y028550D03*
X010574Y029050D03*
X008526Y029050D03*
X008526Y028550D03*
X008526Y028050D03*
X008526Y027550D03*
D20*
X023050Y006694D03*
X022656Y005906D03*
X023444Y005906D03*
D21*
X005860Y005550D03*
X004740Y005550D03*
X004740Y001300D03*
X005860Y001300D03*
D22*
X006050Y002743D03*
X006050Y004357D03*
D23*
X006300Y010200D03*
X006300Y011850D03*
X006300Y013500D03*
X006300Y015150D03*
X006300Y016800D03*
X006300Y018450D03*
X006300Y020100D03*
X006300Y021750D03*
X006300Y023400D03*
X004130Y023400D03*
X004130Y021750D03*
X004130Y020100D03*
X004130Y018450D03*
X004130Y016800D03*
X004130Y015150D03*
X004130Y013500D03*
X004130Y011850D03*
X004130Y010200D03*
D24*
X009170Y010200D03*
X009170Y023400D03*
D25*
X003800Y027656D03*
X003800Y028444D03*
X012050Y028906D03*
X012050Y029694D03*
X020800Y028194D03*
X020800Y027406D03*
X004800Y003944D03*
X004800Y003156D03*
D26*
X022148Y024654D03*
X022148Y024910D03*
X022148Y025166D03*
X022148Y025422D03*
X022148Y025678D03*
X022148Y025934D03*
X022148Y026190D03*
X022148Y026446D03*
X024452Y026446D03*
X024452Y026190D03*
X024452Y025934D03*
X024452Y025678D03*
X024452Y025422D03*
X024452Y025166D03*
X024452Y024910D03*
X024452Y024654D03*
D27*
X024460Y020270D03*
X023550Y020270D03*
X022640Y020270D03*
D28*
X023550Y017830D03*
D29*
X023091Y022050D03*
X022009Y022050D03*
D30*
X024800Y022009D03*
X024800Y023091D03*
D31*
X013050Y027300D03*
X013050Y028300D03*
X012050Y027300D03*
X010800Y026675D03*
X002550Y017300D03*
D32*
X022300Y015020D03*
X022800Y015020D03*
X023300Y015020D03*
X023800Y015020D03*
X023800Y013080D03*
X023300Y013080D03*
X022800Y013080D03*
X022300Y013080D03*
D33*
X026300Y018550D03*
X023800Y021300D03*
X017425Y029050D03*
D34*
X015050Y029675D03*
X014550Y027300D03*
X011050Y023425D03*
X012550Y018800D03*
X018050Y018800D03*
X023550Y019050D03*
X029800Y029550D03*
X012800Y008050D03*
X012050Y001550D03*
X002550Y016050D03*
X003300Y029800D03*
D35*
X013050Y024550D03*
X013800Y023300D03*
X016300Y023300D03*
X019300Y024550D03*
X025550Y019300D03*
D36*
X003550Y003150D03*
D37*
X017450Y007650D03*
M02*
