G75*
G70*
%OFA0B0*%
%FSLAX24Y24*%
%IPPOS*%
%LPD*%
%AMOC8*
5,1,8,0,0,1.08239X$1,22.5*
%
%ADD10R,0.0551X0.0394*%
%ADD11R,0.0433X0.0394*%
%ADD12R,0.0394X0.0433*%
%ADD13R,0.1181X0.0630*%
%ADD14R,0.2441X0.2283*%
%ADD15R,0.0138X0.0354*%
%ADD16R,0.0709X0.0827*%
%ADD17R,0.0866X0.0236*%
%ADD18R,0.0236X0.0394*%
%ADD19R,0.0394X0.0236*%
%ADD20R,0.0598X0.0701*%
%ADD21R,0.0512X0.0591*%
%ADD22R,0.0394X0.0551*%
%ADD23R,0.0200X0.0500*%
%ADD24R,0.1000X0.0900*%
%ADD25R,0.0480X0.0880*%
%ADD26R,0.1417X0.0866*%
%ADD27R,0.0591X0.0512*%
%ADD28R,0.0118X0.0630*%
%ADD29R,0.0787X0.2087*%
%ADD30R,0.0118X0.0591*%
%ADD31R,0.0591X0.0118*%
%ADD32R,0.0315X0.0315*%
%ADD33R,0.0630X0.0710*%
%ADD34R,0.0945X0.0669*%
%ADD35C,0.0400*%
%ADD36R,0.0984X0.1575*%
%ADD37R,0.0236X0.0866*%
%ADD38R,0.0800X0.0800*%
%ADD39R,0.0827X0.0709*%
%ADD40R,0.1516X0.2165*%
%ADD41R,0.0472X0.0217*%
D10*
X035397Y016800D03*
X036263Y016426D03*
X036263Y017174D03*
X050297Y024050D03*
X051163Y023676D03*
X051163Y024424D03*
X050613Y025976D03*
X050613Y026724D03*
X049747Y026350D03*
D11*
X046280Y023035D03*
X046280Y022365D03*
X046280Y021785D03*
X046280Y021115D03*
X048780Y021565D03*
X048780Y022235D03*
X052180Y021885D03*
X052180Y021215D03*
X053030Y021215D03*
X053930Y021215D03*
X053930Y021885D03*
X053030Y021885D03*
X054780Y021885D03*
X055680Y021885D03*
X055680Y021215D03*
X054780Y021215D03*
X056530Y021215D03*
X057480Y021215D03*
X057480Y021885D03*
X056530Y021885D03*
X058330Y021885D03*
X058330Y021215D03*
X050280Y017135D03*
X050280Y016465D03*
X051880Y016535D03*
X051880Y015865D03*
X050130Y014885D03*
X050130Y014215D03*
X048180Y010135D03*
X048180Y009465D03*
X048180Y003885D03*
X048180Y003215D03*
X046930Y003215D03*
X046930Y003885D03*
X045530Y003935D03*
X045530Y003265D03*
X044230Y003265D03*
X044230Y003935D03*
X042930Y003935D03*
X042930Y003265D03*
X041630Y003015D03*
X041630Y003685D03*
X040280Y003685D03*
X040280Y003015D03*
X038930Y003015D03*
X038930Y003685D03*
X034530Y003765D03*
X034530Y004435D03*
X029880Y007965D03*
X029880Y008635D03*
X033130Y008735D03*
X033130Y008065D03*
X024680Y012465D03*
X024680Y013135D03*
X022780Y013235D03*
X022780Y012565D03*
X021980Y012565D03*
X021980Y013235D03*
X022580Y015415D03*
X022580Y016085D03*
X024630Y016085D03*
X024630Y015415D03*
X017680Y020065D03*
X017680Y020735D03*
X017980Y024265D03*
X017980Y024935D03*
X034230Y024615D03*
X034230Y025285D03*
X034980Y023535D03*
X034980Y022865D03*
X035880Y022865D03*
X035880Y023535D03*
X036980Y025315D03*
X036980Y025985D03*
X037230Y019935D03*
X036380Y019585D03*
X037230Y019265D03*
X036380Y018915D03*
X035130Y018585D03*
X034280Y018585D03*
X034280Y017915D03*
X035130Y017915D03*
X037380Y016985D03*
X037730Y017615D03*
X037730Y018285D03*
X040930Y018365D03*
X040930Y019035D03*
X041805Y019035D03*
X041805Y018365D03*
X037380Y016315D03*
X023180Y009885D03*
X023180Y009215D03*
X022380Y009215D03*
X022380Y009885D03*
D12*
X023845Y008400D03*
X024515Y008400D03*
X035695Y004600D03*
X036365Y004600D03*
X038245Y004450D03*
X038915Y004450D03*
X037415Y001400D03*
X036745Y001400D03*
X035865Y001400D03*
X035195Y001400D03*
X034415Y001400D03*
X033745Y001400D03*
X039495Y007950D03*
X040165Y007950D03*
X040895Y007950D03*
X041565Y007950D03*
X042295Y007950D03*
X042965Y007950D03*
X043795Y007950D03*
X044465Y007950D03*
X049295Y004900D03*
X049965Y004900D03*
X053270Y007425D03*
X053940Y007425D03*
X054795Y007350D03*
X055465Y007350D03*
X056095Y007350D03*
X056765Y007350D03*
X057395Y007800D03*
X058065Y007800D03*
X058065Y008650D03*
X057395Y008650D03*
X053940Y008325D03*
X053270Y008325D03*
X047415Y010950D03*
X046745Y010950D03*
X041865Y016300D03*
X041195Y016300D03*
X035565Y019750D03*
X034895Y019750D03*
X035215Y020600D03*
X034545Y020600D03*
X033865Y020700D03*
X033195Y020700D03*
X033845Y021800D03*
X034515Y021800D03*
X036445Y020850D03*
X037115Y020850D03*
X034615Y016950D03*
X033945Y016950D03*
X029565Y022650D03*
X028895Y022650D03*
X029045Y026400D03*
X029715Y026400D03*
X040445Y027350D03*
X041115Y027350D03*
X048945Y024200D03*
X049615Y024200D03*
X050245Y022800D03*
X050915Y022800D03*
X050115Y020400D03*
X049445Y020400D03*
X046765Y020200D03*
X046095Y020200D03*
X051445Y025650D03*
X052115Y025650D03*
X052115Y026700D03*
X051445Y026700D03*
X021465Y015100D03*
X020795Y015100D03*
D13*
X024089Y018852D03*
X024089Y020648D03*
X024089Y022102D03*
X024089Y023898D03*
D14*
X026916Y023000D03*
X026916Y019750D03*
D15*
X029024Y021106D03*
X029280Y021106D03*
X029536Y021106D03*
X029536Y021894D03*
X029280Y021894D03*
X029024Y021894D03*
X029024Y024756D03*
X029280Y024756D03*
X029536Y024756D03*
X029536Y025544D03*
X029280Y025544D03*
X029024Y025544D03*
X023886Y015994D03*
X023630Y015994D03*
X023374Y015994D03*
X023374Y015206D03*
X023630Y015206D03*
X023886Y015206D03*
X023986Y012994D03*
X023730Y012994D03*
X023474Y012994D03*
X023474Y012206D03*
X023730Y012206D03*
X023986Y012206D03*
X024074Y010044D03*
X024330Y010044D03*
X024586Y010044D03*
X024586Y009256D03*
X024330Y009256D03*
X024074Y009256D03*
X050874Y014006D03*
X051130Y014006D03*
X051386Y014006D03*
X051386Y014794D03*
X051130Y014794D03*
X050874Y014794D03*
D16*
X053530Y025034D03*
X054930Y025034D03*
X056330Y025034D03*
X057730Y025084D03*
X057730Y026816D03*
X056330Y026766D03*
X054930Y026766D03*
X053530Y026766D03*
X031880Y021266D03*
X031880Y019534D03*
D17*
X028054Y017850D03*
X028054Y017350D03*
X028054Y016850D03*
X028054Y016350D03*
X026006Y016350D03*
X026006Y016850D03*
X026006Y017350D03*
X026006Y017850D03*
X046706Y014850D03*
X046706Y014350D03*
X046706Y013850D03*
X046706Y013350D03*
X048754Y013350D03*
X048754Y013850D03*
X048754Y014350D03*
X048754Y014850D03*
X037554Y003750D03*
X037554Y003250D03*
X037554Y002750D03*
X037554Y002250D03*
X035506Y002250D03*
X035506Y002750D03*
X035506Y003250D03*
X035506Y003750D03*
D18*
X033430Y017717D03*
X033430Y018583D03*
D19*
X046747Y011950D03*
X047613Y011950D03*
D20*
X049850Y003850D03*
X049850Y002850D03*
X053810Y002850D03*
X053810Y003850D03*
D21*
X052004Y007350D03*
X051256Y007350D03*
X057456Y009550D03*
X058204Y009550D03*
X058204Y010500D03*
X057456Y010500D03*
X051204Y013050D03*
X050456Y013050D03*
X052006Y017550D03*
X052754Y017550D03*
X053906Y017550D03*
X054654Y017550D03*
X055806Y017550D03*
X056554Y017550D03*
X057706Y017550D03*
X058454Y017550D03*
X058454Y018600D03*
X057706Y018600D03*
X056554Y018600D03*
X055806Y018600D03*
X054654Y018600D03*
X053906Y018600D03*
X052754Y018600D03*
X052006Y018600D03*
X052006Y019650D03*
X052754Y019650D03*
X053906Y019650D03*
X054654Y019650D03*
X055806Y019650D03*
X056554Y019650D03*
X057706Y019650D03*
X058454Y019650D03*
X029104Y009300D03*
X028356Y009300D03*
D22*
X052356Y023067D03*
X053104Y023067D03*
X054006Y023067D03*
X054754Y023067D03*
X055656Y023067D03*
X056404Y023067D03*
X057306Y023067D03*
X058054Y023067D03*
X057680Y023933D03*
X056030Y023933D03*
X054380Y023933D03*
X052730Y023933D03*
X035854Y024617D03*
X035106Y024617D03*
X035480Y025483D03*
D23*
X032930Y022650D03*
X032430Y022650D03*
X031930Y022650D03*
D24*
X032430Y026950D03*
D25*
X047070Y016680D03*
X047980Y016680D03*
X048890Y016680D03*
D26*
X047980Y019120D03*
D27*
X049930Y019224D03*
X049930Y018476D03*
X052880Y010424D03*
X053780Y010424D03*
X053780Y009676D03*
X052880Y009676D03*
D28*
X044782Y016498D03*
X044526Y016498D03*
X044270Y016498D03*
X044014Y016498D03*
X043758Y016498D03*
X043502Y016498D03*
X043246Y016498D03*
X042990Y016498D03*
X042734Y016498D03*
X042478Y016498D03*
X042478Y018702D03*
X042734Y018702D03*
X042990Y018702D03*
X043246Y018702D03*
X043502Y018702D03*
X043758Y018702D03*
X044014Y018702D03*
X044270Y018702D03*
X044526Y018702D03*
X044782Y018702D03*
D29*
X049181Y010550D03*
X051779Y010550D03*
D30*
X044042Y020050D03*
X043845Y020050D03*
X043649Y020050D03*
X043452Y020050D03*
X043255Y020050D03*
X043058Y020050D03*
X042861Y020050D03*
X042664Y020050D03*
X042467Y020050D03*
X042271Y020050D03*
X042074Y020050D03*
X041877Y020050D03*
X041680Y020050D03*
X041483Y020050D03*
X041286Y020050D03*
X041089Y020050D03*
X040893Y020050D03*
X040696Y020050D03*
X040499Y020050D03*
X040302Y020050D03*
X040105Y020050D03*
X039908Y020050D03*
X039711Y020050D03*
X039515Y020050D03*
X039318Y020050D03*
X039318Y026350D03*
X039515Y026350D03*
X039711Y026350D03*
X039908Y026350D03*
X040105Y026350D03*
X040302Y026350D03*
X040499Y026350D03*
X040696Y026350D03*
X040893Y026350D03*
X041089Y026350D03*
X041286Y026350D03*
X041483Y026350D03*
X041680Y026350D03*
X041877Y026350D03*
X042074Y026350D03*
X042271Y026350D03*
X042467Y026350D03*
X042664Y026350D03*
X042861Y026350D03*
X043058Y026350D03*
X043255Y026350D03*
X043452Y026350D03*
X043649Y026350D03*
X043845Y026350D03*
X044042Y026350D03*
D31*
X044830Y025562D03*
X044830Y025365D03*
X044830Y025169D03*
X044830Y024972D03*
X044830Y024775D03*
X044830Y024578D03*
X044830Y024381D03*
X044830Y024184D03*
X044830Y023987D03*
X044830Y023791D03*
X044830Y023594D03*
X044830Y023397D03*
X044830Y023200D03*
X044830Y023003D03*
X044830Y022806D03*
X044830Y022609D03*
X044830Y022413D03*
X044830Y022216D03*
X044830Y022019D03*
X044830Y021822D03*
X044830Y021625D03*
X044830Y021428D03*
X044830Y021231D03*
X044830Y021035D03*
X044830Y020838D03*
X038530Y020838D03*
X038530Y021035D03*
X038530Y021231D03*
X038530Y021428D03*
X038530Y021625D03*
X038530Y021822D03*
X038530Y022019D03*
X038530Y022216D03*
X038530Y022413D03*
X038530Y022609D03*
X038530Y022806D03*
X038530Y023003D03*
X038530Y023200D03*
X038530Y023397D03*
X038530Y023594D03*
X038530Y023791D03*
X038530Y023987D03*
X038530Y024184D03*
X038530Y024381D03*
X038530Y024578D03*
X038530Y024775D03*
X038530Y024972D03*
X038530Y025169D03*
X038530Y025365D03*
X038530Y025562D03*
D32*
X038930Y002245D03*
X038930Y001655D03*
X040280Y001655D03*
X040280Y002245D03*
X041630Y002245D03*
X041630Y001655D03*
X042930Y001655D03*
X042930Y002245D03*
X044230Y002245D03*
X044230Y001655D03*
X045530Y001655D03*
X045530Y002245D03*
X046930Y002245D03*
X046930Y001655D03*
X048180Y001655D03*
X048180Y002245D03*
D33*
X024540Y011050D03*
X023420Y011050D03*
X023370Y014300D03*
X024490Y014300D03*
X024340Y017150D03*
X023220Y017150D03*
X028770Y020250D03*
X029890Y020250D03*
X029840Y023650D03*
X028720Y023650D03*
D34*
X047480Y022728D03*
X047480Y021272D03*
D35*
X002030Y003500D03*
X038980Y014600D03*
X046030Y026000D03*
X016030Y029650D03*
X050130Y001400D03*
D36*
X056630Y003599D03*
X056630Y006001D03*
X011704Y007375D03*
X011704Y004225D03*
X011704Y014475D03*
X011704Y017625D03*
X011704Y024725D03*
X011704Y027875D03*
D37*
X054680Y010474D03*
X055180Y010474D03*
X055680Y010474D03*
X056180Y010474D03*
X056180Y008426D03*
X055680Y008426D03*
X055180Y008426D03*
X054680Y008426D03*
D38*
X055430Y009450D03*
D39*
X052146Y008800D03*
X050414Y008800D03*
D40*
X053371Y013950D03*
X057289Y013950D03*
D41*
X051042Y021176D03*
X050018Y021176D03*
X050018Y021550D03*
X050018Y021924D03*
X051042Y021924D03*
M02*
