G75*
G70*
%OFA0B0*%
%FSLAX24Y24*%
%IPPOS*%
%LPD*%
%AMOC8*
5,1,8,0,0,1.08239X$1,22.5*
%
%ADD10C,0.1290*%
%ADD11R,0.0591X0.0434*%
%ADD12R,0.0473X0.0434*%
%ADD13R,0.0434X0.0473*%
%ADD14R,0.1221X0.0670*%
%ADD15R,0.2481X0.2323*%
%ADD16R,0.0178X0.0394*%
%ADD17R,0.0749X0.0867*%
%ADD18R,0.0906X0.0276*%
%ADD19R,0.0276X0.0434*%
%ADD20R,0.0434X0.0276*%
%ADD21R,0.0638X0.0741*%
%ADD22R,0.0552X0.0631*%
%ADD23R,0.0434X0.0591*%
%ADD24R,0.0240X0.0540*%
%ADD25R,0.1040X0.0940*%
%ADD26R,0.0520X0.0920*%
%ADD27R,0.1457X0.0906*%
%ADD28R,0.0631X0.0552*%
%ADD29OC8,0.0631*%
%ADD30C,0.0631*%
%ADD31R,0.0158X0.0670*%
%ADD32R,0.0827X0.2127*%
%ADD33R,0.0158X0.0631*%
%ADD34R,0.0631X0.0158*%
%ADD35C,0.1339*%
%ADD36C,0.1182*%
%ADD37C,0.1103*%
%ADD38C,0.1142*%
%ADD39R,0.0355X0.0355*%
%ADD40OC8,0.0640*%
%ADD41C,0.2040*%
%ADD42R,0.0670X0.0750*%
%ADD43OC8,0.0650*%
%ADD44R,0.0985X0.0709*%
%ADD45OC8,0.0827*%
%ADD46C,0.0860*%
%ADD47C,0.0440*%
%ADD48R,0.1024X0.1615*%
%ADD49R,0.0276X0.0906*%
%ADD50R,0.0840X0.0840*%
%ADD51R,0.0867X0.0749*%
%ADD52R,0.1556X0.2205*%
%ADD53R,0.0512X0.0257*%
D10*
X001360Y001480D03*
X047430Y025400D03*
X058050Y030610D03*
X010810Y030610D03*
X058050Y001480D03*
D11*
X036263Y016426D03*
X036263Y017174D03*
X035397Y016800D03*
X050297Y024050D03*
X051163Y023676D03*
X051163Y024424D03*
X050613Y025976D03*
X050613Y026724D03*
X049747Y026350D03*
D12*
X046280Y023035D03*
X046280Y022365D03*
X046280Y021785D03*
X046280Y021115D03*
X048780Y021565D03*
X048780Y022235D03*
X052180Y021885D03*
X052180Y021215D03*
X053030Y021215D03*
X053930Y021215D03*
X053930Y021885D03*
X053030Y021885D03*
X054780Y021885D03*
X055680Y021885D03*
X055680Y021215D03*
X054780Y021215D03*
X056530Y021215D03*
X057480Y021215D03*
X057480Y021885D03*
X056530Y021885D03*
X058330Y021885D03*
X058330Y021215D03*
X050280Y017135D03*
X050280Y016465D03*
X051880Y016535D03*
X051880Y015865D03*
X050130Y014885D03*
X050130Y014215D03*
X048180Y010135D03*
X048180Y009465D03*
X048180Y003885D03*
X048180Y003215D03*
X046930Y003215D03*
X046930Y003885D03*
X045530Y003935D03*
X045530Y003265D03*
X044230Y003265D03*
X044230Y003935D03*
X042930Y003935D03*
X042930Y003265D03*
X041630Y003015D03*
X041630Y003685D03*
X040280Y003685D03*
X040280Y003015D03*
X038930Y003015D03*
X038930Y003685D03*
X034530Y003765D03*
X034530Y004435D03*
X029880Y007965D03*
X029880Y008635D03*
X033130Y008735D03*
X033130Y008065D03*
X024680Y012465D03*
X024680Y013135D03*
X022780Y013235D03*
X022780Y012565D03*
X021980Y012565D03*
X021980Y013235D03*
X022580Y015415D03*
X022580Y016085D03*
X024630Y016085D03*
X024630Y015415D03*
X017680Y020065D03*
X017680Y020735D03*
X017980Y024265D03*
X017980Y024935D03*
X034230Y024615D03*
X034230Y025285D03*
X034980Y023535D03*
X034980Y022865D03*
X035880Y022865D03*
X035880Y023535D03*
X036980Y025315D03*
X036980Y025985D03*
X037230Y019935D03*
X036380Y019585D03*
X037230Y019265D03*
X036380Y018915D03*
X035130Y018585D03*
X034280Y018585D03*
X034280Y017915D03*
X035130Y017915D03*
X037380Y016985D03*
X037730Y017615D03*
X037730Y018285D03*
X040930Y018365D03*
X040930Y019035D03*
X041805Y019035D03*
X041805Y018365D03*
X037380Y016315D03*
X023180Y009885D03*
X023180Y009215D03*
X022380Y009215D03*
X022380Y009885D03*
D13*
X023845Y008400D03*
X024515Y008400D03*
X035695Y004600D03*
X036365Y004600D03*
X038245Y004450D03*
X038915Y004450D03*
X037415Y001400D03*
X036745Y001400D03*
X035865Y001400D03*
X035195Y001400D03*
X034415Y001400D03*
X033745Y001400D03*
X039495Y007950D03*
X040165Y007950D03*
X040895Y007950D03*
X041565Y007950D03*
X042295Y007950D03*
X042965Y007950D03*
X043795Y007950D03*
X044465Y007950D03*
X049295Y004900D03*
X049965Y004900D03*
X053270Y007425D03*
X053940Y007425D03*
X054795Y007350D03*
X055465Y007350D03*
X056095Y007350D03*
X056765Y007350D03*
X057395Y007800D03*
X058065Y007800D03*
X058065Y008650D03*
X057395Y008650D03*
X053940Y008325D03*
X053270Y008325D03*
X047415Y010950D03*
X046745Y010950D03*
X041865Y016300D03*
X041195Y016300D03*
X035565Y019750D03*
X034895Y019750D03*
X035215Y020600D03*
X034545Y020600D03*
X033865Y020700D03*
X033195Y020700D03*
X033845Y021800D03*
X034515Y021800D03*
X036445Y020850D03*
X037115Y020850D03*
X034615Y016950D03*
X033945Y016950D03*
X029565Y022650D03*
X028895Y022650D03*
X029045Y026400D03*
X029715Y026400D03*
X040445Y027350D03*
X041115Y027350D03*
X048945Y024200D03*
X049615Y024200D03*
X050245Y022800D03*
X050915Y022800D03*
X050115Y020400D03*
X049445Y020400D03*
X046765Y020200D03*
X046095Y020200D03*
X051445Y025650D03*
X052115Y025650D03*
X052115Y026700D03*
X051445Y026700D03*
X021465Y015100D03*
X020795Y015100D03*
D14*
X024089Y018852D03*
X024089Y020648D03*
X024089Y022102D03*
X024089Y023898D03*
D15*
X026916Y023000D03*
X026916Y019750D03*
D16*
X029024Y021106D03*
X029280Y021106D03*
X029536Y021106D03*
X029536Y021894D03*
X029280Y021894D03*
X029024Y021894D03*
X029024Y024756D03*
X029280Y024756D03*
X029536Y024756D03*
X029536Y025544D03*
X029280Y025544D03*
X029024Y025544D03*
X023886Y015994D03*
X023630Y015994D03*
X023374Y015994D03*
X023374Y015206D03*
X023630Y015206D03*
X023886Y015206D03*
X023986Y012994D03*
X023730Y012994D03*
X023474Y012994D03*
X023474Y012206D03*
X023730Y012206D03*
X023986Y012206D03*
X024074Y010044D03*
X024330Y010044D03*
X024586Y010044D03*
X024586Y009256D03*
X024330Y009256D03*
X024074Y009256D03*
X050874Y014006D03*
X051130Y014006D03*
X051386Y014006D03*
X051386Y014794D03*
X051130Y014794D03*
X050874Y014794D03*
D17*
X053530Y025034D03*
X054930Y025034D03*
X056330Y025034D03*
X057730Y025084D03*
X057730Y026816D03*
X056330Y026766D03*
X054930Y026766D03*
X053530Y026766D03*
X031880Y021266D03*
X031880Y019534D03*
D18*
X028054Y017850D03*
X028054Y017350D03*
X028054Y016850D03*
X028054Y016350D03*
X026006Y016350D03*
X026006Y016850D03*
X026006Y017350D03*
X026006Y017850D03*
X046706Y014850D03*
X046706Y014350D03*
X046706Y013850D03*
X046706Y013350D03*
X048754Y013350D03*
X048754Y013850D03*
X048754Y014350D03*
X048754Y014850D03*
X037554Y003750D03*
X037554Y003250D03*
X037554Y002750D03*
X037554Y002250D03*
X035506Y002250D03*
X035506Y002750D03*
X035506Y003250D03*
X035506Y003750D03*
D19*
X033430Y017717D03*
X033430Y018583D03*
D20*
X046747Y011950D03*
X047613Y011950D03*
D21*
X049850Y003850D03*
X049850Y002850D03*
X053810Y002850D03*
X053810Y003850D03*
D22*
X052004Y007350D03*
X051256Y007350D03*
X057456Y009550D03*
X058204Y009550D03*
X058204Y010500D03*
X057456Y010500D03*
X051204Y013050D03*
X050456Y013050D03*
X052006Y017550D03*
X052754Y017550D03*
X053906Y017550D03*
X054654Y017550D03*
X055806Y017550D03*
X056554Y017550D03*
X057706Y017550D03*
X058454Y017550D03*
X058454Y018600D03*
X057706Y018600D03*
X056554Y018600D03*
X055806Y018600D03*
X054654Y018600D03*
X053906Y018600D03*
X052754Y018600D03*
X052006Y018600D03*
X052006Y019650D03*
X052754Y019650D03*
X053906Y019650D03*
X054654Y019650D03*
X055806Y019650D03*
X056554Y019650D03*
X057706Y019650D03*
X058454Y019650D03*
X029104Y009300D03*
X028356Y009300D03*
D23*
X052356Y023067D03*
X053104Y023067D03*
X054006Y023067D03*
X054754Y023067D03*
X055656Y023067D03*
X056404Y023067D03*
X057306Y023067D03*
X058054Y023067D03*
X057680Y023933D03*
X056030Y023933D03*
X054380Y023933D03*
X052730Y023933D03*
X035854Y024617D03*
X035106Y024617D03*
X035480Y025483D03*
D24*
X032930Y022650D03*
X032430Y022650D03*
X031930Y022650D03*
D25*
X032430Y026950D03*
D26*
X047070Y016680D03*
X047980Y016680D03*
X048890Y016680D03*
D27*
X047980Y019120D03*
D28*
X049930Y019224D03*
X049930Y018476D03*
X052880Y010424D03*
X053780Y010424D03*
X053780Y009676D03*
X052880Y009676D03*
D29*
X045430Y006900D03*
X044430Y006900D03*
X043430Y006900D03*
X042430Y006900D03*
X041430Y006900D03*
X040430Y006900D03*
X039430Y006900D03*
X038430Y006900D03*
X037430Y006900D03*
X036430Y006900D03*
X035430Y006900D03*
X034430Y006900D03*
X033430Y006900D03*
X032430Y006900D03*
X031430Y006900D03*
X030430Y006900D03*
X029430Y006900D03*
X028430Y006900D03*
X027430Y006900D03*
X026430Y006900D03*
X025430Y006900D03*
X024430Y006900D03*
X023430Y006900D03*
X023430Y005900D03*
X024430Y005900D03*
X025430Y005900D03*
X026430Y005900D03*
X027430Y005900D03*
X028430Y005900D03*
X029430Y005900D03*
X030430Y005900D03*
X031430Y005900D03*
X032430Y005900D03*
X033430Y005900D03*
X034430Y005900D03*
X035430Y005900D03*
X036430Y005900D03*
X037430Y005900D03*
X038430Y005900D03*
X039430Y005900D03*
X040430Y005900D03*
X041430Y005900D03*
X042430Y005900D03*
X043430Y005900D03*
X044430Y005900D03*
X045430Y005900D03*
X043080Y009000D03*
X042080Y009000D03*
X042080Y010000D03*
X043080Y010000D03*
X043080Y011000D03*
X042080Y011000D03*
X032180Y016600D03*
X031180Y016600D03*
X030180Y016600D03*
X030180Y017600D03*
X031180Y017600D03*
X032180Y017600D03*
X032180Y028250D03*
X033180Y028250D03*
X034180Y028250D03*
X035180Y028250D03*
X036180Y028250D03*
X037180Y028250D03*
X038180Y028250D03*
X039180Y028250D03*
X039180Y029250D03*
X038180Y029250D03*
X037180Y029250D03*
X036180Y029250D03*
X035180Y029250D03*
X034180Y029250D03*
X033180Y029250D03*
X032180Y029250D03*
X030480Y029250D03*
X029480Y029250D03*
X028480Y029250D03*
X027480Y029250D03*
X026480Y029250D03*
X025480Y029250D03*
X024480Y029250D03*
X023480Y029250D03*
X023480Y028250D03*
X024480Y028250D03*
X025480Y028250D03*
X026480Y028250D03*
X027480Y028250D03*
X028480Y028250D03*
X029480Y028250D03*
X030480Y028250D03*
X040930Y028250D03*
X041930Y028250D03*
X042930Y028250D03*
X043930Y028250D03*
X044930Y028250D03*
X045930Y028250D03*
X046930Y028250D03*
X047930Y028250D03*
X047930Y029250D03*
X046930Y029250D03*
X045930Y029250D03*
X044930Y029250D03*
X043930Y029250D03*
X042930Y029250D03*
X041930Y029250D03*
X040930Y029250D03*
X049630Y029250D03*
X050630Y029250D03*
X051630Y029250D03*
X052630Y029250D03*
X053630Y029250D03*
X054630Y029250D03*
X055630Y029250D03*
X056630Y029250D03*
X056630Y028250D03*
X055630Y028250D03*
X054630Y028250D03*
X053630Y028250D03*
X052630Y028250D03*
X051630Y028250D03*
X050630Y028250D03*
X049630Y028250D03*
X030780Y004250D03*
X029780Y004250D03*
X028780Y004250D03*
X028780Y003250D03*
X029780Y003250D03*
X030780Y003250D03*
X030780Y002250D03*
X029780Y002250D03*
X028780Y002250D03*
X026980Y002250D03*
X025980Y002250D03*
X024980Y002250D03*
X024980Y003250D03*
X025980Y003250D03*
X026980Y003250D03*
X026980Y004250D03*
X025980Y004250D03*
X024980Y004250D03*
D30*
X032085Y003250D02*
X032675Y003250D01*
X032675Y002250D02*
X032085Y002250D01*
X027025Y009480D02*
X026435Y009480D01*
X026435Y010480D02*
X027025Y010480D01*
X027025Y011480D02*
X026435Y011480D01*
X038775Y016660D02*
X039365Y016660D01*
X039365Y017660D02*
X038775Y017660D01*
X038775Y018660D02*
X039365Y018660D01*
X027075Y025250D02*
X026485Y025250D01*
X026485Y026250D02*
X027075Y026250D01*
X024475Y026700D02*
X023885Y026700D01*
X023885Y025700D02*
X024475Y025700D01*
X051880Y006095D02*
X051880Y005505D01*
X052880Y005505D02*
X052880Y006095D01*
D31*
X044782Y016498D03*
X044526Y016498D03*
X044270Y016498D03*
X044014Y016498D03*
X043758Y016498D03*
X043502Y016498D03*
X043246Y016498D03*
X042990Y016498D03*
X042734Y016498D03*
X042478Y016498D03*
X042478Y018702D03*
X042734Y018702D03*
X042990Y018702D03*
X043246Y018702D03*
X043502Y018702D03*
X043758Y018702D03*
X044014Y018702D03*
X044270Y018702D03*
X044526Y018702D03*
X044782Y018702D03*
D32*
X049181Y010550D03*
X051779Y010550D03*
D33*
X044042Y020050D03*
X043845Y020050D03*
X043649Y020050D03*
X043452Y020050D03*
X043255Y020050D03*
X043058Y020050D03*
X042861Y020050D03*
X042664Y020050D03*
X042467Y020050D03*
X042271Y020050D03*
X042074Y020050D03*
X041877Y020050D03*
X041680Y020050D03*
X041483Y020050D03*
X041286Y020050D03*
X041089Y020050D03*
X040893Y020050D03*
X040696Y020050D03*
X040499Y020050D03*
X040302Y020050D03*
X040105Y020050D03*
X039908Y020050D03*
X039711Y020050D03*
X039515Y020050D03*
X039318Y020050D03*
X039318Y026350D03*
X039515Y026350D03*
X039711Y026350D03*
X039908Y026350D03*
X040105Y026350D03*
X040302Y026350D03*
X040499Y026350D03*
X040696Y026350D03*
X040893Y026350D03*
X041089Y026350D03*
X041286Y026350D03*
X041483Y026350D03*
X041680Y026350D03*
X041877Y026350D03*
X042074Y026350D03*
X042271Y026350D03*
X042467Y026350D03*
X042664Y026350D03*
X042861Y026350D03*
X043058Y026350D03*
X043255Y026350D03*
X043452Y026350D03*
X043649Y026350D03*
X043845Y026350D03*
X044042Y026350D03*
D34*
X044830Y025562D03*
X044830Y025365D03*
X044830Y025169D03*
X044830Y024972D03*
X044830Y024775D03*
X044830Y024578D03*
X044830Y024381D03*
X044830Y024184D03*
X044830Y023987D03*
X044830Y023791D03*
X044830Y023594D03*
X044830Y023397D03*
X044830Y023200D03*
X044830Y023003D03*
X044830Y022806D03*
X044830Y022609D03*
X044830Y022413D03*
X044830Y022216D03*
X044830Y022019D03*
X044830Y021822D03*
X044830Y021625D03*
X044830Y021428D03*
X044830Y021231D03*
X044830Y021035D03*
X044830Y020838D03*
X038530Y020838D03*
X038530Y021035D03*
X038530Y021231D03*
X038530Y021428D03*
X038530Y021625D03*
X038530Y021822D03*
X038530Y022019D03*
X038530Y022216D03*
X038530Y022413D03*
X038530Y022609D03*
X038530Y022806D03*
X038530Y023003D03*
X038530Y023200D03*
X038530Y023397D03*
X038530Y023594D03*
X038530Y023791D03*
X038530Y023987D03*
X038530Y024184D03*
X038530Y024381D03*
X038530Y024578D03*
X038530Y024775D03*
X038530Y024972D03*
X038530Y025169D03*
X038530Y025365D03*
X038530Y025562D03*
D35*
X021606Y023249D02*
X020307Y023249D01*
X020307Y020282D02*
X021606Y020282D01*
X021606Y017133D02*
X020307Y017133D01*
X020307Y007670D02*
X021606Y007670D01*
X021606Y003733D02*
X020307Y003733D01*
X020307Y028367D02*
X021606Y028367D01*
D36*
X007551Y029843D02*
X006409Y029843D01*
X006409Y026300D02*
X007551Y026300D01*
X007551Y022757D02*
X006409Y022757D01*
X006409Y019593D02*
X007551Y019593D01*
X007551Y016050D02*
X006409Y016050D01*
X006409Y012507D02*
X007551Y012507D01*
X007551Y009343D02*
X006409Y009343D01*
X006409Y005800D02*
X007551Y005800D01*
X007551Y002257D02*
X006409Y002257D01*
D37*
X020228Y002650D02*
X021291Y002650D01*
X021291Y006587D02*
X020228Y006587D01*
X020228Y016050D02*
X021291Y016050D01*
X021291Y019200D02*
X020228Y019200D01*
X020228Y024331D02*
X021291Y024331D01*
X021291Y029450D02*
X020228Y029450D01*
D38*
X007531Y030843D02*
X006429Y030843D01*
X006429Y027300D02*
X007531Y027300D01*
X007531Y023757D02*
X006429Y023757D01*
X006429Y020593D02*
X007531Y020593D01*
X007531Y017050D02*
X006429Y017050D01*
X006429Y013507D02*
X007531Y013507D01*
X007531Y008343D02*
X006429Y008343D01*
X006429Y004800D02*
X007531Y004800D01*
X007531Y001257D02*
X006429Y001257D01*
D39*
X038930Y001655D03*
X038930Y002245D03*
X040280Y002245D03*
X040280Y001655D03*
X041630Y001655D03*
X041630Y002245D03*
X042930Y002245D03*
X042930Y001655D03*
X044230Y001655D03*
X044230Y002245D03*
X045530Y002245D03*
X045530Y001655D03*
X046930Y001655D03*
X046930Y002245D03*
X048180Y002245D03*
X048180Y001655D03*
D40*
X003590Y014030D03*
X002470Y014570D03*
X003590Y015120D03*
X002470Y015660D03*
X003590Y016200D03*
X002470Y016750D03*
X003590Y017290D03*
X002470Y017830D03*
X003590Y018380D03*
X002470Y018920D03*
X003590Y019460D03*
X002470Y020010D03*
X003590Y020550D03*
X002470Y021090D03*
X003590Y021640D03*
X002470Y022180D03*
X003590Y022720D03*
X002470Y023270D03*
X003590Y023810D03*
X002470Y024350D03*
X003590Y024900D03*
X002470Y025440D03*
X003590Y025980D03*
X002470Y026530D03*
X003590Y027070D03*
D41*
X003030Y029810D03*
X003030Y011290D03*
D42*
X023420Y011050D03*
X024540Y011050D03*
X024490Y014300D03*
X023370Y014300D03*
X023220Y017150D03*
X024340Y017150D03*
X028770Y020250D03*
X029890Y020250D03*
X029840Y023650D03*
X028720Y023650D03*
D43*
X048030Y007100D03*
X049030Y007100D03*
X050030Y007100D03*
X050030Y006100D03*
X049030Y006100D03*
X048030Y006100D03*
D44*
X047480Y021272D03*
X047480Y022728D03*
D45*
X053180Y001250D03*
X003830Y003400D03*
X003130Y005700D03*
X001330Y005700D03*
X001330Y007150D03*
X003130Y007150D03*
X003130Y008700D03*
X001330Y008700D03*
D46*
X001833Y003500D02*
X001835Y003527D01*
X001841Y003554D01*
X001850Y003580D01*
X001863Y003604D01*
X001879Y003627D01*
X001898Y003646D01*
X001920Y003663D01*
X001944Y003677D01*
X001969Y003687D01*
X001996Y003694D01*
X002023Y003697D01*
X002051Y003696D01*
X002078Y003691D01*
X002104Y003683D01*
X002128Y003671D01*
X002151Y003655D01*
X002172Y003637D01*
X002189Y003616D01*
X002204Y003592D01*
X002215Y003567D01*
X002223Y003541D01*
X002227Y003514D01*
X002227Y003486D01*
X002223Y003459D01*
X002215Y003433D01*
X002204Y003408D01*
X002189Y003384D01*
X002172Y003363D01*
X002151Y003345D01*
X002129Y003329D01*
X002104Y003317D01*
X002078Y003309D01*
X002051Y003304D01*
X002023Y003303D01*
X001996Y003306D01*
X001969Y003313D01*
X001944Y003323D01*
X001920Y003337D01*
X001898Y003354D01*
X001879Y003373D01*
X001863Y003396D01*
X001850Y003420D01*
X001841Y003446D01*
X001835Y003473D01*
X001833Y003500D01*
X038783Y014600D02*
X038785Y014627D01*
X038791Y014654D01*
X038800Y014680D01*
X038813Y014704D01*
X038829Y014727D01*
X038848Y014746D01*
X038870Y014763D01*
X038894Y014777D01*
X038919Y014787D01*
X038946Y014794D01*
X038973Y014797D01*
X039001Y014796D01*
X039028Y014791D01*
X039054Y014783D01*
X039078Y014771D01*
X039101Y014755D01*
X039122Y014737D01*
X039139Y014716D01*
X039154Y014692D01*
X039165Y014667D01*
X039173Y014641D01*
X039177Y014614D01*
X039177Y014586D01*
X039173Y014559D01*
X039165Y014533D01*
X039154Y014508D01*
X039139Y014484D01*
X039122Y014463D01*
X039101Y014445D01*
X039079Y014429D01*
X039054Y014417D01*
X039028Y014409D01*
X039001Y014404D01*
X038973Y014403D01*
X038946Y014406D01*
X038919Y014413D01*
X038894Y014423D01*
X038870Y014437D01*
X038848Y014454D01*
X038829Y014473D01*
X038813Y014496D01*
X038800Y014520D01*
X038791Y014546D01*
X038785Y014573D01*
X038783Y014600D01*
X045833Y026000D02*
X045835Y026027D01*
X045841Y026054D01*
X045850Y026080D01*
X045863Y026104D01*
X045879Y026127D01*
X045898Y026146D01*
X045920Y026163D01*
X045944Y026177D01*
X045969Y026187D01*
X045996Y026194D01*
X046023Y026197D01*
X046051Y026196D01*
X046078Y026191D01*
X046104Y026183D01*
X046128Y026171D01*
X046151Y026155D01*
X046172Y026137D01*
X046189Y026116D01*
X046204Y026092D01*
X046215Y026067D01*
X046223Y026041D01*
X046227Y026014D01*
X046227Y025986D01*
X046223Y025959D01*
X046215Y025933D01*
X046204Y025908D01*
X046189Y025884D01*
X046172Y025863D01*
X046151Y025845D01*
X046129Y025829D01*
X046104Y025817D01*
X046078Y025809D01*
X046051Y025804D01*
X046023Y025803D01*
X045996Y025806D01*
X045969Y025813D01*
X045944Y025823D01*
X045920Y025837D01*
X045898Y025854D01*
X045879Y025873D01*
X045863Y025896D01*
X045850Y025920D01*
X045841Y025946D01*
X045835Y025973D01*
X045833Y026000D01*
X015833Y029650D02*
X015835Y029677D01*
X015841Y029704D01*
X015850Y029730D01*
X015863Y029754D01*
X015879Y029777D01*
X015898Y029796D01*
X015920Y029813D01*
X015944Y029827D01*
X015969Y029837D01*
X015996Y029844D01*
X016023Y029847D01*
X016051Y029846D01*
X016078Y029841D01*
X016104Y029833D01*
X016128Y029821D01*
X016151Y029805D01*
X016172Y029787D01*
X016189Y029766D01*
X016204Y029742D01*
X016215Y029717D01*
X016223Y029691D01*
X016227Y029664D01*
X016227Y029636D01*
X016223Y029609D01*
X016215Y029583D01*
X016204Y029558D01*
X016189Y029534D01*
X016172Y029513D01*
X016151Y029495D01*
X016129Y029479D01*
X016104Y029467D01*
X016078Y029459D01*
X016051Y029454D01*
X016023Y029453D01*
X015996Y029456D01*
X015969Y029463D01*
X015944Y029473D01*
X015920Y029487D01*
X015898Y029504D01*
X015879Y029523D01*
X015863Y029546D01*
X015850Y029570D01*
X015841Y029596D01*
X015835Y029623D01*
X015833Y029650D01*
X049933Y001400D02*
X049935Y001427D01*
X049941Y001454D01*
X049950Y001480D01*
X049963Y001504D01*
X049979Y001527D01*
X049998Y001546D01*
X050020Y001563D01*
X050044Y001577D01*
X050069Y001587D01*
X050096Y001594D01*
X050123Y001597D01*
X050151Y001596D01*
X050178Y001591D01*
X050204Y001583D01*
X050228Y001571D01*
X050251Y001555D01*
X050272Y001537D01*
X050289Y001516D01*
X050304Y001492D01*
X050315Y001467D01*
X050323Y001441D01*
X050327Y001414D01*
X050327Y001386D01*
X050323Y001359D01*
X050315Y001333D01*
X050304Y001308D01*
X050289Y001284D01*
X050272Y001263D01*
X050251Y001245D01*
X050229Y001229D01*
X050204Y001217D01*
X050178Y001209D01*
X050151Y001204D01*
X050123Y001203D01*
X050096Y001206D01*
X050069Y001213D01*
X050044Y001223D01*
X050020Y001237D01*
X049998Y001254D01*
X049979Y001273D01*
X049963Y001296D01*
X049950Y001320D01*
X049941Y001346D01*
X049935Y001373D01*
X049933Y001400D01*
D47*
X050130Y001400D03*
X038980Y014600D03*
X046030Y026000D03*
X016030Y029650D03*
X002030Y003500D03*
D48*
X011704Y004225D03*
X011704Y007375D03*
X011704Y014475D03*
X011704Y017625D03*
X011704Y024725D03*
X011704Y027875D03*
X056630Y006001D03*
X056630Y003599D03*
D49*
X056180Y008426D03*
X055680Y008426D03*
X055180Y008426D03*
X054680Y008426D03*
X054680Y010474D03*
X055180Y010474D03*
X055680Y010474D03*
X056180Y010474D03*
D50*
X055430Y009450D03*
D51*
X052146Y008800D03*
X050414Y008800D03*
D52*
X053371Y013950D03*
X057289Y013950D03*
D53*
X051042Y021176D03*
X050018Y021176D03*
X050018Y021550D03*
X050018Y021924D03*
X051042Y021924D03*
M02*
