G75*
G70*
%OFA0B0*%
%FSLAX24Y24*%
%IPPOS*%
%LPD*%
%AMOC8*
5,1,8,0,0,1.08239X$1,22.5*
%
%ADD10OC8,0.0591*%
%ADD11C,0.0591*%
%ADD12C,0.1299*%
%ADD13C,0.1142*%
%ADD14C,0.1063*%
%ADD15C,0.1102*%
%ADD16OC8,0.0600*%
%ADD17C,0.2000*%
%ADD18OC8,0.0610*%
%ADD19OC8,0.0787*%
%ADD20C,0.0270*%
%ADD21C,0.0356*%
%ADD22C,0.0100*%
%ADD23C,0.0160*%
%ADD24C,0.0400*%
%ADD25C,0.0240*%
%ADD26C,0.0500*%
%ADD27C,0.0660*%
%ADD28C,0.1000*%
%ADD29C,0.0320*%
D10*
X023430Y005900D03*
X024430Y005900D03*
X025430Y005900D03*
X026430Y005900D03*
X027430Y005900D03*
X028430Y005900D03*
X029430Y005900D03*
X030430Y005900D03*
X031430Y005900D03*
X032430Y005900D03*
X033430Y005900D03*
X034430Y005900D03*
X035430Y005900D03*
X036430Y005900D03*
X037430Y005900D03*
X038430Y005900D03*
X039430Y005900D03*
X040430Y005900D03*
X041430Y005900D03*
X042430Y005900D03*
X043430Y005900D03*
X044430Y005900D03*
X045430Y005900D03*
X045430Y006900D03*
X044430Y006900D03*
X043430Y006900D03*
X042430Y006900D03*
X041430Y006900D03*
X040430Y006900D03*
X039430Y006900D03*
X038430Y006900D03*
X037430Y006900D03*
X036430Y006900D03*
X035430Y006900D03*
X034430Y006900D03*
X033430Y006900D03*
X032430Y006900D03*
X031430Y006900D03*
X030430Y006900D03*
X029430Y006900D03*
X028430Y006900D03*
X027430Y006900D03*
X026430Y006900D03*
X025430Y006900D03*
X024430Y006900D03*
X023430Y006900D03*
X024980Y004250D03*
X025980Y004250D03*
X026980Y004250D03*
X026980Y003250D03*
X025980Y003250D03*
X024980Y003250D03*
X024980Y002250D03*
X025980Y002250D03*
X026980Y002250D03*
X028780Y002250D03*
X029780Y002250D03*
X030780Y002250D03*
X030780Y003250D03*
X029780Y003250D03*
X028780Y003250D03*
X028780Y004250D03*
X029780Y004250D03*
X030780Y004250D03*
X042080Y009000D03*
X043080Y009000D03*
X043080Y010000D03*
X042080Y010000D03*
X042080Y011000D03*
X043080Y011000D03*
X032180Y016600D03*
X031180Y016600D03*
X030180Y016600D03*
X030180Y017600D03*
X031180Y017600D03*
X032180Y017600D03*
X032180Y028250D03*
X033180Y028250D03*
X034180Y028250D03*
X035180Y028250D03*
X036180Y028250D03*
X037180Y028250D03*
X038180Y028250D03*
X039180Y028250D03*
X039180Y029250D03*
X038180Y029250D03*
X037180Y029250D03*
X036180Y029250D03*
X035180Y029250D03*
X034180Y029250D03*
X033180Y029250D03*
X032180Y029250D03*
X030480Y029250D03*
X029480Y029250D03*
X028480Y029250D03*
X027480Y029250D03*
X026480Y029250D03*
X025480Y029250D03*
X024480Y029250D03*
X023480Y029250D03*
X023480Y028250D03*
X024480Y028250D03*
X025480Y028250D03*
X026480Y028250D03*
X027480Y028250D03*
X028480Y028250D03*
X029480Y028250D03*
X030480Y028250D03*
X040930Y028250D03*
X041930Y028250D03*
X042930Y028250D03*
X043930Y028250D03*
X044930Y028250D03*
X045930Y028250D03*
X046930Y028250D03*
X047930Y028250D03*
X047930Y029250D03*
X046930Y029250D03*
X045930Y029250D03*
X044930Y029250D03*
X043930Y029250D03*
X042930Y029250D03*
X041930Y029250D03*
X040930Y029250D03*
X049630Y029250D03*
X050630Y029250D03*
X051630Y029250D03*
X052630Y029250D03*
X053630Y029250D03*
X054630Y029250D03*
X055630Y029250D03*
X056630Y029250D03*
X056630Y028250D03*
X055630Y028250D03*
X054630Y028250D03*
X053630Y028250D03*
X052630Y028250D03*
X051630Y028250D03*
X050630Y028250D03*
X049630Y028250D03*
D11*
X039365Y018660D02*
X038775Y018660D01*
X038775Y017660D02*
X039365Y017660D01*
X039365Y016660D02*
X038775Y016660D01*
X027025Y011480D02*
X026435Y011480D01*
X026435Y010480D02*
X027025Y010480D01*
X027025Y009480D02*
X026435Y009480D01*
X032085Y003250D02*
X032675Y003250D01*
X032675Y002250D02*
X032085Y002250D01*
X051880Y005505D02*
X051880Y006095D01*
X052880Y006095D02*
X052880Y005505D01*
X027075Y025250D02*
X026485Y025250D01*
X026485Y026250D02*
X027075Y026250D01*
X024475Y026700D02*
X023885Y026700D01*
X023885Y025700D02*
X024475Y025700D01*
D12*
X021606Y023249D02*
X020307Y023249D01*
X020307Y020282D02*
X021606Y020282D01*
X021606Y017133D02*
X020307Y017133D01*
X020307Y007670D02*
X021606Y007670D01*
X021606Y003733D02*
X020307Y003733D01*
X020307Y028367D02*
X021606Y028367D01*
D13*
X007551Y029843D02*
X006409Y029843D01*
X006409Y026300D02*
X007551Y026300D01*
X007551Y022757D02*
X006409Y022757D01*
X006409Y019593D02*
X007551Y019593D01*
X007551Y016050D02*
X006409Y016050D01*
X006409Y012507D02*
X007551Y012507D01*
X007551Y009343D02*
X006409Y009343D01*
X006409Y005800D02*
X007551Y005800D01*
X007551Y002257D02*
X006409Y002257D01*
D14*
X020228Y002650D02*
X021291Y002650D01*
X021291Y006587D02*
X020228Y006587D01*
X020228Y016050D02*
X021291Y016050D01*
X021291Y019200D02*
X020228Y019200D01*
X020228Y024331D02*
X021291Y024331D01*
X021291Y029450D02*
X020228Y029450D01*
D15*
X007531Y030843D02*
X006429Y030843D01*
X006429Y027300D02*
X007531Y027300D01*
X007531Y023757D02*
X006429Y023757D01*
X006429Y020593D02*
X007531Y020593D01*
X007531Y017050D02*
X006429Y017050D01*
X006429Y013507D02*
X007531Y013507D01*
X007531Y008343D02*
X006429Y008343D01*
X006429Y004800D02*
X007531Y004800D01*
X007531Y001257D02*
X006429Y001257D01*
D16*
X003590Y014030D03*
X002470Y014570D03*
X003590Y015120D03*
X002470Y015660D03*
X003590Y016200D03*
X002470Y016750D03*
X003590Y017290D03*
X002470Y017830D03*
X003590Y018380D03*
X002470Y018920D03*
X003590Y019460D03*
X002470Y020010D03*
X003590Y020550D03*
X002470Y021090D03*
X003590Y021640D03*
X002470Y022180D03*
X003590Y022720D03*
X002470Y023270D03*
X003590Y023810D03*
X002470Y024350D03*
X003590Y024900D03*
X002470Y025440D03*
X003590Y025980D03*
X002470Y026530D03*
X003590Y027070D03*
D17*
X003030Y029810D03*
X003030Y011290D03*
D18*
X048030Y007100D03*
X049030Y007100D03*
X050030Y007100D03*
X050030Y006100D03*
X049030Y006100D03*
X048030Y006100D03*
D19*
X003830Y003400D03*
X003130Y005700D03*
X001330Y005700D03*
X001330Y007150D03*
X003130Y007150D03*
X003130Y008700D03*
X001330Y008700D03*
X053180Y001250D03*
D20*
X053830Y002200D03*
X049380Y002350D03*
X049080Y003850D03*
X048130Y004500D03*
X046880Y004500D03*
X046380Y005050D03*
X042930Y004550D03*
X041630Y004800D03*
X040280Y004800D03*
X039780Y004800D03*
X037480Y004300D03*
X034530Y004900D03*
X033930Y005050D03*
X032930Y005050D03*
X033730Y002000D03*
X038080Y001400D03*
X042330Y001900D03*
X038230Y008850D03*
X037780Y009350D03*
X037480Y009900D03*
X038730Y012600D03*
X037730Y013150D03*
X037430Y012900D03*
X037380Y015900D03*
X041380Y016900D03*
X041530Y017550D03*
X041380Y017900D03*
X042980Y017850D03*
X043380Y018050D03*
X044030Y018050D03*
X044430Y017600D03*
X044380Y017200D03*
X045480Y019150D03*
X044780Y019350D03*
X045880Y019600D03*
X045480Y020350D03*
X047180Y020200D03*
X048780Y021050D03*
X052180Y020700D03*
X053055Y020700D03*
X053930Y020650D03*
X054605Y020650D03*
X055680Y020700D03*
X056405Y020700D03*
X057480Y020700D03*
X058305Y020700D03*
X058055Y022450D03*
X056405Y022450D03*
X054755Y022500D03*
X052955Y022400D03*
X049630Y023650D03*
X051430Y025050D03*
X050880Y025350D03*
X045680Y024600D03*
X045380Y024900D03*
X043930Y023750D03*
X043780Y023400D03*
X044030Y023050D03*
X043880Y022350D03*
X044180Y022025D03*
X043180Y021400D03*
X042630Y021300D03*
X042280Y021000D03*
X041930Y020850D03*
X041330Y021350D03*
X040980Y021000D03*
X039255Y021225D03*
X039280Y021850D03*
X037880Y021500D03*
X037730Y021850D03*
X037080Y022300D03*
X036830Y021500D03*
X035780Y022050D03*
X035680Y021150D03*
X035730Y020750D03*
X034030Y019750D03*
X036230Y018300D03*
X036680Y018300D03*
X037880Y018850D03*
X038130Y020400D03*
X041380Y019425D03*
X042430Y019450D03*
X042930Y020750D03*
X043430Y020750D03*
X043780Y020850D03*
X045680Y022450D03*
X041280Y025100D03*
X041530Y025550D03*
X042080Y025550D03*
X040530Y025100D03*
X039280Y024775D03*
X039380Y024250D03*
X040380Y023850D03*
X040730Y024100D03*
X037430Y023850D03*
X036930Y023500D03*
X036530Y023800D03*
X036630Y024300D03*
X037030Y024550D03*
X036480Y024800D03*
X034980Y026250D03*
X034330Y026000D03*
X033830Y027050D03*
X030030Y025700D03*
X028430Y025550D03*
X032780Y023650D03*
X033680Y022600D03*
X034230Y022600D03*
X032680Y021350D03*
X031930Y022000D03*
X030130Y022100D03*
X029980Y021000D03*
X028480Y022050D03*
X028330Y018250D03*
X024880Y016550D03*
X022830Y016550D03*
X020230Y015100D03*
X023030Y015000D03*
X024630Y014950D03*
X024680Y013600D03*
X022680Y011950D03*
X023180Y011800D03*
X024680Y011850D03*
X023180Y010350D03*
X023780Y009000D03*
X022380Y008750D03*
X024480Y007750D03*
X021380Y013250D03*
X033080Y017600D03*
X036480Y023200D03*
X041480Y026900D03*
X041830Y026900D03*
X040080Y027850D03*
X050530Y015400D03*
X049380Y015250D03*
X051780Y014950D03*
X050130Y013700D03*
X055230Y009650D03*
X055630Y009650D03*
X055630Y009250D03*
X055230Y009250D03*
X053330Y008950D03*
X057380Y007100D03*
X058830Y007800D03*
X058330Y011250D03*
D21*
X058830Y010500D03*
X058830Y009550D03*
X056780Y009550D03*
X056730Y010500D03*
X055680Y011500D03*
X054680Y011300D03*
X054230Y011300D03*
X053780Y011300D03*
X052880Y011200D03*
X052880Y011650D03*
X052880Y012100D03*
X051180Y012200D03*
X050680Y012200D03*
X050180Y012200D03*
X046030Y013850D03*
X046030Y014350D03*
X046030Y014850D03*
X046330Y016250D03*
X046330Y016700D03*
X049130Y015950D03*
X049630Y015950D03*
X049630Y017500D03*
X050280Y017900D03*
X051480Y017550D03*
X052430Y016500D03*
X053380Y017550D03*
X053380Y018600D03*
X053380Y019650D03*
X051455Y019650D03*
X050680Y020400D03*
X049430Y021000D03*
X049430Y021500D03*
X049480Y021975D03*
X049480Y022425D03*
X049630Y022900D03*
X052105Y024700D03*
X055280Y019650D03*
X055280Y018600D03*
X057180Y018600D03*
X057180Y019650D03*
X057180Y017550D03*
X055280Y017550D03*
X051480Y018600D03*
X046330Y018650D03*
X046330Y019125D03*
X055880Y012450D03*
X055880Y011950D03*
X056730Y011600D03*
X058630Y012850D03*
X058630Y013400D03*
X058630Y013950D03*
X058630Y014450D03*
X058630Y015000D03*
X053780Y009050D03*
X052880Y009050D03*
X049730Y008800D03*
X049280Y008800D03*
X053280Y006800D03*
X055130Y006000D03*
X055680Y006000D03*
X057580Y006000D03*
X058080Y006000D03*
X058130Y003600D03*
X057580Y003600D03*
X055730Y003600D03*
X055180Y003600D03*
X049130Y001250D03*
X042280Y001250D03*
X036930Y004600D03*
X017680Y016100D03*
X022830Y018300D03*
X022830Y018800D03*
X022830Y019300D03*
X017680Y019450D03*
X017980Y023750D03*
X029880Y019250D03*
X030380Y019250D03*
X030880Y019250D03*
X032830Y019650D03*
X033330Y019650D03*
X048080Y030000D03*
D22*
X046430Y028750D02*
X045930Y029250D01*
X046430Y028750D02*
X046430Y027600D01*
X045680Y026800D01*
X045680Y024600D01*
X045380Y024900D02*
X045380Y027650D01*
X045430Y027750D01*
X045430Y028700D01*
X044930Y029250D01*
X043930Y029250D02*
X043430Y028750D01*
X043430Y027900D01*
X042430Y026900D01*
X041830Y026900D01*
X041480Y026900D02*
X041480Y027100D01*
X041830Y027450D01*
X042130Y027450D01*
X042430Y027750D01*
X042430Y028700D01*
X042930Y029250D01*
X039630Y027100D02*
X041280Y025100D01*
X040530Y025100D02*
X040180Y025450D01*
X039030Y026650D01*
X037430Y026650D01*
X036680Y027500D01*
X036680Y028750D01*
X036180Y029250D01*
X035680Y028750D02*
X035180Y029250D01*
X034680Y028750D02*
X034680Y027450D01*
X035680Y026100D01*
X038580Y026100D01*
X040030Y024650D01*
X040380Y024250D01*
X040380Y023850D01*
X040730Y024100D02*
X040689Y024441D01*
X040489Y024591D01*
X038730Y026350D01*
X036380Y026350D01*
X035680Y027200D01*
X035680Y028750D01*
X034680Y028750D02*
X034180Y029250D01*
X031730Y027650D02*
X031080Y027650D01*
X030480Y028250D01*
X030680Y027650D02*
X030080Y027650D01*
X029480Y028250D01*
X029680Y027650D02*
X029080Y027650D01*
X028480Y028250D01*
X028080Y027650D02*
X027480Y028250D01*
X027780Y027650D02*
X027080Y027650D01*
X026480Y028250D01*
X026730Y027650D02*
X026080Y027650D01*
X025480Y028250D01*
X025080Y027650D02*
X024480Y028250D01*
X024730Y027650D02*
X024080Y027650D01*
X023480Y028250D01*
X024730Y027650D02*
X024980Y027400D01*
X025680Y027400D01*
X025830Y027250D01*
X026380Y027250D01*
X026630Y027000D01*
X027380Y027000D01*
X027580Y026800D01*
X028130Y026800D01*
X028330Y026600D01*
X029080Y026600D01*
X029330Y026350D01*
X030030Y026350D01*
X030180Y026200D01*
X030830Y026200D01*
X034080Y022950D01*
X037130Y022950D01*
X037480Y022600D01*
X037480Y022250D01*
X036830Y021500D01*
X036380Y021750D02*
X037080Y022300D01*
X037630Y021800D02*
X034480Y018650D01*
X027580Y018650D01*
X022680Y013800D01*
X022680Y011950D01*
X023480Y010900D02*
X023180Y010600D01*
X023180Y010350D01*
X023480Y010900D02*
X024580Y010900D01*
X025430Y011700D01*
X025430Y014150D01*
X027180Y015900D01*
X032280Y015900D01*
X037680Y021450D01*
X037880Y021500D01*
X037730Y021850D02*
X037630Y021800D01*
X038680Y021850D02*
X038680Y020250D01*
X036680Y018300D01*
X037880Y018850D02*
X040380Y021350D01*
X041330Y021350D01*
X041330Y020850D02*
X041930Y020850D01*
X042080Y020500D02*
X042280Y020700D01*
X042280Y021000D01*
X042630Y021300D02*
X042630Y020500D01*
X042430Y020300D01*
X040830Y020300D01*
X040430Y019950D01*
X040430Y015850D01*
X039880Y015300D01*
X037930Y015300D01*
X032530Y009900D01*
X029380Y009900D01*
X027830Y008300D01*
X026930Y007400D01*
X026930Y005100D01*
X026980Y005050D01*
X026980Y004250D01*
X025980Y004250D02*
X025980Y005250D01*
X025930Y005300D01*
X025930Y007550D01*
X026880Y008500D01*
X027580Y008500D01*
X029230Y010150D01*
X032430Y010150D01*
X037930Y015650D01*
X039780Y015650D01*
X040230Y016100D01*
X040230Y020050D01*
X040680Y020500D01*
X042080Y020500D01*
X041330Y020850D02*
X041180Y020700D01*
X040580Y020700D01*
X040030Y020150D01*
X040030Y016200D01*
X039730Y015900D01*
X037830Y015900D01*
X032380Y010450D01*
X029130Y010450D01*
X027430Y008750D01*
X026630Y008750D01*
X024930Y007100D01*
X024930Y005300D01*
X024980Y005100D01*
X024980Y004250D01*
X028780Y004250D02*
X028780Y004300D01*
X029930Y005450D01*
X029930Y007550D01*
X030580Y008200D01*
X031230Y008200D01*
X038180Y015000D01*
X039980Y015000D01*
X040630Y015650D01*
X040630Y019850D01*
X040880Y020100D01*
X042830Y020100D01*
X042930Y020250D01*
X042930Y020750D01*
X043430Y020750D02*
X043430Y020100D01*
X043280Y019900D01*
X040930Y019900D01*
X040830Y019800D01*
X040830Y015200D01*
X040380Y014750D01*
X038280Y014750D01*
X032730Y009200D01*
X032680Y009200D01*
X030930Y007450D01*
X030930Y005400D01*
X029780Y004250D01*
X030780Y004250D02*
X031930Y005450D01*
X031930Y008050D01*
X032830Y008900D01*
X035030Y011050D01*
X038430Y014450D01*
X040480Y014450D01*
X041030Y015000D01*
X041030Y019500D01*
X041230Y019700D01*
X043580Y019700D01*
X043780Y019900D01*
X043780Y020850D01*
X043680Y021400D02*
X043180Y021400D01*
X043680Y021400D02*
X045430Y019650D01*
X045480Y019150D01*
X045880Y019600D02*
X043580Y021850D01*
X039280Y021850D01*
X039130Y022300D02*
X038680Y021850D01*
X039130Y022300D02*
X043480Y022300D01*
X044430Y021350D01*
X045330Y021350D01*
X047080Y019600D01*
X047080Y017000D01*
X048880Y015250D01*
X049380Y015250D01*
X045580Y012650D02*
X045580Y011300D01*
X049530Y007350D01*
X049530Y006600D01*
X050030Y006100D01*
X049030Y006100D02*
X048280Y005350D01*
X047680Y005350D01*
X047280Y005750D01*
X047280Y007650D01*
X044180Y010750D01*
X044180Y012300D01*
X043380Y013100D01*
X043380Y018050D01*
X042980Y017850D02*
X041880Y017850D01*
X041530Y017550D01*
X042980Y017850D02*
X042980Y012950D01*
X043830Y012050D01*
X043830Y010650D01*
X046930Y007500D01*
X046930Y005600D01*
X048080Y004500D01*
X048130Y004500D01*
X049080Y003850D02*
X034680Y003950D01*
X033930Y004900D01*
X033930Y005050D01*
X033330Y004550D02*
X033330Y002900D01*
X033730Y002500D01*
X033730Y002450D01*
X049380Y002350D01*
X046880Y004500D02*
X045080Y004500D01*
X044730Y004850D01*
X042780Y004850D01*
X042380Y004450D01*
X038830Y004450D01*
X038080Y005200D01*
X035230Y005200D01*
X034930Y005500D01*
X034930Y006450D01*
X034480Y006900D01*
X034430Y006900D01*
X033430Y006900D02*
X033430Y008100D01*
X035230Y009900D01*
X037480Y009900D01*
X037780Y009350D02*
X037030Y009350D01*
X035430Y007750D01*
X035430Y006900D01*
X035880Y007350D02*
X037380Y008850D01*
X038230Y008850D01*
X035880Y007350D02*
X035880Y006400D01*
X035430Y005950D01*
X035430Y005900D01*
X033330Y004550D02*
X032930Y005050D01*
X038930Y005600D02*
X038930Y011200D01*
X037430Y012900D01*
X037730Y013150D02*
X039930Y010950D01*
X039930Y005350D01*
X040280Y005050D01*
X040280Y004800D01*
X039780Y004800D02*
X039730Y004800D01*
X038930Y005600D01*
X040930Y005200D02*
X040930Y010400D01*
X038730Y012600D01*
X044030Y013000D02*
X044580Y012450D01*
X044580Y010800D01*
X047530Y007800D01*
X047530Y006600D01*
X048030Y006100D01*
X049030Y007100D02*
X045080Y011050D01*
X045080Y012500D01*
X044380Y013250D01*
X044380Y017200D01*
X044430Y017600D02*
X044880Y017150D01*
X044880Y013350D01*
X045580Y012650D01*
X044030Y013000D02*
X044030Y018050D01*
X046680Y020700D02*
X045080Y022350D01*
X043880Y022350D01*
X044030Y023050D02*
X044280Y023050D01*
X044330Y023000D01*
X048730Y023000D01*
X049030Y023300D01*
X050980Y023300D01*
X053630Y020650D01*
X053930Y020650D01*
X055180Y020700D02*
X051830Y023950D01*
X049080Y023950D01*
X048430Y023400D01*
X043780Y023400D01*
X043930Y023750D02*
X048330Y023750D01*
X048880Y024200D01*
X053780Y024200D01*
X057280Y020700D01*
X057480Y020700D01*
X055680Y020700D02*
X055180Y020700D01*
X052180Y020700D02*
X046680Y020700D01*
X037430Y023850D02*
X037230Y024050D01*
X034230Y024050D01*
X031230Y027050D01*
X030630Y027050D01*
X030430Y027250D01*
X029780Y027250D01*
X029580Y027450D01*
X028930Y027450D01*
X028730Y027650D01*
X028080Y027650D01*
X027980Y027450D02*
X027780Y027650D01*
X027630Y027450D02*
X026930Y027450D01*
X026730Y027650D01*
X026530Y027450D02*
X025930Y027450D01*
X025730Y027650D01*
X025080Y027650D01*
X026530Y027450D02*
X026730Y027250D01*
X027480Y027250D01*
X027680Y027050D01*
X028230Y027050D01*
X028480Y026800D01*
X029280Y026800D01*
X029480Y026600D01*
X030130Y026600D01*
X030280Y026450D01*
X030930Y026450D01*
X034130Y023250D01*
X036480Y023200D01*
X036930Y023500D02*
X034180Y023500D01*
X031030Y026650D01*
X030380Y026650D01*
X030230Y026800D01*
X029580Y026800D01*
X029380Y027000D01*
X028630Y027000D01*
X028380Y027250D01*
X027830Y027250D01*
X027630Y027450D01*
X027980Y027450D02*
X028580Y027450D01*
X028830Y027200D01*
X029530Y027200D01*
X029680Y027050D01*
X030280Y027050D01*
X030480Y026850D01*
X031130Y026850D01*
X034180Y023800D01*
X036530Y023800D01*
X036630Y024300D02*
X034280Y024300D01*
X031330Y027250D01*
X030730Y027250D01*
X030530Y027450D01*
X029880Y027450D01*
X029680Y027650D01*
X030680Y027650D02*
X030880Y027450D01*
X031480Y027450D01*
X034380Y024550D01*
X037030Y024550D01*
X036480Y024800D02*
X034580Y024800D01*
X031730Y027650D01*
X028880Y025250D02*
X026780Y025250D01*
X028880Y025250D02*
X031580Y022550D01*
X032180Y022550D01*
X032680Y022050D01*
X032680Y021350D01*
X033430Y021000D02*
X034030Y021750D01*
X036380Y021750D01*
X035780Y022050D02*
X033530Y022150D01*
X032780Y023650D01*
X035330Y020800D02*
X035680Y021150D01*
X035330Y020800D02*
X035330Y020000D01*
X034230Y018900D01*
X025280Y018900D01*
X022830Y016550D01*
X028330Y018250D02*
X032630Y018250D01*
X032930Y017950D01*
X032930Y017650D01*
X033080Y017600D01*
X033430Y021000D02*
X029980Y021000D01*
X037680Y027400D02*
X037980Y027100D01*
X039630Y027100D01*
X037680Y027400D02*
X037680Y028750D01*
X037180Y029250D01*
X058330Y011250D02*
X058330Y008350D01*
X058830Y007800D01*
X046380Y005050D02*
X045280Y005050D01*
X044430Y005900D01*
X041630Y004800D02*
X041330Y004800D01*
X040930Y005200D01*
D23*
X036930Y004600D02*
X035980Y004900D01*
X034530Y004900D01*
X042330Y001900D02*
X050580Y001900D01*
X051030Y002350D01*
X051030Y007350D01*
X050380Y008000D01*
X049430Y008000D01*
X046130Y011300D01*
X046130Y012800D01*
X045330Y013600D01*
X045330Y017100D01*
X046330Y018100D01*
X046330Y018650D01*
X052430Y016500D02*
X053030Y016500D01*
X056730Y012800D01*
X056730Y011600D01*
X051430Y025050D02*
X051430Y025150D01*
X052130Y025850D01*
X052130Y028700D01*
X051630Y029250D01*
X051580Y029250D01*
X049880Y030950D01*
X012980Y030950D01*
X011130Y028750D01*
X003780Y028750D01*
X001630Y026600D01*
X001630Y026400D01*
X002470Y025460D01*
X002470Y025440D01*
X003030Y024900D02*
X003030Y027350D01*
X003980Y028300D01*
X011280Y028300D01*
X013130Y030500D01*
X049380Y030500D01*
X050630Y029250D01*
X051630Y028250D02*
X051630Y026100D01*
X050880Y025350D01*
X026730Y011480D02*
X026700Y011450D01*
X026030Y011450D01*
X024430Y009850D01*
X019830Y009850D01*
X018230Y011450D01*
X018230Y013700D01*
X010300Y021930D01*
X005400Y021930D01*
X005130Y022200D01*
X002490Y022200D01*
X002470Y022180D01*
X002470Y021090D02*
X002485Y021075D01*
X004705Y021075D01*
X005120Y021490D01*
X010140Y021490D01*
X017755Y013450D01*
X017755Y011225D01*
X019530Y009450D01*
X026700Y009450D01*
X026730Y009480D01*
X002470Y016740D02*
X002470Y016750D01*
X002470Y018920D02*
X002450Y018920D01*
X002470Y024350D02*
X002480Y024350D01*
X003030Y024900D01*
D24*
X051455Y019650D02*
X053380Y019650D01*
X055280Y019650D01*
X057180Y019650D01*
X057180Y017550D02*
X055280Y017550D01*
X053380Y017550D01*
X051480Y017550D01*
D25*
X051880Y024500D02*
X049780Y024500D01*
X049030Y025250D01*
X049030Y026850D01*
X048780Y027100D01*
X048780Y029750D01*
X048530Y030000D01*
X048080Y030000D01*
X052080Y024700D02*
X051880Y024500D01*
X052080Y024700D02*
X052105Y024700D01*
X004230Y009250D02*
X004230Y006650D01*
X003280Y005700D01*
X003130Y005700D01*
X003130Y007150D02*
X003830Y007950D01*
X003830Y009100D01*
X003530Y009400D01*
X002480Y009400D01*
X001130Y010750D01*
X001130Y015400D01*
X002470Y016740D01*
X000730Y017200D02*
X000730Y010350D01*
X002380Y008700D01*
X003130Y008700D01*
X004230Y009250D02*
X003680Y009800D01*
X002680Y009800D01*
X001530Y010950D01*
X001530Y013850D01*
X002230Y014550D01*
X002450Y014550D01*
X002470Y014570D01*
X000730Y017200D02*
X002450Y018920D01*
D26*
X050180Y012200D02*
X050680Y012200D01*
X051180Y012200D01*
X051180Y015200D01*
X050880Y016700D01*
X050880Y019000D01*
X051455Y019650D01*
X055880Y011950D02*
X055680Y011750D01*
X055680Y011500D01*
D27*
X055880Y011950D02*
X055880Y012450D01*
X053230Y012450D01*
X052880Y012100D01*
X052880Y011650D01*
X052880Y011200D01*
X006980Y010343D02*
X005380Y011943D01*
X005380Y011950D01*
X004630Y015650D01*
X003690Y016140D01*
X003590Y016200D01*
X003590Y014030D02*
X003600Y014030D01*
X004530Y011900D01*
X004580Y010107D01*
X004390Y019460D02*
X003590Y019460D01*
X004390Y019460D02*
X004530Y019600D01*
X004680Y024900D02*
X003590Y024900D01*
X003590Y025980D02*
X004110Y025980D01*
X004380Y026250D01*
D28*
X006930Y026250D01*
X006980Y026300D01*
X005837Y024900D02*
X004680Y024900D01*
X005837Y024900D02*
X006980Y023757D01*
X006973Y019600D02*
X004530Y019600D01*
X006973Y019600D02*
X006980Y019593D01*
X020956Y026974D02*
X023030Y024900D01*
X023030Y019700D01*
X022830Y019700D01*
X022830Y019300D01*
X022830Y018800D01*
X022830Y018300D01*
X020956Y026974D02*
X020956Y028367D01*
X006980Y010343D02*
X006980Y009343D01*
X005030Y009550D02*
X005030Y004107D01*
X005130Y004107D01*
X006980Y002257D01*
X005030Y009550D02*
X004580Y010100D01*
X004580Y010107D01*
D29*
X032180Y016600D02*
X032180Y017600D01*
M02*
