G75*
G70*
%OFA0B0*%
%FSLAX24Y24*%
%IPPOS*%
%LPD*%
%AMOC8*
5,1,8,0,0,1.08239X$1,22.5*
%
%ADD10C,0.1290*%
%ADD11OC8,0.0631*%
%ADD12C,0.0631*%
%ADD13C,0.1339*%
%ADD14C,0.1182*%
%ADD15C,0.1103*%
%ADD16C,0.1142*%
%ADD17OC8,0.0640*%
%ADD18C,0.2040*%
%ADD19OC8,0.0650*%
%ADD20OC8,0.0827*%
D10*
X001360Y001480D03*
X047430Y025400D03*
X058050Y030610D03*
X010810Y030610D03*
X058050Y001480D03*
D11*
X045430Y005900D03*
X044430Y005900D03*
X043430Y005900D03*
X042430Y005900D03*
X041430Y005900D03*
X040430Y005900D03*
X039430Y005900D03*
X038430Y005900D03*
X037430Y005900D03*
X036430Y005900D03*
X035430Y005900D03*
X034430Y005900D03*
X033430Y005900D03*
X032430Y005900D03*
X031430Y005900D03*
X030430Y005900D03*
X029430Y005900D03*
X028430Y005900D03*
X027430Y005900D03*
X026430Y005900D03*
X025430Y005900D03*
X024430Y005900D03*
X023430Y005900D03*
X023430Y006900D03*
X024430Y006900D03*
X025430Y006900D03*
X026430Y006900D03*
X027430Y006900D03*
X028430Y006900D03*
X029430Y006900D03*
X030430Y006900D03*
X031430Y006900D03*
X032430Y006900D03*
X033430Y006900D03*
X034430Y006900D03*
X035430Y006900D03*
X036430Y006900D03*
X037430Y006900D03*
X038430Y006900D03*
X039430Y006900D03*
X040430Y006900D03*
X041430Y006900D03*
X042430Y006900D03*
X043430Y006900D03*
X044430Y006900D03*
X045430Y006900D03*
X043080Y009000D03*
X042080Y009000D03*
X042080Y010000D03*
X043080Y010000D03*
X043080Y011000D03*
X042080Y011000D03*
X032180Y016600D03*
X031180Y016600D03*
X030180Y016600D03*
X030180Y017600D03*
X031180Y017600D03*
X032180Y017600D03*
X032180Y028250D03*
X033180Y028250D03*
X034180Y028250D03*
X035180Y028250D03*
X036180Y028250D03*
X037180Y028250D03*
X038180Y028250D03*
X039180Y028250D03*
X039180Y029250D03*
X038180Y029250D03*
X037180Y029250D03*
X036180Y029250D03*
X035180Y029250D03*
X034180Y029250D03*
X033180Y029250D03*
X032180Y029250D03*
X030480Y029250D03*
X029480Y029250D03*
X028480Y029250D03*
X027480Y029250D03*
X026480Y029250D03*
X025480Y029250D03*
X024480Y029250D03*
X023480Y029250D03*
X023480Y028250D03*
X024480Y028250D03*
X025480Y028250D03*
X026480Y028250D03*
X027480Y028250D03*
X028480Y028250D03*
X029480Y028250D03*
X030480Y028250D03*
X040930Y028250D03*
X041930Y028250D03*
X042930Y028250D03*
X043930Y028250D03*
X044930Y028250D03*
X045930Y028250D03*
X046930Y028250D03*
X047930Y028250D03*
X047930Y029250D03*
X046930Y029250D03*
X045930Y029250D03*
X044930Y029250D03*
X043930Y029250D03*
X042930Y029250D03*
X041930Y029250D03*
X040930Y029250D03*
X049630Y029250D03*
X050630Y029250D03*
X051630Y029250D03*
X052630Y029250D03*
X053630Y029250D03*
X054630Y029250D03*
X055630Y029250D03*
X056630Y029250D03*
X056630Y028250D03*
X055630Y028250D03*
X054630Y028250D03*
X053630Y028250D03*
X052630Y028250D03*
X051630Y028250D03*
X050630Y028250D03*
X049630Y028250D03*
X030780Y004250D03*
X029780Y004250D03*
X028780Y004250D03*
X028780Y003250D03*
X029780Y003250D03*
X030780Y003250D03*
X030780Y002250D03*
X029780Y002250D03*
X028780Y002250D03*
X026980Y002250D03*
X025980Y002250D03*
X024980Y002250D03*
X024980Y003250D03*
X025980Y003250D03*
X026980Y003250D03*
X026980Y004250D03*
X025980Y004250D03*
X024980Y004250D03*
D12*
X032085Y003250D02*
X032675Y003250D01*
X032675Y002250D02*
X032085Y002250D01*
X027025Y009480D02*
X026435Y009480D01*
X026435Y010480D02*
X027025Y010480D01*
X027025Y011480D02*
X026435Y011480D01*
X038775Y016660D02*
X039365Y016660D01*
X039365Y017660D02*
X038775Y017660D01*
X038775Y018660D02*
X039365Y018660D01*
X027075Y025250D02*
X026485Y025250D01*
X026485Y026250D02*
X027075Y026250D01*
X024475Y026700D02*
X023885Y026700D01*
X023885Y025700D02*
X024475Y025700D01*
X051880Y006095D02*
X051880Y005505D01*
X052880Y005505D02*
X052880Y006095D01*
D13*
X021606Y007670D02*
X020307Y007670D01*
X020307Y003733D02*
X021606Y003733D01*
X021606Y017133D02*
X020307Y017133D01*
X020307Y020282D02*
X021606Y020282D01*
X021606Y023249D02*
X020307Y023249D01*
X020307Y028367D02*
X021606Y028367D01*
D14*
X007551Y029843D02*
X006409Y029843D01*
X006409Y026300D02*
X007551Y026300D01*
X007551Y022757D02*
X006409Y022757D01*
X006409Y019593D02*
X007551Y019593D01*
X007551Y016050D02*
X006409Y016050D01*
X006409Y012507D02*
X007551Y012507D01*
X007551Y009343D02*
X006409Y009343D01*
X006409Y005800D02*
X007551Y005800D01*
X007551Y002257D02*
X006409Y002257D01*
D15*
X020228Y002650D02*
X021291Y002650D01*
X021291Y006587D02*
X020228Y006587D01*
X020228Y016050D02*
X021291Y016050D01*
X021291Y019200D02*
X020228Y019200D01*
X020228Y024331D02*
X021291Y024331D01*
X021291Y029450D02*
X020228Y029450D01*
D16*
X007531Y030843D02*
X006429Y030843D01*
X006429Y027300D02*
X007531Y027300D01*
X007531Y023757D02*
X006429Y023757D01*
X006429Y020593D02*
X007531Y020593D01*
X007531Y017050D02*
X006429Y017050D01*
X006429Y013507D02*
X007531Y013507D01*
X007531Y008343D02*
X006429Y008343D01*
X006429Y004800D02*
X007531Y004800D01*
X007531Y001257D02*
X006429Y001257D01*
D17*
X003590Y014030D03*
X002470Y014570D03*
X003590Y015120D03*
X002470Y015660D03*
X003590Y016200D03*
X002470Y016750D03*
X003590Y017290D03*
X002470Y017830D03*
X003590Y018380D03*
X002470Y018920D03*
X003590Y019460D03*
X002470Y020010D03*
X003590Y020550D03*
X002470Y021090D03*
X003590Y021640D03*
X002470Y022180D03*
X003590Y022720D03*
X002470Y023270D03*
X003590Y023810D03*
X002470Y024350D03*
X003590Y024900D03*
X002470Y025440D03*
X003590Y025980D03*
X002470Y026530D03*
X003590Y027070D03*
D18*
X003030Y029810D03*
X003030Y011290D03*
D19*
X048030Y007100D03*
X049030Y007100D03*
X050030Y007100D03*
X050030Y006100D03*
X049030Y006100D03*
X048030Y006100D03*
D20*
X053180Y001250D03*
X003830Y003400D03*
X003130Y005700D03*
X001330Y005700D03*
X001330Y007150D03*
X003130Y007150D03*
X003130Y008700D03*
X001330Y008700D03*
M02*
